<?xml version="1.0" encoding="UTF-8" standalone="no"?>
<!DOCTYPE svg PUBLIC "-//W3C//DTD SVG 1.1//EN"
 "http://www.w3.org/Graphics/SVG/1.1/DTD/svg11.dtd">
<!-- Generated by graphviz version 3.0.0 (20220413.0106)
 -->
<!-- Title: examples/all_platforms/advanced/MultiFile/CLI/functions.h Pages: 1 -->
<svg width="305pt" height="274pt"
 viewBox="0.00 0.00 305.00 274.00" xmlns="http://www.w3.org/2000/svg" xmlns:xlink="http://www.w3.org/1999/xlink">
<g id="graph0" class="graph" transform="scale(1 1) rotate(0) translate(4 270)">
<title>examples/all_platforms/advanced/MultiFile/CLI/functions.h</title>
<!-- Node1 -->
<g id="node1" class="node">
<title>Node1</title>
<g id="a_node1"><a xlink:title="Functions for MultiFile.ino.">
<polygon fill="#bfbfbf" stroke="black" points="149.5,-224.5 149.5,-265.5 269.5,-265.5 269.5,-224.5 149.5,-224.5"/>
<text text-anchor="start" x="157.5" y="-253.5" font-family="Helvetica,sans-Serif" font-size="10.00">examples/all_platforms</text>
<text text-anchor="start" x="157.5" y="-242.5" font-family="Helvetica,sans-Serif" font-size="10.00">/advanced/MultiFile/CLI</text>
<text text-anchor="middle" x="209.5" y="-231.5" font-family="Helvetica,sans-Serif" font-size="10.00">/functions.h</text>
</a>
</g>
</g>
<!-- Node2 -->
<g id="node2" class="node">
<title>Node2</title>
<g id="a_node2"><a xlink:href="../../d0/dd9/cli__setup_8h.html" target="_top" xlink:title="setup example for MultiFile.ino">
<polygon fill="none" stroke="black" points="178,-168.5 178,-187.5 241,-187.5 241,-168.5 178,-168.5"/>
<text text-anchor="middle" x="209.5" y="-175.5" font-family="Helvetica,sans-Serif" font-size="10.00">cli_setup.h</text>
</a>
</g>
</g>
<!-- Node1&#45;&gt;Node2 -->
<g id="edge1" class="edge">
<title>Node1&#45;&gt;Node2</title>
<path fill="none" stroke="midnightblue" d="M203.25,-224.5C202.56,-215.97 202.58,-206.01 203.33,-197.59"/>
<polygon fill="midnightblue" stroke="midnightblue" points="206.8,-198.04 204.74,-187.65 199.87,-197.06 206.8,-198.04"/>
</g>
<!-- Node2&#45;&gt;Node1 -->
<g id="edge7" class="edge">
<title>Node2&#45;&gt;Node1</title>
<path fill="none" stroke="midnightblue" d="M214.26,-187.65C215.73,-194.52 216.38,-204.56 216.23,-214.26"/>
<polygon fill="midnightblue" stroke="midnightblue" points="212.72,-214.34 215.75,-224.5 219.71,-214.67 212.72,-214.34"/>
</g>
<!-- Node3 -->
<g id="node3" class="node">
<title>Node3</title>
<g id="a_node3"><a xlink:href="../../df/dec/_input_handler_8h.html" target="_top" xlink:title="InputHandler library header file.">
<polygon fill="none" stroke="black" points="74.5,-112.5 74.5,-131.5 154.5,-131.5 154.5,-112.5 74.5,-112.5"/>
<text text-anchor="middle" x="114.5" y="-119.5" font-family="Helvetica,sans-Serif" font-size="10.00">InputHandler.h</text>
</a>
</g>
</g>
<!-- Node2&#45;&gt;Node3 -->
<g id="edge2" class="edge">
<title>Node2&#45;&gt;Node3</title>
<path fill="none" stroke="midnightblue" d="M194.24,-168.32C179.28,-159.82 156.25,-146.73 138.77,-136.8"/>
<polygon fill="midnightblue" stroke="midnightblue" points="140.15,-133.55 129.73,-131.65 136.69,-139.64 140.15,-133.55"/>
</g>
<!-- Node8 -->
<g id="node8" class="node">
<title>Node8</title>
<g id="a_node8"><a xlink:href="../../d6/d3b/parameters_8h.html" target="_top" xlink:title="Parameters and CommandConstructor objects for MultiFile.ino.">
<polygon fill="none" stroke="black" points="173,-112.5 173,-131.5 246,-131.5 246,-112.5 173,-112.5"/>
<text text-anchor="middle" x="209.5" y="-119.5" font-family="Helvetica,sans-Serif" font-size="10.00">parameters.h</text>
</a>
</g>
</g>
<!-- Node2&#45;&gt;Node8 -->
<g id="edge8" class="edge">
<title>Node2&#45;&gt;Node8</title>
<path fill="none" stroke="midnightblue" d="M204.33,-168.08C202.82,-160.93 202.39,-150.64 203.04,-141.69"/>
<polygon fill="midnightblue" stroke="midnightblue" points="206.52,-142.13 204.37,-131.75 199.58,-141.2 206.52,-142.13"/>
</g>
<!-- Node4 -->
<g id="node4" class="node">
<title>Node4</title>
<g id="a_node4"><a xlink:href="../../da/dc7/noedit_8h.html" target="_top" xlink:title="InputHandler library C includes.">
<polygon fill="none" stroke="black" points="75,-56.5 75,-75.5 154,-75.5 154,-56.5 75,-56.5"/>
<text text-anchor="middle" x="114.5" y="-63.5" font-family="Helvetica,sans-Serif" font-size="10.00">config/noedit.h</text>
</a>
</g>
</g>
<!-- Node3&#45;&gt;Node4 -->
<g id="edge3" class="edge">
<title>Node3&#45;&gt;Node4</title>
<path fill="none" stroke="midnightblue" d="M114.5,-112.08C114.5,-105.01 114.5,-94.86 114.5,-85.99"/>
<polygon fill="midnightblue" stroke="midnightblue" points="118,-85.75 114.5,-75.75 111,-85.75 118,-85.75"/>
</g>
<!-- Node5 -->
<g id="node5" class="node">
<title>Node5</title>
<g id="a_node5"><a xlink:title=" ">
<polygon fill="none" stroke="#bfbfbf" points="0,-0.5 0,-19.5 57,-19.5 57,-0.5 0,-0.5"/>
<text text-anchor="middle" x="28.5" y="-7.5" font-family="Helvetica,sans-Serif" font-size="10.00">Arduino.h</text>
</a>
</g>
</g>
<!-- Node4&#45;&gt;Node5 -->
<g id="edge4" class="edge">
<title>Node4&#45;&gt;Node5</title>
<path fill="none" stroke="midnightblue" d="M100.68,-56.32C87.27,-47.9 66.68,-34.97 50.91,-25.07"/>
<polygon fill="midnightblue" stroke="midnightblue" points="52.61,-22.01 42.28,-19.65 48.89,-27.94 52.61,-22.01"/>
</g>
<!-- Node6 -->
<g id="node6" class="node">
<title>Node6</title>
<g id="a_node6"><a xlink:href="../../db/d16/config_8h.html" target="_top" xlink:title="InputHandler library user configurable items.">
<polygon fill="none" stroke="black" points="75.5,-0.5 75.5,-19.5 153.5,-19.5 153.5,-0.5 75.5,-0.5"/>
<text text-anchor="middle" x="114.5" y="-7.5" font-family="Helvetica,sans-Serif" font-size="10.00">config/config.h</text>
</a>
</g>
</g>
<!-- Node4&#45;&gt;Node6 -->
<g id="edge5" class="edge">
<title>Node4&#45;&gt;Node6</title>
<path fill="none" stroke="midnightblue" d="M114.5,-56.08C114.5,-49.01 114.5,-38.86 114.5,-29.99"/>
<polygon fill="midnightblue" stroke="midnightblue" points="118,-29.75 114.5,-19.75 111,-29.75 118,-29.75"/>
</g>
<!-- Node7 -->
<g id="node7" class="node">
<title>Node7</title>
<g id="a_node7"><a xlink:href="../../d5/d4a/advanced__config_8h.html" target="_top" xlink:title="InputHandler library advanced user settings.">
<polygon fill="none" stroke="black" points="172,-0.5 172,-19.5 297,-19.5 297,-0.5 172,-0.5"/>
<text text-anchor="middle" x="234.5" y="-7.5" font-family="Helvetica,sans-Serif" font-size="10.00">config/advanced_config.h</text>
</a>
</g>
</g>
<!-- Node4&#45;&gt;Node7 -->
<g id="edge6" class="edge">
<title>Node4&#45;&gt;Node7</title>
<path fill="none" stroke="midnightblue" d="M133.51,-56.44C153.09,-47.64 183.81,-33.81 206.23,-23.72"/>
<polygon fill="midnightblue" stroke="midnightblue" points="207.89,-26.81 215.57,-19.52 205.02,-20.43 207.89,-26.81"/>
</g>
<!-- Node8&#45;&gt;Node2 -->
<g id="edge9" class="edge">
<title>Node8&#45;&gt;Node2</title>
<path fill="none" stroke="midnightblue" d="M214.63,-131.75C216.16,-138.86 216.6,-149.14 215.97,-158.1"/>
<polygon fill="midnightblue" stroke="midnightblue" points="212.49,-157.71 214.67,-168.08 219.43,-158.62 212.49,-157.71"/>
</g>
</g>
</svg>
