<?xml version="1.0" encoding="UTF-8" standalone="no"?>
<!DOCTYPE svg PUBLIC "-//W3C//DTD SVG 1.1//EN"
 "http://www.w3.org/Graphics/SVG/1.1/DTD/svg11.dtd">
<!-- Generated by graphviz version 4.0.0 (20220602.1335)
 -->
<!-- Title: examples/all_platforms/advanced/MultiFile/CLI/functions.h Pages: 1 -->
<svg width="228pt" height="274pt"
 viewBox="0.00 0.00 227.50 274.00" xmlns="http://www.w3.org/2000/svg" xmlns:xlink="http://www.w3.org/1999/xlink">
<g id="graph0" class="graph" transform="scale(1 1) rotate(0) translate(4 270)">
<title>examples/all_platforms/advanced/MultiFile/CLI/functions.h</title>
<!-- Node1 -->
<g id="node1" class="node">
<title>Node1</title>
<g id="a_node1"><a xlink:title="Functions for MultiFile.ino.">
<polygon fill="#bfbfbf" stroke="black" points="99.5,-224.5 99.5,-265.5 219.5,-265.5 219.5,-224.5 99.5,-224.5"/>
<text text-anchor="start" x="107.5" y="-253.5" font-family="Helvetica,sans-Serif" font-size="10.00">examples/all_platforms</text>
<text text-anchor="start" x="107.5" y="-242.5" font-family="Helvetica,sans-Serif" font-size="10.00">/advanced/MultiFile/CLI</text>
<text text-anchor="middle" x="159.5" y="-231.5" font-family="Helvetica,sans-Serif" font-size="10.00">/functions.h</text>
</a>
</g>
</g>
<!-- Node2 -->
<g id="node2" class="node">
<title>Node2</title>
<g id="a_node2"><a xlink:href="../../d0/dd9/cli__setup_8h.html" target="_top" xlink:title="setup example for MultiFile.ino">
<polygon fill="none" stroke="black" points="128,-168.5 128,-187.5 191,-187.5 191,-168.5 128,-168.5"/>
<text text-anchor="middle" x="159.5" y="-175.5" font-family="Helvetica,sans-Serif" font-size="10.00">cli_setup.h</text>
</a>
</g>
</g>
<!-- Node1&#45;&gt;Node2 -->
<g id="edge1" class="edge">
<title>Node1&#45;&gt;Node2</title>
<path fill="none" stroke="midnightblue" d="M153.25,-224.5C152.56,-215.97 152.58,-206.01 153.33,-197.59"/>
<polygon fill="midnightblue" stroke="midnightblue" points="156.8,-198.04 154.74,-187.65 149.87,-197.06 156.8,-198.04"/>
</g>
<!-- Node2&#45;&gt;Node1 -->
<g id="edge6" class="edge">
<title>Node2&#45;&gt;Node1</title>
<path fill="none" stroke="midnightblue" d="M164.26,-187.65C165.73,-194.52 166.38,-204.56 166.23,-214.26"/>
<polygon fill="midnightblue" stroke="midnightblue" points="162.72,-214.34 165.75,-224.5 169.71,-214.67 162.72,-214.34"/>
</g>
<!-- Node3 -->
<g id="node3" class="node">
<title>Node3</title>
<g id="a_node3"><a xlink:href="../../df/dec/_input_handler_8h.html" target="_top" xlink:title="InputHandler library header file.">
<polygon fill="none" stroke="black" points="24.5,-112.5 24.5,-131.5 104.5,-131.5 104.5,-112.5 24.5,-112.5"/>
<text text-anchor="middle" x="64.5" y="-119.5" font-family="Helvetica,sans-Serif" font-size="10.00">InputHandler.h</text>
</a>
</g>
</g>
<!-- Node2&#45;&gt;Node3 -->
<g id="edge2" class="edge">
<title>Node2&#45;&gt;Node3</title>
<path fill="none" stroke="midnightblue" d="M144.24,-168.32C129.28,-159.82 106.25,-146.73 88.77,-136.8"/>
<polygon fill="midnightblue" stroke="midnightblue" points="90.15,-133.55 79.73,-131.65 86.69,-139.64 90.15,-133.55"/>
</g>
<!-- Node7 -->
<g id="node7" class="node">
<title>Node7</title>
<g id="a_node7"><a xlink:href="../../d6/d3b/parameters_8h.html" target="_top" xlink:title="Parameters and CommandConstructor objects for MultiFile.ino.">
<polygon fill="none" stroke="black" points="123,-112.5 123,-131.5 196,-131.5 196,-112.5 123,-112.5"/>
<text text-anchor="middle" x="159.5" y="-119.5" font-family="Helvetica,sans-Serif" font-size="10.00">parameters.h</text>
</a>
</g>
</g>
<!-- Node2&#45;&gt;Node7 -->
<g id="edge7" class="edge">
<title>Node2&#45;&gt;Node7</title>
<path fill="none" stroke="midnightblue" d="M154.33,-168.08C152.82,-160.93 152.39,-150.64 153.04,-141.69"/>
<polygon fill="midnightblue" stroke="midnightblue" points="156.52,-142.13 154.37,-131.75 149.58,-141.2 156.52,-142.13"/>
</g>
<!-- Node4 -->
<g id="node4" class="node">
<title>Node4</title>
<g id="a_node4"><a xlink:href="../../da/dc7/noedit_8h.html" target="_top" xlink:title="InputHandler library C includes, do not edit.">
<polygon fill="none" stroke="black" points="25,-56.5 25,-75.5 104,-75.5 104,-56.5 25,-56.5"/>
<text text-anchor="middle" x="64.5" y="-63.5" font-family="Helvetica,sans-Serif" font-size="10.00">config/noedit.h</text>
</a>
</g>
</g>
<!-- Node3&#45;&gt;Node4 -->
<g id="edge3" class="edge">
<title>Node3&#45;&gt;Node4</title>
<path fill="none" stroke="midnightblue" d="M64.5,-112.08C64.5,-105.01 64.5,-94.86 64.5,-85.99"/>
<polygon fill="midnightblue" stroke="midnightblue" points="68,-85.75 64.5,-75.75 61,-85.75 68,-85.75"/>
</g>
<!-- Node5 -->
<g id="node5" class="node">
<title>Node5</title>
<g id="a_node5"><a xlink:title=" ">
<polygon fill="none" stroke="#bfbfbf" points="0,-0.5 0,-19.5 57,-19.5 57,-0.5 0,-0.5"/>
<text text-anchor="middle" x="28.5" y="-7.5" font-family="Helvetica,sans-Serif" font-size="10.00">Arduino.h</text>
</a>
</g>
</g>
<!-- Node4&#45;&gt;Node5 -->
<g id="edge4" class="edge">
<title>Node4&#45;&gt;Node5</title>
<path fill="none" stroke="midnightblue" d="M58.56,-56.08C53.52,-48.53 46.16,-37.49 39.99,-28.23"/>
<polygon fill="midnightblue" stroke="midnightblue" points="42.79,-26.13 34.33,-19.75 36.97,-30.01 42.79,-26.13"/>
</g>
<!-- Node6 -->
<g id="node6" class="node">
<title>Node6</title>
<g id="a_node6"><a xlink:href="../../db/d16/config_8h.html" target="_top" xlink:title="InputHandler library user configurable items.">
<polygon fill="none" stroke="black" points="75.5,-0.5 75.5,-19.5 125.5,-19.5 125.5,-0.5 75.5,-0.5"/>
<text text-anchor="middle" x="100.5" y="-7.5" font-family="Helvetica,sans-Serif" font-size="10.00">config.h</text>
</a>
</g>
</g>
<!-- Node4&#45;&gt;Node6 -->
<g id="edge5" class="edge">
<title>Node4&#45;&gt;Node6</title>
<path fill="none" stroke="midnightblue" d="M70.44,-56.08C75.48,-48.53 82.84,-37.49 89.01,-28.23"/>
<polygon fill="midnightblue" stroke="midnightblue" points="92.03,-30.01 94.67,-19.75 86.21,-26.13 92.03,-30.01"/>
</g>
<!-- Node7&#45;&gt;Node2 -->
<g id="edge8" class="edge">
<title>Node7&#45;&gt;Node2</title>
<path fill="none" stroke="midnightblue" d="M164.63,-131.75C166.16,-138.86 166.6,-149.14 165.97,-158.1"/>
<polygon fill="midnightblue" stroke="midnightblue" points="162.49,-157.71 164.67,-168.08 169.43,-158.62 162.49,-157.71"/>
</g>
</g>
</svg>
