<?xml version="1.0" encoding="UTF-8" standalone="no"?>
<!DOCTYPE svg PUBLIC "-//W3C//DTD SVG 1.1//EN"
 "http://www.w3.org/Graphics/SVG/1.1/DTD/svg11.dtd">
<!-- Generated by graphviz version 3.0.0 (20220413.0106)
 -->
<!-- Title: examples/all_platforms/advanced/MultiFile/CLI/functions.h Pages: 1 -->
<svg width="214pt" height="285pt"
 viewBox="0.00 0.00 213.50 285.00" xmlns="http://www.w3.org/2000/svg" xmlns:xlink="http://www.w3.org/1999/xlink">
<g id="graph0" class="graph" transform="scale(1 1) rotate(0) translate(4 281)">
<title>examples/all_platforms/advanced/MultiFile/CLI/functions.h</title>
<!-- Node1 -->
<g id="node1" class="node">
<title>Node1</title>
<g id="a_node1"><a xlink:title="Functions for MultiFile.ino.">
<polygon fill="#bfbfbf" stroke="black" points="85.5,-235.5 85.5,-276.5 205.5,-276.5 205.5,-235.5 85.5,-235.5"/>
<text text-anchor="start" x="93.5" y="-264.5" font-family="Helvetica,sans-Serif" font-size="10.00">examples/all_platforms</text>
<text text-anchor="start" x="93.5" y="-253.5" font-family="Helvetica,sans-Serif" font-size="10.00">/advanced/MultiFile/CLI</text>
<text text-anchor="middle" x="145.5" y="-242.5" font-family="Helvetica,sans-Serif" font-size="10.00">/functions.h</text>
</a>
</g>
</g>
<!-- Node2 -->
<g id="node2" class="node">
<title>Node2</title>
<g id="a_node2"><a xlink:href="../../d0/dd9/cli__setup_8h.html" target="_top" xlink:title="setup example for MultiFile.ino">
<polygon fill="none" stroke="black" points="114,-179.5 114,-198.5 177,-198.5 177,-179.5 114,-179.5"/>
<text text-anchor="middle" x="145.5" y="-186.5" font-family="Helvetica,sans-Serif" font-size="10.00">cli_setup.h</text>
</a>
</g>
</g>
<!-- Node1&#45;&gt;Node2 -->
<g id="edge1" class="edge">
<title>Node1&#45;&gt;Node2</title>
<path fill="none" stroke="midnightblue" d="M139.25,-235.5C138.56,-226.97 138.58,-217.01 139.33,-208.59"/>
<polygon fill="midnightblue" stroke="midnightblue" points="142.8,-209.04 140.74,-198.65 135.87,-208.06 142.8,-209.04"/>
</g>
<!-- Node2&#45;&gt;Node1 -->
<g id="edge5" class="edge">
<title>Node2&#45;&gt;Node1</title>
<path fill="none" stroke="midnightblue" d="M150.26,-198.65C151.73,-205.52 152.38,-215.56 152.23,-225.26"/>
<polygon fill="midnightblue" stroke="midnightblue" points="148.72,-225.34 151.75,-235.5 155.71,-225.67 148.72,-225.34"/>
</g>
<!-- Node3 -->
<g id="node3" class="node">
<title>Node3</title>
<g id="a_node3"><a xlink:href="../../df/dec/_input_handler_8h.html" target="_top" xlink:title="InputHandler library header file.">
<polygon fill="none" stroke="black" points="10.5,-123.5 10.5,-142.5 90.5,-142.5 90.5,-123.5 10.5,-123.5"/>
<text text-anchor="middle" x="50.5" y="-130.5" font-family="Helvetica,sans-Serif" font-size="10.00">InputHandler.h</text>
</a>
</g>
</g>
<!-- Node2&#45;&gt;Node3 -->
<g id="edge2" class="edge">
<title>Node2&#45;&gt;Node3</title>
<path fill="none" stroke="midnightblue" d="M130.24,-179.32C115.28,-170.82 92.25,-157.73 74.77,-147.8"/>
<polygon fill="midnightblue" stroke="midnightblue" points="76.15,-144.55 65.73,-142.65 72.69,-150.64 76.15,-144.55"/>
</g>
<!-- Node6 -->
<g id="node6" class="node">
<title>Node6</title>
<g id="a_node6"><a xlink:href="../../d6/d3b/parameters_8h.html" target="_top" xlink:title="Parameters and CommandConstructor objects for MultiFile.ino.">
<polygon fill="none" stroke="black" points="109,-123.5 109,-142.5 182,-142.5 182,-123.5 109,-123.5"/>
<text text-anchor="middle" x="145.5" y="-130.5" font-family="Helvetica,sans-Serif" font-size="10.00">parameters.h</text>
</a>
</g>
</g>
<!-- Node2&#45;&gt;Node6 -->
<g id="edge6" class="edge">
<title>Node2&#45;&gt;Node6</title>
<path fill="none" stroke="midnightblue" d="M140.33,-179.08C138.82,-171.93 138.39,-161.64 139.04,-152.69"/>
<polygon fill="midnightblue" stroke="midnightblue" points="142.52,-153.13 140.37,-142.75 135.58,-152.2 142.52,-153.13"/>
</g>
<!-- Node4 -->
<g id="node4" class="node">
<title>Node4</title>
<g id="a_node4"><a xlink:href="../../dd/d4e/_input_handler__config_8h.html" target="_top" xlink:title="InputHandler library configuration file.">
<polygon fill="none" stroke="black" points="0,-56.5 0,-86.5 101,-86.5 101,-56.5 0,-56.5"/>
<text text-anchor="start" x="8" y="-74.5" font-family="Helvetica,sans-Serif" font-size="10.00">config/InputHandler</text>
<text text-anchor="middle" x="50.5" y="-63.5" font-family="Helvetica,sans-Serif" font-size="10.00">_config.h</text>
</a>
</g>
</g>
<!-- Node3&#45;&gt;Node4 -->
<g id="edge3" class="edge">
<title>Node3&#45;&gt;Node4</title>
<path fill="none" stroke="midnightblue" d="M50.5,-123.48C50.5,-116.47 50.5,-106.19 50.5,-96.7"/>
<polygon fill="midnightblue" stroke="midnightblue" points="54,-96.52 50.5,-86.52 47,-96.52 54,-96.52"/>
</g>
<!-- Node5 -->
<g id="node5" class="node">
<title>Node5</title>
<g id="a_node5"><a xlink:title=" ">
<polygon fill="none" stroke="#bfbfbf" points="22,-0.5 22,-19.5 79,-19.5 79,-0.5 22,-0.5"/>
<text text-anchor="middle" x="50.5" y="-7.5" font-family="Helvetica,sans-Serif" font-size="10.00">Arduino.h</text>
</a>
</g>
</g>
<!-- Node4&#45;&gt;Node5 -->
<g id="edge4" class="edge">
<title>Node4&#45;&gt;Node5</title>
<path fill="none" stroke="midnightblue" d="M50.5,-56.4C50.5,-48.47 50.5,-38.46 50.5,-29.86"/>
<polygon fill="midnightblue" stroke="midnightblue" points="54,-29.66 50.5,-19.66 47,-29.66 54,-29.66"/>
</g>
<!-- Node6&#45;&gt;Node2 -->
<g id="edge7" class="edge">
<title>Node6&#45;&gt;Node2</title>
<path fill="none" stroke="midnightblue" d="M150.63,-142.75C152.16,-149.86 152.6,-160.14 151.97,-169.1"/>
<polygon fill="midnightblue" stroke="midnightblue" points="148.49,-168.71 150.67,-179.08 155.43,-169.62 148.49,-168.71"/>
</g>
</g>
</svg>
