<?xml version="1.0" encoding="UTF-8" standalone="no"?>
<!DOCTYPE svg PUBLIC "-//W3C//DTD SVG 1.1//EN"
 "http://www.w3.org/Graphics/SVG/1.1/DTD/svg11.dtd">
<!-- Generated by graphviz version 3.0.0 (20220413.0106)
 -->
<!-- Title: src/config/InputHandler_PROGMEM_settings.h Pages: 1 -->
<svg width="2479pt" height="463pt"
 viewBox="0.00 0.00 2479.00 463.00" xmlns="http://www.w3.org/2000/svg" xmlns:xlink="http://www.w3.org/1999/xlink">
<g id="graph0" class="graph" transform="scale(1 1) rotate(0) translate(4 459)">
<title>src/config/InputHandler_PROGMEM_settings.h</title>
<!-- Node1 -->
<g id="node1" class="node">
<title>Node1</title>
<g id="a_node1"><a xlink:title=" ">
<polygon fill="#bfbfbf" stroke="black" points="1074.5,-424.5 1074.5,-454.5 1194.5,-454.5 1194.5,-424.5 1074.5,-424.5"/>
<text text-anchor="start" x="1082.5" y="-442.5" font-family="Helvetica,sans-Serif" font-size="10.00">src/config/InputHandler</text>
<text text-anchor="middle" x="1134.5" y="-431.5" font-family="Helvetica,sans-Serif" font-size="10.00">_PROGMEM_settings.h</text>
</a>
</g>
</g>
<!-- Node2 -->
<g id="node2" class="node">
<title>Node2</title>
<g id="a_node2"><a xlink:href="../../dd/d4e/_input_handler__config_8h.html" target="_top" xlink:title="InputHandler library configuration file.">
<polygon fill="none" stroke="black" points="1076,-357.5 1076,-387.5 1193,-387.5 1193,-357.5 1076,-357.5"/>
<text text-anchor="start" x="1084" y="-375.5" font-family="Helvetica,sans-Serif" font-size="10.00">src/config/InputHandler</text>
<text text-anchor="middle" x="1134.5" y="-364.5" font-family="Helvetica,sans-Serif" font-size="10.00">_config.h</text>
</a>
</g>
</g>
<!-- Node1&#45;&gt;Node2 -->
<g id="edge1" class="edge">
<title>Node1&#45;&gt;Node2</title>
<path fill="none" stroke="midnightblue" d="M1134.5,-414.11C1134.5,-405.15 1134.5,-395.32 1134.5,-387.58"/>
<polygon fill="midnightblue" stroke="midnightblue" points="1131,-414.4 1134.5,-424.4 1138,-414.4 1131,-414.4"/>
</g>
<!-- Node3 -->
<g id="node3" class="node">
<title>Node3</title>
<g id="a_node3"><a xlink:href="../../df/dec/_input_handler_8h.html" target="_top" xlink:title="InputHandler library header file.">
<polygon fill="none" stroke="black" points="1086.5,-301.5 1086.5,-320.5 1182.5,-320.5 1182.5,-301.5 1086.5,-301.5"/>
<text text-anchor="middle" x="1134.5" y="-308.5" font-family="Helvetica,sans-Serif" font-size="10.00">src/InputHandler.h</text>
</a>
</g>
</g>
<!-- Node2&#45;&gt;Node3 -->
<g id="edge2" class="edge">
<title>Node2&#45;&gt;Node3</title>
<path fill="none" stroke="midnightblue" d="M1134.5,-347.29C1134.5,-337.86 1134.5,-327.65 1134.5,-320.66"/>
<polygon fill="midnightblue" stroke="midnightblue" points="1131,-347.4 1134.5,-357.4 1138,-347.4 1131,-347.4"/>
</g>
<!-- Node4 -->
<g id="node4" class="node">
<title>Node4</title>
<g id="a_node4"><a xlink:href="../../db/dc6/advanced_2_get_command_from_stream_2_get_command_from_stream_8ino.html" target="_top" xlink:title="An example that demonstrates how to retrieve type&#45;valid arguments from a Stream.">
<polygon fill="none" stroke="black" points="0,-223.5 0,-264.5 179,-264.5 179,-223.5 0,-223.5"/>
<text text-anchor="start" x="8" y="-252.5" font-family="Helvetica,sans-Serif" font-size="10.00">examples/all_platforms</text>
<text text-anchor="start" x="8" y="-241.5" font-family="Helvetica,sans-Serif" font-size="10.00">/advanced/GetCommandFromStream</text>
<text text-anchor="middle" x="89.5" y="-230.5" font-family="Helvetica,sans-Serif" font-size="10.00">/GetCommandFromStream.ino</text>
</a>
</g>
</g>
<!-- Node3&#45;&gt;Node4 -->
<g id="edge3" class="edge">
<title>Node3&#45;&gt;Node4</title>
<path fill="none" stroke="midnightblue" d="M1075.76,-310.3C926.78,-310.38 522.33,-306.42 188.5,-265 185.45,-264.62 182.36,-264.2 179.25,-263.75"/>
<polygon fill="midnightblue" stroke="midnightblue" points="1076.04,-313.8 1086.04,-310.28 1076.03,-306.8 1076.04,-313.8"/>
</g>
<!-- Node5 -->
<g id="node5" class="node">
<title>Node5</title>
<g id="a_node5"><a xlink:href="../../d0/dd9/cli__setup_8h.html" target="_top" xlink:title="setup example for MultiFile.ino">
<polygon fill="none" stroke="black" points="197.5,-223.5 197.5,-264.5 317.5,-264.5 317.5,-223.5 197.5,-223.5"/>
<text text-anchor="start" x="205.5" y="-252.5" font-family="Helvetica,sans-Serif" font-size="10.00">examples/all_platforms</text>
<text text-anchor="start" x="205.5" y="-241.5" font-family="Helvetica,sans-Serif" font-size="10.00">/advanced/MultiFile/CLI</text>
<text text-anchor="middle" x="257.5" y="-230.5" font-family="Helvetica,sans-Serif" font-size="10.00">/cli_setup.h</text>
</a>
</g>
</g>
<!-- Node3&#45;&gt;Node5 -->
<g id="edge4" class="edge">
<title>Node3&#45;&gt;Node5</title>
<path fill="none" stroke="midnightblue" d="M1076.37,-306.02C965.38,-298.38 715.63,-280.99 505.5,-265 441.32,-260.12 367.84,-254.14 317.62,-250"/>
<polygon fill="midnightblue" stroke="midnightblue" points="1076.14,-309.51 1086.35,-306.7 1076.62,-302.53 1076.14,-309.51"/>
</g>
<!-- Node9 -->
<g id="node9" class="node">
<title>Node9</title>
<g id="a_node9"><a xlink:href="../../dd/d65/_n_m_e_aparser_8ino.html" target="_top" xlink:title="An example that demonstrates how to use InputHandler&#39;s public methods to parse NMEA 0183 sentences.">
<polygon fill="none" stroke="black" points="473.5,-0.5 473.5,-30.5 667.5,-30.5 667.5,-0.5 473.5,-0.5"/>
<text text-anchor="start" x="481.5" y="-18.5" font-family="Helvetica,sans-Serif" font-size="10.00">examples/all_platforms</text>
<text text-anchor="middle" x="570.5" y="-7.5" font-family="Helvetica,sans-Serif" font-size="10.00">/advanced/NMEAparser/NMEAparser.ino</text>
</a>
</g>
</g>
<!-- Node3&#45;&gt;Node9 -->
<g id="edge10" class="edge">
<title>Node3&#45;&gt;Node9</title>
<path fill="none" stroke="midnightblue" d="M1076.05,-309.67C935.83,-308.31 589.21,-301.26 552.5,-265 489.74,-203.01 513.92,-151.73 538.5,-67 542.38,-53.64 550.96,-40.43 558.26,-30.88"/>
<polygon fill="midnightblue" stroke="midnightblue" points="1076.15,-313.17 1086.18,-309.77 1076.22,-306.17 1076.15,-313.17"/>
</g>
<!-- Node10 -->
<g id="node10" class="node">
<title>Node10</title>
<g id="a_node10"><a xlink:href="../../da/d60/_n_m_e_aparser_8h.html" target="_top" xlink:title="a class to assist in parsing NMEA 0183 strings">
<polygon fill="none" stroke="black" points="547.5,-67.5 547.5,-108.5 697.5,-108.5 697.5,-67.5 547.5,-67.5"/>
<text text-anchor="start" x="555.5" y="-96.5" font-family="Helvetica,sans-Serif" font-size="10.00">examples/all_platforms</text>
<text text-anchor="start" x="555.5" y="-85.5" font-family="Helvetica,sans-Serif" font-size="10.00">/advanced/NMEAparser/parser</text>
<text text-anchor="middle" x="622.5" y="-74.5" font-family="Helvetica,sans-Serif" font-size="10.00">/NMEAparser.h</text>
</a>
</g>
</g>
<!-- Node3&#45;&gt;Node10 -->
<g id="edge11" class="edge">
<title>Node3&#45;&gt;Node10</title>
<path fill="none" stroke="midnightblue" d="M1075.9,-309.66C939.51,-308.27 609.86,-301.16 576.5,-265 540.34,-225.8 558.52,-195.21 576.5,-145 581.42,-131.26 591.33,-118.47 600.69,-108.6"/>
<polygon fill="midnightblue" stroke="midnightblue" points="1076.12,-313.17 1086.15,-309.76 1076.19,-306.17 1076.12,-313.17"/>
</g>
<!-- Node11 -->
<g id="node11" class="node">
<title>Node11</title>
<g id="a_node11"><a xlink:href="../../d2/d20/_n_m_e_asentencefunc_8h.html" target="_top" xlink:title="NMEA 0183 sentence functions.">
<polygon fill="none" stroke="black" points="585.5,-223.5 585.5,-264.5 735.5,-264.5 735.5,-223.5 585.5,-223.5"/>
<text text-anchor="start" x="593.5" y="-252.5" font-family="Helvetica,sans-Serif" font-size="10.00">examples/all_platforms</text>
<text text-anchor="start" x="593.5" y="-241.5" font-family="Helvetica,sans-Serif" font-size="10.00">/advanced/NMEAparser/parser</text>
<text text-anchor="middle" x="660.5" y="-230.5" font-family="Helvetica,sans-Serif" font-size="10.00">/NMEAsentencefunc.h</text>
</a>
</g>
</g>
<!-- Node3&#45;&gt;Node11 -->
<g id="edge13" class="edge">
<title>Node3&#45;&gt;Node11</title>
<path fill="none" stroke="midnightblue" d="M1075.98,-305.08C1000.28,-298.28 864.5,-284.59 749.5,-265 744.97,-264.23 740.33,-263.38 735.65,-262.47"/>
<polygon fill="midnightblue" stroke="midnightblue" points="1075.98,-308.6 1086.25,-306 1076.6,-301.62 1075.98,-308.6"/>
</g>
<!-- Node12 -->
<g id="node12" class="node">
<title>Node12</title>
<g id="a_node12"><a xlink:href="../../da/dff/_n_m_e_asentenceparam_8h.html" target="_top" xlink:title="NMEA 0183 sentence CommandParameters structs.">
<polygon fill="none" stroke="black" points="585.5,-145.5 585.5,-186.5 735.5,-186.5 735.5,-145.5 585.5,-145.5"/>
<text text-anchor="start" x="593.5" y="-174.5" font-family="Helvetica,sans-Serif" font-size="10.00">examples/all_platforms</text>
<text text-anchor="start" x="593.5" y="-163.5" font-family="Helvetica,sans-Serif" font-size="10.00">/advanced/NMEAparser/parser</text>
<text text-anchor="middle" x="660.5" y="-152.5" font-family="Helvetica,sans-Serif" font-size="10.00">/NMEAsentenceparam.h</text>
</a>
</g>
</g>
<!-- Node3&#45;&gt;Node12 -->
<g id="edge16" class="edge">
<title>Node3&#45;&gt;Node12</title>
<path fill="none" stroke="midnightblue" d="M1076.21,-307.42C989.73,-302.79 832.29,-291 782.5,-265 760.19,-253.35 763.56,-239.44 744.5,-223 728.97,-209.61 710.09,-196.76 694.17,-186.76"/>
<polygon fill="midnightblue" stroke="midnightblue" points="1076.22,-310.93 1086.39,-307.95 1076.58,-303.94 1076.22,-310.93"/>
</g>
<!-- Node13 -->
<g id="node13" class="node">
<title>Node13</title>
<g id="a_node13"><a xlink:href="../../da/d0f/_nested_commands_8ino.html" target="_top" xlink:title="An example that demonstrates nested subcommands.">
<polygon fill="none" stroke="black" points="791.5,-223.5 791.5,-264.5 937.5,-264.5 937.5,-223.5 791.5,-223.5"/>
<text text-anchor="start" x="799.5" y="-252.5" font-family="Helvetica,sans-Serif" font-size="10.00">examples/all_platforms</text>
<text text-anchor="start" x="799.5" y="-241.5" font-family="Helvetica,sans-Serif" font-size="10.00">/advanced/NestedCommands</text>
<text text-anchor="middle" x="864.5" y="-230.5" font-family="Helvetica,sans-Serif" font-size="10.00">/NestedCommands.ino</text>
</a>
</g>
</g>
<!-- Node3&#45;&gt;Node13 -->
<g id="edge17" class="edge">
<title>Node3&#45;&gt;Node13</title>
<path fill="none" stroke="midnightblue" d="M1088.8,-299.01C1050.94,-289.9 995.72,-276.61 947.5,-265 944.33,-264.24 941.09,-263.46 937.82,-262.67"/>
<polygon fill="midnightblue" stroke="midnightblue" points="1088.46,-302.52 1099,-301.46 1090.09,-295.72 1088.46,-302.52"/>
</g>
<!-- Node14 -->
<g id="node14" class="node">
<title>Node14</title>
<g id="a_node14"><a xlink:href="../../d4/ded/debugging_8ino.html" target="_top" xlink:title="An example that demonstrates how to use built in methods to assist in debugging process settings and ...">
<polygon fill="none" stroke="black" points="956,-229 956,-259 1127,-259 1127,-229 956,-229"/>
<text text-anchor="start" x="964" y="-247" font-family="Helvetica,sans-Serif" font-size="10.00">examples/all_platforms</text>
<text text-anchor="middle" x="1041.5" y="-236" font-family="Helvetica,sans-Serif" font-size="10.00">/advanced/debugging/debugging.ino</text>
</a>
</g>
</g>
<!-- Node3&#45;&gt;Node14 -->
<g id="edge18" class="edge">
<title>Node3&#45;&gt;Node14</title>
<path fill="none" stroke="midnightblue" d="M1113.54,-295.35C1098.02,-284.5 1076.99,-269.8 1061.66,-259.09"/>
<polygon fill="midnightblue" stroke="midnightblue" points="1111.76,-298.37 1121.96,-301.23 1115.77,-292.64 1111.76,-298.37"/>
</g>
<!-- Node15 -->
<g id="node15" class="node">
<title>Node15</title>
<g id="a_node15"><a xlink:href="../../db/d8e/_b_l_e___u_a_r_t_8ino.html" target="_top" xlink:title=" ">
<polygon fill="none" stroke="black" points="1145.5,-229 1145.5,-259 1311.5,-259 1311.5,-229 1145.5,-229"/>
<text text-anchor="start" x="1153.5" y="-247" font-family="Helvetica,sans-Serif" font-size="10.00">examples/all_platforms</text>
<text text-anchor="middle" x="1228.5" y="-236" font-family="Helvetica,sans-Serif" font-size="10.00">/basic/BLE_UART/BLE_UART.ino</text>
</a>
</g>
</g>
<!-- Node3&#45;&gt;Node15 -->
<g id="edge19" class="edge">
<title>Node3&#45;&gt;Node15</title>
<path fill="none" stroke="midnightblue" d="M1155.69,-295.35C1171.38,-284.5 1192.63,-269.8 1208.13,-259.09"/>
<polygon fill="midnightblue" stroke="midnightblue" points="1153.41,-292.67 1147.18,-301.23 1157.39,-298.43 1153.41,-292.67"/>
</g>
<!-- Node16 -->
<g id="node16" class="node">
<title>Node16</title>
<g id="a_node16"><a xlink:href="../../d7/d82/basic_2_get_command_from_stream_2_get_command_from_stream_8ino.html" target="_top" xlink:title="A basic InputHandler demonstration.">
<polygon fill="none" stroke="black" points="1329.5,-223.5 1329.5,-264.5 1489.5,-264.5 1489.5,-223.5 1329.5,-223.5"/>
<text text-anchor="start" x="1337.5" y="-252.5" font-family="Helvetica,sans-Serif" font-size="10.00">examples/all_platforms</text>
<text text-anchor="start" x="1337.5" y="-241.5" font-family="Helvetica,sans-Serif" font-size="10.00">/basic/GetCommandFromStream</text>
<text text-anchor="middle" x="1409.5" y="-230.5" font-family="Helvetica,sans-Serif" font-size="10.00">/GetCommandFromStream.ino</text>
</a>
</g>
</g>
<!-- Node3&#45;&gt;Node16 -->
<g id="edge20" class="edge">
<title>Node3&#45;&gt;Node16</title>
<path fill="none" stroke="midnightblue" d="M1180.61,-299.1C1221.16,-289.52 1281.09,-275.35 1329.45,-263.92"/>
<polygon fill="midnightblue" stroke="midnightblue" points="1179.66,-295.73 1170.73,-301.44 1181.27,-302.54 1179.66,-295.73"/>
</g>
<!-- Node17 -->
<g id="node17" class="node">
<title>Node17</title>
<g id="a_node17"><a xlink:href="../../dc/d05/_lo_ra_receiver_8ino.html" target="_top" xlink:title=" ">
<polygon fill="none" stroke="black" points="1507.5,-223.5 1507.5,-264.5 1641.5,-264.5 1641.5,-223.5 1507.5,-223.5"/>
<text text-anchor="start" x="1515.5" y="-252.5" font-family="Helvetica,sans-Serif" font-size="10.00">examples/all_platforms</text>
<text text-anchor="start" x="1515.5" y="-241.5" font-family="Helvetica,sans-Serif" font-size="10.00">/basic/LoRa/LoRaReceiver</text>
<text text-anchor="middle" x="1574.5" y="-230.5" font-family="Helvetica,sans-Serif" font-size="10.00">/LoRaReceiver.ino</text>
</a>
</g>
</g>
<!-- Node3&#45;&gt;Node17 -->
<g id="edge21" class="edge">
<title>Node3&#45;&gt;Node17</title>
<path fill="none" stroke="midnightblue" d="M1192.77,-305.23C1264.96,-298.76 1391.52,-285.59 1498.5,-265 1501.45,-264.43 1504.45,-263.82 1507.48,-263.16"/>
<polygon fill="midnightblue" stroke="midnightblue" points="1192.17,-301.77 1182.52,-306.13 1192.79,-308.74 1192.17,-301.77"/>
</g>
<!-- Node18 -->
<g id="node18" class="node">
<title>Node18</title>
<g id="a_node18"><a xlink:href="../../d8/da2/_r_f24_8ino.html" target="_top" xlink:title=" ">
<polygon fill="none" stroke="black" points="1659.5,-229 1659.5,-259 1775.5,-259 1775.5,-229 1659.5,-229"/>
<text text-anchor="start" x="1667.5" y="-247" font-family="Helvetica,sans-Serif" font-size="10.00">examples/all_platforms</text>
<text text-anchor="middle" x="1717.5" y="-236" font-family="Helvetica,sans-Serif" font-size="10.00">/basic/RF24/RF24.ino</text>
</a>
</g>
</g>
<!-- Node3&#45;&gt;Node18 -->
<g id="edge22" class="edge">
<title>Node3&#45;&gt;Node18</title>
<path fill="none" stroke="midnightblue" d="M1192.71,-308.77C1288.83,-305.87 1486.44,-296.3 1650.5,-265 1658.61,-263.45 1667.14,-261.32 1675.29,-259.01"/>
<polygon fill="midnightblue" stroke="midnightblue" points="1192.5,-305.27 1182.61,-309.06 1192.71,-312.27 1192.5,-305.27"/>
</g>
<!-- Node19 -->
<g id="node19" class="node">
<title>Node19</title>
<g id="a_node19"><a xlink:href="../../df/d23/_read_command_from_buffer_m_q_t_t_8ino.html" target="_top" xlink:title="An example that demonstrates receiving commands and sending an echo over MQTT.">
<polygon fill="none" stroke="black" points="1793,-223.5 1793,-264.5 1998,-264.5 1998,-223.5 1793,-223.5"/>
<text text-anchor="start" x="1801" y="-252.5" font-family="Helvetica,sans-Serif" font-size="10.00">examples/all_platforms</text>
<text text-anchor="start" x="1801" y="-241.5" font-family="Helvetica,sans-Serif" font-size="10.00">/basic/ReadCommandFromBuffer</text>
<text text-anchor="middle" x="1895.5" y="-230.5" font-family="Helvetica,sans-Serif" font-size="10.00">MQTT/ReadCommandFromBufferMQTT.ino</text>
</a>
</g>
</g>
<!-- Node3&#45;&gt;Node19 -->
<g id="edge23" class="edge">
<title>Node3&#45;&gt;Node19</title>
<path fill="none" stroke="midnightblue" d="M1193.04,-308.09C1307.19,-303.89 1567.33,-292 1784.5,-265 1787.22,-264.66 1789.98,-264.3 1792.75,-263.92"/>
<polygon fill="midnightblue" stroke="midnightblue" points="1192.65,-304.6 1182.78,-308.46 1192.9,-311.6 1192.65,-304.6"/>
</g>
<!-- Node20 -->
<g id="node20" class="node">
<title>Node20</title>
<g id="a_node20"><a xlink:href="../../d1/d96/_wildcard_commands_8ino.html" target="_top" xlink:title="An example that demonstrates wildcard commands.">
<polygon fill="none" stroke="black" points="2016,-223.5 2016,-264.5 2149,-264.5 2149,-223.5 2016,-223.5"/>
<text text-anchor="start" x="2024" y="-252.5" font-family="Helvetica,sans-Serif" font-size="10.00">examples/all_platforms</text>
<text text-anchor="start" x="2024" y="-241.5" font-family="Helvetica,sans-Serif" font-size="10.00">/basic/WildcardCommands</text>
<text text-anchor="middle" x="2082.5" y="-230.5" font-family="Helvetica,sans-Serif" font-size="10.00">/WildcardCommands.ino</text>
</a>
</g>
</g>
<!-- Node3&#45;&gt;Node20 -->
<g id="edge24" class="edge">
<title>Node3&#45;&gt;Node20</title>
<path fill="none" stroke="midnightblue" d="M1192.85,-308.58C1361.87,-304.23 1849.83,-289.81 2007.5,-265 2010.3,-264.56 2013.14,-264.06 2016,-263.51"/>
<polygon fill="midnightblue" stroke="midnightblue" points="1192.56,-305.09 1182.66,-308.84 1192.74,-312.09 1192.56,-305.09"/>
</g>
<!-- Node21 -->
<g id="node21" class="node">
<title>Node21</title>
<g id="a_node21"><a xlink:href="../../d3/dce/_read_command_from_buffer_web_serial_8ino.html" target="_top" xlink:title="An example that uses ReadCommandFromBuffer and WebSerial.">
<polygon fill="none" stroke="black" points="2167,-223.5 2167,-264.5 2346,-264.5 2346,-223.5 2167,-223.5"/>
<text text-anchor="start" x="2175" y="-252.5" font-family="Helvetica,sans-Serif" font-size="10.00">examples/esp/ReadCommand</text>
<text text-anchor="start" x="2175" y="-241.5" font-family="Helvetica,sans-Serif" font-size="10.00">FromBufferWebSerial/ReadCommand</text>
<text text-anchor="middle" x="2256.5" y="-230.5" font-family="Helvetica,sans-Serif" font-size="10.00">FromBufferWebSerial.ino</text>
</a>
</g>
</g>
<!-- Node3&#45;&gt;Node21 -->
<g id="edge25" class="edge">
<title>Node3&#45;&gt;Node21</title>
<path fill="none" stroke="midnightblue" d="M1193.07,-310.64C1350.11,-311.67 1793.35,-310 2158.5,-265 2161.26,-264.66 2164.05,-264.28 2166.87,-263.88"/>
<polygon fill="midnightblue" stroke="midnightblue" points="1192.73,-307.14 1182.71,-310.57 1192.68,-314.14 1192.73,-307.14"/>
</g>
<!-- Node22 -->
<g id="node22" class="node">
<title>Node22</title>
<g id="a_node22"><a xlink:href="../../dd/dec/_input_handler_8cpp.html" target="_top" xlink:title="InputHandler library cpp file.">
<polygon fill="none" stroke="black" points="2364,-234.5 2364,-253.5 2471,-253.5 2471,-234.5 2364,-234.5"/>
<text text-anchor="middle" x="2417.5" y="-241.5" font-family="Helvetica,sans-Serif" font-size="10.00">src/InputHandler.cpp</text>
</a>
</g>
</g>
<!-- Node3&#45;&gt;Node22 -->
<g id="edge26" class="edge">
<title>Node3&#45;&gt;Node22</title>
<path fill="none" stroke="midnightblue" d="M1193.04,-309.97C1404.48,-309.53 2128.11,-305.07 2355.5,-265 2369.31,-262.57 2384.29,-257.8 2396.06,-253.53"/>
<polygon fill="midnightblue" stroke="midnightblue" points="1192.77,-306.47 1182.78,-309.99 1192.78,-313.47 1192.77,-306.47"/>
</g>
<!-- Node6 -->
<g id="node6" class="node">
<title>Node6</title>
<g id="a_node6"><a xlink:href="../../d8/d5c/functions_8h.html" target="_top" xlink:title="Functions for MultiFile.ino.">
<polygon fill="none" stroke="black" points="59.5,-145.5 59.5,-186.5 179.5,-186.5 179.5,-145.5 59.5,-145.5"/>
<text text-anchor="start" x="67.5" y="-174.5" font-family="Helvetica,sans-Serif" font-size="10.00">examples/all_platforms</text>
<text text-anchor="start" x="67.5" y="-163.5" font-family="Helvetica,sans-Serif" font-size="10.00">/advanced/MultiFile/CLI</text>
<text text-anchor="middle" x="119.5" y="-152.5" font-family="Helvetica,sans-Serif" font-size="10.00">/functions.h</text>
</a>
</g>
</g>
<!-- Node5&#45;&gt;Node6 -->
<g id="edge5" class="edge">
<title>Node5&#45;&gt;Node6</title>
<path fill="none" stroke="midnightblue" d="M206.89,-218.63C187.4,-208.24 165.82,-196.29 148.94,-186.51"/>
<polygon fill="midnightblue" stroke="midnightblue" points="205.5,-221.85 215.97,-223.43 208.77,-215.66 205.5,-221.85"/>
</g>
<!-- Node7 -->
<g id="node7" class="node">
<title>Node7</title>
<g id="a_node7"><a xlink:href="../../d6/d3b/parameters_8h.html" target="_top" xlink:title="Parameters and CommandConstructor objects for MultiFile.ino.">
<polygon fill="none" stroke="black" points="197.5,-145.5 197.5,-186.5 317.5,-186.5 317.5,-145.5 197.5,-145.5"/>
<text text-anchor="start" x="205.5" y="-174.5" font-family="Helvetica,sans-Serif" font-size="10.00">examples/all_platforms</text>
<text text-anchor="start" x="205.5" y="-163.5" font-family="Helvetica,sans-Serif" font-size="10.00">/advanced/MultiFile/CLI</text>
<text text-anchor="middle" x="257.5" y="-152.5" font-family="Helvetica,sans-Serif" font-size="10.00">/parameters.h</text>
</a>
</g>
</g>
<!-- Node5&#45;&gt;Node7 -->
<g id="edge7" class="edge">
<title>Node5&#45;&gt;Node7</title>
<path fill="none" stroke="midnightblue" d="M250.9,-213.3C250.58,-204.3 250.78,-194.65 251.52,-186.51"/>
<polygon fill="midnightblue" stroke="midnightblue" points="247.41,-213.66 251.51,-223.43 254.4,-213.23 247.41,-213.66"/>
</g>
<!-- Node8 -->
<g id="node8" class="node">
<title>Node8</title>
<g id="a_node8"><a xlink:href="../../d6/d12/_multi_file_8ino.html" target="_top" xlink:title="An example that demonstrates multiple file setup.">
<polygon fill="none" stroke="black" points="335.5,-151 335.5,-181 491.5,-181 491.5,-151 335.5,-151"/>
<text text-anchor="start" x="343.5" y="-169" font-family="Helvetica,sans-Serif" font-size="10.00">examples/all_platforms</text>
<text text-anchor="middle" x="413.5" y="-158" font-family="Helvetica,sans-Serif" font-size="10.00">/advanced/MultiFile/MultiFile.ino</text>
</a>
</g>
</g>
<!-- Node5&#45;&gt;Node8 -->
<g id="edge9" class="edge">
<title>Node5&#45;&gt;Node8</title>
<path fill="none" stroke="midnightblue" d="M306.82,-218.97C332.31,-206.55 362.54,-191.83 384.3,-181.23"/>
<polygon fill="midnightblue" stroke="midnightblue" points="305.13,-215.9 297.67,-223.43 308.2,-222.19 305.13,-215.9"/>
</g>
<!-- Node6&#45;&gt;Node5 -->
<g id="edge6" class="edge">
<title>Node6&#45;&gt;Node5</title>
<path fill="none" stroke="midnightblue" d="M169.97,-191.3C189.46,-201.68 211.04,-213.63 227.95,-223.43"/>
<polygon fill="midnightblue" stroke="midnightblue" points="171.38,-188.09 160.9,-186.51 168.1,-194.27 171.38,-188.09"/>
</g>
<!-- Node7&#45;&gt;Node5 -->
<g id="edge8" class="edge">
<title>Node7&#45;&gt;Node5</title>
<path fill="none" stroke="midnightblue" d="M264.1,-196.63C264.42,-205.62 264.22,-215.27 263.49,-223.43"/>
<polygon fill="midnightblue" stroke="midnightblue" points="267.59,-196.27 263.48,-186.51 260.6,-196.7 267.59,-196.27"/>
</g>
<!-- Node10&#45;&gt;Node9 -->
<g id="edge12" class="edge">
<title>Node10&#45;&gt;Node9</title>
<path fill="none" stroke="midnightblue" d="M601.95,-59.14C594.82,-49.47 587.11,-39.02 581.12,-30.89"/>
<polygon fill="midnightblue" stroke="midnightblue" points="599.26,-61.39 608.02,-67.36 604.9,-57.24 599.26,-61.39"/>
</g>
<!-- Node11&#45;&gt;Node12 -->
<g id="edge14" class="edge">
<title>Node11&#45;&gt;Node12</title>
<path fill="none" stroke="midnightblue" d="M660.5,-213.3C660.5,-204.3 660.5,-194.65 660.5,-186.51"/>
<polygon fill="midnightblue" stroke="midnightblue" points="657,-213.43 660.5,-223.43 664,-213.43 657,-213.43"/>
</g>
<!-- Node12&#45;&gt;Node10 -->
<g id="edge15" class="edge">
<title>Node12&#45;&gt;Node10</title>
<path fill="none" stroke="midnightblue" d="M646.23,-136.47C641.57,-127.14 636.5,-117.01 632.25,-108.51"/>
<polygon fill="midnightblue" stroke="midnightblue" points="643.11,-138.05 650.71,-145.43 649.37,-134.92 643.11,-138.05"/>
</g>
</g>
</svg>
