<?xml version="1.0" encoding="UTF-8" standalone="no"?>
<!DOCTYPE svg PUBLIC "-//W3C//DTD SVG 1.1//EN"
 "http://www.w3.org/Graphics/SVG/1.1/DTD/svg11.dtd">
<!-- Generated by graphviz version 5.0.1 (20220820.1526)
 -->
<!-- Title: examples/all_platforms/advanced/debugging/debugging.ino Pages: 1 -->
<svg width="179pt" height="203pt"
 viewBox="0.00 0.00 179.00 203.00" xmlns="http://www.w3.org/2000/svg" xmlns:xlink="http://www.w3.org/1999/xlink">
<g id="graph0" class="graph" transform="scale(1 1) rotate(0) translate(4 199)">
<title>examples/all_platforms/advanced/debugging/debugging.ino</title>
<!-- Node1 -->
<g id="node1" class="node">
<title>Node1</title>
<g id="a_node1"><a xlink:title="An example that demonstrates how to use built in methods to assist in debugging process settings and ...">
<polygon fill="#999999" stroke="#666666" points="171,-195 0,-195 0,-165 171,-165 171,-195"/>
<text text-anchor="start" x="8" y="-183" font-family="Helvetica,sans-Serif" font-size="10.00">examples/all_platforms</text>
<text text-anchor="middle" x="85.5" y="-172" font-family="Helvetica,sans-Serif" font-size="10.00">/advanced/debugging/debugging.ino</text>
</a>
</g>
</g>
<!-- Node2 -->
<g id="node2" class="node">
<title>Node2</title>
<g id="a_node2"><a xlink:href="../../df/dec/_input_handler_8h.html" target="_top" xlink:title="InputHandler library header file.">
<polygon fill="white" stroke="#666666" points="125.5,-129 45.5,-129 45.5,-110 125.5,-110 125.5,-129"/>
<text text-anchor="middle" x="85.5" y="-117" font-family="Helvetica,sans-Serif" font-size="10.00">InputHandler.h</text>
</a>
</g>
</g>
<!-- Node1&#45;&gt;Node2 -->
<g id="edge1" class="edge">
<title>Node1&#45;&gt;Node2</title>
<path fill="none" stroke="#63b8ff" d="M85.5,-164.84C85.5,-157.21 85.5,-147.7 85.5,-139.45"/>
<polygon fill="#63b8ff" stroke="#63b8ff" points="89,-139.27 85.5,-129.27 82,-139.27 89,-139.27"/>
</g>
<!-- Node3 -->
<g id="node3" class="node">
<title>Node3</title>
<g id="a_node3"><a xlink:href="../../da/dc7/noedit_8h.html" target="_top" xlink:title="InputHandler library C includes, do not edit.">
<polygon fill="white" stroke="#666666" points="125,-74 46,-74 46,-55 125,-55 125,-74"/>
<text text-anchor="middle" x="85.5" y="-62" font-family="Helvetica,sans-Serif" font-size="10.00">config/noedit.h</text>
</a>
</g>
</g>
<!-- Node2&#45;&gt;Node3 -->
<g id="edge2" class="edge">
<title>Node2&#45;&gt;Node3</title>
<path fill="none" stroke="#63b8ff" d="M85.5,-109.75C85.5,-102.8 85.5,-92.85 85.5,-84.13"/>
<polygon fill="#63b8ff" stroke="#63b8ff" points="89,-84.09 85.5,-74.09 82,-84.09 89,-84.09"/>
</g>
<!-- Node4 -->
<g id="node4" class="node">
<title>Node4</title>
<g id="a_node4"><a xlink:title=" ">
<polygon fill="#e0e0e0" stroke="#999999" points="78,-19 21,-19 21,0 78,0 78,-19"/>
<text text-anchor="middle" x="49.5" y="-7" font-family="Helvetica,sans-Serif" font-size="10.00">Arduino.h</text>
</a>
</g>
</g>
<!-- Node3&#45;&gt;Node4 -->
<g id="edge3" class="edge">
<title>Node3&#45;&gt;Node4</title>
<path fill="none" stroke="#63b8ff" d="M79.56,-54.75C74.52,-47.34 67.16,-36.5 60.99,-27.41"/>
<polygon fill="#63b8ff" stroke="#63b8ff" points="63.85,-25.39 55.33,-19.09 58.06,-29.33 63.85,-25.39"/>
</g>
<!-- Node5 -->
<g id="node5" class="node">
<title>Node5</title>
<g id="a_node5"><a xlink:href="../../db/d16/config_8h.html" target="_top" xlink:title="InputHandler library user configurable items.">
<polygon fill="white" stroke="#666666" points="146.5,-19 96.5,-19 96.5,0 146.5,0 146.5,-19"/>
<text text-anchor="middle" x="121.5" y="-7" font-family="Helvetica,sans-Serif" font-size="10.00">config.h</text>
</a>
</g>
</g>
<!-- Node3&#45;&gt;Node5 -->
<g id="edge4" class="edge">
<title>Node3&#45;&gt;Node5</title>
<path fill="none" stroke="#63b8ff" d="M91.44,-54.75C96.48,-47.34 103.84,-36.5 110.01,-27.41"/>
<polygon fill="#63b8ff" stroke="#63b8ff" points="112.94,-29.33 115.67,-19.09 107.15,-25.39 112.94,-29.33"/>
</g>
</g>
</svg>
