<?xml version="1.0" encoding="UTF-8" standalone="no"?>
<!DOCTYPE svg PUBLIC "-//W3C//DTD SVG 1.1//EN"
 "http://www.w3.org/Graphics/SVG/1.1/DTD/svg11.dtd">
<!-- Generated by graphviz version 5.0.1 (20220820.1526)
 -->
<!-- Title: examples/all_platforms/basic/GetCommandFromStream/GetCommandFromStream.ino Pages: 1 -->
<svg width="168pt" height="218pt"
 viewBox="0.00 0.00 168.00 218.00" xmlns="http://www.w3.org/2000/svg" xmlns:xlink="http://www.w3.org/1999/xlink">
<g id="graph0" class="graph" transform="scale(1 1) rotate(0) translate(4 214)">
<title>examples/all_platforms/basic/GetCommandFromStream/GetCommandFromStream.ino</title>
<!-- Node1 -->
<g id="node1" class="node">
<title>Node1</title>
<g id="a_node1"><a xlink:title="A basic InputHandler demonstration.">
<polygon fill="#bfbfbf" stroke="black" points="0,-168.5 0,-209.5 160,-209.5 160,-168.5 0,-168.5"/>
<text text-anchor="start" x="8" y="-197.5" font-family="Helvetica,sans-Serif" font-size="10.00">examples/all_platforms</text>
<text text-anchor="start" x="8" y="-186.5" font-family="Helvetica,sans-Serif" font-size="10.00">/basic/GetCommandFromStream</text>
<text text-anchor="middle" x="80" y="-175.5" font-family="Helvetica,sans-Serif" font-size="10.00">/GetCommandFromStream.ino</text>
</a>
</g>
</g>
<!-- Node2 -->
<g id="node2" class="node">
<title>Node2</title>
<g id="a_node2"><a xlink:href="../../df/dec/_input_handler_8h.html" target="_top" xlink:title="InputHandler library header file.">
<polygon fill="none" stroke="black" points="40,-112.5 40,-131.5 120,-131.5 120,-112.5 40,-112.5"/>
<text text-anchor="middle" x="80" y="-119.5" font-family="Helvetica,sans-Serif" font-size="10.00">InputHandler.h</text>
</a>
</g>
</g>
<!-- Node1&#45;&gt;Node2 -->
<g id="edge1" class="edge">
<title>Node1&#45;&gt;Node2</title>
<path fill="none" stroke="midnightblue" d="M80,-168.5C80,-160.07 80,-150.24 80,-141.87"/>
<polygon fill="midnightblue" stroke="midnightblue" points="83.5,-141.65 80,-131.65 76.5,-141.65 83.5,-141.65"/>
</g>
<!-- Node3 -->
<g id="node3" class="node">
<title>Node3</title>
<g id="a_node3"><a xlink:href="../../da/dc7/noedit_8h.html" target="_top" xlink:title="InputHandler library C includes, do not edit.">
<polygon fill="none" stroke="black" points="40.5,-56.5 40.5,-75.5 119.5,-75.5 119.5,-56.5 40.5,-56.5"/>
<text text-anchor="middle" x="80" y="-63.5" font-family="Helvetica,sans-Serif" font-size="10.00">config/noedit.h</text>
</a>
</g>
</g>
<!-- Node2&#45;&gt;Node3 -->
<g id="edge2" class="edge">
<title>Node2&#45;&gt;Node3</title>
<path fill="none" stroke="midnightblue" d="M80,-112.08C80,-105.01 80,-94.86 80,-85.99"/>
<polygon fill="midnightblue" stroke="midnightblue" points="83.5,-85.75 80,-75.75 76.5,-85.75 83.5,-85.75"/>
</g>
<!-- Node4 -->
<g id="node4" class="node">
<title>Node4</title>
<g id="a_node4"><a xlink:title=" ">
<polygon fill="none" stroke="#bfbfbf" points="15.5,-0.5 15.5,-19.5 72.5,-19.5 72.5,-0.5 15.5,-0.5"/>
<text text-anchor="middle" x="44" y="-7.5" font-family="Helvetica,sans-Serif" font-size="10.00">Arduino.h</text>
</a>
</g>
</g>
<!-- Node3&#45;&gt;Node4 -->
<g id="edge3" class="edge">
<title>Node3&#45;&gt;Node4</title>
<path fill="none" stroke="midnightblue" d="M74.06,-56.08C69.02,-48.53 61.66,-37.49 55.49,-28.23"/>
<polygon fill="midnightblue" stroke="midnightblue" points="58.29,-26.13 49.83,-19.75 52.47,-30.01 58.29,-26.13"/>
</g>
<!-- Node5 -->
<g id="node5" class="node">
<title>Node5</title>
<g id="a_node5"><a xlink:href="../../db/d16/config_8h.html" target="_top" xlink:title="InputHandler library user configurable items.">
<polygon fill="none" stroke="black" points="91,-0.5 91,-19.5 141,-19.5 141,-0.5 91,-0.5"/>
<text text-anchor="middle" x="116" y="-7.5" font-family="Helvetica,sans-Serif" font-size="10.00">config.h</text>
</a>
</g>
</g>
<!-- Node3&#45;&gt;Node5 -->
<g id="edge4" class="edge">
<title>Node3&#45;&gt;Node5</title>
<path fill="none" stroke="midnightblue" d="M85.94,-56.08C90.98,-48.53 98.34,-37.49 104.51,-28.23"/>
<polygon fill="midnightblue" stroke="midnightblue" points="107.53,-30.01 110.17,-19.75 101.71,-26.13 107.53,-30.01"/>
</g>
</g>
</svg>
