<?xml version="1.0" encoding="UTF-8" standalone="no"?>
<!DOCTYPE svg PUBLIC "-//W3C//DTD SVG 1.1//EN"
 "http://www.w3.org/Graphics/SVG/1.1/DTD/svg11.dtd">
<!-- Generated by graphviz version 6.0.1 (20220911.1526)
 -->
<!-- Title: modules.code_preview.CodePreview Pages: 1 -->
<svg width="456pt" height="93pt"
 viewBox="0.00 0.00 455.50 93.00" xmlns="http://www.w3.org/2000/svg" xmlns:xlink="http://www.w3.org/1999/xlink">
<g id="graph0" class="graph" transform="scale(1 1) rotate(0) translate(4 89)">
<title>modules.code_preview.CodePreview</title>
<!-- Node1 -->
<g id="node1" class="node">
<title>Node1</title>
<g id="a_node1"><a xlink:title=" ">
<polygon fill="#999999" stroke="#666666" points="287,-30 147,-30 147,0 287,0 287,-30"/>
<text text-anchor="start" x="155" y="-18" font-family="Helvetica,sans-Serif" font-size="10.00">modules.code_preview.Code</text>
<text text-anchor="middle" x="217" y="-7" font-family="Helvetica,sans-Serif" font-size="10.00">Preview</text>
</a>
</g>
</g>
<!-- Node2 -->
<g id="node2" class="node">
<title>Node2</title>
<g id="a_node2"><a xlink:title=" ">
<polygon fill="white" stroke="#666666" points="62,-85 0,-85 0,-66 62,-66 62,-85"/>
<text text-anchor="middle" x="31" y="-73" font-family="Helvetica,sans-Serif" font-size="10.00">cliReadme</text>
</a>
</g>
</g>
<!-- Node2&#45;&gt;Node1 -->
<g id="edge1" class="edge">
<title>Node2&#45;&gt;Node1</title>
<path fill="none" stroke="#63b8ff" d="M67.71,-62.95C97.73,-53.51 140.28,-40.13 172.28,-30.06"/>
<polygon fill="#63b8ff" stroke="#63b8ff" points="66.54,-59.65 58.05,-65.99 68.64,-66.33 66.54,-59.65"/>
</g>
<!-- Node3 -->
<g id="node3" class="node">
<title>Node3</title>
<g id="a_node3"><a xlink:title=" ">
<polygon fill="white" stroke="#666666" points="133.5,-85 80.5,-85 80.5,-66 133.5,-66 133.5,-85"/>
<text text-anchor="middle" x="107" y="-73" font-family="Helvetica,sans-Serif" font-size="10.00">cliConfig</text>
</a>
</g>
</g>
<!-- Node3&#45;&gt;Node1 -->
<g id="edge2" class="edge">
<title>Node3&#45;&gt;Node1</title>
<path fill="none" stroke="#63b8ff" d="M132.25,-61.07C149.66,-51.81 172.77,-39.52 190.46,-30.11"/>
<polygon fill="#63b8ff" stroke="#63b8ff" points="130.42,-58.08 123.23,-65.87 133.7,-64.26 130.42,-58.08"/>
</g>
<!-- Node4 -->
<g id="node4" class="node">
<title>Node4</title>
<g id="a_node4"><a xlink:title=" ">
<polygon fill="white" stroke="#666666" points="204,-85 152,-85 152,-66 204,-66 204,-85"/>
<text text-anchor="middle" x="178" y="-73" font-family="Helvetica,sans-Serif" font-size="10.00">cliSetup</text>
</a>
</g>
</g>
<!-- Node4&#45;&gt;Node1 -->
<g id="edge3" class="edge">
<title>Node4&#45;&gt;Node1</title>
<path fill="none" stroke="#63b8ff" d="M189.45,-57.33C195.22,-48.67 202.13,-38.3 207.59,-30.11"/>
<polygon fill="#63b8ff" stroke="#63b8ff" points="186.39,-55.61 183.75,-65.87 192.21,-59.49 186.39,-55.61"/>
</g>
<!-- Node5 -->
<g id="node5" class="node">
<title>Node5</title>
<g id="a_node5"><a xlink:title=" ">
<polygon fill="white" stroke="#666666" points="291.5,-85 222.5,-85 222.5,-66 291.5,-66 291.5,-85"/>
<text text-anchor="middle" x="257" y="-73" font-family="Helvetica,sans-Serif" font-size="10.00">cliFunctions</text>
</a>
</g>
</g>
<!-- Node5&#45;&gt;Node1 -->
<g id="edge4" class="edge">
<title>Node5&#45;&gt;Node1</title>
<path fill="none" stroke="#63b8ff" d="M245.45,-57.61C239.49,-48.89 232.31,-38.39 226.65,-30.11"/>
<polygon fill="#63b8ff" stroke="#63b8ff" points="242.56,-59.59 251.1,-65.87 248.34,-55.64 242.56,-59.59"/>
</g>
<!-- Node6 -->
<g id="node6" class="node">
<title>Node6</title>
<g id="a_node6"><a xlink:title=" ">
<polygon fill="white" stroke="#666666" points="386.5,-85 309.5,-85 309.5,-66 386.5,-66 386.5,-85"/>
<text text-anchor="middle" x="348" y="-73" font-family="Helvetica,sans-Serif" font-size="10.00">cliParameters</text>
</a>
</g>
</g>
<!-- Node6&#45;&gt;Node1 -->
<g id="edge5" class="edge">
<title>Node6&#45;&gt;Node1</title>
<path fill="none" stroke="#63b8ff" d="M319.62,-61.83C298.67,-52.47 270.15,-39.74 248.49,-30.06"/>
<polygon fill="#63b8ff" stroke="#63b8ff" points="318.39,-65.11 328.95,-65.99 321.25,-58.72 318.39,-65.11"/>
</g>
<!-- Node7 -->
<g id="node7" class="node">
<title>Node7</title>
<g id="a_node7"><a xlink:title=" ">
<polygon fill="white" stroke="#666666" points="447.5,-85 404.5,-85 404.5,-66 447.5,-66 447.5,-85"/>
<text text-anchor="middle" x="426" y="-73" font-family="Helvetica,sans-Serif" font-size="10.00">object</text>
</a>
</g>
</g>
<!-- Node7&#45;&gt;Node1 -->
<g id="edge6" class="edge">
<title>Node7&#45;&gt;Node1</title>
<path fill="none" stroke="#63b8ff" d="M394.71,-65.64C346.57,-52.11 301.17,-39.43 267.55,-30.07"/>
<polygon fill="#63b8ff" stroke="#63b8ff" points="393.8,-69.02 404.37,-68.36 395.69,-62.28 393.8,-69.02"/>
</g>
</g>
</svg>
