<?xml version="1.0" encoding="UTF-8" standalone="no"?>
<!DOCTYPE svg PUBLIC "-//W3C//DTD SVG 1.1//EN"
 "http://www.w3.org/Graphics/SVG/1.1/DTD/svg11.dtd">
<!-- Generated by graphviz version 5.0.1 (20220820.1526)
 -->
<!-- Title: modules.code_preview.CodePreview Pages: 1 -->
<svg width="375pt" height="93pt"
 viewBox="0.00 0.00 375.00 93.00" xmlns="http://www.w3.org/2000/svg" xmlns:xlink="http://www.w3.org/1999/xlink">
<g id="graph0" class="graph" transform="scale(1 1) rotate(0) translate(4 89)">
<title>modules.code_preview.CodePreview</title>
<!-- Node1 -->
<g id="node1" class="node">
<title>Node1</title>
<g id="a_node1"><a xlink:title=" ">
<polygon fill="#999999" stroke="#666666" points="246.5,-30 106.5,-30 106.5,0 246.5,0 246.5,-30"/>
<text text-anchor="start" x="114.5" y="-18" font-family="Helvetica,sans-Serif" font-size="10.00">modules.code_preview.Code</text>
<text text-anchor="middle" x="176.5" y="-7" font-family="Helvetica,sans-Serif" font-size="10.00">Preview</text>
</a>
</g>
</g>
<!-- Node2 -->
<g id="node2" class="node">
<title>Node2</title>
<g id="a_node2"><a xlink:title=" ">
<polygon fill="white" stroke="#666666" points="53,-85 0,-85 0,-66 53,-66 53,-85"/>
<text text-anchor="middle" x="26.5" y="-73" font-family="Helvetica,sans-Serif" font-size="10.00">cliConfig</text>
</a>
</g>
</g>
<!-- Node2&#45;&gt;Node1 -->
<g id="edge1" class="edge">
<title>Node2&#45;&gt;Node1</title>
<path fill="none" stroke="#63b8ff" d="M57.7,-62.33C81.8,-52.93 115.19,-39.91 140.44,-30.06"/>
<polygon fill="#63b8ff" stroke="#63b8ff" points="56.36,-59.1 48.31,-65.99 58.9,-65.62 56.36,-59.1"/>
</g>
<!-- Node3 -->
<g id="node3" class="node">
<title>Node3</title>
<g id="a_node3"><a xlink:title=" ">
<polygon fill="white" stroke="#666666" points="123.5,-85 71.5,-85 71.5,-66 123.5,-66 123.5,-85"/>
<text text-anchor="middle" x="97.5" y="-73" font-family="Helvetica,sans-Serif" font-size="10.00">cliSetup</text>
</a>
</g>
</g>
<!-- Node3&#45;&gt;Node1 -->
<g id="edge2" class="edge">
<title>Node3&#45;&gt;Node1</title>
<path fill="none" stroke="#63b8ff" d="M117.4,-59.77C129.67,-50.68 145.32,-39.09 157.44,-30.11"/>
<polygon fill="#63b8ff" stroke="#63b8ff" points="115.11,-57.1 109.16,-65.87 119.28,-62.73 115.11,-57.1"/>
</g>
<!-- Node4 -->
<g id="node4" class="node">
<title>Node4</title>
<g id="a_node4"><a xlink:title=" ">
<polygon fill="white" stroke="#666666" points="211,-85 142,-85 142,-66 211,-66 211,-85"/>
<text text-anchor="middle" x="176.5" y="-73" font-family="Helvetica,sans-Serif" font-size="10.00">cliFunctions</text>
</a>
</g>
</g>
<!-- Node4&#45;&gt;Node1 -->
<g id="edge3" class="edge">
<title>Node4&#45;&gt;Node1</title>
<path fill="none" stroke="#63b8ff" d="M176.5,-55.65C176.5,-47.36 176.5,-37.78 176.5,-30.11"/>
<polygon fill="#63b8ff" stroke="#63b8ff" points="173,-55.87 176.5,-65.87 180,-55.87 173,-55.87"/>
</g>
<!-- Node5 -->
<g id="node5" class="node">
<title>Node5</title>
<g id="a_node5"><a xlink:title=" ">
<polygon fill="white" stroke="#666666" points="306,-85 229,-85 229,-66 306,-66 306,-85"/>
<text text-anchor="middle" x="267.5" y="-73" font-family="Helvetica,sans-Serif" font-size="10.00">cliParameters</text>
</a>
</g>
</g>
<!-- Node5&#45;&gt;Node1 -->
<g id="edge4" class="edge">
<title>Node5&#45;&gt;Node1</title>
<path fill="none" stroke="#63b8ff" d="M245.4,-60.29C231.15,-51.13 212.68,-39.26 198.46,-30.11"/>
<polygon fill="#63b8ff" stroke="#63b8ff" points="243.77,-63.4 254.07,-65.87 247.55,-57.52 243.77,-63.4"/>
</g>
<!-- Node6 -->
<g id="node6" class="node">
<title>Node6</title>
<g id="a_node6"><a xlink:title=" ">
<polygon fill="white" stroke="#666666" points="367,-85 324,-85 324,-66 367,-66 367,-85"/>
<text text-anchor="middle" x="345.5" y="-73" font-family="Helvetica,sans-Serif" font-size="10.00">object</text>
</a>
</g>
</g>
<!-- Node6&#45;&gt;Node1 -->
<g id="edge5" class="edge">
<title>Node6&#45;&gt;Node1</title>
<path fill="none" stroke="#63b8ff" d="M314.3,-63.7C286.97,-54.24 247.08,-40.43 217.24,-30.1"/>
<polygon fill="#63b8ff" stroke="#63b8ff" points="313.16,-67.01 323.75,-66.97 315.45,-60.39 313.16,-67.01"/>
</g>
</g>
</svg>
