<?xml version="1.0" encoding="UTF-8" standalone="no"?>
<!DOCTYPE svg PUBLIC "-//W3C//DTD SVG 1.1//EN"
 "http://www.w3.org/Graphics/SVG/1.1/DTD/svg11.dtd">
<!-- Generated by graphviz version 4.0.0 (20220602.1335)
 -->
<!-- Title: examples/all_platforms/advanced/MultiFile/CLI/cli_setup.h Pages: 1 -->
<svg width="440pt" height="128pt"
 viewBox="0.00 0.00 440.00 128.00" xmlns="http://www.w3.org/2000/svg" xmlns:xlink="http://www.w3.org/1999/xlink">
<g id="graph0" class="graph" transform="scale(1 1) rotate(0) translate(4 124)">
<title>examples/all_platforms/advanced/MultiFile/CLI/cli_setup.h</title>
<!-- Node1 -->
<g id="node1" class="node">
<title>Node1</title>
<g id="a_node1"><a xlink:title="setup example for MultiFile.ino">
<polygon fill="#bfbfbf" stroke="black" points="138,-78.5 138,-119.5 258,-119.5 258,-78.5 138,-78.5"/>
<text text-anchor="start" x="146" y="-107.5" font-family="Helvetica,sans-Serif" font-size="10.00">examples/all_platforms</text>
<text text-anchor="start" x="146" y="-96.5" font-family="Helvetica,sans-Serif" font-size="10.00">/advanced/MultiFile/CLI</text>
<text text-anchor="middle" x="198" y="-85.5" font-family="Helvetica,sans-Serif" font-size="10.00">/cli_setup.h</text>
</a>
</g>
</g>
<!-- Node2 -->
<g id="node2" class="node">
<title>Node2</title>
<g id="a_node2"><a xlink:href="../../d8/d5c/functions_8h.html" target="_top" xlink:title="Functions for MultiFile.ino.">
<polygon fill="none" stroke="black" points="0,-0.5 0,-41.5 120,-41.5 120,-0.5 0,-0.5"/>
<text text-anchor="start" x="8" y="-29.5" font-family="Helvetica,sans-Serif" font-size="10.00">examples/all_platforms</text>
<text text-anchor="start" x="8" y="-18.5" font-family="Helvetica,sans-Serif" font-size="10.00">/advanced/MultiFile/CLI</text>
<text text-anchor="middle" x="60" y="-7.5" font-family="Helvetica,sans-Serif" font-size="10.00">/functions.h</text>
</a>
</g>
</g>
<!-- Node1&#45;&gt;Node2 -->
<g id="edge1" class="edge">
<title>Node1&#45;&gt;Node2</title>
<path fill="none" stroke="midnightblue" d="M147.39,-73.63C127.9,-63.24 106.32,-51.29 89.44,-41.51"/>
<polygon fill="midnightblue" stroke="midnightblue" points="146,-76.85 156.47,-78.43 149.27,-70.66 146,-76.85"/>
</g>
<!-- Node3 -->
<g id="node3" class="node">
<title>Node3</title>
<g id="a_node3"><a xlink:href="../../d6/d3b/parameters_8h.html" target="_top" xlink:title="Parameters and CommandConstructor objects for MultiFile.ino.">
<polygon fill="none" stroke="black" points="138,-0.5 138,-41.5 258,-41.5 258,-0.5 138,-0.5"/>
<text text-anchor="start" x="146" y="-29.5" font-family="Helvetica,sans-Serif" font-size="10.00">examples/all_platforms</text>
<text text-anchor="start" x="146" y="-18.5" font-family="Helvetica,sans-Serif" font-size="10.00">/advanced/MultiFile/CLI</text>
<text text-anchor="middle" x="198" y="-7.5" font-family="Helvetica,sans-Serif" font-size="10.00">/parameters.h</text>
</a>
</g>
</g>
<!-- Node1&#45;&gt;Node3 -->
<g id="edge3" class="edge">
<title>Node1&#45;&gt;Node3</title>
<path fill="none" stroke="midnightblue" d="M191.4,-68.3C191.08,-59.3 191.28,-49.65 192.02,-41.51"/>
<polygon fill="midnightblue" stroke="midnightblue" points="187.91,-68.66 192.01,-78.43 194.9,-68.23 187.91,-68.66"/>
</g>
<!-- Node4 -->
<g id="node4" class="node">
<title>Node4</title>
<g id="a_node4"><a xlink:href="../../d6/d12/_multi_file_8ino.html" target="_top" xlink:title="An example that demonstrates multiple file setup.">
<polygon fill="none" stroke="black" points="276,-6 276,-36 432,-36 432,-6 276,-6"/>
<text text-anchor="start" x="284" y="-24" font-family="Helvetica,sans-Serif" font-size="10.00">examples/all_platforms</text>
<text text-anchor="middle" x="354" y="-13" font-family="Helvetica,sans-Serif" font-size="10.00">/advanced/MultiFile/MultiFile.ino</text>
</a>
</g>
</g>
<!-- Node1&#45;&gt;Node4 -->
<g id="edge5" class="edge">
<title>Node1&#45;&gt;Node4</title>
<path fill="none" stroke="midnightblue" d="M247.32,-73.97C272.81,-61.55 303.04,-46.83 324.8,-36.23"/>
<polygon fill="midnightblue" stroke="midnightblue" points="245.63,-70.9 238.17,-78.43 248.7,-77.19 245.63,-70.9"/>
</g>
<!-- Node2&#45;&gt;Node1 -->
<g id="edge2" class="edge">
<title>Node2&#45;&gt;Node1</title>
<path fill="none" stroke="midnightblue" d="M110.47,-46.3C129.96,-56.68 151.54,-68.63 168.45,-78.43"/>
<polygon fill="midnightblue" stroke="midnightblue" points="111.88,-43.09 101.4,-41.51 108.6,-49.27 111.88,-43.09"/>
</g>
<!-- Node3&#45;&gt;Node1 -->
<g id="edge4" class="edge">
<title>Node3&#45;&gt;Node1</title>
<path fill="none" stroke="midnightblue" d="M204.6,-51.63C204.92,-60.62 204.72,-70.27 203.99,-78.43"/>
<polygon fill="midnightblue" stroke="midnightblue" points="208.09,-51.27 203.98,-41.51 201.1,-51.7 208.09,-51.27"/>
</g>
</g>
</svg>
