<?xml version="1.0" encoding="UTF-8" standalone="no"?>
<!DOCTYPE svg PUBLIC "-//W3C//DTD SVG 1.1//EN"
 "http://www.w3.org/Graphics/SVG/1.1/DTD/svg11.dtd">
<!-- Generated by graphviz version 5.0.0 (20220708.1001)
 -->
<!-- Title: CommandConstructor Pages: 1 -->
<svg width="272pt" height="95pt"
 viewBox="0.00 0.00 272.00 95.00" xmlns="http://www.w3.org/2000/svg" xmlns:xlink="http://www.w3.org/1999/xlink">
<g id="graph0" class="graph" transform="scale(1 1) rotate(0) translate(4 91)">
<title>CommandConstructor</title>
<!-- Node1 -->
<g id="node1" class="node">
<title>Node1</title>
<g id="a_node1"><a xlink:title="user command constructor class">
<polygon fill="#bfbfbf" stroke="black" points="66,-0.5 66,-19.5 177,-19.5 177,-0.5 66,-0.5"/>
<text text-anchor="middle" x="121.5" y="-7.5" font-family="Helvetica,sans-Serif" font-size="10.00">CommandConstructor</text>
</a>
</g>
</g>
<!-- Node1&#45;&gt;Node1 -->
<g id="edge3" class="edge">
<title>Node1&#45;&gt;Node1</title>
<path fill="none" stroke="#9a32cd" stroke-dasharray="5,2" d="M187.45,-14.4C192.14,-13.4 195,-11.93 195,-10 195,-6.91 187.67,-5.01 177.27,-4.31"/>
<polygon fill="#9a32cd" stroke="#9a32cd" points="186.75,-10.96 177.27,-15.69 187.63,-17.9 186.75,-10.96"/>
<text text-anchor="middle" x="229.5" y="-7.5" font-family="Helvetica,sans-Serif" font-size="10.00"> next_command</text>
</g>
<!-- Node2 -->
<g id="node2" class="node">
<title>Node2</title>
<g id="a_node2"><a xlink:href="../../db/d11/struct_command_parameters.html" target="_top" xlink:title="CommandParameters struct, this is the container that holds your command parameters.">
<polygon fill="none" stroke="black" points="0,-67.5 0,-86.5 111,-86.5 111,-67.5 0,-67.5"/>
<text text-anchor="middle" x="55.5" y="-74.5" font-family="Helvetica,sans-Serif" font-size="10.00">CommandParameters</text>
</a>
</g>
</g>
<!-- Node2&#45;&gt;Node1 -->
<g id="edge1" class="edge">
<title>Node2&#45;&gt;Node1</title>
<path fill="none" stroke="#9a32cd" stroke-dasharray="5,2" d="M71.75,-60C84.69,-47.25 102.31,-29.89 112.74,-19.63"/>
<polygon fill="#9a32cd" stroke="#9a32cd" points="69.07,-57.72 64.4,-67.23 73.98,-62.71 69.07,-57.72"/>
<text text-anchor="middle" x="102" y="-41" font-family="Helvetica,sans-Serif" font-size="10.00"> prm</text>
</g>
<!-- Node3 -->
<g id="node3" class="node">
<title>Node3</title>
<g id="a_node3"><a xlink:href="../../dc/d3d/struct_command_runtime_calc.html" target="_top" xlink:title="CommandRuntimeCalc struct contains arrays and indices determined at runtime these structs are associa...">
<polygon fill="none" stroke="black" points="129.5,-67.5 129.5,-86.5 245.5,-86.5 245.5,-67.5 129.5,-67.5"/>
<text text-anchor="middle" x="187.5" y="-74.5" font-family="Helvetica,sans-Serif" font-size="10.00">CommandRuntimeCalc</text>
</a>
</g>
</g>
<!-- Node3&#45;&gt;Node1 -->
<g id="edge2" class="edge">
<title>Node3&#45;&gt;Node1</title>
<path fill="none" stroke="#9a32cd" stroke-dasharray="5,2" d="M171.25,-60C158.31,-47.25 140.69,-29.89 130.26,-19.63"/>
<polygon fill="#9a32cd" stroke="#9a32cd" points="169.02,-62.71 178.6,-67.23 173.93,-57.72 169.02,-62.71"/>
<text text-anchor="middle" x="168" y="-41" font-family="Helvetica,sans-Serif" font-size="10.00"> calc</text>
</g>
</g>
</svg>
