<?xml version="1.0" encoding="UTF-8" standalone="no"?>
<!DOCTYPE svg PUBLIC "-//W3C//DTD SVG 1.1//EN"
 "http://www.w3.org/Graphics/SVG/1.1/DTD/svg11.dtd">
<!-- Generated by graphviz version 5.0.1 (20220820.1526)
 -->
<!-- Title: CommandConstructor Pages: 1 -->
<svg width="272pt" height="93pt"
 viewBox="0.00 0.00 272.00 93.00" xmlns="http://www.w3.org/2000/svg" xmlns:xlink="http://www.w3.org/1999/xlink">
<g id="graph0" class="graph" transform="scale(1 1) rotate(0) translate(4 89)">
<title>CommandConstructor</title>
<!-- Node1 -->
<g id="node1" class="node">
<title>Node1</title>
<g id="a_node1"><a xlink:title="user command constructor class">
<polygon fill="#999999" stroke="#666666" points="177,-19 66,-19 66,0 177,0 177,-19"/>
<text text-anchor="middle" x="121.5" y="-7" font-family="Helvetica,sans-Serif" font-size="10.00">CommandConstructor</text>
</a>
</g>
</g>
<!-- Node1&#45;&gt;Node1 -->
<g id="edge3" class="edge">
<title>Node1&#45;&gt;Node1</title>
<path fill="none" stroke="#9a32cd" stroke-dasharray="5,2" d="M187.45,-13.9C192.14,-12.9 195,-11.43 195,-9.5 195,-6.41 187.67,-4.51 177.27,-3.81"/>
<polygon fill="#9a32cd" stroke="#9a32cd" points="186.75,-10.46 177.27,-15.19 187.63,-17.4 186.75,-10.46"/>
<text text-anchor="middle" x="229.5" y="-7" font-family="Helvetica,sans-Serif" font-size="10.00"> next_command</text>
</g>
<!-- Node2 -->
<g id="node2" class="node">
<title>Node2</title>
<g id="a_node2"><a xlink:href="../../db/d11/struct_command_parameters.html" target="_top" xlink:title="CommandParameters struct, this is the container that holds your command parameters.">
<polygon fill="white" stroke="#666666" points="111,-85 0,-85 0,-66 111,-66 111,-85"/>
<text text-anchor="middle" x="55.5" y="-73" font-family="Helvetica,sans-Serif" font-size="10.00">CommandParameters</text>
</a>
</g>
</g>
<!-- Node2&#45;&gt;Node1 -->
<g id="edge1" class="edge">
<title>Node2&#45;&gt;Node1</title>
<path fill="none" stroke="#9a32cd" stroke-dasharray="5,2" d="M71.66,-58.83C84.44,-46.44 101.82,-29.59 112.32,-19.41"/>
<polygon fill="#9a32cd" stroke="#9a32cd" points="69.14,-56.39 64.4,-65.87 74.02,-61.42 69.14,-56.39"/>
<text text-anchor="middle" x="102" y="-40" font-family="Helvetica,sans-Serif" font-size="10.00"> prm</text>
</g>
<!-- Node3 -->
<g id="node3" class="node">
<title>Node3</title>
<g id="a_node3"><a xlink:href="../../dc/d3d/struct_command_runtime_calc.html" target="_top" xlink:title="CommandRuntimeCalc struct contains arrays and indices determined at runtime these structs are associa...">
<polygon fill="white" stroke="#666666" points="245.5,-85 129.5,-85 129.5,-66 245.5,-66 245.5,-85"/>
<text text-anchor="middle" x="187.5" y="-73" font-family="Helvetica,sans-Serif" font-size="10.00">CommandRuntimeCalc</text>
</a>
</g>
</g>
<!-- Node3&#45;&gt;Node1 -->
<g id="edge2" class="edge">
<title>Node3&#45;&gt;Node1</title>
<path fill="none" stroke="#9a32cd" stroke-dasharray="5,2" d="M171.34,-58.83C158.56,-46.44 141.18,-29.59 130.68,-19.41"/>
<polygon fill="#9a32cd" stroke="#9a32cd" points="168.98,-61.42 178.6,-65.87 173.86,-56.39 168.98,-61.42"/>
<text text-anchor="middle" x="168" y="-40" font-family="Helvetica,sans-Serif" font-size="10.00"> calc</text>
</g>
</g>
</svg>
