<?xml version="1.0" encoding="UTF-8" standalone="no"?>
<!DOCTYPE svg PUBLIC "-//W3C//DTD SVG 1.1//EN"
 "http://www.w3.org/Graphics/SVG/1.1/DTD/svg11.dtd">
<!-- Generated by graphviz version 3.0.0 (20220413.0106)
 -->
<!-- Title: src/config/InputHandler_config.h Pages: 1 -->
<svg width="502pt" height="106pt"
 viewBox="0.00 0.00 501.50 106.00" xmlns="http://www.w3.org/2000/svg" xmlns:xlink="http://www.w3.org/1999/xlink">
<g id="graph0" class="graph" transform="scale(1 1) rotate(0) translate(4 102)">
<title>src/config/InputHandler_config.h</title>
<!-- Node1 -->
<g id="node1" class="node">
<title>Node1</title>
<g id="a_node1"><a xlink:title="InputHandler library configuration file.">
<polygon fill="#bfbfbf" stroke="black" points="152,-67.5 152,-97.5 269,-97.5 269,-67.5 152,-67.5"/>
<text text-anchor="start" x="160" y="-85.5" font-family="Helvetica,sans-Serif" font-size="10.00">src/config/InputHandler</text>
<text text-anchor="middle" x="210.5" y="-74.5" font-family="Helvetica,sans-Serif" font-size="10.00">_config.h</text>
</a>
</g>
</g>
<!-- Node2 -->
<g id="node2" class="node">
<title>Node2</title>
<g id="a_node2"><a xlink:title=" ">
<polygon fill="none" stroke="#bfbfbf" points="0,-6 0,-25 57,-25 57,-6 0,-6"/>
<text text-anchor="middle" x="28.5" y="-13" font-family="Helvetica,sans-Serif" font-size="10.00">Arduino.h</text>
</a>
</g>
</g>
<!-- Node1&#45;&gt;Node2 -->
<g id="edge1" class="edge">
<title>Node1&#45;&gt;Node2</title>
<path fill="none" stroke="midnightblue" d="M169.43,-67.43C140.56,-57.46 101.08,-43.66 66.5,-31 64.4,-30.23 62.24,-29.43 60.06,-28.62"/>
<polygon fill="midnightblue" stroke="midnightblue" points="61.16,-25.29 50.57,-25.04 58.69,-31.84 61.16,-25.29"/>
</g>
<!-- Node3 -->
<g id="node3" class="node">
<title>Node3</title>
<g id="a_node3"><a xlink:href="../../d3/dcd/_input_handler__portability_8h.html" target="_top" xlink:title=" ">
<polygon fill="none" stroke="black" points="75.5,-6 75.5,-25 201.5,-25 201.5,-6 75.5,-6"/>
<text text-anchor="middle" x="138.5" y="-13" font-family="Helvetica,sans-Serif" font-size="10.00">InputHandler_portability.h</text>
</a>
</g>
</g>
<!-- Node1&#45;&gt;Node3 -->
<g id="edge2" class="edge">
<title>Node1&#45;&gt;Node3</title>
<path fill="none" stroke="midnightblue" d="M194.88,-67.4C183.32,-56.96 167.58,-42.75 155.67,-32"/>
<polygon fill="midnightblue" stroke="midnightblue" points="157.9,-29.3 148.13,-25.19 153.21,-34.49 157.9,-29.3"/>
</g>
<!-- Node4 -->
<g id="node4" class="node">
<title>Node4</title>
<g id="a_node4"><a xlink:href="../../d1/d39/_input_handler__functionlike__macros_8h.html" target="_top" xlink:title=" ">
<polygon fill="none" stroke="black" points="220,-0.5 220,-30.5 347,-30.5 347,-0.5 220,-0.5"/>
<text text-anchor="start" x="228" y="-18.5" font-family="Helvetica,sans-Serif" font-size="10.00">InputHandler_functionlike</text>
<text text-anchor="middle" x="283.5" y="-7.5" font-family="Helvetica,sans-Serif" font-size="10.00">_macros.h</text>
</a>
</g>
</g>
<!-- Node1&#45;&gt;Node4 -->
<g id="edge3" class="edge">
<title>Node1&#45;&gt;Node4</title>
<path fill="none" stroke="midnightblue" d="M226.34,-67.4C236.19,-58.62 249.04,-47.18 260.06,-37.37"/>
<polygon fill="midnightblue" stroke="midnightblue" points="262.55,-39.84 267.69,-30.58 257.9,-34.61 262.55,-39.84"/>
</g>
<!-- Node5 -->
<g id="node5" class="node">
<title>Node5</title>
<g id="a_node5"><a xlink:href="../../df/d25/_input_handler___p_r_o_g_m_e_m__settings_8h.html" target="_top" xlink:title=" ">
<polygon fill="none" stroke="black" points="365.5,-0.5 365.5,-30.5 493.5,-30.5 493.5,-0.5 365.5,-0.5"/>
<text text-anchor="start" x="373.5" y="-18.5" font-family="Helvetica,sans-Serif" font-size="10.00">InputHandler_PROGMEM</text>
<text text-anchor="middle" x="429.5" y="-7.5" font-family="Helvetica,sans-Serif" font-size="10.00">_settings.h</text>
</a>
</g>
</g>
<!-- Node1&#45;&gt;Node5 -->
<g id="edge4" class="edge">
<title>Node1&#45;&gt;Node5</title>
<path fill="none" stroke="midnightblue" d="M257.75,-67.48C291.31,-57.51 336.56,-44.09 372.18,-33.51"/>
<polygon fill="midnightblue" stroke="midnightblue" points="373.37,-36.81 381.96,-30.61 371.37,-30.1 373.37,-36.81"/>
</g>
</g>
</svg>
