<?xml version="1.0" encoding="UTF-8" standalone="no"?>
<!DOCTYPE svg PUBLIC "-//W3C//DTD SVG 1.1//EN"
 "http://www.w3.org/Graphics/SVG/1.1/DTD/svg11.dtd">
<!-- Generated by graphviz version 3.0.0 (20220413.0106)
 -->
<!-- Title: examples/all_platforms/advanced Pages: 1 -->
<svg width="622pt" height="159pt"
 viewBox="0.00 0.00 622.00 159.00" xmlns="http://www.w3.org/2000/svg" xmlns:xlink="http://www.w3.org/1999/xlink">
<g id="graph0" class="graph" transform="scale(1 1) rotate(0) translate(4 155)">
<title>examples/all_platforms/advanced</title>
<g id="clust1" class="cluster">
<title>clusterdir_7e7debf23c06755bbadb27664e1a95c8</title>
<g id="a_clust1"><a xlink:href="dir_7e7debf23c06755bbadb27664e1a95c8.html" target="_top" xlink:title="all_platforms">
<polygon fill="#daedff" stroke="#7f7f7f" stroke-dasharray="5,2" points="8,-56 8,-143 606,-143 606,-56 8,-56"/>
<text text-anchor="middle" x="307" y="-131" font-family="Helvetica,sans-Serif" font-size="10.00">all_platforms</text>
</a>
</g>
</g>
<g id="clust2" class="cluster">
<title>clusterdir_f64c5401ecde094f8488f2d5876a87d7</title>
<g id="a_clust2"><a xlink:href="dir_f64c5401ecde094f8488f2d5876a87d7.html" target="_top">
<polygon fill="#daedff" stroke="#404040" stroke-width="2" points="16,-64 16,-116 598,-116 598,-64 16,-64"/>
</a>
</g>
</g>
<!-- dir_f64c5401ecde094f8488f2d5876a87d7 -->
<g id="node1" class="node">
<title>dir_f64c5401ecde094f8488f2d5876a87d7</title>
<text text-anchor="middle" x="560" y="-87.5" font-family="Helvetica,sans-Serif" font-size="10.00">advanced</text>
</g>
<!-- dir_8b34520cf4277e0be875d52c8243f9ff -->
<g id="node2" class="node">
<title>dir_8b34520cf4277e0be875d52c8243f9ff</title>
<g id="a_node2"><a xlink:href="dir_8b34520cf4277e0be875d52c8243f9ff.html" target="_top" xlink:title="debugging">
<polygon fill="#4ea9ff" stroke="#404040" points="512.5,-108 451.5,-108 451.5,-72 512.5,-72 512.5,-108"/>
<text text-anchor="middle" x="482" y="-87.5" font-family="Helvetica,sans-Serif" font-size="10.00">debugging</text>
</a>
</g>
</g>
<!-- dir_68267d1309a1af8e8297ef4c3efbcdba -->
<g id="node7" class="node">
<title>dir_68267d1309a1af8e8297ef4c3efbcdba</title>
<g id="a_node7"><a xlink:href="dir_68267d1309a1af8e8297ef4c3efbcdba.html" target="_top" xlink:title="src">
<polygon fill="none" stroke="red" points="284,-36 230,-36 230,0 284,0 284,-36"/>
<text text-anchor="middle" x="257" y="-15.5" font-family="Helvetica,sans-Serif" font-size="10.00">src</text>
</a>
</g>
</g>
<!-- dir_8b34520cf4277e0be875d52c8243f9ff&#45;&gt;dir_68267d1309a1af8e8297ef4c3efbcdba -->
<g id="edge1" class="edge">
<title>dir_8b34520cf4277e0be875d52c8243f9ff&#45;&gt;dir_68267d1309a1af8e8297ef4c3efbcdba</title>
<path fill="none" stroke="black" d="M465.49,-71.81C459,-65.97 451.15,-59.93 443,-56 395.02,-32.86 333.39,-24.19 294.54,-20.94"/>
<polygon fill="black" stroke="black" points="294.45,-17.43 284.21,-20.16 293.92,-24.41 294.45,-17.43"/>
<g id="a_edge1&#45;headlabel"><a xlink:href="dir_000006_000021.html" target="_top" xlink:title="1">
<text text-anchor="middle" x="298.24" y="-12.37" font-family="Helvetica,sans-Serif" font-size="10.00">1</text>
</a>
</g>
</g>
<!-- dir_e9e44833007419a1c486f0238b30ac06 -->
<g id="node3" class="node">
<title>dir_e9e44833007419a1c486f0238b30ac06</title>
<g id="a_node3"><a xlink:href="dir_e9e44833007419a1c486f0238b30ac06.html" target="_top" xlink:title="GetCommandFromStream">
<polygon fill="#4ea9ff" stroke="#404040" points="433.5,-108 302.5,-108 302.5,-72 433.5,-72 433.5,-108"/>
<text text-anchor="middle" x="368" y="-87.5" font-family="Helvetica,sans-Serif" font-size="10.00">GetCommandFromStream</text>
</a>
</g>
</g>
<!-- dir_e9e44833007419a1c486f0238b30ac06&#45;&gt;dir_68267d1309a1af8e8297ef4c3efbcdba -->
<g id="edge2" class="edge">
<title>dir_e9e44833007419a1c486f0238b30ac06&#45;&gt;dir_68267d1309a1af8e8297ef4c3efbcdba</title>
<path fill="none" stroke="black" d="M340.85,-71.88C326.47,-62.81 308.62,-51.55 293.09,-41.76"/>
<polygon fill="black" stroke="black" points="294.58,-38.56 284.26,-36.19 290.85,-44.48 294.58,-38.56"/>
<g id="a_edge2&#45;headlabel"><a xlink:href="dir_000009_000021.html" target="_top" xlink:title="1">
<text text-anchor="middle" x="299.14" y="-35.58" font-family="Helvetica,sans-Serif" font-size="10.00">1</text>
</a>
</g>
</g>
<!-- dir_2417a6421416a4a5ac02e9b167a7bacc -->
<g id="node4" class="node">
<title>dir_2417a6421416a4a5ac02e9b167a7bacc</title>
<g id="a_node4"><a xlink:href="dir_2417a6421416a4a5ac02e9b167a7bacc.html" target="_top" xlink:title="MultiFile">
<polygon fill="#4ea9ff" stroke="#404040" points="284,-108 230,-108 230,-72 284,-72 284,-108"/>
<text text-anchor="middle" x="257" y="-87.5" font-family="Helvetica,sans-Serif" font-size="10.00">MultiFile</text>
</a>
</g>
</g>
<!-- dir_2417a6421416a4a5ac02e9b167a7bacc&#45;&gt;dir_68267d1309a1af8e8297ef4c3efbcdba -->
<g id="edge3" class="edge">
<title>dir_2417a6421416a4a5ac02e9b167a7bacc&#45;&gt;dir_68267d1309a1af8e8297ef4c3efbcdba</title>
<path fill="none" stroke="black" d="M257,-71.7C257,-63.98 257,-54.71 257,-46.11"/>
<polygon fill="black" stroke="black" points="260.5,-46.1 257,-36.1 253.5,-46.1 260.5,-46.1"/>
<g id="a_edge3&#45;headlabel"><a xlink:href="dir_000014_000021.html" target="_top" xlink:title="1">
<text text-anchor="middle" x="263.34" y="-47.2" font-family="Helvetica,sans-Serif" font-size="10.00">1</text>
</a>
</g>
</g>
<!-- dir_709d6945534044f28e2d0e0a94050460 -->
<g id="node5" class="node">
<title>dir_709d6945534044f28e2d0e0a94050460</title>
<g id="a_node5"><a xlink:href="dir_709d6945534044f28e2d0e0a94050460.html" target="_top" xlink:title="NestedCommands">
<polygon fill="#4ea9ff" stroke="#404040" points="212,-108 114,-108 114,-72 212,-72 212,-108"/>
<text text-anchor="middle" x="163" y="-87.5" font-family="Helvetica,sans-Serif" font-size="10.00">NestedCommands</text>
</a>
</g>
</g>
<!-- dir_709d6945534044f28e2d0e0a94050460&#45;&gt;dir_68267d1309a1af8e8297ef4c3efbcdba -->
<g id="edge4" class="edge">
<title>dir_709d6945534044f28e2d0e0a94050460&#45;&gt;dir_68267d1309a1af8e8297ef4c3efbcdba</title>
<path fill="none" stroke="black" d="M186.24,-71.7C198.19,-62.8 212.92,-51.82 225.85,-42.2"/>
<polygon fill="black" stroke="black" points="228.1,-44.88 234.03,-36.1 223.92,-39.27 228.1,-44.88"/>
<g id="a_edge4&#45;headlabel"><a xlink:href="dir_000015_000021.html" target="_top" xlink:title="1">
<text text-anchor="middle" x="226.91" y="-46.81" font-family="Helvetica,sans-Serif" font-size="10.00">1</text>
</a>
</g>
</g>
<!-- dir_7ee976d93af4f6c560d023a9aae4584e -->
<g id="node6" class="node">
<title>dir_7ee976d93af4f6c560d023a9aae4584e</title>
<g id="a_node6"><a xlink:href="dir_7ee976d93af4f6c560d023a9aae4584e.html" target="_top" xlink:title="NMEAparser">
<polygon fill="#4ea9ff" stroke="#404040" points="96,-108 24,-108 24,-72 96,-72 96,-108"/>
<text text-anchor="middle" x="60" y="-87.5" font-family="Helvetica,sans-Serif" font-size="10.00">NMEAparser</text>
</a>
</g>
</g>
<!-- dir_7ee976d93af4f6c560d023a9aae4584e&#45;&gt;dir_68267d1309a1af8e8297ef4c3efbcdba -->
<g id="edge5" class="edge">
<title>dir_7ee976d93af4f6c560d023a9aae4584e&#45;&gt;dir_68267d1309a1af8e8297ef4c3efbcdba</title>
<path fill="none" stroke="black" d="M79.98,-71.73C87.43,-66.02 96.22,-60.09 105,-56 142.05,-38.75 188.07,-28.99 219.7,-23.88"/>
<polygon fill="black" stroke="black" points="220.5,-27.3 229.85,-22.32 219.43,-20.38 220.5,-27.3"/>
<g id="a_edge5&#45;headlabel"><a xlink:href="dir_000016_000021.html" target="_top" xlink:title="4">
<text text-anchor="middle" x="217.38" y="-28.15" font-family="Helvetica,sans-Serif" font-size="10.00">4</text>
</a>
</g>
</g>
</g>
</svg>
