<?xml version="1.0" encoding="UTF-8" standalone="no"?>
<!DOCTYPE svg PUBLIC "-//W3C//DTD SVG 1.1//EN"
 "http://www.w3.org/Graphics/SVG/1.1/DTD/svg11.dtd">
<!-- Generated by graphviz version 4.0.0 (20220602.1335)
 -->
<!-- Title: examples/all_platforms/advanced Pages: 1 -->
<svg width="715pt" height="159pt"
 viewBox="0.00 0.00 715.00 159.00" xmlns="http://www.w3.org/2000/svg" xmlns:xlink="http://www.w3.org/1999/xlink">
<g id="graph0" class="graph" transform="scale(1 1) rotate(0) translate(4 155)">
<title>examples/all_platforms/advanced</title>
<g id="clust1" class="cluster">
<title>clusterdir_7e7debf23c06755bbadb27664e1a95c8</title>
<g id="a_clust1"><a xlink:href="dir_7e7debf23c06755bbadb27664e1a95c8.html" target="_top" xlink:title="all_platforms">
<polygon fill="#daedff" stroke="#7f7f7f" stroke-dasharray="5,2" points="8,-56 8,-143 699,-143 699,-56 8,-56"/>
<text text-anchor="middle" x="353.5" y="-131" font-family="Helvetica,sans-Serif" font-size="10.00">all_platforms</text>
</a>
</g>
</g>
<g id="clust2" class="cluster">
<title>clusterdir_f64c5401ecde094f8488f2d5876a87d7</title>
<g id="a_clust2"><a xlink:href="dir_f64c5401ecde094f8488f2d5876a87d7.html" target="_top">
<polygon fill="#daedff" stroke="#404040" stroke-width="2" points="16,-64 16,-116 691,-116 691,-64 16,-64"/>
</a>
</g>
</g>
<!-- dir_f64c5401ecde094f8488f2d5876a87d7 -->
<g id="node1" class="node">
<title>dir_f64c5401ecde094f8488f2d5876a87d7</title>
<text text-anchor="middle" x="653" y="-87.5" font-family="Helvetica,sans-Serif" font-size="10.00">advanced</text>
</g>
<!-- dir_672e2db806fcde9bd6503001f54572d9 -->
<g id="node2" class="node">
<title>dir_672e2db806fcde9bd6503001f54572d9</title>
<g id="a_node2"><a xlink:href="dir_672e2db806fcde9bd6503001f54572d9.html" target="_top" xlink:title="config_howto">
<polygon fill="#4ea9ff" stroke="#404040" points="605,-108 531,-108 531,-72 605,-72 605,-108"/>
<text text-anchor="middle" x="568" y="-87.5" font-family="Helvetica,sans-Serif" font-size="10.00">config_howto</text>
</a>
</g>
</g>
<!-- dir_68267d1309a1af8e8297ef4c3efbcdba -->
<g id="node8" class="node">
<title>dir_68267d1309a1af8e8297ef4c3efbcdba</title>
<g id="a_node8"><a xlink:href="dir_68267d1309a1af8e8297ef4c3efbcdba.html" target="_top" xlink:title="src">
<polygon fill="none" stroke="red" points="339,-36 285,-36 285,0 339,0 339,-36"/>
<text text-anchor="middle" x="312" y="-15.5" font-family="Helvetica,sans-Serif" font-size="10.00">src</text>
</a>
</g>
</g>
<!-- dir_672e2db806fcde9bd6503001f54572d9&#45;&gt;dir_68267d1309a1af8e8297ef4c3efbcdba -->
<g id="edge1" class="edge">
<title>dir_672e2db806fcde9bd6503001f54572d9&#45;&gt;dir_68267d1309a1af8e8297ef4c3efbcdba</title>
<path fill="none" stroke="black" d="M548.12,-71.76C540.42,-65.92 531.24,-59.89 522,-56 464.79,-31.92 392.43,-23.51 349.31,-20.58"/>
<polygon fill="black" stroke="black" points="349.47,-17.08 339.27,-19.95 349.03,-24.06 349.47,-17.08"/>
<g id="a_edge1&#45;headlabel"><a xlink:href="dir_000006_000022.html" target="_top" xlink:title="1">
<text text-anchor="middle" x="353.23" y="-11.97" font-family="Helvetica,sans-Serif" font-size="10.00">1</text>
</a>
</g>
</g>
<!-- dir_8b34520cf4277e0be875d52c8243f9ff -->
<g id="node3" class="node">
<title>dir_8b34520cf4277e0be875d52c8243f9ff</title>
<g id="a_node3"><a xlink:href="dir_8b34520cf4277e0be875d52c8243f9ff.html" target="_top" xlink:title="debugging">
<polygon fill="#4ea9ff" stroke="#404040" points="512.5,-108 451.5,-108 451.5,-72 512.5,-72 512.5,-108"/>
<text text-anchor="middle" x="482" y="-87.5" font-family="Helvetica,sans-Serif" font-size="10.00">debugging</text>
</a>
</g>
</g>
<!-- dir_8b34520cf4277e0be875d52c8243f9ff&#45;&gt;dir_68267d1309a1af8e8297ef4c3efbcdba -->
<g id="edge2" class="edge">
<title>dir_8b34520cf4277e0be875d52c8243f9ff&#45;&gt;dir_68267d1309a1af8e8297ef4c3efbcdba</title>
<path fill="none" stroke="black" d="M464.93,-71.81C458.49,-66.11 450.83,-60.16 443,-56 413.3,-40.21 376.14,-30.54 348.99,-25.07"/>
<polygon fill="black" stroke="black" points="349.59,-21.62 339.11,-23.17 348.27,-28.49 349.59,-21.62"/>
<g id="a_edge2&#45;headlabel"><a xlink:href="dir_000007_000022.html" target="_top" xlink:title="1">
<text text-anchor="middle" x="353.65" y="-17.01" font-family="Helvetica,sans-Serif" font-size="10.00">1</text>
</a>
</g>
</g>
<!-- dir_e9e44833007419a1c486f0238b30ac06 -->
<g id="node4" class="node">
<title>dir_e9e44833007419a1c486f0238b30ac06</title>
<g id="a_node4"><a xlink:href="dir_e9e44833007419a1c486f0238b30ac06.html" target="_top" xlink:title="GetCommandFromStream">
<polygon fill="#4ea9ff" stroke="#404040" points="433.5,-108 302.5,-108 302.5,-72 433.5,-72 433.5,-108"/>
<text text-anchor="middle" x="368" y="-87.5" font-family="Helvetica,sans-Serif" font-size="10.00">GetCommandFromStream</text>
</a>
</g>
</g>
<!-- dir_e9e44833007419a1c486f0238b30ac06&#45;&gt;dir_68267d1309a1af8e8297ef4c3efbcdba -->
<g id="edge3" class="edge">
<title>dir_e9e44833007419a1c486f0238b30ac06&#45;&gt;dir_68267d1309a1af8e8297ef4c3efbcdba</title>
<path fill="none" stroke="black" d="M354.16,-71.7C347.51,-63.39 339.42,-53.28 332.11,-44.14"/>
<polygon fill="black" stroke="black" points="334.66,-41.73 325.68,-36.1 329.2,-46.1 334.66,-41.73"/>
<g id="a_edge3&#45;headlabel"><a xlink:href="dir_000010_000022.html" target="_top" xlink:title="1">
<text text-anchor="middle" x="339.13" y="-40.26" font-family="Helvetica,sans-Serif" font-size="10.00">1</text>
</a>
</g>
</g>
<!-- dir_2417a6421416a4a5ac02e9b167a7bacc -->
<g id="node5" class="node">
<title>dir_2417a6421416a4a5ac02e9b167a7bacc</title>
<g id="a_node5"><a xlink:href="dir_2417a6421416a4a5ac02e9b167a7bacc.html" target="_top" xlink:title="MultiFile">
<polygon fill="#4ea9ff" stroke="#404040" points="284,-108 230,-108 230,-72 284,-72 284,-108"/>
<text text-anchor="middle" x="257" y="-87.5" font-family="Helvetica,sans-Serif" font-size="10.00">MultiFile</text>
</a>
</g>
</g>
<!-- dir_2417a6421416a4a5ac02e9b167a7bacc&#45;&gt;dir_68267d1309a1af8e8297ef4c3efbcdba -->
<g id="edge4" class="edge">
<title>dir_2417a6421416a4a5ac02e9b167a7bacc&#45;&gt;dir_68267d1309a1af8e8297ef4c3efbcdba</title>
<path fill="none" stroke="black" d="M270.6,-71.7C277.12,-63.39 285.07,-53.28 292.25,-44.14"/>
<polygon fill="black" stroke="black" points="295.13,-46.13 298.56,-36.1 289.63,-41.81 295.13,-46.13"/>
<g id="a_edge4&#45;headlabel"><a xlink:href="dir_000015_000022.html" target="_top" xlink:title="1">
<text text-anchor="middle" x="295.15" y="-48.21" font-family="Helvetica,sans-Serif" font-size="10.00">1</text>
</a>
</g>
</g>
<!-- dir_709d6945534044f28e2d0e0a94050460 -->
<g id="node6" class="node">
<title>dir_709d6945534044f28e2d0e0a94050460</title>
<g id="a_node6"><a xlink:href="dir_709d6945534044f28e2d0e0a94050460.html" target="_top" xlink:title="NestedCommands">
<polygon fill="#4ea9ff" stroke="#404040" points="212,-108 114,-108 114,-72 212,-72 212,-108"/>
<text text-anchor="middle" x="163" y="-87.5" font-family="Helvetica,sans-Serif" font-size="10.00">NestedCommands</text>
</a>
</g>
</g>
<!-- dir_709d6945534044f28e2d0e0a94050460&#45;&gt;dir_68267d1309a1af8e8297ef4c3efbcdba -->
<g id="edge5" class="edge">
<title>dir_709d6945534044f28e2d0e0a94050460&#45;&gt;dir_68267d1309a1af8e8297ef4c3efbcdba</title>
<path fill="none" stroke="black" d="M191.22,-71.96C200.56,-66.59 211.1,-60.8 221,-56 238.57,-47.47 258.63,-39.17 275.44,-32.6"/>
<polygon fill="black" stroke="black" points="276.85,-35.81 284.92,-28.94 274.33,-29.28 276.85,-35.81"/>
<g id="a_edge5&#45;headlabel"><a xlink:href="dir_000016_000022.html" target="_top" xlink:title="1">
<text text-anchor="middle" x="274.52" y="-37.25" font-family="Helvetica,sans-Serif" font-size="10.00">1</text>
</a>
</g>
</g>
<!-- dir_7ee976d93af4f6c560d023a9aae4584e -->
<g id="node7" class="node">
<title>dir_7ee976d93af4f6c560d023a9aae4584e</title>
<g id="a_node7"><a xlink:href="dir_7ee976d93af4f6c560d023a9aae4584e.html" target="_top" xlink:title="NMEAparser">
<polygon fill="#4ea9ff" stroke="#404040" points="96,-108 24,-108 24,-72 96,-72 96,-108"/>
<text text-anchor="middle" x="60" y="-87.5" font-family="Helvetica,sans-Serif" font-size="10.00">NMEAparser</text>
</a>
</g>
</g>
<!-- dir_7ee976d93af4f6c560d023a9aae4584e&#45;&gt;dir_68267d1309a1af8e8297ef4c3efbcdba -->
<g id="edge6" class="edge">
<title>dir_7ee976d93af4f6c560d023a9aae4584e&#45;&gt;dir_68267d1309a1af8e8297ef4c3efbcdba</title>
<path fill="none" stroke="black" d="M79.4,-71.77C86.93,-65.92 95.92,-59.89 105,-56 160.99,-32.01 231.93,-23.57 274.55,-20.61"/>
<polygon fill="black" stroke="black" points="274.99,-24.09 284.75,-19.97 274.55,-17.1 274.99,-24.09"/>
<g id="a_edge6&#45;headlabel"><a xlink:href="dir_000017_000022.html" target="_top" xlink:title="4">
<text text-anchor="middle" x="271.58" y="-24.65" font-family="Helvetica,sans-Serif" font-size="10.00">4</text>
</a>
</g>
</g>
</g>
</svg>
