<?xml version="1.0" encoding="UTF-8" standalone="no"?>
<!DOCTYPE svg PUBLIC "-//W3C//DTD SVG 1.1//EN"
 "http://www.w3.org/Graphics/SVG/1.1/DTD/svg11.dtd">
<!-- Generated by graphviz version 5.0.1 (20220820.1526)
 -->
<!-- Title: examples/all_platforms/advanced/NMEAparser Pages: 1 -->
<svg width="128pt" height="180pt"
 viewBox="0.00 0.00 128.00 180.00" xmlns="http://www.w3.org/2000/svg" xmlns:xlink="http://www.w3.org/1999/xlink">
<g id="graph0" class="graph" transform="scale(1 1) rotate(0) translate(4 176)">
<title>examples/all_platforms/advanced/NMEAparser</title>
<g id="clust1" class="cluster">
<title>clusterdir_f64c5401ecde094f8488f2d5876a87d7</title>
<g id="a_clust1"><a xlink:href="dir_f64c5401ecde094f8488f2d5876a87d7.html" target="_top" xlink:title="advanced">
<polygon fill="#daedff" stroke="#7f7f7f" stroke-dasharray="5,2" points="8,-39 8,-164 112,-164 112,-39 8,-39"/>
<text text-anchor="middle" x="60" y="-152" font-family="Helvetica,sans-Serif" font-size="10.00">advanced</text>
</a>
</g>
</g>
<g id="clust2" class="cluster">
<title>clusterdir_7ee976d93af4f6c560d023a9aae4584e</title>
<g id="a_clust2"><a xlink:href="dir_7ee976d93af4f6c560d023a9aae4584e.html" target="_top">
<polygon fill="#daedff" stroke="#404040" stroke-width="2" points="16,-47 16,-137 104,-137 104,-47 16,-47"/>
</a>
</g>
</g>
<!-- dir_7ee976d93af4f6c560d023a9aae4584e -->
<g id="node1" class="node">
<title>dir_7ee976d93af4f6c560d023a9aae4584e</title>
<text text-anchor="middle" x="60" y="-117" font-family="Helvetica,sans-Serif" font-size="10.00">NMEAparser</text>
</g>
<!-- dir_0b89ff7db9ce025ae007f4afc9b2495d -->
<g id="node2" class="node">
<title>dir_0b89ff7db9ce025ae007f4afc9b2495d</title>
<g id="a_node2"><a xlink:href="dir_0b89ff7db9ce025ae007f4afc9b2495d.html" target="_top" xlink:title="parser">
<polygon fill="#4ea9ff" stroke="#404040" points="75,-74 31,-74 31,-55 75,-55 75,-74"/>
<text text-anchor="middle" x="53" y="-62" font-family="Helvetica,sans-Serif" font-size="10.00">parser</text>
</a>
</g>
</g>
<!-- dir_7ee976d93af4f6c560d023a9aae4584e&#45;&gt;dir_0b89ff7db9ce025ae007f4afc9b2495d -->
<g id="edge1" class="edge">
<title>dir_7ee976d93af4f6c560d023a9aae4584e&#45;&gt;dir_0b89ff7db9ce025ae007f4afc9b2495d</title>
<path fill="none" stroke="#63b8ff" d="M58.84,-109.75C57.93,-102.8 56.61,-92.85 55.46,-84.13"/>
<polygon fill="#63b8ff" stroke="#63b8ff" points="58.91,-83.54 54.13,-74.09 51.97,-84.46 58.91,-83.54"/>
<g id="a_edge1&#45;headlabel"><a xlink:href="dir_000020_000021.html" target="_top" xlink:title="1">
<text text-anchor="middle" x="62.2" y="-84.24" font-family="Helvetica,sans-Serif" font-size="10.00" fill="#63b8ff">1</text>
</a>
</g>
</g>
<!-- dir_68267d1309a1af8e8297ef4c3efbcdba -->
<g id="node3" class="node">
<title>dir_68267d1309a1af8e8297ef4c3efbcdba</title>
<g id="a_node3"><a xlink:href="dir_68267d1309a1af8e8297ef4c3efbcdba.html" target="_top" xlink:title="src">
<polygon fill="#daedff" stroke="red" points="93,-19 63,-19 63,0 93,0 93,-19"/>
<text text-anchor="middle" x="78" y="-7" font-family="Helvetica,sans-Serif" font-size="10.00">src</text>
</a>
</g>
</g>
<!-- dir_7ee976d93af4f6c560d023a9aae4584e&#45;&gt;dir_68267d1309a1af8e8297ef4c3efbcdba -->
<g id="edge2" class="edge">
<title>dir_7ee976d93af4f6c560d023a9aae4584e&#45;&gt;dir_68267d1309a1af8e8297ef4c3efbcdba</title>
<path fill="none" stroke="#63b8ff" d="M66.37,-109.84C72.26,-101.25 80.61,-87.45 84,-74 87.73,-59.22 85.71,-41.97 83.05,-29.18"/>
<polygon fill="#63b8ff" stroke="#63b8ff" points="86.41,-28.18 80.68,-19.27 79.6,-29.81 86.41,-28.18"/>
<g id="a_edge2&#45;headlabel"><a xlink:href="dir_000020_000026.html" target="_top" xlink:title="4">
<text text-anchor="middle" x="90.01" y="-28.51" font-family="Helvetica,sans-Serif" font-size="10.00" fill="#63b8ff">4</text>
</a>
</g>
</g>
<!-- dir_0b89ff7db9ce025ae007f4afc9b2495d&#45;&gt;dir_68267d1309a1af8e8297ef4c3efbcdba -->
<g id="edge3" class="edge">
<title>dir_0b89ff7db9ce025ae007f4afc9b2495d&#45;&gt;dir_68267d1309a1af8e8297ef4c3efbcdba</title>
<path fill="none" stroke="#63b8ff" d="M57.13,-54.75C60.51,-47.57 65.42,-37.18 69.62,-28.27"/>
<polygon fill="#63b8ff" stroke="#63b8ff" points="72.85,-29.63 73.95,-19.09 66.52,-26.64 72.85,-29.63"/>
<g id="a_edge3&#45;headlabel"><a xlink:href="dir_000021_000026.html" target="_top" xlink:title="3">
<text text-anchor="middle" x="73.88" y="-31.59" font-family="Helvetica,sans-Serif" font-size="10.00" fill="#63b8ff">3</text>
</a>
</g>
</g>
</g>
</svg>
