<?xml version="1.0" encoding="UTF-8" standalone="no"?>
<!DOCTYPE svg PUBLIC "-//W3C//DTD SVG 1.1//EN"
 "http://www.w3.org/Graphics/SVG/1.1/DTD/svg11.dtd">
<!-- Generated by graphviz version 5.0.1 (20220820.1526)
 -->
<!-- Title: examples/all_platforms/basic Pages: 1 -->
<svg width="746pt" height="127pt"
 viewBox="0.00 0.00 746.00 126.56" xmlns="http://www.w3.org/2000/svg" xmlns:xlink="http://www.w3.org/1999/xlink">
<g id="graph0" class="graph" transform="scale(1 1) rotate(0) translate(4 122.56)">
<title>examples/all_platforms/basic</title>
<g id="clust1" class="cluster">
<title>clusterdir_7e7debf23c06755bbadb27664e1a95c8</title>
<g id="a_clust1"><a xlink:href="dir_7e7debf23c06755bbadb27664e1a95c8.html" target="_top" xlink:title="all_platforms">
<polygon fill="#daedff" stroke="#7f7f7f" stroke-dasharray="5,2" points="8,-40.56 8,-110.56 730,-110.56 730,-40.56 8,-40.56"/>
<text text-anchor="middle" x="369" y="-98.56" font-family="Helvetica,sans-Serif" font-size="10.00">all_platforms</text>
</a>
</g>
</g>
<g id="clust2" class="cluster">
<title>clusterdir_2655bc3428516fdbce4a8a83377bfcdf</title>
<g id="a_clust2"><a xlink:href="dir_2655bc3428516fdbce4a8a83377bfcdf.html" target="_top">
<polygon fill="#daedff" stroke="#404040" stroke-width="2" points="16,-48.56 16,-83.56 722,-83.56 722,-48.56 16,-48.56"/>
</a>
</g>
</g>
<!-- dir_2655bc3428516fdbce4a8a83377bfcdf -->
<g id="node1" class="node">
<title>dir_2655bc3428516fdbce4a8a83377bfcdf</title>
<text text-anchor="middle" x="694" y="-63.56" font-family="Helvetica,sans-Serif" font-size="10.00">basic</text>
</g>
<!-- dir_70a5183e68768c69042bc81d0123718b -->
<g id="node2" class="node">
<title>dir_70a5183e68768c69042bc81d0123718b</title>
<g id="a_node2"><a xlink:href="dir_70a5183e68768c69042bc81d0123718b.html" target="_top" xlink:title="BLE_UART">
<polygon fill="#4ea9ff" stroke="#404040" points="656,-75.56 588,-75.56 588,-56.56 656,-56.56 656,-75.56"/>
<text text-anchor="middle" x="622" y="-63.56" font-family="Helvetica,sans-Serif" font-size="10.00">BLE_UART</text>
</a>
</g>
</g>
<!-- dir_68267d1309a1af8e8297ef4c3efbcdba -->
<g id="node8" class="node">
<title>dir_68267d1309a1af8e8297ef4c3efbcdba</title>
<g id="a_node8"><a xlink:href="dir_68267d1309a1af8e8297ef4c3efbcdba.html" target="_top" xlink:title="src">
<polygon fill="#daedff" stroke="red" points="356,-20.56 326,-20.56 326,-1.56 356,-1.56 356,-20.56"/>
<text text-anchor="middle" x="341" y="-8.56" font-family="Helvetica,sans-Serif" font-size="10.00">src</text>
</a>
</g>
</g>
<!-- dir_70a5183e68768c69042bc81d0123718b&#45;&gt;dir_68267d1309a1af8e8297ef4c3efbcdba -->
<g id="edge1" class="edge">
<title>dir_70a5183e68768c69042bc81d0123718b&#45;&gt;dir_68267d1309a1af8e8297ef4c3efbcdba</title>
<path fill="none" stroke="#63b8ff" d="M609.83,-56.37C601.54,-50.9 590.1,-44.22 579,-40.56 504.49,-15.99 410.65,-12.15 366.36,-11.83"/>
<polygon fill="#63b8ff" stroke="#63b8ff" points="366.21,-8.33 356.21,-11.82 366.2,-15.33 366.21,-8.33"/>
<g id="a_edge1&#45;headlabel"><a xlink:href="dir_000003_000026.html" target="_top" xlink:title="1">
<text text-anchor="middle" x="369.81" y="-3" font-family="Helvetica,sans-Serif" font-size="10.00" fill="#63b8ff">1</text>
</a>
</g>
</g>
<!-- dir_1e81a06b3e9f5ccb294f2f8aa5e16a14 -->
<g id="node3" class="node">
<title>dir_1e81a06b3e9f5ccb294f2f8aa5e16a14</title>
<g id="a_node3"><a xlink:href="dir_1e81a06b3e9f5ccb294f2f8aa5e16a14.html" target="_top" xlink:title="GetCommandFromStream">
<polygon fill="#4ea9ff" stroke="#404040" points="569.5,-75.56 438.5,-75.56 438.5,-56.56 569.5,-56.56 569.5,-75.56"/>
<text text-anchor="middle" x="504" y="-63.56" font-family="Helvetica,sans-Serif" font-size="10.00">GetCommandFromStream</text>
</a>
</g>
</g>
<!-- dir_1e81a06b3e9f5ccb294f2f8aa5e16a14&#45;&gt;dir_68267d1309a1af8e8297ef4c3efbcdba -->
<g id="edge2" class="edge">
<title>dir_1e81a06b3e9f5ccb294f2f8aa5e16a14&#45;&gt;dir_68267d1309a1af8e8297ef4c3efbcdba</title>
<path fill="none" stroke="#63b8ff" d="M477.97,-56.54C463.55,-51.82 445.28,-45.86 429,-40.56 407.68,-33.62 383.44,-25.78 365.81,-20.08"/>
<polygon fill="#63b8ff" stroke="#63b8ff" points="366.86,-16.74 356.27,-16.99 364.7,-23.4 366.86,-16.74"/>
<g id="a_edge2&#45;headlabel"><a xlink:href="dir_000013_000026.html" target="_top" xlink:title="1">
<text text-anchor="middle" x="371.15" y="-12.64" font-family="Helvetica,sans-Serif" font-size="10.00" fill="#63b8ff">1</text>
</a>
</g>
</g>
<!-- dir_8166f9f20b0b431c1228d93464093dec -->
<g id="node4" class="node">
<title>dir_8166f9f20b0b431c1228d93464093dec</title>
<g id="a_node4"><a xlink:href="dir_8166f9f20b0b431c1228d93464093dec.html" target="_top" xlink:title="LoRa">
<polygon fill="#4ea9ff" stroke="#404040" points="420,-75.56 380,-75.56 380,-56.56 420,-56.56 420,-75.56"/>
<text text-anchor="middle" x="400" y="-63.56" font-family="Helvetica,sans-Serif" font-size="10.00">LoRa</text>
</a>
</g>
</g>
<!-- dir_8166f9f20b0b431c1228d93464093dec&#45;&gt;dir_68267d1309a1af8e8297ef4c3efbcdba -->
<g id="edge3" class="edge">
<title>dir_8166f9f20b0b431c1228d93464093dec&#45;&gt;dir_68267d1309a1af8e8297ef4c3efbcdba</title>
<path fill="none" stroke="#63b8ff" d="M390.52,-56.54C381.8,-48.71 368.66,-36.9 358.1,-27.42"/>
<polygon fill="#63b8ff" stroke="#63b8ff" points="360.43,-24.81 350.65,-20.73 355.75,-30.02 360.43,-24.81"/>
<g id="a_edge3&#45;headlabel"><a xlink:href="dir_000014_000026.html" target="_top" xlink:title="1">
<text text-anchor="middle" x="365" y="-22.6" font-family="Helvetica,sans-Serif" font-size="10.00" fill="#63b8ff">1</text>
</a>
</g>
</g>
<!-- dir_10229c6d80028e1194c010f00d9f31c3 -->
<g id="node5" class="node">
<title>dir_10229c6d80028e1194c010f00d9f31c3</title>
<g id="a_node5"><a xlink:href="dir_10229c6d80028e1194c010f00d9f31c3.html" target="_top" xlink:title="ReadCommandFromBufferMQTT">
<polygon fill="#4ea9ff" stroke="#404040" points="362.5,-75.56 203.5,-75.56 203.5,-56.56 362.5,-56.56 362.5,-75.56"/>
<text text-anchor="middle" x="283" y="-63.56" font-family="Helvetica,sans-Serif" font-size="10.00">ReadCommandFromBufferMQTT</text>
</a>
</g>
</g>
<!-- dir_10229c6d80028e1194c010f00d9f31c3&#45;&gt;dir_68267d1309a1af8e8297ef4c3efbcdba -->
<g id="edge4" class="edge">
<title>dir_10229c6d80028e1194c010f00d9f31c3&#45;&gt;dir_68267d1309a1af8e8297ef4c3efbcdba</title>
<path fill="none" stroke="#63b8ff" d="M292.32,-56.54C300.81,-48.79 313.56,-37.13 323.88,-27.7"/>
<polygon fill="#63b8ff" stroke="#63b8ff" points="326.49,-30.06 331.51,-20.73 321.77,-24.89 326.49,-30.06"/>
<g id="a_edge4&#45;headlabel"><a xlink:href="dir_000022_000026.html" target="_top" xlink:title="1">
<text text-anchor="middle" x="325.75" y="-32.08" font-family="Helvetica,sans-Serif" font-size="10.00" fill="#63b8ff">1</text>
</a>
</g>
</g>
<!-- dir_c85e6d5a7932c363988acb90b3c487d0 -->
<g id="node6" class="node">
<title>dir_c85e6d5a7932c363988acb90b3c487d0</title>
<g id="a_node6"><a xlink:href="dir_c85e6d5a7932c363988acb90b3c487d0.html" target="_top" xlink:title="RF24">
<polygon fill="#4ea9ff" stroke="#404040" points="186,-75.56 146,-75.56 146,-56.56 186,-56.56 186,-75.56"/>
<text text-anchor="middle" x="166" y="-63.56" font-family="Helvetica,sans-Serif" font-size="10.00">RF24</text>
</a>
</g>
</g>
<!-- dir_c85e6d5a7932c363988acb90b3c487d0&#45;&gt;dir_68267d1309a1af8e8297ef4c3efbcdba -->
<g id="edge5" class="edge">
<title>dir_c85e6d5a7932c363988acb90b3c487d0&#45;&gt;dir_68267d1309a1af8e8297ef4c3efbcdba</title>
<path fill="none" stroke="#63b8ff" d="M173.81,-56.51C179.24,-51.11 186.92,-44.43 195,-40.56 234.41,-21.66 285.51,-15.3 315.63,-13.15"/>
<polygon fill="#63b8ff" stroke="#63b8ff" points="315.95,-16.64 325.71,-12.53 315.52,-9.65 315.95,-16.64"/>
<g id="a_edge5&#45;headlabel"><a xlink:href="dir_000025_000026.html" target="_top" xlink:title="1">
<text text-anchor="middle" x="312.53" y="-17.19" font-family="Helvetica,sans-Serif" font-size="10.00" fill="#63b8ff">1</text>
</a>
</g>
</g>
<!-- dir_c580ac58fe1ac7f594117fac9ce352cf -->
<g id="node7" class="node">
<title>dir_c580ac58fe1ac7f594117fac9ce352cf</title>
<g id="a_node7"><a xlink:href="dir_c580ac58fe1ac7f594117fac9ce352cf.html" target="_top" xlink:title="WildcardCommands">
<polygon fill="#4ea9ff" stroke="#404040" points="128,-75.56 24,-75.56 24,-56.56 128,-56.56 128,-75.56"/>
<text text-anchor="middle" x="76" y="-63.56" font-family="Helvetica,sans-Serif" font-size="10.00">WildcardCommands</text>
</a>
</g>
</g>
<!-- dir_c580ac58fe1ac7f594117fac9ce352cf&#45;&gt;dir_68267d1309a1af8e8297ef4c3efbcdba -->
<g id="edge6" class="edge">
<title>dir_c580ac58fe1ac7f594117fac9ce352cf&#45;&gt;dir_68267d1309a1af8e8297ef4c3efbcdba</title>
<path fill="none" stroke="#63b8ff" d="M94.02,-56.47C105.96,-51.12 122.11,-44.53 137,-40.56 200.04,-23.77 276.82,-16.43 315.75,-13.61"/>
<polygon fill="#63b8ff" stroke="#63b8ff" points="316.17,-17.09 325.91,-12.91 315.69,-10.1 316.17,-17.09"/>
<g id="a_edge6&#45;headlabel"><a xlink:href="dir_000030_000026.html" target="_top" xlink:title="1">
<text text-anchor="middle" x="312.78" y="-17.66" font-family="Helvetica,sans-Serif" font-size="10.00" fill="#63b8ff">1</text>
</a>
</g>
</g>
</g>
</svg>
