<?xml version="1.0" encoding="UTF-8" standalone="no"?>
<!DOCTYPE svg PUBLIC "-//W3C//DTD SVG 1.1//EN"
 "http://www.w3.org/Graphics/SVG/1.1/DTD/svg11.dtd">
<!-- Generated by graphviz version 5.0.0 (20220708.1001)
 -->
<!-- Title: examples/all_platforms/advanced/NMEAparser Pages: 1 -->
<svg width="128pt" height="231pt"
 viewBox="0.00 0.00 128.00 231.00" xmlns="http://www.w3.org/2000/svg" xmlns:xlink="http://www.w3.org/1999/xlink">
<g id="graph0" class="graph" transform="scale(1 1) rotate(0) translate(4 227)">
<title>examples/all_platforms/advanced/NMEAparser</title>
<g id="clust1" class="cluster">
<title>clusterdir_f64c5401ecde094f8488f2d5876a87d7</title>
<g id="a_clust1"><a xlink:href="dir_f64c5401ecde094f8488f2d5876a87d7.html" target="_top" xlink:title="advanced">
<polygon fill="#daedff" stroke="#7f7f7f" stroke-dasharray="5,2" points="8,-56 8,-215 112,-215 112,-56 8,-56"/>
<text text-anchor="middle" x="60" y="-203" font-family="Helvetica,sans-Serif" font-size="10.00">advanced</text>
</a>
</g>
</g>
<g id="clust2" class="cluster">
<title>clusterdir_7ee976d93af4f6c560d023a9aae4584e</title>
<g id="a_clust2"><a xlink:href="dir_7ee976d93af4f6c560d023a9aae4584e.html" target="_top">
<polygon fill="#daedff" stroke="#404040" stroke-width="2" points="16,-64 16,-188 104,-188 104,-64 16,-64"/>
</a>
</g>
</g>
<!-- dir_7ee976d93af4f6c560d023a9aae4584e -->
<g id="node1" class="node">
<title>dir_7ee976d93af4f6c560d023a9aae4584e</title>
<text text-anchor="middle" x="60" y="-159.5" font-family="Helvetica,sans-Serif" font-size="10.00">NMEAparser</text>
</g>
<!-- dir_0b89ff7db9ce025ae007f4afc9b2495d -->
<g id="node2" class="node">
<title>dir_0b89ff7db9ce025ae007f4afc9b2495d</title>
<g id="a_node2"><a xlink:href="dir_0b89ff7db9ce025ae007f4afc9b2495d.html" target="_top" xlink:title="parser">
<polygon fill="#4ea9ff" stroke="#404040" points="82,-108 28,-108 28,-72 82,-72 82,-108"/>
<text text-anchor="middle" x="55" y="-87.5" font-family="Helvetica,sans-Serif" font-size="10.00">parser</text>
</a>
</g>
</g>
<!-- dir_7ee976d93af4f6c560d023a9aae4584e&#45;&gt;dir_0b89ff7db9ce025ae007f4afc9b2495d -->
<g id="edge1" class="edge">
<title>dir_7ee976d93af4f6c560d023a9aae4584e&#45;&gt;dir_0b89ff7db9ce025ae007f4afc9b2495d</title>
<path fill="none" stroke="black" d="M58.76,-143.7C58.21,-135.98 57.55,-126.71 56.94,-118.11"/>
<polygon fill="black" stroke="black" points="60.43,-117.83 56.22,-108.1 53.44,-118.33 60.43,-117.83"/>
<g id="a_edge1&#45;headlabel"><a xlink:href="dir_000020_000021.html" target="_top" xlink:title="1">
<text text-anchor="middle" x="63.51" y="-118.71" font-family="Helvetica,sans-Serif" font-size="10.00">1</text>
</a>
</g>
</g>
<!-- dir_68267d1309a1af8e8297ef4c3efbcdba -->
<g id="node3" class="node">
<title>dir_68267d1309a1af8e8297ef4c3efbcdba</title>
<g id="a_node3"><a xlink:href="dir_68267d1309a1af8e8297ef4c3efbcdba.html" target="_top" xlink:title="src">
<polygon fill="none" stroke="red" points="109,-36 55,-36 55,0 109,0 109,-36"/>
<text text-anchor="middle" x="82" y="-15.5" font-family="Helvetica,sans-Serif" font-size="10.00">src</text>
</a>
</g>
</g>
<!-- dir_7ee976d93af4f6c560d023a9aae4584e&#45;&gt;dir_68267d1309a1af8e8297ef4c3efbcdba -->
<g id="edge2" class="edge">
<title>dir_7ee976d93af4f6c560d023a9aae4584e&#45;&gt;dir_68267d1309a1af8e8297ef4c3efbcdba</title>
<path fill="none" stroke="black" d="M73.15,-143.91C79.92,-134.01 87.49,-120.96 91,-108 96.53,-87.58 93.63,-63.68 89.7,-45.79"/>
<polygon fill="black" stroke="black" points="93.09,-44.92 87.32,-36.03 86.29,-46.57 93.09,-44.92"/>
<g id="a_edge2&#45;headlabel"><a xlink:href="dir_000020_000026.html" target="_top" xlink:title="4">
<text text-anchor="middle" x="96.7" y="-45.24" font-family="Helvetica,sans-Serif" font-size="10.00">4</text>
</a>
</g>
</g>
<!-- dir_0b89ff7db9ce025ae007f4afc9b2495d&#45;&gt;dir_68267d1309a1af8e8297ef4c3efbcdba -->
<g id="edge3" class="edge">
<title>dir_0b89ff7db9ce025ae007f4afc9b2495d&#45;&gt;dir_68267d1309a1af8e8297ef4c3efbcdba</title>
<path fill="none" stroke="black" d="M61.67,-71.7C64.71,-63.81 68.38,-54.3 71.76,-45.55"/>
<polygon fill="black" stroke="black" points="75.07,-46.69 75.4,-36.1 68.54,-44.17 75.07,-46.69"/>
<g id="a_edge3&#45;headlabel"><a xlink:href="dir_000021_000026.html" target="_top" xlink:title="3">
<text text-anchor="middle" x="76.42" y="-48.57" font-family="Helvetica,sans-Serif" font-size="10.00">3</text>
</a>
</g>
</g>
</g>
</svg>
