<?xml version="1.0" encoding="UTF-8" standalone="no"?>
<!DOCTYPE svg PUBLIC "-//W3C//DTD SVG 1.1//EN"
 "http://www.w3.org/Graphics/SVG/1.1/DTD/svg11.dtd">
<!-- Generated by graphviz version 3.0.0 (20220413.0106)
 -->
<!-- Title: examples/all_platforms/basic Pages: 1 -->
<svg width="788pt" height="159pt"
 viewBox="0.00 0.00 788.00 159.00" xmlns="http://www.w3.org/2000/svg" xmlns:xlink="http://www.w3.org/1999/xlink">
<g id="graph0" class="graph" transform="scale(1 1) rotate(0) translate(4 155)">
<title>examples/all_platforms/basic</title>
<g id="clust1" class="cluster">
<title>clusterdir_7e7debf23c06755bbadb27664e1a95c8</title>
<g id="a_clust1"><a xlink:href="dir_7e7debf23c06755bbadb27664e1a95c8.html" target="_top" xlink:title="all_platforms">
<polygon fill="#daedff" stroke="#7f7f7f" stroke-dasharray="5,2" points="8,-56 8,-143 772,-143 772,-56 8,-56"/>
<text text-anchor="middle" x="390" y="-131" font-family="Helvetica,sans-Serif" font-size="10.00">all_platforms</text>
</a>
</g>
</g>
<g id="clust2" class="cluster">
<title>clusterdir_2655bc3428516fdbce4a8a83377bfcdf</title>
<g id="a_clust2"><a xlink:href="dir_2655bc3428516fdbce4a8a83377bfcdf.html" target="_top">
<polygon fill="#daedff" stroke="#404040" stroke-width="2" points="16,-64 16,-116 764,-116 764,-64 16,-64"/>
</a>
</g>
</g>
<!-- dir_2655bc3428516fdbce4a8a83377bfcdf -->
<g id="node1" class="node">
<title>dir_2655bc3428516fdbce4a8a83377bfcdf</title>
<text text-anchor="middle" x="729" y="-87.5" font-family="Helvetica,sans-Serif" font-size="10.00">basic</text>
</g>
<!-- dir_70a5183e68768c69042bc81d0123718b -->
<g id="node2" class="node">
<title>dir_70a5183e68768c69042bc81d0123718b</title>
<g id="a_node2"><a xlink:href="dir_70a5183e68768c69042bc81d0123718b.html" target="_top" xlink:title="BLE_UART">
<polygon fill="#4ea9ff" stroke="#404040" points="684,-108 616,-108 616,-72 684,-72 684,-108"/>
<text text-anchor="middle" x="650" y="-87.5" font-family="Helvetica,sans-Serif" font-size="10.00">BLE_UART</text>
</a>
</g>
</g>
<!-- dir_68267d1309a1af8e8297ef4c3efbcdba -->
<g id="node8" class="node">
<title>dir_68267d1309a1af8e8297ef4c3efbcdba</title>
<g id="a_node8"><a xlink:href="dir_68267d1309a1af8e8297ef4c3efbcdba.html" target="_top" xlink:title="src">
<polygon fill="none" stroke="red" points="386,-36 332,-36 332,0 386,0 386,-36"/>
<text text-anchor="middle" x="359" y="-15.5" font-family="Helvetica,sans-Serif" font-size="10.00">src</text>
</a>
</g>
</g>
<!-- dir_70a5183e68768c69042bc81d0123718b&#45;&gt;dir_68267d1309a1af8e8297ef4c3efbcdba -->
<g id="edge1" class="edge">
<title>dir_70a5183e68768c69042bc81d0123718b&#45;&gt;dir_68267d1309a1af8e8297ef4c3efbcdba</title>
<path fill="none" stroke="black" d="M632.05,-71.96C624.79,-65.99 616.01,-59.82 607,-56 536.67,-26.15 446.2,-19.84 396.27,-18.82"/>
<polygon fill="black" stroke="black" points="396.3,-15.32 386.25,-18.68 396.2,-22.32 396.3,-15.32"/>
<g id="a_edge1&#45;headlabel"><a xlink:href="dir_000003_000020.html" target="_top" xlink:title="1">
<text text-anchor="middle" x="399.94" y="-10.03" font-family="Helvetica,sans-Serif" font-size="10.00">1</text>
</a>
</g>
</g>
<!-- dir_1e81a06b3e9f5ccb294f2f8aa5e16a14 -->
<g id="node3" class="node">
<title>dir_1e81a06b3e9f5ccb294f2f8aa5e16a14</title>
<g id="a_node3"><a xlink:href="dir_1e81a06b3e9f5ccb294f2f8aa5e16a14.html" target="_top" xlink:title="GetCommandFromStream">
<polygon fill="#4ea9ff" stroke="#404040" points="597.5,-108 466.5,-108 466.5,-72 597.5,-72 597.5,-108"/>
<text text-anchor="middle" x="532" y="-87.5" font-family="Helvetica,sans-Serif" font-size="10.00">GetCommandFromStream</text>
</a>
</g>
</g>
<!-- dir_1e81a06b3e9f5ccb294f2f8aa5e16a14&#45;&gt;dir_68267d1309a1af8e8297ef4c3efbcdba -->
<g id="edge2" class="edge">
<title>dir_1e81a06b3e9f5ccb294f2f8aa5e16a14&#45;&gt;dir_68267d1309a1af8e8297ef4c3efbcdba</title>
<path fill="none" stroke="black" d="M494.4,-71.99C482.49,-66.73 469.25,-61 457,-56 436.88,-47.78 414.18,-39.17 395.7,-32.33"/>
<polygon fill="black" stroke="black" points="396.78,-29 386.19,-28.82 394.36,-35.56 396.78,-29"/>
<g id="a_edge2&#45;headlabel"><a xlink:href="dir_000009_000020.html" target="_top" xlink:title="1">
<text text-anchor="middle" x="401.14" y="-25.07" font-family="Helvetica,sans-Serif" font-size="10.00">1</text>
</a>
</g>
</g>
<!-- dir_8166f9f20b0b431c1228d93464093dec -->
<g id="node4" class="node">
<title>dir_8166f9f20b0b431c1228d93464093dec</title>
<g id="a_node4"><a xlink:href="dir_8166f9f20b0b431c1228d93464093dec.html" target="_top" xlink:title="LoRa">
<polygon fill="#4ea9ff" stroke="#404040" points="448,-108 394,-108 394,-72 448,-72 448,-108"/>
<text text-anchor="middle" x="421" y="-87.5" font-family="Helvetica,sans-Serif" font-size="10.00">LoRa</text>
</a>
</g>
</g>
<!-- dir_8166f9f20b0b431c1228d93464093dec&#45;&gt;dir_68267d1309a1af8e8297ef4c3efbcdba -->
<g id="edge3" class="edge">
<title>dir_8166f9f20b0b431c1228d93464093dec&#45;&gt;dir_68267d1309a1af8e8297ef4c3efbcdba</title>
<path fill="none" stroke="black" d="M405.67,-71.7C398.24,-63.3 389.18,-53.07 381.02,-43.86"/>
<polygon fill="black" stroke="black" points="383.4,-41.27 374.15,-36.1 378.16,-45.91 383.4,-41.27"/>
<g id="a_edge3&#45;headlabel"><a xlink:href="dir_000010_000020.html" target="_top" xlink:title="1">
<text text-anchor="middle" x="387.91" y="-39.58" font-family="Helvetica,sans-Serif" font-size="10.00">1</text>
</a>
</g>
</g>
<!-- dir_10229c6d80028e1194c010f00d9f31c3 -->
<g id="node5" class="node">
<title>dir_10229c6d80028e1194c010f00d9f31c3</title>
<g id="a_node5"><a xlink:href="dir_10229c6d80028e1194c010f00d9f31c3.html" target="_top" xlink:title="ReadCommandFromBufferMQTT">
<polygon fill="#4ea9ff" stroke="#404040" points="376.5,-108 217.5,-108 217.5,-72 376.5,-72 376.5,-108"/>
<text text-anchor="middle" x="297" y="-87.5" font-family="Helvetica,sans-Serif" font-size="10.00">ReadCommandFromBufferMQTT</text>
</a>
</g>
</g>
<!-- dir_10229c6d80028e1194c010f00d9f31c3&#45;&gt;dir_68267d1309a1af8e8297ef4c3efbcdba -->
<g id="edge4" class="edge">
<title>dir_10229c6d80028e1194c010f00d9f31c3&#45;&gt;dir_68267d1309a1af8e8297ef4c3efbcdba</title>
<path fill="none" stroke="black" d="M312.33,-71.7C319.76,-63.3 328.82,-53.07 336.98,-43.86"/>
<polygon fill="black" stroke="black" points="339.84,-45.91 343.85,-36.1 334.6,-41.27 339.84,-45.91"/>
<g id="a_edge4&#45;headlabel"><a xlink:href="dir_000017_000020.html" target="_top" xlink:title="1">
<text text-anchor="middle" x="339.58" y="-47.98" font-family="Helvetica,sans-Serif" font-size="10.00">1</text>
</a>
</g>
</g>
<!-- dir_c85e6d5a7932c363988acb90b3c487d0 -->
<g id="node6" class="node">
<title>dir_c85e6d5a7932c363988acb90b3c487d0</title>
<g id="a_node6"><a xlink:href="dir_c85e6d5a7932c363988acb90b3c487d0.html" target="_top" xlink:title="RF24">
<polygon fill="#4ea9ff" stroke="#404040" points="200,-108 146,-108 146,-72 200,-72 200,-108"/>
<text text-anchor="middle" x="173" y="-87.5" font-family="Helvetica,sans-Serif" font-size="10.00">RF24</text>
</a>
</g>
</g>
<!-- dir_c85e6d5a7932c363988acb90b3c487d0&#45;&gt;dir_68267d1309a1af8e8297ef4c3efbcdba -->
<g id="edge5" class="edge">
<title>dir_c85e6d5a7932c363988acb90b3c487d0&#45;&gt;dir_68267d1309a1af8e8297ef4c3efbcdba</title>
<path fill="none" stroke="black" d="M188.13,-71.98C194.11,-66.15 201.38,-60.08 209,-56 244.58,-36.94 290.16,-27.5 321.69,-22.96"/>
<polygon fill="black" stroke="black" points="322.37,-26.4 331.81,-21.6 321.44,-19.46 322.37,-26.4"/>
<g id="a_edge5&#45;headlabel"><a xlink:href="dir_000019_000020.html" target="_top" xlink:title="1">
<text text-anchor="middle" x="319.18" y="-27.19" font-family="Helvetica,sans-Serif" font-size="10.00">1</text>
</a>
</g>
</g>
<!-- dir_c580ac58fe1ac7f594117fac9ce352cf -->
<g id="node7" class="node">
<title>dir_c580ac58fe1ac7f594117fac9ce352cf</title>
<g id="a_node7"><a xlink:href="dir_c580ac58fe1ac7f594117fac9ce352cf.html" target="_top" xlink:title="WildcardCommands">
<polygon fill="#4ea9ff" stroke="#404040" points="128,-108 24,-108 24,-72 128,-72 128,-108"/>
<text text-anchor="middle" x="76" y="-87.5" font-family="Helvetica,sans-Serif" font-size="10.00">WildcardCommands</text>
</a>
</g>
</g>
<!-- dir_c580ac58fe1ac7f594117fac9ce352cf&#45;&gt;dir_68267d1309a1af8e8297ef4c3efbcdba -->
<g id="edge6" class="edge">
<title>dir_c580ac58fe1ac7f594117fac9ce352cf&#45;&gt;dir_68267d1309a1af8e8297ef4c3efbcdba</title>
<path fill="none" stroke="black" d="M103.05,-71.87C113.34,-66.03 125.38,-59.99 137,-56 199.79,-34.46 277,-25.21 321.85,-21.43"/>
<polygon fill="black" stroke="black" points="322.3,-24.91 331.99,-20.62 321.74,-17.93 322.3,-24.91"/>
<g id="a_edge6&#45;headlabel"><a xlink:href="dir_000022_000020.html" target="_top" xlink:title="1">
<text text-anchor="middle" x="318.94" y="-25.52" font-family="Helvetica,sans-Serif" font-size="10.00">1</text>
</a>
</g>
</g>
</g>
</svg>
