<?xml version="1.0" encoding="UTF-8" standalone="no"?>
<!DOCTYPE svg PUBLIC "-//W3C//DTD SVG 1.1//EN"
 "http://www.w3.org/Graphics/SVG/1.1/DTD/svg11.dtd">
<!-- Generated by graphviz version 3.0.0 (20220413.0106)
 -->
<!-- Title: examples/all_platforms/advanced Pages: 1 -->
<svg width="543pt" height="159pt"
 viewBox="0.00 0.00 543.00 159.00" xmlns="http://www.w3.org/2000/svg" xmlns:xlink="http://www.w3.org/1999/xlink">
<g id="graph0" class="graph" transform="scale(1 1) rotate(0) translate(4 155)">
<title>examples/all_platforms/advanced</title>
<g id="clust1" class="cluster">
<title>clusterdir_7e7debf23c06755bbadb27664e1a95c8</title>
<g id="a_clust1"><a xlink:href="dir_7e7debf23c06755bbadb27664e1a95c8.html" target="_top" xlink:title="all_platforms">
<polygon fill="#daedff" stroke="#7f7f7f" stroke-dasharray="5,2" points="8,-56 8,-143 527,-143 527,-56 8,-56"/>
<text text-anchor="middle" x="267.5" y="-131" font-family="Helvetica,sans-Serif" font-size="10.00">all_platforms</text>
</a>
</g>
</g>
<g id="clust2" class="cluster">
<title>clusterdir_f64c5401ecde094f8488f2d5876a87d7</title>
<g id="a_clust2"><a xlink:href="dir_f64c5401ecde094f8488f2d5876a87d7.html" target="_top">
<polygon fill="#daedff" stroke="#404040" stroke-width="2" points="16,-64 16,-116 519,-116 519,-64 16,-64"/>
</a>
</g>
</g>
<!-- dir_f64c5401ecde094f8488f2d5876a87d7 -->
<g id="node1" class="node">
<title>dir_f64c5401ecde094f8488f2d5876a87d7</title>
<text text-anchor="middle" x="481" y="-87.5" font-family="Helvetica,sans-Serif" font-size="10.00">advanced</text>
</g>
<!-- dir_e9e44833007419a1c486f0238b30ac06 -->
<g id="node2" class="node">
<title>dir_e9e44833007419a1c486f0238b30ac06</title>
<g id="a_node2"><a xlink:href="dir_e9e44833007419a1c486f0238b30ac06.html" target="_top" xlink:title="GetCommandFromStream">
<polygon fill="#4ea9ff" stroke="#404040" points="433.5,-108 302.5,-108 302.5,-72 433.5,-72 433.5,-108"/>
<text text-anchor="middle" x="368" y="-87.5" font-family="Helvetica,sans-Serif" font-size="10.00">GetCommandFromStream</text>
</a>
</g>
</g>
<!-- dir_68267d1309a1af8e8297ef4c3efbcdba -->
<g id="node6" class="node">
<title>dir_68267d1309a1af8e8297ef4c3efbcdba</title>
<g id="a_node6"><a xlink:href="dir_68267d1309a1af8e8297ef4c3efbcdba.html" target="_top" xlink:title="src">
<polygon fill="none" stroke="red" points="237,-36 183,-36 183,0 237,0 237,-36"/>
<text text-anchor="middle" x="210" y="-15.5" font-family="Helvetica,sans-Serif" font-size="10.00">src</text>
</a>
</g>
</g>
<!-- dir_e9e44833007419a1c486f0238b30ac06&#45;&gt;dir_68267d1309a1af8e8297ef4c3efbcdba -->
<g id="edge1" class="edge">
<title>dir_e9e44833007419a1c486f0238b30ac06&#45;&gt;dir_68267d1309a1af8e8297ef4c3efbcdba</title>
<path fill="none" stroke="black" d="M329.35,-71.88C304.19,-60.73 271.56,-46.27 246.78,-35.29"/>
<polygon fill="black" stroke="black" points="247.92,-31.97 237.36,-31.12 245.08,-38.37 247.92,-31.97"/>
<g id="a_edge1&#45;headlabel"><a xlink:href="dir_000008_000020.html" target="_top" xlink:title="1">
<text text-anchor="middle" x="252.36" y="-28.33" font-family="Helvetica,sans-Serif" font-size="10.00">1</text>
</a>
</g>
</g>
<!-- dir_2417a6421416a4a5ac02e9b167a7bacc -->
<g id="node3" class="node">
<title>dir_2417a6421416a4a5ac02e9b167a7bacc</title>
<g id="a_node3"><a xlink:href="dir_2417a6421416a4a5ac02e9b167a7bacc.html" target="_top" xlink:title="MultiFile">
<polygon fill="#4ea9ff" stroke="#404040" points="284,-108 230,-108 230,-72 284,-72 284,-108"/>
<text text-anchor="middle" x="257" y="-87.5" font-family="Helvetica,sans-Serif" font-size="10.00">MultiFile</text>
</a>
</g>
</g>
<!-- dir_2417a6421416a4a5ac02e9b167a7bacc&#45;&gt;dir_68267d1309a1af8e8297ef4c3efbcdba -->
<g id="edge2" class="edge">
<title>dir_2417a6421416a4a5ac02e9b167a7bacc&#45;&gt;dir_68267d1309a1af8e8297ef4c3efbcdba</title>
<path fill="none" stroke="black" d="M245.38,-71.7C239.86,-63.47 233.15,-53.48 227.07,-44.42"/>
<polygon fill="black" stroke="black" points="229.96,-42.46 221.48,-36.1 224.15,-46.36 229.96,-42.46"/>
<g id="a_edge2&#45;headlabel"><a xlink:href="dir_000013_000020.html" target="_top" xlink:title="1">
<text text-anchor="middle" x="234.33" y="-41.36" font-family="Helvetica,sans-Serif" font-size="10.00">1</text>
</a>
</g>
</g>
<!-- dir_709d6945534044f28e2d0e0a94050460 -->
<g id="node4" class="node">
<title>dir_709d6945534044f28e2d0e0a94050460</title>
<g id="a_node4"><a xlink:href="dir_709d6945534044f28e2d0e0a94050460.html" target="_top" xlink:title="NestedCommands">
<polygon fill="#4ea9ff" stroke="#404040" points="212,-108 114,-108 114,-72 212,-72 212,-108"/>
<text text-anchor="middle" x="163" y="-87.5" font-family="Helvetica,sans-Serif" font-size="10.00">NestedCommands</text>
</a>
</g>
</g>
<!-- dir_709d6945534044f28e2d0e0a94050460&#45;&gt;dir_68267d1309a1af8e8297ef4c3efbcdba -->
<g id="edge3" class="edge">
<title>dir_709d6945534044f28e2d0e0a94050460&#45;&gt;dir_68267d1309a1af8e8297ef4c3efbcdba</title>
<path fill="none" stroke="black" d="M174.62,-71.7C180.14,-63.47 186.85,-53.48 192.93,-44.42"/>
<polygon fill="black" stroke="black" points="195.85,-46.36 198.52,-36.1 190.04,-42.46 195.85,-46.36"/>
<g id="a_edge3&#45;headlabel"><a xlink:href="dir_000014_000020.html" target="_top" xlink:title="1">
<text text-anchor="middle" x="196.2" y="-48.42" font-family="Helvetica,sans-Serif" font-size="10.00">1</text>
</a>
</g>
</g>
<!-- dir_7ee976d93af4f6c560d023a9aae4584e -->
<g id="node5" class="node">
<title>dir_7ee976d93af4f6c560d023a9aae4584e</title>
<g id="a_node5"><a xlink:href="dir_7ee976d93af4f6c560d023a9aae4584e.html" target="_top" xlink:title="NMEAparser">
<polygon fill="#4ea9ff" stroke="#404040" points="96,-108 24,-108 24,-72 96,-72 96,-108"/>
<text text-anchor="middle" x="60" y="-87.5" font-family="Helvetica,sans-Serif" font-size="10.00">NMEAparser</text>
</a>
</g>
</g>
<!-- dir_7ee976d93af4f6c560d023a9aae4584e&#45;&gt;dir_68267d1309a1af8e8297ef4c3efbcdba -->
<g id="edge4" class="edge">
<title>dir_7ee976d93af4f6c560d023a9aae4584e&#45;&gt;dir_68267d1309a1af8e8297ef4c3efbcdba</title>
<path fill="none" stroke="black" d="M80.67,-71.87C88.04,-66.31 96.6,-60.43 105,-56 126.59,-44.6 152.44,-35.44 173.09,-29.09"/>
<polygon fill="black" stroke="black" points="174.19,-32.41 182.77,-26.2 172.18,-25.71 174.19,-32.41"/>
<g id="a_edge4&#45;headlabel"><a xlink:href="dir_000015_000020.html" target="_top" xlink:title="4">
<text text-anchor="middle" x="171.56" y="-33.66" font-family="Helvetica,sans-Serif" font-size="10.00">4</text>
</a>
</g>
</g>
</g>
</svg>
