<?xml version="1.0" encoding="UTF-8" standalone="no"?>
<!DOCTYPE svg PUBLIC "-//W3C//DTD SVG 1.1//EN"
 "http://www.w3.org/Graphics/SVG/1.1/DTD/svg11.dtd">
<!-- Generated by graphviz version 5.0.0 (20220708.1001)
 -->
<!-- Title: Graphical Class Hierarchy Pages: 1 -->
<svg width="273pt" height="776pt"
 viewBox="0.00 0.00 273.00 776.00" xmlns="http://www.w3.org/2000/svg" xmlns:xlink="http://www.w3.org/1999/xlink">
<g id="graph0" class="graph" transform="scale(1 1) rotate(0) translate(4 772)">
<title>Graphical Class Hierarchy</title>
<!-- Node0 -->
<g id="node1" class="node">
<title>Node0</title>
<g id="a_node1"><a xlink:title=" ">
<polygon fill="none" stroke="#bfbfbf" points="13,-370.5 13,-389.5 56,-389.5 56,-370.5 13,-370.5"/>
<text text-anchor="middle" x="34.5" y="-377.5" font-family="Helvetica,sans-Serif" font-size="10.00">object</text>
</a>
</g>
</g>
<!-- Node1 -->
<g id="node2" class="node">
<title>Node1</title>
<g id="a_node2"><a xlink:href="d5/d68/classmodules_1_1cli_1_1config_1_1cli_config.html" target="_top" xlink:title=" ">
<polygon fill="none" stroke="black" points="119,-666.5 119,-685.5 251,-685.5 251,-666.5 119,-666.5"/>
<text text-anchor="middle" x="185" y="-673.5" font-family="Helvetica,sans-Serif" font-size="10.00">modules.cli.config.cliConfig</text>
</a>
</g>
</g>
<!-- Node0&#45;&gt;Node1 -->
<g id="edge1" class="edge">
<title>Node0&#45;&gt;Node1</title>
<path fill="none" stroke="midnightblue" d="M37.87,-399.95C45.05,-457.04 68.33,-619.28 105,-656 109.3,-660.3 114.38,-663.73 119.87,-666.44"/>
<polygon fill="midnightblue" stroke="midnightblue" points="41.31,-399.23 36.62,-389.73 34.36,-400.08 41.31,-399.23"/>
</g>
<!-- Node2 -->
<g id="node3" class="node">
<title>Node2</title>
<g id="a_node3"><a xlink:href="dd/d75/classmodules_1_1cli_1_1functions_1_1cli_functions.html" target="_top" xlink:title=" ">
<polygon fill="none" stroke="black" points="125.5,-617 125.5,-647 244.5,-647 244.5,-617 125.5,-617"/>
<text text-anchor="start" x="133.5" y="-635" font-family="Helvetica,sans-Serif" font-size="10.00">modules.cli.functions.cli</text>
<text text-anchor="middle" x="185" y="-624" font-family="Helvetica,sans-Serif" font-size="10.00">Functions</text>
</a>
</g>
</g>
<!-- Node0&#45;&gt;Node2 -->
<g id="edge2" class="edge">
<title>Node0&#45;&gt;Node2</title>
<path fill="none" stroke="midnightblue" d="M35.71,-399.95C37.28,-443.68 47.22,-548.67 105,-607 110.77,-612.83 117.89,-617.3 125.47,-620.73"/>
<polygon fill="midnightblue" stroke="midnightblue" points="39.21,-399.69 35.46,-389.78 32.21,-399.86 39.21,-399.69"/>
</g>
<!-- Node3 -->
<g id="node4" class="node">
<title>Node3</title>
<g id="a_node4"><a xlink:href="d5/dc1/classmodules_1_1cli_1_1parameters_1_1cli_parameters.html" target="_top" xlink:title=" ">
<polygon fill="none" stroke="black" points="121,-568 121,-598 249,-598 249,-568 121,-568"/>
<text text-anchor="start" x="129" y="-586" font-family="Helvetica,sans-Serif" font-size="10.00">modules.cli.parameters.cli</text>
<text text-anchor="middle" x="185" y="-575" font-family="Helvetica,sans-Serif" font-size="10.00">Parameters</text>
</a>
</g>
</g>
<!-- Node0&#45;&gt;Node3 -->
<g id="edge3" class="edge">
<title>Node0&#45;&gt;Node3</title>
<path fill="none" stroke="midnightblue" d="M37.7,-400.05C42.77,-436.68 58.67,-514.62 105,-558 109.62,-562.33 114.99,-565.9 120.71,-568.86"/>
<polygon fill="midnightblue" stroke="midnightblue" points="41.12,-399.2 36.4,-389.71 34.17,-400.06 41.12,-399.2"/>
</g>
<!-- Node4 -->
<g id="node5" class="node">
<title>Node4</title>
<g id="a_node5"><a xlink:href="dc/d95/classmodules_1_1cli_1_1setup_1_1cli_setup.html" target="_top" xlink:title=" ">
<polygon fill="none" stroke="black" points="120.5,-529.5 120.5,-548.5 249.5,-548.5 249.5,-529.5 120.5,-529.5"/>
<text text-anchor="middle" x="185" y="-536.5" font-family="Helvetica,sans-Serif" font-size="10.00">modules.cli.setup.cliSetup</text>
</a>
</g>
</g>
<!-- Node0&#45;&gt;Node4 -->
<g id="edge4" class="edge">
<title>Node0&#45;&gt;Node4</title>
<path fill="none" stroke="midnightblue" d="M39.79,-399.68C47.45,-430.02 66.43,-487.97 105,-519 110.4,-523.35 116.63,-526.76 123.17,-529.44"/>
<polygon fill="midnightblue" stroke="midnightblue" points="43.17,-398.77 37.46,-389.85 36.36,-400.39 43.17,-398.77"/>
</g>
<!-- Node5 -->
<g id="node6" class="node">
<title>Node5</title>
<g id="a_node6"><a xlink:href="dd/d03/classmodules_1_1code__preview_1_1_code_preview.html" target="_top" xlink:title=" ">
<polygon fill="none" stroke="black" points="115,-705 115,-735 255,-735 255,-705 115,-705"/>
<text text-anchor="start" x="123" y="-723" font-family="Helvetica,sans-Serif" font-size="10.00">modules.code_preview.Code</text>
<text text-anchor="middle" x="185" y="-712" font-family="Helvetica,sans-Serif" font-size="10.00">Preview</text>
</a>
</g>
</g>
<!-- Node0&#45;&gt;Node5 -->
<g id="edge5" class="edge">
<title>Node0&#45;&gt;Node5</title>
<path fill="none" stroke="midnightblue" d="M37.3,-399.75C43.32,-461.74 64.71,-650.94 105,-695 108.49,-698.82 112.57,-702.06 116.99,-704.81"/>
<polygon fill="midnightblue" stroke="midnightblue" points="40.78,-399.35 36.35,-389.72 33.81,-400 40.78,-399.35"/>
</g>
<!-- Node9 -->
<g id="node7" class="node">
<title>Node9</title>
<g id="a_node7"><a xlink:href="dd/d7c/classmodules_1_1command__parameters_1_1_command_parameters_methods.html" target="_top" xlink:title=" ">
<polygon fill="none" stroke="black" points="107.5,-480 107.5,-510 262.5,-510 262.5,-480 107.5,-480"/>
<text text-anchor="start" x="115.5" y="-498" font-family="Helvetica,sans-Serif" font-size="10.00">modules.command_parameters.</text>
<text text-anchor="middle" x="185" y="-487" font-family="Helvetica,sans-Serif" font-size="10.00">CommandParametersMethods</text>
</a>
</g>
</g>
<!-- Node0&#45;&gt;Node9 -->
<g id="edge6" class="edge">
<title>Node0&#45;&gt;Node9</title>
<path fill="none" stroke="midnightblue" d="M45.3,-398.64C56.92,-419.01 78.16,-451.25 105,-470 110.54,-473.87 116.71,-477.17 123.09,-479.96"/>
<polygon fill="midnightblue" stroke="midnightblue" points="48.27,-396.78 40.38,-389.7 42.14,-400.15 48.27,-396.78"/>
</g>
<!-- Node10 -->
<g id="node8" class="node">
<title>Node10</title>
<g id="a_node8"><a xlink:href="d1/d1a/classmodules_1_1helper__methods_1_1_helper_methods.html" target="_top" xlink:title=" ">
<polygon fill="none" stroke="black" points="107.5,-431 107.5,-461 262.5,-461 262.5,-431 107.5,-431"/>
<text text-anchor="start" x="115.5" y="-449" font-family="Helvetica,sans-Serif" font-size="10.00">modules.helper_methods.Helper</text>
<text text-anchor="middle" x="185" y="-438" font-family="Helvetica,sans-Serif" font-size="10.00">Methods</text>
</a>
</g>
</g>
<!-- Node0&#45;&gt;Node10 -->
<g id="edge7" class="edge">
<title>Node0&#45;&gt;Node10</title>
<path fill="none" stroke="midnightblue" d="M58.1,-395.11C71.37,-403.51 88.68,-413.72 105,-421 113.14,-424.63 121.98,-427.98 130.69,-430.95"/>
<polygon fill="midnightblue" stroke="midnightblue" points="59.93,-392.12 49.63,-389.63 56.13,-398 59.93,-392.12"/>
</g>
<!-- Node11 -->
<g id="node9" class="node">
<title>Node11</title>
<g id="a_node9"><a xlink:href="d3/dd3/classmodules_1_1logging__setup_1_1_logger.html" target="_top" xlink:title=" ">
<polygon fill="none" stroke="black" points="111,-392.5 111,-411.5 259,-411.5 259,-392.5 111,-392.5"/>
<text text-anchor="middle" x="185" y="-399.5" font-family="Helvetica,sans-Serif" font-size="10.00">modules.logging_setup.Logger</text>
</a>
</g>
</g>
<!-- Node0&#45;&gt;Node11 -->
<g id="edge8" class="edge">
<title>Node0&#45;&gt;Node11</title>
<path fill="none" stroke="midnightblue" d="M66.22,-384.55C81.76,-386.85 101.23,-389.74 119.84,-392.49"/>
<polygon fill="midnightblue" stroke="midnightblue" points="66.55,-381.06 56.15,-383.06 65.53,-387.99 66.55,-381.06"/>
</g>
<!-- Node12 -->
<g id="node10" class="node">
<title>Node12</title>
<g id="a_node10"><a xlink:href="d9/d34/classmodules_1_1mainwindow__actions_1_1_main_window_actions.html" target="_top" xlink:title=" ">
<polygon fill="none" stroke="black" points="113,-343 113,-373 257,-373 257,-343 113,-343"/>
<text text-anchor="start" x="121" y="-361" font-family="Helvetica,sans-Serif" font-size="10.00">modules.mainwindow</text>
<text text-anchor="middle" x="185" y="-350" font-family="Helvetica,sans-Serif" font-size="10.00">_actions.MainWindowActions</text>
</a>
</g>
</g>
<!-- Node0&#45;&gt;Node12 -->
<g id="edge9" class="edge">
<title>Node0&#45;&gt;Node12</title>
<path fill="none" stroke="midnightblue" d="M66.34,-375.43C79.93,-373.42 96.5,-370.96 112.87,-368.54"/>
<polygon fill="midnightblue" stroke="midnightblue" points="65.53,-372.01 56.15,-376.94 66.55,-378.94 65.53,-372.01"/>
</g>
<!-- Node13 -->
<g id="node11" class="node">
<title>Node13</title>
<g id="a_node11"><a xlink:href="d1/db3/classmodules_1_1mainwindow__buttons_1_1_main_window_buttons.html" target="_top" xlink:title=" ">
<polygon fill="none" stroke="black" points="112,-294 112,-324 258,-324 258,-294 112,-294"/>
<text text-anchor="start" x="120" y="-312" font-family="Helvetica,sans-Serif" font-size="10.00">modules.mainwindow</text>
<text text-anchor="middle" x="185" y="-301" font-family="Helvetica,sans-Serif" font-size="10.00">_buttons.MainWindowButtons</text>
</a>
</g>
</g>
<!-- Node0&#45;&gt;Node13 -->
<g id="edge10" class="edge">
<title>Node0&#45;&gt;Node13</title>
<path fill="none" stroke="midnightblue" d="M55.64,-363.99C69.02,-353.98 87.31,-341.43 105,-333 111.99,-329.67 119.54,-326.68 127.11,-324.03"/>
<polygon fill="midnightblue" stroke="midnightblue" points="53.43,-361.28 47.62,-370.13 57.69,-366.83 53.43,-361.28"/>
</g>
<!-- Node14 -->
<g id="node12" class="node">
<title>Node14</title>
<g id="a_node12"><a xlink:href="da/df2/classmodules_1_1parse__config_1_1_parse_input_handler_config.html" target="_top" xlink:title=" ">
<polygon fill="none" stroke="black" points="116,-245 116,-275 254,-275 254,-245 116,-245"/>
<text text-anchor="start" x="124" y="-263" font-family="Helvetica,sans-Serif" font-size="10.00">modules.parse_config.Parse</text>
<text text-anchor="middle" x="185" y="-252" font-family="Helvetica,sans-Serif" font-size="10.00">InputHandlerConfig</text>
</a>
</g>
</g>
<!-- Node0&#45;&gt;Node14 -->
<g id="edge11" class="edge">
<title>Node0&#45;&gt;Node14</title>
<path fill="none" stroke="midnightblue" d="M44.45,-361.01C55.64,-339.29 76.8,-304.11 105,-284 109.78,-280.59 115.06,-277.65 120.55,-275.13"/>
<polygon fill="midnightblue" stroke="midnightblue" points="41.19,-359.7 39.89,-370.21 47.47,-362.8 41.19,-359.7"/>
</g>
<!-- Node15 -->
<g id="node13" class="node">
<title>Node15</title>
<g id="a_node13"><a xlink:href="d2/db5/classmodules_1_1settings__tree_1_1_settings_tree_methods.html" target="_top" xlink:title=" ">
<polygon fill="none" stroke="black" points="110,-196 110,-226 260,-226 260,-196 110,-196"/>
<text text-anchor="start" x="118" y="-214" font-family="Helvetica,sans-Serif" font-size="10.00">modules.settings_tree.Settings</text>
<text text-anchor="middle" x="185" y="-203" font-family="Helvetica,sans-Serif" font-size="10.00">TreeMethods</text>
</a>
</g>
</g>
<!-- Node0&#45;&gt;Node15 -->
<g id="edge12" class="edge">
<title>Node0&#45;&gt;Node15</title>
<path fill="none" stroke="midnightblue" d="M39.61,-360.17C47.1,-328.96 65.95,-268.52 105,-235 109.02,-231.55 113.54,-228.59 118.31,-226.06"/>
<polygon fill="midnightblue" stroke="midnightblue" points="36.12,-359.71 37.34,-370.23 42.95,-361.24 36.12,-359.71"/>
</g>
<!-- Node16 -->
<g id="node14" class="node">
<title>Node16</title>
<g id="a_node14"><a xlink:href="de/d9f/classmodules_1_1settings__tree__table__methods_1_1_settings_tree_table_methods.html" target="_top" xlink:title=" ">
<polygon fill="none" stroke="black" points="113.5,-136.5 113.5,-177.5 256.5,-177.5 256.5,-136.5 113.5,-136.5"/>
<text text-anchor="start" x="121.5" y="-165.5" font-family="Helvetica,sans-Serif" font-size="10.00">modules.settings_tree</text>
<text text-anchor="start" x="121.5" y="-154.5" font-family="Helvetica,sans-Serif" font-size="10.00">_table_methods.SettingsTree</text>
<text text-anchor="middle" x="185" y="-143.5" font-family="Helvetica,sans-Serif" font-size="10.00">TableMethods</text>
</a>
</g>
</g>
<!-- Node0&#45;&gt;Node16 -->
<g id="edge13" class="edge">
<title>Node0&#45;&gt;Node16</title>
<path fill="none" stroke="midnightblue" d="M37.16,-360.01C41.42,-321.22 56.13,-235.25 105,-186 108.09,-182.89 111.54,-180.11 115.22,-177.62"/>
<polygon fill="midnightblue" stroke="midnightblue" points="33.63,-360.15 36.14,-370.44 40.59,-360.82 33.63,-360.15"/>
</g>
<!-- Node17 -->
<g id="node15" class="node">
<title>Node17</title>
<g id="a_node15"><a xlink:href="df/def/classuic_1_1command_parameters_dialog_1_1_ui__command_parameters_dialog.html" target="_top" xlink:title=" ">
<polygon fill="none" stroke="black" points="108,-88 108,-118 262,-118 262,-88 108,-88"/>
<text text-anchor="start" x="116" y="-106" font-family="Helvetica,sans-Serif" font-size="10.00">uic.commandParametersDialog.</text>
<text text-anchor="middle" x="185" y="-95" font-family="Helvetica,sans-Serif" font-size="10.00">Ui_commandParametersDialog</text>
</a>
</g>
</g>
<!-- Node0&#45;&gt;Node17 -->
<g id="edge14" class="edge">
<title>Node0&#45;&gt;Node17</title>
<path fill="none" stroke="midnightblue" d="M34.91,-360.32C34.6,-313.26 40.57,-193.18 105,-127 108.3,-123.61 112.06,-120.7 116.11,-118.19"/>
<polygon fill="midnightblue" stroke="midnightblue" points="31.41,-360.47 35.08,-370.41 38.41,-360.35 31.41,-360.47"/>
</g>
<!-- Node18 -->
<g id="node16" class="node">
<title>Node18</title>
<g id="a_node16"><a xlink:href="d3/d1e/classuic_1_1log_history_dialog_1_1_ui__log_history_dialog.html" target="_top" xlink:title=" ">
<polygon fill="none" stroke="black" points="128,-39 128,-69 242,-69 242,-39 128,-39"/>
<text text-anchor="start" x="136" y="-57" font-family="Helvetica,sans-Serif" font-size="10.00">uic.logHistoryDialog.Ui</text>
<text text-anchor="middle" x="185" y="-46" font-family="Helvetica,sans-Serif" font-size="10.00">_logHistoryDialog</text>
</a>
</g>
</g>
<!-- Node0&#45;&gt;Node18 -->
<g id="edge15" class="edge">
<title>Node0&#45;&gt;Node18</title>
<path fill="none" stroke="midnightblue" d="M37.48,-360.27C43.89,-299.98 66.03,-119.75 105,-78 111.26,-71.29 119.33,-66.44 127.91,-62.93"/>
<polygon fill="midnightblue" stroke="midnightblue" points="33.98,-360.05 36.43,-370.36 40.94,-360.77 33.98,-360.05"/>
</g>
<!-- Node19 -->
<g id="node17" class="node">
<title>Node19</title>
<g id="a_node17"><a xlink:href="d1/d3a/classuic_1_1main_window_1_1_ui___main_window.html" target="_top" xlink:title=" ">
<polygon fill="none" stroke="black" points="105,-0.5 105,-19.5 265,-19.5 265,-0.5 105,-0.5"/>
<text text-anchor="middle" x="185" y="-7.5" font-family="Helvetica,sans-Serif" font-size="10.00">uic.mainWindow.Ui_MainWindow</text>
</a>
</g>
</g>
<!-- Node0&#45;&gt;Node19 -->
<g id="edge16" class="edge">
<title>Node0&#45;&gt;Node19</title>
<path fill="none" stroke="midnightblue" d="M36.68,-360.1C41.07,-293.12 58.63,-77.29 105,-29 108.62,-25.24 112.84,-22.16 117.41,-19.66"/>
<polygon fill="midnightblue" stroke="midnightblue" points="33.16,-360.29 36.03,-370.49 40.15,-360.73 33.16,-360.29"/>
</g>
<!-- Node6 -->
<g id="node18" class="node">
<title>Node6</title>
<g id="a_node18"><a xlink:title=" ">
<polygon fill="none" stroke="#bfbfbf" points="8,-748.5 8,-767.5 61,-767.5 61,-748.5 8,-748.5"/>
<text text-anchor="middle" x="34.5" y="-755.5" font-family="Helvetica,sans-Serif" font-size="10.00">cliConfig</text>
</a>
</g>
</g>
<!-- Node6&#45;&gt;Node5 -->
<g id="edge17" class="edge">
<title>Node6&#45;&gt;Node5</title>
<path fill="none" stroke="midnightblue" d="M71.14,-748.88C87.34,-744.73 106.95,-739.72 125.24,-735.04"/>
<polygon fill="midnightblue" stroke="midnightblue" points="69.85,-745.6 61.03,-751.47 71.58,-752.38 69.85,-745.6"/>
</g>
<!-- Node7 -->
<g id="node19" class="node">
<title>Node7</title>
<g id="a_node19"><a xlink:title=" ">
<polygon fill="none" stroke="#bfbfbf" points="0,-710.5 0,-729.5 69,-729.5 69,-710.5 0,-710.5"/>
<text text-anchor="middle" x="34.5" y="-717.5" font-family="Helvetica,sans-Serif" font-size="10.00">cliFunctions</text>
</a>
</g>
</g>
<!-- Node7&#45;&gt;Node5 -->
<g id="edge18" class="edge">
<title>Node7&#45;&gt;Node5</title>
<path fill="none" stroke="midnightblue" d="M79.5,-720C90.64,-720 102.88,-720 114.94,-720"/>
<polygon fill="midnightblue" stroke="midnightblue" points="79.2,-716.5 69.2,-720 79.2,-723.5 79.2,-716.5"/>
</g>
<!-- Node8 -->
<g id="node20" class="node">
<title>Node8</title>
<g id="a_node20"><a xlink:title=" ">
<polygon fill="none" stroke="#bfbfbf" points="8.5,-672.5 8.5,-691.5 60.5,-691.5 60.5,-672.5 8.5,-672.5"/>
<text text-anchor="middle" x="34.5" y="-679.5" font-family="Helvetica,sans-Serif" font-size="10.00">cliSetup</text>
</a>
</g>
</g>
<!-- Node8&#45;&gt;Node5 -->
<g id="edge19" class="edge">
<title>Node8&#45;&gt;Node5</title>
<path fill="none" stroke="midnightblue" d="M70.84,-691.04C87.12,-695.21 106.88,-700.27 125.31,-704.98"/>
<polygon fill="midnightblue" stroke="midnightblue" points="71.25,-687.53 60.69,-688.45 69.51,-694.32 71.25,-687.53"/>
</g>
</g>
</svg>
