<?xml version="1.0" encoding="UTF-8" standalone="no"?>
<!DOCTYPE svg PUBLIC "-//W3C//DTD SVG 1.1//EN"
 "http://www.w3.org/Graphics/SVG/1.1/DTD/svg11.dtd">
<!-- Generated by graphviz version 5.0.0 (20220708.1001)
 -->
<!-- Title: Graphical Class Hierarchy Pages: 1 -->
<svg width="288pt" height="942pt"
 viewBox="0.00 0.00 288.00 942.00" xmlns="http://www.w3.org/2000/svg" xmlns:xlink="http://www.w3.org/1999/xlink">
<g id="graph0" class="graph" transform="scale(1 1) rotate(0) translate(4 938)">
<title>Graphical Class Hierarchy</title>
<!-- Node0 -->
<g id="node1" class="node">
<title>Node0</title>
<g id="a_node1"><a xlink:title=" ">
<polygon fill="none" stroke="#bfbfbf" points="17,-436.5 17,-455.5 60,-455.5 60,-436.5 17,-436.5"/>
<text text-anchor="middle" x="38.5" y="-443.5" font-family="Helvetica,sans-Serif" font-size="10.00">object</text>
</a>
</g>
</g>
<!-- Node1 -->
<g id="node2" class="node">
<title>Node1</title>
<g id="a_node2"><a xlink:href="d5/d68/classmodules_1_1cli_1_1config_1_1cli_config.html" target="_top" xlink:title=" ">
<polygon fill="none" stroke="black" points="130.5,-813.5 130.5,-832.5 262.5,-832.5 262.5,-813.5 130.5,-813.5"/>
<text text-anchor="middle" x="196.5" y="-820.5" font-family="Helvetica,sans-Serif" font-size="10.00">modules.cli.config.cliConfig</text>
</a>
</g>
</g>
<!-- Node0&#45;&gt;Node1 -->
<g id="edge1" class="edge">
<title>Node0&#45;&gt;Node1</title>
<path fill="none" stroke="midnightblue" d="M40.84,-465.82C45.84,-533.48 65.52,-753.84 113,-803 117.91,-808.09 123.89,-811.97 130.35,-814.92"/>
<polygon fill="midnightblue" stroke="midnightblue" points="44.32,-465.4 40.12,-455.67 37.34,-465.9 44.32,-465.4"/>
</g>
<!-- Node2 -->
<g id="node3" class="node">
<title>Node2</title>
<g id="a_node3"><a xlink:href="dc/d45/classmodules_1_1cli_1_1filestrings_1_1_c_l_ifilestrings.html" target="_top" xlink:title="file construction strings">
<polygon fill="none" stroke="black" points="141,-764 141,-794 252,-794 252,-764 141,-764"/>
<text text-anchor="start" x="149" y="-782" font-family="Helvetica,sans-Serif" font-size="10.00">modules.cli.filestrings.</text>
<text text-anchor="middle" x="196.5" y="-771" font-family="Helvetica,sans-Serif" font-size="10.00">CLIfilestrings</text>
</a>
</g>
</g>
<!-- Node0&#45;&gt;Node2 -->
<g id="edge2" class="edge">
<title>Node0&#45;&gt;Node2</title>
<path fill="none" stroke="midnightblue" d="M41.65,-465.73C48.68,-526.83 72.9,-711.42 113,-754 120.49,-761.95 130.42,-767.4 140.78,-771.13"/>
<polygon fill="midnightblue" stroke="midnightblue" points="45.1,-465.07 40.5,-455.52 38.14,-465.85 45.1,-465.07"/>
</g>
<!-- Node3 -->
<g id="node4" class="node">
<title>Node3</title>
<g id="a_node4"><a xlink:href="dd/d75/classmodules_1_1cli_1_1functions_1_1cli_functions.html" target="_top" xlink:title=" ">
<polygon fill="none" stroke="black" points="137,-715 137,-745 256,-745 256,-715 137,-715"/>
<text text-anchor="start" x="145" y="-733" font-family="Helvetica,sans-Serif" font-size="10.00">modules.cli.functions.cli</text>
<text text-anchor="middle" x="196.5" y="-722" font-family="Helvetica,sans-Serif" font-size="10.00">Functions</text>
</a>
</g>
</g>
<!-- Node0&#45;&gt;Node3 -->
<g id="edge3" class="edge">
<title>Node0&#45;&gt;Node3</title>
<path fill="none" stroke="midnightblue" d="M39.1,-465.83C39.23,-513.82 46.42,-637.23 113,-705 119.61,-711.73 127.96,-716.66 136.8,-720.27"/>
<polygon fill="midnightblue" stroke="midnightblue" points="42.6,-465.6 39.18,-455.57 35.6,-465.55 42.6,-465.6"/>
</g>
<!-- Node4 -->
<g id="node5" class="node">
<title>Node4</title>
<g id="a_node5"><a xlink:href="d5/dc1/classmodules_1_1cli_1_1parameters_1_1cli_parameters.html" target="_top" xlink:title=" ">
<polygon fill="none" stroke="black" points="132.5,-666 132.5,-696 260.5,-696 260.5,-666 132.5,-666"/>
<text text-anchor="start" x="140.5" y="-684" font-family="Helvetica,sans-Serif" font-size="10.00">modules.cli.parameters.cli</text>
<text text-anchor="middle" x="196.5" y="-673" font-family="Helvetica,sans-Serif" font-size="10.00">Parameters</text>
</a>
</g>
</g>
<!-- Node0&#45;&gt;Node4 -->
<g id="edge4" class="edge">
<title>Node0&#45;&gt;Node4</title>
<path fill="none" stroke="midnightblue" d="M40.64,-465.66C44.09,-506.95 57.94,-603.23 113,-656 118.51,-661.28 125.1,-665.45 132.12,-668.74"/>
<polygon fill="midnightblue" stroke="midnightblue" points="44.12,-465.27 39.91,-455.55 37.13,-465.78 44.12,-465.27"/>
</g>
<!-- Node5 -->
<g id="node6" class="node">
<title>Node5</title>
<g id="a_node6"><a xlink:href="dc/d95/classmodules_1_1cli_1_1setup_1_1cli_setup.html" target="_top" xlink:title=" ">
<polygon fill="none" stroke="black" points="132,-627.5 132,-646.5 261,-646.5 261,-627.5 132,-627.5"/>
<text text-anchor="middle" x="196.5" y="-634.5" font-family="Helvetica,sans-Serif" font-size="10.00">modules.cli.setup.cliSetup</text>
</a>
</g>
</g>
<!-- Node0&#45;&gt;Node5 -->
<g id="edge5" class="edge">
<title>Node0&#45;&gt;Node5</title>
<path fill="none" stroke="midnightblue" d="M42.16,-465.61C48.09,-501.35 65.77,-577.11 113,-617 118.52,-621.66 124.94,-625.27 131.73,-628.06"/>
<polygon fill="midnightblue" stroke="midnightblue" points="45.59,-464.86 40.63,-455.5 38.67,-465.91 45.59,-464.86"/>
</g>
<!-- Node6 -->
<g id="node7" class="node">
<title>Node6</title>
<g id="a_node7"><a xlink:href="dd/d03/classmodules_1_1code__preview_1_1_code_preview.html" target="_top" xlink:title=" ">
<polygon fill="none" stroke="black" points="126.5,-852 126.5,-882 266.5,-882 266.5,-852 126.5,-852"/>
<text text-anchor="start" x="134.5" y="-870" font-family="Helvetica,sans-Serif" font-size="10.00">modules.code_preview.Code</text>
<text text-anchor="middle" x="196.5" y="-859" font-family="Helvetica,sans-Serif" font-size="10.00">Preview</text>
</a>
</g>
</g>
<!-- Node0&#45;&gt;Node6 -->
<g id="edge6" class="edge">
<title>Node0&#45;&gt;Node6</title>
<path fill="none" stroke="midnightblue" d="M40.53,-465.96C44.63,-538.27 62.2,-785.24 113,-842 116.79,-846.24 121.28,-849.77 126.16,-852.71"/>
<polygon fill="midnightblue" stroke="midnightblue" points="44,-465.37 39.96,-455.57 37.01,-465.75 44,-465.37"/>
</g>
<!-- Node11 -->
<g id="node8" class="node">
<title>Node11</title>
<g id="a_node8"><a xlink:href="dd/d7c/classmodules_1_1command__parameters_1_1_command_parameters_methods.html" target="_top" xlink:title=" ">
<polygon fill="none" stroke="black" points="119,-578 119,-608 274,-608 274,-578 119,-578"/>
<text text-anchor="start" x="127" y="-596" font-family="Helvetica,sans-Serif" font-size="10.00">modules.command_parameters.</text>
<text text-anchor="middle" x="196.5" y="-585" font-family="Helvetica,sans-Serif" font-size="10.00">CommandParametersMethods</text>
</a>
</g>
</g>
<!-- Node0&#45;&gt;Node11 -->
<g id="edge7" class="edge">
<title>Node0&#45;&gt;Node11</title>
<path fill="none" stroke="midnightblue" d="M45.93,-465C56,-491.88 78.03,-540.78 113,-568 117.96,-571.86 123.51,-575.13 129.33,-577.89"/>
<polygon fill="midnightblue" stroke="midnightblue" points="49.22,-463.79 42.55,-455.56 42.63,-466.15 49.22,-463.79"/>
</g>
<!-- Node12 -->
<g id="node9" class="node">
<title>Node12</title>
<g id="a_node9"><a xlink:href="de/d14/classmodules_1_1command__tree_1_1_command_tree_methods.html" target="_top" xlink:title=" ">
<polygon fill="none" stroke="black" points="113,-529 113,-559 280,-559 280,-529 113,-529"/>
<text text-anchor="start" x="121" y="-547" font-family="Helvetica,sans-Serif" font-size="10.00">modules.command_tree.Command</text>
<text text-anchor="middle" x="196.5" y="-536" font-family="Helvetica,sans-Serif" font-size="10.00">TreeMethods</text>
</a>
</g>
</g>
<!-- Node0&#45;&gt;Node12 -->
<g id="edge8" class="edge">
<title>Node0&#45;&gt;Node12</title>
<path fill="none" stroke="midnightblue" d="M53.11,-463.84C66.62,-480.37 88.76,-504.53 113,-519 119.43,-522.84 126.49,-526.13 133.69,-528.94"/>
<polygon fill="midnightblue" stroke="midnightblue" points="55.49,-461.2 46.54,-455.54 50.01,-465.55 55.49,-461.2"/>
</g>
<!-- Node13 -->
<g id="node10" class="node">
<title>Node13</title>
<g id="a_node10"><a xlink:href="d7/d8c/classmodules_1_1data__models_1_1data_models.html" target="_top" xlink:title=" ">
<polygon fill="none" stroke="black" points="130.5,-480 130.5,-510 262.5,-510 262.5,-480 130.5,-480"/>
<text text-anchor="start" x="138.5" y="-498" font-family="Helvetica,sans-Serif" font-size="10.00">modules.data_models.data</text>
<text text-anchor="middle" x="196.5" y="-487" font-family="Helvetica,sans-Serif" font-size="10.00">Models</text>
</a>
</g>
</g>
<!-- Node0&#45;&gt;Node13 -->
<g id="edge9" class="edge">
<title>Node0&#45;&gt;Node13</title>
<path fill="none" stroke="midnightblue" d="M69.65,-456.01C82.92,-460.37 98.72,-465.5 113,-470 123.42,-473.28 134.61,-476.72 145.28,-479.97"/>
<polygon fill="midnightblue" stroke="midnightblue" points="70.65,-452.65 60.06,-452.84 68.46,-459.3 70.65,-452.65"/>
</g>
<!-- Node14 -->
<g id="node11" class="node">
<title>Node14</title>
<g id="a_node11"><a xlink:href="d1/d1a/classmodules_1_1helper__methods_1_1_helper_methods.html" target="_top" xlink:title=" ">
<polygon fill="none" stroke="black" points="119,-431 119,-461 274,-461 274,-431 119,-431"/>
<text text-anchor="start" x="127" y="-449" font-family="Helvetica,sans-Serif" font-size="10.00">modules.helper_methods.Helper</text>
<text text-anchor="middle" x="196.5" y="-438" font-family="Helvetica,sans-Serif" font-size="10.00">Methods</text>
</a>
</g>
</g>
<!-- Node0&#45;&gt;Node14 -->
<g id="edge10" class="edge">
<title>Node0&#45;&gt;Node14</title>
<path fill="none" stroke="midnightblue" d="M70.26,-446C84.3,-446 101.62,-446 118.85,-446"/>
<polygon fill="midnightblue" stroke="midnightblue" points="70.22,-442.5 60.22,-446 70.22,-449.5 70.22,-442.5"/>
</g>
<!-- Node15 -->
<g id="node12" class="node">
<title>Node15</title>
<g id="a_node12"><a xlink:href="d3/dd3/classmodules_1_1logging__setup_1_1_logger.html" target="_top" xlink:title="logging api">
<polygon fill="none" stroke="black" points="122.5,-392.5 122.5,-411.5 270.5,-411.5 270.5,-392.5 122.5,-392.5"/>
<text text-anchor="middle" x="196.5" y="-399.5" font-family="Helvetica,sans-Serif" font-size="10.00">modules.logging_setup.Logger</text>
</a>
</g>
</g>
<!-- Node0&#45;&gt;Node15 -->
<g id="edge11" class="edge">
<title>Node0&#45;&gt;Node15</title>
<path fill="none" stroke="midnightblue" d="M69.76,-434.93C82.95,-430.31 98.64,-425.08 113,-421 125.02,-417.58 138.15,-414.34 150.33,-411.53"/>
<polygon fill="midnightblue" stroke="midnightblue" points="68.48,-431.67 60.23,-438.32 70.83,-438.27 68.48,-431.67"/>
</g>
<!-- Node16 -->
<g id="node13" class="node">
<title>Node16</title>
<g id="a_node13"><a xlink:href="d9/d34/classmodules_1_1mainwindow__actions_1_1_main_window_actions.html" target="_top" xlink:title=" ">
<polygon fill="none" stroke="black" points="124.5,-343 124.5,-373 268.5,-373 268.5,-343 124.5,-343"/>
<text text-anchor="start" x="132.5" y="-361" font-family="Helvetica,sans-Serif" font-size="10.00">modules.mainwindow</text>
<text text-anchor="middle" x="196.5" y="-350" font-family="Helvetica,sans-Serif" font-size="10.00">_actions.MainWindowActions</text>
</a>
</g>
</g>
<!-- Node0&#45;&gt;Node16 -->
<g id="edge12" class="edge">
<title>Node0&#45;&gt;Node16</title>
<path fill="none" stroke="midnightblue" d="M55.37,-428.91C69.33,-414.79 90.82,-395.16 113,-383 119.96,-379.19 127.57,-375.88 135.27,-373.04"/>
<polygon fill="midnightblue" stroke="midnightblue" points="52.49,-426.85 48.07,-436.48 57.53,-431.71 52.49,-426.85"/>
</g>
<!-- Node17 -->
<g id="node14" class="node">
<title>Node17</title>
<g id="a_node14"><a xlink:href="d1/db3/classmodules_1_1mainwindow__buttons_1_1_main_window_buttons.html" target="_top" xlink:title=" ">
<polygon fill="none" stroke="black" points="123.5,-294 123.5,-324 269.5,-324 269.5,-294 123.5,-294"/>
<text text-anchor="start" x="131.5" y="-312" font-family="Helvetica,sans-Serif" font-size="10.00">modules.mainwindow</text>
<text text-anchor="middle" x="196.5" y="-301" font-family="Helvetica,sans-Serif" font-size="10.00">_buttons.MainWindowButtons</text>
</a>
</g>
</g>
<!-- Node0&#45;&gt;Node17 -->
<g id="edge13" class="edge">
<title>Node0&#45;&gt;Node17</title>
<path fill="none" stroke="midnightblue" d="M46.88,-426.93C57.62,-401.69 79.95,-357.53 113,-333 117.67,-329.53 122.83,-326.56 128.23,-324.02"/>
<polygon fill="midnightblue" stroke="midnightblue" points="43.52,-425.89 42.99,-436.48 50.01,-428.54 43.52,-425.89"/>
</g>
<!-- Node18 -->
<g id="node15" class="node">
<title>Node18</title>
<g id="a_node15"><a xlink:href="da/df2/classmodules_1_1parse__config_1_1_parse_input_handler_config.html" target="_top" xlink:title=" ">
<polygon fill="none" stroke="black" points="127.5,-245 127.5,-275 265.5,-275 265.5,-245 127.5,-245"/>
<text text-anchor="start" x="135.5" y="-263" font-family="Helvetica,sans-Serif" font-size="10.00">modules.parse_config.Parse</text>
<text text-anchor="middle" x="196.5" y="-252" font-family="Helvetica,sans-Serif" font-size="10.00">InputHandlerConfig</text>
</a>
</g>
</g>
<!-- Node0&#45;&gt;Node18 -->
<g id="edge14" class="edge">
<title>Node0&#45;&gt;Node18</title>
<path fill="none" stroke="midnightblue" d="M42.94,-426.2C49.91,-392.06 68.96,-322.16 113,-284 117.28,-280.29 122.11,-277.15 127.23,-274.5"/>
<polygon fill="midnightblue" stroke="midnightblue" points="39.45,-425.82 41.02,-436.3 46.32,-427.13 39.45,-425.82"/>
</g>
<!-- Node19 -->
<g id="node16" class="node">
<title>Node19</title>
<g id="a_node16"><a xlink:href="d2/db5/classmodules_1_1settings__tree_1_1_settings_tree_methods.html" target="_top" xlink:title=" ">
<polygon fill="none" stroke="black" points="121.5,-196 121.5,-226 271.5,-226 271.5,-196 121.5,-196"/>
<text text-anchor="start" x="129.5" y="-214" font-family="Helvetica,sans-Serif" font-size="10.00">modules.settings_tree.Settings</text>
<text text-anchor="middle" x="196.5" y="-203" font-family="Helvetica,sans-Serif" font-size="10.00">TreeMethods</text>
</a>
</g>
</g>
<!-- Node0&#45;&gt;Node19 -->
<g id="edge15" class="edge">
<title>Node0&#45;&gt;Node19</title>
<path fill="none" stroke="midnightblue" d="M40.56,-426.2C43.87,-384.63 57.45,-287.73 113,-235 116.57,-231.61 120.59,-228.7 124.89,-226.19"/>
<polygon fill="midnightblue" stroke="midnightblue" points="37.05,-426.17 39.87,-436.38 44.04,-426.64 37.05,-426.17"/>
</g>
<!-- Node20 -->
<g id="node17" class="node">
<title>Node20</title>
<g id="a_node17"><a xlink:href="de/d9f/classmodules_1_1settings__tree__table__methods_1_1_settings_tree_table_methods.html" target="_top" xlink:title=" ">
<polygon fill="none" stroke="black" points="125,-136.5 125,-177.5 268,-177.5 268,-136.5 125,-136.5"/>
<text text-anchor="start" x="133" y="-165.5" font-family="Helvetica,sans-Serif" font-size="10.00">modules.settings_tree</text>
<text text-anchor="start" x="133" y="-154.5" font-family="Helvetica,sans-Serif" font-size="10.00">_table_methods.SettingsTree</text>
<text text-anchor="middle" x="196.5" y="-143.5" font-family="Helvetica,sans-Serif" font-size="10.00">TableMethods</text>
</a>
</g>
</g>
<!-- Node0&#45;&gt;Node20 -->
<g id="edge16" class="edge">
<title>Node0&#45;&gt;Node20</title>
<path fill="none" stroke="midnightblue" d="M39.26,-426.28C39.77,-378.52 47.73,-255.49 113,-186 116.53,-182.24 120.58,-178.96 124.95,-176.11"/>
<polygon fill="midnightblue" stroke="midnightblue" points="35.76,-426.48 39.26,-436.48 42.76,-426.48 35.76,-426.48"/>
</g>
<!-- Node21 -->
<g id="node18" class="node">
<title>Node21</title>
<g id="a_node18"><a xlink:href="df/def/classuic_1_1command_parameters_dialog_1_1_ui__command_parameters_dialog.html" target="_top" xlink:title=" ">
<polygon fill="none" stroke="black" points="119.5,-88 119.5,-118 273.5,-118 273.5,-88 119.5,-88"/>
<text text-anchor="start" x="127.5" y="-106" font-family="Helvetica,sans-Serif" font-size="10.00">uic.commandParametersDialog.</text>
<text text-anchor="middle" x="196.5" y="-95" font-family="Helvetica,sans-Serif" font-size="10.00">Ui_commandParametersDialog</text>
</a>
</g>
</g>
<!-- Node0&#45;&gt;Node21 -->
<g id="edge17" class="edge">
<title>Node0&#45;&gt;Node21</title>
<path fill="none" stroke="midnightblue" d="M41.44,-426.36C48,-363.87 71.29,-171.14 113,-127 116.18,-123.64 119.79,-120.74 123.7,-118.24"/>
<polygon fill="midnightblue" stroke="midnightblue" points="37.95,-426.15 40.41,-436.45 44.91,-426.86 37.95,-426.15"/>
</g>
<!-- Node22 -->
<g id="node19" class="node">
<title>Node22</title>
<g id="a_node19"><a xlink:href="d3/d1e/classuic_1_1log_history_dialog_1_1_ui__log_history_dialog.html" target="_top" xlink:title=" ">
<polygon fill="none" stroke="black" points="139.5,-39 139.5,-69 253.5,-69 253.5,-39 139.5,-39"/>
<text text-anchor="start" x="147.5" y="-57" font-family="Helvetica,sans-Serif" font-size="10.00">uic.logHistoryDialog.Ui</text>
<text text-anchor="middle" x="196.5" y="-46" font-family="Helvetica,sans-Serif" font-size="10.00">_logHistoryDialog</text>
</a>
</g>
</g>
<!-- Node0&#45;&gt;Node22 -->
<g id="edge18" class="edge">
<title>Node0&#45;&gt;Node22</title>
<path fill="none" stroke="midnightblue" d="M40.81,-426.11C45.72,-357.19 65.32,-129.96 113,-78 120.06,-70.31 129.43,-65.03 139.31,-61.41"/>
<polygon fill="midnightblue" stroke="midnightblue" points="37.29,-426.2 40.1,-436.42 44.27,-426.68 37.29,-426.2"/>
</g>
<!-- Node23 -->
<g id="node20" class="node">
<title>Node23</title>
<g id="a_node20"><a xlink:href="d1/d3a/classuic_1_1main_window_1_1_ui___main_window.html" target="_top" xlink:title=" ">
<polygon fill="none" stroke="black" points="116.5,-0.5 116.5,-19.5 276.5,-19.5 276.5,-0.5 116.5,-0.5"/>
<text text-anchor="middle" x="196.5" y="-7.5" font-family="Helvetica,sans-Serif" font-size="10.00">uic.mainWindow.Ui_MainWindow</text>
</a>
</g>
</g>
<!-- Node0&#45;&gt;Node23 -->
<g id="edge19" class="edge">
<title>Node0&#45;&gt;Node23</title>
<path fill="none" stroke="midnightblue" d="M40.2,-425.83C43.22,-350.55 57.63,-87.32 113,-29 116.54,-25.27 120.66,-22.2 125.12,-19.69"/>
<polygon fill="midnightblue" stroke="midnightblue" points="36.68,-426.12 39.81,-436.24 43.68,-426.38 36.68,-426.12"/>
</g>
<!-- Node7 -->
<g id="node21" class="node">
<title>Node7</title>
<g id="a_node21"><a xlink:title=" ">
<polygon fill="none" stroke="#bfbfbf" points="12,-914.5 12,-933.5 65,-933.5 65,-914.5 12,-914.5"/>
<text text-anchor="middle" x="38.5" y="-921.5" font-family="Helvetica,sans-Serif" font-size="10.00">cliConfig</text>
</a>
</g>
</g>
<!-- Node7&#45;&gt;Node6 -->
<g id="edge20" class="edge">
<title>Node7&#45;&gt;Node6</title>
<path fill="none" stroke="midnightblue" d="M74.89,-911.07C98.53,-902.43 129.7,-891.04 154.44,-882"/>
<polygon fill="midnightblue" stroke="midnightblue" points="73.45,-907.87 65.26,-914.59 75.85,-914.44 73.45,-907.87"/>
</g>
<!-- Node8 -->
<g id="node22" class="node">
<title>Node8</title>
<g id="a_node22"><a xlink:title=" ">
<polygon fill="none" stroke="#bfbfbf" points="4,-876.5 4,-895.5 73,-895.5 73,-876.5 4,-876.5"/>
<text text-anchor="middle" x="38.5" y="-883.5" font-family="Helvetica,sans-Serif" font-size="10.00">cliFunctions</text>
</a>
</g>
</g>
<!-- Node8&#45;&gt;Node6 -->
<g id="edge21" class="edge">
<title>Node8&#45;&gt;Node6</title>
<path fill="none" stroke="midnightblue" d="M83.65,-880.62C96.97,-879 111.93,-877.18 126.47,-875.41"/>
<polygon fill="midnightblue" stroke="midnightblue" points="82.85,-877.19 73.35,-881.88 83.7,-884.14 82.85,-877.19"/>
</g>
<!-- Node9 -->
<g id="node23" class="node">
<title>Node9</title>
<g id="a_node23"><a xlink:title=" ">
<polygon fill="none" stroke="#bfbfbf" points="0,-838.5 0,-857.5 77,-857.5 77,-838.5 0,-838.5"/>
<text text-anchor="middle" x="38.5" y="-845.5" font-family="Helvetica,sans-Serif" font-size="10.00">cliParameters</text>
</a>
</g>
</g>
<!-- Node9&#45;&gt;Node6 -->
<g id="edge22" class="edge">
<title>Node9&#45;&gt;Node6</title>
<path fill="none" stroke="midnightblue" d="M87.32,-853.82C99.66,-855.33 113.19,-856.98 126.38,-858.58"/>
<polygon fill="midnightblue" stroke="midnightblue" points="87.61,-850.33 77.26,-852.6 86.77,-857.28 87.61,-850.33"/>
</g>
<!-- Node10 -->
<g id="node24" class="node">
<title>Node10</title>
<g id="a_node24"><a xlink:title=" ">
<polygon fill="none" stroke="#bfbfbf" points="12.5,-800.5 12.5,-819.5 64.5,-819.5 64.5,-800.5 12.5,-800.5"/>
<text text-anchor="middle" x="38.5" y="-807.5" font-family="Helvetica,sans-Serif" font-size="10.00">cliSetup</text>
</a>
</g>
</g>
<!-- Node10&#45;&gt;Node6 -->
<g id="edge23" class="edge">
<title>Node10&#45;&gt;Node6</title>
<path fill="none" stroke="midnightblue" d="M68.99,-823.77C82.29,-829.74 98.28,-836.59 113,-842 122.41,-845.46 132.55,-848.82 142.38,-851.9"/>
<polygon fill="midnightblue" stroke="midnightblue" points="70.39,-820.56 59.83,-819.61 67.49,-826.94 70.39,-820.56"/>
</g>
</g>
</svg>
