<?xml version="1.0" encoding="UTF-8" standalone="no"?>
<!DOCTYPE svg PUBLIC "-//W3C//DTD SVG 1.1//EN"
 "http://www.w3.org/Graphics/SVG/1.1/DTD/svg11.dtd">
<!-- Generated by graphviz version 5.0.0 (20220708.1001)
 -->
<!-- Title: Graphical Class Hierarchy Pages: 1 -->
<svg width="247pt" height="568pt"
 viewBox="0.00 0.00 247.00 567.50" xmlns="http://www.w3.org/2000/svg" xmlns:xlink="http://www.w3.org/1999/xlink">
<g id="graph0" class="graph" transform="scale(1 1) rotate(0) translate(4 563.5)">
<title>Graphical Class Hierarchy</title>
<!-- Node0 -->
<g id="node1" class="node">
<title>Node0</title>
<g id="a_node1"><a xlink:title=" ">
<polygon fill="none" stroke="#bfbfbf" points="0,-274.5 0,-293.5 43,-293.5 43,-274.5 0,-274.5"/>
<text text-anchor="middle" x="21.5" y="-281.5" font-family="Helvetica,sans-Serif" font-size="10.00">object</text>
</a>
</g>
</g>
<!-- Node1 -->
<g id="node2" class="node">
<title>Node1</title>
<g id="a_node2"><a xlink:href="dd/d03/classmodules_1_1code__preview_1_1_code_preview.html" target="_top" xlink:title=" ">
<polygon fill="none" stroke="black" points="89,-529 89,-559 229,-559 229,-529 89,-529"/>
<text text-anchor="start" x="97" y="-547" font-family="Helvetica,sans-Serif" font-size="10.00">modules.code_preview.Code</text>
<text text-anchor="middle" x="159" y="-536" font-family="Helvetica,sans-Serif" font-size="10.00">Preview</text>
</a>
</g>
</g>
<!-- Node0&#45;&gt;Node1 -->
<g id="edge1" class="edge">
<title>Node0&#45;&gt;Node1</title>
<path fill="none" stroke="midnightblue" d="M24.68,-303.59C30.72,-354.34 49.19,-488.35 79,-520 82.24,-523.44 85.96,-526.4 89.98,-528.93"/>
<polygon fill="midnightblue" stroke="midnightblue" points="28.15,-303.11 23.53,-293.58 21.2,-303.92 28.15,-303.11"/>
</g>
<!-- Node2 -->
<g id="node3" class="node">
<title>Node2</title>
<g id="a_node3"><a xlink:href="dd/d7c/classmodules_1_1command__parameters_1_1_command_parameters_methods.html" target="_top" xlink:title=" ">
<polygon fill="none" stroke="black" points="81.5,-480 81.5,-510 236.5,-510 236.5,-480 81.5,-480"/>
<text text-anchor="start" x="89.5" y="-498" font-family="Helvetica,sans-Serif" font-size="10.00">modules.command_parameters.</text>
<text text-anchor="middle" x="159" y="-487" font-family="Helvetica,sans-Serif" font-size="10.00">CommandParametersMethods</text>
</a>
</g>
</g>
<!-- Node0&#45;&gt;Node2 -->
<g id="edge2" class="edge">
<title>Node0&#45;&gt;Node2</title>
<path fill="none" stroke="midnightblue" d="M22.68,-303.97C24.12,-341.89 32.74,-424.67 79,-471 82.44,-474.45 86.37,-477.4 90.58,-479.94"/>
<polygon fill="midnightblue" stroke="midnightblue" points="26.17,-303.64 22.43,-293.73 19.17,-303.81 26.17,-303.64"/>
</g>
<!-- Node3 -->
<g id="node4" class="node">
<title>Node3</title>
<g id="a_node4"><a xlink:href="d1/d1a/classmodules_1_1helper__methods_1_1_helper_methods.html" target="_top" xlink:title=" ">
<polygon fill="none" stroke="black" points="81.5,-431 81.5,-461 236.5,-461 236.5,-431 81.5,-431"/>
<text text-anchor="start" x="89.5" y="-449" font-family="Helvetica,sans-Serif" font-size="10.00">modules.helper_methods.Helper</text>
<text text-anchor="middle" x="159" y="-438" font-family="Helvetica,sans-Serif" font-size="10.00">Methods</text>
</a>
</g>
</g>
<!-- Node0&#45;&gt;Node3 -->
<g id="edge3" class="edge">
<title>Node0&#45;&gt;Node3</title>
<path fill="none" stroke="midnightblue" d="M25.23,-303.46C30.41,-333.03 44.39,-389.21 79,-421 83.24,-424.89 88.08,-428.18 93.23,-430.95"/>
<polygon fill="midnightblue" stroke="midnightblue" points="28.68,-302.86 23.66,-293.53 21.77,-303.96 28.68,-302.86"/>
</g>
<!-- Node4 -->
<g id="node5" class="node">
<title>Node4</title>
<g id="a_node5"><a xlink:href="d3/dd3/classmodules_1_1logging__setup_1_1_logger.html" target="_top" xlink:title=" ">
<polygon fill="none" stroke="black" points="85,-392.5 85,-411.5 233,-411.5 233,-392.5 85,-392.5"/>
<text text-anchor="middle" x="159" y="-399.5" font-family="Helvetica,sans-Serif" font-size="10.00">modules.logging_setup.Logger</text>
</a>
</g>
</g>
<!-- Node0&#45;&gt;Node4 -->
<g id="edge4" class="edge">
<title>Node0&#45;&gt;Node4</title>
<path fill="none" stroke="midnightblue" d="M28.23,-303.15C36,-325.74 52.09,-362.79 79,-383 84.19,-386.9 90.06,-390.01 96.21,-392.49"/>
<polygon fill="midnightblue" stroke="midnightblue" points="31.56,-302.06 25.15,-293.62 24.89,-304.21 31.56,-302.06"/>
</g>
<!-- Node5 -->
<g id="node6" class="node">
<title>Node5</title>
<g id="a_node6"><a xlink:href="d9/d34/classmodules_1_1mainwindow__actions_1_1_main_window_actions.html" target="_top" xlink:title=" ">
<polygon fill="none" stroke="black" points="87,-343 87,-373 231,-373 231,-343 87,-343"/>
<text text-anchor="start" x="95" y="-361" font-family="Helvetica,sans-Serif" font-size="10.00">modules.mainwindow</text>
<text text-anchor="middle" x="159" y="-350" font-family="Helvetica,sans-Serif" font-size="10.00">_actions.MainWindowActions</text>
</a>
</g>
</g>
<!-- Node0&#45;&gt;Node5 -->
<g id="edge5" class="edge">
<title>Node0&#45;&gt;Node5</title>
<path fill="none" stroke="midnightblue" d="M38.05,-301.12C48.66,-311.9 63.54,-325.36 79,-334 85.01,-337.36 91.54,-340.3 98.19,-342.86"/>
<polygon fill="midnightblue" stroke="midnightblue" points="40.56,-298.69 31.13,-293.86 35.49,-303.51 40.56,-298.69"/>
</g>
<!-- Node6 -->
<g id="node7" class="node">
<title>Node6</title>
<g id="a_node7"><a xlink:href="d1/db3/classmodules_1_1mainwindow__buttons_1_1_main_window_buttons.html" target="_top" xlink:title=" ">
<polygon fill="none" stroke="black" points="86,-294 86,-324 232,-324 232,-294 86,-294"/>
<text text-anchor="start" x="94" y="-312" font-family="Helvetica,sans-Serif" font-size="10.00">modules.mainwindow</text>
<text text-anchor="middle" x="159" y="-301" font-family="Helvetica,sans-Serif" font-size="10.00">_buttons.MainWindowButtons</text>
</a>
</g>
</g>
<!-- Node0&#45;&gt;Node6 -->
<g id="edge6" class="edge">
<title>Node0&#45;&gt;Node6</title>
<path fill="none" stroke="midnightblue" d="M53.13,-289.65C62.99,-291.47 74.38,-293.57 85.93,-295.7"/>
<polygon fill="midnightblue" stroke="midnightblue" points="53.55,-286.17 43.08,-287.8 52.28,-293.05 53.55,-286.17"/>
</g>
<!-- Node7 -->
<g id="node8" class="node">
<title>Node7</title>
<g id="a_node8"><a xlink:href="da/df2/classmodules_1_1parse__config_1_1_parse_input_handler_config.html" target="_top" xlink:title=" ">
<polygon fill="none" stroke="black" points="90,-245 90,-275 228,-275 228,-245 90,-245"/>
<text text-anchor="start" x="98" y="-263" font-family="Helvetica,sans-Serif" font-size="10.00">modules.parse_config.Parse</text>
<text text-anchor="middle" x="159" y="-252" font-family="Helvetica,sans-Serif" font-size="10.00">InputHandlerConfig</text>
</a>
</g>
</g>
<!-- Node0&#45;&gt;Node7 -->
<g id="edge7" class="edge">
<title>Node0&#45;&gt;Node7</title>
<path fill="none" stroke="midnightblue" d="M52.98,-278.6C63.99,-276.65 76.89,-274.37 89.82,-272.08"/>
<polygon fill="midnightblue" stroke="midnightblue" points="52.32,-275.16 43.08,-280.35 53.54,-282.06 52.32,-275.16"/>
</g>
<!-- Node8 -->
<g id="node9" class="node">
<title>Node8</title>
<g id="a_node9"><a xlink:href="d2/db5/classmodules_1_1settings__tree_1_1_settings_tree_methods.html" target="_top" xlink:title=" ">
<polygon fill="none" stroke="black" points="84,-196 84,-226 234,-226 234,-196 84,-196"/>
<text text-anchor="start" x="92" y="-214" font-family="Helvetica,sans-Serif" font-size="10.00">modules.settings_tree.Settings</text>
<text text-anchor="middle" x="159" y="-203" font-family="Helvetica,sans-Serif" font-size="10.00">TreeMethods</text>
</a>
</g>
</g>
<!-- Node0&#45;&gt;Node8 -->
<g id="edge8" class="edge">
<title>Node0&#45;&gt;Node8</title>
<path fill="none" stroke="midnightblue" d="M38.89,-266.98C49.51,-256.78 64.1,-244.24 79,-236 85.8,-232.24 93.24,-228.95 100.76,-226.11"/>
<polygon fill="midnightblue" stroke="midnightblue" points="36.24,-264.68 31.61,-274.21 41.17,-269.65 36.24,-264.68"/>
</g>
<!-- Node9 -->
<g id="node10" class="node">
<title>Node9</title>
<g id="a_node10"><a xlink:href="de/d9f/classmodules_1_1settings__tree__table__methods_1_1_settings_tree_table_methods.html" target="_top" xlink:title=" ">
<polygon fill="none" stroke="black" points="87.5,-136.5 87.5,-177.5 230.5,-177.5 230.5,-136.5 87.5,-136.5"/>
<text text-anchor="start" x="95.5" y="-165.5" font-family="Helvetica,sans-Serif" font-size="10.00">modules.settings_tree</text>
<text text-anchor="start" x="95.5" y="-154.5" font-family="Helvetica,sans-Serif" font-size="10.00">_table_methods.SettingsTree</text>
<text text-anchor="middle" x="159" y="-143.5" font-family="Helvetica,sans-Serif" font-size="10.00">TableMethods</text>
</a>
</g>
</g>
<!-- Node0&#45;&gt;Node9 -->
<g id="edge9" class="edge">
<title>Node0&#45;&gt;Node9</title>
<path fill="none" stroke="midnightblue" d="M29.15,-264.84C37.58,-243.15 54.09,-208.12 79,-187 83.14,-183.49 87.73,-180.37 92.56,-177.59"/>
<polygon fill="midnightblue" stroke="midnightblue" points="25.84,-263.69 25.66,-274.29 32.41,-266.12 25.84,-263.69"/>
</g>
<!-- Node10 -->
<g id="node11" class="node">
<title>Node10</title>
<g id="a_node11"><a xlink:href="df/def/classuic_1_1command_parameters_dialog_1_1_ui__command_parameters_dialog.html" target="_top" xlink:title=" ">
<polygon fill="none" stroke="black" points="82,-88 82,-118 236,-118 236,-88 82,-88"/>
<text text-anchor="start" x="90" y="-106" font-family="Helvetica,sans-Serif" font-size="10.00">uic.commandParametersDialog.</text>
<text text-anchor="middle" x="159" y="-95" font-family="Helvetica,sans-Serif" font-size="10.00">Ui_commandParametersDialog</text>
</a>
</g>
</g>
<!-- Node0&#45;&gt;Node10 -->
<g id="edge10" class="edge">
<title>Node0&#45;&gt;Node10</title>
<path fill="none" stroke="midnightblue" d="M24.05,-264.04C27.69,-230.86 39.75,-164.32 79,-127 82.64,-123.54 86.75,-120.58 91.16,-118.05"/>
<polygon fill="midnightblue" stroke="midnightblue" points="20.54,-264 23.08,-274.29 27.5,-264.66 20.54,-264"/>
</g>
<!-- Node11 -->
<g id="node12" class="node">
<title>Node11</title>
<g id="a_node12"><a xlink:href="d3/d1e/classuic_1_1log_history_dialog_1_1_ui__log_history_dialog.html" target="_top" xlink:title=" ">
<polygon fill="none" stroke="black" points="102,-39 102,-69 216,-69 216,-39 102,-39"/>
<text text-anchor="start" x="110" y="-57" font-family="Helvetica,sans-Serif" font-size="10.00">uic.logHistoryDialog.Ui</text>
<text text-anchor="middle" x="159" y="-46" font-family="Helvetica,sans-Serif" font-size="10.00">_logHistoryDialog</text>
</a>
</g>
</g>
<!-- Node0&#45;&gt;Node11 -->
<g id="edge11" class="edge">
<title>Node0&#45;&gt;Node11</title>
<path fill="none" stroke="midnightblue" d="M22.08,-264.15C22.34,-223.69 28.78,-131.14 79,-79 85.29,-72.47 93.26,-67.64 101.72,-64.07"/>
<polygon fill="midnightblue" stroke="midnightblue" points="18.58,-264.33 22.15,-274.31 25.58,-264.29 18.58,-264.33"/>
</g>
<!-- Node12 -->
<g id="node13" class="node">
<title>Node12</title>
<g id="a_node13"><a xlink:href="d1/d3a/classuic_1_1main_window_1_1_ui___main_window.html" target="_top" xlink:title=" ">
<polygon fill="none" stroke="black" points="79,-0.5 79,-19.5 239,-19.5 239,-0.5 79,-0.5"/>
<text text-anchor="middle" x="159" y="-7.5" font-family="Helvetica,sans-Serif" font-size="10.00">uic.mainWindow.Ui_MainWindow</text>
</a>
</g>
</g>
<!-- Node0&#45;&gt;Node12 -->
<g id="edge12" class="edge">
<title>Node0&#45;&gt;Node12</title>
<path fill="none" stroke="midnightblue" d="M24.25,-264.26C29.39,-210.59 46.24,-63.73 79,-30 83.14,-25.74 88.05,-22.34 93.36,-19.63"/>
<polygon fill="midnightblue" stroke="midnightblue" points="20.76,-263.95 23.32,-274.23 27.73,-264.59 20.76,-263.95"/>
</g>
</g>
</svg>
