<?xml version="1.0" encoding="UTF-8" standalone="no"?>
<!DOCTYPE svg PUBLIC "-//W3C//DTD SVG 1.1//EN"
 "http://www.w3.org/Graphics/SVG/1.1/DTD/svg11.dtd">
<!-- Generated by graphviz version 5.0.1 (20220820.1526)
 -->
<!-- Title: Graphical Class Hierarchy Pages: 1 -->
<svg width="319pt" height="446pt"
 viewBox="0.00 0.00 319.00 446.00" xmlns="http://www.w3.org/2000/svg" xmlns:xlink="http://www.w3.org/1999/xlink">
<g id="graph0" class="graph" transform="scale(1 1) rotate(0) translate(4 442)">
<title>Graphical Class Hierarchy</title>
<!-- Node0 -->
<g id="node1" class="node">
<title>Node0</title>
<g id="a_node1"><a xlink:title=" ">
<polygon fill="none" stroke="#bfbfbf" points="37.5,-418.5 37.5,-437.5 111.5,-437.5 111.5,-418.5 37.5,-418.5"/>
<text text-anchor="middle" x="74.5" y="-425.5" font-family="Helvetica,sans-Serif" font-size="10.00">CLIfilestrings</text>
</a>
</g>
</g>
<!-- Node1 -->
<g id="node2" class="node">
<title>Node1</title>
<g id="a_node2"><a xlink:href="d3/d6c/classcli__gen__tool_1_1_main_window.html" target="_top" xlink:title="This is the main display window.">
<polygon fill="none" stroke="black" points="185,-209.5 185,-228.5 311,-228.5 311,-209.5 185,-209.5"/>
<text text-anchor="middle" x="248" y="-216.5" font-family="Helvetica,sans-Serif" font-size="10.00">cli_gen_tool.MainWindow</text>
</a>
</g>
</g>
<!-- Node0&#45;&gt;Node1 -->
<g id="edge1" class="edge">
<title>Node0&#45;&gt;Node1</title>
<path fill="none" stroke="midnightblue" d="M121.32,-422.44C131.2,-419.6 141.04,-415.35 149,-409 211.07,-359.44 237.85,-259.97 244.96,-228.66"/>
<polygon fill="midnightblue" stroke="midnightblue" points="120.4,-419.06 111.51,-424.83 122.06,-425.86 120.4,-419.06"/>
</g>
<!-- Node2 -->
<g id="node3" class="node">
<title>Node2</title>
<g id="a_node3"><a xlink:title=" ">
<polygon fill="none" stroke="#bfbfbf" points="37.5,-380.5 37.5,-399.5 111.5,-399.5 111.5,-380.5 37.5,-380.5"/>
<text text-anchor="middle" x="74.5" y="-387.5" font-family="Helvetica,sans-Serif" font-size="10.00">CodePreview</text>
</a>
</g>
</g>
<!-- Node2&#45;&gt;Node1 -->
<g id="edge2" class="edge">
<title>Node2&#45;&gt;Node1</title>
<path fill="none" stroke="midnightblue" d="M121.77,-383.61C131.37,-380.81 140.99,-376.79 149,-371 202.2,-332.58 233.85,-255.58 243.68,-228.6"/>
<polygon fill="midnightblue" stroke="midnightblue" points="120.68,-380.28 111.84,-386.11 122.39,-387.07 120.68,-380.28"/>
</g>
<!-- Node3 -->
<g id="node4" class="node">
<title>Node3</title>
<g id="a_node4"><a xlink:title=" ">
<polygon fill="none" stroke="#bfbfbf" points="0,-342.5 0,-361.5 149,-361.5 149,-342.5 0,-342.5"/>
<text text-anchor="middle" x="74.5" y="-349.5" font-family="Helvetica,sans-Serif" font-size="10.00">CommandParametersMethods</text>
</a>
</g>
</g>
<!-- Node3&#45;&gt;Node1 -->
<g id="edge3" class="edge">
<title>Node3&#45;&gt;Node1</title>
<path fill="none" stroke="midnightblue" d="M138.13,-338.71C141.91,-337.03 145.57,-335.13 149,-333 193.53,-305.27 228.55,-250.81 241.54,-228.69"/>
<polygon fill="midnightblue" stroke="midnightblue" points="136.55,-335.57 128.51,-342.47 139.1,-342.09 136.55,-335.57"/>
</g>
<!-- Node4 -->
<g id="node5" class="node">
<title>Node4</title>
<g id="a_node5"><a xlink:title=" ">
<polygon fill="none" stroke="#bfbfbf" points="15.5,-304.5 15.5,-323.5 133.5,-323.5 133.5,-304.5 15.5,-304.5"/>
<text text-anchor="middle" x="74.5" y="-311.5" font-family="Helvetica,sans-Serif" font-size="10.00">CommandTreeMethods</text>
</a>
</g>
</g>
<!-- Node4&#45;&gt;Node1 -->
<g id="edge4" class="edge">
<title>Node4&#45;&gt;Node1</title>
<path fill="none" stroke="midnightblue" d="M133.59,-301.38C138.9,-299.51 144.12,-297.4 149,-295 185.14,-277.26 220.77,-244.88 237.36,-228.72"/>
<polygon fill="midnightblue" stroke="midnightblue" points="132.41,-298.08 123.96,-304.47 134.55,-304.74 132.41,-298.08"/>
</g>
<!-- Node5 -->
<g id="node6" class="node">
<title>Node5</title>
<g id="a_node6"><a xlink:title=" ">
<polygon fill="none" stroke="#bfbfbf" points="33,-266.5 33,-285.5 116,-285.5 116,-266.5 33,-266.5"/>
<text text-anchor="middle" x="74.5" y="-273.5" font-family="Helvetica,sans-Serif" font-size="10.00">HelperMethods</text>
</a>
</g>
</g>
<!-- Node5&#45;&gt;Node1 -->
<g id="edge5" class="edge">
<title>Node5&#45;&gt;Node1</title>
<path fill="none" stroke="midnightblue" d="M125.64,-263.88C133.5,-261.74 141.5,-259.41 149,-257 175.4,-248.5 205,-236.7 224.69,-228.51"/>
<polygon fill="midnightblue" stroke="midnightblue" points="124.57,-260.54 115.8,-266.49 126.36,-267.31 124.57,-260.54"/>
</g>
<!-- Node6 -->
<g id="node7" class="node">
<title>Node6</title>
<g id="a_node7"><a xlink:title=" ">
<polygon fill="none" stroke="#bfbfbf" points="22,-228.5 22,-247.5 127,-247.5 127,-228.5 22,-228.5"/>
<text text-anchor="middle" x="74.5" y="-235.5" font-family="Helvetica,sans-Serif" font-size="10.00">MainWindowActions</text>
</a>
</g>
</g>
<!-- Node6&#45;&gt;Node1 -->
<g id="edge6" class="edge">
<title>Node6&#45;&gt;Node1</title>
<path fill="none" stroke="midnightblue" d="M137.41,-231.14C152.89,-229.43 169.5,-227.59 184.99,-225.87"/>
<polygon fill="midnightblue" stroke="midnightblue" points="136.97,-227.67 127.42,-232.25 137.75,-234.63 136.97,-227.67"/>
</g>
<!-- Node7 -->
<g id="node8" class="node">
<title>Node7</title>
<g id="a_node8"><a xlink:title=" ">
<polygon fill="none" stroke="#bfbfbf" points="21.5,-190.5 21.5,-209.5 127.5,-209.5 127.5,-190.5 21.5,-190.5"/>
<text text-anchor="middle" x="74.5" y="-197.5" font-family="Helvetica,sans-Serif" font-size="10.00">MainWindowButtons</text>
</a>
</g>
</g>
<!-- Node7&#45;&gt;Node1 -->
<g id="edge7" class="edge">
<title>Node7&#45;&gt;Node1</title>
<path fill="none" stroke="midnightblue" d="M138.25,-206.95C153.49,-208.64 169.78,-210.45 184.99,-212.13"/>
<polygon fill="midnightblue" stroke="midnightblue" points="138.21,-203.43 127.89,-205.8 137.44,-210.38 138.21,-203.43"/>
</g>
<!-- Node8 -->
<g id="node9" class="node">
<title>Node8</title>
<g id="a_node9"><a xlink:title=" ">
<polygon fill="none" stroke="#bfbfbf" points="12,-152.5 12,-171.5 137,-171.5 137,-152.5 12,-152.5"/>
<text text-anchor="middle" x="74.5" y="-159.5" font-family="Helvetica,sans-Serif" font-size="10.00">ParseInputHandlerConfig</text>
</a>
</g>
</g>
<!-- Node8&#45;&gt;Node1 -->
<g id="edge8" class="edge">
<title>Node8&#45;&gt;Node1</title>
<path fill="none" stroke="midnightblue" d="M125.64,-174.12C133.5,-176.26 141.5,-178.59 149,-181 175.4,-189.5 205,-201.3 224.69,-209.49"/>
<polygon fill="midnightblue" stroke="midnightblue" points="126.36,-170.69 115.8,-171.51 124.57,-177.46 126.36,-170.69"/>
</g>
<!-- Node9 -->
<g id="node10" class="node">
<title>Node9</title>
<g id="a_node10"><a xlink:title=" ">
<polygon fill="none" stroke="#bfbfbf" points="21,-114.5 21,-133.5 128,-133.5 128,-114.5 21,-114.5"/>
<text text-anchor="middle" x="74.5" y="-121.5" font-family="Helvetica,sans-Serif" font-size="10.00">PreferencesMethods</text>
</a>
</g>
</g>
<!-- Node9&#45;&gt;Node1 -->
<g id="edge9" class="edge">
<title>Node9&#45;&gt;Node1</title>
<path fill="none" stroke="midnightblue" d="M133.59,-136.62C138.9,-138.49 144.12,-140.6 149,-143 185.14,-160.74 220.77,-193.12 237.36,-209.28"/>
<polygon fill="midnightblue" stroke="midnightblue" points="134.55,-133.26 123.96,-133.53 132.41,-139.92 134.55,-133.26"/>
</g>
<!-- Node10 -->
<g id="node11" class="node">
<title>Node10</title>
<g id="a_node11"><a xlink:title=" ">
<polygon fill="none" stroke="#bfbfbf" points="34.5,-76.5 34.5,-95.5 114.5,-95.5 114.5,-76.5 34.5,-76.5"/>
<text text-anchor="middle" x="74.5" y="-83.5" font-family="Helvetica,sans-Serif" font-size="10.00">QMainWindow</text>
</a>
</g>
</g>
<!-- Node10&#45;&gt;Node1 -->
<g id="edge10" class="edge">
<title>Node10&#45;&gt;Node1</title>
<path fill="none" stroke="midnightblue" d="M124.33,-94.16C132.94,-96.82 141.52,-100.34 149,-105 193.53,-132.73 228.55,-187.19 241.54,-209.31"/>
<polygon fill="midnightblue" stroke="midnightblue" points="125.24,-90.78 114.67,-91.51 123.39,-97.53 125.24,-90.78"/>
</g>
<!-- Node11 -->
<g id="node12" class="node">
<title>Node11</title>
<g id="a_node12"><a xlink:title=" ">
<polygon fill="none" stroke="#bfbfbf" points="19.5,-38.5 19.5,-57.5 129.5,-57.5 129.5,-38.5 19.5,-38.5"/>
<text text-anchor="middle" x="74.5" y="-45.5" font-family="Helvetica,sans-Serif" font-size="10.00">SettingsTreeMethods</text>
</a>
</g>
</g>
<!-- Node11&#45;&gt;Node1 -->
<g id="edge11" class="edge">
<title>Node11&#45;&gt;Node1</title>
<path fill="none" stroke="midnightblue" d="M139.19,-61.1C142.63,-62.83 145.93,-64.79 149,-67 202.2,-105.42 233.85,-182.42 243.68,-209.4"/>
<polygon fill="midnightblue" stroke="midnightblue" points="140.36,-57.79 129.79,-57.04 137.58,-64.22 140.36,-57.79"/>
</g>
<!-- Node12 -->
<g id="node13" class="node">
<title>Node12</title>
<g id="a_node13"><a xlink:title=" ">
<polygon fill="none" stroke="#bfbfbf" points="7.5,-0.5 7.5,-19.5 141.5,-19.5 141.5,-0.5 7.5,-0.5"/>
<text text-anchor="middle" x="74.5" y="-7.5" font-family="Helvetica,sans-Serif" font-size="10.00">SettingsTreeTableMethods</text>
</a>
</g>
</g>
<!-- Node12&#45;&gt;Node1 -->
<g id="edge12" class="edge">
<title>Node12&#45;&gt;Node1</title>
<path fill="none" stroke="midnightblue" d="M141.77,-24.06C144.31,-25.55 146.73,-27.19 149,-29 211.07,-78.56 237.85,-178.03 244.96,-209.34"/>
<polygon fill="midnightblue" stroke="midnightblue" points="143.31,-20.92 132.8,-19.59 140.18,-27.18 143.31,-20.92"/>
</g>
</g>
</svg>
