<?xml version="1.0" encoding="UTF-8" standalone="no"?>
<!DOCTYPE svg PUBLIC "-//W3C//DTD SVG 1.1//EN"
 "http://www.w3.org/Graphics/SVG/1.1/DTD/svg11.dtd">
<!-- Generated by graphviz version 5.0.0 (20220708.1001)
 -->
<!-- Title: Graphical Class Hierarchy Pages: 1 -->
<svg width="247pt" height="186pt"
 viewBox="0.00 0.00 247.00 185.50" xmlns="http://www.w3.org/2000/svg" xmlns:xlink="http://www.w3.org/1999/xlink">
<g id="graph0" class="graph" transform="scale(1 1) rotate(0) translate(4 181.5)">
<title>Graphical Class Hierarchy</title>
<!-- Node0 -->
<g id="node1" class="node">
<title>Node0</title>
<g id="a_node1"><a xlink:title=" ">
<polygon fill="none" stroke="#bfbfbf" points="0,-71.5 0,-90.5 43,-90.5 43,-71.5 0,-71.5"/>
<text text-anchor="middle" x="21.5" y="-78.5" font-family="Helvetica,sans-Serif" font-size="10.00">object</text>
</a>
</g>
</g>
<!-- Node1 -->
<g id="node2" class="node">
<title>Node1</title>
<g id="a_node2"><a xlink:href="d1/d1a/classmodules_1_1helper__methods_1_1_helper_methods.html" target="_top" xlink:title=" ">
<polygon fill="none" stroke="black" points="81.5,-147 81.5,-177 236.5,-177 236.5,-147 81.5,-147"/>
<text text-anchor="start" x="89.5" y="-165" font-family="Helvetica,sans-Serif" font-size="10.00">modules.helper_methods.Helper</text>
<text text-anchor="middle" x="159" y="-154" font-family="Helvetica,sans-Serif" font-size="10.00">Methods</text>
</a>
</g>
</g>
<!-- Node0&#45;&gt;Node1 -->
<g id="edge1" class="edge">
<title>Node0&#45;&gt;Node1</title>
<path fill="none" stroke="midnightblue" d="M35.83,-98.5C46.3,-111.14 61.93,-127.72 79,-138 84.65,-141.4 90.82,-144.36 97.14,-146.92"/>
<polygon fill="midnightblue" stroke="midnightblue" points="38.43,-96.14 29.45,-90.51 32.96,-100.51 38.43,-96.14"/>
</g>
<!-- Node2 -->
<g id="node3" class="node">
<title>Node2</title>
<g id="a_node3"><a xlink:href="de/d9f/classmodules_1_1settings__tree__table__methods_1_1_settings_tree_table_methods.html" target="_top" xlink:title=" ">
<polygon fill="none" stroke="black" points="87.5,-87.5 87.5,-128.5 230.5,-128.5 230.5,-87.5 87.5,-87.5"/>
<text text-anchor="start" x="95.5" y="-116.5" font-family="Helvetica,sans-Serif" font-size="10.00">modules.settings_tree</text>
<text text-anchor="start" x="95.5" y="-105.5" font-family="Helvetica,sans-Serif" font-size="10.00">_table_methods.SettingsTree</text>
<text text-anchor="middle" x="159" y="-94.5" font-family="Helvetica,sans-Serif" font-size="10.00">TableMethods</text>
</a>
</g>
</g>
<!-- Node0&#45;&gt;Node2 -->
<g id="edge2" class="edge">
<title>Node0&#45;&gt;Node2</title>
<path fill="none" stroke="midnightblue" d="M53.14,-87.11C63.43,-89.16 75.37,-91.53 87.43,-93.94"/>
<polygon fill="midnightblue" stroke="midnightblue" points="53.57,-83.62 43.08,-85.1 52.2,-90.49 53.57,-83.62"/>
</g>
<!-- Node3 -->
<g id="node4" class="node">
<title>Node3</title>
<g id="a_node4"><a xlink:href="df/def/classuic_1_1command_parameters_dialog_1_1_ui__command_parameters_dialog.html" target="_top" xlink:title=" ">
<polygon fill="none" stroke="black" points="82,-39 82,-69 236,-69 236,-39 82,-39"/>
<text text-anchor="start" x="90" y="-57" font-family="Helvetica,sans-Serif" font-size="10.00">uic.commandParametersDialog.</text>
<text text-anchor="middle" x="159" y="-46" font-family="Helvetica,sans-Serif" font-size="10.00">Ui_commandParametersDialog</text>
</a>
</g>
</g>
<!-- Node0&#45;&gt;Node3 -->
<g id="edge3" class="edge">
<title>Node0&#45;&gt;Node3</title>
<path fill="none" stroke="midnightblue" d="M52.97,-74.93C61.94,-73.14 72.17,-71.1 82.65,-69.01"/>
<polygon fill="midnightblue" stroke="midnightblue" points="52.2,-71.51 43.08,-76.9 53.57,-78.38 52.2,-71.51"/>
</g>
<!-- Node4 -->
<g id="node5" class="node">
<title>Node4</title>
<g id="a_node5"><a xlink:href="d1/d3a/classuic_1_1main_window_1_1_ui___main_window.html" target="_top" xlink:title=" ">
<polygon fill="none" stroke="black" points="79,-0.5 79,-19.5 239,-19.5 239,-0.5 79,-0.5"/>
<text text-anchor="middle" x="159" y="-7.5" font-family="Helvetica,sans-Serif" font-size="10.00">uic.mainWindow.Ui_MainWindow</text>
</a>
</g>
</g>
<!-- Node0&#45;&gt;Node4 -->
<g id="edge4" class="edge">
<title>Node0&#45;&gt;Node4</title>
<path fill="none" stroke="midnightblue" d="M37.47,-63.67C48.02,-52.5 63.06,-38.53 79,-30 87.11,-25.66 96.19,-22.24 105.23,-19.54"/>
<polygon fill="midnightblue" stroke="midnightblue" points="34.78,-61.43 30.64,-71.19 39.96,-66.14 34.78,-61.43"/>
</g>
</g>
</svg>
