<?xml version="1.0" encoding="UTF-8" standalone="no"?>
<!DOCTYPE svg PUBLIC "-//W3C//DTD SVG 1.1//EN"
 "http://www.w3.org/Graphics/SVG/1.1/DTD/svg11.dtd">
<!-- Generated by graphviz version 4.0.0 (20220602.1335)
 -->
<!-- Title: Graphical Class Hierarchy Pages: 1 -->
<svg width="247pt" height="78pt"
 viewBox="0.00 0.00 247.00 77.50" xmlns="http://www.w3.org/2000/svg" xmlns:xlink="http://www.w3.org/1999/xlink">
<g id="graph0" class="graph" transform="scale(1 1) rotate(0) translate(4 73.5)">
<title>Graphical Class Hierarchy</title>
<!-- Node0 -->
<g id="node1" class="node">
<title>Node0</title>
<g id="a_node1"><a xlink:title=" ">
<polygon fill="none" stroke="#bfbfbf" points="0,-22.5 0,-41.5 43,-41.5 43,-22.5 0,-22.5"/>
<text text-anchor="middle" x="21.5" y="-29.5" font-family="Helvetica,sans-Serif" font-size="10.00">object</text>
</a>
</g>
</g>
<!-- Node1 -->
<g id="node2" class="node">
<title>Node1</title>
<g id="a_node2"><a xlink:href="df/def/classuic_1_1command_parameters_dialog_1_1_ui__command_parameters_dialog.html" target="_top" xlink:title=" ">
<polygon fill="none" stroke="black" points="82,-39 82,-69 236,-69 236,-39 82,-39"/>
<text text-anchor="start" x="90" y="-57" font-family="Helvetica,sans-Serif" font-size="10.00">uic.commandParametersDialog.</text>
<text text-anchor="middle" x="159" y="-46" font-family="Helvetica,sans-Serif" font-size="10.00">Ui_commandParametersDialog</text>
</a>
</g>
</g>
<!-- Node0&#45;&gt;Node1 -->
<g id="edge1" class="edge">
<title>Node0&#45;&gt;Node1</title>
<path fill="none" stroke="midnightblue" d="M53.04,-36.96C61.73,-38.37 71.62,-39.97 81.76,-41.62"/>
<polygon fill="midnightblue" stroke="midnightblue" points="53.51,-33.49 43.08,-35.34 52.39,-40.4 53.51,-33.49"/>
</g>
<!-- Node2 -->
<g id="node3" class="node">
<title>Node2</title>
<g id="a_node3"><a xlink:href="d1/d3a/classuic_1_1main_window_1_1_ui___main_window.html" target="_top" xlink:title=" ">
<polygon fill="none" stroke="black" points="79,-0.5 79,-19.5 239,-19.5 239,-0.5 79,-0.5"/>
<text text-anchor="middle" x="159" y="-7.5" font-family="Helvetica,sans-Serif" font-size="10.00">uic.mainWindow.Ui_MainWindow</text>
</a>
</g>
</g>
<!-- Node0&#45;&gt;Node2 -->
<g id="edge2" class="edge">
<title>Node0&#45;&gt;Node2</title>
<path fill="none" stroke="midnightblue" d="M53.34,-26.99C66.99,-24.78 83.52,-22.09 99.37,-19.52"/>
<polygon fill="midnightblue" stroke="midnightblue" points="52.39,-23.6 43.08,-28.66 53.51,-30.51 52.39,-23.6"/>
</g>
</g>
</svg>
