<?xml version="1.0" encoding="UTF-8" standalone="no"?>
<!DOCTYPE svg PUBLIC "-//W3C//DTD SVG 1.1//EN"
 "http://www.w3.org/Graphics/SVG/1.1/DTD/svg11.dtd">
<!-- Generated by graphviz version 5.0.0 (20220708.1001)
 -->
<!-- Title: Graphical Class Hierarchy Pages: 1 -->
<svg width="319pt" height="408pt"
 viewBox="0.00 0.00 319.00 408.00" xmlns="http://www.w3.org/2000/svg" xmlns:xlink="http://www.w3.org/1999/xlink">
<g id="graph0" class="graph" transform="scale(1 1) rotate(0) translate(4 404)">
<title>Graphical Class Hierarchy</title>
<!-- Node0 -->
<g id="node1" class="node">
<title>Node0</title>
<g id="a_node1"><a xlink:title=" ">
<polygon fill="none" stroke="#bfbfbf" points="37.5,-380.5 37.5,-399.5 111.5,-399.5 111.5,-380.5 37.5,-380.5"/>
<text text-anchor="middle" x="74.5" y="-387.5" font-family="Helvetica,sans-Serif" font-size="10.00">CLIfilestrings</text>
</a>
</g>
</g>
<!-- Node1 -->
<g id="node2" class="node">
<title>Node1</title>
<g id="a_node2"><a xlink:href="d3/d6c/classcli__gen__tool_1_1_main_window.html" target="_top" xlink:title="This is the main display window.">
<polygon fill="none" stroke="black" points="185,-190.5 185,-209.5 311,-209.5 311,-190.5 185,-190.5"/>
<text text-anchor="middle" x="248" y="-197.5" font-family="Helvetica,sans-Serif" font-size="10.00">cli_gen_tool.MainWindow</text>
</a>
</g>
</g>
<!-- Node0&#45;&gt;Node1 -->
<g id="edge1" class="edge">
<title>Node0&#45;&gt;Node1</title>
<path fill="none" stroke="midnightblue" d="M121.41,-384.1C131.19,-381.27 140.98,-377.12 149,-371 206.67,-327 236.03,-238.61 244.42,-209.52"/>
<polygon fill="midnightblue" stroke="midnightblue" points="120.56,-380.7 111.69,-386.5 122.24,-387.5 120.56,-380.7"/>
</g>
<!-- Node2 -->
<g id="node3" class="node">
<title>Node2</title>
<g id="a_node3"><a xlink:title=" ">
<polygon fill="none" stroke="#bfbfbf" points="37.5,-342.5 37.5,-361.5 111.5,-361.5 111.5,-342.5 37.5,-342.5"/>
<text text-anchor="middle" x="74.5" y="-349.5" font-family="Helvetica,sans-Serif" font-size="10.00">CodePreview</text>
</a>
</g>
</g>
<!-- Node2&#45;&gt;Node1 -->
<g id="edge2" class="edge">
<title>Node2&#45;&gt;Node1</title>
<path fill="none" stroke="midnightblue" d="M121.5,-345.23C131.12,-342.45 140.81,-338.53 149,-333 197.71,-300.07 231.25,-234.59 242.68,-209.81"/>
<polygon fill="midnightblue" stroke="midnightblue" points="120.42,-341.9 111.58,-347.74 122.13,-348.69 120.42,-341.9"/>
</g>
<!-- Node3 -->
<g id="node4" class="node">
<title>Node3</title>
<g id="a_node4"><a xlink:title=" ">
<polygon fill="none" stroke="#bfbfbf" points="0,-304.5 0,-323.5 149,-323.5 149,-304.5 0,-304.5"/>
<text text-anchor="middle" x="74.5" y="-311.5" font-family="Helvetica,sans-Serif" font-size="10.00">CommandParametersMethods</text>
</a>
</g>
</g>
<!-- Node3&#45;&gt;Node1 -->
<g id="edge3" class="edge">
<title>Node3&#45;&gt;Node1</title>
<path fill="none" stroke="midnightblue" d="M136.38,-300.97C140.76,-299.22 145.01,-297.24 149,-295 189.29,-272.39 225.06,-229.1 239.82,-209.76"/>
<polygon fill="midnightblue" stroke="midnightblue" points="134.89,-297.78 126.65,-304.45 137.25,-304.37 134.89,-297.78"/>
</g>
<!-- Node4 -->
<g id="node5" class="node">
<title>Node4</title>
<g id="a_node5"><a xlink:title=" ">
<polygon fill="none" stroke="#bfbfbf" points="15.5,-266.5 15.5,-285.5 133.5,-285.5 133.5,-266.5 15.5,-266.5"/>
<text text-anchor="middle" x="74.5" y="-273.5" font-family="Helvetica,sans-Serif" font-size="10.00">CommandTreeMethods</text>
</a>
</g>
</g>
<!-- Node4&#45;&gt;Node1 -->
<g id="edge4" class="edge">
<title>Node4&#45;&gt;Node1</title>
<path fill="none" stroke="midnightblue" d="M130.41,-263.58C136.76,-261.63 143.08,-259.43 149,-257 180.86,-243.91 214.96,-222.08 233.34,-209.58"/>
<polygon fill="midnightblue" stroke="midnightblue" points="129.08,-260.32 120.45,-266.47 131.03,-267.05 129.08,-260.32"/>
</g>
<!-- Node5 -->
<g id="node6" class="node">
<title>Node5</title>
<g id="a_node6"><a xlink:title=" ">
<polygon fill="none" stroke="#bfbfbf" points="33,-228.5 33,-247.5 116,-247.5 116,-228.5 33,-228.5"/>
<text text-anchor="middle" x="74.5" y="-235.5" font-family="Helvetica,sans-Serif" font-size="10.00">HelperMethods</text>
</a>
</g>
</g>
<!-- Node5&#45;&gt;Node1 -->
<g id="edge5" class="edge">
<title>Node5&#45;&gt;Node1</title>
<path fill="none" stroke="midnightblue" d="M126.08,-226.79C150.82,-221.31 180.3,-214.78 203.95,-209.54"/>
<polygon fill="midnightblue" stroke="midnightblue" points="125.15,-223.41 116.14,-228.99 126.66,-230.25 125.15,-223.41"/>
</g>
<!-- Node6 -->
<g id="node7" class="node">
<title>Node6</title>
<g id="a_node7"><a xlink:title=" ">
<polygon fill="none" stroke="#bfbfbf" points="22,-190.5 22,-209.5 127,-209.5 127,-190.5 22,-190.5"/>
<text text-anchor="middle" x="74.5" y="-197.5" font-family="Helvetica,sans-Serif" font-size="10.00">MainWindowActions</text>
</a>
</g>
</g>
<!-- Node6&#45;&gt;Node1 -->
<g id="edge6" class="edge">
<title>Node6&#45;&gt;Node1</title>
<path fill="none" stroke="midnightblue" d="M137.85,-200C153.21,-200 169.65,-200 184.99,-200"/>
<polygon fill="midnightblue" stroke="midnightblue" points="137.42,-196.5 127.42,-200 137.42,-203.5 137.42,-196.5"/>
</g>
<!-- Node7 -->
<g id="node8" class="node">
<title>Node7</title>
<g id="a_node8"><a xlink:title=" ">
<polygon fill="none" stroke="#bfbfbf" points="21.5,-152.5 21.5,-171.5 127.5,-171.5 127.5,-152.5 21.5,-152.5"/>
<text text-anchor="middle" x="74.5" y="-159.5" font-family="Helvetica,sans-Serif" font-size="10.00">MainWindowButtons</text>
</a>
</g>
</g>
<!-- Node7&#45;&gt;Node1 -->
<g id="edge7" class="edge">
<title>Node7&#45;&gt;Node1</title>
<path fill="none" stroke="midnightblue" d="M128.54,-173.75C152.79,-179.13 181.15,-185.41 204.03,-190.48"/>
<polygon fill="midnightblue" stroke="midnightblue" points="129.3,-170.34 118.78,-171.59 127.78,-177.17 129.3,-170.34"/>
</g>
<!-- Node8 -->
<g id="node9" class="node">
<title>Node8</title>
<g id="a_node9"><a xlink:title=" ">
<polygon fill="none" stroke="#bfbfbf" points="12,-114.5 12,-133.5 137,-133.5 137,-114.5 12,-114.5"/>
<text text-anchor="middle" x="74.5" y="-121.5" font-family="Helvetica,sans-Serif" font-size="10.00">ParseInputHandlerConfig</text>
</a>
</g>
</g>
<!-- Node8&#45;&gt;Node1 -->
<g id="edge8" class="edge">
<title>Node8&#45;&gt;Node1</title>
<path fill="none" stroke="midnightblue" d="M130.41,-136.42C136.76,-138.37 143.08,-140.57 149,-143 180.86,-156.09 214.96,-177.92 233.34,-190.42"/>
<polygon fill="midnightblue" stroke="midnightblue" points="131.03,-132.95 120.45,-133.53 129.08,-139.68 131.03,-132.95"/>
</g>
<!-- Node9 -->
<g id="node10" class="node">
<title>Node9</title>
<g id="a_node10"><a xlink:title=" ">
<polygon fill="none" stroke="#bfbfbf" points="34.5,-76.5 34.5,-95.5 114.5,-95.5 114.5,-76.5 34.5,-76.5"/>
<text text-anchor="middle" x="74.5" y="-83.5" font-family="Helvetica,sans-Serif" font-size="10.00">QMainWindow</text>
</a>
</g>
</g>
<!-- Node9&#45;&gt;Node1 -->
<g id="edge9" class="edge">
<title>Node9&#45;&gt;Node1</title>
<path fill="none" stroke="midnightblue" d="M124.56,-94.9C133.01,-97.48 141.48,-100.78 149,-105 189.29,-127.61 225.06,-170.9 239.82,-190.24"/>
<polygon fill="midnightblue" stroke="midnightblue" points="125.28,-91.47 114.71,-92.19 123.42,-98.21 125.28,-91.47"/>
</g>
<!-- Node10 -->
<g id="node11" class="node">
<title>Node10</title>
<g id="a_node11"><a xlink:title=" ">
<polygon fill="none" stroke="#bfbfbf" points="19.5,-38.5 19.5,-57.5 129.5,-57.5 129.5,-38.5 19.5,-38.5"/>
<text text-anchor="middle" x="74.5" y="-45.5" font-family="Helvetica,sans-Serif" font-size="10.00">SettingsTreeMethods</text>
</a>
</g>
</g>
<!-- Node10&#45;&gt;Node1 -->
<g id="edge10" class="edge">
<title>Node10&#45;&gt;Node1</title>
<path fill="none" stroke="midnightblue" d="M139.03,-61.33C142.51,-63 145.87,-64.88 149,-67 197.71,-99.93 231.25,-165.41 242.68,-190.19"/>
<polygon fill="midnightblue" stroke="midnightblue" points="140.13,-58 129.55,-57.38 137.44,-64.46 140.13,-58"/>
</g>
<!-- Node11 -->
<g id="node12" class="node">
<title>Node11</title>
<g id="a_node12"><a xlink:title=" ">
<polygon fill="none" stroke="#bfbfbf" points="7.5,-0.5 7.5,-19.5 141.5,-19.5 141.5,-0.5 7.5,-0.5"/>
<text text-anchor="middle" x="74.5" y="-7.5" font-family="Helvetica,sans-Serif" font-size="10.00">SettingsTreeTableMethods</text>
</a>
</g>
</g>
<!-- Node11&#45;&gt;Node1 -->
<g id="edge11" class="edge">
<title>Node11&#45;&gt;Node1</title>
<path fill="none" stroke="midnightblue" d="M141.51,-24.1C144.13,-25.57 146.64,-27.2 149,-29 206.67,-73 236.03,-161.39 244.42,-190.48"/>
<polygon fill="midnightblue" stroke="midnightblue" points="142.78,-20.82 132.26,-19.65 139.75,-27.13 142.78,-20.82"/>
</g>
</g>
</svg>
