<?xml version="1.0" encoding="UTF-8" standalone="no"?>
<!DOCTYPE svg PUBLIC "-//W3C//DTD SVG 1.1//EN"
 "http://www.w3.org/Graphics/SVG/1.1/DTD/svg11.dtd">
<!-- Generated by graphviz version 5.0.0 (20220708.1001)
 -->
<!-- Title: Graphical Class Hierarchy Pages: 1 -->
<svg width="280pt" height="825pt"
 viewBox="0.00 0.00 280.00 825.00" xmlns="http://www.w3.org/2000/svg" xmlns:xlink="http://www.w3.org/1999/xlink">
<g id="graph0" class="graph" transform="scale(1 1) rotate(0) translate(4 821)">
<title>Graphical Class Hierarchy</title>
<!-- Node0 -->
<g id="node1" class="node">
<title>Node0</title>
<g id="a_node1"><a xlink:title=" ">
<polygon fill="none" stroke="#bfbfbf" points="13,-392.5 13,-411.5 56,-411.5 56,-392.5 13,-392.5"/>
<text text-anchor="middle" x="34.5" y="-399.5" font-family="Helvetica,sans-Serif" font-size="10.00">object</text>
</a>
</g>
</g>
<!-- Node1 -->
<g id="node2" class="node">
<title>Node1</title>
<g id="a_node2"><a xlink:href="d5/d68/classmodules_1_1cli_1_1config_1_1cli_config.html" target="_top" xlink:title=" ">
<polygon fill="none" stroke="black" points="122.5,-715.5 122.5,-734.5 254.5,-734.5 254.5,-715.5 122.5,-715.5"/>
<text text-anchor="middle" x="188.5" y="-722.5" font-family="Helvetica,sans-Serif" font-size="10.00">modules.cli.config.cliConfig</text>
</a>
</g>
</g>
<!-- Node0&#45;&gt;Node1 -->
<g id="edge1" class="edge">
<title>Node0&#45;&gt;Node1</title>
<path fill="none" stroke="midnightblue" d="M37.36,-421.9C43.45,-482.67 64.74,-664.24 105,-705 109.97,-710.03 115.98,-713.88 122.46,-716.81"/>
<polygon fill="midnightblue" stroke="midnightblue" points="40.83,-421.33 36.37,-411.72 33.86,-422.01 40.83,-421.33"/>
</g>
<!-- Node2 -->
<g id="node3" class="node">
<title>Node2</title>
<g id="a_node3"><a xlink:href="dd/d75/classmodules_1_1cli_1_1functions_1_1cli_functions.html" target="_top" xlink:title=" ">
<polygon fill="none" stroke="black" points="129,-666 129,-696 248,-696 248,-666 129,-666"/>
<text text-anchor="start" x="137" y="-684" font-family="Helvetica,sans-Serif" font-size="10.00">modules.cli.functions.cli</text>
<text text-anchor="middle" x="188.5" y="-673" font-family="Helvetica,sans-Serif" font-size="10.00">Functions</text>
</a>
</g>
</g>
<!-- Node0&#45;&gt;Node2 -->
<g id="edge2" class="edge">
<title>Node0&#45;&gt;Node2</title>
<path fill="none" stroke="midnightblue" d="M34.88,-421.75C34.51,-469.01 40.34,-589.56 105,-656 111.58,-662.76 119.91,-667.7 128.74,-671.32"/>
<polygon fill="midnightblue" stroke="midnightblue" points="38.38,-421.7 35.07,-411.63 31.38,-421.57 38.38,-421.7"/>
</g>
<!-- Node3 -->
<g id="node4" class="node">
<title>Node3</title>
<g id="a_node4"><a xlink:href="d5/dc1/classmodules_1_1cli_1_1parameters_1_1cli_parameters.html" target="_top" xlink:title=" ">
<polygon fill="none" stroke="black" points="124.5,-617 124.5,-647 252.5,-647 252.5,-617 124.5,-617"/>
<text text-anchor="start" x="132.5" y="-635" font-family="Helvetica,sans-Serif" font-size="10.00">modules.cli.parameters.cli</text>
<text text-anchor="middle" x="188.5" y="-624" font-family="Helvetica,sans-Serif" font-size="10.00">Parameters</text>
</a>
</g>
</g>
<!-- Node0&#45;&gt;Node3 -->
<g id="edge3" class="edge">
<title>Node0&#45;&gt;Node3</title>
<path fill="none" stroke="midnightblue" d="M36.44,-422C39.44,-462.72 52.05,-555.75 105,-607 110.59,-612.41 117.32,-616.66 124.48,-619.99"/>
<polygon fill="midnightblue" stroke="midnightblue" points="39.92,-421.53 35.81,-411.77 32.93,-421.96 39.92,-421.53"/>
</g>
<!-- Node4 -->
<g id="node5" class="node">
<title>Node4</title>
<g id="a_node5"><a xlink:href="dc/d95/classmodules_1_1cli_1_1setup_1_1cli_setup.html" target="_top" xlink:title=" ">
<polygon fill="none" stroke="black" points="124,-578.5 124,-597.5 253,-597.5 253,-578.5 124,-578.5"/>
<text text-anchor="middle" x="188.5" y="-585.5" font-family="Helvetica,sans-Serif" font-size="10.00">modules.cli.setup.cliSetup</text>
</a>
</g>
</g>
<!-- Node0&#45;&gt;Node4 -->
<g id="edge4" class="edge">
<title>Node0&#45;&gt;Node4</title>
<path fill="none" stroke="midnightblue" d="M38.01,-421.97C43.5,-457.03 59.93,-529.57 105,-568 110.49,-572.69 116.91,-576.31 123.69,-579.11"/>
<polygon fill="midnightblue" stroke="midnightblue" points="41.41,-421.03 36.54,-411.62 34.48,-422.01 41.41,-421.03"/>
</g>
<!-- Node5 -->
<g id="node6" class="node">
<title>Node5</title>
<g id="a_node6"><a xlink:href="dd/d03/classmodules_1_1code__preview_1_1_code_preview.html" target="_top" xlink:title=" ">
<polygon fill="none" stroke="black" points="118.5,-754 118.5,-784 258.5,-784 258.5,-754 118.5,-754"/>
<text text-anchor="start" x="126.5" y="-772" font-family="Helvetica,sans-Serif" font-size="10.00">modules.code_preview.Code</text>
<text text-anchor="middle" x="188.5" y="-761" font-family="Helvetica,sans-Serif" font-size="10.00">Preview</text>
</a>
</g>
</g>
<!-- Node0&#45;&gt;Node5 -->
<g id="edge5" class="edge">
<title>Node0&#45;&gt;Node5</title>
<path fill="none" stroke="midnightblue" d="M36.9,-421.72C41.92,-487.18 61.14,-695.82 105,-744 108.83,-748.21 113.34,-751.71 118.24,-754.64"/>
<polygon fill="midnightblue" stroke="midnightblue" points="40.37,-421.26 36.14,-411.55 33.39,-421.78 40.37,-421.26"/>
</g>
<!-- Node9 -->
<g id="node7" class="node">
<title>Node9</title>
<g id="a_node7"><a xlink:href="dd/d7c/classmodules_1_1command__parameters_1_1_command_parameters_methods.html" target="_top" xlink:title=" ">
<polygon fill="none" stroke="black" points="111,-529 111,-559 266,-559 266,-529 111,-529"/>
<text text-anchor="start" x="119" y="-547" font-family="Helvetica,sans-Serif" font-size="10.00">modules.command_parameters.</text>
<text text-anchor="middle" x="188.5" y="-536" font-family="Helvetica,sans-Serif" font-size="10.00">CommandParametersMethods</text>
</a>
</g>
</g>
<!-- Node0&#45;&gt;Node9 -->
<g id="edge6" class="edge">
<title>Node0&#45;&gt;Node9</title>
<path fill="none" stroke="midnightblue" d="M41.92,-421.33C51.54,-447.33 72.14,-493.26 105,-519 109.95,-522.88 115.49,-526.15 121.31,-528.92"/>
<polygon fill="midnightblue" stroke="midnightblue" points="45.2,-420.09 38.57,-411.83 38.59,-422.42 45.2,-420.09"/>
</g>
<!-- Node10 -->
<g id="node8" class="node">
<title>Node10</title>
<g id="a_node8"><a xlink:href="de/d14/classmodules_1_1command__tree_1_1_command_tree_methods.html" target="_top" xlink:title=" ">
<polygon fill="none" stroke="black" points="105,-480 105,-510 272,-510 272,-480 105,-480"/>
<text text-anchor="start" x="113" y="-498" font-family="Helvetica,sans-Serif" font-size="10.00">modules.command_tree.Command</text>
<text text-anchor="middle" x="188.5" y="-487" font-family="Helvetica,sans-Serif" font-size="10.00">TreeMethods</text>
</a>
</g>
</g>
<!-- Node0&#45;&gt;Node10 -->
<g id="edge7" class="edge">
<title>Node0&#45;&gt;Node10</title>
<path fill="none" stroke="midnightblue" d="M49.26,-419.61C62.14,-434.97 82.69,-456.8 105,-470 111.44,-473.81 118.51,-477.09 125.72,-479.89"/>
<polygon fill="midnightblue" stroke="midnightblue" points="51.96,-417.38 42.94,-411.84 46.54,-421.8 51.96,-417.38"/>
</g>
<!-- Node11 -->
<g id="node9" class="node">
<title>Node11</title>
<g id="a_node9"><a xlink:href="d1/d1a/classmodules_1_1helper__methods_1_1_helper_methods.html" target="_top" xlink:title=" ">
<polygon fill="none" stroke="black" points="111,-431 111,-461 266,-461 266,-431 111,-431"/>
<text text-anchor="start" x="119" y="-449" font-family="Helvetica,sans-Serif" font-size="10.00">modules.helper_methods.Helper</text>
<text text-anchor="middle" x="188.5" y="-438" font-family="Helvetica,sans-Serif" font-size="10.00">Methods</text>
</a>
</g>
</g>
<!-- Node0&#45;&gt;Node11 -->
<g id="edge8" class="edge">
<title>Node0&#45;&gt;Node11</title>
<path fill="none" stroke="midnightblue" d="M66.07,-410.85C85.97,-416.61 112.43,-424.27 135.57,-430.97"/>
<polygon fill="midnightblue" stroke="midnightblue" points="66.9,-407.44 56.32,-408.03 64.95,-414.17 66.9,-407.44"/>
</g>
<!-- Node12 -->
<g id="node10" class="node">
<title>Node12</title>
<g id="a_node10"><a xlink:href="d3/dd3/classmodules_1_1logging__setup_1_1_logger.html" target="_top" xlink:title=" ">
<polygon fill="none" stroke="black" points="114.5,-392.5 114.5,-411.5 262.5,-411.5 262.5,-392.5 114.5,-392.5"/>
<text text-anchor="middle" x="188.5" y="-399.5" font-family="Helvetica,sans-Serif" font-size="10.00">modules.logging_setup.Logger</text>
</a>
</g>
</g>
<!-- Node0&#45;&gt;Node12 -->
<g id="edge9" class="edge">
<title>Node0&#45;&gt;Node12</title>
<path fill="none" stroke="midnightblue" d="M66.32,-402C80.28,-402 97.44,-402 114.41,-402"/>
<polygon fill="midnightblue" stroke="midnightblue" points="66.32,-398.5 56.32,-402 66.32,-405.5 66.32,-398.5"/>
</g>
<!-- Node13 -->
<g id="node11" class="node">
<title>Node13</title>
<g id="a_node11"><a xlink:href="d9/d34/classmodules_1_1mainwindow__actions_1_1_main_window_actions.html" target="_top" xlink:title=" ">
<polygon fill="none" stroke="black" points="116.5,-343 116.5,-373 260.5,-373 260.5,-343 116.5,-343"/>
<text text-anchor="start" x="124.5" y="-361" font-family="Helvetica,sans-Serif" font-size="10.00">modules.mainwindow</text>
<text text-anchor="middle" x="188.5" y="-350" font-family="Helvetica,sans-Serif" font-size="10.00">_actions.MainWindowActions</text>
</a>
</g>
</g>
<!-- Node0&#45;&gt;Node13 -->
<g id="edge10" class="edge">
<title>Node0&#45;&gt;Node13</title>
<path fill="none" stroke="midnightblue" d="M66.07,-393.15C85.97,-387.39 112.43,-379.73 135.57,-373.03"/>
<polygon fill="midnightblue" stroke="midnightblue" points="64.95,-389.83 56.32,-395.97 66.9,-396.56 64.95,-389.83"/>
</g>
<!-- Node14 -->
<g id="node12" class="node">
<title>Node14</title>
<g id="a_node12"><a xlink:href="d1/db3/classmodules_1_1mainwindow__buttons_1_1_main_window_buttons.html" target="_top" xlink:title=" ">
<polygon fill="none" stroke="black" points="115.5,-294 115.5,-324 261.5,-324 261.5,-294 115.5,-294"/>
<text text-anchor="start" x="123.5" y="-312" font-family="Helvetica,sans-Serif" font-size="10.00">modules.mainwindow</text>
<text text-anchor="middle" x="188.5" y="-301" font-family="Helvetica,sans-Serif" font-size="10.00">_buttons.MainWindowButtons</text>
</a>
</g>
</g>
<!-- Node0&#45;&gt;Node14 -->
<g id="edge11" class="edge">
<title>Node0&#45;&gt;Node14</title>
<path fill="none" stroke="midnightblue" d="M48.75,-384.58C61.54,-368.92 82.26,-346.4 105,-333 110.78,-329.59 117.08,-326.64 123.54,-324.09"/>
<polygon fill="midnightblue" stroke="midnightblue" points="45.97,-382.45 42.5,-392.46 51.46,-386.8 45.97,-382.45"/>
</g>
<!-- Node15 -->
<g id="node13" class="node">
<title>Node15</title>
<g id="a_node13"><a xlink:href="da/df2/classmodules_1_1parse__config_1_1_parse_input_handler_config.html" target="_top" xlink:title=" ">
<polygon fill="none" stroke="black" points="119.5,-245 119.5,-275 257.5,-275 257.5,-245 119.5,-245"/>
<text text-anchor="start" x="127.5" y="-263" font-family="Helvetica,sans-Serif" font-size="10.00">modules.parse_config.Parse</text>
<text text-anchor="middle" x="188.5" y="-252" font-family="Helvetica,sans-Serif" font-size="10.00">InputHandlerConfig</text>
</a>
</g>
</g>
<!-- Node0&#45;&gt;Node15 -->
<g id="edge12" class="edge">
<title>Node0&#45;&gt;Node15</title>
<path fill="none" stroke="midnightblue" d="M41.69,-382.84C51.15,-356.63 71.67,-309.91 105,-284 109.48,-280.52 114.44,-277.55 119.65,-275"/>
<polygon fill="midnightblue" stroke="midnightblue" points="38.35,-381.8 38.41,-392.4 44.97,-384.08 38.35,-381.8"/>
</g>
<!-- Node16 -->
<g id="node14" class="node">
<title>Node16</title>
<g id="a_node14"><a xlink:href="d2/db5/classmodules_1_1settings__tree_1_1_settings_tree_methods.html" target="_top" xlink:title=" ">
<polygon fill="none" stroke="black" points="113.5,-196 113.5,-226 263.5,-226 263.5,-196 113.5,-196"/>
<text text-anchor="start" x="121.5" y="-214" font-family="Helvetica,sans-Serif" font-size="10.00">modules.settings_tree.Settings</text>
<text text-anchor="middle" x="188.5" y="-203" font-family="Helvetica,sans-Serif" font-size="10.00">TreeMethods</text>
</a>
</g>
</g>
<!-- Node0&#45;&gt;Node16 -->
<g id="edge13" class="edge">
<title>Node0&#45;&gt;Node16</title>
<path fill="none" stroke="midnightblue" d="M38.15,-382.12C43.86,-347.17 60.63,-274.69 105,-235 108.78,-231.62 113.01,-228.71 117.51,-226.21"/>
<polygon fill="midnightblue" stroke="midnightblue" points="34.62,-382.02 36.61,-392.43 41.55,-383.05 34.62,-382.02"/>
</g>
<!-- Node17 -->
<g id="node15" class="node">
<title>Node17</title>
<g id="a_node15"><a xlink:href="de/d9f/classmodules_1_1settings__tree__table__methods_1_1_settings_tree_table_methods.html" target="_top" xlink:title=" ">
<polygon fill="none" stroke="black" points="117,-136.5 117,-177.5 260,-177.5 260,-136.5 117,-136.5"/>
<text text-anchor="start" x="125" y="-165.5" font-family="Helvetica,sans-Serif" font-size="10.00">modules.settings_tree</text>
<text text-anchor="start" x="125" y="-154.5" font-family="Helvetica,sans-Serif" font-size="10.00">_table_methods.SettingsTree</text>
<text text-anchor="middle" x="188.5" y="-143.5" font-family="Helvetica,sans-Serif" font-size="10.00">TableMethods</text>
</a>
</g>
</g>
<!-- Node0&#45;&gt;Node17 -->
<g id="edge14" class="edge">
<title>Node0&#45;&gt;Node17</title>
<path fill="none" stroke="midnightblue" d="M36.21,-382.28C38.79,-340.4 50.63,-241.85 105,-186 108.5,-182.41 112.46,-179.26 116.72,-176.51"/>
<polygon fill="midnightblue" stroke="midnightblue" points="32.72,-382.13 35.71,-392.29 39.71,-382.48 32.72,-382.13"/>
</g>
<!-- Node18 -->
<g id="node16" class="node">
<title>Node18</title>
<g id="a_node16"><a xlink:href="df/def/classuic_1_1command_parameters_dialog_1_1_ui__command_parameters_dialog.html" target="_top" xlink:title=" ">
<polygon fill="none" stroke="black" points="111.5,-88 111.5,-118 265.5,-118 265.5,-88 111.5,-88"/>
<text text-anchor="start" x="119.5" y="-106" font-family="Helvetica,sans-Serif" font-size="10.00">uic.commandParametersDialog.</text>
<text text-anchor="middle" x="188.5" y="-95" font-family="Helvetica,sans-Serif" font-size="10.00">Ui_commandParametersDialog</text>
</a>
</g>
</g>
<!-- Node0&#45;&gt;Node18 -->
<g id="edge15" class="edge">
<title>Node0&#45;&gt;Node18</title>
<path fill="none" stroke="midnightblue" d="M37.94,-382.18C45.32,-325.47 69.09,-164.21 105,-127 108.31,-123.57 112.09,-120.61 116.16,-118.08"/>
<polygon fill="midnightblue" stroke="midnightblue" points="34.44,-381.98 36.65,-392.34 41.39,-382.86 34.44,-381.98"/>
</g>
<!-- Node19 -->
<g id="node17" class="node">
<title>Node19</title>
<g id="a_node17"><a xlink:href="d3/d1e/classuic_1_1log_history_dialog_1_1_ui__log_history_dialog.html" target="_top" xlink:title=" ">
<polygon fill="none" stroke="black" points="131.5,-39 131.5,-69 245.5,-69 245.5,-39 131.5,-39"/>
<text text-anchor="start" x="139.5" y="-57" font-family="Helvetica,sans-Serif" font-size="10.00">uic.logHistoryDialog.Ui</text>
<text text-anchor="middle" x="188.5" y="-46" font-family="Helvetica,sans-Serif" font-size="10.00">_logHistoryDialog</text>
</a>
</g>
</g>
<!-- Node0&#45;&gt;Node19 -->
<g id="edge16" class="edge">
<title>Node0&#45;&gt;Node19</title>
<path fill="none" stroke="midnightblue" d="M37.14,-382.07C42.73,-318.64 63.12,-123 105,-78 112.11,-70.36 121.51,-65.1 131.4,-61.49"/>
<polygon fill="midnightblue" stroke="midnightblue" points="33.62,-382.05 36.26,-392.31 40.6,-382.64 33.62,-382.05"/>
</g>
<!-- Node20 -->
<g id="node18" class="node">
<title>Node20</title>
<g id="a_node18"><a xlink:href="d1/d3a/classuic_1_1main_window_1_1_ui___main_window.html" target="_top" xlink:title=" ">
<polygon fill="none" stroke="black" points="108.5,-0.5 108.5,-19.5 268.5,-19.5 268.5,-0.5 108.5,-0.5"/>
<text text-anchor="middle" x="188.5" y="-7.5" font-family="Helvetica,sans-Serif" font-size="10.00">uic.mainWindow.Ui_MainWindow</text>
</a>
</g>
</g>
<!-- Node0&#45;&gt;Node20 -->
<g id="edge17" class="edge">
<title>Node0&#45;&gt;Node20</title>
<path fill="none" stroke="midnightblue" d="M36.41,-382.19C40,-312.56 55.56,-80.57 105,-29 108.66,-25.18 112.93,-22.06 117.55,-19.52"/>
<polygon fill="midnightblue" stroke="midnightblue" points="32.91,-382.09 35.91,-392.24 39.9,-382.43 32.91,-382.09"/>
</g>
<!-- Node6 -->
<g id="node19" class="node">
<title>Node6</title>
<g id="a_node19"><a xlink:title=" ">
<polygon fill="none" stroke="#bfbfbf" points="8,-797.5 8,-816.5 61,-816.5 61,-797.5 8,-797.5"/>
<text text-anchor="middle" x="34.5" y="-804.5" font-family="Helvetica,sans-Serif" font-size="10.00">cliConfig</text>
</a>
</g>
</g>
<!-- Node6&#45;&gt;Node5 -->
<g id="edge18" class="edge">
<title>Node6&#45;&gt;Node5</title>
<path fill="none" stroke="midnightblue" d="M71.2,-798.08C87.95,-793.89 108.38,-788.78 127.42,-784.02"/>
<polygon fill="midnightblue" stroke="midnightblue" points="70.14,-794.73 61.28,-800.55 71.84,-801.52 70.14,-794.73"/>
</g>
<!-- Node7 -->
<g id="node20" class="node">
<title>Node7</title>
<g id="a_node20"><a xlink:title=" ">
<polygon fill="none" stroke="#bfbfbf" points="0,-759.5 0,-778.5 69,-778.5 69,-759.5 0,-759.5"/>
<text text-anchor="middle" x="34.5" y="-766.5" font-family="Helvetica,sans-Serif" font-size="10.00">cliFunctions</text>
</a>
</g>
</g>
<!-- Node7&#45;&gt;Node5 -->
<g id="edge19" class="edge">
<title>Node7&#45;&gt;Node5</title>
<path fill="none" stroke="midnightblue" d="M79.53,-769C91.67,-769 105.16,-769 118.36,-769"/>
<polygon fill="midnightblue" stroke="midnightblue" points="79.23,-765.5 69.23,-769 79.23,-772.5 79.23,-765.5"/>
</g>
<!-- Node8 -->
<g id="node21" class="node">
<title>Node8</title>
<g id="a_node21"><a xlink:title=" ">
<polygon fill="none" stroke="#bfbfbf" points="8.5,-721.5 8.5,-740.5 60.5,-740.5 60.5,-721.5 8.5,-721.5"/>
<text text-anchor="middle" x="34.5" y="-728.5" font-family="Helvetica,sans-Serif" font-size="10.00">cliSetup</text>
</a>
</g>
</g>
<!-- Node8&#45;&gt;Node5 -->
<g id="edge20" class="edge">
<title>Node8&#45;&gt;Node5</title>
<path fill="none" stroke="midnightblue" d="M70.53,-739.76C87.36,-743.96 108,-749.13 127.24,-753.93"/>
<polygon fill="midnightblue" stroke="midnightblue" points="71.15,-736.3 60.6,-737.27 69.45,-743.1 71.15,-736.3"/>
</g>
</g>
</svg>
