<?xml version="1.0" encoding="UTF-8" standalone="no"?>
<!DOCTYPE svg PUBLIC "-//W3C//DTD SVG 1.1//EN"
 "http://www.w3.org/Graphics/SVG/1.1/DTD/svg11.dtd">
<!-- Generated by graphviz version 5.0.0 (20220708.1001)
 -->
<!-- Title: Graphical Class Hierarchy Pages: 1 -->
<svg width="319pt" height="332pt"
 viewBox="0.00 0.00 319.00 332.00" xmlns="http://www.w3.org/2000/svg" xmlns:xlink="http://www.w3.org/1999/xlink">
<g id="graph0" class="graph" transform="scale(1 1) rotate(0) translate(4 328)">
<title>Graphical Class Hierarchy</title>
<!-- Node0 -->
<g id="node1" class="node">
<title>Node0</title>
<g id="a_node1"><a xlink:title=" ">
<polygon fill="none" stroke="#bfbfbf" points="37.5,-304.5 37.5,-323.5 111.5,-323.5 111.5,-304.5 37.5,-304.5"/>
<text text-anchor="middle" x="74.5" y="-311.5" font-family="Helvetica,sans-Serif" font-size="10.00">CodePreview</text>
</a>
</g>
</g>
<!-- Node1 -->
<g id="node2" class="node">
<title>Node1</title>
<g id="a_node2"><a xlink:href="d3/d6c/classcli__gen__tool_1_1_main_window.html" target="_top" xlink:title="This is the main display window.">
<polygon fill="none" stroke="black" points="185,-152.5 185,-171.5 311,-171.5 311,-152.5 185,-152.5"/>
<text text-anchor="middle" x="248" y="-159.5" font-family="Helvetica,sans-Serif" font-size="10.00">cli_gen_tool.MainWindow</text>
</a>
</g>
</g>
<!-- Node0&#45;&gt;Node1 -->
<g id="edge1" class="edge">
<title>Node0&#45;&gt;Node1</title>
<path fill="none" stroke="midnightblue" d="M121.5,-307.23C131.12,-304.45 140.81,-300.53 149,-295 197.71,-262.07 231.25,-196.59 242.68,-171.81"/>
<polygon fill="midnightblue" stroke="midnightblue" points="120.42,-303.9 111.58,-309.74 122.13,-310.69 120.42,-303.9"/>
</g>
<!-- Node2 -->
<g id="node3" class="node">
<title>Node2</title>
<g id="a_node3"><a xlink:title=" ">
<polygon fill="none" stroke="#bfbfbf" points="0,-266.5 0,-285.5 149,-285.5 149,-266.5 0,-266.5"/>
<text text-anchor="middle" x="74.5" y="-273.5" font-family="Helvetica,sans-Serif" font-size="10.00">CommandParametersMethods</text>
</a>
</g>
</g>
<!-- Node2&#45;&gt;Node1 -->
<g id="edge2" class="edge">
<title>Node2&#45;&gt;Node1</title>
<path fill="none" stroke="midnightblue" d="M136.38,-262.97C140.76,-261.22 145.01,-259.24 149,-257 189.29,-234.39 225.06,-191.1 239.82,-171.76"/>
<polygon fill="midnightblue" stroke="midnightblue" points="134.89,-259.78 126.65,-266.45 137.25,-266.37 134.89,-259.78"/>
</g>
<!-- Node3 -->
<g id="node4" class="node">
<title>Node3</title>
<g id="a_node4"><a xlink:title=" ">
<polygon fill="none" stroke="#bfbfbf" points="33,-228.5 33,-247.5 116,-247.5 116,-228.5 33,-228.5"/>
<text text-anchor="middle" x="74.5" y="-235.5" font-family="Helvetica,sans-Serif" font-size="10.00">HelperMethods</text>
</a>
</g>
</g>
<!-- Node3&#45;&gt;Node1 -->
<g id="edge3" class="edge">
<title>Node3&#45;&gt;Node1</title>
<path fill="none" stroke="midnightblue" d="M126.01,-226.9C133.82,-224.63 141.71,-221.99 149,-219 180.86,-205.91 214.96,-184.08 233.34,-171.58"/>
<polygon fill="midnightblue" stroke="midnightblue" points="124.92,-223.57 116.2,-229.59 126.77,-230.32 124.92,-223.57"/>
</g>
<!-- Node4 -->
<g id="node5" class="node">
<title>Node4</title>
<g id="a_node5"><a xlink:title=" ">
<polygon fill="none" stroke="#bfbfbf" points="22,-190.5 22,-209.5 127,-209.5 127,-190.5 22,-190.5"/>
<text text-anchor="middle" x="74.5" y="-197.5" font-family="Helvetica,sans-Serif" font-size="10.00">MainWindowActions</text>
</a>
</g>
</g>
<!-- Node4&#45;&gt;Node1 -->
<g id="edge4" class="edge">
<title>Node4&#45;&gt;Node1</title>
<path fill="none" stroke="midnightblue" d="M128.54,-188.25C152.79,-182.87 181.15,-176.59 204.03,-171.52"/>
<polygon fill="midnightblue" stroke="midnightblue" points="127.78,-184.83 118.78,-190.41 129.3,-191.66 127.78,-184.83"/>
</g>
<!-- Node5 -->
<g id="node6" class="node">
<title>Node5</title>
<g id="a_node6"><a xlink:title=" ">
<polygon fill="none" stroke="#bfbfbf" points="21.5,-152.5 21.5,-171.5 127.5,-171.5 127.5,-152.5 21.5,-152.5"/>
<text text-anchor="middle" x="74.5" y="-159.5" font-family="Helvetica,sans-Serif" font-size="10.00">MainWindowButtons</text>
</a>
</g>
</g>
<!-- Node5&#45;&gt;Node1 -->
<g id="edge5" class="edge">
<title>Node5&#45;&gt;Node1</title>
<path fill="none" stroke="midnightblue" d="M138.25,-162C153.49,-162 169.78,-162 184.99,-162"/>
<polygon fill="midnightblue" stroke="midnightblue" points="137.89,-158.5 127.89,-162 137.89,-165.5 137.89,-158.5"/>
</g>
<!-- Node6 -->
<g id="node7" class="node">
<title>Node6</title>
<g id="a_node7"><a xlink:title=" ">
<polygon fill="none" stroke="#bfbfbf" points="12,-114.5 12,-133.5 137,-133.5 137,-114.5 12,-114.5"/>
<text text-anchor="middle" x="74.5" y="-121.5" font-family="Helvetica,sans-Serif" font-size="10.00">ParseInputHandlerConfig</text>
</a>
</g>
</g>
<!-- Node6&#45;&gt;Node1 -->
<g id="edge6" class="edge">
<title>Node6&#45;&gt;Node1</title>
<path fill="none" stroke="midnightblue" d="M128.54,-135.75C152.79,-141.13 181.15,-147.41 204.03,-152.48"/>
<polygon fill="midnightblue" stroke="midnightblue" points="129.3,-132.34 118.78,-133.59 127.78,-139.17 129.3,-132.34"/>
</g>
<!-- Node7 -->
<g id="node8" class="node">
<title>Node7</title>
<g id="a_node8"><a xlink:title=" ">
<polygon fill="none" stroke="#bfbfbf" points="34.5,-76.5 34.5,-95.5 114.5,-95.5 114.5,-76.5 34.5,-76.5"/>
<text text-anchor="middle" x="74.5" y="-83.5" font-family="Helvetica,sans-Serif" font-size="10.00">QMainWindow</text>
</a>
</g>
</g>
<!-- Node7&#45;&gt;Node1 -->
<g id="edge7" class="edge">
<title>Node7&#45;&gt;Node1</title>
<path fill="none" stroke="midnightblue" d="M124.36,-96.62C132.71,-99.01 141.2,-101.8 149,-105 180.86,-118.09 214.96,-139.92 233.34,-152.42"/>
<polygon fill="midnightblue" stroke="midnightblue" points="125.24,-93.24 114.67,-94.02 123.42,-100 125.24,-93.24"/>
</g>
<!-- Node8 -->
<g id="node9" class="node">
<title>Node8</title>
<g id="a_node9"><a xlink:title=" ">
<polygon fill="none" stroke="#bfbfbf" points="19.5,-38.5 19.5,-57.5 129.5,-57.5 129.5,-38.5 19.5,-38.5"/>
<text text-anchor="middle" x="74.5" y="-45.5" font-family="Helvetica,sans-Serif" font-size="10.00">SettingsTreeMethods</text>
</a>
</g>
</g>
<!-- Node8&#45;&gt;Node1 -->
<g id="edge8" class="edge">
<title>Node8&#45;&gt;Node1</title>
<path fill="none" stroke="midnightblue" d="M136.38,-61.03C140.76,-62.78 145.01,-64.76 149,-67 189.29,-89.61 225.06,-132.9 239.82,-152.24"/>
<polygon fill="midnightblue" stroke="midnightblue" points="137.25,-57.63 126.65,-57.55 134.89,-64.22 137.25,-57.63"/>
</g>
<!-- Node9 -->
<g id="node10" class="node">
<title>Node9</title>
<g id="a_node10"><a xlink:title=" ">
<polygon fill="none" stroke="#bfbfbf" points="7.5,-0.5 7.5,-19.5 141.5,-19.5 141.5,-0.5 7.5,-0.5"/>
<text text-anchor="middle" x="74.5" y="-7.5" font-family="Helvetica,sans-Serif" font-size="10.00">SettingsTreeTableMethods</text>
</a>
</g>
</g>
<!-- Node9&#45;&gt;Node1 -->
<g id="edge9" class="edge">
<title>Node9&#45;&gt;Node1</title>
<path fill="none" stroke="midnightblue" d="M139.22,-23.42C142.64,-25.07 145.93,-26.92 149,-29 197.71,-61.93 231.25,-127.41 242.68,-152.19"/>
<polygon fill="midnightblue" stroke="midnightblue" points="140.51,-20.17 129.94,-19.52 137.8,-26.62 140.51,-20.17"/>
</g>
</g>
</svg>
