<?xml version="1.0" encoding="UTF-8" standalone="no"?>
<!DOCTYPE svg PUBLIC "-//W3C//DTD SVG 1.1//EN"
 "http://www.w3.org/Graphics/SVG/1.1/DTD/svg11.dtd">
<!-- Generated by graphviz version 5.0.1 (20220820.1526)
 -->
<!-- Title: Graphical Class Hierarchy Pages: 1 -->
<svg width="288pt" height="1068pt"
 viewBox="0.00 0.00 288.00 1067.50" xmlns="http://www.w3.org/2000/svg" xmlns:xlink="http://www.w3.org/1999/xlink">
<g id="graph0" class="graph" transform="scale(1 1) rotate(0) translate(4 1063.5)">
<title>Graphical Class Hierarchy</title>
<!-- Node0 -->
<g id="node1" class="node">
<title>Node0</title>
<g id="a_node1"><a xlink:title=" ">
<polygon fill="#e0e0e0" stroke="#999999" points="60,-523.5 17,-523.5 17,-504.5 60,-504.5 60,-523.5"/>
<text text-anchor="middle" x="38.5" y="-511.5" font-family="Helvetica,sans-Serif" font-size="10.00">object</text>
</a>
</g>
</g>
<!-- Node1 -->
<g id="node2" class="node">
<title>Node1</title>
<g id="a_node2"><a xlink:href="d5/d68/classmodules_1_1cli_1_1config_1_1cli_config.html" target="_top" xlink:title=" ">
<polygon fill="white" stroke="#666666" points="262.5,-961.5 130.5,-961.5 130.5,-942.5 262.5,-942.5 262.5,-961.5"/>
<text text-anchor="middle" x="196.5" y="-949.5" font-family="Helvetica,sans-Serif" font-size="10.00">modules.cli.config.cliConfig</text>
</a>
</g>
</g>
<!-- Node0&#45;&gt;Node1 -->
<g id="edge1" class="edge">
<title>Node0&#45;&gt;Node1</title>
<path fill="none" stroke="#63b8ff" d="M40.18,-534.26C43.15,-609.9 57.4,-874.38 113,-933 117.86,-938.12 123.79,-941.99 130.23,-944.89"/>
<polygon fill="#63b8ff" stroke="#63b8ff" points="43.66,-533.67 39.8,-523.81 36.67,-533.93 43.66,-533.67"/>
</g>
<!-- Node2 -->
<g id="node3" class="node">
<title>Node2</title>
<g id="a_node3"><a xlink:href="dc/d45/classmodules_1_1cli_1_1filestrings_1_1_c_l_ifilestrings.html" target="_top" xlink:title="file construction strings">
<polygon fill="white" stroke="#666666" points="252,-924 141,-924 141,-894 252,-894 252,-924"/>
<text text-anchor="start" x="149" y="-912" font-family="Helvetica,sans-Serif" font-size="10.00">modules.cli.filestrings.</text>
<text text-anchor="middle" x="196.5" y="-901" font-family="Helvetica,sans-Serif" font-size="10.00">CLIfilestrings</text>
</a>
</g>
</g>
<!-- Node0&#45;&gt;Node2 -->
<g id="edge2" class="edge">
<title>Node0&#45;&gt;Node2</title>
<path fill="none" stroke="#63b8ff" d="M40.78,-534.05C45.62,-603.53 64.99,-832.6 113,-885 120.36,-893.03 130.22,-898.43 140.58,-902.05"/>
<polygon fill="#63b8ff" stroke="#63b8ff" points="44.25,-533.4 40.09,-523.66 37.26,-533.87 44.25,-533.4"/>
</g>
<!-- Node3 -->
<g id="node4" class="node">
<title>Node3</title>
<g id="a_node4"><a xlink:href="dd/d75/classmodules_1_1cli_1_1functions_1_1cli_functions.html" target="_top" xlink:title=" ">
<polygon fill="white" stroke="#666666" points="256,-876 137,-876 137,-846 256,-846 256,-876"/>
<text text-anchor="start" x="145" y="-864" font-family="Helvetica,sans-Serif" font-size="10.00">modules.cli.functions.cli</text>
<text text-anchor="middle" x="196.5" y="-853" font-family="Helvetica,sans-Serif" font-size="10.00">Functions</text>
</a>
</g>
</g>
<!-- Node0&#45;&gt;Node3 -->
<g id="edge3" class="edge">
<title>Node0&#45;&gt;Node3</title>
<path fill="none" stroke="#63b8ff" d="M41.41,-533.88C47.86,-597.15 70.86,-792.28 113,-837 119.55,-843.95 127.98,-848.92 136.94,-852.47"/>
<polygon fill="#63b8ff" stroke="#63b8ff" points="44.86,-533.27 40.39,-523.67 37.9,-533.96 44.86,-533.27"/>
</g>
<!-- Node4 -->
<g id="node5" class="node">
<title>Node4</title>
<g id="a_node5"><a xlink:href="d5/dc1/classmodules_1_1cli_1_1parameters_1_1cli_parameters.html" target="_top" xlink:title=" ">
<polygon fill="white" stroke="#666666" points="260.5,-828 132.5,-828 132.5,-798 260.5,-798 260.5,-828"/>
<text text-anchor="start" x="140.5" y="-816" font-family="Helvetica,sans-Serif" font-size="10.00">modules.cli.parameters.cli</text>
<text text-anchor="middle" x="196.5" y="-805" font-family="Helvetica,sans-Serif" font-size="10.00">Parameters</text>
</a>
</g>
</g>
<!-- Node0&#45;&gt;Node4 -->
<g id="edge4" class="edge">
<title>Node0&#45;&gt;Node4</title>
<path fill="none" stroke="#63b8ff" d="M38.73,-533.63C37.88,-583.36 42.75,-715.46 113,-788 118.41,-793.59 125.03,-797.94 132.14,-801.33"/>
<polygon fill="#63b8ff" stroke="#63b8ff" points="42.23,-533.67 39,-523.58 35.23,-533.48 42.23,-533.67"/>
</g>
<!-- Node5 -->
<g id="node6" class="node">
<title>Node5</title>
<g id="a_node6"><a xlink:href="dc/d95/classmodules_1_1cli_1_1setup_1_1cli_setup.html" target="_top" xlink:title=" ">
<polygon fill="white" stroke="#666666" points="261,-779.5 132,-779.5 132,-760.5 261,-760.5 261,-779.5"/>
<text text-anchor="middle" x="196.5" y="-767.5" font-family="Helvetica,sans-Serif" font-size="10.00">modules.cli.setup.cliSetup</text>
</a>
</g>
</g>
<!-- Node0&#45;&gt;Node5 -->
<g id="edge5" class="edge">
<title>Node0&#45;&gt;Node5</title>
<path fill="none" stroke="#63b8ff" d="M39.43,-533.98C40.42,-579.62 49.55,-692.1 113,-751 118.39,-756 124.82,-759.77 131.67,-762.6"/>
<polygon fill="#63b8ff" stroke="#63b8ff" points="42.93,-533.86 39.33,-523.89 35.93,-533.93 42.93,-533.86"/>
</g>
<!-- Node6 -->
<g id="node7" class="node">
<title>Node6</title>
<g id="a_node7"><a xlink:href="dd/d03/classmodules_1_1code__preview_1_1_code_preview.html" target="_top" xlink:title=" ">
<polygon fill="white" stroke="#666666" points="266.5,-1010 126.5,-1010 126.5,-980 266.5,-980 266.5,-1010"/>
<text text-anchor="start" x="134.5" y="-998" font-family="Helvetica,sans-Serif" font-size="10.00">modules.code_preview.Code</text>
<text text-anchor="middle" x="196.5" y="-987" font-family="Helvetica,sans-Serif" font-size="10.00">Preview</text>
</a>
</g>
</g>
<!-- Node0&#45;&gt;Node6 -->
<g id="edge6" class="edge">
<title>Node0&#45;&gt;Node6</title>
<path fill="none" stroke="#63b8ff" d="M39.99,-533.87C42.32,-612.85 54.79,-903.38 113,-970 116.84,-974.4 121.43,-978.03 126.44,-981.04"/>
<polygon fill="#63b8ff" stroke="#63b8ff" points="43.48,-533.71 39.71,-523.81 36.49,-533.9 43.48,-533.71"/>
</g>
<!-- Node11 -->
<g id="node8" class="node">
<title>Node11</title>
<g id="a_node8"><a xlink:href="dd/d7c/classmodules_1_1command__parameters_1_1_command_parameters_methods.html" target="_top" xlink:title=" ">
<polygon fill="white" stroke="#666666" points="274,-742 119,-742 119,-712 274,-712 274,-742"/>
<text text-anchor="start" x="127" y="-730" font-family="Helvetica,sans-Serif" font-size="10.00">modules.command_parameters.</text>
<text text-anchor="middle" x="196.5" y="-719" font-family="Helvetica,sans-Serif" font-size="10.00">CommandParametersMethods</text>
</a>
</g>
</g>
<!-- Node0&#45;&gt;Node11 -->
<g id="edge7" class="edge">
<title>Node0&#45;&gt;Node11</title>
<path fill="none" stroke="#63b8ff" d="M41.56,-534.35C46.56,-572.96 62.88,-657.1 113,-703 116.74,-706.43 120.94,-709.36 125.42,-711.89"/>
<polygon fill="#63b8ff" stroke="#63b8ff" points="44.98,-533.45 40.34,-523.92 38.02,-534.26 44.98,-533.45"/>
</g>
<!-- Node12 -->
<g id="node9" class="node">
<title>Node12</title>
<g id="a_node9"><a xlink:href="de/d14/classmodules_1_1command__tree_1_1_command_tree_methods.html" target="_top" xlink:title="self.ui.command_tree methods">
<polygon fill="white" stroke="#666666" points="280,-694 113,-694 113,-664 280,-664 280,-694"/>
<text text-anchor="start" x="121" y="-682" font-family="Helvetica,sans-Serif" font-size="10.00">modules.command_tree.Command</text>
<text text-anchor="middle" x="196.5" y="-671" font-family="Helvetica,sans-Serif" font-size="10.00">TreeMethods</text>
</a>
</g>
</g>
<!-- Node0&#45;&gt;Node12 -->
<g id="edge8" class="edge">
<title>Node0&#45;&gt;Node12</title>
<path fill="none" stroke="#63b8ff" d="M44.3,-533.37C52.85,-563.82 73.64,-622.73 113,-655 117.15,-658.4 121.77,-661.33 126.64,-663.83"/>
<polygon fill="#63b8ff" stroke="#63b8ff" points="47.64,-532.31 41.69,-523.54 40.87,-534.1 47.64,-532.31"/>
</g>
<!-- Node13 -->
<g id="node10" class="node">
<title>Node13</title>
<g id="a_node10"><a xlink:href="d7/d8c/classmodules_1_1data__models_1_1data_models.html" target="_top" xlink:title=" ">
<polygon fill="white" stroke="#666666" points="262.5,-646 130.5,-646 130.5,-616 262.5,-616 262.5,-646"/>
<text text-anchor="start" x="138.5" y="-634" font-family="Helvetica,sans-Serif" font-size="10.00">modules.data_models.data</text>
<text text-anchor="middle" x="196.5" y="-623" font-family="Helvetica,sans-Serif" font-size="10.00">Models</text>
</a>
</g>
</g>
<!-- Node0&#45;&gt;Node13 -->
<g id="edge9" class="edge">
<title>Node0&#45;&gt;Node13</title>
<path fill="none" stroke="#63b8ff" d="M49.34,-532.44C61.54,-553.54 84.26,-587.65 113,-607 118.32,-610.58 124.18,-613.64 130.25,-616.24"/>
<polygon fill="#63b8ff" stroke="#63b8ff" points="52.29,-530.54 44.36,-523.51 46.18,-533.95 52.29,-530.54"/>
</g>
<!-- Node14 -->
<g id="node11" class="node">
<title>Node14</title>
<g id="a_node11"><a xlink:href="db/dfa/classmodules_1_1display__models_1_1display_models.html" target="_top" xlink:title=" ">
<polygon fill="white" stroke="#666666" points="274,-598 119,-598 119,-568 274,-568 274,-598"/>
<text text-anchor="start" x="127" y="-586" font-family="Helvetica,sans-Serif" font-size="10.00">modules.display_models.display</text>
<text text-anchor="middle" x="196.5" y="-575" font-family="Helvetica,sans-Serif" font-size="10.00">Models</text>
</a>
</g>
</g>
<!-- Node0&#45;&gt;Node14 -->
<g id="edge10" class="edge">
<title>Node0&#45;&gt;Node14</title>
<path fill="none" stroke="#63b8ff" d="M61.27,-529.46C75.47,-539 94.7,-550.91 113,-559 120.5,-562.32 128.59,-565.32 136.67,-567.98"/>
<polygon fill="#63b8ff" stroke="#63b8ff" points="62.95,-526.37 52.72,-523.6 58.99,-532.14 62.95,-526.37"/>
</g>
<!-- Node15 -->
<g id="node12" class="node">
<title>Node15</title>
<g id="a_node12"><a xlink:href="d1/d1a/classmodules_1_1helper__methods_1_1_helper_methods.html" target="_top" xlink:title=" ">
<polygon fill="white" stroke="#666666" points="274,-550 119,-550 119,-520 274,-520 274,-550"/>
<text text-anchor="start" x="127" y="-538" font-family="Helvetica,sans-Serif" font-size="10.00">modules.helper_methods.Helper</text>
<text text-anchor="middle" x="196.5" y="-527" font-family="Helvetica,sans-Serif" font-size="10.00">Methods</text>
</a>
</g>
</g>
<!-- Node0&#45;&gt;Node15 -->
<g id="edge11" class="edge">
<title>Node0&#45;&gt;Node15</title>
<path fill="none" stroke="#63b8ff" d="M70.26,-518.14C84.3,-520.03 101.62,-522.36 118.85,-524.68"/>
<polygon fill="#63b8ff" stroke="#63b8ff" points="70.59,-514.65 60.22,-516.79 69.66,-521.59 70.59,-514.65"/>
</g>
<!-- Node16 -->
<g id="node13" class="node">
<title>Node16</title>
<g id="a_node13"><a xlink:href="d3/dd3/classmodules_1_1logging__setup_1_1_logger.html" target="_top" xlink:title="logging api">
<polygon fill="white" stroke="#666666" points="270.5,-501.5 122.5,-501.5 122.5,-482.5 270.5,-482.5 270.5,-501.5"/>
<text text-anchor="middle" x="196.5" y="-489.5" font-family="Helvetica,sans-Serif" font-size="10.00">modules.logging_setup.Logger</text>
</a>
</g>
</g>
<!-- Node0&#45;&gt;Node16 -->
<g id="edge12" class="edge">
<title>Node0&#45;&gt;Node16</title>
<path fill="none" stroke="#63b8ff" d="M70.36,-509.65C86.88,-507.32 107.91,-504.35 127.99,-501.52"/>
<polygon fill="#63b8ff" stroke="#63b8ff" points="69.63,-506.22 60.22,-511.08 70.61,-513.15 69.63,-506.22"/>
</g>
<!-- Node17 -->
<g id="node14" class="node">
<title>Node17</title>
<g id="a_node14"><a xlink:href="d9/d34/classmodules_1_1mainwindow__actions_1_1_main_window_actions.html" target="_top" xlink:title=" ">
<polygon fill="white" stroke="#666666" points="268.5,-464 124.5,-464 124.5,-434 268.5,-434 268.5,-464"/>
<text text-anchor="start" x="132.5" y="-452" font-family="Helvetica,sans-Serif" font-size="10.00">modules.mainwindow</text>
<text text-anchor="middle" x="196.5" y="-441" font-family="Helvetica,sans-Serif" font-size="10.00">_actions.MainWindowActions</text>
</a>
</g>
</g>
<!-- Node0&#45;&gt;Node17 -->
<g id="edge13" class="edge">
<title>Node0&#45;&gt;Node17</title>
<path fill="none" stroke="#63b8ff" d="M62.78,-499.23C76.91,-490.72 95.53,-480.3 113,-473 120.84,-469.72 129.29,-466.71 137.67,-464.02"/>
<polygon fill="#63b8ff" stroke="#63b8ff" points="60.9,-496.28 54.2,-504.49 64.56,-502.24 60.9,-496.28"/>
</g>
<!-- Node18 -->
<g id="node15" class="node">
<title>Node18</title>
<g id="a_node15"><a xlink:href="d1/db3/classmodules_1_1mainwindow__buttons_1_1_main_window_buttons.html" target="_top" xlink:title=" ">
<polygon fill="white" stroke="#666666" points="269.5,-416 123.5,-416 123.5,-386 269.5,-386 269.5,-416"/>
<text text-anchor="start" x="131.5" y="-404" font-family="Helvetica,sans-Serif" font-size="10.00">modules.mainwindow</text>
<text text-anchor="middle" x="196.5" y="-393" font-family="Helvetica,sans-Serif" font-size="10.00">_buttons.MainWindowButtons</text>
</a>
</g>
</g>
<!-- Node0&#45;&gt;Node18 -->
<g id="edge14" class="edge">
<title>Node0&#45;&gt;Node18</title>
<path fill="none" stroke="#63b8ff" d="M49.92,-495.74C62.39,-475.51 85.1,-443.35 113,-425 118.23,-421.56 123.97,-418.6 129.91,-416.06"/>
<polygon fill="#63b8ff" stroke="#63b8ff" points="46.91,-493.96 44.79,-504.34 52.92,-497.55 46.91,-493.96"/>
</g>
<!-- Node19 -->
<g id="node16" class="node">
<title>Node19</title>
<g id="a_node16"><a xlink:href="da/df2/classmodules_1_1parse__config_1_1_parse_input_handler_config.html" target="_top" xlink:title=" ">
<polygon fill="white" stroke="#666666" points="265.5,-368 127.5,-368 127.5,-338 265.5,-338 265.5,-368"/>
<text text-anchor="start" x="135.5" y="-356" font-family="Helvetica,sans-Serif" font-size="10.00">modules.parse_config.Parse</text>
<text text-anchor="middle" x="196.5" y="-345" font-family="Helvetica,sans-Serif" font-size="10.00">InputHandlerConfig</text>
</a>
</g>
</g>
<!-- Node0&#45;&gt;Node19 -->
<g id="edge15" class="edge">
<title>Node0&#45;&gt;Node19</title>
<path fill="none" stroke="#63b8ff" d="M44.71,-494.35C53.63,-464.53 74.69,-408.03 113,-377 117.4,-373.43 122.32,-370.4 127.5,-367.81"/>
<polygon fill="#63b8ff" stroke="#63b8ff" points="41.23,-493.79 41.87,-504.37 47.96,-495.7 41.23,-493.79"/>
</g>
<!-- Node20 -->
<g id="node17" class="node">
<title>Node20</title>
<g id="a_node17"><a xlink:href="dd/dae/classmodules_1_1preferences_1_1_preferences_methods.html" target="_top" xlink:title=" ">
<polygon fill="white" stroke="#666666" points="277,-320 116,-320 116,-290 277,-290 277,-320"/>
<text text-anchor="start" x="124" y="-308" font-family="Helvetica,sans-Serif" font-size="10.00">modules.preferences.Preferences</text>
<text text-anchor="middle" x="196.5" y="-297" font-family="Helvetica,sans-Serif" font-size="10.00">Methods</text>
</a>
</g>
</g>
<!-- Node0&#45;&gt;Node20 -->
<g id="edge16" class="edge">
<title>Node0&#45;&gt;Node20</title>
<path fill="none" stroke="#63b8ff" d="M41.69,-494.07C46.93,-456.26 63.64,-373.88 113,-329 116.75,-325.59 120.96,-322.66 125.45,-320.15"/>
<polygon fill="#63b8ff" stroke="#63b8ff" points="38.18,-493.93 40.41,-504.29 45.13,-494.8 38.18,-493.93"/>
</g>
<!-- Node21 -->
<g id="node18" class="node">
<title>Node21</title>
<g id="a_node18"><a xlink:href="d2/db5/classmodules_1_1settings__tree_1_1_settings_tree_methods.html" target="_top" xlink:title=" ">
<polygon fill="white" stroke="#666666" points="271.5,-272 121.5,-272 121.5,-242 271.5,-242 271.5,-272"/>
<text text-anchor="start" x="129.5" y="-260" font-family="Helvetica,sans-Serif" font-size="10.00">modules.settings_tree.Settings</text>
<text text-anchor="middle" x="196.5" y="-249" font-family="Helvetica,sans-Serif" font-size="10.00">TreeMethods</text>
</a>
</g>
</g>
<!-- Node0&#45;&gt;Node21 -->
<g id="edge17" class="edge">
<title>Node0&#45;&gt;Node21</title>
<path fill="none" stroke="#63b8ff" d="M39.79,-494.31C41.54,-449.75 52.18,-340.47 113,-281 116.52,-277.56 120.5,-274.61 124.77,-272.07"/>
<polygon fill="#63b8ff" stroke="#63b8ff" points="36.29,-494.3 39.51,-504.4 43.29,-494.5 36.29,-494.3"/>
</g>
<!-- Node22 -->
<g id="node19" class="node">
<title>Node22</title>
<g id="a_node19"><a xlink:href="de/d9f/classmodules_1_1settings__tree__table__methods_1_1_settings_tree_table_methods.html" target="_top" xlink:title=" ">
<polygon fill="white" stroke="#666666" points="268,-223.5 125,-223.5 125,-182.5 268,-182.5 268,-223.5"/>
<text text-anchor="start" x="133" y="-211.5" font-family="Helvetica,sans-Serif" font-size="10.00">modules.settings_tree</text>
<text text-anchor="start" x="133" y="-200.5" font-family="Helvetica,sans-Serif" font-size="10.00">_table_methods.SettingsTree</text>
<text text-anchor="middle" x="196.5" y="-189.5" font-family="Helvetica,sans-Serif" font-size="10.00">TableMethods</text>
</a>
</g>
</g>
<!-- Node0&#45;&gt;Node22 -->
<g id="edge18" class="edge">
<title>Node0&#45;&gt;Node22</title>
<path fill="none" stroke="#63b8ff" d="M38.8,-494.11C38.13,-443.68 43.37,-309.42 113,-233 116.49,-229.17 120.51,-225.83 124.85,-222.91"/>
<polygon fill="#63b8ff" stroke="#63b8ff" points="35.31,-494.38 39.04,-504.3 42.3,-494.22 35.31,-494.38"/>
</g>
<!-- Node23 -->
<g id="node20" class="node">
<title>Node23</title>
<g id="a_node20"><a xlink:href="df/def/classuic_1_1command_parameters_dialog_1_1_ui__command_parameters_dialog.html" target="_top" xlink:title=" ">
<polygon fill="white" stroke="#666666" points="273.5,-164 119.5,-164 119.5,-134 273.5,-134 273.5,-164"/>
<text text-anchor="start" x="127.5" y="-152" font-family="Helvetica,sans-Serif" font-size="10.00">uic.commandParametersDialog.</text>
<text text-anchor="middle" x="196.5" y="-141" font-family="Helvetica,sans-Serif" font-size="10.00">Ui_commandParametersDialog</text>
</a>
</g>
</g>
<!-- Node0&#45;&gt;Node23 -->
<g id="edge19" class="edge">
<title>Node0&#45;&gt;Node23</title>
<path fill="none" stroke="#63b8ff" d="M41.13,-494.31C46.93,-428.94 68.61,-220.65 113,-173 116.15,-169.62 119.75,-166.7 123.64,-164.19"/>
<polygon fill="#63b8ff" stroke="#63b8ff" points="37.63,-494.2 40.26,-504.47 44.6,-494.8 37.63,-494.2"/>
</g>
<!-- Node24 -->
<g id="node21" class="node">
<title>Node24</title>
<g id="a_node21"><a xlink:href="d3/d1e/classuic_1_1log_history_dialog_1_1_ui__log_history_dialog.html" target="_top" xlink:title=" ">
<polygon fill="white" stroke="#666666" points="253.5,-116 139.5,-116 139.5,-86 253.5,-86 253.5,-116"/>
<text text-anchor="start" x="147.5" y="-104" font-family="Helvetica,sans-Serif" font-size="10.00">uic.logHistoryDialog.Ui</text>
<text text-anchor="middle" x="196.5" y="-93" font-family="Helvetica,sans-Serif" font-size="10.00">_logHistoryDialog</text>
</a>
</g>
</g>
<!-- Node0&#45;&gt;Node24 -->
<g id="edge20" class="edge">
<title>Node0&#45;&gt;Node24</title>
<path fill="none" stroke="#63b8ff" d="M40.58,-493.91C44.85,-422.21 62.78,-180.31 113,-125 120.02,-117.27 129.37,-111.97 139.25,-108.36"/>
<polygon fill="#63b8ff" stroke="#63b8ff" points="37.07,-494.05 40,-504.23 44.06,-494.45 37.07,-494.05"/>
</g>
<!-- Node25 -->
<g id="node22" class="node">
<title>Node25</title>
<g id="a_node22"><a xlink:href="d1/d3a/classuic_1_1main_window_1_1_ui___main_window.html" target="_top" xlink:title=" ">
<polygon fill="white" stroke="#666666" points="276.5,-67.5 116.5,-67.5 116.5,-48.5 276.5,-48.5 276.5,-67.5"/>
<text text-anchor="middle" x="196.5" y="-55.5" font-family="Helvetica,sans-Serif" font-size="10.00">uic.mainWindow.Ui_MainWindow</text>
</a>
</g>
</g>
<!-- Node0&#45;&gt;Node25 -->
<g id="edge21" class="edge">
<title>Node0&#45;&gt;Node25</title>
<path fill="none" stroke="#63b8ff" d="M40.02,-493.86C42.43,-416.35 55.05,-138.52 113,-77 116.53,-73.26 120.63,-70.18 125.09,-67.66"/>
<polygon fill="#63b8ff" stroke="#63b8ff" points="36.51,-494.07 39.72,-504.16 43.51,-494.27 36.51,-494.07"/>
</g>
<!-- Node26 -->
<g id="node23" class="node">
<title>Node26</title>
<g id="a_node23"><a xlink:href="d9/d82/classuic_1_1preferences_dialog_1_1_ui___preferences.html" target="_top" xlink:title=" ">
<polygon fill="white" stroke="#666666" points="257.5,-30 135.5,-30 135.5,0 257.5,0 257.5,-30"/>
<text text-anchor="start" x="143.5" y="-18" font-family="Helvetica,sans-Serif" font-size="10.00">uic.preferencesDialog.Ui</text>
<text text-anchor="middle" x="196.5" y="-7" font-family="Helvetica,sans-Serif" font-size="10.00">_Preferences</text>
</a>
</g>
</g>
<!-- Node0&#45;&gt;Node26 -->
<g id="edge22" class="edge">
<title>Node0&#45;&gt;Node26</title>
<path fill="none" stroke="#63b8ff" d="M39.83,-493.82C41.58,-412.28 52.12,-108.33 113,-39 119,-32.16 126.83,-27.22 135.27,-23.66"/>
<polygon fill="#63b8ff" stroke="#63b8ff" points="36.32,-494.11 39.63,-504.18 43.32,-494.25 36.32,-494.11"/>
</g>
<!-- Node7 -->
<g id="node24" class="node">
<title>Node7</title>
<g id="a_node24"><a xlink:title=" ">
<polygon fill="#e0e0e0" stroke="#999999" points="65,-1059.5 12,-1059.5 12,-1040.5 65,-1040.5 65,-1059.5"/>
<text text-anchor="middle" x="38.5" y="-1047.5" font-family="Helvetica,sans-Serif" font-size="10.00">cliConfig</text>
</a>
</g>
</g>
<!-- Node7&#45;&gt;Node6 -->
<g id="edge23" class="edge">
<title>Node7&#45;&gt;Node6</title>
<path fill="none" stroke="#63b8ff" d="M74.71,-1037.59C97.89,-1029.41 128.37,-1018.67 152.91,-1010.01"/>
<polygon fill="#63b8ff" stroke="#63b8ff" points="73.53,-1034.29 65.26,-1040.92 75.86,-1040.89 73.53,-1034.29"/>
</g>
<!-- Node8 -->
<g id="node25" class="node">
<title>Node8</title>
<g id="a_node25"><a xlink:title=" ">
<polygon fill="#e0e0e0" stroke="#999999" points="73,-1022.5 4,-1022.5 4,-1003.5 73,-1003.5 73,-1022.5"/>
<text text-anchor="middle" x="38.5" y="-1010.5" font-family="Helvetica,sans-Serif" font-size="10.00">cliFunctions</text>
</a>
</g>
</g>
<!-- Node8&#45;&gt;Node6 -->
<g id="edge24" class="edge">
<title>Node8&#45;&gt;Node6</title>
<path fill="none" stroke="#63b8ff" d="M83.65,-1007.91C96.97,-1006.37 111.93,-1004.64 126.47,-1002.97"/>
<polygon fill="#63b8ff" stroke="#63b8ff" points="82.88,-1004.47 73.35,-1009.09 83.68,-1011.42 82.88,-1004.47"/>
</g>
<!-- Node9 -->
<g id="node26" class="node">
<title>Node9</title>
<g id="a_node26"><a xlink:title=" ">
<polygon fill="#e0e0e0" stroke="#999999" points="77,-985.5 0,-985.5 0,-966.5 77,-966.5 77,-985.5"/>
<text text-anchor="middle" x="38.5" y="-973.5" font-family="Helvetica,sans-Serif" font-size="10.00">cliParameters</text>
</a>
</g>
</g>
<!-- Node9&#45;&gt;Node6 -->
<g id="edge25" class="edge">
<title>Node9&#45;&gt;Node6</title>
<path fill="none" stroke="#63b8ff" d="M87.32,-981.82C99.66,-983.33 113.19,-984.98 126.38,-986.58"/>
<polygon fill="#63b8ff" stroke="#63b8ff" points="87.61,-978.33 77.26,-980.6 86.77,-985.28 87.61,-978.33"/>
</g>
<!-- Node10 -->
<g id="node27" class="node">
<title>Node10</title>
<g id="a_node27"><a xlink:title=" ">
<polygon fill="#e0e0e0" stroke="#999999" points="64.5,-948.5 12.5,-948.5 12.5,-929.5 64.5,-929.5 64.5,-948.5"/>
<text text-anchor="middle" x="38.5" y="-936.5" font-family="Helvetica,sans-Serif" font-size="10.00">cliSetup</text>
</a>
</g>
</g>
<!-- Node10&#45;&gt;Node6 -->
<g id="edge26" class="edge">
<title>Node10&#45;&gt;Node6</title>
<path fill="none" stroke="#63b8ff" d="M69.98,-952.7C83.1,-958.38 98.68,-964.83 113,-970 122.57,-973.46 132.88,-976.84 142.86,-979.95"/>
<polygon fill="#63b8ff" stroke="#63b8ff" points="71.06,-949.35 60.5,-948.55 68.25,-955.77 71.06,-949.35"/>
</g>
</g>
</svg>
