<?xml version="1.0" encoding="UTF-8" standalone="no"?>
<!DOCTYPE svg PUBLIC "-//W3C//DTD SVG 1.1//EN"
 "http://www.w3.org/Graphics/SVG/1.1/DTD/svg11.dtd">
<!-- Generated by graphviz version 5.0.0 (20220708.1001)
 -->
<!-- Title: Graphical Class Hierarchy Pages: 1 -->
<svg width="280pt" height="923pt"
 viewBox="0.00 0.00 280.00 923.00" xmlns="http://www.w3.org/2000/svg" xmlns:xlink="http://www.w3.org/1999/xlink">
<g id="graph0" class="graph" transform="scale(1 1) rotate(0) translate(4 919)">
<title>Graphical Class Hierarchy</title>
<!-- Node0 -->
<g id="node1" class="node">
<title>Node0</title>
<g id="a_node1"><a xlink:title=" ">
<polygon fill="none" stroke="#bfbfbf" points="13,-436.5 13,-455.5 56,-455.5 56,-436.5 13,-436.5"/>
<text text-anchor="middle" x="34.5" y="-443.5" font-family="Helvetica,sans-Serif" font-size="10.00">object</text>
</a>
</g>
</g>
<!-- Node1 -->
<g id="node2" class="node">
<title>Node1</title>
<g id="a_node2"><a xlink:href="d5/d68/classmodules_1_1cli_1_1config_1_1cli_config.html" target="_top" xlink:title=" ">
<polygon fill="none" stroke="black" points="122.5,-813.5 122.5,-832.5 254.5,-832.5 254.5,-813.5 122.5,-813.5"/>
<text text-anchor="middle" x="188.5" y="-820.5" font-family="Helvetica,sans-Serif" font-size="10.00">modules.cli.config.cliConfig</text>
</a>
</g>
</g>
<!-- Node0&#45;&gt;Node1 -->
<g id="edge1" class="edge">
<title>Node0&#45;&gt;Node1</title>
<path fill="none" stroke="midnightblue" d="M36.61,-465.81C40.8,-533.43 57.89,-753.69 105,-803 109.89,-808.11 115.84,-812.01 122.29,-814.98"/>
<polygon fill="midnightblue" stroke="midnightblue" points="40.09,-465.44 36.01,-455.67 33.11,-465.86 40.09,-465.44"/>
</g>
<!-- Node2 -->
<g id="node3" class="node">
<title>Node2</title>
<g id="a_node3"><a xlink:href="dc/d45/classmodules_1_1cli_1_1filestrings_1_1_c_l_ifilestrings.html" target="_top" xlink:title="file construction strings">
<polygon fill="none" stroke="black" points="133,-764 133,-794 244,-794 244,-764 133,-764"/>
<text text-anchor="start" x="141" y="-782" font-family="Helvetica,sans-Serif" font-size="10.00">modules.cli.filestrings.</text>
<text text-anchor="middle" x="188.5" y="-771" font-family="Helvetica,sans-Serif" font-size="10.00">CLIfilestrings</text>
</a>
</g>
</g>
<!-- Node0&#45;&gt;Node2 -->
<g id="edge2" class="edge">
<title>Node0&#45;&gt;Node2</title>
<path fill="none" stroke="midnightblue" d="M37.38,-465.72C43.57,-526.79 65.28,-711.3 105,-754 112.44,-762 122.35,-767.47 132.71,-771.2"/>
<polygon fill="midnightblue" stroke="midnightblue" points="40.84,-465.12 36.37,-455.52 33.87,-465.81 40.84,-465.12"/>
</g>
<!-- Node3 -->
<g id="node4" class="node">
<title>Node3</title>
<g id="a_node4"><a xlink:href="dd/d75/classmodules_1_1cli_1_1functions_1_1cli_functions.html" target="_top" xlink:title=" ">
<polygon fill="none" stroke="black" points="129,-715 129,-745 248,-745 248,-715 129,-715"/>
<text text-anchor="start" x="137" y="-733" font-family="Helvetica,sans-Serif" font-size="10.00">modules.cli.functions.cli</text>
<text text-anchor="middle" x="188.5" y="-722" font-family="Helvetica,sans-Serif" font-size="10.00">Functions</text>
</a>
</g>
</g>
<!-- Node0&#45;&gt;Node3 -->
<g id="edge3" class="edge">
<title>Node0&#45;&gt;Node3</title>
<path fill="none" stroke="midnightblue" d="M34.75,-465.81C34.06,-513.74 39.17,-637.03 105,-705 111.56,-711.77 119.89,-716.73 128.71,-720.35"/>
<polygon fill="midnightblue" stroke="midnightblue" points="38.26,-465.64 35.01,-455.56 31.26,-465.47 38.26,-465.64"/>
</g>
<!-- Node4 -->
<g id="node5" class="node">
<title>Node4</title>
<g id="a_node5"><a xlink:href="d5/dc1/classmodules_1_1cli_1_1parameters_1_1cli_parameters.html" target="_top" xlink:title=" ">
<polygon fill="none" stroke="black" points="124.5,-666 124.5,-696 252.5,-696 252.5,-666 124.5,-666"/>
<text text-anchor="start" x="132.5" y="-684" font-family="Helvetica,sans-Serif" font-size="10.00">modules.cli.parameters.cli</text>
<text text-anchor="middle" x="188.5" y="-673" font-family="Helvetica,sans-Serif" font-size="10.00">Parameters</text>
</a>
</g>
</g>
<!-- Node0&#45;&gt;Node4 -->
<g id="edge4" class="edge">
<title>Node0&#45;&gt;Node4</title>
<path fill="none" stroke="midnightblue" d="M36.22,-465.63C38.82,-506.87 50.71,-603.07 105,-656 110.57,-661.43 117.28,-665.69 124.44,-669.02"/>
<polygon fill="midnightblue" stroke="midnightblue" points="39.71,-465.35 35.71,-455.54 32.72,-465.7 39.71,-465.35"/>
</g>
<!-- Node5 -->
<g id="node6" class="node">
<title>Node5</title>
<g id="a_node6"><a xlink:href="dc/d95/classmodules_1_1cli_1_1setup_1_1cli_setup.html" target="_top" xlink:title=" ">
<polygon fill="none" stroke="black" points="124,-627.5 124,-646.5 253,-646.5 253,-627.5 124,-627.5"/>
<text text-anchor="middle" x="188.5" y="-634.5" font-family="Helvetica,sans-Serif" font-size="10.00">modules.cli.setup.cliSetup</text>
</a>
</g>
</g>
<!-- Node0&#45;&gt;Node5 -->
<g id="edge5" class="edge">
<title>Node0&#45;&gt;Node5</title>
<path fill="none" stroke="midnightblue" d="M37.75,-466.09C42.87,-502 58.78,-577.17 105,-617 110.47,-621.71 116.87,-625.36 123.64,-628.16"/>
<polygon fill="midnightblue" stroke="midnightblue" points="41.18,-465.37 36.44,-455.9 34.24,-466.27 41.18,-465.37"/>
</g>
<!-- Node6 -->
<g id="node7" class="node">
<title>Node6</title>
<g id="a_node7"><a xlink:href="dd/d03/classmodules_1_1code__preview_1_1_code_preview.html" target="_top" xlink:title=" ">
<polygon fill="none" stroke="black" points="118.5,-852 118.5,-882 258.5,-882 258.5,-852 118.5,-852"/>
<text text-anchor="start" x="126.5" y="-870" font-family="Helvetica,sans-Serif" font-size="10.00">modules.code_preview.Code</text>
<text text-anchor="middle" x="188.5" y="-859" font-family="Helvetica,sans-Serif" font-size="10.00">Preview</text>
</a>
</g>
</g>
<!-- Node0&#45;&gt;Node6 -->
<g id="edge6" class="edge">
<title>Node0&#45;&gt;Node6</title>
<path fill="none" stroke="midnightblue" d="M36.31,-465.95C39.64,-538.23 54.57,-785.09 105,-842 108.77,-846.26 113.24,-849.8 118.12,-852.75"/>
<polygon fill="midnightblue" stroke="midnightblue" points="39.79,-465.4 35.86,-455.57 32.8,-465.71 39.79,-465.4"/>
</g>
<!-- Node10 -->
<g id="node8" class="node">
<title>Node10</title>
<g id="a_node8"><a xlink:href="dd/d7c/classmodules_1_1command__parameters_1_1_command_parameters_methods.html" target="_top" xlink:title=" ">
<polygon fill="none" stroke="black" points="111,-578 111,-608 266,-608 266,-578 111,-578"/>
<text text-anchor="start" x="119" y="-596" font-family="Helvetica,sans-Serif" font-size="10.00">modules.command_parameters.</text>
<text text-anchor="middle" x="188.5" y="-585" font-family="Helvetica,sans-Serif" font-size="10.00">CommandParametersMethods</text>
</a>
</g>
</g>
<!-- Node0&#45;&gt;Node10 -->
<g id="edge7" class="edge">
<title>Node0&#45;&gt;Node10</title>
<path fill="none" stroke="midnightblue" d="M41.41,-465.35C50.64,-492.3 71.01,-540.87 105,-568 109.8,-571.83 115.17,-575.07 120.82,-577.82"/>
<polygon fill="midnightblue" stroke="midnightblue" points="44.65,-463.98 38.23,-455.55 37.99,-466.15 44.65,-463.98"/>
</g>
<!-- Node11 -->
<g id="node9" class="node">
<title>Node11</title>
<g id="a_node9"><a xlink:href="de/d14/classmodules_1_1command__tree_1_1_command_tree_methods.html" target="_top" xlink:title=" ">
<polygon fill="none" stroke="black" points="105,-529 105,-559 272,-559 272,-529 105,-529"/>
<text text-anchor="start" x="113" y="-547" font-family="Helvetica,sans-Serif" font-size="10.00">modules.command_tree.Command</text>
<text text-anchor="middle" x="188.5" y="-536" font-family="Helvetica,sans-Serif" font-size="10.00">TreeMethods</text>
</a>
</g>
</g>
<!-- Node0&#45;&gt;Node11 -->
<g id="edge8" class="edge">
<title>Node0&#45;&gt;Node11</title>
<path fill="none" stroke="midnightblue" d="M48.16,-463.86C60.78,-480.42 81.62,-504.6 105,-519 111.24,-522.85 118.12,-526.14 125.16,-528.94"/>
<polygon fill="midnightblue" stroke="midnightblue" points="50.79,-461.53 42.03,-455.56 45.16,-465.68 50.79,-461.53"/>
</g>
<!-- Node12 -->
<g id="node10" class="node">
<title>Node12</title>
<g id="a_node10"><a xlink:href="d7/d8c/classmodules_1_1data__models_1_1data_models.html" target="_top" xlink:title=" ">
<polygon fill="none" stroke="black" points="122.5,-480 122.5,-510 254.5,-510 254.5,-480 122.5,-480"/>
<text text-anchor="start" x="130.5" y="-498" font-family="Helvetica,sans-Serif" font-size="10.00">modules.data_models.data</text>
<text text-anchor="middle" x="188.5" y="-487" font-family="Helvetica,sans-Serif" font-size="10.00">Models</text>
</a>
</g>
</g>
<!-- Node0&#45;&gt;Node12 -->
<g id="edge9" class="edge">
<title>Node0&#45;&gt;Node12</title>
<path fill="none" stroke="midnightblue" d="M65.78,-456.74C77.93,-460.97 92.1,-465.82 105,-470 115.25,-473.32 126.26,-476.75 136.79,-479.97"/>
<polygon fill="midnightblue" stroke="midnightblue" points="66.7,-453.35 56.11,-453.35 64.39,-459.96 66.7,-453.35"/>
</g>
<!-- Node13 -->
<g id="node11" class="node">
<title>Node13</title>
<g id="a_node11"><a xlink:href="d1/d1a/classmodules_1_1helper__methods_1_1_helper_methods.html" target="_top" xlink:title=" ">
<polygon fill="none" stroke="black" points="111,-431 111,-461 266,-461 266,-431 111,-431"/>
<text text-anchor="start" x="119" y="-449" font-family="Helvetica,sans-Serif" font-size="10.00">modules.helper_methods.Helper</text>
<text text-anchor="middle" x="188.5" y="-438" font-family="Helvetica,sans-Serif" font-size="10.00">Methods</text>
</a>
</g>
</g>
<!-- Node0&#45;&gt;Node13 -->
<g id="edge10" class="edge">
<title>Node0&#45;&gt;Node13</title>
<path fill="none" stroke="midnightblue" d="M66.52,-446C79.51,-446 95.24,-446 110.99,-446"/>
<polygon fill="midnightblue" stroke="midnightblue" points="66.32,-442.5 56.32,-446 66.32,-449.5 66.32,-442.5"/>
</g>
<!-- Node14 -->
<g id="node12" class="node">
<title>Node14</title>
<g id="a_node12"><a xlink:href="d3/dd3/classmodules_1_1logging__setup_1_1_logger.html" target="_top" xlink:title=" ">
<polygon fill="none" stroke="black" points="114.5,-392.5 114.5,-411.5 262.5,-411.5 262.5,-392.5 114.5,-392.5"/>
<text text-anchor="middle" x="188.5" y="-399.5" font-family="Helvetica,sans-Serif" font-size="10.00">modules.logging_setup.Logger</text>
</a>
</g>
</g>
<!-- Node0&#45;&gt;Node14 -->
<g id="edge11" class="edge">
<title>Node0&#45;&gt;Node14</title>
<path fill="none" stroke="midnightblue" d="M65.87,-434.19C77.94,-429.73 92.02,-424.81 105,-421 116.7,-417.56 129.49,-414.35 141.43,-411.59"/>
<polygon fill="midnightblue" stroke="midnightblue" points="64.4,-431 56.27,-437.8 66.86,-437.56 64.4,-431"/>
</g>
<!-- Node15 -->
<g id="node13" class="node">
<title>Node15</title>
<g id="a_node13"><a xlink:href="d9/d34/classmodules_1_1mainwindow__actions_1_1_main_window_actions.html" target="_top" xlink:title=" ">
<polygon fill="none" stroke="black" points="116.5,-343 116.5,-373 260.5,-373 260.5,-343 116.5,-343"/>
<text text-anchor="start" x="124.5" y="-361" font-family="Helvetica,sans-Serif" font-size="10.00">modules.mainwindow</text>
<text text-anchor="middle" x="188.5" y="-350" font-family="Helvetica,sans-Serif" font-size="10.00">_actions.MainWindowActions</text>
</a>
</g>
</g>
<!-- Node0&#45;&gt;Node15 -->
<g id="edge12" class="edge">
<title>Node0&#45;&gt;Node15</title>
<path fill="none" stroke="midnightblue" d="M50.32,-428.87C63.41,-414.72 83.68,-395.08 105,-383 111.77,-379.16 119.2,-375.86 126.73,-373.02"/>
<polygon fill="midnightblue" stroke="midnightblue" points="47.58,-426.68 43.49,-436.46 52.78,-431.36 47.58,-426.68"/>
</g>
<!-- Node16 -->
<g id="node14" class="node">
<title>Node16</title>
<g id="a_node14"><a xlink:href="d1/db3/classmodules_1_1mainwindow__buttons_1_1_main_window_buttons.html" target="_top" xlink:title=" ">
<polygon fill="none" stroke="black" points="115.5,-294 115.5,-324 261.5,-324 261.5,-294 115.5,-294"/>
<text text-anchor="start" x="123.5" y="-312" font-family="Helvetica,sans-Serif" font-size="10.00">modules.mainwindow</text>
<text text-anchor="middle" x="188.5" y="-301" font-family="Helvetica,sans-Serif" font-size="10.00">_buttons.MainWindowButtons</text>
</a>
</g>
</g>
<!-- Node0&#45;&gt;Node16 -->
<g id="edge13" class="edge">
<title>Node0&#45;&gt;Node16</title>
<path fill="none" stroke="midnightblue" d="M42.2,-426.94C52.03,-401.7 72.78,-357.55 105,-333 109.51,-329.56 114.5,-326.62 119.72,-324.1"/>
<polygon fill="midnightblue" stroke="midnightblue" points="38.85,-425.89 38.65,-436.48 45.41,-428.33 38.85,-425.89"/>
</g>
<!-- Node17 -->
<g id="node15" class="node">
<title>Node17</title>
<g id="a_node15"><a xlink:href="da/df2/classmodules_1_1parse__config_1_1_parse_input_handler_config.html" target="_top" xlink:title=" ">
<polygon fill="none" stroke="black" points="119.5,-245 119.5,-275 257.5,-275 257.5,-245 119.5,-245"/>
<text text-anchor="start" x="127.5" y="-263" font-family="Helvetica,sans-Serif" font-size="10.00">modules.parse_config.Parse</text>
<text text-anchor="middle" x="188.5" y="-252" font-family="Helvetica,sans-Serif" font-size="10.00">InputHandlerConfig</text>
</a>
</g>
</g>
<!-- Node0&#45;&gt;Node17 -->
<g id="edge14" class="edge">
<title>Node0&#45;&gt;Node17</title>
<path fill="none" stroke="midnightblue" d="M38.42,-426.22C44.5,-392.12 61.75,-322.26 105,-284 109.25,-280.24 114.05,-277.07 119.15,-274.4"/>
<polygon fill="midnightblue" stroke="midnightblue" points="34.93,-425.88 36.76,-436.31 41.84,-427.01 34.93,-425.88"/>
</g>
<!-- Node18 -->
<g id="node16" class="node">
<title>Node18</title>
<g id="a_node16"><a xlink:href="d2/db5/classmodules_1_1settings__tree_1_1_settings_tree_methods.html" target="_top" xlink:title=" ">
<polygon fill="none" stroke="black" points="113.5,-196 113.5,-226 263.5,-226 263.5,-196 113.5,-196"/>
<text text-anchor="start" x="121.5" y="-214" font-family="Helvetica,sans-Serif" font-size="10.00">modules.settings_tree.Settings</text>
<text text-anchor="middle" x="188.5" y="-203" font-family="Helvetica,sans-Serif" font-size="10.00">TreeMethods</text>
</a>
</g>
</g>
<!-- Node0&#45;&gt;Node18 -->
<g id="edge15" class="edge">
<title>Node0&#45;&gt;Node18</title>
<path fill="none" stroke="midnightblue" d="M36.15,-426.23C38.6,-384.7 50.22,-287.89 105,-235 108.54,-231.58 112.54,-228.64 116.82,-226.12"/>
<polygon fill="midnightblue" stroke="midnightblue" points="32.64,-426.24 35.67,-436.39 39.63,-426.57 32.64,-426.24"/>
</g>
<!-- Node19 -->
<g id="node17" class="node">
<title>Node19</title>
<g id="a_node17"><a xlink:href="de/d9f/classmodules_1_1settings__tree__table__methods_1_1_settings_tree_table_methods.html" target="_top" xlink:title=" ">
<polygon fill="none" stroke="black" points="117,-136.5 117,-177.5 260,-177.5 260,-136.5 117,-136.5"/>
<text text-anchor="start" x="125" y="-165.5" font-family="Helvetica,sans-Serif" font-size="10.00">modules.settings_tree</text>
<text text-anchor="start" x="125" y="-154.5" font-family="Helvetica,sans-Serif" font-size="10.00">_table_methods.SettingsTree</text>
<text text-anchor="middle" x="188.5" y="-143.5" font-family="Helvetica,sans-Serif" font-size="10.00">TableMethods</text>
</a>
</g>
</g>
<!-- Node0&#45;&gt;Node19 -->
<g id="edge16" class="edge">
<title>Node0&#45;&gt;Node19</title>
<path fill="none" stroke="midnightblue" d="M34.92,-426.3C34.6,-378.6 40.48,-255.68 105,-186 108.51,-182.21 112.54,-178.92 116.89,-176.06"/>
<polygon fill="midnightblue" stroke="midnightblue" points="31.42,-426.56 35.09,-436.5 38.42,-426.44 31.42,-426.56"/>
</g>
<!-- Node20 -->
<g id="node18" class="node">
<title>Node20</title>
<g id="a_node18"><a xlink:href="df/def/classuic_1_1command_parameters_dialog_1_1_ui__command_parameters_dialog.html" target="_top" xlink:title=" ">
<polygon fill="none" stroke="black" points="111.5,-88 111.5,-118 265.5,-118 265.5,-88 111.5,-88"/>
<text text-anchor="start" x="119.5" y="-106" font-family="Helvetica,sans-Serif" font-size="10.00">uic.commandParametersDialog.</text>
<text text-anchor="middle" x="188.5" y="-95" font-family="Helvetica,sans-Serif" font-size="10.00">Ui_commandParametersDialog</text>
</a>
</g>
</g>
<!-- Node0&#45;&gt;Node20 -->
<g id="edge17" class="edge">
<title>Node0&#45;&gt;Node20</title>
<path fill="none" stroke="midnightblue" d="M37.18,-426.37C42.91,-363.92 63.67,-171.27 105,-127 108.16,-123.62 111.76,-120.71 115.65,-118.2"/>
<polygon fill="midnightblue" stroke="midnightblue" points="33.68,-426.19 36.28,-436.46 40.66,-426.81 33.68,-426.19"/>
</g>
<!-- Node21 -->
<g id="node19" class="node">
<title>Node21</title>
<g id="a_node19"><a xlink:href="d3/d1e/classuic_1_1log_history_dialog_1_1_ui__log_history_dialog.html" target="_top" xlink:title=" ">
<polygon fill="none" stroke="black" points="131.5,-39 131.5,-69 245.5,-69 245.5,-39 131.5,-39"/>
<text text-anchor="start" x="139.5" y="-57" font-family="Helvetica,sans-Serif" font-size="10.00">uic.logHistoryDialog.Ui</text>
<text text-anchor="middle" x="188.5" y="-46" font-family="Helvetica,sans-Serif" font-size="10.00">_logHistoryDialog</text>
</a>
</g>
</g>
<!-- Node0&#45;&gt;Node21 -->
<g id="edge18" class="edge">
<title>Node0&#45;&gt;Node21</title>
<path fill="none" stroke="midnightblue" d="M36.58,-426.12C40.7,-357.23 57.69,-130.1 105,-78 112.02,-70.27 121.37,-64.97 131.25,-61.36"/>
<polygon fill="midnightblue" stroke="midnightblue" points="33.06,-426.24 35.99,-436.42 40.05,-426.64 33.06,-426.24"/>
</g>
<!-- Node22 -->
<g id="node20" class="node">
<title>Node22</title>
<g id="a_node20"><a xlink:href="d1/d3a/classuic_1_1main_window_1_1_ui___main_window.html" target="_top" xlink:title=" ">
<polygon fill="none" stroke="black" points="108.5,-0.5 108.5,-19.5 268.5,-19.5 268.5,-0.5 108.5,-0.5"/>
<text text-anchor="middle" x="188.5" y="-7.5" font-family="Helvetica,sans-Serif" font-size="10.00">uic.mainWindow.Ui_MainWindow</text>
</a>
</g>
</g>
<!-- Node0&#45;&gt;Node22 -->
<g id="edge19" class="edge">
<title>Node0&#45;&gt;Node22</title>
<path fill="none" stroke="midnightblue" d="M35.99,-425.84C38.24,-350.6 49.99,-87.49 105,-29 108.52,-25.25 112.63,-22.18 117.08,-19.65"/>
<polygon fill="midnightblue" stroke="midnightblue" points="32.48,-426.15 35.71,-436.25 39.48,-426.35 32.48,-426.15"/>
</g>
<!-- Node7 -->
<g id="node21" class="node">
<title>Node7</title>
<g id="a_node21"><a xlink:title=" ">
<polygon fill="none" stroke="#bfbfbf" points="8,-895.5 8,-914.5 61,-914.5 61,-895.5 8,-895.5"/>
<text text-anchor="middle" x="34.5" y="-902.5" font-family="Helvetica,sans-Serif" font-size="10.00">cliConfig</text>
</a>
</g>
</g>
<!-- Node7&#45;&gt;Node6 -->
<g id="edge20" class="edge">
<title>Node7&#45;&gt;Node6</title>
<path fill="none" stroke="midnightblue" d="M71.2,-896.08C87.95,-891.89 108.38,-886.78 127.42,-882.02"/>
<polygon fill="midnightblue" stroke="midnightblue" points="70.14,-892.73 61.28,-898.55 71.84,-899.52 70.14,-892.73"/>
</g>
<!-- Node8 -->
<g id="node22" class="node">
<title>Node8</title>
<g id="a_node22"><a xlink:title=" ">
<polygon fill="none" stroke="#bfbfbf" points="0,-857.5 0,-876.5 69,-876.5 69,-857.5 0,-857.5"/>
<text text-anchor="middle" x="34.5" y="-864.5" font-family="Helvetica,sans-Serif" font-size="10.00">cliFunctions</text>
</a>
</g>
</g>
<!-- Node8&#45;&gt;Node6 -->
<g id="edge21" class="edge">
<title>Node8&#45;&gt;Node6</title>
<path fill="none" stroke="midnightblue" d="M79.53,-867C91.67,-867 105.16,-867 118.36,-867"/>
<polygon fill="midnightblue" stroke="midnightblue" points="79.23,-863.5 69.23,-867 79.23,-870.5 79.23,-863.5"/>
</g>
<!-- Node9 -->
<g id="node23" class="node">
<title>Node9</title>
<g id="a_node23"><a xlink:title=" ">
<polygon fill="none" stroke="#bfbfbf" points="8.5,-819.5 8.5,-838.5 60.5,-838.5 60.5,-819.5 8.5,-819.5"/>
<text text-anchor="middle" x="34.5" y="-826.5" font-family="Helvetica,sans-Serif" font-size="10.00">cliSetup</text>
</a>
</g>
</g>
<!-- Node9&#45;&gt;Node6 -->
<g id="edge22" class="edge">
<title>Node9&#45;&gt;Node6</title>
<path fill="none" stroke="midnightblue" d="M70.53,-837.76C87.36,-841.96 108,-847.13 127.24,-851.93"/>
<polygon fill="midnightblue" stroke="midnightblue" points="71.15,-834.3 60.6,-835.27 69.45,-841.1 71.15,-834.3"/>
</g>
</g>
</svg>
