<?xml version="1.0" encoding="UTF-8" standalone="no"?>
<!DOCTYPE svg PUBLIC "-//W3C//DTD SVG 1.1//EN"
 "http://www.w3.org/Graphics/SVG/1.1/DTD/svg11.dtd">
<!-- Generated by graphviz version 5.0.1 (20220820.1526)
 -->
<!-- Title: Graphical Class Hierarchy Pages: 1 -->
<svg width="288pt" height="1041pt"
 viewBox="0.00 0.00 288.00 1040.50" xmlns="http://www.w3.org/2000/svg" xmlns:xlink="http://www.w3.org/1999/xlink">
<g id="graph0" class="graph" transform="scale(1 1) rotate(0) translate(4 1036.5)">
<title>Graphical Class Hierarchy</title>
<!-- Node0 -->
<g id="node1" class="node">
<title>Node0</title>
<g id="a_node1"><a xlink:title=" ">
<polygon fill="none" stroke="#bfbfbf" points="17,-491 17,-510 60,-510 60,-491 17,-491"/>
<text text-anchor="middle" x="38.5" y="-498" font-family="Helvetica,sans-Serif" font-size="10.00">object</text>
</a>
</g>
</g>
<!-- Node1 -->
<g id="node2" class="node">
<title>Node1</title>
<g id="a_node2"><a xlink:href="d5/d68/classmodules_1_1cli_1_1config_1_1cli_config.html" target="_top" xlink:title=" ">
<polygon fill="none" stroke="black" points="130.5,-912 130.5,-931 262.5,-931 262.5,-912 130.5,-912"/>
<text text-anchor="middle" x="196.5" y="-919" font-family="Helvetica,sans-Serif" font-size="10.00">modules.cli.config.cliConfig</text>
</a>
</g>
</g>
<!-- Node0&#45;&gt;Node1 -->
<g id="edge1" class="edge">
<title>Node0&#45;&gt;Node1</title>
<path fill="none" stroke="midnightblue" d="M40.36,-520.35C43.92,-593.33 59.93,-845.35 113,-901.5 117.86,-906.64 123.8,-910.56 130.24,-913.53"/>
<polygon fill="midnightblue" stroke="midnightblue" points="43.85,-520.07 39.89,-510.24 36.86,-520.39 43.85,-520.07"/>
</g>
<!-- Node2 -->
<g id="node3" class="node">
<title>Node2</title>
<g id="a_node3"><a xlink:href="dc/d45/classmodules_1_1cli_1_1filestrings_1_1_c_l_ifilestrings.html" target="_top" xlink:title="file construction strings">
<polygon fill="none" stroke="black" points="141,-862.5 141,-892.5 252,-892.5 252,-862.5 141,-862.5"/>
<text text-anchor="start" x="149" y="-880.5" font-family="Helvetica,sans-Serif" font-size="10.00">modules.cli.filestrings.</text>
<text text-anchor="middle" x="196.5" y="-869.5" font-family="Helvetica,sans-Serif" font-size="10.00">CLIfilestrings</text>
</a>
</g>
</g>
<!-- Node0&#45;&gt;Node2 -->
<g id="edge2" class="edge">
<title>Node0&#45;&gt;Node2</title>
<path fill="none" stroke="midnightblue" d="M41.02,-520.39C46.54,-587.3 67.58,-802.87 113,-852.5 120.38,-860.56 130.25,-866.05 140.61,-869.79"/>
<polygon fill="midnightblue" stroke="midnightblue" points="44.51,-520.02 40.22,-510.33 37.53,-520.57 44.51,-520.02"/>
</g>
<!-- Node3 -->
<g id="node4" class="node">
<title>Node3</title>
<g id="a_node4"><a xlink:href="dd/d75/classmodules_1_1cli_1_1functions_1_1cli_functions.html" target="_top" xlink:title=" ">
<polygon fill="none" stroke="black" points="137,-813.5 137,-843.5 256,-843.5 256,-813.5 137,-813.5"/>
<text text-anchor="start" x="145" y="-831.5" font-family="Helvetica,sans-Serif" font-size="10.00">modules.cli.functions.cli</text>
<text text-anchor="middle" x="196.5" y="-820.5" font-family="Helvetica,sans-Serif" font-size="10.00">Functions</text>
</a>
</g>
</g>
<!-- Node0&#45;&gt;Node3 -->
<g id="edge3" class="edge">
<title>Node0&#45;&gt;Node3</title>
<path fill="none" stroke="midnightblue" d="M41.74,-520.31C48.97,-580.83 73.53,-761.74 113,-803.5 119.58,-810.46 128.03,-815.5 136.99,-819.15"/>
<polygon fill="midnightblue" stroke="midnightblue" points="45.2,-519.7 40.56,-510.18 38.24,-520.51 45.2,-519.7"/>
</g>
<!-- Node4 -->
<g id="node5" class="node">
<title>Node4</title>
<g id="a_node5"><a xlink:href="d5/dc1/classmodules_1_1cli_1_1parameters_1_1cli_parameters.html" target="_top" xlink:title=" ">
<polygon fill="none" stroke="black" points="132.5,-764.5 132.5,-794.5 260.5,-794.5 260.5,-764.5 132.5,-764.5"/>
<text text-anchor="start" x="140.5" y="-782.5" font-family="Helvetica,sans-Serif" font-size="10.00">modules.cli.parameters.cli</text>
<text text-anchor="middle" x="196.5" y="-771.5" font-family="Helvetica,sans-Serif" font-size="10.00">Parameters</text>
</a>
</g>
</g>
<!-- Node0&#45;&gt;Node4 -->
<g id="edge4" class="edge">
<title>Node0&#45;&gt;Node4</title>
<path fill="none" stroke="midnightblue" d="M39.23,-520.28C39.69,-567.59 47.59,-688.26 113,-754.5 118.47,-760.04 125.12,-764.36 132.25,-767.72"/>
<polygon fill="midnightblue" stroke="midnightblue" points="42.73,-520.15 39.24,-510.15 35.73,-520.14 42.73,-520.15"/>
</g>
<!-- Node5 -->
<g id="node6" class="node">
<title>Node5</title>
<g id="a_node6"><a xlink:href="dc/d95/classmodules_1_1cli_1_1setup_1_1cli_setup.html" target="_top" xlink:title=" ">
<polygon fill="none" stroke="black" points="132,-726 132,-745 261,-745 261,-726 132,-726"/>
<text text-anchor="middle" x="196.5" y="-733" font-family="Helvetica,sans-Serif" font-size="10.00">modules.cli.setup.cliSetup</text>
</a>
</g>
</g>
<!-- Node0&#45;&gt;Node5 -->
<g id="edge5" class="edge">
<title>Node0&#45;&gt;Node5</title>
<path fill="none" stroke="midnightblue" d="M40.23,-520.59C42.9,-563.17 55.34,-662.89 113,-715.5 118.44,-720.47 124.91,-724.26 131.79,-727.14"/>
<polygon fill="midnightblue" stroke="midnightblue" points="43.71,-520.21 39.71,-510.4 36.72,-520.57 43.71,-520.21"/>
</g>
<!-- Node6 -->
<g id="node7" class="node">
<title>Node6</title>
<g id="a_node7"><a xlink:href="dd/d03/classmodules_1_1code__preview_1_1_code_preview.html" target="_top" xlink:title=" ">
<polygon fill="none" stroke="black" points="126.5,-950.5 126.5,-980.5 266.5,-980.5 266.5,-950.5 126.5,-950.5"/>
<text text-anchor="start" x="134.5" y="-968.5" font-family="Helvetica,sans-Serif" font-size="10.00">modules.code_preview.Code</text>
<text text-anchor="middle" x="196.5" y="-957.5" font-family="Helvetica,sans-Serif" font-size="10.00">Preview</text>
</a>
</g>
</g>
<!-- Node0&#45;&gt;Node6 -->
<g id="edge6" class="edge">
<title>Node0&#45;&gt;Node6</title>
<path fill="none" stroke="midnightblue" d="M40.13,-520.66C42.94,-598.26 56.83,-876.59 113,-940.5 116.85,-944.88 121.45,-948.51 126.47,-951.51"/>
<polygon fill="midnightblue" stroke="midnightblue" points="43.61,-520.22 39.78,-510.35 36.62,-520.46 43.61,-520.22"/>
</g>
<!-- Node11 -->
<g id="node8" class="node">
<title>Node11</title>
<g id="a_node8"><a xlink:href="dd/d7c/classmodules_1_1command__parameters_1_1_command_parameters_methods.html" target="_top" xlink:title=" ">
<polygon fill="none" stroke="black" points="119,-676.5 119,-706.5 274,-706.5 274,-676.5 119,-676.5"/>
<text text-anchor="start" x="127" y="-694.5" font-family="Helvetica,sans-Serif" font-size="10.00">modules.command_parameters.</text>
<text text-anchor="middle" x="196.5" y="-683.5" font-family="Helvetica,sans-Serif" font-size="10.00">CommandParametersMethods</text>
</a>
</g>
</g>
<!-- Node0&#45;&gt;Node11 -->
<g id="edge7" class="edge">
<title>Node0&#45;&gt;Node11</title>
<path fill="none" stroke="midnightblue" d="M42.74,-520.24C49.47,-554.93 68.24,-626.92 113,-666.5 117.37,-670.37 122.33,-673.64 127.59,-676.4"/>
<polygon fill="midnightblue" stroke="midnightblue" points="46.11,-519.22 40.9,-510 39.22,-520.46 46.11,-519.22"/>
</g>
<!-- Node12 -->
<g id="node9" class="node">
<title>Node12</title>
<g id="a_node9"><a xlink:href="de/d14/classmodules_1_1command__tree_1_1_command_tree_methods.html" target="_top" xlink:title="self.ui.command_tree methods">
<polygon fill="none" stroke="black" points="113,-627.5 113,-657.5 280,-657.5 280,-627.5 113,-627.5"/>
<text text-anchor="start" x="121" y="-645.5" font-family="Helvetica,sans-Serif" font-size="10.00">modules.command_tree.Command</text>
<text text-anchor="middle" x="196.5" y="-634.5" font-family="Helvetica,sans-Serif" font-size="10.00">TreeMethods</text>
</a>
</g>
</g>
<!-- Node0&#45;&gt;Node12 -->
<g id="edge8" class="edge">
<title>Node0&#45;&gt;Node12</title>
<path fill="none" stroke="midnightblue" d="M46.6,-519.84C57.12,-545.84 79.32,-591.78 113,-617.5 118.12,-621.41 123.84,-624.7 129.82,-627.49"/>
<polygon fill="midnightblue" stroke="midnightblue" points="49.79,-518.39 42.91,-510.33 43.26,-520.92 49.79,-518.39"/>
</g>
<!-- Node13 -->
<g id="node10" class="node">
<title>Node13</title>
<g id="a_node10"><a xlink:href="d7/d8c/classmodules_1_1data__models_1_1data_models.html" target="_top" xlink:title=" ">
<polygon fill="none" stroke="black" points="130.5,-578.5 130.5,-608.5 262.5,-608.5 262.5,-578.5 130.5,-578.5"/>
<text text-anchor="start" x="138.5" y="-596.5" font-family="Helvetica,sans-Serif" font-size="10.00">modules.data_models.data</text>
<text text-anchor="middle" x="196.5" y="-585.5" font-family="Helvetica,sans-Serif" font-size="10.00">Models</text>
</a>
</g>
</g>
<!-- Node0&#45;&gt;Node13 -->
<g id="edge9" class="edge">
<title>Node0&#45;&gt;Node13</title>
<path fill="none" stroke="midnightblue" d="M54.26,-518.07C68.02,-533.41 89.84,-555.23 113,-568.5 119.62,-572.3 126.88,-575.57 134.26,-578.38"/>
<polygon fill="midnightblue" stroke="midnightblue" points="56.7,-515.55 47.49,-510.32 51.43,-520.15 56.7,-515.55"/>
</g>
<!-- Node14 -->
<g id="node11" class="node">
<title>Node14</title>
<g id="a_node11"><a xlink:href="d1/d1a/classmodules_1_1helper__methods_1_1_helper_methods.html" target="_top" xlink:title=" ">
<polygon fill="none" stroke="black" points="119,-529.5 119,-559.5 274,-559.5 274,-529.5 119,-529.5"/>
<text text-anchor="start" x="127" y="-547.5" font-family="Helvetica,sans-Serif" font-size="10.00">modules.helper_methods.Helper</text>
<text text-anchor="middle" x="196.5" y="-536.5" font-family="Helvetica,sans-Serif" font-size="10.00">Methods</text>
</a>
</g>
</g>
<!-- Node0&#45;&gt;Node14 -->
<g id="edge10" class="edge">
<title>Node0&#45;&gt;Node14</title>
<path fill="none" stroke="midnightblue" d="M69.94,-509.09C90.43,-514.87 118.01,-522.64 142.09,-529.44"/>
<polygon fill="midnightblue" stroke="midnightblue" points="70.79,-505.69 60.22,-506.34 68.89,-512.43 70.79,-505.69"/>
</g>
<!-- Node15 -->
<g id="node12" class="node">
<title>Node15</title>
<g id="a_node12"><a xlink:href="d3/dd3/classmodules_1_1logging__setup_1_1_logger.html" target="_top" xlink:title="logging api">
<polygon fill="none" stroke="black" points="122.5,-491 122.5,-510 270.5,-510 270.5,-491 122.5,-491"/>
<text text-anchor="middle" x="196.5" y="-498" font-family="Helvetica,sans-Serif" font-size="10.00">modules.logging_setup.Logger</text>
</a>
</g>
</g>
<!-- Node0&#45;&gt;Node15 -->
<g id="edge11" class="edge">
<title>Node0&#45;&gt;Node15</title>
<path fill="none" stroke="midnightblue" d="M70.41,-500.5C85.38,-500.5 104.06,-500.5 122.37,-500.5"/>
<polygon fill="midnightblue" stroke="midnightblue" points="70.22,-497 60.22,-500.5 70.22,-504 70.22,-497"/>
</g>
<!-- Node16 -->
<g id="node13" class="node">
<title>Node16</title>
<g id="a_node13"><a xlink:href="d9/d34/classmodules_1_1mainwindow__actions_1_1_main_window_actions.html" target="_top" xlink:title=" ">
<polygon fill="none" stroke="black" points="124.5,-441.5 124.5,-471.5 268.5,-471.5 268.5,-441.5 124.5,-441.5"/>
<text text-anchor="start" x="132.5" y="-459.5" font-family="Helvetica,sans-Serif" font-size="10.00">modules.mainwindow</text>
<text text-anchor="middle" x="196.5" y="-448.5" font-family="Helvetica,sans-Serif" font-size="10.00">_actions.MainWindowActions</text>
</a>
</g>
</g>
<!-- Node0&#45;&gt;Node16 -->
<g id="edge12" class="edge">
<title>Node0&#45;&gt;Node16</title>
<path fill="none" stroke="midnightblue" d="M69.94,-491.91C90.43,-486.13 118.01,-478.36 142.09,-471.56"/>
<polygon fill="midnightblue" stroke="midnightblue" points="68.89,-488.57 60.22,-494.66 70.79,-495.31 68.89,-488.57"/>
</g>
<!-- Node17 -->
<g id="node14" class="node">
<title>Node17</title>
<g id="a_node14"><a xlink:href="d1/db3/classmodules_1_1mainwindow__buttons_1_1_main_window_buttons.html" target="_top" xlink:title=" ">
<polygon fill="none" stroke="black" points="123.5,-392.5 123.5,-422.5 269.5,-422.5 269.5,-392.5 123.5,-392.5"/>
<text text-anchor="start" x="131.5" y="-410.5" font-family="Helvetica,sans-Serif" font-size="10.00">modules.mainwindow</text>
<text text-anchor="middle" x="196.5" y="-399.5" font-family="Helvetica,sans-Serif" font-size="10.00">_buttons.MainWindowButtons</text>
</a>
</g>
</g>
<!-- Node0&#45;&gt;Node17 -->
<g id="edge13" class="edge">
<title>Node0&#45;&gt;Node17</title>
<path fill="none" stroke="midnightblue" d="M53.73,-483.11C67.39,-467.48 89.4,-444.97 113,-431.5 118.96,-428.1 125.44,-425.15 132.07,-422.59"/>
<polygon fill="midnightblue" stroke="midnightblue" points="50.84,-481.1 47.03,-490.98 56.18,-485.63 50.84,-481.1"/>
</g>
<!-- Node18 -->
<g id="node15" class="node">
<title>Node18</title>
<g id="a_node15"><a xlink:href="da/df2/classmodules_1_1parse__config_1_1_parse_input_handler_config.html" target="_top" xlink:title=" ">
<polygon fill="none" stroke="black" points="127.5,-343.5 127.5,-373.5 265.5,-373.5 265.5,-343.5 127.5,-343.5"/>
<text text-anchor="start" x="135.5" y="-361.5" font-family="Helvetica,sans-Serif" font-size="10.00">modules.parse_config.Parse</text>
<text text-anchor="middle" x="196.5" y="-350.5" font-family="Helvetica,sans-Serif" font-size="10.00">InputHandlerConfig</text>
</a>
</g>
</g>
<!-- Node0&#45;&gt;Node18 -->
<g id="edge14" class="edge">
<title>Node0&#45;&gt;Node18</title>
<path fill="none" stroke="midnightblue" d="M46.36,-481.33C56.71,-455.12 78.85,-408.38 113,-382.5 117.52,-379.08 122.51,-376.14 127.74,-373.62"/>
<polygon fill="midnightblue" stroke="midnightblue" points="43,-480.3 42.74,-490.89 49.55,-482.78 43,-480.3"/>
</g>
<!-- Node19 -->
<g id="node16" class="node">
<title>Node19</title>
<g id="a_node16"><a xlink:href="dd/dae/classmodules_1_1preferences_1_1_preferences_methods.html" target="_top" xlink:title=" ">
<polygon fill="none" stroke="black" points="116,-294.5 116,-324.5 277,-324.5 277,-294.5 116,-294.5"/>
<text text-anchor="start" x="124" y="-312.5" font-family="Helvetica,sans-Serif" font-size="10.00">modules.preferences.Preferences</text>
<text text-anchor="middle" x="196.5" y="-301.5" font-family="Helvetica,sans-Serif" font-size="10.00">Methods</text>
</a>
</g>
</g>
<!-- Node0&#45;&gt;Node19 -->
<g id="edge15" class="edge">
<title>Node0&#45;&gt;Node19</title>
<path fill="none" stroke="midnightblue" d="M42.57,-481.05C49.1,-446.25 67.64,-373.25 113,-333.5 116.93,-330.06 121.32,-327.11 125.98,-324.58"/>
<polygon fill="midnightblue" stroke="midnightblue" points="39.12,-480.47 40.86,-490.92 46.02,-481.66 39.12,-480.47"/>
</g>
<!-- Node20 -->
<g id="node17" class="node">
<title>Node20</title>
<g id="a_node17"><a xlink:href="d2/db5/classmodules_1_1settings__tree_1_1_settings_tree_methods.html" target="_top" xlink:title=" ">
<polygon fill="none" stroke="black" points="121.5,-245.5 121.5,-275.5 271.5,-275.5 271.5,-245.5 121.5,-245.5"/>
<text text-anchor="start" x="129.5" y="-263.5" font-family="Helvetica,sans-Serif" font-size="10.00">modules.settings_tree.Settings</text>
<text text-anchor="middle" x="196.5" y="-252.5" font-family="Helvetica,sans-Serif" font-size="10.00">TreeMethods</text>
</a>
</g>
</g>
<!-- Node0&#45;&gt;Node20 -->
<g id="edge16" class="edge">
<title>Node0&#45;&gt;Node20</title>
<path fill="none" stroke="midnightblue" d="M40.39,-480.52C43.36,-438.13 56.35,-338.66 113,-284.5 116.56,-281.1 120.57,-278.17 124.86,-275.66"/>
<polygon fill="midnightblue" stroke="midnightblue" points="36.88,-480.47 39.79,-490.66 43.87,-480.88 36.88,-480.47"/>
</g>
<!-- Node21 -->
<g id="node18" class="node">
<title>Node21</title>
<g id="a_node18"><a xlink:href="de/d9f/classmodules_1_1settings__tree__table__methods_1_1_settings_tree_table_methods.html" target="_top" xlink:title=" ">
<polygon fill="none" stroke="black" points="125,-186 125,-227 268,-227 268,-186 125,-186"/>
<text text-anchor="start" x="133" y="-215" font-family="Helvetica,sans-Serif" font-size="10.00">modules.settings_tree</text>
<text text-anchor="start" x="133" y="-204" font-family="Helvetica,sans-Serif" font-size="10.00">_table_methods.SettingsTree</text>
<text text-anchor="middle" x="196.5" y="-193" font-family="Helvetica,sans-Serif" font-size="10.00">TableMethods</text>
</a>
</g>
</g>
<!-- Node0&#45;&gt;Node21 -->
<g id="edge17" class="edge">
<title>Node0&#45;&gt;Node21</title>
<path fill="none" stroke="midnightblue" d="M39.13,-480.71C39.33,-432.28 46.6,-306.54 113,-235.5 116.52,-231.73 120.57,-228.45 124.93,-225.59"/>
<polygon fill="midnightblue" stroke="midnightblue" points="35.63,-480.83 39.2,-490.8 42.63,-480.78 35.63,-480.83"/>
</g>
<!-- Node22 -->
<g id="node19" class="node">
<title>Node22</title>
<g id="a_node19"><a xlink:href="df/def/classuic_1_1command_parameters_dialog_1_1_ui__command_parameters_dialog.html" target="_top" xlink:title=" ">
<polygon fill="none" stroke="black" points="119.5,-137.5 119.5,-167.5 273.5,-167.5 273.5,-137.5 119.5,-137.5"/>
<text text-anchor="start" x="127.5" y="-155.5" font-family="Helvetica,sans-Serif" font-size="10.00">uic.commandParametersDialog.</text>
<text text-anchor="middle" x="196.5" y="-144.5" font-family="Helvetica,sans-Serif" font-size="10.00">Ui_commandParametersDialog</text>
</a>
</g>
</g>
<!-- Node0&#45;&gt;Node22 -->
<g id="edge18" class="edge">
<title>Node0&#45;&gt;Node22</title>
<path fill="none" stroke="midnightblue" d="M41.4,-480.56C47.82,-417.1 70.75,-221.37 113,-176.5 116.17,-173.13 119.78,-170.23 123.68,-167.73"/>
<polygon fill="midnightblue" stroke="midnightblue" points="37.88,-480.51 40.39,-490.8 44.85,-481.19 37.88,-480.51"/>
</g>
<!-- Node23 -->
<g id="node20" class="node">
<title>Node23</title>
<g id="a_node20"><a xlink:href="d3/d1e/classuic_1_1log_history_dialog_1_1_ui__log_history_dialog.html" target="_top" xlink:title=" ">
<polygon fill="none" stroke="black" points="139.5,-88.5 139.5,-118.5 253.5,-118.5 253.5,-88.5 139.5,-88.5"/>
<text text-anchor="start" x="147.5" y="-106.5" font-family="Helvetica,sans-Serif" font-size="10.00">uic.logHistoryDialog.Ui</text>
<text text-anchor="middle" x="196.5" y="-95.5" font-family="Helvetica,sans-Serif" font-size="10.00">_logHistoryDialog</text>
</a>
</g>
</g>
<!-- Node0&#45;&gt;Node23 -->
<g id="edge19" class="edge">
<title>Node0&#45;&gt;Node23</title>
<path fill="none" stroke="midnightblue" d="M40.74,-480.77C45.47,-411.44 64.67,-180.31 113,-127.5 120.05,-119.8 129.41,-114.51 139.3,-110.9"/>
<polygon fill="midnightblue" stroke="midnightblue" points="37.24,-480.58 40.08,-490.79 44.23,-481.04 37.24,-480.58"/>
</g>
<!-- Node24 -->
<g id="node21" class="node">
<title>Node24</title>
<g id="a_node21"><a xlink:href="d1/d3a/classuic_1_1main_window_1_1_ui___main_window.html" target="_top" xlink:title=" ">
<polygon fill="none" stroke="black" points="116.5,-50 116.5,-69 276.5,-69 276.5,-50 116.5,-50"/>
<text text-anchor="middle" x="196.5" y="-57" font-family="Helvetica,sans-Serif" font-size="10.00">uic.mainWindow.Ui_MainWindow</text>
</a>
</g>
</g>
<!-- Node0&#45;&gt;Node24 -->
<g id="edge20" class="edge">
<title>Node0&#45;&gt;Node24</title>
<path fill="none" stroke="midnightblue" d="M40.14,-480.59C42.99,-405.08 56.92,-137.68 113,-78.5 116.54,-74.77 120.65,-71.7 125.12,-69.18"/>
<polygon fill="midnightblue" stroke="midnightblue" points="36.63,-480.88 39.78,-491 43.63,-481.13 36.63,-480.88"/>
</g>
<!-- Node25 -->
<g id="node22" class="node">
<title>Node25</title>
<g id="a_node22"><a xlink:href="d9/d82/classuic_1_1preferences_dialog_1_1_ui___preferences.html" target="_top" xlink:title=" ">
<polygon fill="none" stroke="black" points="135.5,-0.5 135.5,-30.5 257.5,-30.5 257.5,-0.5 135.5,-0.5"/>
<text text-anchor="start" x="143.5" y="-18.5" font-family="Helvetica,sans-Serif" font-size="10.00">uic.preferencesDialog.Ui</text>
<text text-anchor="middle" x="196.5" y="-7.5" font-family="Helvetica,sans-Serif" font-size="10.00">_Preferences</text>
</a>
</g>
</g>
<!-- Node0&#45;&gt;Node25 -->
<g id="edge21" class="edge">
<title>Node0&#45;&gt;Node25</title>
<path fill="none" stroke="midnightblue" d="M39.95,-480.97C42.14,-402.06 54.21,-107.87 113,-40.5 119,-33.62 126.83,-28.6 135.27,-24.95"/>
<polygon fill="midnightblue" stroke="midnightblue" points="36.45,-480.91 39.69,-490.99 43.45,-481.09 36.45,-480.91"/>
</g>
<!-- Node7 -->
<g id="node23" class="node">
<title>Node7</title>
<g id="a_node23"><a xlink:title=" ">
<polygon fill="none" stroke="#bfbfbf" points="12,-1013 12,-1032 65,-1032 65,-1013 12,-1013"/>
<text text-anchor="middle" x="38.5" y="-1020" font-family="Helvetica,sans-Serif" font-size="10.00">cliConfig</text>
</a>
</g>
</g>
<!-- Node7&#45;&gt;Node6 -->
<g id="edge22" class="edge">
<title>Node7&#45;&gt;Node6</title>
<path fill="none" stroke="midnightblue" d="M74.89,-1009.57C98.53,-1000.93 129.7,-989.54 154.44,-980.5"/>
<polygon fill="midnightblue" stroke="midnightblue" points="73.45,-1006.37 65.26,-1013.09 75.85,-1012.94 73.45,-1006.37"/>
</g>
<!-- Node8 -->
<g id="node24" class="node">
<title>Node8</title>
<g id="a_node24"><a xlink:title=" ">
<polygon fill="none" stroke="#bfbfbf" points="4,-975 4,-994 73,-994 73,-975 4,-975"/>
<text text-anchor="middle" x="38.5" y="-982" font-family="Helvetica,sans-Serif" font-size="10.00">cliFunctions</text>
</a>
</g>
</g>
<!-- Node8&#45;&gt;Node6 -->
<g id="edge23" class="edge">
<title>Node8&#45;&gt;Node6</title>
<path fill="none" stroke="midnightblue" d="M83.65,-979.12C96.97,-977.5 111.93,-975.68 126.47,-973.91"/>
<polygon fill="midnightblue" stroke="midnightblue" points="82.85,-975.69 73.35,-980.38 83.7,-982.64 82.85,-975.69"/>
</g>
<!-- Node9 -->
<g id="node25" class="node">
<title>Node9</title>
<g id="a_node25"><a xlink:title=" ">
<polygon fill="none" stroke="#bfbfbf" points="0,-937 0,-956 77,-956 77,-937 0,-937"/>
<text text-anchor="middle" x="38.5" y="-944" font-family="Helvetica,sans-Serif" font-size="10.00">cliParameters</text>
</a>
</g>
</g>
<!-- Node9&#45;&gt;Node6 -->
<g id="edge24" class="edge">
<title>Node9&#45;&gt;Node6</title>
<path fill="none" stroke="midnightblue" d="M87.32,-952.32C99.66,-953.83 113.19,-955.48 126.38,-957.08"/>
<polygon fill="midnightblue" stroke="midnightblue" points="87.61,-948.83 77.26,-951.1 86.77,-955.78 87.61,-948.83"/>
</g>
<!-- Node10 -->
<g id="node26" class="node">
<title>Node10</title>
<g id="a_node26"><a xlink:title=" ">
<polygon fill="none" stroke="#bfbfbf" points="12.5,-899 12.5,-918 64.5,-918 64.5,-899 12.5,-899"/>
<text text-anchor="middle" x="38.5" y="-906" font-family="Helvetica,sans-Serif" font-size="10.00">cliSetup</text>
</a>
</g>
</g>
<!-- Node10&#45;&gt;Node6 -->
<g id="edge25" class="edge">
<title>Node10&#45;&gt;Node6</title>
<path fill="none" stroke="midnightblue" d="M68.99,-922.27C82.29,-928.24 98.28,-935.09 113,-940.5 122.41,-943.96 132.55,-947.32 142.38,-950.4"/>
<polygon fill="midnightblue" stroke="midnightblue" points="70.39,-919.06 59.83,-918.11 67.49,-925.44 70.39,-919.06"/>
</g>
</g>
</svg>
