<?xml version="1.0" encoding="UTF-8" standalone="no"?>
<!DOCTYPE svg PUBLIC "-//W3C//DTD SVG 1.1//EN"
 "http://www.w3.org/Graphics/SVG/1.1/DTD/svg11.dtd">
<!-- Generated by graphviz version 5.0.0 (20220708.1001)
 -->
<!-- Title: Graphical Class Hierarchy Pages: 1 -->
<svg width="247pt" height="480pt"
 viewBox="0.00 0.00 247.00 479.50" xmlns="http://www.w3.org/2000/svg" xmlns:xlink="http://www.w3.org/1999/xlink">
<g id="graph0" class="graph" transform="scale(1 1) rotate(0) translate(4 475.5)">
<title>Graphical Class Hierarchy</title>
<!-- Node0 -->
<g id="node1" class="node">
<title>Node0</title>
<g id="a_node1"><a xlink:title=" ">
<polygon fill="none" stroke="#bfbfbf" points="0,-225.5 0,-244.5 43,-244.5 43,-225.5 0,-225.5"/>
<text text-anchor="middle" x="21.5" y="-232.5" font-family="Helvetica,sans-Serif" font-size="10.00">object</text>
</a>
</g>
</g>
<!-- Node1 -->
<g id="node2" class="node">
<title>Node1</title>
<g id="a_node2"><a xlink:href="dd/d03/classmodules_1_1code__preview_1_1_code_preview.html" target="_top" xlink:title=" ">
<polygon fill="none" stroke="black" points="89,-441 89,-471 229,-471 229,-441 89,-441"/>
<text text-anchor="start" x="97" y="-459" font-family="Helvetica,sans-Serif" font-size="10.00">modules.code_preview.Code</text>
<text text-anchor="middle" x="159" y="-448" font-family="Helvetica,sans-Serif" font-size="10.00">Preview</text>
</a>
</g>
</g>
<!-- Node0&#45;&gt;Node1 -->
<g id="edge1" class="edge">
<title>Node0&#45;&gt;Node1</title>
<path fill="none" stroke="midnightblue" d="M22.31,-254.94C23.04,-294.34 30.38,-382.62 79,-432 82.42,-435.47 86.32,-438.45 90.52,-440.99"/>
<polygon fill="midnightblue" stroke="midnightblue" points="25.81,-254.77 22.25,-244.79 18.81,-254.81 25.81,-254.77"/>
</g>
<!-- Node2 -->
<g id="node3" class="node">
<title>Node2</title>
<g id="a_node3"><a xlink:href="dd/d7c/classmodules_1_1command__parameters_1_1_command_parameters_methods.html" target="_top" xlink:title=" ">
<polygon fill="none" stroke="black" points="81.5,-392 81.5,-422 236.5,-422 236.5,-392 81.5,-392"/>
<text text-anchor="start" x="89.5" y="-410" font-family="Helvetica,sans-Serif" font-size="10.00">modules.command_parameters.</text>
<text text-anchor="middle" x="159" y="-399" font-family="Helvetica,sans-Serif" font-size="10.00">CommandParametersMethods</text>
</a>
</g>
</g>
<!-- Node0&#45;&gt;Node2 -->
<g id="edge2" class="edge">
<title>Node0&#45;&gt;Node2</title>
<path fill="none" stroke="midnightblue" d="M24.52,-254.7C28.82,-286.29 41.74,-348.25 79,-383 82.67,-386.42 86.81,-389.36 91.23,-391.87"/>
<polygon fill="midnightblue" stroke="midnightblue" points="27.97,-254.05 23.3,-244.54 21.02,-254.89 27.97,-254.05"/>
</g>
<!-- Node3 -->
<g id="node4" class="node">
<title>Node3</title>
<g id="a_node4"><a xlink:href="d1/d1a/classmodules_1_1helper__methods_1_1_helper_methods.html" target="_top" xlink:title=" ">
<polygon fill="none" stroke="black" points="81.5,-343 81.5,-373 236.5,-373 236.5,-343 81.5,-343"/>
<text text-anchor="start" x="89.5" y="-361" font-family="Helvetica,sans-Serif" font-size="10.00">modules.helper_methods.Helper</text>
<text text-anchor="middle" x="159" y="-350" font-family="Helvetica,sans-Serif" font-size="10.00">Methods</text>
</a>
</g>
</g>
<!-- Node0&#45;&gt;Node3 -->
<g id="edge3" class="edge">
<title>Node0&#45;&gt;Node3</title>
<path fill="none" stroke="midnightblue" d="M28.66,-254.53C36.72,-276.92 52.95,-313.21 79,-334 83.26,-337.4 87.99,-340.32 92.97,-342.82"/>
<polygon fill="midnightblue" stroke="midnightblue" points="31.89,-253.13 25.36,-244.78 25.26,-255.37 31.89,-253.13"/>
</g>
<!-- Node4 -->
<g id="node5" class="node">
<title>Node4</title>
<g id="a_node5"><a xlink:href="d9/d34/classmodules_1_1mainwindow__actions_1_1_main_window_actions.html" target="_top" xlink:title=" ">
<polygon fill="none" stroke="black" points="87,-294 87,-324 231,-324 231,-294 87,-294"/>
<text text-anchor="start" x="95" y="-312" font-family="Helvetica,sans-Serif" font-size="10.00">modules.mainwindow</text>
<text text-anchor="middle" x="159" y="-301" font-family="Helvetica,sans-Serif" font-size="10.00">_actions.MainWindowActions</text>
</a>
</g>
</g>
<!-- Node0&#45;&gt;Node4 -->
<g id="edge4" class="edge">
<title>Node0&#45;&gt;Node4</title>
<path fill="none" stroke="midnightblue" d="M38.05,-252.12C48.66,-262.9 63.54,-276.36 79,-285 85.01,-288.36 91.54,-291.3 98.19,-293.86"/>
<polygon fill="midnightblue" stroke="midnightblue" points="40.56,-249.69 31.13,-244.86 35.49,-254.51 40.56,-249.69"/>
</g>
<!-- Node5 -->
<g id="node6" class="node">
<title>Node5</title>
<g id="a_node6"><a xlink:href="d1/db3/classmodules_1_1mainwindow__buttons_1_1_main_window_buttons.html" target="_top" xlink:title=" ">
<polygon fill="none" stroke="black" points="86,-245 86,-275 232,-275 232,-245 86,-245"/>
<text text-anchor="start" x="94" y="-263" font-family="Helvetica,sans-Serif" font-size="10.00">modules.mainwindow</text>
<text text-anchor="middle" x="159" y="-252" font-family="Helvetica,sans-Serif" font-size="10.00">_buttons.MainWindowButtons</text>
</a>
</g>
</g>
<!-- Node0&#45;&gt;Node5 -->
<g id="edge5" class="edge">
<title>Node0&#45;&gt;Node5</title>
<path fill="none" stroke="midnightblue" d="M53.13,-240.65C62.99,-242.47 74.38,-244.57 85.93,-246.7"/>
<polygon fill="midnightblue" stroke="midnightblue" points="53.55,-237.17 43.08,-238.8 52.28,-244.05 53.55,-237.17"/>
</g>
<!-- Node6 -->
<g id="node7" class="node">
<title>Node6</title>
<g id="a_node7"><a xlink:href="da/df2/classmodules_1_1parse__config_1_1_parse_input_handler_config.html" target="_top" xlink:title=" ">
<polygon fill="none" stroke="black" points="90,-196 90,-226 228,-226 228,-196 90,-196"/>
<text text-anchor="start" x="98" y="-214" font-family="Helvetica,sans-Serif" font-size="10.00">modules.parse_config.Parse</text>
<text text-anchor="middle" x="159" y="-203" font-family="Helvetica,sans-Serif" font-size="10.00">InputHandlerConfig</text>
</a>
</g>
</g>
<!-- Node0&#45;&gt;Node6 -->
<g id="edge6" class="edge">
<title>Node0&#45;&gt;Node6</title>
<path fill="none" stroke="midnightblue" d="M52.98,-229.6C63.99,-227.65 76.89,-225.37 89.82,-223.08"/>
<polygon fill="midnightblue" stroke="midnightblue" points="52.32,-226.16 43.08,-231.35 53.54,-233.06 52.32,-226.16"/>
</g>
<!-- Node7 -->
<g id="node8" class="node">
<title>Node7</title>
<g id="a_node8"><a xlink:href="d2/db5/classmodules_1_1settings__tree_1_1_settings_tree_methods.html" target="_top" xlink:title=" ">
<polygon fill="none" stroke="black" points="84,-147 84,-177 234,-177 234,-147 84,-147"/>
<text text-anchor="start" x="92" y="-165" font-family="Helvetica,sans-Serif" font-size="10.00">modules.settings_tree.Settings</text>
<text text-anchor="middle" x="159" y="-154" font-family="Helvetica,sans-Serif" font-size="10.00">TreeMethods</text>
</a>
</g>
</g>
<!-- Node0&#45;&gt;Node7 -->
<g id="edge7" class="edge">
<title>Node0&#45;&gt;Node7</title>
<path fill="none" stroke="midnightblue" d="M38.89,-217.98C49.51,-207.78 64.1,-195.24 79,-187 85.8,-183.24 93.24,-179.95 100.76,-177.11"/>
<polygon fill="midnightblue" stroke="midnightblue" points="36.24,-215.68 31.61,-225.21 41.17,-220.65 36.24,-215.68"/>
</g>
<!-- Node8 -->
<g id="node9" class="node">
<title>Node8</title>
<g id="a_node9"><a xlink:href="de/d9f/classmodules_1_1settings__tree__table__methods_1_1_settings_tree_table_methods.html" target="_top" xlink:title=" ">
<polygon fill="none" stroke="black" points="87.5,-87.5 87.5,-128.5 230.5,-128.5 230.5,-87.5 87.5,-87.5"/>
<text text-anchor="start" x="95.5" y="-116.5" font-family="Helvetica,sans-Serif" font-size="10.00">modules.settings_tree</text>
<text text-anchor="start" x="95.5" y="-105.5" font-family="Helvetica,sans-Serif" font-size="10.00">_table_methods.SettingsTree</text>
<text text-anchor="middle" x="159" y="-94.5" font-family="Helvetica,sans-Serif" font-size="10.00">TableMethods</text>
</a>
</g>
</g>
<!-- Node0&#45;&gt;Node8 -->
<g id="edge8" class="edge">
<title>Node0&#45;&gt;Node8</title>
<path fill="none" stroke="midnightblue" d="M29.15,-215.84C37.58,-194.15 54.09,-159.12 79,-138 83.14,-134.49 87.73,-131.37 92.56,-128.59"/>
<polygon fill="midnightblue" stroke="midnightblue" points="25.84,-214.69 25.66,-225.29 32.41,-217.12 25.84,-214.69"/>
</g>
<!-- Node9 -->
<g id="node10" class="node">
<title>Node9</title>
<g id="a_node10"><a xlink:href="df/def/classuic_1_1command_parameters_dialog_1_1_ui__command_parameters_dialog.html" target="_top" xlink:title=" ">
<polygon fill="none" stroke="black" points="82,-39 82,-69 236,-69 236,-39 82,-39"/>
<text text-anchor="start" x="90" y="-57" font-family="Helvetica,sans-Serif" font-size="10.00">uic.commandParametersDialog.</text>
<text text-anchor="middle" x="159" y="-46" font-family="Helvetica,sans-Serif" font-size="10.00">Ui_commandParametersDialog</text>
</a>
</g>
</g>
<!-- Node0&#45;&gt;Node9 -->
<g id="edge9" class="edge">
<title>Node0&#45;&gt;Node9</title>
<path fill="none" stroke="midnightblue" d="M24.05,-215.04C27.69,-181.86 39.75,-115.32 79,-78 82.64,-74.54 86.75,-71.58 91.16,-69.05"/>
<polygon fill="midnightblue" stroke="midnightblue" points="20.54,-215 23.08,-225.29 27.5,-215.66 20.54,-215"/>
</g>
<!-- Node10 -->
<g id="node11" class="node">
<title>Node10</title>
<g id="a_node11"><a xlink:href="d1/d3a/classuic_1_1main_window_1_1_ui___main_window.html" target="_top" xlink:title=" ">
<polygon fill="none" stroke="black" points="79,-0.5 79,-19.5 239,-19.5 239,-0.5 79,-0.5"/>
<text text-anchor="middle" x="159" y="-7.5" font-family="Helvetica,sans-Serif" font-size="10.00">uic.mainWindow.Ui_MainWindow</text>
</a>
</g>
</g>
<!-- Node0&#45;&gt;Node10 -->
<g id="edge10" class="edge">
<title>Node0&#45;&gt;Node10</title>
<path fill="none" stroke="midnightblue" d="M21.84,-215.17C21.62,-174.4 27.16,-80.76 79,-30 83.35,-25.74 88.46,-22.35 93.97,-19.66"/>
<polygon fill="midnightblue" stroke="midnightblue" points="18.34,-215.25 22.02,-225.18 25.34,-215.12 18.34,-215.25"/>
</g>
</g>
</svg>
