<?xml version="1.0" encoding="UTF-8" standalone="no"?>
<!DOCTYPE svg PUBLIC "-//W3C//DTD SVG 1.1//EN"
 "http://www.w3.org/Graphics/SVG/1.1/DTD/svg11.dtd">
<!-- Generated by graphviz version 5.0.0 (20220708.1001)
 -->
<!-- Title: Graphical Class Hierarchy Pages: 1 -->
<svg width="280pt" height="874pt"
 viewBox="0.00 0.00 280.00 874.00" xmlns="http://www.w3.org/2000/svg" xmlns:xlink="http://www.w3.org/1999/xlink">
<g id="graph0" class="graph" transform="scale(1 1) rotate(0) translate(4 870)">
<title>Graphical Class Hierarchy</title>
<!-- Node0 -->
<g id="node1" class="node">
<title>Node0</title>
<g id="a_node1"><a xlink:title=" ">
<polygon fill="none" stroke="#bfbfbf" points="13,-414.5 13,-433.5 56,-433.5 56,-414.5 13,-414.5"/>
<text text-anchor="middle" x="34.5" y="-421.5" font-family="Helvetica,sans-Serif" font-size="10.00">object</text>
</a>
</g>
</g>
<!-- Node1 -->
<g id="node2" class="node">
<title>Node1</title>
<g id="a_node2"><a xlink:href="d5/d68/classmodules_1_1cli_1_1config_1_1cli_config.html" target="_top" xlink:title=" ">
<polygon fill="none" stroke="black" points="122.5,-764.5 122.5,-783.5 254.5,-783.5 254.5,-764.5 122.5,-764.5"/>
<text text-anchor="middle" x="188.5" y="-771.5" font-family="Helvetica,sans-Serif" font-size="10.00">modules.cli.config.cliConfig</text>
</a>
</g>
</g>
<!-- Node0&#45;&gt;Node1 -->
<g id="edge1" class="edge">
<title>Node0&#45;&gt;Node1</title>
<path fill="none" stroke="midnightblue" d="M36.96,-443.95C42.09,-508.33 61.34,-709 105,-754 109.93,-759.08 115.9,-762.95 122.37,-765.9"/>
<polygon fill="midnightblue" stroke="midnightblue" points="40.42,-443.28 36.17,-433.58 33.44,-443.82 40.42,-443.28"/>
</g>
<!-- Node2 -->
<g id="node3" class="node">
<title>Node2</title>
<g id="a_node3"><a xlink:href="dc/d45/classmodules_1_1cli_1_1filestrings_1_1_c_l_ifilestrings.html" target="_top" xlink:title="file construction strings">
<polygon fill="none" stroke="black" points="133,-715 133,-745 244,-745 244,-715 133,-715"/>
<text text-anchor="start" x="141" y="-733" font-family="Helvetica,sans-Serif" font-size="10.00">modules.cli.filestrings.</text>
<text text-anchor="middle" x="188.5" y="-722" font-family="Helvetica,sans-Serif" font-size="10.00">CLIfilestrings</text>
</a>
</g>
</g>
<!-- Node0&#45;&gt;Node2 -->
<g id="edge2" class="edge">
<title>Node0&#45;&gt;Node2</title>
<path fill="none" stroke="midnightblue" d="M37.85,-443.84C45.06,-501.38 68.58,-666.64 105,-705 112.52,-712.92 122.46,-718.36 132.83,-722.08"/>
<polygon fill="midnightblue" stroke="midnightblue" points="41.29,-443.06 36.6,-433.56 34.34,-443.91 41.29,-443.06"/>
</g>
<!-- Node3 -->
<g id="node4" class="node">
<title>Node3</title>
<g id="a_node4"><a xlink:href="dd/d75/classmodules_1_1cli_1_1functions_1_1cli_functions.html" target="_top" xlink:title=" ">
<polygon fill="none" stroke="black" points="129,-666 129,-696 248,-696 248,-666 129,-666"/>
<text text-anchor="start" x="137" y="-684" font-family="Helvetica,sans-Serif" font-size="10.00">modules.cli.functions.cli</text>
<text text-anchor="middle" x="188.5" y="-673" font-family="Helvetica,sans-Serif" font-size="10.00">Functions</text>
</a>
</g>
</g>
<!-- Node0&#45;&gt;Node3 -->
<g id="edge3" class="edge">
<title>Node0&#45;&gt;Node3</title>
<path fill="none" stroke="midnightblue" d="M35.49,-443.54C36.56,-487.76 45.47,-596.28 105,-656 111.66,-662.68 120.03,-667.58 128.88,-671.18"/>
<polygon fill="midnightblue" stroke="midnightblue" points="38.99,-443.48 35.36,-433.53 31.99,-443.57 38.99,-443.48"/>
</g>
<!-- Node4 -->
<g id="node5" class="node">
<title>Node4</title>
<g id="a_node5"><a xlink:href="d5/dc1/classmodules_1_1cli_1_1parameters_1_1cli_parameters.html" target="_top" xlink:title=" ">
<polygon fill="none" stroke="black" points="124.5,-617 124.5,-647 252.5,-647 252.5,-617 124.5,-617"/>
<text text-anchor="start" x="132.5" y="-635" font-family="Helvetica,sans-Serif" font-size="10.00">modules.cli.parameters.cli</text>
<text text-anchor="middle" x="188.5" y="-624" font-family="Helvetica,sans-Serif" font-size="10.00">Parameters</text>
</a>
</g>
</g>
<!-- Node0&#45;&gt;Node4 -->
<g id="edge4" class="edge">
<title>Node0&#45;&gt;Node4</title>
<path fill="none" stroke="midnightblue" d="M37.34,-443.64C41.89,-480.93 57.05,-562.23 105,-607 110.58,-612.21 117.21,-616.33 124.25,-619.6"/>
<polygon fill="midnightblue" stroke="midnightblue" points="40.81,-443.14 36.25,-433.57 33.85,-443.89 40.81,-443.14"/>
</g>
<!-- Node5 -->
<g id="node6" class="node">
<title>Node5</title>
<g id="a_node6"><a xlink:href="dc/d95/classmodules_1_1cli_1_1setup_1_1cli_setup.html" target="_top" xlink:title=" ">
<polygon fill="none" stroke="black" points="124,-578.5 124,-597.5 253,-597.5 253,-578.5 124,-578.5"/>
<text text-anchor="middle" x="188.5" y="-585.5" font-family="Helvetica,sans-Serif" font-size="10.00">modules.cli.setup.cliSetup</text>
</a>
</g>
</g>
<!-- Node0&#45;&gt;Node5 -->
<g id="edge5" class="edge">
<title>Node0&#45;&gt;Node5</title>
<path fill="none" stroke="midnightblue" d="M39.43,-443.96C46.67,-475.32 65.19,-535.84 105,-568 110.62,-572.54 117.11,-576.07 123.93,-578.82"/>
<polygon fill="midnightblue" stroke="midnightblue" points="42.78,-442.88 37.25,-433.84 35.93,-444.35 42.78,-442.88"/>
</g>
<!-- Node6 -->
<g id="node7" class="node">
<title>Node6</title>
<g id="a_node7"><a xlink:href="dd/d03/classmodules_1_1code__preview_1_1_code_preview.html" target="_top" xlink:title=" ">
<polygon fill="none" stroke="black" points="118.5,-803 118.5,-833 258.5,-833 258.5,-803 118.5,-803"/>
<text text-anchor="start" x="126.5" y="-821" font-family="Helvetica,sans-Serif" font-size="10.00">modules.code_preview.Code</text>
<text text-anchor="middle" x="188.5" y="-810" font-family="Helvetica,sans-Serif" font-size="10.00">Preview</text>
</a>
</g>
</g>
<!-- Node0&#45;&gt;Node6 -->
<g id="edge6" class="edge">
<title>Node0&#45;&gt;Node6</title>
<path fill="none" stroke="midnightblue" d="M36.59,-443.92C40.75,-512.93 57.87,-740.49 105,-793 108.8,-797.23 113.29,-800.76 118.18,-803.7"/>
<polygon fill="midnightblue" stroke="midnightblue" points="40.06,-443.38 35.99,-433.59 33.07,-443.78 40.06,-443.38"/>
</g>
<!-- Node10 -->
<g id="node8" class="node">
<title>Node10</title>
<g id="a_node8"><a xlink:href="dd/d7c/classmodules_1_1command__parameters_1_1_command_parameters_methods.html" target="_top" xlink:title=" ">
<polygon fill="none" stroke="black" points="111,-529 111,-559 266,-559 266,-529 111,-529"/>
<text text-anchor="start" x="119" y="-547" font-family="Helvetica,sans-Serif" font-size="10.00">modules.command_parameters.</text>
<text text-anchor="middle" x="188.5" y="-536" font-family="Helvetica,sans-Serif" font-size="10.00">CommandParametersMethods</text>
</a>
</g>
</g>
<!-- Node0&#45;&gt;Node10 -->
<g id="edge7" class="edge">
<title>Node0&#45;&gt;Node10</title>
<path fill="none" stroke="midnightblue" d="M44.49,-442.79C55.73,-464.3 76.94,-499.1 105,-519 110.49,-522.9 116.61,-526.19 122.95,-528.98"/>
<polygon fill="midnightblue" stroke="midnightblue" points="47.54,-441.05 39.92,-433.69 41.28,-444.19 47.54,-441.05"/>
</g>
<!-- Node11 -->
<g id="node9" class="node">
<title>Node11</title>
<g id="a_node9"><a xlink:href="de/d14/classmodules_1_1command__tree_1_1_command_tree_methods.html" target="_top" xlink:title=" ">
<polygon fill="none" stroke="black" points="105,-480 105,-510 272,-510 272,-480 105,-480"/>
<text text-anchor="start" x="113" y="-498" font-family="Helvetica,sans-Serif" font-size="10.00">modules.command_tree.Command</text>
<text text-anchor="middle" x="188.5" y="-487" font-family="Helvetica,sans-Serif" font-size="10.00">TreeMethods</text>
</a>
</g>
</g>
<!-- Node0&#45;&gt;Node11 -->
<g id="edge8" class="edge">
<title>Node0&#45;&gt;Node11</title>
<path fill="none" stroke="midnightblue" d="M55.69,-439.65C69.09,-449.44 87.38,-461.72 105,-470 112.86,-473.69 121.39,-477 129.88,-479.9"/>
<polygon fill="midnightblue" stroke="midnightblue" points="57.76,-436.82 47.66,-433.64 53.57,-442.43 57.76,-436.82"/>
</g>
<!-- Node12 -->
<g id="node10" class="node">
<title>Node12</title>
<g id="a_node10"><a xlink:href="d1/d1a/classmodules_1_1helper__methods_1_1_helper_methods.html" target="_top" xlink:title=" ">
<polygon fill="none" stroke="black" points="111,-431 111,-461 266,-461 266,-431 111,-431"/>
<text text-anchor="start" x="119" y="-449" font-family="Helvetica,sans-Serif" font-size="10.00">modules.helper_methods.Helper</text>
<text text-anchor="middle" x="188.5" y="-438" font-family="Helvetica,sans-Serif" font-size="10.00">Methods</text>
</a>
</g>
</g>
<!-- Node0&#45;&gt;Node12 -->
<g id="edge9" class="edge">
<title>Node0&#45;&gt;Node12</title>
<path fill="none" stroke="midnightblue" d="M66.52,-428.49C79.51,-430.37 95.24,-432.65 110.99,-434.93"/>
<polygon fill="midnightblue" stroke="midnightblue" points="66.71,-424.98 56.32,-427.01 65.71,-431.91 66.71,-424.98"/>
</g>
<!-- Node13 -->
<g id="node11" class="node">
<title>Node13</title>
<g id="a_node11"><a xlink:href="d3/dd3/classmodules_1_1logging__setup_1_1_logger.html" target="_top" xlink:title=" ">
<polygon fill="none" stroke="black" points="114.5,-392.5 114.5,-411.5 262.5,-411.5 262.5,-392.5 114.5,-392.5"/>
<text text-anchor="middle" x="188.5" y="-399.5" font-family="Helvetica,sans-Serif" font-size="10.00">modules.logging_setup.Logger</text>
</a>
</g>
</g>
<!-- Node0&#45;&gt;Node13 -->
<g id="edge10" class="edge">
<title>Node0&#45;&gt;Node13</title>
<path fill="none" stroke="midnightblue" d="M66.6,-419.5C82.49,-417.2 102.46,-414.31 121.56,-411.54"/>
<polygon fill="midnightblue" stroke="midnightblue" points="65.71,-416.09 56.32,-420.99 66.71,-423.02 65.71,-416.09"/>
</g>
<!-- Node14 -->
<g id="node12" class="node">
<title>Node14</title>
<g id="a_node12"><a xlink:href="d9/d34/classmodules_1_1mainwindow__actions_1_1_main_window_actions.html" target="_top" xlink:title=" ">
<polygon fill="none" stroke="black" points="116.5,-343 116.5,-373 260.5,-373 260.5,-343 116.5,-343"/>
<text text-anchor="start" x="124.5" y="-361" font-family="Helvetica,sans-Serif" font-size="10.00">modules.mainwindow</text>
<text text-anchor="middle" x="188.5" y="-350" font-family="Helvetica,sans-Serif" font-size="10.00">_actions.MainWindowActions</text>
</a>
</g>
</g>
<!-- Node0&#45;&gt;Node14 -->
<g id="edge11" class="edge">
<title>Node0&#45;&gt;Node14</title>
<path fill="none" stroke="midnightblue" d="M57.82,-408.98C71.1,-400.52 88.53,-390.23 105,-383 113.36,-379.33 122.42,-375.99 131.37,-373.03"/>
<polygon fill="midnightblue" stroke="midnightblue" points="55.82,-406.1 49.35,-414.49 59.64,-411.97 55.82,-406.1"/>
</g>
<!-- Node15 -->
<g id="node13" class="node">
<title>Node15</title>
<g id="a_node13"><a xlink:href="d1/db3/classmodules_1_1mainwindow__buttons_1_1_main_window_buttons.html" target="_top" xlink:title=" ">
<polygon fill="none" stroke="black" points="115.5,-294 115.5,-324 261.5,-324 261.5,-294 115.5,-294"/>
<text text-anchor="start" x="123.5" y="-312" font-family="Helvetica,sans-Serif" font-size="10.00">modules.mainwindow</text>
<text text-anchor="middle" x="188.5" y="-301" font-family="Helvetica,sans-Serif" font-size="10.00">_buttons.MainWindowButtons</text>
</a>
</g>
</g>
<!-- Node0&#45;&gt;Node15 -->
<g id="edge12" class="edge">
<title>Node0&#45;&gt;Node15</title>
<path fill="none" stroke="midnightblue" d="M44.99,-405.35C56.46,-384.66 77.66,-351.74 105,-333 110.04,-329.54 115.59,-326.58 121.35,-324.03"/>
<polygon fill="midnightblue" stroke="midnightblue" points="41.78,-403.94 40.16,-414.41 47.95,-407.23 41.78,-403.94"/>
</g>
<!-- Node16 -->
<g id="node14" class="node">
<title>Node16</title>
<g id="a_node14"><a xlink:href="da/df2/classmodules_1_1parse__config_1_1_parse_input_handler_config.html" target="_top" xlink:title=" ">
<polygon fill="none" stroke="black" points="119.5,-245 119.5,-275 257.5,-275 257.5,-245 119.5,-245"/>
<text text-anchor="start" x="127.5" y="-263" font-family="Helvetica,sans-Serif" font-size="10.00">modules.parse_config.Parse</text>
<text text-anchor="middle" x="188.5" y="-252" font-family="Helvetica,sans-Serif" font-size="10.00">InputHandlerConfig</text>
</a>
</g>
</g>
<!-- Node0&#45;&gt;Node16 -->
<g id="edge13" class="edge">
<title>Node0&#45;&gt;Node16</title>
<path fill="none" stroke="midnightblue" d="M39.88,-404.35C47.66,-374.01 66.81,-315.94 105,-284 109.35,-280.36 114.22,-277.28 119.37,-274.66"/>
<polygon fill="midnightblue" stroke="midnightblue" points="36.45,-403.63 37.51,-414.17 43.26,-405.27 36.45,-403.63"/>
</g>
<!-- Node17 -->
<g id="node15" class="node">
<title>Node17</title>
<g id="a_node15"><a xlink:href="d2/db5/classmodules_1_1settings__tree_1_1_settings_tree_methods.html" target="_top" xlink:title=" ">
<polygon fill="none" stroke="black" points="113.5,-196 113.5,-226 263.5,-226 263.5,-196 113.5,-196"/>
<text text-anchor="start" x="121.5" y="-214" font-family="Helvetica,sans-Serif" font-size="10.00">modules.settings_tree.Settings</text>
<text text-anchor="middle" x="188.5" y="-203" font-family="Helvetica,sans-Serif" font-size="10.00">TreeMethods</text>
</a>
</g>
</g>
<!-- Node0&#45;&gt;Node17 -->
<g id="edge14" class="edge">
<title>Node0&#45;&gt;Node17</title>
<path fill="none" stroke="midnightblue" d="M37.09,-403.68C41.21,-365.11 55.66,-281.04 105,-235 108.71,-231.54 112.89,-228.58 117.35,-226.04"/>
<polygon fill="midnightblue" stroke="midnightblue" points="33.56,-403.81 36.12,-414.09 40.53,-404.46 33.56,-403.81"/>
</g>
<!-- Node18 -->
<g id="node16" class="node">
<title>Node18</title>
<g id="a_node16"><a xlink:href="de/d9f/classmodules_1_1settings__tree__table__methods_1_1_settings_tree_table_methods.html" target="_top" xlink:title=" ">
<polygon fill="none" stroke="black" points="117,-136.5 117,-177.5 260,-177.5 260,-136.5 117,-136.5"/>
<text text-anchor="start" x="125" y="-165.5" font-family="Helvetica,sans-Serif" font-size="10.00">modules.settings_tree</text>
<text text-anchor="start" x="125" y="-154.5" font-family="Helvetica,sans-Serif" font-size="10.00">_table_methods.SettingsTree</text>
<text text-anchor="middle" x="188.5" y="-143.5" font-family="Helvetica,sans-Serif" font-size="10.00">TableMethods</text>
</a>
</g>
</g>
<!-- Node0&#45;&gt;Node18 -->
<g id="edge15" class="edge">
<title>Node0&#45;&gt;Node18</title>
<path fill="none" stroke="midnightblue" d="M35.51,-404.15C36.63,-359.2 45.63,-248.66 105,-186 108.55,-182.25 112.61,-178.99 116.99,-176.15"/>
<polygon fill="midnightblue" stroke="midnightblue" points="32.01,-404.28 35.37,-414.33 39.01,-404.38 32.01,-404.28"/>
</g>
<!-- Node19 -->
<g id="node17" class="node">
<title>Node19</title>
<g id="a_node17"><a xlink:href="df/def/classuic_1_1command_parameters_dialog_1_1_ui__command_parameters_dialog.html" target="_top" xlink:title=" ">
<polygon fill="none" stroke="black" points="111.5,-88 111.5,-118 265.5,-118 265.5,-88 111.5,-88"/>
<text text-anchor="start" x="119.5" y="-106" font-family="Helvetica,sans-Serif" font-size="10.00">uic.commandParametersDialog.</text>
<text text-anchor="middle" x="188.5" y="-95" font-family="Helvetica,sans-Serif" font-size="10.00">Ui_commandParametersDialog</text>
</a>
</g>
</g>
<!-- Node0&#45;&gt;Node19 -->
<g id="edge16" class="edge">
<title>Node0&#45;&gt;Node19</title>
<path fill="none" stroke="midnightblue" d="M37.54,-404.18C44.09,-344.43 66.41,-167.7 105,-127 108.28,-123.54 112.04,-120.56 116.09,-118.01"/>
<polygon fill="midnightblue" stroke="midnightblue" points="34.06,-403.89 36.48,-414.2 41.02,-404.63 34.06,-403.89"/>
</g>
<!-- Node20 -->
<g id="node18" class="node">
<title>Node20</title>
<g id="a_node18"><a xlink:href="d3/d1e/classuic_1_1log_history_dialog_1_1_ui__log_history_dialog.html" target="_top" xlink:title=" ">
<polygon fill="none" stroke="black" points="131.5,-39 131.5,-69 245.5,-69 245.5,-39 131.5,-39"/>
<text text-anchor="start" x="139.5" y="-57" font-family="Helvetica,sans-Serif" font-size="10.00">uic.logHistoryDialog.Ui</text>
<text text-anchor="middle" x="188.5" y="-46" font-family="Helvetica,sans-Serif" font-size="10.00">_logHistoryDialog</text>
</a>
</g>
</g>
<!-- Node0&#45;&gt;Node20 -->
<g id="edge17" class="edge">
<title>Node0&#45;&gt;Node20</title>
<path fill="none" stroke="midnightblue" d="M36.84,-404.03C41.69,-337.75 60.43,-126.53 105,-78 112.06,-70.31 121.43,-65.03 131.32,-61.42"/>
<polygon fill="midnightblue" stroke="midnightblue" points="33.33,-404.11 36.12,-414.33 40.31,-404.6 33.33,-404.11"/>
</g>
<!-- Node21 -->
<g id="node19" class="node">
<title>Node21</title>
<g id="a_node19"><a xlink:href="d1/d3a/classuic_1_1main_window_1_1_ui___main_window.html" target="_top" xlink:title=" ">
<polygon fill="none" stroke="black" points="108.5,-0.5 108.5,-19.5 268.5,-19.5 268.5,-0.5 108.5,-0.5"/>
<text text-anchor="middle" x="188.5" y="-7.5" font-family="Helvetica,sans-Serif" font-size="10.00">uic.mainWindow.Ui_MainWindow</text>
</a>
</g>
</g>
<!-- Node0&#45;&gt;Node21 -->
<g id="edge18" class="edge">
<title>Node0&#45;&gt;Node21</title>
<path fill="none" stroke="midnightblue" d="M36.19,-403.98C39.11,-331.49 52.78,-84.02 105,-29 108.54,-25.27 112.66,-22.2 117.12,-19.69"/>
<polygon fill="midnightblue" stroke="midnightblue" points="32.68,-404.28 35.8,-414.4 39.67,-404.54 32.68,-404.28"/>
</g>
<!-- Node7 -->
<g id="node20" class="node">
<title>Node7</title>
<g id="a_node20"><a xlink:title=" ">
<polygon fill="none" stroke="#bfbfbf" points="8,-846.5 8,-865.5 61,-865.5 61,-846.5 8,-846.5"/>
<text text-anchor="middle" x="34.5" y="-853.5" font-family="Helvetica,sans-Serif" font-size="10.00">cliConfig</text>
</a>
</g>
</g>
<!-- Node7&#45;&gt;Node6 -->
<g id="edge19" class="edge">
<title>Node7&#45;&gt;Node6</title>
<path fill="none" stroke="midnightblue" d="M71.2,-847.08C87.95,-842.89 108.38,-837.78 127.42,-833.02"/>
<polygon fill="midnightblue" stroke="midnightblue" points="70.14,-843.73 61.28,-849.55 71.84,-850.52 70.14,-843.73"/>
</g>
<!-- Node8 -->
<g id="node21" class="node">
<title>Node8</title>
<g id="a_node21"><a xlink:title=" ">
<polygon fill="none" stroke="#bfbfbf" points="0,-808.5 0,-827.5 69,-827.5 69,-808.5 0,-808.5"/>
<text text-anchor="middle" x="34.5" y="-815.5" font-family="Helvetica,sans-Serif" font-size="10.00">cliFunctions</text>
</a>
</g>
</g>
<!-- Node8&#45;&gt;Node6 -->
<g id="edge20" class="edge">
<title>Node8&#45;&gt;Node6</title>
<path fill="none" stroke="midnightblue" d="M79.53,-818C91.67,-818 105.16,-818 118.36,-818"/>
<polygon fill="midnightblue" stroke="midnightblue" points="79.23,-814.5 69.23,-818 79.23,-821.5 79.23,-814.5"/>
</g>
<!-- Node9 -->
<g id="node22" class="node">
<title>Node9</title>
<g id="a_node22"><a xlink:title=" ">
<polygon fill="none" stroke="#bfbfbf" points="8.5,-770.5 8.5,-789.5 60.5,-789.5 60.5,-770.5 8.5,-770.5"/>
<text text-anchor="middle" x="34.5" y="-777.5" font-family="Helvetica,sans-Serif" font-size="10.00">cliSetup</text>
</a>
</g>
</g>
<!-- Node9&#45;&gt;Node6 -->
<g id="edge21" class="edge">
<title>Node9&#45;&gt;Node6</title>
<path fill="none" stroke="midnightblue" d="M70.53,-788.76C87.36,-792.96 108,-798.13 127.24,-802.93"/>
<polygon fill="midnightblue" stroke="midnightblue" points="71.15,-785.3 60.6,-786.27 69.45,-792.1 71.15,-785.3"/>
</g>
</g>
</svg>
