<?xml version="1.0" encoding="UTF-8" standalone="no"?>
<!DOCTYPE svg PUBLIC "-//W3C//DTD SVG 1.1//EN"
 "http://www.w3.org/Graphics/SVG/1.1/DTD/svg11.dtd">
<!-- Generated by graphviz version 5.0.1 (20220820.1526)
 -->
<!-- Title: Graphical Class Hierarchy Pages: 1 -->
<svg width="288pt" height="991pt"
 viewBox="0.00 0.00 288.00 991.00" xmlns="http://www.w3.org/2000/svg" xmlns:xlink="http://www.w3.org/1999/xlink">
<g id="graph0" class="graph" transform="scale(1 1) rotate(0) translate(4 987)">
<title>Graphical Class Hierarchy</title>
<!-- Node0 -->
<g id="node1" class="node">
<title>Node0</title>
<g id="a_node1"><a xlink:title=" ">
<polygon fill="none" stroke="#bfbfbf" points="17,-463.5 17,-482.5 60,-482.5 60,-463.5 17,-463.5"/>
<text text-anchor="middle" x="38.5" y="-470.5" font-family="Helvetica,sans-Serif" font-size="10.00">object</text>
</a>
</g>
</g>
<!-- Node1 -->
<g id="node2" class="node">
<title>Node1</title>
<g id="a_node2"><a xlink:href="d5/d68/classmodules_1_1cli_1_1config_1_1cli_config.html" target="_top" xlink:title=" ">
<polygon fill="none" stroke="black" points="130.5,-862.5 130.5,-881.5 262.5,-881.5 262.5,-862.5 130.5,-862.5"/>
<text text-anchor="middle" x="196.5" y="-869.5" font-family="Helvetica,sans-Serif" font-size="10.00">modules.cli.config.cliConfig</text>
</a>
</g>
</g>
<!-- Node0&#45;&gt;Node1 -->
<g id="edge1" class="edge">
<title>Node0&#45;&gt;Node1</title>
<path fill="none" stroke="midnightblue" d="M40.58,-492.66C44.82,-562.79 62.69,-799.31 113,-852 117.89,-857.12 123.84,-861.02 130.29,-863.98"/>
<polygon fill="midnightblue" stroke="midnightblue" points="44.07,-492.34 39.99,-482.55 37.08,-492.74 44.07,-492.34"/>
</g>
<!-- Node2 -->
<g id="node3" class="node">
<title>Node2</title>
<g id="a_node3"><a xlink:href="dc/d45/classmodules_1_1cli_1_1filestrings_1_1_c_l_ifilestrings.html" target="_top" xlink:title="file construction strings">
<polygon fill="none" stroke="black" points="141,-813 141,-843 252,-843 252,-813 141,-813"/>
<text text-anchor="start" x="149" y="-831" font-family="Helvetica,sans-Serif" font-size="10.00">modules.cli.filestrings.</text>
<text text-anchor="middle" x="196.5" y="-820" font-family="Helvetica,sans-Serif" font-size="10.00">CLIfilestrings</text>
</a>
</g>
</g>
<!-- Node0&#45;&gt;Node2 -->
<g id="edge2" class="edge">
<title>Node0&#45;&gt;Node2</title>
<path fill="none" stroke="midnightblue" d="M41.32,-492.86C47.59,-556.97 70.25,-756.92 113,-803 120.43,-811.01 130.33,-816.48 140.69,-820.22"/>
<polygon fill="midnightblue" stroke="midnightblue" points="44.77,-492.16 40.34,-482.54 37.8,-492.83 44.77,-492.16"/>
</g>
<!-- Node3 -->
<g id="node4" class="node">
<title>Node3</title>
<g id="a_node4"><a xlink:href="dd/d75/classmodules_1_1cli_1_1functions_1_1cli_functions.html" target="_top" xlink:title=" ">
<polygon fill="none" stroke="black" points="137,-764 137,-794 256,-794 256,-764 137,-764"/>
<text text-anchor="start" x="145" y="-782" font-family="Helvetica,sans-Serif" font-size="10.00">modules.cli.functions.cli</text>
<text text-anchor="middle" x="196.5" y="-771" font-family="Helvetica,sans-Serif" font-size="10.00">Functions</text>
</a>
</g>
</g>
<!-- Node0&#45;&gt;Node3 -->
<g id="edge3" class="edge">
<title>Node0&#45;&gt;Node3</title>
<path fill="none" stroke="midnightblue" d="M42.1,-492.49C50.12,-549.73 76.12,-715.68 113,-754 119.54,-760.79 127.85,-765.76 136.68,-769.38"/>
<polygon fill="midnightblue" stroke="midnightblue" points="45.57,-492 40.74,-482.57 38.63,-492.95 45.57,-492"/>
</g>
<!-- Node4 -->
<g id="node5" class="node">
<title>Node4</title>
<g id="a_node5"><a xlink:href="d5/dc1/classmodules_1_1cli_1_1parameters_1_1cli_parameters.html" target="_top" xlink:title=" ">
<polygon fill="none" stroke="black" points="132.5,-715 132.5,-745 260.5,-745 260.5,-715 132.5,-715"/>
<text text-anchor="start" x="140.5" y="-733" font-family="Helvetica,sans-Serif" font-size="10.00">modules.cli.parameters.cli</text>
<text text-anchor="middle" x="196.5" y="-722" font-family="Helvetica,sans-Serif" font-size="10.00">Parameters</text>
</a>
</g>
</g>
<!-- Node0&#45;&gt;Node4 -->
<g id="edge4" class="edge">
<title>Node0&#45;&gt;Node4</title>
<path fill="none" stroke="midnightblue" d="M39.87,-492.56C41.77,-536.83 52.71,-645.46 113,-705 118.54,-710.47 125.23,-714.75 132.38,-718.09"/>
<polygon fill="midnightblue" stroke="midnightblue" points="43.36,-492.42 39.55,-482.54 36.37,-492.65 43.36,-492.42"/>
</g>
<!-- Node5 -->
<g id="node6" class="node">
<title>Node5</title>
<g id="a_node6"><a xlink:href="dc/d95/classmodules_1_1cli_1_1setup_1_1cli_setup.html" target="_top" xlink:title=" ">
<polygon fill="none" stroke="black" points="132,-676.5 132,-695.5 261,-695.5 261,-676.5 132,-676.5"/>
<text text-anchor="middle" x="196.5" y="-683.5" font-family="Helvetica,sans-Serif" font-size="10.00">modules.cli.setup.cliSetup</text>
</a>
</g>
</g>
<!-- Node0&#45;&gt;Node5 -->
<g id="edge5" class="edge">
<title>Node0&#45;&gt;Node5</title>
<path fill="none" stroke="midnightblue" d="M41.11,-492.92C45.39,-532.19 60.61,-619.83 113,-666 118.53,-670.87 125.04,-674.6 131.95,-677.46"/>
<polygon fill="midnightblue" stroke="midnightblue" points="44.58,-492.4 40.14,-482.78 37.61,-493.07 44.58,-492.4"/>
</g>
<!-- Node6 -->
<g id="node7" class="node">
<title>Node6</title>
<g id="a_node7"><a xlink:href="dd/d03/classmodules_1_1code__preview_1_1_code_preview.html" target="_top" xlink:title=" ">
<polygon fill="none" stroke="black" points="126.5,-901 126.5,-931 266.5,-931 266.5,-901 126.5,-901"/>
<text text-anchor="start" x="134.5" y="-919" font-family="Helvetica,sans-Serif" font-size="10.00">modules.code_preview.Code</text>
<text text-anchor="middle" x="196.5" y="-908" font-family="Helvetica,sans-Serif" font-size="10.00">Preview</text>
</a>
</g>
</g>
<!-- Node0&#45;&gt;Node6 -->
<g id="edge6" class="edge">
<title>Node0&#45;&gt;Node6</title>
<path fill="none" stroke="midnightblue" d="M40.32,-493.1C43.77,-568.14 59.53,-830.68 113,-891 116.77,-895.26 121.24,-898.8 126.12,-901.75"/>
<polygon fill="midnightblue" stroke="midnightblue" points="43.8,-492.56 39.87,-482.72 36.8,-492.87 43.8,-492.56"/>
</g>
<!-- Node11 -->
<g id="node8" class="node">
<title>Node11</title>
<g id="a_node8"><a xlink:href="dd/d7c/classmodules_1_1command__parameters_1_1_command_parameters_methods.html" target="_top" xlink:title=" ">
<polygon fill="none" stroke="black" points="119,-627 119,-657 274,-657 274,-627 119,-627"/>
<text text-anchor="start" x="127" y="-645" font-family="Helvetica,sans-Serif" font-size="10.00">modules.command_parameters.</text>
<text text-anchor="middle" x="196.5" y="-634" font-family="Helvetica,sans-Serif" font-size="10.00">CommandParametersMethods</text>
</a>
</g>
</g>
<!-- Node0&#45;&gt;Node11 -->
<g id="edge7" class="edge">
<title>Node0&#45;&gt;Node11</title>
<path fill="none" stroke="midnightblue" d="M44.22,-492.72C52.67,-523.74 73.31,-583.8 113,-617 117.59,-620.84 122.76,-624.09 128.22,-626.84"/>
<polygon fill="midnightblue" stroke="midnightblue" points="47.53,-491.52 41.65,-482.71 40.75,-493.27 47.53,-491.52"/>
</g>
<!-- Node12 -->
<g id="node9" class="node">
<title>Node12</title>
<g id="a_node9"><a xlink:href="de/d14/classmodules_1_1command__tree_1_1_command_tree_methods.html" target="_top" xlink:title="self.ui.command_tree methods">
<polygon fill="none" stroke="black" points="113,-578 113,-608 280,-608 280,-578 113,-578"/>
<text text-anchor="start" x="121" y="-596" font-family="Helvetica,sans-Serif" font-size="10.00">modules.command_tree.Command</text>
<text text-anchor="middle" x="196.5" y="-585" font-family="Helvetica,sans-Serif" font-size="10.00">TreeMethods</text>
</a>
</g>
</g>
<!-- Node0&#45;&gt;Node12 -->
<g id="edge8" class="edge">
<title>Node0&#45;&gt;Node12</title>
<path fill="none" stroke="midnightblue" d="M49.12,-491.49C61.22,-512.97 83.96,-547.99 113,-568 118.55,-571.82 124.69,-575.07 131.05,-577.83"/>
<polygon fill="midnightblue" stroke="midnightblue" points="52.18,-489.79 44.33,-482.68 46.03,-493.14 52.18,-489.79"/>
</g>
<!-- Node13 -->
<g id="node10" class="node">
<title>Node13</title>
<g id="a_node10"><a xlink:href="d7/d8c/classmodules_1_1data__models_1_1data_models.html" target="_top" xlink:title=" ">
<polygon fill="none" stroke="black" points="130.5,-529 130.5,-559 262.5,-559 262.5,-529 130.5,-529"/>
<text text-anchor="start" x="138.5" y="-547" font-family="Helvetica,sans-Serif" font-size="10.00">modules.data_models.data</text>
<text text-anchor="middle" x="196.5" y="-536" font-family="Helvetica,sans-Serif" font-size="10.00">Models</text>
</a>
</g>
</g>
<!-- Node0&#45;&gt;Node13 -->
<g id="edge9" class="edge">
<title>Node0&#45;&gt;Node13</title>
<path fill="none" stroke="midnightblue" d="M60.99,-488.58C75.21,-498.34 94.56,-510.62 113,-519 121.04,-522.65 129.75,-525.95 138.41,-528.86"/>
<polygon fill="midnightblue" stroke="midnightblue" points="62.65,-485.47 52.45,-482.59 58.63,-491.2 62.65,-485.47"/>
</g>
<!-- Node14 -->
<g id="node11" class="node">
<title>Node14</title>
<g id="a_node11"><a xlink:href="d1/d1a/classmodules_1_1helper__methods_1_1_helper_methods.html" target="_top" xlink:title=" ">
<polygon fill="none" stroke="black" points="119,-480 119,-510 274,-510 274,-480 119,-480"/>
<text text-anchor="start" x="127" y="-498" font-family="Helvetica,sans-Serif" font-size="10.00">modules.helper_methods.Helper</text>
<text text-anchor="middle" x="196.5" y="-487" font-family="Helvetica,sans-Serif" font-size="10.00">Methods</text>
</a>
</g>
</g>
<!-- Node0&#45;&gt;Node14 -->
<g id="edge10" class="edge">
<title>Node0&#45;&gt;Node14</title>
<path fill="none" stroke="midnightblue" d="M70.26,-477.34C84.3,-479.32 101.62,-481.76 118.85,-484.19"/>
<polygon fill="midnightblue" stroke="midnightblue" points="70.61,-473.85 60.22,-475.92 69.63,-480.78 70.61,-473.85"/>
</g>
<!-- Node15 -->
<g id="node12" class="node">
<title>Node15</title>
<g id="a_node12"><a xlink:href="d3/dd3/classmodules_1_1logging__setup_1_1_logger.html" target="_top" xlink:title="logging api">
<polygon fill="none" stroke="black" points="122.5,-441.5 122.5,-460.5 270.5,-460.5 270.5,-441.5 122.5,-441.5"/>
<text text-anchor="middle" x="196.5" y="-448.5" font-family="Helvetica,sans-Serif" font-size="10.00">modules.logging_setup.Logger</text>
</a>
</g>
</g>
<!-- Node0&#45;&gt;Node15 -->
<g id="edge11" class="edge">
<title>Node0&#45;&gt;Node15</title>
<path fill="none" stroke="midnightblue" d="M70.36,-468.65C86.88,-466.32 107.91,-463.35 127.99,-460.52"/>
<polygon fill="midnightblue" stroke="midnightblue" points="69.63,-465.22 60.22,-470.08 70.61,-472.15 69.63,-465.22"/>
</g>
<!-- Node16 -->
<g id="node13" class="node">
<title>Node16</title>
<g id="a_node13"><a xlink:href="d9/d34/classmodules_1_1mainwindow__actions_1_1_main_window_actions.html" target="_top" xlink:title=" ">
<polygon fill="none" stroke="black" points="124.5,-392 124.5,-422 268.5,-422 268.5,-392 124.5,-392"/>
<text text-anchor="start" x="132.5" y="-410" font-family="Helvetica,sans-Serif" font-size="10.00">modules.mainwindow</text>
<text text-anchor="middle" x="196.5" y="-399" font-family="Helvetica,sans-Serif" font-size="10.00">_actions.MainWindowActions</text>
</a>
</g>
</g>
<!-- Node0&#45;&gt;Node16 -->
<g id="edge12" class="edge">
<title>Node0&#45;&gt;Node16</title>
<path fill="none" stroke="midnightblue" d="M63.08,-458.14C77.18,-449.69 95.68,-439.35 113,-432 121.54,-428.37 130.78,-425.04 139.89,-422.06"/>
<polygon fill="midnightblue" stroke="midnightblue" points="61.22,-455.17 54.5,-463.37 64.86,-461.15 61.22,-455.17"/>
</g>
<!-- Node17 -->
<g id="node14" class="node">
<title>Node17</title>
<g id="a_node14"><a xlink:href="d1/db3/classmodules_1_1mainwindow__buttons_1_1_main_window_buttons.html" target="_top" xlink:title=" ">
<polygon fill="none" stroke="black" points="123.5,-343 123.5,-373 269.5,-373 269.5,-343 123.5,-343"/>
<text text-anchor="start" x="131.5" y="-361" font-family="Helvetica,sans-Serif" font-size="10.00">modules.mainwindow</text>
<text text-anchor="middle" x="196.5" y="-350" font-family="Helvetica,sans-Serif" font-size="10.00">_buttons.MainWindowButtons</text>
</a>
</g>
</g>
<!-- Node0&#45;&gt;Node17 -->
<g id="edge13" class="edge">
<title>Node0&#45;&gt;Node17</title>
<path fill="none" stroke="midnightblue" d="M49.63,-454.64C61.96,-433.98 84.69,-400.84 113,-382 118.09,-378.61 123.67,-375.69 129.44,-373.18"/>
<polygon fill="midnightblue" stroke="midnightblue" points="46.54,-453 44.57,-463.41 52.6,-456.5 46.54,-453"/>
</g>
<!-- Node18 -->
<g id="node15" class="node">
<title>Node18</title>
<g id="a_node15"><a xlink:href="da/df2/classmodules_1_1parse__config_1_1_parse_input_handler_config.html" target="_top" xlink:title=" ">
<polygon fill="none" stroke="black" points="127.5,-294 127.5,-324 265.5,-324 265.5,-294 127.5,-294"/>
<text text-anchor="start" x="135.5" y="-312" font-family="Helvetica,sans-Serif" font-size="10.00">modules.parse_config.Parse</text>
<text text-anchor="middle" x="196.5" y="-301" font-family="Helvetica,sans-Serif" font-size="10.00">InputHandlerConfig</text>
</a>
</g>
</g>
<!-- Node0&#45;&gt;Node18 -->
<g id="edge14" class="edge">
<title>Node0&#45;&gt;Node18</title>
<path fill="none" stroke="midnightblue" d="M44.47,-453.33C53.15,-422.97 74,-364.87 113,-333 117.39,-329.41 122.29,-326.36 127.46,-323.77"/>
<polygon fill="midnightblue" stroke="midnightblue" points="41.04,-452.59 41.81,-463.16 47.8,-454.42 41.04,-452.59"/>
</g>
<!-- Node19 -->
<g id="node16" class="node">
<title>Node19</title>
<g id="a_node16"><a xlink:href="dd/dae/classmodules_1_1preferences_1_1_preferences_methods.html" target="_top" xlink:title=" ">
<polygon fill="none" stroke="black" points="116,-245 116,-275 277,-275 277,-245 116,-245"/>
<text text-anchor="start" x="124" y="-263" font-family="Helvetica,sans-Serif" font-size="10.00">modules.preferences.Preferences</text>
<text text-anchor="middle" x="196.5" y="-252" font-family="Helvetica,sans-Serif" font-size="10.00">Methods</text>
</a>
</g>
</g>
<!-- Node0&#45;&gt;Node19 -->
<g id="edge15" class="edge">
<title>Node0&#45;&gt;Node19</title>
<path fill="none" stroke="midnightblue" d="M41.56,-452.65C46.56,-414.04 62.88,-329.9 113,-284 116.74,-280.57 120.94,-277.64 125.42,-275.11"/>
<polygon fill="midnightblue" stroke="midnightblue" points="38.02,-452.74 40.34,-463.08 44.98,-453.55 38.02,-452.74"/>
</g>
<!-- Node20 -->
<g id="node17" class="node">
<title>Node20</title>
<g id="a_node17"><a xlink:href="d2/db5/classmodules_1_1settings__tree_1_1_settings_tree_methods.html" target="_top" xlink:title=" ">
<polygon fill="none" stroke="black" points="121.5,-196 121.5,-226 271.5,-226 271.5,-196 121.5,-196"/>
<text text-anchor="start" x="129.5" y="-214" font-family="Helvetica,sans-Serif" font-size="10.00">modules.settings_tree.Settings</text>
<text text-anchor="middle" x="196.5" y="-203" font-family="Helvetica,sans-Serif" font-size="10.00">TreeMethods</text>
</a>
</g>
</g>
<!-- Node0&#45;&gt;Node20 -->
<g id="edge16" class="edge">
<title>Node0&#45;&gt;Node20</title>
<path fill="none" stroke="midnightblue" d="M39.64,-453.18C41.07,-407.88 51.04,-295.95 113,-235 116.51,-231.55 120.48,-228.59 124.75,-226.05"/>
<polygon fill="midnightblue" stroke="midnightblue" points="36.14,-453.13 39.44,-463.19 43.14,-453.27 36.14,-453.13"/>
</g>
<!-- Node21 -->
<g id="node18" class="node">
<title>Node21</title>
<g id="a_node18"><a xlink:href="de/d9f/classmodules_1_1settings__tree__table__methods_1_1_settings_tree_table_methods.html" target="_top" xlink:title=" ">
<polygon fill="none" stroke="black" points="125,-136.5 125,-177.5 268,-177.5 268,-136.5 125,-136.5"/>
<text text-anchor="start" x="133" y="-165.5" font-family="Helvetica,sans-Serif" font-size="10.00">modules.settings_tree</text>
<text text-anchor="start" x="133" y="-154.5" font-family="Helvetica,sans-Serif" font-size="10.00">_table_methods.SettingsTree</text>
<text text-anchor="middle" x="196.5" y="-143.5" font-family="Helvetica,sans-Serif" font-size="10.00">TableMethods</text>
</a>
</g>
</g>
<!-- Node0&#45;&gt;Node21 -->
<g id="edge17" class="edge">
<title>Node0&#45;&gt;Node21</title>
<path fill="none" stroke="midnightblue" d="M42.12,-453.17C50.2,-394.93 76.35,-226 113,-186 116.49,-182.19 120.5,-178.89 124.85,-176.02"/>
<polygon fill="midnightblue" stroke="midnightblue" points="38.63,-452.89 40.75,-463.27 45.57,-453.83 38.63,-452.89"/>
</g>
<!-- Node22 -->
<g id="node19" class="node">
<title>Node22</title>
<g id="a_node19"><a xlink:href="df/def/classuic_1_1command_parameters_dialog_1_1_ui__command_parameters_dialog.html" target="_top" xlink:title=" ">
<polygon fill="none" stroke="black" points="119.5,-88 119.5,-118 273.5,-118 273.5,-88 119.5,-88"/>
<text text-anchor="start" x="127.5" y="-106" font-family="Helvetica,sans-Serif" font-size="10.00">uic.commandParametersDialog.</text>
<text text-anchor="middle" x="196.5" y="-95" font-family="Helvetica,sans-Serif" font-size="10.00">Ui_commandParametersDialog</text>
</a>
</g>
</g>
<!-- Node0&#45;&gt;Node22 -->
<g id="edge18" class="edge">
<title>Node0&#45;&gt;Node22</title>
<path fill="none" stroke="midnightblue" d="M41.09,-453.02C46.75,-386.71 68.06,-175.39 113,-127 116.15,-123.61 119.74,-120.69 123.63,-118.18"/>
<polygon fill="midnightblue" stroke="midnightblue" points="37.57,-453.07 40.24,-463.33 44.55,-453.65 37.57,-453.07"/>
</g>
<!-- Node23 -->
<g id="node20" class="node">
<title>Node23</title>
<g id="a_node20"><a xlink:href="d3/d1e/classuic_1_1log_history_dialog_1_1_ui__log_history_dialog.html" target="_top" xlink:title=" ">
<polygon fill="none" stroke="black" points="139.5,-39 139.5,-69 253.5,-69 253.5,-39 139.5,-39"/>
<text text-anchor="start" x="147.5" y="-57" font-family="Helvetica,sans-Serif" font-size="10.00">uic.logHistoryDialog.Ui</text>
<text text-anchor="middle" x="196.5" y="-46" font-family="Helvetica,sans-Serif" font-size="10.00">_logHistoryDialog</text>
</a>
</g>
</g>
<!-- Node0&#45;&gt;Node23 -->
<g id="edge19" class="edge">
<title>Node0&#45;&gt;Node23</title>
<path fill="none" stroke="midnightblue" d="M40.51,-453.07C44.57,-380.88 62,-134.33 113,-78 120.01,-70.26 129.35,-64.96 139.23,-61.34"/>
<polygon fill="midnightblue" stroke="midnightblue" points="37,-453.27 39.95,-463.44 43.99,-453.65 37,-453.27"/>
</g>
<!-- Node24 -->
<g id="node21" class="node">
<title>Node24</title>
<g id="a_node21"><a xlink:href="d1/d3a/classuic_1_1main_window_1_1_ui___main_window.html" target="_top" xlink:title=" ">
<polygon fill="none" stroke="black" points="116.5,-0.5 116.5,-19.5 276.5,-19.5 276.5,-0.5 116.5,-0.5"/>
<text text-anchor="middle" x="196.5" y="-7.5" font-family="Helvetica,sans-Serif" font-size="10.00">uic.mainWindow.Ui_MainWindow</text>
</a>
</g>
</g>
<!-- Node0&#45;&gt;Node24 -->
<g id="edge20" class="edge">
<title>Node0&#45;&gt;Node24</title>
<path fill="none" stroke="midnightblue" d="M39.95,-453.05C42.15,-375.03 54.1,-91.69 113,-29 116.52,-25.25 120.62,-22.17 125.08,-19.65"/>
<polygon fill="midnightblue" stroke="midnightblue" points="36.45,-453.3 39.69,-463.39 43.44,-453.48 36.45,-453.3"/>
</g>
<!-- Node7 -->
<g id="node22" class="node">
<title>Node7</title>
<g id="a_node22"><a xlink:title=" ">
<polygon fill="none" stroke="#bfbfbf" points="12,-963.5 12,-982.5 65,-982.5 65,-963.5 12,-963.5"/>
<text text-anchor="middle" x="38.5" y="-970.5" font-family="Helvetica,sans-Serif" font-size="10.00">cliConfig</text>
</a>
</g>
</g>
<!-- Node7&#45;&gt;Node6 -->
<g id="edge21" class="edge">
<title>Node7&#45;&gt;Node6</title>
<path fill="none" stroke="midnightblue" d="M74.89,-960.07C98.53,-951.43 129.7,-940.04 154.44,-931"/>
<polygon fill="midnightblue" stroke="midnightblue" points="73.45,-956.87 65.26,-963.59 75.85,-963.44 73.45,-956.87"/>
</g>
<!-- Node8 -->
<g id="node23" class="node">
<title>Node8</title>
<g id="a_node23"><a xlink:title=" ">
<polygon fill="none" stroke="#bfbfbf" points="4,-925.5 4,-944.5 73,-944.5 73,-925.5 4,-925.5"/>
<text text-anchor="middle" x="38.5" y="-932.5" font-family="Helvetica,sans-Serif" font-size="10.00">cliFunctions</text>
</a>
</g>
</g>
<!-- Node8&#45;&gt;Node6 -->
<g id="edge22" class="edge">
<title>Node8&#45;&gt;Node6</title>
<path fill="none" stroke="midnightblue" d="M83.65,-929.62C96.97,-928 111.93,-926.18 126.47,-924.41"/>
<polygon fill="midnightblue" stroke="midnightblue" points="82.85,-926.19 73.35,-930.88 83.7,-933.14 82.85,-926.19"/>
</g>
<!-- Node9 -->
<g id="node24" class="node">
<title>Node9</title>
<g id="a_node24"><a xlink:title=" ">
<polygon fill="none" stroke="#bfbfbf" points="0,-887.5 0,-906.5 77,-906.5 77,-887.5 0,-887.5"/>
<text text-anchor="middle" x="38.5" y="-894.5" font-family="Helvetica,sans-Serif" font-size="10.00">cliParameters</text>
</a>
</g>
</g>
<!-- Node9&#45;&gt;Node6 -->
<g id="edge23" class="edge">
<title>Node9&#45;&gt;Node6</title>
<path fill="none" stroke="midnightblue" d="M87.32,-902.82C99.66,-904.33 113.19,-905.98 126.38,-907.58"/>
<polygon fill="midnightblue" stroke="midnightblue" points="87.61,-899.33 77.26,-901.6 86.77,-906.28 87.61,-899.33"/>
</g>
<!-- Node10 -->
<g id="node25" class="node">
<title>Node10</title>
<g id="a_node25"><a xlink:title=" ">
<polygon fill="none" stroke="#bfbfbf" points="12.5,-849.5 12.5,-868.5 64.5,-868.5 64.5,-849.5 12.5,-849.5"/>
<text text-anchor="middle" x="38.5" y="-856.5" font-family="Helvetica,sans-Serif" font-size="10.00">cliSetup</text>
</a>
</g>
</g>
<!-- Node10&#45;&gt;Node6 -->
<g id="edge24" class="edge">
<title>Node10&#45;&gt;Node6</title>
<path fill="none" stroke="midnightblue" d="M68.99,-872.77C82.29,-878.74 98.28,-885.59 113,-891 122.41,-894.46 132.55,-897.82 142.38,-900.9"/>
<polygon fill="midnightblue" stroke="midnightblue" points="70.39,-869.56 59.83,-868.61 67.49,-875.94 70.39,-869.56"/>
</g>
</g>
</svg>
