<?xml version="1.0" encoding="UTF-8" standalone="no"?>
<!DOCTYPE svg PUBLIC "-//W3C//DTD SVG 1.1//EN"
 "http://www.w3.org/Graphics/SVG/1.1/DTD/svg11.dtd">
<!-- Generated by graphviz version 6.0.1 (20220911.1526)
 -->
<!-- Title: Graphical Class Hierarchy Pages: 1 -->
<svg width="319pt" height="434pt"
 viewBox="0.00 0.00 319.00 434.00" xmlns="http://www.w3.org/2000/svg" xmlns:xlink="http://www.w3.org/1999/xlink">
<g id="graph0" class="graph" transform="scale(1 1) rotate(0) translate(4 430)">
<title>Graphical Class Hierarchy</title>
<!-- Node0 -->
<g id="node1" class="node">
<title>Node0</title>
<g id="a_node1"><a xlink:title=" ">
<polygon fill="#e0e0e0" stroke="#999999" points="111.5,-426 37.5,-426 37.5,-407 111.5,-407 111.5,-426"/>
<text text-anchor="middle" x="74.5" y="-414" font-family="Helvetica,sans-Serif" font-size="10.00">CLIfilestrings</text>
</a>
</g>
</g>
<!-- Node1 -->
<g id="node2" class="node">
<title>Node1</title>
<g id="a_node2"><a xlink:href="d3/d6c/classcli__gen__tool_1_1_main_window.html" target="_top" xlink:title="This is the main display window.">
<polygon fill="white" stroke="#666666" points="311,-222 185,-222 185,-203 311,-203 311,-222"/>
<text text-anchor="middle" x="248" y="-210" font-family="Helvetica,sans-Serif" font-size="10.00">cli_gen_tool.MainWindow</text>
</a>
</g>
</g>
<!-- Node0&#45;&gt;Node1 -->
<g id="edge1" class="edge">
<title>Node0&#45;&gt;Node1</title>
<path fill="none" stroke="#63b8ff" d="M121.86,-411.4C131.53,-408.7 141.16,-404.62 149,-398.5 210.27,-350.65 237.43,-253.66 244.82,-222.43"/>
<polygon fill="#63b8ff" stroke="#63b8ff" points="120.77,-408.06 111.83,-413.75 122.36,-414.88 120.77,-408.06"/>
</g>
<!-- Node2 -->
<g id="node3" class="node">
<title>Node2</title>
<g id="a_node3"><a xlink:title=" ">
<polygon fill="#e0e0e0" stroke="#999999" points="111.5,-389 37.5,-389 37.5,-370 111.5,-370 111.5,-389"/>
<text text-anchor="middle" x="74.5" y="-377" font-family="Helvetica,sans-Serif" font-size="10.00">CodePreview</text>
</a>
</g>
</g>
<!-- Node2&#45;&gt;Node1 -->
<g id="edge2" class="edge">
<title>Node2&#45;&gt;Node1</title>
<path fill="none" stroke="#63b8ff" d="M121.71,-373.75C131.32,-371.07 140.95,-367.18 149,-361.5 201.62,-324.37 233.43,-249.21 243.51,-222.33"/>
<polygon fill="#63b8ff" stroke="#63b8ff" points="120.7,-370.39 111.78,-376.11 122.32,-377.2 120.7,-370.39"/>
</g>
<!-- Node3 -->
<g id="node4" class="node">
<title>Node3</title>
<g id="a_node4"><a xlink:title=" ">
<polygon fill="#e0e0e0" stroke="#999999" points="149,-352 0,-352 0,-333 149,-333 149,-352"/>
<text text-anchor="middle" x="74.5" y="-340" font-family="Helvetica,sans-Serif" font-size="10.00">CommandParametersMethods</text>
</a>
</g>
</g>
<!-- Node3&#45;&gt;Node1 -->
<g id="edge3" class="edge">
<title>Node3&#45;&gt;Node1</title>
<path fill="none" stroke="#63b8ff" d="M140.18,-329.15C143.23,-327.75 146.19,-326.21 149,-324.5 193.38,-297.53 228.48,-243.87 241.52,-222.05"/>
<polygon fill="#63b8ff" stroke="#63b8ff" points="138.76,-325.95 130.78,-332.92 141.36,-332.44 138.76,-325.95"/>
</g>
<!-- Node4 -->
<g id="node5" class="node">
<title>Node4</title>
<g id="a_node5"><a xlink:title=" ">
<polygon fill="#e0e0e0" stroke="#999999" points="133.5,-315 15.5,-315 15.5,-296 133.5,-296 133.5,-315"/>
<text text-anchor="middle" x="74.5" y="-303" font-family="Helvetica,sans-Serif" font-size="10.00">CommandTreeMethods</text>
</a>
</g>
</g>
<!-- Node4&#45;&gt;Node1 -->
<g id="edge4" class="edge">
<title>Node4&#45;&gt;Node1</title>
<path fill="none" stroke="#63b8ff" d="M136.1,-292.82C140.54,-291.23 144.89,-289.47 149,-287.5 185.13,-270.19 220.77,-238.15 237.35,-222.14"/>
<polygon fill="#63b8ff" stroke="#63b8ff" points="134.72,-289.59 126.28,-295.99 136.87,-296.25 134.72,-289.59"/>
</g>
<!-- Node5 -->
<g id="node6" class="node">
<title>Node5</title>
<g id="a_node6"><a xlink:title=" ">
<polygon fill="#e0e0e0" stroke="#999999" points="116,-278 33,-278 33,-259 116,-259 116,-278"/>
<text text-anchor="middle" x="74.5" y="-266" font-family="Helvetica,sans-Serif" font-size="10.00">HelperMethods</text>
</a>
</g>
</g>
<!-- Node5&#45;&gt;Node1 -->
<g id="edge5" class="edge">
<title>Node5&#45;&gt;Node1</title>
<path fill="none" stroke="#63b8ff" d="M125.93,-257.07C133.7,-255.04 141.6,-252.83 149,-250.5 175.46,-242.17 205.04,-230.34 224.72,-222.09"/>
<polygon fill="#63b8ff" stroke="#63b8ff" points="125.03,-253.69 116.2,-259.53 126.75,-260.47 125.03,-253.69"/>
</g>
<!-- Node6 -->
<g id="node7" class="node">
<title>Node6</title>
<g id="a_node7"><a xlink:title=" ">
<polygon fill="#e0e0e0" stroke="#999999" points="127,-241 22,-241 22,-222 127,-222 127,-241"/>
<text text-anchor="middle" x="74.5" y="-229" font-family="Helvetica,sans-Serif" font-size="10.00">MainWindowActions</text>
</a>
</g>
</g>
<!-- Node6&#45;&gt;Node1 -->
<g id="edge6" class="edge">
<title>Node6&#45;&gt;Node1</title>
<path fill="none" stroke="#63b8ff" d="M137.41,-224.64C152.89,-222.93 169.5,-221.09 184.99,-219.37"/>
<polygon fill="#63b8ff" stroke="#63b8ff" points="136.97,-221.17 127.42,-225.75 137.75,-228.13 136.97,-221.17"/>
</g>
<!-- Node7 -->
<g id="node8" class="node">
<title>Node7</title>
<g id="a_node8"><a xlink:title=" ">
<polygon fill="#e0e0e0" stroke="#999999" points="127.5,-204 21.5,-204 21.5,-185 127.5,-185 127.5,-204"/>
<text text-anchor="middle" x="74.5" y="-192" font-family="Helvetica,sans-Serif" font-size="10.00">MainWindowButtons</text>
</a>
</g>
</g>
<!-- Node7&#45;&gt;Node1 -->
<g id="edge7" class="edge">
<title>Node7&#45;&gt;Node1</title>
<path fill="none" stroke="#63b8ff" d="M138.25,-201.09C153.49,-202.69 169.78,-204.4 184.99,-205.99"/>
<polygon fill="#63b8ff" stroke="#63b8ff" points="138.2,-197.56 127.89,-200 137.47,-204.52 138.2,-197.56"/>
</g>
<!-- Node8 -->
<g id="node9" class="node">
<title>Node8</title>
<g id="a_node9"><a xlink:title=" ">
<polygon fill="#e0e0e0" stroke="#999999" points="137,-167 12,-167 12,-148 137,-148 137,-167"/>
<text text-anchor="middle" x="74.5" y="-155" font-family="Helvetica,sans-Serif" font-size="10.00">ParseInputHandlerConfig</text>
</a>
</g>
</g>
<!-- Node8&#45;&gt;Node1 -->
<g id="edge8" class="edge">
<title>Node8&#45;&gt;Node1</title>
<path fill="none" stroke="#63b8ff" d="M125.05,-169.59C133.1,-171.76 141.31,-174.1 149,-176.5 174.61,-184.49 203.36,-195.28 223.06,-202.95"/>
<polygon fill="#63b8ff" stroke="#63b8ff" points="125.94,-166.21 115.37,-167.04 124.15,-172.98 125.94,-166.21"/>
</g>
<!-- Node9 -->
<g id="node10" class="node">
<title>Node9</title>
<g id="a_node10"><a xlink:title=" ">
<polygon fill="#e0e0e0" stroke="#999999" points="128,-130 21,-130 21,-111 128,-111 128,-130"/>
<text text-anchor="middle" x="74.5" y="-118" font-family="Helvetica,sans-Serif" font-size="10.00">PreferencesMethods</text>
</a>
</g>
</g>
<!-- Node9&#45;&gt;Node1 -->
<g id="edge9" class="edge">
<title>Node9&#45;&gt;Node1</title>
<path fill="none" stroke="#63b8ff" d="M133.3,-133.14C138.71,-135 144.02,-137.12 149,-139.5 184.59,-156.54 220.2,-187.36 237.01,-202.93"/>
<polygon fill="#63b8ff" stroke="#63b8ff" points="134.1,-129.72 123.51,-130.04 131.99,-136.39 134.1,-129.72"/>
</g>
<!-- Node10 -->
<g id="node11" class="node">
<title>Node10</title>
<g id="a_node11"><a xlink:title=" ">
<polygon fill="#e0e0e0" stroke="#999999" points="114.5,-93 34.5,-93 34.5,-74 114.5,-74 114.5,-93"/>
<text text-anchor="middle" x="74.5" y="-81" font-family="Helvetica,sans-Serif" font-size="10.00">QMainWindow</text>
</a>
</g>
</g>
<!-- Node10&#45;&gt;Node1 -->
<g id="edge10" class="edge">
<title>Node10&#45;&gt;Node1</title>
<path fill="none" stroke="#63b8ff" d="M124.27,-91.77C132.88,-94.42 141.48,-97.91 149,-102.5 192.66,-129.15 227.92,-181.3 241.25,-202.84"/>
<polygon fill="#63b8ff" stroke="#63b8ff" points="125.17,-88.39 114.6,-89.12 123.32,-95.14 125.17,-88.39"/>
</g>
<!-- Node11 -->
<g id="node12" class="node">
<title>Node11</title>
<g id="a_node12"><a xlink:title=" ">
<polygon fill="#e0e0e0" stroke="#999999" points="129.5,-56 19.5,-56 19.5,-37 129.5,-37 129.5,-56"/>
<text text-anchor="middle" x="74.5" y="-44" font-family="Helvetica,sans-Serif" font-size="10.00">SettingsTreeMethods</text>
</a>
</g>
</g>
<!-- Node11&#45;&gt;Node1 -->
<g id="edge11" class="edge">
<title>Node11&#45;&gt;Node1</title>
<path fill="none" stroke="#63b8ff" d="M139.15,-59.66C142.6,-61.37 145.92,-63.31 149,-65.5 201,-102.46 233.2,-176.4 243.44,-202.83"/>
<polygon fill="#63b8ff" stroke="#63b8ff" points="140.3,-56.34 129.73,-55.62 137.54,-62.78 140.3,-56.34"/>
</g>
<!-- Node12 -->
<g id="node13" class="node">
<title>Node12</title>
<g id="a_node13"><a xlink:title=" ">
<polygon fill="#e0e0e0" stroke="#999999" points="141.5,-19 7.5,-19 7.5,0 141.5,0 141.5,-19"/>
<text text-anchor="middle" x="74.5" y="-7" font-family="Helvetica,sans-Serif" font-size="10.00">SettingsTreeTableMethods</text>
</a>
</g>
</g>
<!-- Node12&#45;&gt;Node1 -->
<g id="edge12" class="edge">
<title>Node12&#45;&gt;Node1</title>
<path fill="none" stroke="#63b8ff" d="M141.74,-23.6C144.29,-25.08 146.72,-26.7 149,-28.5 209.56,-76.2 237.19,-171.9 244.76,-202.71"/>
<polygon fill="#63b8ff" stroke="#63b8ff" points="143.26,-20.45 132.75,-19.15 140.16,-26.72 143.26,-20.45"/>
</g>
</g>
</svg>
