<?xml version="1.0" encoding="UTF-8" standalone="no"?>
<!DOCTYPE svg PUBLIC "-//W3C//DTD SVG 1.1//EN"
 "http://www.w3.org/Graphics/SVG/1.1/DTD/svg11.dtd">
<!-- Generated by graphviz version 2.43.0 (0)
 -->
<!-- Title: src/config/InputHandler_config.h Pages: 1 -->
<svg width="137pt" height="151pt"
 viewBox="0.00 0.00 137.00 151.00" xmlns="http://www.w3.org/2000/svg" xmlns:xlink="http://www.w3.org/1999/xlink">
<g id="graph0" class="graph" transform="scale(1 1) rotate(0) translate(4 147)">
<title>src/config/InputHandler_config.h</title>
<!-- Node1 -->
<g id="node1" class="node">
<title>Node1</title>
<g id="a_node1"><a xlink:title="InputHandler library configuration file.">
<polygon fill="#bfbfbf" stroke="black" points="0,-112.5 0,-142.5 129,-142.5 129,-112.5 0,-112.5"/>
<text text-anchor="start" x="8" y="-130.5" font-family="Helvetica,sans-Serif" font-size="10.00">src/config/InputHandler</text>
<text text-anchor="middle" x="64.5" y="-119.5" font-family="Helvetica,sans-Serif" font-size="10.00">_config.h</text>
</a>
</g>
</g>
<!-- Node2 -->
<g id="node2" class="node">
<title>Node2</title>
<g id="a_node2"><a xlink:href="InputHandler_8h.html" target="_top" xlink:title="InputHandler library header file.">
<polygon fill="none" stroke="black" points="12,-56.5 12,-75.5 117,-75.5 117,-56.5 12,-56.5"/>
<text text-anchor="middle" x="64.5" y="-63.5" font-family="Helvetica,sans-Serif" font-size="10.00">src/InputHandler.h</text>
</a>
</g>
</g>
<!-- Node1&#45;&gt;Node2 -->
<g id="edge1" class="edge">
<title>Node1&#45;&gt;Node2</title>
<path fill="none" stroke="midnightblue" d="M64.5,-102.29C64.5,-92.86 64.5,-82.65 64.5,-75.66"/>
<polygon fill="midnightblue" stroke="midnightblue" points="61,-102.4 64.5,-112.4 68,-102.4 61,-102.4"/>
</g>
<!-- Node3 -->
<g id="node3" class="node">
<title>Node3</title>
<g id="a_node3"><a xlink:href="InputHandler_8cpp.html" target="_top" xlink:title="InputHandler library cpp file.">
<polygon fill="none" stroke="black" points="6.5,-0.5 6.5,-19.5 122.5,-19.5 122.5,-0.5 6.5,-0.5"/>
<text text-anchor="middle" x="64.5" y="-7.5" font-family="Helvetica,sans-Serif" font-size="10.00">src/InputHandler.cpp</text>
</a>
</g>
</g>
<!-- Node2&#45;&gt;Node3 -->
<g id="edge2" class="edge">
<title>Node2&#45;&gt;Node3</title>
<path fill="none" stroke="midnightblue" d="M64.5,-45.8C64.5,-36.91 64.5,-26.78 64.5,-19.75"/>
<polygon fill="midnightblue" stroke="midnightblue" points="61,-46.08 64.5,-56.08 68,-46.08 61,-46.08"/>
</g>
</g>
</svg>
