<?xml version="1.0" encoding="UTF-8" standalone="no"?>
<!DOCTYPE svg PUBLIC "-//W3C//DTD SVG 1.1//EN"
 "http://www.w3.org/Graphics/SVG/1.1/DTD/svg11.dtd">
<!-- Generated by graphviz version 3.0.0 (20220413.0106)
 -->
<!-- Title: src/InputHandler.cpp Pages: 1 -->
<svg width="115pt" height="207pt"
 viewBox="0.00 0.00 115.00 207.00" xmlns="http://www.w3.org/2000/svg" xmlns:xlink="http://www.w3.org/1999/xlink">
<g id="graph0" class="graph" transform="scale(1 1) rotate(0) translate(4 203)">
<title>src/InputHandler.cpp</title>
<!-- Node1 -->
<g id="node1" class="node">
<title>Node1</title>
<g id="a_node1"><a xlink:title="InputHandler library cpp file.">
<polygon fill="#bfbfbf" stroke="black" points="0,-179.5 0,-198.5 107,-198.5 107,-179.5 0,-179.5"/>
<text text-anchor="middle" x="53.5" y="-186.5" font-family="Helvetica,sans-Serif" font-size="10.00">src/InputHandler.cpp</text>
</a>
</g>
</g>
<!-- Node2 -->
<g id="node2" class="node">
<title>Node2</title>
<g id="a_node2"><a xlink:href="../../df/dec/_input_handler_8h.html" target="_top" xlink:title="InputHandler library header file.">
<polygon fill="none" stroke="black" points="13.5,-123.5 13.5,-142.5 93.5,-142.5 93.5,-123.5 13.5,-123.5"/>
<text text-anchor="middle" x="53.5" y="-130.5" font-family="Helvetica,sans-Serif" font-size="10.00">InputHandler.h</text>
</a>
</g>
</g>
<!-- Node1&#45;&gt;Node2 -->
<g id="edge1" class="edge">
<title>Node1&#45;&gt;Node2</title>
<path fill="none" stroke="midnightblue" d="M53.5,-179.08C53.5,-172.01 53.5,-161.86 53.5,-152.99"/>
<polygon fill="midnightblue" stroke="midnightblue" points="57,-152.75 53.5,-142.75 50,-152.75 57,-152.75"/>
</g>
<!-- Node3 -->
<g id="node3" class="node">
<title>Node3</title>
<g id="a_node3"><a xlink:href="../../dd/d4e/_input_handler__config_8h.html" target="_top" xlink:title="InputHandler library configuration file.">
<polygon fill="none" stroke="black" points="3,-56.5 3,-86.5 104,-86.5 104,-56.5 3,-56.5"/>
<text text-anchor="start" x="11" y="-74.5" font-family="Helvetica,sans-Serif" font-size="10.00">config/InputHandler</text>
<text text-anchor="middle" x="53.5" y="-63.5" font-family="Helvetica,sans-Serif" font-size="10.00">_config.h</text>
</a>
</g>
</g>
<!-- Node2&#45;&gt;Node3 -->
<g id="edge2" class="edge">
<title>Node2&#45;&gt;Node3</title>
<path fill="none" stroke="midnightblue" d="M53.5,-123.48C53.5,-116.47 53.5,-106.19 53.5,-96.7"/>
<polygon fill="midnightblue" stroke="midnightblue" points="57,-96.52 53.5,-86.52 50,-96.52 57,-96.52"/>
</g>
<!-- Node4 -->
<g id="node4" class="node">
<title>Node4</title>
<g id="a_node4"><a xlink:title=" ">
<polygon fill="none" stroke="#bfbfbf" points="25,-0.5 25,-19.5 82,-19.5 82,-0.5 25,-0.5"/>
<text text-anchor="middle" x="53.5" y="-7.5" font-family="Helvetica,sans-Serif" font-size="10.00">Arduino.h</text>
</a>
</g>
</g>
<!-- Node3&#45;&gt;Node4 -->
<g id="edge3" class="edge">
<title>Node3&#45;&gt;Node4</title>
<path fill="none" stroke="midnightblue" d="M53.5,-56.4C53.5,-48.47 53.5,-38.46 53.5,-29.86"/>
<polygon fill="midnightblue" stroke="midnightblue" points="57,-29.66 53.5,-19.66 50,-29.66 57,-29.66"/>
</g>
</g>
</svg>
