<?xml version="1.0" encoding="UTF-8" standalone="no"?>
<!DOCTYPE svg PUBLIC "-//W3C//DTD SVG 1.1//EN"
 "http://www.w3.org/Graphics/SVG/1.1/DTD/svg11.dtd">
<!-- Generated by graphviz version 3.0.0 (20220413.0106)
 -->
<!-- Title: src/InputHandler.cpp Pages: 1 -->
<svg width="249pt" height="196pt"
 viewBox="0.00 0.00 249.00 196.00" xmlns="http://www.w3.org/2000/svg" xmlns:xlink="http://www.w3.org/1999/xlink">
<g id="graph0" class="graph" transform="scale(1 1) rotate(0) translate(4 192)">
<title>src/InputHandler.cpp</title>
<!-- Node1 -->
<g id="node1" class="node">
<title>Node1</title>
<g id="a_node1"><a xlink:title="InputHandler library cpp file.">
<polygon fill="#bfbfbf" stroke="black" points="47,-168.5 47,-187.5 154,-187.5 154,-168.5 47,-168.5"/>
<text text-anchor="middle" x="100.5" y="-175.5" font-family="Helvetica,sans-Serif" font-size="10.00">src/InputHandler.cpp</text>
</a>
</g>
</g>
<!-- Node2 -->
<g id="node2" class="node">
<title>Node2</title>
<g id="a_node2"><a xlink:href="../../df/dec/_input_handler_8h.html" target="_top" xlink:title="InputHandler library header file.">
<polygon fill="none" stroke="black" points="60.5,-112.5 60.5,-131.5 140.5,-131.5 140.5,-112.5 60.5,-112.5"/>
<text text-anchor="middle" x="100.5" y="-119.5" font-family="Helvetica,sans-Serif" font-size="10.00">InputHandler.h</text>
</a>
</g>
</g>
<!-- Node1&#45;&gt;Node2 -->
<g id="edge1" class="edge">
<title>Node1&#45;&gt;Node2</title>
<path fill="none" stroke="midnightblue" d="M100.5,-168.08C100.5,-161.01 100.5,-150.86 100.5,-141.99"/>
<polygon fill="midnightblue" stroke="midnightblue" points="104,-141.75 100.5,-131.75 97,-141.75 104,-141.75"/>
</g>
<!-- Node3 -->
<g id="node3" class="node">
<title>Node3</title>
<g id="a_node3"><a xlink:href="../../da/dc7/noedit_8h.html" target="_top" xlink:title="InputHandler library C includes.">
<polygon fill="none" stroke="black" points="61,-56.5 61,-75.5 140,-75.5 140,-56.5 61,-56.5"/>
<text text-anchor="middle" x="100.5" y="-63.5" font-family="Helvetica,sans-Serif" font-size="10.00">config/noedit.h</text>
</a>
</g>
</g>
<!-- Node2&#45;&gt;Node3 -->
<g id="edge2" class="edge">
<title>Node2&#45;&gt;Node3</title>
<path fill="none" stroke="midnightblue" d="M100.5,-112.08C100.5,-105.01 100.5,-94.86 100.5,-85.99"/>
<polygon fill="midnightblue" stroke="midnightblue" points="104,-85.75 100.5,-75.75 97,-85.75 104,-85.75"/>
</g>
<!-- Node4 -->
<g id="node4" class="node">
<title>Node4</title>
<g id="a_node4"><a xlink:title=" ">
<polygon fill="none" stroke="#bfbfbf" points="0,-0.5 0,-19.5 57,-19.5 57,-0.5 0,-0.5"/>
<text text-anchor="middle" x="28.5" y="-7.5" font-family="Helvetica,sans-Serif" font-size="10.00">Arduino.h</text>
</a>
</g>
</g>
<!-- Node3&#45;&gt;Node4 -->
<g id="edge3" class="edge">
<title>Node3&#45;&gt;Node4</title>
<path fill="none" stroke="midnightblue" d="M88.93,-56.32C78.08,-48.18 61.62,-35.84 48.62,-26.09"/>
<polygon fill="midnightblue" stroke="midnightblue" points="50.38,-23.03 40.28,-19.83 46.18,-28.63 50.38,-23.03"/>
</g>
<!-- Node5 -->
<g id="node5" class="node">
<title>Node5</title>
<g id="a_node5"><a xlink:href="../../db/d16/config_8h.html" target="_top" xlink:title=" ">
<polygon fill="none" stroke="black" points="75.5,-0.5 75.5,-19.5 125.5,-19.5 125.5,-0.5 75.5,-0.5"/>
<text text-anchor="middle" x="100.5" y="-7.5" font-family="Helvetica,sans-Serif" font-size="10.00">config.h</text>
</a>
</g>
</g>
<!-- Node3&#45;&gt;Node5 -->
<g id="edge4" class="edge">
<title>Node3&#45;&gt;Node5</title>
<path fill="none" stroke="midnightblue" d="M100.5,-56.08C100.5,-49.01 100.5,-38.86 100.5,-29.99"/>
<polygon fill="midnightblue" stroke="midnightblue" points="104,-29.75 100.5,-19.75 97,-29.75 104,-29.75"/>
</g>
<!-- Node6 -->
<g id="node6" class="node">
<title>Node6</title>
<g id="a_node6"><a xlink:href="../../d5/d4a/advanced__config_8h.html" target="_top" xlink:title="InputHandler library advanced user settings.">
<polygon fill="none" stroke="black" points="144,-0.5 144,-19.5 241,-19.5 241,-0.5 144,-0.5"/>
<text text-anchor="middle" x="192.5" y="-7.5" font-family="Helvetica,sans-Serif" font-size="10.00">advanced_config.h</text>
</a>
</g>
</g>
<!-- Node3&#45;&gt;Node6 -->
<g id="edge5" class="edge">
<title>Node3&#45;&gt;Node6</title>
<path fill="none" stroke="midnightblue" d="M115.28,-56.32C129.77,-47.82 152.07,-34.73 168.99,-24.8"/>
<polygon fill="midnightblue" stroke="midnightblue" points="170.9,-27.74 177.76,-19.65 167.36,-21.7 170.9,-27.74"/>
</g>
</g>
</svg>
