<?xml version="1.0" encoding="UTF-8" standalone="no"?>
<!DOCTYPE svg PUBLIC "-//W3C//DTD SVG 1.1//EN"
 "http://www.w3.org/Graphics/SVG/1.1/DTD/svg11.dtd">
<!-- Generated by graphviz version 3.0.0 (20220413.0106)
 -->
<!-- Title: src/InputHandler.cpp Pages: 1 -->
<svg width="630pt" height="218pt"
 viewBox="0.00 0.00 629.50 218.00" xmlns="http://www.w3.org/2000/svg" xmlns:xlink="http://www.w3.org/1999/xlink">
<g id="graph0" class="graph" transform="scale(1 1) rotate(0) translate(4 214)">
<title>src/InputHandler.cpp</title>
<!-- Node1 -->
<g id="node1" class="node">
<title>Node1</title>
<g id="a_node1"><a xlink:title="InputHandler library cpp file.">
<polygon fill="#bfbfbf" stroke="black" points="213,-190.5 213,-209.5 320,-209.5 320,-190.5 213,-190.5"/>
<text text-anchor="middle" x="266.5" y="-197.5" font-family="Helvetica,sans-Serif" font-size="10.00">src/InputHandler.cpp</text>
</a>
</g>
</g>
<!-- Node2 -->
<g id="node2" class="node">
<title>Node2</title>
<g id="a_node2"><a xlink:href="../../df/dec/_input_handler_8h.html" target="_top" xlink:title="InputHandler library header file.">
<polygon fill="none" stroke="black" points="226.5,-134.5 226.5,-153.5 306.5,-153.5 306.5,-134.5 226.5,-134.5"/>
<text text-anchor="middle" x="266.5" y="-141.5" font-family="Helvetica,sans-Serif" font-size="10.00">InputHandler.h</text>
</a>
</g>
</g>
<!-- Node1&#45;&gt;Node2 -->
<g id="edge1" class="edge">
<title>Node1&#45;&gt;Node2</title>
<path fill="none" stroke="midnightblue" d="M266.5,-190.08C266.5,-183.01 266.5,-172.86 266.5,-163.99"/>
<polygon fill="midnightblue" stroke="midnightblue" points="270,-163.75 266.5,-153.75 263,-163.75 270,-163.75"/>
</g>
<!-- Node3 -->
<g id="node3" class="node">
<title>Node3</title>
<g id="a_node3"><a xlink:href="../../d3/dfb/_input_handler__noedit_8h.html" target="_top" xlink:title="InputHandler library C includes, buffer sizing macros.">
<polygon fill="none" stroke="black" points="216,-67.5 216,-97.5 317,-97.5 317,-67.5 216,-67.5"/>
<text text-anchor="start" x="224" y="-85.5" font-family="Helvetica,sans-Serif" font-size="10.00">config/InputHandler</text>
<text text-anchor="middle" x="266.5" y="-74.5" font-family="Helvetica,sans-Serif" font-size="10.00">_noedit.h</text>
</a>
</g>
</g>
<!-- Node2&#45;&gt;Node3 -->
<g id="edge2" class="edge">
<title>Node2&#45;&gt;Node3</title>
<path fill="none" stroke="midnightblue" d="M266.5,-134.48C266.5,-127.47 266.5,-117.19 266.5,-107.7"/>
<polygon fill="midnightblue" stroke="midnightblue" points="270,-107.52 266.5,-97.52 263,-107.52 270,-107.52"/>
</g>
<!-- Node4 -->
<g id="node4" class="node">
<title>Node4</title>
<g id="a_node4"><a xlink:title=" ">
<polygon fill="none" stroke="#bfbfbf" points="0,-6 0,-25 57,-25 57,-6 0,-6"/>
<text text-anchor="middle" x="28.5" y="-13" font-family="Helvetica,sans-Serif" font-size="10.00">Arduino.h</text>
</a>
</g>
</g>
<!-- Node3&#45;&gt;Node4 -->
<g id="edge3" class="edge">
<title>Node3&#45;&gt;Node4</title>
<path fill="none" stroke="midnightblue" d="M215.9,-70.45C175.19,-61.15 116.7,-46.86 66.5,-31 64.08,-30.24 61.6,-29.4 59.11,-28.53"/>
<polygon fill="midnightblue" stroke="midnightblue" points="60.24,-25.22 49.65,-25.07 57.84,-31.79 60.24,-25.22"/>
</g>
<!-- Node5 -->
<g id="node5" class="node">
<title>Node5</title>
<g id="a_node5"><a xlink:href="../../dd/d4e/_input_handler__config_8h.html" target="_top" xlink:title="InputHandler library user configurable items.">
<polygon fill="none" stroke="black" points="75.5,-6 75.5,-25 185.5,-25 185.5,-6 75.5,-6"/>
<text text-anchor="middle" x="130.5" y="-13" font-family="Helvetica,sans-Serif" font-size="10.00">InputHandler_config.h</text>
</a>
</g>
</g>
<!-- Node3&#45;&gt;Node5 -->
<g id="edge4" class="edge">
<title>Node3&#45;&gt;Node5</title>
<path fill="none" stroke="midnightblue" d="M236.99,-67.4C213.34,-56.09 180.42,-40.36 157.47,-29.39"/>
<polygon fill="midnightblue" stroke="midnightblue" points="158.83,-26.16 148.3,-25.01 155.81,-32.48 158.83,-26.16"/>
</g>
<!-- Node6 -->
<g id="node6" class="node">
<title>Node6</title>
<g id="a_node6"><a xlink:href="../../d3/dcd/_input_handler__portability_8h.html" target="_top" xlink:title="InputHandler library portability directives.">
<polygon fill="none" stroke="black" points="203.5,-6 203.5,-25 329.5,-25 329.5,-6 203.5,-6"/>
<text text-anchor="middle" x="266.5" y="-13" font-family="Helvetica,sans-Serif" font-size="10.00">InputHandler_portability.h</text>
</a>
</g>
</g>
<!-- Node3&#45;&gt;Node6 -->
<g id="edge5" class="edge">
<title>Node3&#45;&gt;Node6</title>
<path fill="none" stroke="midnightblue" d="M266.5,-67.4C266.5,-58.06 266.5,-45.71 266.5,-35.52"/>
<polygon fill="midnightblue" stroke="midnightblue" points="270,-35.19 266.5,-25.19 263,-35.19 270,-35.19"/>
</g>
<!-- Node7 -->
<g id="node7" class="node">
<title>Node7</title>
<g id="a_node7"><a xlink:href="../../d1/d39/_input_handler__functionlike__macros_8h.html" target="_top" xlink:title="InputHandler library function&#45;like macros.">
<polygon fill="none" stroke="black" points="348,-0.5 348,-30.5 475,-30.5 475,-0.5 348,-0.5"/>
<text text-anchor="start" x="356" y="-18.5" font-family="Helvetica,sans-Serif" font-size="10.00">InputHandler_functionlike</text>
<text text-anchor="middle" x="411.5" y="-7.5" font-family="Helvetica,sans-Serif" font-size="10.00">_macros.h</text>
</a>
</g>
</g>
<!-- Node3&#45;&gt;Node7 -->
<g id="edge6" class="edge">
<title>Node3&#45;&gt;Node7</title>
<path fill="none" stroke="midnightblue" d="M297.96,-67.4C319.34,-57.81 347.81,-45.05 370.9,-34.7"/>
<polygon fill="midnightblue" stroke="midnightblue" points="372.41,-37.86 380.1,-30.58 369.54,-31.47 372.41,-37.86"/>
</g>
<!-- Node8 -->
<g id="node8" class="node">
<title>Node8</title>
<g id="a_node8"><a xlink:href="../../df/d25/_input_handler___p_r_o_g_m_e_m__settings_8h.html" target="_top" xlink:title="InputHandler library PROGMEM settings.">
<polygon fill="none" stroke="black" points="493.5,-0.5 493.5,-30.5 621.5,-30.5 621.5,-0.5 493.5,-0.5"/>
<text text-anchor="start" x="501.5" y="-18.5" font-family="Helvetica,sans-Serif" font-size="10.00">InputHandler_PROGMEM</text>
<text text-anchor="middle" x="557.5" y="-7.5" font-family="Helvetica,sans-Serif" font-size="10.00">_settings.h</text>
</a>
</g>
</g>
<!-- Node3&#45;&gt;Node8 -->
<g id="edge7" class="edge">
<title>Node3&#45;&gt;Node8</title>
<path fill="none" stroke="midnightblue" d="M317.19,-70.18C363.54,-59.82 432.63,-44.39 484.85,-32.73"/>
<polygon fill="midnightblue" stroke="midnightblue" points="485.73,-36.12 494.73,-30.52 484.2,-29.29 485.73,-36.12"/>
</g>
</g>
</svg>
