<?xml version="1.0" encoding="UTF-8" standalone="no"?>
<!DOCTYPE svg PUBLIC "-//W3C//DTD SVG 1.1//EN"
 "http://www.w3.org/Graphics/SVG/1.1/DTD/svg11.dtd">
<!-- Generated by graphviz version 6.0.1 (20220911.1526)
 -->
<!-- Title: src/InputHandler.cpp Pages: 1 -->
<svg width="134pt" height="192pt"
 viewBox="0.00 0.00 133.50 192.00" xmlns="http://www.w3.org/2000/svg" xmlns:xlink="http://www.w3.org/1999/xlink">
<g id="graph0" class="graph" transform="scale(1 1) rotate(0) translate(4 188)">
<title>src/InputHandler.cpp</title>
<!-- Node1 -->
<g id="node1" class="node">
<title>Node1</title>
<g id="a_node1"><a xlink:title="InputHandler library cpp file.">
<polygon fill="#999999" stroke="#666666" points="118,-184 11,-184 11,-165 118,-165 118,-184"/>
<text text-anchor="middle" x="64.5" y="-172" font-family="Helvetica,sans-Serif" font-size="10.00">src/InputHandler.cpp</text>
</a>
</g>
</g>
<!-- Node2 -->
<g id="node2" class="node">
<title>Node2</title>
<g id="a_node2"><a xlink:href="../../df/dec/_input_handler_8h.html" target="_top" xlink:title="InputHandler library header file.">
<polygon fill="white" stroke="#666666" points="104.5,-129 24.5,-129 24.5,-110 104.5,-110 104.5,-129"/>
<text text-anchor="middle" x="64.5" y="-117" font-family="Helvetica,sans-Serif" font-size="10.00">InputHandler.h</text>
</a>
</g>
</g>
<!-- Node1&#45;&gt;Node2 -->
<g id="edge1" class="edge">
<title>Node1&#45;&gt;Node2</title>
<path fill="none" stroke="#63b8ff" d="M64.5,-164.75C64.5,-157.8 64.5,-147.85 64.5,-139.13"/>
<polygon fill="#63b8ff" stroke="#63b8ff" points="68,-139.09 64.5,-129.09 61,-139.09 68,-139.09"/>
</g>
<!-- Node3 -->
<g id="node3" class="node">
<title>Node3</title>
<g id="a_node3"><a xlink:href="../../da/dc7/noedit_8h.html" target="_top" xlink:title="InputHandler library C includes, do not edit.">
<polygon fill="white" stroke="#666666" points="104,-74 25,-74 25,-55 104,-55 104,-74"/>
<text text-anchor="middle" x="64.5" y="-62" font-family="Helvetica,sans-Serif" font-size="10.00">config/noedit.h</text>
</a>
</g>
</g>
<!-- Node2&#45;&gt;Node3 -->
<g id="edge2" class="edge">
<title>Node2&#45;&gt;Node3</title>
<path fill="none" stroke="#63b8ff" d="M64.5,-109.75C64.5,-102.8 64.5,-92.85 64.5,-84.13"/>
<polygon fill="#63b8ff" stroke="#63b8ff" points="68,-84.09 64.5,-74.09 61,-84.09 68,-84.09"/>
</g>
<!-- Node4 -->
<g id="node4" class="node">
<title>Node4</title>
<g id="a_node4"><a xlink:title=" ">
<polygon fill="#e0e0e0" stroke="#999999" points="57,-19 0,-19 0,0 57,0 57,-19"/>
<text text-anchor="middle" x="28.5" y="-7" font-family="Helvetica,sans-Serif" font-size="10.00">Arduino.h</text>
</a>
</g>
</g>
<!-- Node3&#45;&gt;Node4 -->
<g id="edge3" class="edge">
<title>Node3&#45;&gt;Node4</title>
<path fill="none" stroke="#63b8ff" d="M58.56,-54.75C53.52,-47.34 46.16,-36.5 39.99,-27.41"/>
<polygon fill="#63b8ff" stroke="#63b8ff" points="42.85,-25.39 34.33,-19.09 37.06,-29.33 42.85,-25.39"/>
</g>
<!-- Node5 -->
<g id="node5" class="node">
<title>Node5</title>
<g id="a_node5"><a xlink:href="../../db/d16/config_8h.html" target="_top" xlink:title="InputHandler library user configurable items.">
<polygon fill="white" stroke="#666666" points="125.5,-19 75.5,-19 75.5,0 125.5,0 125.5,-19"/>
<text text-anchor="middle" x="100.5" y="-7" font-family="Helvetica,sans-Serif" font-size="10.00">config.h</text>
</a>
</g>
</g>
<!-- Node3&#45;&gt;Node5 -->
<g id="edge4" class="edge">
<title>Node3&#45;&gt;Node5</title>
<path fill="none" stroke="#63b8ff" d="M70.44,-54.75C75.48,-47.34 82.84,-36.5 89.01,-27.41"/>
<polygon fill="#63b8ff" stroke="#63b8ff" points="91.94,-29.33 94.67,-19.09 86.15,-25.39 91.94,-29.33"/>
</g>
</g>
</svg>
