<?xml version="1.0" encoding="UTF-8" standalone="no"?>
<!DOCTYPE svg PUBLIC "-//W3C//DTD SVG 1.1//EN"
 "http://www.w3.org/Graphics/SVG/1.1/DTD/svg11.dtd">
<!-- Generated by graphviz version 3.0.0 (20220413.0106)
 -->
<!-- Title: examples/esp/ReadCommandFromBufferWebSerial/ReadCommandFromBufferWebSerial.ino Pages: 1 -->
<svg width="744pt" height="240pt"
 viewBox="0.00 0.00 743.75 240.00" xmlns="http://www.w3.org/2000/svg" xmlns:xlink="http://www.w3.org/1999/xlink">
<g id="graph0" class="graph" transform="scale(1 1) rotate(0) translate(4 236)">
<title>examples/esp/ReadCommandFromBufferWebSerial/ReadCommandFromBufferWebSerial.ino</title>
<!-- Node1 -->
<g id="node1" class="node">
<title>Node1</title>
<g id="a_node1"><a xlink:title="An example that uses ReadCommandFromBuffer and WebSerial.">
<polygon fill="#bfbfbf" stroke="black" points="82.25,-190.5 82.25,-231.5 261.25,-231.5 261.25,-190.5 82.25,-190.5"/>
<text text-anchor="start" x="90.25" y="-219.5" font-family="Helvetica,sans-Serif" font-size="10.00">examples/esp/ReadCommand</text>
<text text-anchor="start" x="90.25" y="-208.5" font-family="Helvetica,sans-Serif" font-size="10.00">FromBufferWebSerial/ReadCommand</text>
<text text-anchor="middle" x="171.75" y="-197.5" font-family="Helvetica,sans-Serif" font-size="10.00">FromBufferWebSerial.ino</text>
</a>
</g>
</g>
<!-- Node2 -->
<g id="node2" class="node">
<title>Node2</title>
<g id="a_node2"><a xlink:title=" ">
<polygon fill="none" stroke="#bfbfbf" points="63.25,-6 63.25,-25 120.25,-25 120.25,-6 63.25,-6"/>
<text text-anchor="middle" x="91.75" y="-13" font-family="Helvetica,sans-Serif" font-size="10.00">Arduino.h</text>
</a>
</g>
</g>
<!-- Node1&#45;&gt;Node2 -->
<g id="edge1" class="edge">
<title>Node1&#45;&gt;Node2</title>
<path fill="none" stroke="midnightblue" d="M82.01,-199.73C53.95,-191.81 25.87,-177.99 8.75,-154 -21.74,-111.29 37.44,-57.07 70.94,-31.34"/>
<polygon fill="midnightblue" stroke="midnightblue" points="73.31,-33.95 79.22,-25.16 69.12,-28.34 73.31,-33.95"/>
</g>
<!-- Node3 -->
<g id="node3" class="node">
<title>Node3</title>
<g id="a_node3"><a xlink:title=" ">
<polygon fill="none" stroke="#bfbfbf" points="17.75,-134.5 17.75,-153.5 61.75,-153.5 61.75,-134.5 17.75,-134.5"/>
<text text-anchor="middle" x="39.75" y="-141.5" font-family="Helvetica,sans-Serif" font-size="10.00">WiFi.h</text>
</a>
</g>
</g>
<!-- Node1&#45;&gt;Node3 -->
<g id="edge2" class="edge">
<title>Node1&#45;&gt;Node3</title>
<path fill="none" stroke="midnightblue" d="M132.14,-190.5C110.93,-180.05 85.36,-167.46 66.51,-158.18"/>
<polygon fill="midnightblue" stroke="midnightblue" points="67.83,-154.93 57.32,-153.65 64.74,-161.21 67.83,-154.93"/>
</g>
<!-- Node4 -->
<g id="node4" class="node">
<title>Node4</title>
<g id="a_node4"><a xlink:title=" ">
<polygon fill="none" stroke="#bfbfbf" points="80.25,-134.5 80.25,-153.5 151.25,-153.5 151.25,-134.5 80.25,-134.5"/>
<text text-anchor="middle" x="115.75" y="-141.5" font-family="Helvetica,sans-Serif" font-size="10.00">AsyncTCP.h</text>
</a>
</g>
</g>
<!-- Node1&#45;&gt;Node4 -->
<g id="edge3" class="edge">
<title>Node1&#45;&gt;Node4</title>
<path fill="none" stroke="midnightblue" d="M154.94,-190.5C146.94,-181.2 137.47,-170.21 129.84,-161.36"/>
<polygon fill="midnightblue" stroke="midnightblue" points="132.38,-158.94 123.2,-153.65 127.08,-163.51 132.38,-158.94"/>
</g>
<!-- Node5 -->
<g id="node5" class="node">
<title>Node5</title>
<g id="a_node5"><a xlink:title=" ">
<polygon fill="none" stroke="#bfbfbf" points="169.25,-134.5 169.25,-153.5 288.25,-153.5 288.25,-134.5 169.25,-134.5"/>
<text text-anchor="middle" x="228.75" y="-141.5" font-family="Helvetica,sans-Serif" font-size="10.00">ESPAsyncWebServer.h</text>
</a>
</g>
</g>
<!-- Node1&#45;&gt;Node5 -->
<g id="edge4" class="edge">
<title>Node1&#45;&gt;Node5</title>
<path fill="none" stroke="midnightblue" d="M188.85,-190.5C197,-181.2 206.64,-170.21 214.4,-161.36"/>
<polygon fill="midnightblue" stroke="midnightblue" points="217.2,-163.48 221.16,-153.65 211.93,-158.86 217.2,-163.48"/>
</g>
<!-- Node6 -->
<g id="node6" class="node">
<title>Node6</title>
<g id="a_node6"><a xlink:title=" ">
<polygon fill="none" stroke="#bfbfbf" points="306.75,-134.5 306.75,-153.5 374.75,-153.5 374.75,-134.5 306.75,-134.5"/>
<text text-anchor="middle" x="340.75" y="-141.5" font-family="Helvetica,sans-Serif" font-size="10.00">WebSerial.h</text>
</a>
</g>
</g>
<!-- Node1&#45;&gt;Node6 -->
<g id="edge5" class="edge">
<title>Node1&#45;&gt;Node6</title>
<path fill="none" stroke="midnightblue" d="M222.45,-190.5C250.48,-179.72 284.45,-166.65 308.78,-157.29"/>
<polygon fill="midnightblue" stroke="midnightblue" points="310.17,-160.51 318.25,-153.65 307.66,-153.98 310.17,-160.51"/>
</g>
<!-- Node7 -->
<g id="node7" class="node">
<title>Node7</title>
<g id="a_node7"><a xlink:href="../../df/dec/_input_handler_8h.html" target="_top" xlink:title="InputHandler library header file.">
<polygon fill="none" stroke="black" points="392.75,-134.5 392.75,-153.5 472.75,-153.5 472.75,-134.5 392.75,-134.5"/>
<text text-anchor="middle" x="432.75" y="-141.5" font-family="Helvetica,sans-Serif" font-size="10.00">InputHandler.h</text>
</a>
</g>
</g>
<!-- Node1&#45;&gt;Node7 -->
<g id="edge6" class="edge">
<title>Node1&#45;&gt;Node7</title>
<path fill="none" stroke="midnightblue" d="M250.05,-190.5C295.21,-179.25 350.35,-165.52 388.16,-156.1"/>
<polygon fill="midnightblue" stroke="midnightblue" points="389.49,-159.38 398.35,-153.57 387.8,-152.59 389.49,-159.38"/>
</g>
<!-- Node8 -->
<g id="node8" class="node">
<title>Node8</title>
<g id="a_node8"><a xlink:href="../../d3/dfb/_input_handler__noedit_8h.html" target="_top" xlink:title="InputHandler library C includes, buffer sizing macros.">
<polygon fill="none" stroke="black" points="356.25,-67.5 356.25,-97.5 457.25,-97.5 457.25,-67.5 356.25,-67.5"/>
<text text-anchor="start" x="364.25" y="-85.5" font-family="Helvetica,sans-Serif" font-size="10.00">config/InputHandler</text>
<text text-anchor="middle" x="406.75" y="-74.5" font-family="Helvetica,sans-Serif" font-size="10.00">_noedit.h</text>
</a>
</g>
</g>
<!-- Node7&#45;&gt;Node8 -->
<g id="edge7" class="edge">
<title>Node7&#45;&gt;Node8</title>
<path fill="none" stroke="midnightblue" d="M429.02,-134.48C425.86,-127.25 421.18,-116.53 416.92,-106.78"/>
<polygon fill="midnightblue" stroke="midnightblue" points="420.09,-105.28 412.87,-97.52 413.67,-108.09 420.09,-105.28"/>
</g>
<!-- Node8&#45;&gt;Node2 -->
<g id="edge8" class="edge">
<title>Node8&#45;&gt;Node2</title>
<path fill="none" stroke="midnightblue" d="M356.14,-71.06C293.27,-58.08 187.37,-36.23 130.55,-24.51"/>
<polygon fill="midnightblue" stroke="midnightblue" points="131.04,-21.03 120.54,-22.44 129.62,-27.89 131.04,-21.03"/>
</g>
<!-- Node9 -->
<g id="node9" class="node">
<title>Node9</title>
<g id="a_node9"><a xlink:href="../../dd/d4e/_input_handler__config_8h.html" target="_top" xlink:title="InputHandler library user configurable items.">
<polygon fill="none" stroke="black" points="189.75,-6 189.75,-25 299.75,-25 299.75,-6 189.75,-6"/>
<text text-anchor="middle" x="244.75" y="-13" font-family="Helvetica,sans-Serif" font-size="10.00">InputHandler_config.h</text>
</a>
</g>
</g>
<!-- Node8&#45;&gt;Node9 -->
<g id="edge9" class="edge">
<title>Node8&#45;&gt;Node9</title>
<path fill="none" stroke="midnightblue" d="M371.59,-67.4C342.92,-55.89 302.81,-39.8 275.42,-28.81"/>
<polygon fill="midnightblue" stroke="midnightblue" points="276.53,-25.48 265.95,-25.01 273.93,-31.98 276.53,-25.48"/>
</g>
<!-- Node10 -->
<g id="node10" class="node">
<title>Node10</title>
<g id="a_node10"><a xlink:href="../../d3/dcd/_input_handler__portability_8h.html" target="_top" xlink:title="InputHandler library portability directives.">
<polygon fill="none" stroke="black" points="317.75,-6 317.75,-25 443.75,-25 443.75,-6 317.75,-6"/>
<text text-anchor="middle" x="380.75" y="-13" font-family="Helvetica,sans-Serif" font-size="10.00">InputHandler_portability.h</text>
</a>
</g>
</g>
<!-- Node8&#45;&gt;Node10 -->
<g id="edge10" class="edge">
<title>Node8&#45;&gt;Node10</title>
<path fill="none" stroke="midnightblue" d="M401.1,-67.4C397.25,-57.76 392.11,-44.91 387.96,-34.54"/>
<polygon fill="midnightblue" stroke="midnightblue" points="391.19,-33.18 384.22,-25.19 384.69,-35.78 391.19,-33.18"/>
</g>
<!-- Node11 -->
<g id="node11" class="node">
<title>Node11</title>
<g id="a_node11"><a xlink:href="../../d1/d39/_input_handler__functionlike__macros_8h.html" target="_top" xlink:title="InputHandler library function&#45;like macros.">
<polygon fill="none" stroke="black" points="462.25,-0.5 462.25,-30.5 589.25,-30.5 589.25,-0.5 462.25,-0.5"/>
<text text-anchor="start" x="470.25" y="-18.5" font-family="Helvetica,sans-Serif" font-size="10.00">InputHandler_functionlike</text>
<text text-anchor="middle" x="525.75" y="-7.5" font-family="Helvetica,sans-Serif" font-size="10.00">_macros.h</text>
</a>
</g>
</g>
<!-- Node8&#45;&gt;Node11 -->
<g id="edge11" class="edge">
<title>Node8&#45;&gt;Node11</title>
<path fill="none" stroke="midnightblue" d="M432.57,-67.4C449.72,-58.03 472.44,-45.62 491.15,-35.39"/>
<polygon fill="midnightblue" stroke="midnightblue" points="492.88,-38.44 499.98,-30.58 489.52,-32.3 492.88,-38.44"/>
</g>
<!-- Node12 -->
<g id="node12" class="node">
<title>Node12</title>
<g id="a_node12"><a xlink:href="../../df/d25/_input_handler___p_r_o_g_m_e_m__settings_8h.html" target="_top" xlink:title="InputHandler library PROGMEM settings.">
<polygon fill="none" stroke="black" points="607.75,-0.5 607.75,-30.5 735.75,-30.5 735.75,-0.5 607.75,-0.5"/>
<text text-anchor="start" x="615.75" y="-18.5" font-family="Helvetica,sans-Serif" font-size="10.00">InputHandler_PROGMEM</text>
<text text-anchor="middle" x="671.75" y="-7.5" font-family="Helvetica,sans-Serif" font-size="10.00">_settings.h</text>
</a>
</g>
</g>
<!-- Node8&#45;&gt;Node12 -->
<g id="edge12" class="edge">
<title>Node8&#45;&gt;Node12</title>
<path fill="none" stroke="midnightblue" d="M457.53,-69.04C499.25,-58.81 558.71,-44.23 604.41,-33.02"/>
<polygon fill="midnightblue" stroke="midnightblue" points="605.35,-36.39 614.23,-30.61 603.68,-29.59 605.35,-36.39"/>
</g>
</g>
</svg>
