<?xml version="1.0" encoding="UTF-8" standalone="no"?>
<!DOCTYPE svg PUBLIC "-//W3C//DTD SVG 1.1//EN"
 "http://www.w3.org/Graphics/SVG/1.1/DTD/svg11.dtd">
<!-- Generated by graphviz version 3.0.0 (20220413.0106)
 -->
<!-- Title: examples/esp/ReadCommandFromBufferWebSerial/ReadCommandFromBufferWebSerial.ino Pages: 1 -->
<svg width="488pt" height="218pt"
 viewBox="0.00 0.00 488.28 218.00" xmlns="http://www.w3.org/2000/svg" xmlns:xlink="http://www.w3.org/1999/xlink">
<g id="graph0" class="graph" transform="scale(1 1) rotate(0) translate(4 214)">
<title>examples/esp/ReadCommandFromBufferWebSerial/ReadCommandFromBufferWebSerial.ino</title>
<!-- Node1 -->
<g id="node1" class="node">
<title>Node1</title>
<g id="a_node1"><a xlink:title="An example that uses ReadCommandFromBuffer and WebSerial.">
<polygon fill="#bfbfbf" stroke="black" points="82.28,-168.5 82.28,-209.5 261.28,-209.5 261.28,-168.5 82.28,-168.5"/>
<text text-anchor="start" x="90.28" y="-197.5" font-family="Helvetica,sans-Serif" font-size="10.00">examples/esp/ReadCommand</text>
<text text-anchor="start" x="90.28" y="-186.5" font-family="Helvetica,sans-Serif" font-size="10.00">FromBufferWebSerial/ReadCommand</text>
<text text-anchor="middle" x="171.78" y="-175.5" font-family="Helvetica,sans-Serif" font-size="10.00">FromBufferWebSerial.ino</text>
</a>
</g>
</g>
<!-- Node2 -->
<g id="node2" class="node">
<title>Node2</title>
<g id="a_node2"><a xlink:title=" ">
<polygon fill="none" stroke="#bfbfbf" points="146.28,-0.5 146.28,-19.5 203.28,-19.5 203.28,-0.5 146.28,-0.5"/>
<text text-anchor="middle" x="174.78" y="-7.5" font-family="Helvetica,sans-Serif" font-size="10.00">Arduino.h</text>
</a>
</g>
</g>
<!-- Node1&#45;&gt;Node2 -->
<g id="edge1" class="edge">
<title>Node1&#45;&gt;Node2</title>
<path fill="none" stroke="midnightblue" d="M82.05,-177.73C53.98,-169.81 25.91,-155.99 8.78,-132 -29.8,-77.94 75.59,-38.5 135.91,-21.02"/>
<polygon fill="midnightblue" stroke="midnightblue" points="137.22,-24.29 145.89,-18.21 135.32,-17.55 137.22,-24.29"/>
</g>
<!-- Node3 -->
<g id="node3" class="node">
<title>Node3</title>
<g id="a_node3"><a xlink:title=" ">
<polygon fill="none" stroke="#bfbfbf" points="17.78,-112.5 17.78,-131.5 61.78,-131.5 61.78,-112.5 17.78,-112.5"/>
<text text-anchor="middle" x="39.78" y="-119.5" font-family="Helvetica,sans-Serif" font-size="10.00">WiFi.h</text>
</a>
</g>
</g>
<!-- Node1&#45;&gt;Node3 -->
<g id="edge2" class="edge">
<title>Node1&#45;&gt;Node3</title>
<path fill="none" stroke="midnightblue" d="M132.18,-168.5C110.97,-158.05 85.4,-145.46 66.54,-136.18"/>
<polygon fill="midnightblue" stroke="midnightblue" points="67.87,-132.93 57.35,-131.65 64.78,-139.21 67.87,-132.93"/>
</g>
<!-- Node4 -->
<g id="node4" class="node">
<title>Node4</title>
<g id="a_node4"><a xlink:title=" ">
<polygon fill="none" stroke="#bfbfbf" points="80.28,-112.5 80.28,-131.5 151.28,-131.5 151.28,-112.5 80.28,-112.5"/>
<text text-anchor="middle" x="115.78" y="-119.5" font-family="Helvetica,sans-Serif" font-size="10.00">AsyncTCP.h</text>
</a>
</g>
</g>
<!-- Node1&#45;&gt;Node4 -->
<g id="edge3" class="edge">
<title>Node1&#45;&gt;Node4</title>
<path fill="none" stroke="midnightblue" d="M154.98,-168.5C146.97,-159.2 137.5,-148.21 129.88,-139.36"/>
<polygon fill="midnightblue" stroke="midnightblue" points="132.42,-136.94 123.24,-131.65 127.11,-141.51 132.42,-136.94"/>
</g>
<!-- Node5 -->
<g id="node5" class="node">
<title>Node5</title>
<g id="a_node5"><a xlink:title=" ">
<polygon fill="none" stroke="#bfbfbf" points="169.28,-112.5 169.28,-131.5 288.28,-131.5 288.28,-112.5 169.28,-112.5"/>
<text text-anchor="middle" x="228.78" y="-119.5" font-family="Helvetica,sans-Serif" font-size="10.00">ESPAsyncWebServer.h</text>
</a>
</g>
</g>
<!-- Node1&#45;&gt;Node5 -->
<g id="edge4" class="edge">
<title>Node1&#45;&gt;Node5</title>
<path fill="none" stroke="midnightblue" d="M188.88,-168.5C197.04,-159.2 206.68,-148.21 214.44,-139.36"/>
<polygon fill="midnightblue" stroke="midnightblue" points="217.23,-141.48 221.2,-131.65 211.97,-136.86 217.23,-141.48"/>
</g>
<!-- Node6 -->
<g id="node6" class="node">
<title>Node6</title>
<g id="a_node6"><a xlink:title=" ">
<polygon fill="none" stroke="#bfbfbf" points="306.78,-112.5 306.78,-131.5 374.78,-131.5 374.78,-112.5 306.78,-112.5"/>
<text text-anchor="middle" x="340.78" y="-119.5" font-family="Helvetica,sans-Serif" font-size="10.00">WebSerial.h</text>
</a>
</g>
</g>
<!-- Node1&#45;&gt;Node6 -->
<g id="edge5" class="edge">
<title>Node1&#45;&gt;Node6</title>
<path fill="none" stroke="midnightblue" d="M222.49,-168.5C250.52,-157.72 284.48,-144.65 308.82,-135.29"/>
<polygon fill="midnightblue" stroke="midnightblue" points="310.21,-138.51 318.29,-131.65 307.7,-131.98 310.21,-138.51"/>
</g>
<!-- Node7 -->
<g id="node7" class="node">
<title>Node7</title>
<g id="a_node7"><a xlink:href="../../df/dec/_input_handler_8h.html" target="_top" xlink:title="InputHandler library header file.">
<polygon fill="none" stroke="black" points="392.78,-112.5 392.78,-131.5 472.78,-131.5 472.78,-112.5 392.78,-112.5"/>
<text text-anchor="middle" x="432.78" y="-119.5" font-family="Helvetica,sans-Serif" font-size="10.00">InputHandler.h</text>
</a>
</g>
</g>
<!-- Node1&#45;&gt;Node7 -->
<g id="edge6" class="edge">
<title>Node1&#45;&gt;Node7</title>
<path fill="none" stroke="midnightblue" d="M250.09,-168.5C295.25,-157.25 350.38,-143.52 388.2,-134.1"/>
<polygon fill="midnightblue" stroke="midnightblue" points="389.52,-137.38 398.38,-131.57 387.83,-130.59 389.52,-137.38"/>
</g>
<!-- Node8 -->
<g id="node8" class="node">
<title>Node8</title>
<g id="a_node8"><a xlink:href="../../da/dc7/noedit_8h.html" target="_top" xlink:title="InputHandler library C includes.">
<polygon fill="none" stroke="black" points="346.28,-56.5 346.28,-75.5 425.28,-75.5 425.28,-56.5 346.28,-56.5"/>
<text text-anchor="middle" x="385.78" y="-63.5" font-family="Helvetica,sans-Serif" font-size="10.00">config/noedit.h</text>
</a>
</g>
</g>
<!-- Node7&#45;&gt;Node8 -->
<g id="edge7" class="edge">
<title>Node7&#45;&gt;Node8</title>
<path fill="none" stroke="midnightblue" d="M425.02,-112.08C418.25,-104.3 408.24,-92.8 400.03,-83.37"/>
<polygon fill="midnightblue" stroke="midnightblue" points="402.6,-81 393.4,-75.75 397.32,-85.59 402.6,-81"/>
</g>
<!-- Node8&#45;&gt;Node2 -->
<g id="edge8" class="edge">
<title>Node8&#45;&gt;Node2</title>
<path fill="none" stroke="midnightblue" d="M352.35,-56.44C314.51,-46.76 252.97,-31.01 213.19,-20.83"/>
<polygon fill="midnightblue" stroke="midnightblue" points="213.88,-17.39 203.32,-18.3 212.14,-24.17 213.88,-17.39"/>
</g>
<!-- Node9 -->
<g id="node9" class="node">
<title>Node9</title>
<g id="a_node9"><a xlink:href="../../db/d16/config_8h.html" target="_top" xlink:title=" ">
<polygon fill="none" stroke="black" points="314.78,-0.5 314.78,-19.5 364.78,-19.5 364.78,-0.5 314.78,-0.5"/>
<text text-anchor="middle" x="339.78" y="-7.5" font-family="Helvetica,sans-Serif" font-size="10.00">config.h</text>
</a>
</g>
</g>
<!-- Node8&#45;&gt;Node9 -->
<g id="edge9" class="edge">
<title>Node8&#45;&gt;Node9</title>
<path fill="none" stroke="midnightblue" d="M378.19,-56.08C371.56,-48.3 361.76,-36.8 353.72,-27.37"/>
<polygon fill="midnightblue" stroke="midnightblue" points="356.39,-25.09 347.24,-19.75 351.06,-29.63 356.39,-25.09"/>
</g>
<!-- Node10 -->
<g id="node10" class="node">
<title>Node10</title>
<g id="a_node10"><a xlink:href="../../d5/d4a/advanced__config_8h.html" target="_top" xlink:title="InputHandler library advanced user settings.">
<polygon fill="none" stroke="black" points="383.28,-0.5 383.28,-19.5 480.28,-19.5 480.28,-0.5 383.28,-0.5"/>
<text text-anchor="middle" x="431.78" y="-7.5" font-family="Helvetica,sans-Serif" font-size="10.00">advanced_config.h</text>
</a>
</g>
</g>
<!-- Node8&#45;&gt;Node10 -->
<g id="edge10" class="edge">
<title>Node8&#45;&gt;Node10</title>
<path fill="none" stroke="midnightblue" d="M393.38,-56.08C400.01,-48.3 409.8,-36.8 417.84,-27.37"/>
<polygon fill="midnightblue" stroke="midnightblue" points="420.51,-29.63 424.33,-19.75 415.18,-25.09 420.51,-29.63"/>
</g>
</g>
</svg>
