<?xml version="1.0" encoding="UTF-8" standalone="no"?>
<!DOCTYPE svg PUBLIC "-//W3C//DTD SVG 1.1//EN"
 "http://www.w3.org/Graphics/SVG/1.1/DTD/svg11.dtd">
<!-- Generated by graphviz version 3.0.0 (20220413.0106)
 -->
<!-- Title: examples/esp/ReadCommandFromBufferWebSerial/ReadCommandFromBufferWebSerial.ino Pages: 1 -->
<svg width="533pt" height="218pt"
 viewBox="0.00 0.00 533.14 218.00" xmlns="http://www.w3.org/2000/svg" xmlns:xlink="http://www.w3.org/1999/xlink">
<g id="graph0" class="graph" transform="scale(1 1) rotate(0) translate(4 214)">
<title>examples/esp/ReadCommandFromBufferWebSerial/ReadCommandFromBufferWebSerial.ino</title>
<!-- Node1 -->
<g id="node1" class="node">
<title>Node1</title>
<g id="a_node1"><a xlink:title="An example that uses ReadCommandFromBuffer and WebSerial.">
<polygon fill="#bfbfbf" stroke="black" points="82.14,-168.5 82.14,-209.5 261.14,-209.5 261.14,-168.5 82.14,-168.5"/>
<text text-anchor="start" x="90.14" y="-197.5" font-family="Helvetica,sans-Serif" font-size="10.00">examples/esp/ReadCommand</text>
<text text-anchor="start" x="90.14" y="-186.5" font-family="Helvetica,sans-Serif" font-size="10.00">FromBufferWebSerial/ReadCommand</text>
<text text-anchor="middle" x="171.64" y="-175.5" font-family="Helvetica,sans-Serif" font-size="10.00">FromBufferWebSerial.ino</text>
</a>
</g>
</g>
<!-- Node2 -->
<g id="node2" class="node">
<title>Node2</title>
<g id="a_node2"><a xlink:title=" ">
<polygon fill="none" stroke="#bfbfbf" points="139.14,-0.5 139.14,-19.5 196.14,-19.5 196.14,-0.5 139.14,-0.5"/>
<text text-anchor="middle" x="167.64" y="-7.5" font-family="Helvetica,sans-Serif" font-size="10.00">Arduino.h</text>
</a>
</g>
</g>
<!-- Node1&#45;&gt;Node2 -->
<g id="edge1" class="edge">
<title>Node1&#45;&gt;Node2</title>
<path fill="none" stroke="midnightblue" d="M81.91,-177.73C53.84,-169.81 25.76,-155.99 8.64,-132 -28.7,-79.69 71.3,-39.72 129.4,-21.62"/>
<polygon fill="midnightblue" stroke="midnightblue" points="130.47,-24.96 139.02,-18.71 128.44,-18.26 130.47,-24.96"/>
</g>
<!-- Node3 -->
<g id="node3" class="node">
<title>Node3</title>
<g id="a_node3"><a xlink:title=" ">
<polygon fill="none" stroke="#bfbfbf" points="17.64,-112.5 17.64,-131.5 61.64,-131.5 61.64,-112.5 17.64,-112.5"/>
<text text-anchor="middle" x="39.64" y="-119.5" font-family="Helvetica,sans-Serif" font-size="10.00">WiFi.h</text>
</a>
</g>
</g>
<!-- Node1&#45;&gt;Node3 -->
<g id="edge2" class="edge">
<title>Node1&#45;&gt;Node3</title>
<path fill="none" stroke="midnightblue" d="M132.04,-168.5C110.83,-158.05 85.26,-145.46 66.4,-136.18"/>
<polygon fill="midnightblue" stroke="midnightblue" points="67.73,-132.93 57.21,-131.65 64.64,-139.21 67.73,-132.93"/>
</g>
<!-- Node4 -->
<g id="node4" class="node">
<title>Node4</title>
<g id="a_node4"><a xlink:title=" ">
<polygon fill="none" stroke="#bfbfbf" points="80.14,-112.5 80.14,-131.5 151.14,-131.5 151.14,-112.5 80.14,-112.5"/>
<text text-anchor="middle" x="115.64" y="-119.5" font-family="Helvetica,sans-Serif" font-size="10.00">AsyncTCP.h</text>
</a>
</g>
</g>
<!-- Node1&#45;&gt;Node4 -->
<g id="edge3" class="edge">
<title>Node1&#45;&gt;Node4</title>
<path fill="none" stroke="midnightblue" d="M154.84,-168.5C146.83,-159.2 137.36,-148.21 129.73,-139.36"/>
<polygon fill="midnightblue" stroke="midnightblue" points="132.27,-136.94 123.1,-131.65 126.97,-141.51 132.27,-136.94"/>
</g>
<!-- Node5 -->
<g id="node5" class="node">
<title>Node5</title>
<g id="a_node5"><a xlink:title=" ">
<polygon fill="none" stroke="#bfbfbf" points="169.14,-112.5 169.14,-131.5 288.14,-131.5 288.14,-112.5 169.14,-112.5"/>
<text text-anchor="middle" x="228.64" y="-119.5" font-family="Helvetica,sans-Serif" font-size="10.00">ESPAsyncWebServer.h</text>
</a>
</g>
</g>
<!-- Node1&#45;&gt;Node5 -->
<g id="edge4" class="edge">
<title>Node1&#45;&gt;Node5</title>
<path fill="none" stroke="midnightblue" d="M188.74,-168.5C196.89,-159.2 206.53,-148.21 214.3,-139.36"/>
<polygon fill="midnightblue" stroke="midnightblue" points="217.09,-141.48 221.05,-131.65 211.83,-136.86 217.09,-141.48"/>
</g>
<!-- Node6 -->
<g id="node6" class="node">
<title>Node6</title>
<g id="a_node6"><a xlink:title=" ">
<polygon fill="none" stroke="#bfbfbf" points="306.64,-112.5 306.64,-131.5 374.64,-131.5 374.64,-112.5 306.64,-112.5"/>
<text text-anchor="middle" x="340.64" y="-119.5" font-family="Helvetica,sans-Serif" font-size="10.00">WebSerial.h</text>
</a>
</g>
</g>
<!-- Node1&#45;&gt;Node6 -->
<g id="edge5" class="edge">
<title>Node1&#45;&gt;Node6</title>
<path fill="none" stroke="midnightblue" d="M222.35,-168.5C250.37,-157.72 284.34,-144.65 308.68,-135.29"/>
<polygon fill="midnightblue" stroke="midnightblue" points="310.07,-138.51 318.14,-131.65 307.55,-131.98 310.07,-138.51"/>
</g>
<!-- Node7 -->
<g id="node7" class="node">
<title>Node7</title>
<g id="a_node7"><a xlink:href="../../df/dec/_input_handler_8h.html" target="_top" xlink:title="InputHandler library header file.">
<polygon fill="none" stroke="black" points="392.64,-112.5 392.64,-131.5 472.64,-131.5 472.64,-112.5 392.64,-112.5"/>
<text text-anchor="middle" x="432.64" y="-119.5" font-family="Helvetica,sans-Serif" font-size="10.00">InputHandler.h</text>
</a>
</g>
</g>
<!-- Node1&#45;&gt;Node7 -->
<g id="edge6" class="edge">
<title>Node1&#45;&gt;Node7</title>
<path fill="none" stroke="midnightblue" d="M249.95,-168.5C295.1,-157.25 350.24,-143.52 388.06,-134.1"/>
<polygon fill="midnightblue" stroke="midnightblue" points="389.38,-137.38 398.24,-131.57 387.69,-130.59 389.38,-137.38"/>
</g>
<!-- Node8 -->
<g id="node8" class="node">
<title>Node8</title>
<g id="a_node8"><a xlink:href="../../da/dc7/noedit_8h.html" target="_top" xlink:title="InputHandler library C includes.">
<polygon fill="none" stroke="black" points="348.14,-56.5 348.14,-75.5 427.14,-75.5 427.14,-56.5 348.14,-56.5"/>
<text text-anchor="middle" x="387.64" y="-63.5" font-family="Helvetica,sans-Serif" font-size="10.00">config/noedit.h</text>
</a>
</g>
</g>
<!-- Node7&#45;&gt;Node8 -->
<g id="edge7" class="edge">
<title>Node7&#45;&gt;Node8</title>
<path fill="none" stroke="midnightblue" d="M425.21,-112.08C418.79,-104.38 409.34,-93.03 401.52,-83.65"/>
<polygon fill="midnightblue" stroke="midnightblue" points="404.02,-81.19 394.93,-75.75 398.65,-85.67 404.02,-81.19"/>
</g>
<!-- Node8&#45;&gt;Node2 -->
<g id="edge8" class="edge">
<title>Node8&#45;&gt;Node2</title>
<path fill="none" stroke="midnightblue" d="M352.78,-56.44C312.82,-46.64 247.52,-30.61 206.11,-20.44"/>
<polygon fill="midnightblue" stroke="midnightblue" points="206.92,-17.04 196.38,-18.05 205.26,-23.84 206.92,-17.04"/>
</g>
<!-- Node9 -->
<g id="node9" class="node">
<title>Node9</title>
<g id="a_node9"><a xlink:href="../../db/d16/config_8h.html" target="_top" xlink:title="InputHandler library user configurable items.">
<polygon fill="none" stroke="black" points="303.64,-0.5 303.64,-19.5 381.64,-19.5 381.64,-0.5 303.64,-0.5"/>
<text text-anchor="middle" x="342.64" y="-7.5" font-family="Helvetica,sans-Serif" font-size="10.00">config/config.h</text>
</a>
</g>
</g>
<!-- Node8&#45;&gt;Node9 -->
<g id="edge9" class="edge">
<title>Node8&#45;&gt;Node9</title>
<path fill="none" stroke="midnightblue" d="M380.21,-56.08C373.79,-48.38 364.34,-37.03 356.52,-27.65"/>
<polygon fill="midnightblue" stroke="midnightblue" points="359.02,-25.19 349.93,-19.75 353.65,-29.67 359.02,-25.19"/>
</g>
<!-- Node10 -->
<g id="node10" class="node">
<title>Node10</title>
<g id="a_node10"><a xlink:href="../../d5/d4a/advanced__config_8h.html" target="_top" xlink:title="InputHandler library advanced user settings.">
<polygon fill="none" stroke="black" points="400.14,-0.5 400.14,-19.5 525.14,-19.5 525.14,-0.5 400.14,-0.5"/>
<text text-anchor="middle" x="462.64" y="-7.5" font-family="Helvetica,sans-Serif" font-size="10.00">config/advanced_config.h</text>
</a>
</g>
</g>
<!-- Node8&#45;&gt;Node10 -->
<g id="edge10" class="edge">
<title>Node8&#45;&gt;Node10</title>
<path fill="none" stroke="midnightblue" d="M399.69,-56.32C411.1,-48.11 428.47,-35.6 442.08,-25.81"/>
<polygon fill="midnightblue" stroke="midnightblue" points="444.3,-28.52 450.37,-19.83 440.21,-22.84 444.3,-28.52"/>
</g>
</g>
</svg>
