<?xml version="1.0" encoding="UTF-8" standalone="no"?>
<!DOCTYPE svg PUBLIC "-//W3C//DTD SVG 1.1//EN"
 "http://www.w3.org/Graphics/SVG/1.1/DTD/svg11.dtd">
<!-- Generated by graphviz version 3.0.0 (20220413.0106)
 -->
<!-- Title: examples/esp/ReadCommandFromBufferWebSerial/ReadCommandFromBufferWebSerial.ino Pages: 1 -->
<svg width="604pt" height="240pt"
 viewBox="0.00 0.00 603.89 240.00" xmlns="http://www.w3.org/2000/svg" xmlns:xlink="http://www.w3.org/1999/xlink">
<g id="graph0" class="graph" transform="scale(1 1) rotate(0) translate(4 236)">
<title>examples/esp/ReadCommandFromBufferWebSerial/ReadCommandFromBufferWebSerial.ino</title>
<!-- Node1 -->
<g id="node1" class="node">
<title>Node1</title>
<g id="a_node1"><a xlink:title="An example that uses ReadCommandFromBuffer and WebSerial.">
<polygon fill="#bfbfbf" stroke="black" points="82.39,-190.5 82.39,-231.5 261.39,-231.5 261.39,-190.5 82.39,-190.5"/>
<text text-anchor="start" x="90.39" y="-219.5" font-family="Helvetica,sans-Serif" font-size="10.00">examples/esp/ReadCommand</text>
<text text-anchor="start" x="90.39" y="-208.5" font-family="Helvetica,sans-Serif" font-size="10.00">FromBufferWebSerial/ReadCommand</text>
<text text-anchor="middle" x="171.89" y="-197.5" font-family="Helvetica,sans-Serif" font-size="10.00">FromBufferWebSerial.ino</text>
</a>
</g>
</g>
<!-- Node2 -->
<g id="node2" class="node">
<title>Node2</title>
<g id="a_node2"><a xlink:title=" ">
<polygon fill="none" stroke="#bfbfbf" points="55.39,-6 55.39,-25 112.39,-25 112.39,-6 55.39,-6"/>
<text text-anchor="middle" x="83.89" y="-13" font-family="Helvetica,sans-Serif" font-size="10.00">Arduino.h</text>
</a>
</g>
</g>
<!-- Node1&#45;&gt;Node2 -->
<g id="edge1" class="edge">
<title>Node1&#45;&gt;Node2</title>
<path fill="none" stroke="midnightblue" d="M82.16,-199.73C54.09,-191.81 26.02,-177.99 8.89,-154 -20.71,-112.53 33.21,-58.1 64.24,-31.9"/>
<polygon fill="midnightblue" stroke="midnightblue" points="66.78,-34.34 72.29,-25.3 62.34,-28.93 66.78,-34.34"/>
</g>
<!-- Node3 -->
<g id="node3" class="node">
<title>Node3</title>
<g id="a_node3"><a xlink:title=" ">
<polygon fill="none" stroke="#bfbfbf" points="17.89,-134.5 17.89,-153.5 61.89,-153.5 61.89,-134.5 17.89,-134.5"/>
<text text-anchor="middle" x="39.89" y="-141.5" font-family="Helvetica,sans-Serif" font-size="10.00">WiFi.h</text>
</a>
</g>
</g>
<!-- Node1&#45;&gt;Node3 -->
<g id="edge2" class="edge">
<title>Node1&#45;&gt;Node3</title>
<path fill="none" stroke="midnightblue" d="M132.29,-190.5C111.08,-180.05 85.51,-167.46 66.66,-158.18"/>
<polygon fill="midnightblue" stroke="midnightblue" points="67.98,-154.93 57.46,-153.65 64.89,-161.21 67.98,-154.93"/>
</g>
<!-- Node4 -->
<g id="node4" class="node">
<title>Node4</title>
<g id="a_node4"><a xlink:title=" ">
<polygon fill="none" stroke="#bfbfbf" points="80.39,-134.5 80.39,-153.5 151.39,-153.5 151.39,-134.5 80.39,-134.5"/>
<text text-anchor="middle" x="115.89" y="-141.5" font-family="Helvetica,sans-Serif" font-size="10.00">AsyncTCP.h</text>
</a>
</g>
</g>
<!-- Node1&#45;&gt;Node4 -->
<g id="edge3" class="edge">
<title>Node1&#45;&gt;Node4</title>
<path fill="none" stroke="midnightblue" d="M155.09,-190.5C147.08,-181.2 137.61,-170.21 129.99,-161.36"/>
<polygon fill="midnightblue" stroke="midnightblue" points="132.53,-158.94 123.35,-153.65 127.22,-163.51 132.53,-158.94"/>
</g>
<!-- Node5 -->
<g id="node5" class="node">
<title>Node5</title>
<g id="a_node5"><a xlink:title=" ">
<polygon fill="none" stroke="#bfbfbf" points="169.39,-134.5 169.39,-153.5 288.39,-153.5 288.39,-134.5 169.39,-134.5"/>
<text text-anchor="middle" x="228.89" y="-141.5" font-family="Helvetica,sans-Serif" font-size="10.00">ESPAsyncWebServer.h</text>
</a>
</g>
</g>
<!-- Node1&#45;&gt;Node5 -->
<g id="edge4" class="edge">
<title>Node1&#45;&gt;Node5</title>
<path fill="none" stroke="midnightblue" d="M188.99,-190.5C197.15,-181.2 206.79,-170.21 214.55,-161.36"/>
<polygon fill="midnightblue" stroke="midnightblue" points="217.34,-163.48 221.31,-153.65 212.08,-158.86 217.34,-163.48"/>
</g>
<!-- Node6 -->
<g id="node6" class="node">
<title>Node6</title>
<g id="a_node6"><a xlink:title=" ">
<polygon fill="none" stroke="#bfbfbf" points="306.89,-134.5 306.89,-153.5 374.89,-153.5 374.89,-134.5 306.89,-134.5"/>
<text text-anchor="middle" x="340.89" y="-141.5" font-family="Helvetica,sans-Serif" font-size="10.00">WebSerial.h</text>
</a>
</g>
</g>
<!-- Node1&#45;&gt;Node6 -->
<g id="edge5" class="edge">
<title>Node1&#45;&gt;Node6</title>
<path fill="none" stroke="midnightblue" d="M222.6,-190.5C250.63,-179.72 284.6,-166.65 308.93,-157.29"/>
<polygon fill="midnightblue" stroke="midnightblue" points="310.32,-160.51 318.4,-153.65 307.81,-153.98 310.32,-160.51"/>
</g>
<!-- Node7 -->
<g id="node7" class="node">
<title>Node7</title>
<g id="a_node7"><a xlink:href="../../df/dec/_input_handler_8h.html" target="_top" xlink:title="InputHandler library header file.">
<polygon fill="none" stroke="black" points="392.89,-134.5 392.89,-153.5 472.89,-153.5 472.89,-134.5 392.89,-134.5"/>
<text text-anchor="middle" x="432.89" y="-141.5" font-family="Helvetica,sans-Serif" font-size="10.00">InputHandler.h</text>
</a>
</g>
</g>
<!-- Node1&#45;&gt;Node7 -->
<g id="edge6" class="edge">
<title>Node1&#45;&gt;Node7</title>
<path fill="none" stroke="midnightblue" d="M250.2,-190.5C295.36,-179.25 350.49,-165.52 388.31,-156.1"/>
<polygon fill="midnightblue" stroke="midnightblue" points="389.64,-159.38 398.49,-153.57 387.94,-152.59 389.64,-159.38"/>
</g>
<!-- Node8 -->
<g id="node8" class="node">
<title>Node8</title>
<g id="a_node8"><a xlink:href="../../dd/d4e/_input_handler__config_8h.html" target="_top" xlink:title="InputHandler library configuration file.">
<polygon fill="none" stroke="black" points="335.39,-67.5 335.39,-97.5 436.39,-97.5 436.39,-67.5 335.39,-67.5"/>
<text text-anchor="start" x="343.39" y="-85.5" font-family="Helvetica,sans-Serif" font-size="10.00">config/InputHandler</text>
<text text-anchor="middle" x="385.89" y="-74.5" font-family="Helvetica,sans-Serif" font-size="10.00">_config.h</text>
</a>
</g>
</g>
<!-- Node7&#45;&gt;Node8 -->
<g id="edge7" class="edge">
<title>Node7&#45;&gt;Node8</title>
<path fill="none" stroke="midnightblue" d="M426.16,-134.48C420.21,-126.94 411.27,-115.63 403.32,-105.57"/>
<polygon fill="midnightblue" stroke="midnightblue" points="405.92,-103.2 396.97,-97.52 400.42,-107.54 405.92,-103.2"/>
</g>
<!-- Node8&#45;&gt;Node2 -->
<g id="edge8" class="edge">
<title>Node8&#45;&gt;Node2</title>
<path fill="none" stroke="midnightblue" d="M335.35,-70.62C275.4,-57.72 176.8,-36.5 122.6,-24.83"/>
<polygon fill="midnightblue" stroke="midnightblue" points="123.2,-21.38 112.69,-22.7 121.73,-28.22 123.2,-21.38"/>
</g>
<!-- Node9 -->
<g id="node9" class="node">
<title>Node9</title>
<g id="a_node9"><a xlink:href="../../d3/dcd/_input_handler__portability_8h.html" target="_top" xlink:title=" ">
<polygon fill="none" stroke="black" points="177.89,-6 177.89,-25 303.89,-25 303.89,-6 177.89,-6"/>
<text text-anchor="middle" x="240.89" y="-13" font-family="Helvetica,sans-Serif" font-size="10.00">InputHandler_portability.h</text>
</a>
</g>
</g>
<!-- Node8&#45;&gt;Node9 -->
<g id="edge9" class="edge">
<title>Node8&#45;&gt;Node9</title>
<path fill="none" stroke="midnightblue" d="M354.43,-67.4C328.99,-55.99 293.49,-40.08 269,-29.1"/>
<polygon fill="midnightblue" stroke="midnightblue" points="270.43,-25.9 259.87,-25.01 267.56,-32.29 270.43,-25.9"/>
</g>
<!-- Node10 -->
<g id="node10" class="node">
<title>Node10</title>
<g id="a_node10"><a xlink:href="../../d1/d39/_input_handler__functionlike__macros_8h.html" target="_top" xlink:title=" ">
<polygon fill="none" stroke="black" points="322.39,-0.5 322.39,-30.5 449.39,-30.5 449.39,-0.5 322.39,-0.5"/>
<text text-anchor="start" x="330.39" y="-18.5" font-family="Helvetica,sans-Serif" font-size="10.00">InputHandler_functionlike</text>
<text text-anchor="middle" x="385.89" y="-7.5" font-family="Helvetica,sans-Serif" font-size="10.00">_macros.h</text>
</a>
</g>
</g>
<!-- Node8&#45;&gt;Node10 -->
<g id="edge10" class="edge">
<title>Node8&#45;&gt;Node10</title>
<path fill="none" stroke="midnightblue" d="M385.89,-67.4C385.89,-59.64 385.89,-49.81 385.89,-40.86"/>
<polygon fill="midnightblue" stroke="midnightblue" points="389.39,-40.58 385.89,-30.58 382.39,-40.58 389.39,-40.58"/>
</g>
<!-- Node11 -->
<g id="node11" class="node">
<title>Node11</title>
<g id="a_node11"><a xlink:href="../../df/d25/_input_handler___p_r_o_g_m_e_m__settings_8h.html" target="_top" xlink:title=" ">
<polygon fill="none" stroke="black" points="467.89,-0.5 467.89,-30.5 595.89,-30.5 595.89,-0.5 467.89,-0.5"/>
<text text-anchor="start" x="475.89" y="-18.5" font-family="Helvetica,sans-Serif" font-size="10.00">InputHandler_PROGMEM</text>
<text text-anchor="middle" x="531.89" y="-7.5" font-family="Helvetica,sans-Serif" font-size="10.00">_settings.h</text>
</a>
</g>
</g>
<!-- Node8&#45;&gt;Node11 -->
<g id="edge11" class="edge">
<title>Node8&#45;&gt;Node11</title>
<path fill="none" stroke="midnightblue" d="M417.57,-67.4C439.1,-57.81 467.77,-45.05 491.01,-34.7"/>
<polygon fill="midnightblue" stroke="midnightblue" points="492.56,-37.84 500.28,-30.58 489.72,-31.45 492.56,-37.84"/>
</g>
</g>
</svg>
