<?xml version="1.0" encoding="UTF-8" standalone="no"?>
<!DOCTYPE svg PUBLIC "-//W3C//DTD SVG 1.1//EN"
 "http://www.w3.org/Graphics/SVG/1.1/DTD/svg11.dtd">
<!-- Generated by graphviz version 3.0.0 (20220413.0106)
 -->
<!-- Title: examples/esp/ReadCommandFromBufferWebSerial/ReadCommandFromBufferWebSerial.ino Pages: 1 -->
<svg width="484pt" height="229pt"
 viewBox="0.00 0.00 484.07 229.00" xmlns="http://www.w3.org/2000/svg" xmlns:xlink="http://www.w3.org/1999/xlink">
<g id="graph0" class="graph" transform="scale(1 1) rotate(0) translate(4 225)">
<title>examples/esp/ReadCommandFromBufferWebSerial/ReadCommandFromBufferWebSerial.ino</title>
<!-- Node1 -->
<g id="node1" class="node">
<title>Node1</title>
<g id="a_node1"><a xlink:title="An example that uses ReadCommandFromBuffer and WebSerial.">
<polygon fill="#bfbfbf" stroke="black" points="85.57,-179.5 85.57,-220.5 264.57,-220.5 264.57,-179.5 85.57,-179.5"/>
<text text-anchor="start" x="93.57" y="-208.5" font-family="Helvetica,sans-Serif" font-size="10.00">examples/esp/ReadCommand</text>
<text text-anchor="start" x="93.57" y="-197.5" font-family="Helvetica,sans-Serif" font-size="10.00">FromBufferWebSerial/ReadCommand</text>
<text text-anchor="middle" x="175.07" y="-186.5" font-family="Helvetica,sans-Serif" font-size="10.00">FromBufferWebSerial.ino</text>
</a>
</g>
</g>
<!-- Node2 -->
<g id="node2" class="node">
<title>Node2</title>
<g id="a_node2"><a xlink:title=" ">
<polygon fill="none" stroke="#bfbfbf" points="3.57,-0.5 3.57,-19.5 60.57,-19.5 60.57,-0.5 3.57,-0.5"/>
<text text-anchor="middle" x="32.07" y="-7.5" font-family="Helvetica,sans-Serif" font-size="10.00">Arduino.h</text>
</a>
</g>
</g>
<!-- Node1&#45;&gt;Node2 -->
<g id="edge1" class="edge">
<title>Node1&#45;&gt;Node2</title>
<path fill="none" stroke="midnightblue" d="M85.34,-188.73C57.28,-180.81 29.2,-166.99 12.07,-143 -12.52,-108.54 8.16,-56.05 22.04,-28.81"/>
<polygon fill="midnightblue" stroke="midnightblue" points="25.28,-30.16 26.91,-19.69 19.11,-26.86 25.28,-30.16"/>
</g>
<!-- Node3 -->
<g id="node3" class="node">
<title>Node3</title>
<g id="a_node3"><a xlink:title=" ">
<polygon fill="none" stroke="#bfbfbf" points="21.07,-123.5 21.07,-142.5 65.07,-142.5 65.07,-123.5 21.07,-123.5"/>
<text text-anchor="middle" x="43.07" y="-130.5" font-family="Helvetica,sans-Serif" font-size="10.00">WiFi.h</text>
</a>
</g>
</g>
<!-- Node1&#45;&gt;Node3 -->
<g id="edge2" class="edge">
<title>Node1&#45;&gt;Node3</title>
<path fill="none" stroke="midnightblue" d="M135.47,-179.5C114.26,-169.05 88.69,-156.46 69.84,-147.18"/>
<polygon fill="midnightblue" stroke="midnightblue" points="71.16,-143.93 60.65,-142.65 68.07,-150.21 71.16,-143.93"/>
</g>
<!-- Node4 -->
<g id="node4" class="node">
<title>Node4</title>
<g id="a_node4"><a xlink:title=" ">
<polygon fill="none" stroke="#bfbfbf" points="83.57,-123.5 83.57,-142.5 154.57,-142.5 154.57,-123.5 83.57,-123.5"/>
<text text-anchor="middle" x="119.07" y="-130.5" font-family="Helvetica,sans-Serif" font-size="10.00">AsyncTCP.h</text>
</a>
</g>
</g>
<!-- Node1&#45;&gt;Node4 -->
<g id="edge3" class="edge">
<title>Node1&#45;&gt;Node4</title>
<path fill="none" stroke="midnightblue" d="M158.27,-179.5C150.26,-170.2 140.79,-159.21 133.17,-150.36"/>
<polygon fill="midnightblue" stroke="midnightblue" points="135.71,-147.94 126.53,-142.65 130.4,-152.51 135.71,-147.94"/>
</g>
<!-- Node5 -->
<g id="node5" class="node">
<title>Node5</title>
<g id="a_node5"><a xlink:title=" ">
<polygon fill="none" stroke="#bfbfbf" points="172.57,-123.5 172.57,-142.5 291.57,-142.5 291.57,-123.5 172.57,-123.5"/>
<text text-anchor="middle" x="232.07" y="-130.5" font-family="Helvetica,sans-Serif" font-size="10.00">ESPAsyncWebServer.h</text>
</a>
</g>
</g>
<!-- Node1&#45;&gt;Node5 -->
<g id="edge4" class="edge">
<title>Node1&#45;&gt;Node5</title>
<path fill="none" stroke="midnightblue" d="M192.18,-179.5C200.33,-170.2 209.97,-159.21 217.73,-150.36"/>
<polygon fill="midnightblue" stroke="midnightblue" points="220.53,-152.48 224.49,-142.65 215.26,-147.86 220.53,-152.48"/>
</g>
<!-- Node6 -->
<g id="node6" class="node">
<title>Node6</title>
<g id="a_node6"><a xlink:title=" ">
<polygon fill="none" stroke="#bfbfbf" points="310.07,-123.5 310.07,-142.5 378.07,-142.5 378.07,-123.5 310.07,-123.5"/>
<text text-anchor="middle" x="344.07" y="-130.5" font-family="Helvetica,sans-Serif" font-size="10.00">WebSerial.h</text>
</a>
</g>
</g>
<!-- Node1&#45;&gt;Node6 -->
<g id="edge5" class="edge">
<title>Node1&#45;&gt;Node6</title>
<path fill="none" stroke="midnightblue" d="M225.78,-179.5C253.81,-168.72 287.78,-155.65 312.11,-146.29"/>
<polygon fill="midnightblue" stroke="midnightblue" points="313.5,-149.51 321.58,-142.65 310.99,-142.98 313.5,-149.51"/>
</g>
<!-- Node7 -->
<g id="node7" class="node">
<title>Node7</title>
<g id="a_node7"><a xlink:href="../../df/dec/_input_handler_8h.html" target="_top" xlink:title="InputHandler library header file.">
<polygon fill="none" stroke="black" points="396.07,-123.5 396.07,-142.5 476.07,-142.5 476.07,-123.5 396.07,-123.5"/>
<text text-anchor="middle" x="436.07" y="-130.5" font-family="Helvetica,sans-Serif" font-size="10.00">InputHandler.h</text>
</a>
</g>
</g>
<!-- Node1&#45;&gt;Node7 -->
<g id="edge6" class="edge">
<title>Node1&#45;&gt;Node7</title>
<path fill="none" stroke="midnightblue" d="M253.38,-179.5C298.54,-168.25 353.68,-154.52 391.49,-145.1"/>
<polygon fill="midnightblue" stroke="midnightblue" points="392.82,-148.38 401.67,-142.57 391.12,-141.59 392.82,-148.38"/>
</g>
<!-- Node8 -->
<g id="node8" class="node">
<title>Node8</title>
<g id="a_node8"><a xlink:href="../../dd/d4e/_input_handler__config_8h.html" target="_top" xlink:title="InputHandler library configuration file.">
<polygon fill="none" stroke="black" points="203.57,-56.5 203.57,-86.5 304.57,-86.5 304.57,-56.5 203.57,-56.5"/>
<text text-anchor="start" x="211.57" y="-74.5" font-family="Helvetica,sans-Serif" font-size="10.00">config/InputHandler</text>
<text text-anchor="middle" x="254.07" y="-63.5" font-family="Helvetica,sans-Serif" font-size="10.00">_config.h</text>
</a>
</g>
</g>
<!-- Node7&#45;&gt;Node8 -->
<g id="edge7" class="edge">
<title>Node7&#45;&gt;Node8</title>
<path fill="none" stroke="midnightblue" d="M410,-123.48C383.16,-114.7 340.6,-100.79 306.72,-89.71"/>
<polygon fill="midnightblue" stroke="midnightblue" points="307.56,-86.3 296.97,-86.52 305.39,-92.96 307.56,-86.3"/>
</g>
<!-- Node8&#45;&gt;Node2 -->
<g id="edge8" class="edge">
<title>Node8&#45;&gt;Node2</title>
<path fill="none" stroke="midnightblue" d="M203.42,-56.92C163.07,-46.11 107.42,-31.19 70.63,-21.33"/>
<polygon fill="midnightblue" stroke="midnightblue" points="71.34,-17.9 60.78,-18.69 69.53,-24.66 71.34,-17.9"/>
</g>
</g>
</svg>
