<?xml version="1.0" encoding="UTF-8" standalone="no"?>
<!DOCTYPE svg PUBLIC "-//W3C//DTD SVG 1.1//EN"
 "http://www.w3.org/Graphics/SVG/1.1/DTD/svg11.dtd">
<!-- Generated by graphviz version 6.0.1 (20220911.1526)
 -->
<!-- Title: examples/esp/ReadCommandFromBufferWebSerial/ReadCommandFromBufferWebSerial.ino Pages: 1 -->
<svg width="481pt" height="214pt"
 viewBox="0.00 0.00 480.70 214.00" xmlns="http://www.w3.org/2000/svg" xmlns:xlink="http://www.w3.org/1999/xlink">
<g id="graph0" class="graph" transform="scale(1 1) rotate(0) translate(4 210)">
<title>examples/esp/ReadCommandFromBufferWebSerial/ReadCommandFromBufferWebSerial.ino</title>
<!-- Node1 -->
<g id="node1" class="node">
<title>Node1</title>
<g id="a_node1"><a xlink:title="An example that uses ReadCommandFromBuffer and WebSerial.">
<polygon fill="#999999" stroke="#666666" points="261.2,-206 82.2,-206 82.2,-165 261.2,-165 261.2,-206"/>
<text text-anchor="start" x="90.2" y="-194" font-family="Helvetica,sans-Serif" font-size="10.00">examples/esp/ReadCommand</text>
<text text-anchor="start" x="90.2" y="-183" font-family="Helvetica,sans-Serif" font-size="10.00">FromBufferWebSerial/ReadCommand</text>
<text text-anchor="middle" x="171.7" y="-172" font-family="Helvetica,sans-Serif" font-size="10.00">FromBufferWebSerial.ino</text>
</a>
</g>
</g>
<!-- Node2 -->
<g id="node2" class="node">
<title>Node2</title>
<g id="a_node2"><a xlink:title=" ">
<polygon fill="#e0e0e0" stroke="#999999" points="203.2,-19 146.2,-19 146.2,0 203.2,0 203.2,-19"/>
<text text-anchor="middle" x="174.7" y="-7" font-family="Helvetica,sans-Serif" font-size="10.00">Arduino.h</text>
</a>
</g>
</g>
<!-- Node1&#45;&gt;Node2 -->
<g id="edge1" class="edge">
<title>Node1&#45;&gt;Node2</title>
<path fill="none" stroke="#63b8ff" d="M81.99,-174.51C53.93,-166.68 25.84,-152.94 8.7,-129 -29.68,-75.38 75.62,-37.06 135.88,-20.16"/>
<polygon fill="#63b8ff" stroke="#63b8ff" points="137.12,-23.45 145.85,-17.44 135.28,-16.7 137.12,-23.45"/>
</g>
<!-- Node3 -->
<g id="node3" class="node">
<title>Node3</title>
<g id="a_node3"><a xlink:title=" ">
<polygon fill="#e0e0e0" stroke="#999999" points="61.7,-129 17.7,-129 17.7,-110 61.7,-110 61.7,-129"/>
<text text-anchor="middle" x="39.7" y="-117" font-family="Helvetica,sans-Serif" font-size="10.00">WiFi.h</text>
</a>
</g>
</g>
<!-- Node1&#45;&gt;Node3 -->
<g id="edge2" class="edge">
<title>Node1&#45;&gt;Node3</title>
<path fill="none" stroke="#63b8ff" d="M131.38,-164.95C110.33,-154.75 85.16,-142.54 66.52,-133.5"/>
<polygon fill="#63b8ff" stroke="#63b8ff" points="67.95,-130.31 57.42,-129.09 64.9,-136.6 67.95,-130.31"/>
</g>
<!-- Node4 -->
<g id="node4" class="node">
<title>Node4</title>
<g id="a_node4"><a xlink:title=" ">
<polygon fill="#e0e0e0" stroke="#999999" points="151.2,-129 80.2,-129 80.2,-110 151.2,-110 151.2,-129"/>
<text text-anchor="middle" x="115.7" y="-117" font-family="Helvetica,sans-Serif" font-size="10.00">AsyncTCP.h</text>
</a>
</g>
</g>
<!-- Node1&#45;&gt;Node4 -->
<g id="edge3" class="edge">
<title>Node1&#45;&gt;Node4</title>
<path fill="none" stroke="#63b8ff" d="M154.6,-164.95C146.78,-156.02 137.62,-145.55 130.16,-137.02"/>
<polygon fill="#63b8ff" stroke="#63b8ff" points="132.59,-134.48 123.37,-129.26 127.32,-139.09 132.59,-134.48"/>
</g>
<!-- Node5 -->
<g id="node5" class="node">
<title>Node5</title>
<g id="a_node5"><a xlink:title=" ">
<polygon fill="#e0e0e0" stroke="#999999" points="288.2,-129 169.2,-129 169.2,-110 288.2,-110 288.2,-129"/>
<text text-anchor="middle" x="228.7" y="-117" font-family="Helvetica,sans-Serif" font-size="10.00">ESPAsyncWebServer.h</text>
</a>
</g>
</g>
<!-- Node1&#45;&gt;Node5 -->
<g id="edge4" class="edge">
<title>Node1&#45;&gt;Node5</title>
<path fill="none" stroke="#63b8ff" d="M189.12,-164.95C197.15,-155.92 206.59,-145.33 214.23,-136.75"/>
<polygon fill="#63b8ff" stroke="#63b8ff" points="216.86,-139.06 220.9,-129.26 211.64,-134.4 216.86,-139.06"/>
</g>
<!-- Node6 -->
<g id="node6" class="node">
<title>Node6</title>
<g id="a_node6"><a xlink:title=" ">
<polygon fill="#e0e0e0" stroke="#999999" points="374.7,-129 306.7,-129 306.7,-110 374.7,-110 374.7,-129"/>
<text text-anchor="middle" x="340.7" y="-117" font-family="Helvetica,sans-Serif" font-size="10.00">WebSerial.h</text>
</a>
</g>
</g>
<!-- Node1&#45;&gt;Node6 -->
<g id="edge5" class="edge">
<title>Node1&#45;&gt;Node6</title>
<path fill="none" stroke="#63b8ff" d="M223.33,-164.95C251.14,-154.42 284.58,-141.75 308.64,-132.64"/>
<polygon fill="#63b8ff" stroke="#63b8ff" points="309.9,-135.91 318.02,-129.09 307.42,-129.36 309.9,-135.91"/>
</g>
<!-- Node7 -->
<g id="node7" class="node">
<title>Node7</title>
<g id="a_node7"><a xlink:href="../../df/dec/_input_handler_8h.html" target="_top" xlink:title="InputHandler library header file.">
<polygon fill="white" stroke="#666666" points="472.7,-129 392.7,-129 392.7,-110 472.7,-110 472.7,-129"/>
<text text-anchor="middle" x="432.7" y="-117" font-family="Helvetica,sans-Serif" font-size="10.00">InputHandler.h</text>
</a>
</g>
</g>
<!-- Node1&#45;&gt;Node7 -->
<g id="edge6" class="edge">
<title>Node1&#45;&gt;Node7</title>
<path fill="none" stroke="#63b8ff" d="M251.43,-164.95C296.24,-153.96 350.51,-140.65 387.92,-131.48"/>
<polygon fill="#63b8ff" stroke="#63b8ff" points="389.13,-134.79 398.01,-129.01 387.46,-127.99 389.13,-134.79"/>
</g>
<!-- Node8 -->
<g id="node8" class="node">
<title>Node8</title>
<g id="a_node8"><a xlink:href="../../da/dc7/noedit_8h.html" target="_top" xlink:title="InputHandler library C includes, do not edit.">
<polygon fill="white" stroke="#666666" points="379.2,-74 300.2,-74 300.2,-55 379.2,-55 379.2,-74"/>
<text text-anchor="middle" x="339.7" y="-62" font-family="Helvetica,sans-Serif" font-size="10.00">config/noedit.h</text>
</a>
</g>
</g>
<!-- Node7&#45;&gt;Node8 -->
<g id="edge7" class="edge">
<title>Node7&#45;&gt;Node8</title>
<path fill="none" stroke="#63b8ff" d="M417.76,-109.98C403.21,-101.69 380.84,-88.94 363.77,-79.22"/>
<polygon fill="#63b8ff" stroke="#63b8ff" points="365.34,-76.08 354.92,-74.17 361.87,-82.16 365.34,-76.08"/>
</g>
<!-- Node8&#45;&gt;Node2 -->
<g id="edge8" class="edge">
<title>Node8&#45;&gt;Node2</title>
<path fill="none" stroke="#63b8ff" d="M313.19,-54.98C285.49,-46.09 241.84,-32.07 210.96,-22.15"/>
<polygon fill="#63b8ff" stroke="#63b8ff" points="212.01,-18.81 201.42,-19.08 209.87,-25.47 212.01,-18.81"/>
</g>
<!-- Node9 -->
<g id="node9" class="node">
<title>Node9</title>
<g id="a_node9"><a xlink:href="../../db/d16/config_8h.html" target="_top" xlink:title="InputHandler library user configurable items.">
<polygon fill="white" stroke="#666666" points="364.7,-19 314.7,-19 314.7,0 364.7,0 364.7,-19"/>
<text text-anchor="middle" x="339.7" y="-7" font-family="Helvetica,sans-Serif" font-size="10.00">config.h</text>
</a>
</g>
</g>
<!-- Node8&#45;&gt;Node9 -->
<g id="edge9" class="edge">
<title>Node8&#45;&gt;Node9</title>
<path fill="none" stroke="#63b8ff" d="M339.7,-54.75C339.7,-47.8 339.7,-37.85 339.7,-29.13"/>
<polygon fill="#63b8ff" stroke="#63b8ff" points="343.2,-29.09 339.7,-19.09 336.2,-29.09 343.2,-29.09"/>
</g>
</g>
</svg>
