<?xml version="1.0" encoding="UTF-8" standalone="no"?>
<!DOCTYPE svg PUBLIC "-//W3C//DTD SVG 1.1//EN"
 "http://www.w3.org/Graphics/SVG/1.1/DTD/svg11.dtd">
<!-- Generated by graphviz version 6.0.1 (20220911.1526)
 -->
<!-- Title: examples/all_platforms/basic/LoRa/LoRaReceiver/LoRaReceiver.ino Pages: 1 -->
<svg width="234pt" height="214pt"
 viewBox="0.00 0.00 233.50 214.00" xmlns="http://www.w3.org/2000/svg" xmlns:xlink="http://www.w3.org/1999/xlink">
<g id="graph0" class="graph" transform="scale(1 1) rotate(0) translate(4 210)">
<title>examples/all_platforms/basic/LoRa/LoRaReceiver/LoRaReceiver.ino</title>
<!-- Node1 -->
<g id="node1" class="node">
<title>Node1</title>
<g id="a_node1"><a xlink:title=" ">
<polygon fill="#999999" stroke="#666666" points="149.5,-206 15.5,-206 15.5,-165 149.5,-165 149.5,-206"/>
<text text-anchor="start" x="23.5" y="-194" font-family="Helvetica,sans-Serif" font-size="10.00">examples/all_platforms</text>
<text text-anchor="start" x="23.5" y="-183" font-family="Helvetica,sans-Serif" font-size="10.00">/basic/LoRa/LoRaReceiver</text>
<text text-anchor="middle" x="82.5" y="-172" font-family="Helvetica,sans-Serif" font-size="10.00">/LoRaReceiver.ino</text>
</a>
</g>
</g>
<!-- Node2 -->
<g id="node2" class="node">
<title>Node2</title>
<g id="a_node2"><a xlink:title=" ">
<polygon fill="#e0e0e0" stroke="#999999" points="41,-129 0,-129 0,-110 41,-110 41,-129"/>
<text text-anchor="middle" x="20.5" y="-117" font-family="Helvetica,sans-Serif" font-size="10.00">SPI.h</text>
</a>
</g>
</g>
<!-- Node1&#45;&gt;Node2 -->
<g id="edge1" class="edge">
<title>Node1&#45;&gt;Node2</title>
<path fill="none" stroke="#63b8ff" d="M63.56,-164.95C54.73,-155.83 44.35,-145.11 35.99,-136.49"/>
<polygon fill="#63b8ff" stroke="#63b8ff" points="38.46,-134.01 28.99,-129.26 33.43,-138.88 38.46,-134.01"/>
</g>
<!-- Node3 -->
<g id="node3" class="node">
<title>Node3</title>
<g id="a_node3"><a xlink:title=" ">
<polygon fill="#e0e0e0" stroke="#999999" points="106,-129 59,-129 59,-110 106,-110 106,-129"/>
<text text-anchor="middle" x="82.5" y="-117" font-family="Helvetica,sans-Serif" font-size="10.00">LoRa.h</text>
</a>
</g>
</g>
<!-- Node1&#45;&gt;Node3 -->
<g id="edge2" class="edge">
<title>Node1&#45;&gt;Node3</title>
<path fill="none" stroke="#63b8ff" d="M82.5,-164.95C82.5,-156.85 82.5,-147.5 82.5,-139.47"/>
<polygon fill="#63b8ff" stroke="#63b8ff" points="86,-139.26 82.5,-129.26 79,-139.26 86,-139.26"/>
</g>
<!-- Node4 -->
<g id="node4" class="node">
<title>Node4</title>
<g id="a_node4"><a xlink:href="../../df/dec/_input_handler_8h.html" target="_top" xlink:title="InputHandler library header file.">
<polygon fill="white" stroke="#666666" points="204.5,-129 124.5,-129 124.5,-110 204.5,-110 204.5,-129"/>
<text text-anchor="middle" x="164.5" y="-117" font-family="Helvetica,sans-Serif" font-size="10.00">InputHandler.h</text>
</a>
</g>
</g>
<!-- Node1&#45;&gt;Node4 -->
<g id="edge3" class="edge">
<title>Node1&#45;&gt;Node4</title>
<path fill="none" stroke="#63b8ff" d="M107.55,-164.95C119.71,-155.46 134.09,-144.24 145.35,-135.44"/>
<polygon fill="#63b8ff" stroke="#63b8ff" points="147.55,-138.17 153.28,-129.26 143.24,-132.65 147.55,-138.17"/>
</g>
<!-- Node5 -->
<g id="node5" class="node">
<title>Node5</title>
<g id="a_node5"><a xlink:href="../../da/dc7/noedit_8h.html" target="_top" xlink:title="InputHandler library C includes, do not edit.">
<polygon fill="white" stroke="#666666" points="204,-74 125,-74 125,-55 204,-55 204,-74"/>
<text text-anchor="middle" x="164.5" y="-62" font-family="Helvetica,sans-Serif" font-size="10.00">config/noedit.h</text>
</a>
</g>
</g>
<!-- Node4&#45;&gt;Node5 -->
<g id="edge4" class="edge">
<title>Node4&#45;&gt;Node5</title>
<path fill="none" stroke="#63b8ff" d="M164.5,-109.75C164.5,-102.8 164.5,-92.85 164.5,-84.13"/>
<polygon fill="#63b8ff" stroke="#63b8ff" points="168,-84.09 164.5,-74.09 161,-84.09 168,-84.09"/>
</g>
<!-- Node6 -->
<g id="node6" class="node">
<title>Node6</title>
<g id="a_node6"><a xlink:title=" ">
<polygon fill="#e0e0e0" stroke="#999999" points="157,-19 100,-19 100,0 157,0 157,-19"/>
<text text-anchor="middle" x="128.5" y="-7" font-family="Helvetica,sans-Serif" font-size="10.00">Arduino.h</text>
</a>
</g>
</g>
<!-- Node5&#45;&gt;Node6 -->
<g id="edge5" class="edge">
<title>Node5&#45;&gt;Node6</title>
<path fill="none" stroke="#63b8ff" d="M158.56,-54.75C153.52,-47.34 146.16,-36.5 139.99,-27.41"/>
<polygon fill="#63b8ff" stroke="#63b8ff" points="142.85,-25.39 134.33,-19.09 137.06,-29.33 142.85,-25.39"/>
</g>
<!-- Node7 -->
<g id="node7" class="node">
<title>Node7</title>
<g id="a_node7"><a xlink:href="../../db/d16/config_8h.html" target="_top" xlink:title="InputHandler library user configurable items.">
<polygon fill="white" stroke="#666666" points="225.5,-19 175.5,-19 175.5,0 225.5,0 225.5,-19"/>
<text text-anchor="middle" x="200.5" y="-7" font-family="Helvetica,sans-Serif" font-size="10.00">config.h</text>
</a>
</g>
</g>
<!-- Node5&#45;&gt;Node7 -->
<g id="edge6" class="edge">
<title>Node5&#45;&gt;Node7</title>
<path fill="none" stroke="#63b8ff" d="M170.44,-54.75C175.48,-47.34 182.84,-36.5 189.01,-27.41"/>
<polygon fill="#63b8ff" stroke="#63b8ff" points="191.94,-29.33 194.67,-19.09 186.15,-25.39 191.94,-29.33"/>
</g>
</g>
</svg>
