<?xml version="1.0" encoding="UTF-8" standalone="no"?>
<!DOCTYPE svg PUBLIC "-//W3C//DTD SVG 1.1//EN"
 "http://www.w3.org/Graphics/SVG/1.1/DTD/svg11.dtd">
<!-- Generated by graphviz version 3.0.0 (20220413.0106)
 -->
<!-- Title: examples/all_platforms/basic/RF24/RF24.ino Pages: 1 -->
<svg width="288pt" height="218pt"
 viewBox="0.00 0.00 288.00 218.00" xmlns="http://www.w3.org/2000/svg" xmlns:xlink="http://www.w3.org/1999/xlink">
<g id="graph0" class="graph" transform="scale(1 1) rotate(0) translate(4 214)">
<title>examples/all_platforms/basic/RF24/RF24.ino</title>
<!-- Node1 -->
<g id="node1" class="node">
<title>Node1</title>
<g id="a_node1"><a xlink:title=" ">
<polygon fill="#bfbfbf" stroke="black" points="56.5,-179.5 56.5,-209.5 172.5,-209.5 172.5,-179.5 56.5,-179.5"/>
<text text-anchor="start" x="64.5" y="-197.5" font-family="Helvetica,sans-Serif" font-size="10.00">examples/all_platforms</text>
<text text-anchor="middle" x="114.5" y="-186.5" font-family="Helvetica,sans-Serif" font-size="10.00">/basic/RF24/RF24.ino</text>
</a>
</g>
</g>
<!-- Node2 -->
<g id="node2" class="node">
<title>Node2</title>
<g id="a_node2"><a xlink:title=" ">
<polygon fill="none" stroke="#bfbfbf" points="0,-123.5 0,-142.5 41,-142.5 41,-123.5 0,-123.5"/>
<text text-anchor="middle" x="20.5" y="-130.5" font-family="Helvetica,sans-Serif" font-size="10.00">SPI.h</text>
</a>
</g>
</g>
<!-- Node1&#45;&gt;Node2 -->
<g id="edge1" class="edge">
<title>Node1&#45;&gt;Node2</title>
<path fill="none" stroke="midnightblue" d="M92.22,-179.4C77.3,-169.95 57.72,-157.56 42.79,-148.11"/>
<polygon fill="midnightblue" stroke="midnightblue" points="44.5,-145.05 34.18,-142.66 40.76,-150.96 44.5,-145.05"/>
</g>
<!-- Node3 -->
<g id="node3" class="node">
<title>Node3</title>
<g id="a_node3"><a xlink:title=" ">
<polygon fill="none" stroke="#bfbfbf" points="59.5,-123.5 59.5,-142.5 105.5,-142.5 105.5,-123.5 59.5,-123.5"/>
<text text-anchor="middle" x="82.5" y="-130.5" font-family="Helvetica,sans-Serif" font-size="10.00">printf.h</text>
</a>
</g>
</g>
<!-- Node1&#45;&gt;Node3 -->
<g id="edge2" class="edge">
<title>Node1&#45;&gt;Node3</title>
<path fill="none" stroke="midnightblue" d="M106.92,-179.4C102.46,-171.11 96.78,-160.55 92.02,-151.71"/>
<polygon fill="midnightblue" stroke="midnightblue" points="94.98,-149.81 87.16,-142.66 88.81,-153.12 94.98,-149.81"/>
</g>
<!-- Node4 -->
<g id="node4" class="node">
<title>Node4</title>
<g id="a_node4"><a xlink:title=" ">
<polygon fill="none" stroke="#bfbfbf" points="124,-123.5 124,-142.5 171,-142.5 171,-123.5 124,-123.5"/>
<text text-anchor="middle" x="147.5" y="-130.5" font-family="Helvetica,sans-Serif" font-size="10.00">RF24.h</text>
</a>
</g>
</g>
<!-- Node1&#45;&gt;Node4 -->
<g id="edge3" class="edge">
<title>Node1&#45;&gt;Node4</title>
<path fill="none" stroke="midnightblue" d="M122.32,-179.4C126.97,-171.02 132.9,-160.33 137.84,-151.42"/>
<polygon fill="midnightblue" stroke="midnightblue" points="140.91,-153.1 142.7,-142.66 134.79,-149.71 140.91,-153.1"/>
</g>
<!-- Node5 -->
<g id="node5" class="node">
<title>Node5</title>
<g id="a_node5"><a xlink:href="../../df/dec/_input_handler_8h.html" target="_top" xlink:title="InputHandler library header file.">
<polygon fill="none" stroke="black" points="189.5,-123.5 189.5,-142.5 269.5,-142.5 269.5,-123.5 189.5,-123.5"/>
<text text-anchor="middle" x="229.5" y="-130.5" font-family="Helvetica,sans-Serif" font-size="10.00">InputHandler.h</text>
</a>
</g>
</g>
<!-- Node1&#45;&gt;Node5 -->
<g id="edge4" class="edge">
<title>Node1&#45;&gt;Node5</title>
<path fill="none" stroke="midnightblue" d="M141.75,-179.4C160.53,-169.68 185.33,-156.86 203.77,-147.31"/>
<polygon fill="midnightblue" stroke="midnightblue" points="205.49,-150.36 212.77,-142.66 202.28,-144.14 205.49,-150.36"/>
</g>
<!-- Node6 -->
<g id="node6" class="node">
<title>Node6</title>
<g id="a_node6"><a xlink:href="../../dd/d4e/_input_handler__config_8h.html" target="_top" xlink:title="InputHandler library configuration file.">
<polygon fill="none" stroke="black" points="179,-56.5 179,-86.5 280,-86.5 280,-56.5 179,-56.5"/>
<text text-anchor="start" x="187" y="-74.5" font-family="Helvetica,sans-Serif" font-size="10.00">config/InputHandler</text>
<text text-anchor="middle" x="229.5" y="-63.5" font-family="Helvetica,sans-Serif" font-size="10.00">_config.h</text>
</a>
</g>
</g>
<!-- Node5&#45;&gt;Node6 -->
<g id="edge5" class="edge">
<title>Node5&#45;&gt;Node6</title>
<path fill="none" stroke="midnightblue" d="M229.5,-123.48C229.5,-116.47 229.5,-106.19 229.5,-96.7"/>
<polygon fill="midnightblue" stroke="midnightblue" points="233,-96.52 229.5,-86.52 226,-96.52 233,-96.52"/>
</g>
<!-- Node7 -->
<g id="node7" class="node">
<title>Node7</title>
<g id="a_node7"><a xlink:title=" ">
<polygon fill="none" stroke="#bfbfbf" points="201,-0.5 201,-19.5 258,-19.5 258,-0.5 201,-0.5"/>
<text text-anchor="middle" x="229.5" y="-7.5" font-family="Helvetica,sans-Serif" font-size="10.00">Arduino.h</text>
</a>
</g>
</g>
<!-- Node6&#45;&gt;Node7 -->
<g id="edge6" class="edge">
<title>Node6&#45;&gt;Node7</title>
<path fill="none" stroke="midnightblue" d="M229.5,-56.4C229.5,-48.47 229.5,-38.46 229.5,-29.86"/>
<polygon fill="midnightblue" stroke="midnightblue" points="233,-29.66 229.5,-19.66 226,-29.66 233,-29.66"/>
</g>
</g>
</svg>
