<?xml version="1.0" encoding="UTF-8" standalone="no"?>
<!DOCTYPE svg PUBLIC "-//W3C//DTD SVG 1.1//EN"
 "http://www.w3.org/Graphics/SVG/1.1/DTD/svg11.dtd">
<!-- Generated by graphviz version 3.0.0 (20220413.0106)
 -->
<!-- Title: examples/all_platforms/basic/RF24/RF24.ino Pages: 1 -->
<svg width="420pt" height="207pt"
 viewBox="0.00 0.00 420.00 207.00" xmlns="http://www.w3.org/2000/svg" xmlns:xlink="http://www.w3.org/1999/xlink">
<g id="graph0" class="graph" transform="scale(1 1) rotate(0) translate(4 203)">
<title>examples/all_platforms/basic/RF24/RF24.ino</title>
<!-- Node1 -->
<g id="node1" class="node">
<title>Node1</title>
<g id="a_node1"><a xlink:title=" ">
<polygon fill="#bfbfbf" stroke="black" points="56.5,-168.5 56.5,-198.5 172.5,-198.5 172.5,-168.5 56.5,-168.5"/>
<text text-anchor="start" x="64.5" y="-186.5" font-family="Helvetica,sans-Serif" font-size="10.00">examples/all_platforms</text>
<text text-anchor="middle" x="114.5" y="-175.5" font-family="Helvetica,sans-Serif" font-size="10.00">/basic/RF24/RF24.ino</text>
</a>
</g>
</g>
<!-- Node2 -->
<g id="node2" class="node">
<title>Node2</title>
<g id="a_node2"><a xlink:title=" ">
<polygon fill="none" stroke="#bfbfbf" points="0,-112.5 0,-131.5 41,-131.5 41,-112.5 0,-112.5"/>
<text text-anchor="middle" x="20.5" y="-119.5" font-family="Helvetica,sans-Serif" font-size="10.00">SPI.h</text>
</a>
</g>
</g>
<!-- Node1&#45;&gt;Node2 -->
<g id="edge1" class="edge">
<title>Node1&#45;&gt;Node2</title>
<path fill="none" stroke="midnightblue" d="M92.22,-168.4C77.3,-158.95 57.72,-146.56 42.79,-137.11"/>
<polygon fill="midnightblue" stroke="midnightblue" points="44.5,-134.05 34.18,-131.66 40.76,-139.96 44.5,-134.05"/>
</g>
<!-- Node3 -->
<g id="node3" class="node">
<title>Node3</title>
<g id="a_node3"><a xlink:title=" ">
<polygon fill="none" stroke="#bfbfbf" points="59.5,-112.5 59.5,-131.5 105.5,-131.5 105.5,-112.5 59.5,-112.5"/>
<text text-anchor="middle" x="82.5" y="-119.5" font-family="Helvetica,sans-Serif" font-size="10.00">printf.h</text>
</a>
</g>
</g>
<!-- Node1&#45;&gt;Node3 -->
<g id="edge2" class="edge">
<title>Node1&#45;&gt;Node3</title>
<path fill="none" stroke="midnightblue" d="M106.92,-168.4C102.46,-160.11 96.78,-149.55 92.02,-140.71"/>
<polygon fill="midnightblue" stroke="midnightblue" points="94.98,-138.81 87.16,-131.66 88.81,-142.12 94.98,-138.81"/>
</g>
<!-- Node4 -->
<g id="node4" class="node">
<title>Node4</title>
<g id="a_node4"><a xlink:title=" ">
<polygon fill="none" stroke="#bfbfbf" points="124,-112.5 124,-131.5 171,-131.5 171,-112.5 124,-112.5"/>
<text text-anchor="middle" x="147.5" y="-119.5" font-family="Helvetica,sans-Serif" font-size="10.00">RF24.h</text>
</a>
</g>
</g>
<!-- Node1&#45;&gt;Node4 -->
<g id="edge3" class="edge">
<title>Node1&#45;&gt;Node4</title>
<path fill="none" stroke="midnightblue" d="M122.32,-168.4C126.97,-160.02 132.9,-149.33 137.84,-140.42"/>
<polygon fill="midnightblue" stroke="midnightblue" points="140.91,-142.1 142.7,-131.66 134.79,-138.71 140.91,-142.1"/>
</g>
<!-- Node5 -->
<g id="node5" class="node">
<title>Node5</title>
<g id="a_node5"><a xlink:href="../../df/dec/_input_handler_8h.html" target="_top" xlink:title="InputHandler library header file.">
<polygon fill="none" stroke="black" points="189.5,-112.5 189.5,-131.5 269.5,-131.5 269.5,-112.5 189.5,-112.5"/>
<text text-anchor="middle" x="229.5" y="-119.5" font-family="Helvetica,sans-Serif" font-size="10.00">InputHandler.h</text>
</a>
</g>
</g>
<!-- Node1&#45;&gt;Node5 -->
<g id="edge4" class="edge">
<title>Node1&#45;&gt;Node5</title>
<path fill="none" stroke="midnightblue" d="M141.75,-168.4C160.53,-158.68 185.33,-145.86 203.77,-136.31"/>
<polygon fill="midnightblue" stroke="midnightblue" points="205.49,-139.36 212.77,-131.66 202.28,-133.14 205.49,-139.36"/>
</g>
<!-- Node6 -->
<g id="node6" class="node">
<title>Node6</title>
<g id="a_node6"><a xlink:href="../../da/dc7/noedit_8h.html" target="_top" xlink:title="InputHandler library C includes.">
<polygon fill="none" stroke="black" points="190,-56.5 190,-75.5 269,-75.5 269,-56.5 190,-56.5"/>
<text text-anchor="middle" x="229.5" y="-63.5" font-family="Helvetica,sans-Serif" font-size="10.00">config/noedit.h</text>
</a>
</g>
</g>
<!-- Node5&#45;&gt;Node6 -->
<g id="edge5" class="edge">
<title>Node5&#45;&gt;Node6</title>
<path fill="none" stroke="midnightblue" d="M229.5,-112.08C229.5,-105.01 229.5,-94.86 229.5,-85.99"/>
<polygon fill="midnightblue" stroke="midnightblue" points="233,-85.75 229.5,-75.75 226,-85.75 233,-85.75"/>
</g>
<!-- Node7 -->
<g id="node7" class="node">
<title>Node7</title>
<g id="a_node7"><a xlink:title=" ">
<polygon fill="none" stroke="#bfbfbf" points="115,-0.5 115,-19.5 172,-19.5 172,-0.5 115,-0.5"/>
<text text-anchor="middle" x="143.5" y="-7.5" font-family="Helvetica,sans-Serif" font-size="10.00">Arduino.h</text>
</a>
</g>
</g>
<!-- Node6&#45;&gt;Node7 -->
<g id="edge6" class="edge">
<title>Node6&#45;&gt;Node7</title>
<path fill="none" stroke="midnightblue" d="M215.68,-56.32C202.27,-47.9 181.68,-34.97 165.91,-25.07"/>
<polygon fill="midnightblue" stroke="midnightblue" points="167.61,-22.01 157.28,-19.65 163.89,-27.94 167.61,-22.01"/>
</g>
<!-- Node8 -->
<g id="node8" class="node">
<title>Node8</title>
<g id="a_node8"><a xlink:href="../../db/d16/config_8h.html" target="_top" xlink:title="InputHandler library user configurable items.">
<polygon fill="none" stroke="black" points="190.5,-0.5 190.5,-19.5 268.5,-19.5 268.5,-0.5 190.5,-0.5"/>
<text text-anchor="middle" x="229.5" y="-7.5" font-family="Helvetica,sans-Serif" font-size="10.00">config/config.h</text>
</a>
</g>
</g>
<!-- Node6&#45;&gt;Node8 -->
<g id="edge7" class="edge">
<title>Node6&#45;&gt;Node8</title>
<path fill="none" stroke="midnightblue" d="M229.5,-56.08C229.5,-49.01 229.5,-38.86 229.5,-29.99"/>
<polygon fill="midnightblue" stroke="midnightblue" points="233,-29.75 229.5,-19.75 226,-29.75 233,-29.75"/>
</g>
<!-- Node9 -->
<g id="node9" class="node">
<title>Node9</title>
<g id="a_node9"><a xlink:href="../../d5/d4a/advanced__config_8h.html" target="_top" xlink:title="InputHandler library advanced user settings.">
<polygon fill="none" stroke="black" points="287,-0.5 287,-19.5 412,-19.5 412,-0.5 287,-0.5"/>
<text text-anchor="middle" x="349.5" y="-7.5" font-family="Helvetica,sans-Serif" font-size="10.00">config/advanced_config.h</text>
</a>
</g>
</g>
<!-- Node6&#45;&gt;Node9 -->
<g id="edge8" class="edge">
<title>Node6&#45;&gt;Node9</title>
<path fill="none" stroke="midnightblue" d="M248.51,-56.44C268.09,-47.64 298.81,-33.81 321.23,-23.72"/>
<polygon fill="midnightblue" stroke="midnightblue" points="322.89,-26.81 330.57,-19.52 320.02,-20.43 322.89,-26.81"/>
</g>
</g>
</svg>
