<?xml version="1.0" encoding="UTF-8" standalone="no"?>
<!DOCTYPE svg PUBLIC "-//W3C//DTD SVG 1.1//EN"
 "http://www.w3.org/Graphics/SVG/1.1/DTD/svg11.dtd">
<!-- Generated by graphviz version 3.0.0 (20220413.0106)
 -->
<!-- Title: examples/all_platforms/basic/RF24/RF24.ino Pages: 1 -->
<svg width="521pt" height="229pt"
 viewBox="0.00 0.00 520.50 229.00" xmlns="http://www.w3.org/2000/svg" xmlns:xlink="http://www.w3.org/1999/xlink">
<g id="graph0" class="graph" transform="scale(1 1) rotate(0) translate(4 225)">
<title>examples/all_platforms/basic/RF24/RF24.ino</title>
<!-- Node1 -->
<g id="node1" class="node">
<title>Node1</title>
<g id="a_node1"><a xlink:title=" ">
<polygon fill="#bfbfbf" stroke="black" points="56.5,-190.5 56.5,-220.5 172.5,-220.5 172.5,-190.5 56.5,-190.5"/>
<text text-anchor="start" x="64.5" y="-208.5" font-family="Helvetica,sans-Serif" font-size="10.00">examples/all_platforms</text>
<text text-anchor="middle" x="114.5" y="-197.5" font-family="Helvetica,sans-Serif" font-size="10.00">/basic/RF24/RF24.ino</text>
</a>
</g>
</g>
<!-- Node2 -->
<g id="node2" class="node">
<title>Node2</title>
<g id="a_node2"><a xlink:title=" ">
<polygon fill="none" stroke="#bfbfbf" points="0,-134.5 0,-153.5 41,-153.5 41,-134.5 0,-134.5"/>
<text text-anchor="middle" x="20.5" y="-141.5" font-family="Helvetica,sans-Serif" font-size="10.00">SPI.h</text>
</a>
</g>
</g>
<!-- Node1&#45;&gt;Node2 -->
<g id="edge1" class="edge">
<title>Node1&#45;&gt;Node2</title>
<path fill="none" stroke="midnightblue" d="M92.22,-190.4C77.3,-180.95 57.72,-168.56 42.79,-159.11"/>
<polygon fill="midnightblue" stroke="midnightblue" points="44.5,-156.05 34.18,-153.66 40.76,-161.96 44.5,-156.05"/>
</g>
<!-- Node3 -->
<g id="node3" class="node">
<title>Node3</title>
<g id="a_node3"><a xlink:title=" ">
<polygon fill="none" stroke="#bfbfbf" points="59.5,-134.5 59.5,-153.5 105.5,-153.5 105.5,-134.5 59.5,-134.5"/>
<text text-anchor="middle" x="82.5" y="-141.5" font-family="Helvetica,sans-Serif" font-size="10.00">printf.h</text>
</a>
</g>
</g>
<!-- Node1&#45;&gt;Node3 -->
<g id="edge2" class="edge">
<title>Node1&#45;&gt;Node3</title>
<path fill="none" stroke="midnightblue" d="M106.92,-190.4C102.46,-182.11 96.78,-171.55 92.02,-162.71"/>
<polygon fill="midnightblue" stroke="midnightblue" points="94.98,-160.81 87.16,-153.66 88.81,-164.12 94.98,-160.81"/>
</g>
<!-- Node4 -->
<g id="node4" class="node">
<title>Node4</title>
<g id="a_node4"><a xlink:title=" ">
<polygon fill="none" stroke="#bfbfbf" points="124,-134.5 124,-153.5 171,-153.5 171,-134.5 124,-134.5"/>
<text text-anchor="middle" x="147.5" y="-141.5" font-family="Helvetica,sans-Serif" font-size="10.00">RF24.h</text>
</a>
</g>
</g>
<!-- Node1&#45;&gt;Node4 -->
<g id="edge3" class="edge">
<title>Node1&#45;&gt;Node4</title>
<path fill="none" stroke="midnightblue" d="M122.32,-190.4C126.97,-182.02 132.9,-171.33 137.84,-162.42"/>
<polygon fill="midnightblue" stroke="midnightblue" points="140.91,-164.1 142.7,-153.66 134.79,-160.71 140.91,-164.1"/>
</g>
<!-- Node5 -->
<g id="node5" class="node">
<title>Node5</title>
<g id="a_node5"><a xlink:href="../../df/dec/_input_handler_8h.html" target="_top" xlink:title="InputHandler library header file.">
<polygon fill="none" stroke="black" points="189.5,-134.5 189.5,-153.5 269.5,-153.5 269.5,-134.5 189.5,-134.5"/>
<text text-anchor="middle" x="229.5" y="-141.5" font-family="Helvetica,sans-Serif" font-size="10.00">InputHandler.h</text>
</a>
</g>
</g>
<!-- Node1&#45;&gt;Node5 -->
<g id="edge4" class="edge">
<title>Node1&#45;&gt;Node5</title>
<path fill="none" stroke="midnightblue" d="M141.75,-190.4C160.53,-180.68 185.33,-167.86 203.77,-158.31"/>
<polygon fill="midnightblue" stroke="midnightblue" points="205.49,-161.36 212.77,-153.66 202.28,-155.14 205.49,-161.36"/>
</g>
<!-- Node6 -->
<g id="node6" class="node">
<title>Node6</title>
<g id="a_node6"><a xlink:href="../../dd/d4e/_input_handler__config_8h.html" target="_top" xlink:title="InputHandler library configuration file.">
<polygon fill="none" stroke="black" points="179,-67.5 179,-97.5 280,-97.5 280,-67.5 179,-67.5"/>
<text text-anchor="start" x="187" y="-85.5" font-family="Helvetica,sans-Serif" font-size="10.00">config/InputHandler</text>
<text text-anchor="middle" x="229.5" y="-74.5" font-family="Helvetica,sans-Serif" font-size="10.00">_config.h</text>
</a>
</g>
</g>
<!-- Node5&#45;&gt;Node6 -->
<g id="edge5" class="edge">
<title>Node5&#45;&gt;Node6</title>
<path fill="none" stroke="midnightblue" d="M229.5,-134.48C229.5,-127.47 229.5,-117.19 229.5,-107.7"/>
<polygon fill="midnightblue" stroke="midnightblue" points="233,-107.52 229.5,-97.52 226,-107.52 233,-107.52"/>
</g>
<!-- Node7 -->
<g id="node7" class="node">
<title>Node7</title>
<g id="a_node7"><a xlink:title=" ">
<polygon fill="none" stroke="#bfbfbf" points="19,-6 19,-25 76,-25 76,-6 19,-6"/>
<text text-anchor="middle" x="47.5" y="-13" font-family="Helvetica,sans-Serif" font-size="10.00">Arduino.h</text>
</a>
</g>
</g>
<!-- Node6&#45;&gt;Node7 -->
<g id="edge6" class="edge">
<title>Node6&#45;&gt;Node7</title>
<path fill="none" stroke="midnightblue" d="M188.43,-67.43C159.56,-57.46 120.08,-43.66 85.5,-31 83.4,-30.23 81.24,-29.43 79.06,-28.62"/>
<polygon fill="midnightblue" stroke="midnightblue" points="80.16,-25.29 69.57,-25.04 77.69,-31.84 80.16,-25.29"/>
</g>
<!-- Node8 -->
<g id="node8" class="node">
<title>Node8</title>
<g id="a_node8"><a xlink:href="../../d3/dcd/_input_handler__portability_8h.html" target="_top" xlink:title=" ">
<polygon fill="none" stroke="black" points="94.5,-6 94.5,-25 220.5,-25 220.5,-6 94.5,-6"/>
<text text-anchor="middle" x="157.5" y="-13" font-family="Helvetica,sans-Serif" font-size="10.00">InputHandler_portability.h</text>
</a>
</g>
</g>
<!-- Node6&#45;&gt;Node8 -->
<g id="edge7" class="edge">
<title>Node6&#45;&gt;Node8</title>
<path fill="none" stroke="midnightblue" d="M213.88,-67.4C202.32,-56.96 186.58,-42.75 174.67,-32"/>
<polygon fill="midnightblue" stroke="midnightblue" points="176.9,-29.3 167.13,-25.19 172.21,-34.49 176.9,-29.3"/>
</g>
<!-- Node9 -->
<g id="node9" class="node">
<title>Node9</title>
<g id="a_node9"><a xlink:href="../../d1/d39/_input_handler__functionlike__macros_8h.html" target="_top" xlink:title=" ">
<polygon fill="none" stroke="black" points="239,-0.5 239,-30.5 366,-30.5 366,-0.5 239,-0.5"/>
<text text-anchor="start" x="247" y="-18.5" font-family="Helvetica,sans-Serif" font-size="10.00">InputHandler_functionlike</text>
<text text-anchor="middle" x="302.5" y="-7.5" font-family="Helvetica,sans-Serif" font-size="10.00">_macros.h</text>
</a>
</g>
</g>
<!-- Node6&#45;&gt;Node9 -->
<g id="edge8" class="edge">
<title>Node6&#45;&gt;Node9</title>
<path fill="none" stroke="midnightblue" d="M245.34,-67.4C255.19,-58.62 268.04,-47.18 279.06,-37.37"/>
<polygon fill="midnightblue" stroke="midnightblue" points="281.55,-39.84 286.69,-30.58 276.9,-34.61 281.55,-39.84"/>
</g>
<!-- Node10 -->
<g id="node10" class="node">
<title>Node10</title>
<g id="a_node10"><a xlink:href="../../df/d25/_input_handler___p_r_o_g_m_e_m__settings_8h.html" target="_top" xlink:title=" ">
<polygon fill="none" stroke="black" points="384.5,-0.5 384.5,-30.5 512.5,-30.5 512.5,-0.5 384.5,-0.5"/>
<text text-anchor="start" x="392.5" y="-18.5" font-family="Helvetica,sans-Serif" font-size="10.00">InputHandler_PROGMEM</text>
<text text-anchor="middle" x="448.5" y="-7.5" font-family="Helvetica,sans-Serif" font-size="10.00">_settings.h</text>
</a>
</g>
</g>
<!-- Node6&#45;&gt;Node10 -->
<g id="edge9" class="edge">
<title>Node6&#45;&gt;Node10</title>
<path fill="none" stroke="midnightblue" d="M276.75,-67.48C310.31,-57.51 355.56,-44.09 391.18,-33.51"/>
<polygon fill="midnightblue" stroke="midnightblue" points="392.37,-36.81 400.96,-30.61 390.37,-30.1 392.37,-36.81"/>
</g>
</g>
</svg>
