<?xml version="1.0" encoding="UTF-8" standalone="no"?>
<!DOCTYPE svg PUBLIC "-//W3C//DTD SVG 1.1//EN"
 "http://www.w3.org/Graphics/SVG/1.1/DTD/svg11.dtd">
<!-- Generated by graphviz version 3.0.0 (20220413.0106)
 -->
<!-- Title: UserInput Pages: 1 -->
<svg width="563pt" height="156pt"
 viewBox="0.00 0.00 563.00 156.00" xmlns="http://www.w3.org/2000/svg" xmlns:xlink="http://www.w3.org/1999/xlink">
<g id="graph0" class="graph" transform="scale(1 1) rotate(0) translate(4 152)">
<title>UserInput</title>
<!-- Node1 -->
<g id="node1" class="node">
<title>Node1</title>
<g id="a_node1"><a xlink:title="User input handler methods.">
<polygon fill="#bfbfbf" stroke="black" points="496,-63.5 496,-82.5 555,-82.5 555,-63.5 496,-63.5"/>
<text text-anchor="middle" x="525.5" y="-70.5" font-family="Helvetica,sans-Serif" font-size="10.00">UserInput</text>
</a>
</g>
</g>
<!-- Node2 -->
<g id="node2" class="node">
<title>Node2</title>
<g id="a_node2"><a xlink:href="../../db/dda/struct_input_process_parameters.html" target="_top" xlink:title="UserInput input process parameters, constructor parameters This struct is an array of pointers to oth...">
<polygon fill="none" stroke="black" points="247,-97.5 247,-116.5 372,-116.5 372,-97.5 247,-97.5"/>
<text text-anchor="middle" x="309.5" y="-104.5" font-family="Helvetica,sans-Serif" font-size="10.00">InputProcessParameters</text>
</a>
</g>
</g>
<!-- Node2&#45;&gt;Node1 -->
<g id="edge1" class="edge">
<title>Node2&#45;&gt;Node1</title>
<path fill="none" stroke="#9a32cd" stroke-dasharray="5,2" d="M380.46,-95.88C419.74,-89.64 466.61,-82.2 495.97,-77.53"/>
<polygon fill="#9a32cd" stroke="#9a32cd" points="379.72,-92.46 370.4,-97.48 380.82,-99.37 379.72,-92.46"/>
<text text-anchor="middle" x="434" y="-108" font-family="Helvetica,sans-Serif" font-size="10.00"> _input_prm_</text>
<text text-anchor="middle" x="434" y="-97" font-family="Helvetica,sans-Serif" font-size="10.00">_input_prm_ptr_</text>
</g>
<!-- Node3 -->
<g id="node3" class="node">
<title>Node3</title>
<g id="a_node3"><a xlink:href="../../dc/da2/struct_input_process_delimiter_sequences.html" target="_top" xlink:title="InputProcessDelimiterSequences struct holds user defined input data delimiters This struct holds info...">
<polygon fill="none" stroke="black" points="1.5,-128.5 1.5,-147.5 162.5,-147.5 162.5,-128.5 1.5,-128.5"/>
<text text-anchor="middle" x="82" y="-135.5" font-family="Helvetica,sans-Serif" font-size="10.00">InputProcessDelimiterSequences</text>
</a>
</g>
</g>
<!-- Node3&#45;&gt;Node2 -->
<g id="edge2" class="edge">
<title>Node3&#45;&gt;Node2</title>
<path fill="none" stroke="#9a32cd" stroke-dasharray="5,2" d="M162.25,-127.11C189.96,-123.3 220.64,-119.08 246.71,-115.49"/>
<polygon fill="#9a32cd" stroke="#9a32cd" points="161.62,-123.66 152.19,-128.49 162.57,-130.59 161.62,-123.66"/>
<text text-anchor="middle" x="205.5" y="-127" font-family="Helvetica,sans-Serif" font-size="10.00"> pdelimseq</text>
</g>
<!-- Node4 -->
<g id="node4" class="node">
<title>Node4</title>
<g id="a_node4"><a xlink:href="../../d4/dc0/struct_input_process_start_stop_sequences.html" target="_top" xlink:title="InputProcessStartStopSequences struct holds regex&#45;like start&#45;stop match sequence pairs This struct ho...">
<polygon fill="none" stroke="black" points="0,-90.5 0,-109.5 164,-109.5 164,-90.5 0,-90.5"/>
<text text-anchor="middle" x="82" y="-97.5" font-family="Helvetica,sans-Serif" font-size="10.00">InputProcessStartStopSequences</text>
</a>
</g>
</g>
<!-- Node4&#45;&gt;Node2 -->
<g id="edge3" class="edge">
<title>Node4&#45;&gt;Node2</title>
<path fill="none" stroke="#9a32cd" stroke-dasharray="5,2" d="M174.11,-102.83C198.56,-103.59 224.42,-104.39 246.86,-105.09"/>
<polygon fill="#9a32cd" stroke="#9a32cd" points="174.2,-99.33 164.09,-102.52 173.98,-106.33 174.2,-99.33"/>
<text text-anchor="middle" x="205.5" y="-107" font-family="Helvetica,sans-Serif" font-size="10.00"> pststpseq</text>
</g>
<!-- Node5 -->
<g id="node5" class="node">
<title>Node5</title>
<g id="a_node5"><a xlink:href="../../df/d68/class_command_constructor.html" target="_top" xlink:title="user command constructor class">
<polygon fill="none" stroke="black" points="254,-30.5 254,-49.5 365,-49.5 365,-30.5 254,-30.5"/>
<text text-anchor="middle" x="309.5" y="-37.5" font-family="Helvetica,sans-Serif" font-size="10.00">CommandConstructor</text>
</a>
</g>
</g>
<!-- Node5&#45;&gt;Node1 -->
<g id="edge4" class="edge">
<title>Node5&#45;&gt;Node1</title>
<path fill="none" stroke="#9a32cd" stroke-dasharray="5,2" d="M375.64,-43.11C406.87,-45.49 444.66,-49.67 478,-57 485.34,-58.61 493.13,-61.01 500.19,-63.46"/>
<polygon fill="#9a32cd" stroke="#9a32cd" points="375.54,-39.6 365.32,-42.37 375.04,-46.58 375.54,-39.6"/>
<text text-anchor="middle" x="434" y="-71" font-family="Helvetica,sans-Serif" font-size="10.00"> _commands_head_</text>
<text text-anchor="middle" x="434" y="-60" font-family="Helvetica,sans-Serif" font-size="10.00">_commands_tail_</text>
</g>
<!-- Node5&#45;&gt;Node5 -->
<g id="edge7" class="edge">
<title>Node5&#45;&gt;Node5</title>
<path fill="none" stroke="#9a32cd" stroke-dasharray="5,2" d="M290.24,-59.4C291.53,-64.31 297.95,-68 309.5,-68 327.98,-68 333.33,-58.57 325.53,-49.76"/>
<polygon fill="#9a32cd" stroke="#9a32cd" points="293.61,-60.35 293.47,-49.76 286.98,-58.13 293.61,-60.35"/>
<text text-anchor="middle" x="309.5" y="-71" font-family="Helvetica,sans-Serif" font-size="10.00"> next_command</text>
</g>
<!-- Node6 -->
<g id="node6" class="node">
<title>Node6</title>
<g id="a_node6"><a xlink:href="../../db/d11/struct_command_parameters.html" target="_top" xlink:title="CommandParameters struct, this is the container that holds your command parameters.">
<polygon fill="none" stroke="black" points="26.5,-38.5 26.5,-57.5 137.5,-57.5 137.5,-38.5 26.5,-38.5"/>
<text text-anchor="middle" x="82" y="-45.5" font-family="Helvetica,sans-Serif" font-size="10.00">CommandParameters</text>
</a>
</g>
</g>
<!-- Node6&#45;&gt;Node5 -->
<g id="edge5" class="edge">
<title>Node6&#45;&gt;Node5</title>
<path fill="none" stroke="#9a32cd" stroke-dasharray="5,2" d="M147.74,-45.7C181.24,-44.51 221.69,-43.08 253.63,-41.95"/>
<polygon fill="#9a32cd" stroke="#9a32cd" points="147.46,-42.21 137.59,-46.06 147.71,-49.21 147.46,-42.21"/>
<text text-anchor="middle" x="205.5" y="-47" font-family="Helvetica,sans-Serif" font-size="10.00"> prm</text>
</g>
<!-- Node7 -->
<g id="node7" class="node">
<title>Node7</title>
<g id="a_node7"><a xlink:href="../../dc/d3d/struct_command_runtime_calc.html" target="_top" xlink:title="CommandRuntimeCalc struct contains arrays and indices determined at runtime these structs are associa...">
<polygon fill="none" stroke="black" points="24,-0.5 24,-19.5 140,-19.5 140,-0.5 24,-0.5"/>
<text text-anchor="middle" x="82" y="-7.5" font-family="Helvetica,sans-Serif" font-size="10.00">CommandRuntimeCalc</text>
</a>
</g>
</g>
<!-- Node7&#45;&gt;Node5 -->
<g id="edge6" class="edge">
<title>Node7&#45;&gt;Node5</title>
<path fill="none" stroke="#9a32cd" stroke-dasharray="5,2" d="M150.27,-17.91C175.04,-20.92 203.31,-24.48 229,-28 237.02,-29.1 245.49,-30.32 253.79,-31.54"/>
<polygon fill="#9a32cd" stroke="#9a32cd" points="150.6,-14.42 140.25,-16.69 149.76,-21.37 150.6,-14.42"/>
<text text-anchor="middle" x="205.5" y="-31" font-family="Helvetica,sans-Serif" font-size="10.00"> calc</text>
</g>
</g>
</svg>
