<?xml version="1.0" encoding="UTF-8" standalone="no"?>
<!DOCTYPE svg PUBLIC "-//W3C//DTD SVG 1.1//EN"
 "http://www.w3.org/Graphics/SVG/1.1/DTD/svg11.dtd">
<!-- Generated by graphviz version 6.0.1 (20220911.1526)
 -->
<!-- Title: UserInput Pages: 1 -->
<svg width="563pt" height="152pt"
 viewBox="0.00 0.00 563.00 152.00" xmlns="http://www.w3.org/2000/svg" xmlns:xlink="http://www.w3.org/1999/xlink">
<g id="graph0" class="graph" transform="scale(1 1) rotate(0) translate(4 148)">
<title>UserInput</title>
<!-- Node1 -->
<g id="node1" class="node">
<title>Node1</title>
<g id="a_node1"><a xlink:title="User input handler methods.">
<polygon fill="#999999" stroke="#666666" points="555,-80 496,-80 496,-61 555,-61 555,-80"/>
<text text-anchor="middle" x="525.5" y="-68" font-family="Helvetica,sans-Serif" font-size="10.00">UserInput</text>
</a>
</g>
</g>
<!-- Node2 -->
<g id="node2" class="node">
<title>Node2</title>
<g id="a_node2"><a xlink:href="../../db/dda/struct_input_process_parameters.html" target="_top" xlink:title="UserInput input process parameters, constructor parameters This struct is an array of pointers to oth...">
<polygon fill="white" stroke="#666666" points="372,-114 247,-114 247,-95 372,-95 372,-114"/>
<text text-anchor="middle" x="309.5" y="-102" font-family="Helvetica,sans-Serif" font-size="10.00">InputProcessParameters</text>
</a>
</g>
</g>
<!-- Node2&#45;&gt;Node1 -->
<g id="edge1" class="edge">
<title>Node2&#45;&gt;Node1</title>
<path fill="none" stroke="#9a32cd" stroke-dasharray="5,2" d="M380.46,-93.38C419.74,-87.14 466.61,-79.7 495.97,-75.03"/>
<polygon fill="#9a32cd" stroke="#9a32cd" points="379.72,-89.96 370.4,-94.98 380.82,-96.87 379.72,-89.96"/>
<text text-anchor="middle" x="434" y="-105.5" font-family="Helvetica,sans-Serif" font-size="10.00"> _input_prm_</text>
<text text-anchor="middle" x="434" y="-94.5" font-family="Helvetica,sans-Serif" font-size="10.00">_input_prm_ptr_</text>
</g>
<!-- Node3 -->
<g id="node3" class="node">
<title>Node3</title>
<g id="a_node3"><a xlink:href="../../dc/da2/struct_input_process_delimiter_sequences.html" target="_top" xlink:title="InputProcessDelimiterSequences struct holds user defined input data delimiters This struct holds info...">
<polygon fill="white" stroke="#666666" points="162.5,-144 1.5,-144 1.5,-125 162.5,-125 162.5,-144"/>
<text text-anchor="middle" x="82" y="-132" font-family="Helvetica,sans-Serif" font-size="10.00">InputProcessDelimiterSequences</text>
</a>
</g>
</g>
<!-- Node3&#45;&gt;Node2 -->
<g id="edge2" class="edge">
<title>Node3&#45;&gt;Node2</title>
<path fill="none" stroke="#9a32cd" stroke-dasharray="5,2" d="M164.89,-123.6C191.97,-120 221.61,-116.06 246.9,-112.7"/>
<polygon fill="#9a32cd" stroke="#9a32cd" points="164.11,-120.18 154.66,-124.97 165.03,-127.12 164.11,-120.18"/>
<text text-anchor="middle" x="205.5" y="-123.5" font-family="Helvetica,sans-Serif" font-size="10.00"> pdelimseq</text>
</g>
<!-- Node4 -->
<g id="node4" class="node">
<title>Node4</title>
<g id="a_node4"><a xlink:href="../../d4/dc0/struct_input_process_start_stop_sequences.html" target="_top" xlink:title="InputProcessStartStopSequences struct holds regex&#45;like start&#45;stop match sequence pairs This struct ho...">
<polygon fill="white" stroke="#666666" points="164,-107 0,-107 0,-88 164,-88 164,-107"/>
<text text-anchor="middle" x="82" y="-95" font-family="Helvetica,sans-Serif" font-size="10.00">InputProcessStartStopSequences</text>
</a>
</g>
</g>
<!-- Node4&#45;&gt;Node2 -->
<g id="edge3" class="edge">
<title>Node4&#45;&gt;Node2</title>
<path fill="none" stroke="#9a32cd" stroke-dasharray="5,2" d="M174.1,-99.85C192.29,-100.36 211.25,-100.92 229,-101.5 234.8,-101.69 240.83,-101.9 246.87,-102.11"/>
<polygon fill="#9a32cd" stroke="#9a32cd" points="174.18,-96.35 164.09,-99.57 173.99,-103.35 174.18,-96.35"/>
<text text-anchor="middle" x="205.5" y="-104.5" font-family="Helvetica,sans-Serif" font-size="10.00"> pststpseq</text>
</g>
<!-- Node5 -->
<g id="node5" class="node">
<title>Node5</title>
<g id="a_node5"><a xlink:href="../../df/d68/class_command_constructor.html" target="_top" xlink:title="user command constructor class">
<polygon fill="white" stroke="#666666" points="365,-48 254,-48 254,-29 365,-29 365,-48"/>
<text text-anchor="middle" x="309.5" y="-36" font-family="Helvetica,sans-Serif" font-size="10.00">CommandConstructor</text>
</a>
</g>
</g>
<!-- Node5&#45;&gt;Node1 -->
<g id="edge4" class="edge">
<title>Node5&#45;&gt;Node1</title>
<path fill="none" stroke="#9a32cd" stroke-dasharray="5,2" d="M375.64,-41.14C406.87,-43.31 444.65,-47.28 478,-54.5 485.34,-56.09 493.13,-58.48 500.19,-60.93"/>
<polygon fill="#9a32cd" stroke="#9a32cd" points="375.52,-37.63 365.31,-40.47 375.07,-44.61 375.52,-37.63"/>
<text text-anchor="middle" x="434" y="-68.5" font-family="Helvetica,sans-Serif" font-size="10.00"> _commands_head_</text>
<text text-anchor="middle" x="434" y="-57.5" font-family="Helvetica,sans-Serif" font-size="10.00">_commands_tail_</text>
</g>
<!-- Node5&#45;&gt;Node5 -->
<g id="edge7" class="edge">
<title>Node5&#45;&gt;Node5</title>
<path fill="none" stroke="#9a32cd" stroke-dasharray="5,2" d="M290.24,-57.55C291.53,-62.38 297.95,-66 309.5,-66 327.98,-66 333.33,-56.73 325.53,-48.08"/>
<polygon fill="#9a32cd" stroke="#9a32cd" points="293.56,-58.68 293.47,-48.08 286.93,-56.42 293.56,-58.68"/>
<text text-anchor="middle" x="309.5" y="-69" font-family="Helvetica,sans-Serif" font-size="10.00"> next_command</text>
</g>
<!-- Node6 -->
<g id="node6" class="node">
<title>Node6</title>
<g id="a_node6"><a xlink:href="../../db/d11/struct_command_parameters.html" target="_top" xlink:title="CommandParameters struct, this is the container that holds your command parameters.">
<polygon fill="white" stroke="#666666" points="137.5,-56 26.5,-56 26.5,-37 137.5,-37 137.5,-56"/>
<text text-anchor="middle" x="82" y="-44" font-family="Helvetica,sans-Serif" font-size="10.00">CommandParameters</text>
</a>
</g>
</g>
<!-- Node6&#45;&gt;Node5 -->
<g id="edge5" class="edge">
<title>Node6&#45;&gt;Node5</title>
<path fill="none" stroke="#9a32cd" stroke-dasharray="5,2" d="M147.74,-44.2C181.24,-43.01 221.69,-41.58 253.63,-40.45"/>
<polygon fill="#9a32cd" stroke="#9a32cd" points="147.46,-40.71 137.59,-44.56 147.71,-47.71 147.46,-40.71"/>
<text text-anchor="middle" x="205.5" y="-45.5" font-family="Helvetica,sans-Serif" font-size="10.00"> prm</text>
</g>
<!-- Node7 -->
<g id="node7" class="node">
<title>Node7</title>
<g id="a_node7"><a xlink:href="../../dc/d3d/struct_command_runtime_calc.html" target="_top" xlink:title="CommandRuntimeCalc struct contains arrays and indices determined at runtime these structs are associa...">
<polygon fill="white" stroke="#666666" points="140,-19 24,-19 24,0 140,0 140,-19"/>
<text text-anchor="middle" x="82" y="-7" font-family="Helvetica,sans-Serif" font-size="10.00">CommandRuntimeCalc</text>
</a>
</g>
</g>
<!-- Node7&#45;&gt;Node5 -->
<g id="edge6" class="edge">
<title>Node7&#45;&gt;Node5</title>
<path fill="none" stroke="#9a32cd" stroke-dasharray="5,2" d="M150.28,-16.85C175.05,-19.69 203.32,-23.07 229,-26.5 237.02,-27.57 245.49,-28.77 253.79,-29.99"/>
<polygon fill="#9a32cd" stroke="#9a32cd" points="150.59,-13.36 140.26,-15.71 149.8,-20.32 150.59,-13.36"/>
<text text-anchor="middle" x="205.5" y="-29.5" font-family="Helvetica,sans-Serif" font-size="10.00"> calc</text>
</g>
</g>
</svg>
