<?xml version="1.0" encoding="UTF-8" standalone="no"?>
<!DOCTYPE svg PUBLIC "-//W3C//DTD SVG 1.1//EN"
 "http://www.w3.org/Graphics/SVG/1.1/DTD/svg11.dtd">
<!-- Generated by graphviz version 5.0.0 (20220708.1001)
 -->
<!-- Title: examples/all_platforms/advanced/NMEAparser/parser/NMEAsentenceparam.h Pages: 1 -->
<svg width="181pt" height="274pt"
 viewBox="0.00 0.00 180.50 274.00" xmlns="http://www.w3.org/2000/svg" xmlns:xlink="http://www.w3.org/1999/xlink">
<g id="graph0" class="graph" transform="scale(1 1) rotate(0) translate(4 270)">
<title>examples/all_platforms/advanced/NMEAparser/parser/NMEAsentenceparam.h</title>
<!-- Node1 -->
<g id="node1" class="node">
<title>Node1</title>
<g id="a_node1"><a xlink:title="NMEA 0183 sentence CommandParameters structs.">
<polygon fill="#bfbfbf" stroke="black" points="0,-224.5 0,-265.5 150,-265.5 150,-224.5 0,-224.5"/>
<text text-anchor="start" x="8" y="-253.5" font-family="Helvetica,sans-Serif" font-size="10.00">examples/all_platforms</text>
<text text-anchor="start" x="8" y="-242.5" font-family="Helvetica,sans-Serif" font-size="10.00">/advanced/NMEAparser/parser</text>
<text text-anchor="middle" x="75" y="-231.5" font-family="Helvetica,sans-Serif" font-size="10.00">/NMEAsentenceparam.h</text>
</a>
</g>
</g>
<!-- Node2 -->
<g id="node2" class="node">
<title>Node2</title>
<g id="a_node2"><a xlink:href="../../df/dec/_input_handler_8h.html" target="_top" xlink:title="InputHandler library header file.">
<polygon fill="none" stroke="black" points="35,-112.5 35,-131.5 115,-131.5 115,-112.5 35,-112.5"/>
<text text-anchor="middle" x="75" y="-119.5" font-family="Helvetica,sans-Serif" font-size="10.00">InputHandler.h</text>
</a>
</g>
</g>
<!-- Node1&#45;&gt;Node2 -->
<g id="edge1" class="edge">
<title>Node1&#45;&gt;Node2</title>
<path fill="none" stroke="midnightblue" d="M63.65,-224.47C56.16,-209.21 48.51,-187.4 53,-168 55.23,-158.36 59.82,-148.41 64.24,-140.31"/>
<polygon fill="midnightblue" stroke="midnightblue" points="67.35,-141.92 69.36,-131.52 61.3,-138.4 67.35,-141.92"/>
</g>
<!-- Node6 -->
<g id="node6" class="node">
<title>Node6</title>
<g id="a_node6"><a xlink:href="../../d2/d20/_n_m_e_asentencefunc_8h.html" target="_top" xlink:title="NMEA 0183 sentence functions.">
<polygon fill="none" stroke="black" points="61.5,-168.5 61.5,-187.5 172.5,-187.5 172.5,-168.5 61.5,-168.5"/>
<text text-anchor="middle" x="117" y="-175.5" font-family="Helvetica,sans-Serif" font-size="10.00">NMEAsentencefunc.h</text>
</a>
</g>
</g>
<!-- Node1&#45;&gt;Node6 -->
<g id="edge5" class="edge">
<title>Node1&#45;&gt;Node6</title>
<path fill="none" stroke="midnightblue" d="M87.6,-224.5C93.42,-215.49 100.27,-204.89 105.9,-196.19"/>
<polygon fill="midnightblue" stroke="midnightblue" points="108.92,-197.95 111.41,-187.65 103.04,-194.15 108.92,-197.95"/>
</g>
<!-- Node3 -->
<g id="node3" class="node">
<title>Node3</title>
<g id="a_node3"><a xlink:href="../../da/dc7/noedit_8h.html" target="_top" xlink:title="InputHandler library C includes, do not edit.">
<polygon fill="none" stroke="black" points="35.5,-56.5 35.5,-75.5 114.5,-75.5 114.5,-56.5 35.5,-56.5"/>
<text text-anchor="middle" x="75" y="-63.5" font-family="Helvetica,sans-Serif" font-size="10.00">config/noedit.h</text>
</a>
</g>
</g>
<!-- Node2&#45;&gt;Node3 -->
<g id="edge2" class="edge">
<title>Node2&#45;&gt;Node3</title>
<path fill="none" stroke="midnightblue" d="M75,-112.08C75,-105.01 75,-94.86 75,-85.99"/>
<polygon fill="midnightblue" stroke="midnightblue" points="78.5,-85.75 75,-75.75 71.5,-85.75 78.5,-85.75"/>
</g>
<!-- Node4 -->
<g id="node4" class="node">
<title>Node4</title>
<g id="a_node4"><a xlink:title=" ">
<polygon fill="none" stroke="#bfbfbf" points="10.5,-0.5 10.5,-19.5 67.5,-19.5 67.5,-0.5 10.5,-0.5"/>
<text text-anchor="middle" x="39" y="-7.5" font-family="Helvetica,sans-Serif" font-size="10.00">Arduino.h</text>
</a>
</g>
</g>
<!-- Node3&#45;&gt;Node4 -->
<g id="edge3" class="edge">
<title>Node3&#45;&gt;Node4</title>
<path fill="none" stroke="midnightblue" d="M69.06,-56.08C64.02,-48.53 56.66,-37.49 50.49,-28.23"/>
<polygon fill="midnightblue" stroke="midnightblue" points="53.29,-26.13 44.83,-19.75 47.47,-30.01 53.29,-26.13"/>
</g>
<!-- Node5 -->
<g id="node5" class="node">
<title>Node5</title>
<g id="a_node5"><a xlink:href="../../db/d16/config_8h.html" target="_top" xlink:title="InputHandler library user configurable items.">
<polygon fill="none" stroke="black" points="86,-0.5 86,-19.5 136,-19.5 136,-0.5 86,-0.5"/>
<text text-anchor="middle" x="111" y="-7.5" font-family="Helvetica,sans-Serif" font-size="10.00">config.h</text>
</a>
</g>
</g>
<!-- Node3&#45;&gt;Node5 -->
<g id="edge4" class="edge">
<title>Node3&#45;&gt;Node5</title>
<path fill="none" stroke="midnightblue" d="M80.94,-56.08C85.98,-48.53 93.34,-37.49 99.51,-28.23"/>
<polygon fill="midnightblue" stroke="midnightblue" points="102.53,-30.01 105.17,-19.75 96.71,-26.13 102.53,-30.01"/>
</g>
<!-- Node6&#45;&gt;Node2 -->
<g id="edge6" class="edge">
<title>Node6&#45;&gt;Node2</title>
<path fill="none" stroke="midnightblue" d="M110.06,-168.08C104.07,-160.38 95.25,-149.03 87.95,-139.65"/>
<polygon fill="midnightblue" stroke="midnightblue" points="90.71,-137.5 81.81,-131.75 85.18,-141.79 90.71,-137.5"/>
</g>
</g>
</svg>
