<?xml version="1.0" encoding="UTF-8" standalone="no"?>
<!DOCTYPE svg PUBLIC "-//W3C//DTD SVG 1.1//EN"
 "http://www.w3.org/Graphics/SVG/1.1/DTD/svg11.dtd">
<!-- Generated by graphviz version 5.0.1 (20220820.1526)
 -->
<!-- Title: examples/all_platforms/advanced/NMEAparser/parser/NMEAsentenceparam.h Pages: 1 -->
<svg width="181pt" height="269pt"
 viewBox="0.00 0.00 180.50 269.00" xmlns="http://www.w3.org/2000/svg" xmlns:xlink="http://www.w3.org/1999/xlink">
<g id="graph0" class="graph" transform="scale(1 1) rotate(0) translate(4 265)">
<title>examples/all_platforms/advanced/NMEAparser/parser/NMEAsentenceparam.h</title>
<!-- Node1 -->
<g id="node1" class="node">
<title>Node1</title>
<g id="a_node1"><a xlink:title="NMEA 0183 sentence CommandParameters structs.">
<polygon fill="#999999" stroke="#666666" points="150,-261 0,-261 0,-220 150,-220 150,-261"/>
<text text-anchor="start" x="8" y="-249" font-family="Helvetica,sans-Serif" font-size="10.00">examples/all_platforms</text>
<text text-anchor="start" x="8" y="-238" font-family="Helvetica,sans-Serif" font-size="10.00">/advanced/NMEAparser/parser</text>
<text text-anchor="middle" x="75" y="-227" font-family="Helvetica,sans-Serif" font-size="10.00">/NMEAsentenceparam.h</text>
</a>
</g>
</g>
<!-- Node2 -->
<g id="node2" class="node">
<title>Node2</title>
<g id="a_node2"><a xlink:href="../../df/dec/_input_handler_8h.html" target="_top" xlink:title="InputHandler library header file.">
<polygon fill="white" stroke="#666666" points="115,-129 35,-129 35,-110 115,-110 115,-129"/>
<text text-anchor="middle" x="75" y="-117" font-family="Helvetica,sans-Serif" font-size="10.00">InputHandler.h</text>
</a>
</g>
</g>
<!-- Node1&#45;&gt;Node2 -->
<g id="edge1" class="edge">
<title>Node1&#45;&gt;Node2</title>
<path fill="none" stroke="#63b8ff" d="M63.36,-219.74C55.99,-204.82 48.61,-183.78 53,-165 55.2,-155.57 59.71,-145.85 64.07,-137.91"/>
<polygon fill="#63b8ff" stroke="#63b8ff" points="67.12,-139.64 69.16,-129.24 61.08,-136.09 67.12,-139.64"/>
</g>
<!-- Node6 -->
<g id="node6" class="node">
<title>Node6</title>
<g id="a_node6"><a xlink:href="../../d2/d20/_n_m_e_asentencefunc_8h.html" target="_top" xlink:title="NMEA 0183 sentence functions.">
<polygon fill="white" stroke="#666666" points="172.5,-184 61.5,-184 61.5,-165 172.5,-165 172.5,-184"/>
<text text-anchor="middle" x="117" y="-172" font-family="Helvetica,sans-Serif" font-size="10.00">NMEAsentencefunc.h</text>
</a>
</g>
</g>
<!-- Node1&#45;&gt;Node6 -->
<g id="edge5" class="edge">
<title>Node1&#45;&gt;Node6</title>
<path fill="none" stroke="#63b8ff" d="M87.83,-219.95C93.51,-211.3 100.13,-201.2 105.63,-192.82"/>
<polygon fill="#63b8ff" stroke="#63b8ff" points="108.69,-194.54 111.25,-184.26 102.84,-190.7 108.69,-194.54"/>
</g>
<!-- Node3 -->
<g id="node3" class="node">
<title>Node3</title>
<g id="a_node3"><a xlink:href="../../da/dc7/noedit_8h.html" target="_top" xlink:title="InputHandler library C includes, do not edit.">
<polygon fill="white" stroke="#666666" points="114.5,-74 35.5,-74 35.5,-55 114.5,-55 114.5,-74"/>
<text text-anchor="middle" x="75" y="-62" font-family="Helvetica,sans-Serif" font-size="10.00">config/noedit.h</text>
</a>
</g>
</g>
<!-- Node2&#45;&gt;Node3 -->
<g id="edge2" class="edge">
<title>Node2&#45;&gt;Node3</title>
<path fill="none" stroke="#63b8ff" d="M75,-109.75C75,-102.8 75,-92.85 75,-84.13"/>
<polygon fill="#63b8ff" stroke="#63b8ff" points="78.5,-84.09 75,-74.09 71.5,-84.09 78.5,-84.09"/>
</g>
<!-- Node4 -->
<g id="node4" class="node">
<title>Node4</title>
<g id="a_node4"><a xlink:title=" ">
<polygon fill="#e0e0e0" stroke="#999999" points="67.5,-19 10.5,-19 10.5,0 67.5,0 67.5,-19"/>
<text text-anchor="middle" x="39" y="-7" font-family="Helvetica,sans-Serif" font-size="10.00">Arduino.h</text>
</a>
</g>
</g>
<!-- Node3&#45;&gt;Node4 -->
<g id="edge3" class="edge">
<title>Node3&#45;&gt;Node4</title>
<path fill="none" stroke="#63b8ff" d="M69.06,-54.75C64.02,-47.34 56.66,-36.5 50.49,-27.41"/>
<polygon fill="#63b8ff" stroke="#63b8ff" points="53.35,-25.39 44.83,-19.09 47.56,-29.33 53.35,-25.39"/>
</g>
<!-- Node5 -->
<g id="node5" class="node">
<title>Node5</title>
<g id="a_node5"><a xlink:href="../../db/d16/config_8h.html" target="_top" xlink:title="InputHandler library user configurable items.">
<polygon fill="white" stroke="#666666" points="136,-19 86,-19 86,0 136,0 136,-19"/>
<text text-anchor="middle" x="111" y="-7" font-family="Helvetica,sans-Serif" font-size="10.00">config.h</text>
</a>
</g>
</g>
<!-- Node3&#45;&gt;Node5 -->
<g id="edge4" class="edge">
<title>Node3&#45;&gt;Node5</title>
<path fill="none" stroke="#63b8ff" d="M80.94,-54.75C85.98,-47.34 93.34,-36.5 99.51,-27.41"/>
<polygon fill="#63b8ff" stroke="#63b8ff" points="102.44,-29.33 105.17,-19.09 96.65,-25.39 102.44,-29.33"/>
</g>
<!-- Node6&#45;&gt;Node2 -->
<g id="edge6" class="edge">
<title>Node6&#45;&gt;Node2</title>
<path fill="none" stroke="#63b8ff" d="M110.06,-164.75C104.13,-157.26 95.43,-146.28 88.18,-137.13"/>
<polygon fill="#63b8ff" stroke="#63b8ff" points="90.76,-134.75 81.81,-129.09 85.27,-139.1 90.76,-134.75"/>
</g>
</g>
</svg>
