<?xml version="1.0" encoding="UTF-8" standalone="no"?>
<!DOCTYPE svg PUBLIC "-//W3C//DTD SVG 1.1//EN"
 "http://www.w3.org/Graphics/SVG/1.1/DTD/svg11.dtd">
<!-- Generated by graphviz version 3.0.0 (20220413.0106)
 -->
<!-- Title: examples/all_platforms/advanced/NMEAparser/parser/NMEAsentenceparam.h Pages: 1 -->
<svg width="181pt" height="285pt"
 viewBox="0.00 0.00 180.50 285.00" xmlns="http://www.w3.org/2000/svg" xmlns:xlink="http://www.w3.org/1999/xlink">
<g id="graph0" class="graph" transform="scale(1 1) rotate(0) translate(4 281)">
<title>examples/all_platforms/advanced/NMEAparser/parser/NMEAsentenceparam.h</title>
<!-- Node1 -->
<g id="node1" class="node">
<title>Node1</title>
<g id="a_node1"><a xlink:title="NMEA 0183 sentence CommandParameters structs.">
<polygon fill="#bfbfbf" stroke="black" points="0,-235.5 0,-276.5 150,-276.5 150,-235.5 0,-235.5"/>
<text text-anchor="start" x="8" y="-264.5" font-family="Helvetica,sans-Serif" font-size="10.00">examples/all_platforms</text>
<text text-anchor="start" x="8" y="-253.5" font-family="Helvetica,sans-Serif" font-size="10.00">/advanced/NMEAparser/parser</text>
<text text-anchor="middle" x="75" y="-242.5" font-family="Helvetica,sans-Serif" font-size="10.00">/NMEAsentenceparam.h</text>
</a>
</g>
</g>
<!-- Node2 -->
<g id="node2" class="node">
<title>Node2</title>
<g id="a_node2"><a xlink:href="../../df/dec/_input_handler_8h.html" target="_top" xlink:title="InputHandler library header file.">
<polygon fill="none" stroke="black" points="35,-123.5 35,-142.5 115,-142.5 115,-123.5 35,-123.5"/>
<text text-anchor="middle" x="75" y="-130.5" font-family="Helvetica,sans-Serif" font-size="10.00">InputHandler.h</text>
</a>
</g>
</g>
<!-- Node1&#45;&gt;Node2 -->
<g id="edge1" class="edge">
<title>Node1&#45;&gt;Node2</title>
<path fill="none" stroke="midnightblue" d="M63.65,-235.47C56.16,-220.21 48.51,-198.4 53,-179 55.23,-169.36 59.82,-159.41 64.24,-151.31"/>
<polygon fill="midnightblue" stroke="midnightblue" points="67.35,-152.92 69.36,-142.52 61.3,-149.4 67.35,-152.92"/>
</g>
<!-- Node5 -->
<g id="node5" class="node">
<title>Node5</title>
<g id="a_node5"><a xlink:href="../../d2/d20/_n_m_e_asentencefunc_8h.html" target="_top" xlink:title="NMEA 0183 sentence functions.">
<polygon fill="none" stroke="black" points="61.5,-179.5 61.5,-198.5 172.5,-198.5 172.5,-179.5 61.5,-179.5"/>
<text text-anchor="middle" x="117" y="-186.5" font-family="Helvetica,sans-Serif" font-size="10.00">NMEAsentencefunc.h</text>
</a>
</g>
</g>
<!-- Node1&#45;&gt;Node5 -->
<g id="edge4" class="edge">
<title>Node1&#45;&gt;Node5</title>
<path fill="none" stroke="midnightblue" d="M87.6,-235.5C93.42,-226.49 100.27,-215.89 105.9,-207.19"/>
<polygon fill="midnightblue" stroke="midnightblue" points="108.92,-208.95 111.41,-198.65 103.04,-205.15 108.92,-208.95"/>
</g>
<!-- Node3 -->
<g id="node3" class="node">
<title>Node3</title>
<g id="a_node3"><a xlink:href="../../dd/d4e/_input_handler__config_8h.html" target="_top" xlink:title="InputHandler library configuration file.">
<polygon fill="none" stroke="black" points="24.5,-56.5 24.5,-86.5 125.5,-86.5 125.5,-56.5 24.5,-56.5"/>
<text text-anchor="start" x="32.5" y="-74.5" font-family="Helvetica,sans-Serif" font-size="10.00">config/InputHandler</text>
<text text-anchor="middle" x="75" y="-63.5" font-family="Helvetica,sans-Serif" font-size="10.00">_config.h</text>
</a>
</g>
</g>
<!-- Node2&#45;&gt;Node3 -->
<g id="edge2" class="edge">
<title>Node2&#45;&gt;Node3</title>
<path fill="none" stroke="midnightblue" d="M75,-123.48C75,-116.47 75,-106.19 75,-96.7"/>
<polygon fill="midnightblue" stroke="midnightblue" points="78.5,-96.52 75,-86.52 71.5,-96.52 78.5,-96.52"/>
</g>
<!-- Node4 -->
<g id="node4" class="node">
<title>Node4</title>
<g id="a_node4"><a xlink:title=" ">
<polygon fill="none" stroke="#bfbfbf" points="46.5,-0.5 46.5,-19.5 103.5,-19.5 103.5,-0.5 46.5,-0.5"/>
<text text-anchor="middle" x="75" y="-7.5" font-family="Helvetica,sans-Serif" font-size="10.00">Arduino.h</text>
</a>
</g>
</g>
<!-- Node3&#45;&gt;Node4 -->
<g id="edge3" class="edge">
<title>Node3&#45;&gt;Node4</title>
<path fill="none" stroke="midnightblue" d="M75,-56.4C75,-48.47 75,-38.46 75,-29.86"/>
<polygon fill="midnightblue" stroke="midnightblue" points="78.5,-29.66 75,-19.66 71.5,-29.66 78.5,-29.66"/>
</g>
<!-- Node5&#45;&gt;Node2 -->
<g id="edge5" class="edge">
<title>Node5&#45;&gt;Node2</title>
<path fill="none" stroke="midnightblue" d="M110.06,-179.08C104.07,-171.38 95.25,-160.03 87.95,-150.65"/>
<polygon fill="midnightblue" stroke="midnightblue" points="90.71,-148.5 81.81,-142.75 85.18,-152.79 90.71,-148.5"/>
</g>
</g>
</svg>
