<?xml version="1.0" encoding="UTF-8" standalone="no"?>
<!DOCTYPE svg PUBLIC "-//W3C//DTD SVG 1.1//EN"
 "http://www.w3.org/Graphics/SVG/1.1/DTD/svg11.dtd">
<!-- Generated by graphviz version 5.0.1 (20220820.1526)
 -->
<!-- Title: examples/all_platforms/advanced/NMEAparser/parser/NMEAsentencefunc.h Pages: 1 -->
<svg width="202pt" height="273pt"
 viewBox="0.00 0.00 202.00 273.00" xmlns="http://www.w3.org/2000/svg" xmlns:xlink="http://www.w3.org/1999/xlink">
<g id="graph0" class="graph" transform="scale(1 1) rotate(0) translate(4 269)">
<title>examples/all_platforms/advanced/NMEAparser/parser/NMEAsentencefunc.h</title>
<!-- Node1 -->
<g id="node1" class="node">
<title>Node1</title>
<g id="a_node1"><a xlink:title="NMEA 0183 sentence functions.">
<polygon fill="#bfbfbf" stroke="black" points="22,-223.5 22,-264.5 172,-264.5 172,-223.5 22,-223.5"/>
<text text-anchor="start" x="30" y="-252.5" font-family="Helvetica,sans-Serif" font-size="10.00">examples/all_platforms</text>
<text text-anchor="start" x="30" y="-241.5" font-family="Helvetica,sans-Serif" font-size="10.00">/advanced/NMEAparser/parser</text>
<text text-anchor="middle" x="97" y="-230.5" font-family="Helvetica,sans-Serif" font-size="10.00">/NMEAsentencefunc.h</text>
</a>
</g>
</g>
<!-- Node2 -->
<g id="node2" class="node">
<title>Node2</title>
<g id="a_node2"><a xlink:href="../../da/dff/_n_m_e_asentenceparam_8h.html" target="_top" xlink:title="NMEA 0183 sentence CommandParameters structs.">
<polygon fill="none" stroke="black" points="22,-145.5 22,-186.5 172,-186.5 172,-145.5 22,-145.5"/>
<text text-anchor="start" x="30" y="-174.5" font-family="Helvetica,sans-Serif" font-size="10.00">examples/all_platforms</text>
<text text-anchor="start" x="30" y="-163.5" font-family="Helvetica,sans-Serif" font-size="10.00">/advanced/NMEAparser/parser</text>
<text text-anchor="middle" x="97" y="-152.5" font-family="Helvetica,sans-Serif" font-size="10.00">/NMEAsentenceparam.h</text>
</a>
</g>
</g>
<!-- Node1&#45;&gt;Node2 -->
<g id="edge1" class="edge">
<title>Node1&#45;&gt;Node2</title>
<path fill="none" stroke="midnightblue" d="M97,-213.3C97,-204.3 97,-194.65 97,-186.51"/>
<polygon fill="midnightblue" stroke="midnightblue" points="93.5,-213.43 97,-223.43 100.5,-213.43 93.5,-213.43"/>
</g>
<!-- Node3 -->
<g id="node3" class="node">
<title>Node3</title>
<g id="a_node3"><a xlink:href="../../da/d60/_n_m_e_aparser_8h.html" target="_top" xlink:title="a class to assist in parsing NMEA 0183 strings">
<polygon fill="none" stroke="black" points="22,-67.5 22,-108.5 172,-108.5 172,-67.5 22,-67.5"/>
<text text-anchor="start" x="30" y="-96.5" font-family="Helvetica,sans-Serif" font-size="10.00">examples/all_platforms</text>
<text text-anchor="start" x="30" y="-85.5" font-family="Helvetica,sans-Serif" font-size="10.00">/advanced/NMEAparser/parser</text>
<text text-anchor="middle" x="97" y="-74.5" font-family="Helvetica,sans-Serif" font-size="10.00">/NMEAparser.h</text>
</a>
</g>
</g>
<!-- Node2&#45;&gt;Node3 -->
<g id="edge2" class="edge">
<title>Node2&#45;&gt;Node3</title>
<path fill="none" stroke="midnightblue" d="M97,-135.3C97,-126.3 97,-116.65 97,-108.51"/>
<polygon fill="midnightblue" stroke="midnightblue" points="93.5,-135.43 97,-145.43 100.5,-135.43 93.5,-135.43"/>
</g>
<!-- Node4 -->
<g id="node4" class="node">
<title>Node4</title>
<g id="a_node4"><a xlink:href="../../dd/d65/_n_m_e_aparser_8ino.html" target="_top" xlink:title="An example that demonstrates how to use InputHandler&#39;s public methods to parse NMEA 0183 sentences.">
<polygon fill="none" stroke="black" points="0,-0.5 0,-30.5 194,-30.5 194,-0.5 0,-0.5"/>
<text text-anchor="start" x="8" y="-18.5" font-family="Helvetica,sans-Serif" font-size="10.00">examples/all_platforms</text>
<text text-anchor="middle" x="97" y="-7.5" font-family="Helvetica,sans-Serif" font-size="10.00">/advanced/NMEAparser/NMEAparser.ino</text>
</a>
</g>
</g>
<!-- Node3&#45;&gt;Node4 -->
<g id="edge3" class="edge">
<title>Node3&#45;&gt;Node4</title>
<path fill="none" stroke="midnightblue" d="M97,-57.08C97,-48.01 97,-38.45 97,-30.89"/>
<polygon fill="midnightblue" stroke="midnightblue" points="93.5,-57.36 97,-67.36 100.5,-57.36 93.5,-57.36"/>
</g>
</g>
</svg>
