<?xml version="1.0" encoding="UTF-8" standalone="no"?>
<!DOCTYPE svg PUBLIC "-//W3C//DTD SVG 1.1//EN"
 "http://www.w3.org/Graphics/SVG/1.1/DTD/svg11.dtd">
<!-- Generated by graphviz version 5.0.0 (20220708.1001)
 -->
<!-- Title: examples/all_platforms/basic/WildcardCommands/WildcardCommands.ino Pages: 1 -->
<svg width="141pt" height="218pt"
 viewBox="0.00 0.00 141.00 218.00" xmlns="http://www.w3.org/2000/svg" xmlns:xlink="http://www.w3.org/1999/xlink">
<g id="graph0" class="graph" transform="scale(1 1) rotate(0) translate(4 214)">
<title>examples/all_platforms/basic/WildcardCommands/WildcardCommands.ino</title>
<!-- Node1 -->
<g id="node1" class="node">
<title>Node1</title>
<g id="a_node1"><a xlink:title="An example that demonstrates wildcard commands.">
<polygon fill="#bfbfbf" stroke="black" points="0,-168.5 0,-209.5 133,-209.5 133,-168.5 0,-168.5"/>
<text text-anchor="start" x="8" y="-197.5" font-family="Helvetica,sans-Serif" font-size="10.00">examples/all_platforms</text>
<text text-anchor="start" x="8" y="-186.5" font-family="Helvetica,sans-Serif" font-size="10.00">/basic/WildcardCommands</text>
<text text-anchor="middle" x="66.5" y="-175.5" font-family="Helvetica,sans-Serif" font-size="10.00">/WildcardCommands.ino</text>
</a>
</g>
</g>
<!-- Node2 -->
<g id="node2" class="node">
<title>Node2</title>
<g id="a_node2"><a xlink:href="../../df/dec/_input_handler_8h.html" target="_top" xlink:title="InputHandler library header file.">
<polygon fill="none" stroke="black" points="26.5,-112.5 26.5,-131.5 106.5,-131.5 106.5,-112.5 26.5,-112.5"/>
<text text-anchor="middle" x="66.5" y="-119.5" font-family="Helvetica,sans-Serif" font-size="10.00">InputHandler.h</text>
</a>
</g>
</g>
<!-- Node1&#45;&gt;Node2 -->
<g id="edge1" class="edge">
<title>Node1&#45;&gt;Node2</title>
<path fill="none" stroke="midnightblue" d="M66.5,-168.5C66.5,-160.07 66.5,-150.24 66.5,-141.87"/>
<polygon fill="midnightblue" stroke="midnightblue" points="70,-141.65 66.5,-131.65 63,-141.65 70,-141.65"/>
</g>
<!-- Node3 -->
<g id="node3" class="node">
<title>Node3</title>
<g id="a_node3"><a xlink:href="../../da/dc7/noedit_8h.html" target="_top" xlink:title="InputHandler library C includes, do not edit.">
<polygon fill="none" stroke="black" points="27,-56.5 27,-75.5 106,-75.5 106,-56.5 27,-56.5"/>
<text text-anchor="middle" x="66.5" y="-63.5" font-family="Helvetica,sans-Serif" font-size="10.00">config/noedit.h</text>
</a>
</g>
</g>
<!-- Node2&#45;&gt;Node3 -->
<g id="edge2" class="edge">
<title>Node2&#45;&gt;Node3</title>
<path fill="none" stroke="midnightblue" d="M66.5,-112.08C66.5,-105.01 66.5,-94.86 66.5,-85.99"/>
<polygon fill="midnightblue" stroke="midnightblue" points="70,-85.75 66.5,-75.75 63,-85.75 70,-85.75"/>
</g>
<!-- Node4 -->
<g id="node4" class="node">
<title>Node4</title>
<g id="a_node4"><a xlink:title=" ">
<polygon fill="none" stroke="#bfbfbf" points="2,-0.5 2,-19.5 59,-19.5 59,-0.5 2,-0.5"/>
<text text-anchor="middle" x="30.5" y="-7.5" font-family="Helvetica,sans-Serif" font-size="10.00">Arduino.h</text>
</a>
</g>
</g>
<!-- Node3&#45;&gt;Node4 -->
<g id="edge3" class="edge">
<title>Node3&#45;&gt;Node4</title>
<path fill="none" stroke="midnightblue" d="M60.56,-56.08C55.52,-48.53 48.16,-37.49 41.99,-28.23"/>
<polygon fill="midnightblue" stroke="midnightblue" points="44.79,-26.13 36.33,-19.75 38.97,-30.01 44.79,-26.13"/>
</g>
<!-- Node5 -->
<g id="node5" class="node">
<title>Node5</title>
<g id="a_node5"><a xlink:href="../../db/d16/config_8h.html" target="_top" xlink:title="InputHandler library user configurable items.">
<polygon fill="none" stroke="black" points="77.5,-0.5 77.5,-19.5 127.5,-19.5 127.5,-0.5 77.5,-0.5"/>
<text text-anchor="middle" x="102.5" y="-7.5" font-family="Helvetica,sans-Serif" font-size="10.00">config.h</text>
</a>
</g>
</g>
<!-- Node3&#45;&gt;Node5 -->
<g id="edge4" class="edge">
<title>Node3&#45;&gt;Node5</title>
<path fill="none" stroke="midnightblue" d="M72.44,-56.08C77.48,-48.53 84.84,-37.49 91.01,-28.23"/>
<polygon fill="midnightblue" stroke="midnightblue" points="94.03,-30.01 96.67,-19.75 88.21,-26.13 94.03,-30.01"/>
</g>
</g>
</svg>
