<?xml version="1.0" encoding="UTF-8" standalone="no"?>
<!DOCTYPE svg PUBLIC "-//W3C//DTD SVG 1.1//EN"
 "http://www.w3.org/Graphics/SVG/1.1/DTD/svg11.dtd">
<!-- Generated by graphviz version 3.0.0 (20220413.0106)
 -->
<!-- Title: examples/all_platforms/advanced/GetCommandFromStream/GetCommandFromStream.ino Pages: 1 -->
<svg width="187pt" height="229pt"
 viewBox="0.00 0.00 187.00 229.00" xmlns="http://www.w3.org/2000/svg" xmlns:xlink="http://www.w3.org/1999/xlink">
<g id="graph0" class="graph" transform="scale(1 1) rotate(0) translate(4 225)">
<title>examples/all_platforms/advanced/GetCommandFromStream/GetCommandFromStream.ino</title>
<!-- Node1 -->
<g id="node1" class="node">
<title>Node1</title>
<g id="a_node1"><a xlink:title="An example that demonstrates how to use all of the available methods.">
<polygon fill="#bfbfbf" stroke="black" points="0,-179.5 0,-220.5 179,-220.5 179,-179.5 0,-179.5"/>
<text text-anchor="start" x="8" y="-208.5" font-family="Helvetica,sans-Serif" font-size="10.00">examples/all_platforms</text>
<text text-anchor="start" x="8" y="-197.5" font-family="Helvetica,sans-Serif" font-size="10.00">/advanced/GetCommandFromStream</text>
<text text-anchor="middle" x="89.5" y="-186.5" font-family="Helvetica,sans-Serif" font-size="10.00">/GetCommandFromStream.ino</text>
</a>
</g>
</g>
<!-- Node2 -->
<g id="node2" class="node">
<title>Node2</title>
<g id="a_node2"><a xlink:href="../../df/dec/_input_handler_8h.html" target="_top" xlink:title="InputHandler library header file.">
<polygon fill="none" stroke="black" points="49.5,-123.5 49.5,-142.5 129.5,-142.5 129.5,-123.5 49.5,-123.5"/>
<text text-anchor="middle" x="89.5" y="-130.5" font-family="Helvetica,sans-Serif" font-size="10.00">InputHandler.h</text>
</a>
</g>
</g>
<!-- Node1&#45;&gt;Node2 -->
<g id="edge1" class="edge">
<title>Node1&#45;&gt;Node2</title>
<path fill="none" stroke="midnightblue" d="M89.5,-179.5C89.5,-171.07 89.5,-161.24 89.5,-152.87"/>
<polygon fill="midnightblue" stroke="midnightblue" points="93,-152.65 89.5,-142.65 86,-152.65 93,-152.65"/>
</g>
<!-- Node3 -->
<g id="node3" class="node">
<title>Node3</title>
<g id="a_node3"><a xlink:href="../../dd/d4e/_input_handler__config_8h.html" target="_top" xlink:title="InputHandler library configuration file.">
<polygon fill="none" stroke="black" points="39,-56.5 39,-86.5 140,-86.5 140,-56.5 39,-56.5"/>
<text text-anchor="start" x="47" y="-74.5" font-family="Helvetica,sans-Serif" font-size="10.00">config/InputHandler</text>
<text text-anchor="middle" x="89.5" y="-63.5" font-family="Helvetica,sans-Serif" font-size="10.00">_config.h</text>
</a>
</g>
</g>
<!-- Node2&#45;&gt;Node3 -->
<g id="edge2" class="edge">
<title>Node2&#45;&gt;Node3</title>
<path fill="none" stroke="midnightblue" d="M89.5,-123.48C89.5,-116.47 89.5,-106.19 89.5,-96.7"/>
<polygon fill="midnightblue" stroke="midnightblue" points="93,-96.52 89.5,-86.52 86,-96.52 93,-96.52"/>
</g>
<!-- Node4 -->
<g id="node4" class="node">
<title>Node4</title>
<g id="a_node4"><a xlink:title=" ">
<polygon fill="none" stroke="#bfbfbf" points="61,-0.5 61,-19.5 118,-19.5 118,-0.5 61,-0.5"/>
<text text-anchor="middle" x="89.5" y="-7.5" font-family="Helvetica,sans-Serif" font-size="10.00">Arduino.h</text>
</a>
</g>
</g>
<!-- Node3&#45;&gt;Node4 -->
<g id="edge3" class="edge">
<title>Node3&#45;&gt;Node4</title>
<path fill="none" stroke="midnightblue" d="M89.5,-56.4C89.5,-48.47 89.5,-38.46 89.5,-29.86"/>
<polygon fill="midnightblue" stroke="midnightblue" points="93,-29.66 89.5,-19.66 86,-29.66 93,-29.66"/>
</g>
</g>
</svg>
