<?xml version="1.0" encoding="UTF-8" standalone="no"?>
<!DOCTYPE svg PUBLIC "-//W3C//DTD SVG 1.1//EN"
 "http://www.w3.org/Graphics/SVG/1.1/DTD/svg11.dtd">
<!-- Generated by graphviz version 6.0.1 (20220911.1526)
 -->
<!-- Title: examples/all_platforms/basic/BLE_UART/BLE_UART.ino Pages: 1 -->
<svg width="615pt" height="214pt"
 viewBox="0.00 0.00 615.33 214.00" xmlns="http://www.w3.org/2000/svg" xmlns:xlink="http://www.w3.org/1999/xlink">
<g id="graph0" class="graph" transform="scale(1 1) rotate(0) translate(4 210)">
<title>examples/all_platforms/basic/BLE_UART/BLE_UART.ino</title>
<!-- Node1 -->
<g id="node1" class="node">
<title>Node1</title>
<g id="a_node1"><a xlink:title=" ">
<polygon fill="#999999" stroke="#666666" points="312.33,-206 146.33,-206 146.33,-176 312.33,-176 312.33,-206"/>
<text text-anchor="start" x="154.33" y="-194" font-family="Helvetica,sans-Serif" font-size="10.00">examples/all_platforms</text>
<text text-anchor="middle" x="229.33" y="-183" font-family="Helvetica,sans-Serif" font-size="10.00">/basic/BLE_UART/BLE_UART.ino</text>
</a>
</g>
</g>
<!-- Node2 -->
<g id="node2" class="node">
<title>Node2</title>
<g id="a_node2"><a xlink:title=" ">
<polygon fill="#e0e0e0" stroke="#999999" points="270.83,-19 213.83,-19 213.83,0 270.83,0 270.83,-19"/>
<text text-anchor="middle" x="242.33" y="-7" font-family="Helvetica,sans-Serif" font-size="10.00">Arduino.h</text>
</a>
</g>
</g>
<!-- Node1&#45;&gt;Node2 -->
<g id="edge1" class="edge">
<title>Node1&#45;&gt;Node2</title>
<path fill="none" stroke="#63b8ff" d="M146,-187.79C69.14,-182.36 -27.97,-164.88 8.33,-110 52.03,-43.93 149.43,-21.6 203.78,-14.15"/>
<polygon fill="#63b8ff" stroke="#63b8ff" points="204.25,-17.62 213.73,-12.89 203.37,-10.67 204.25,-17.62"/>
</g>
<!-- Node3 -->
<g id="node3" class="node">
<title>Node3</title>
<g id="a_node3"><a xlink:title=" ">
<polygon fill="#e0e0e0" stroke="#999999" points="58.83,-134.5 17.83,-134.5 17.83,-115.5 58.83,-115.5 58.83,-134.5"/>
<text text-anchor="middle" x="38.33" y="-122.5" font-family="Helvetica,sans-Serif" font-size="10.00">SPI.h</text>
</a>
</g>
</g>
<!-- Node1&#45;&gt;Node3 -->
<g id="edge2" class="edge">
<title>Node1&#45;&gt;Node3</title>
<path fill="none" stroke="#63b8ff" d="M177.96,-175.98C146.04,-166.79 104.36,-153.93 68.33,-140 67.28,-139.6 66.22,-139.17 65.15,-138.73"/>
<polygon fill="#63b8ff" stroke="#63b8ff" points="66.17,-135.36 55.6,-134.55 63.36,-141.77 66.17,-135.36"/>
</g>
<!-- Node4 -->
<g id="node4" class="node">
<title>Node4</title>
<g id="a_node4"><a xlink:title=" ">
<polygon fill="#e0e0e0" stroke="#999999" points="159.33,-134.5 77.33,-134.5 77.33,-115.5 159.33,-115.5 159.33,-134.5"/>
<text text-anchor="middle" x="118.33" y="-122.5" font-family="Helvetica,sans-Serif" font-size="10.00">Adafruit_BLE.h</text>
</a>
</g>
</g>
<!-- Node1&#45;&gt;Node4 -->
<g id="edge3" class="edge">
<title>Node1&#45;&gt;Node4</title>
<path fill="none" stroke="#63b8ff" d="M204.97,-175.95C186.19,-165.13 160.37,-150.24 141.82,-139.54"/>
<polygon fill="#63b8ff" stroke="#63b8ff" points="143.51,-136.48 133.1,-134.52 140.01,-142.54 143.51,-136.48"/>
</g>
<!-- Node5 -->
<g id="node5" class="node">
<title>Node5</title>
<g id="a_node5"><a xlink:title=" ">
<polygon fill="#e0e0e0" stroke="#999999" points="281.33,-140 177.33,-140 177.33,-110 281.33,-110 281.33,-140"/>
<text text-anchor="start" x="185.33" y="-128" font-family="Helvetica,sans-Serif" font-size="10.00">Adafruit_BluefruitLE</text>
<text text-anchor="middle" x="229.33" y="-117" font-family="Helvetica,sans-Serif" font-size="10.00">_SPI.h</text>
</a>
</g>
</g>
<!-- Node1&#45;&gt;Node5 -->
<g id="edge4" class="edge">
<title>Node1&#45;&gt;Node5</title>
<path fill="none" stroke="#63b8ff" d="M229.33,-175.8C229.33,-168.34 229.33,-158.99 229.33,-150.41"/>
<polygon fill="#63b8ff" stroke="#63b8ff" points="232.83,-150.16 229.33,-140.16 225.83,-150.16 232.83,-150.16"/>
</g>
<!-- Node6 -->
<g id="node6" class="node">
<title>Node6</title>
<g id="a_node6"><a xlink:title=" ">
<polygon fill="#e0e0e0" stroke="#999999" points="403.33,-140 299.33,-140 299.33,-110 403.33,-110 403.33,-140"/>
<text text-anchor="start" x="307.33" y="-128" font-family="Helvetica,sans-Serif" font-size="10.00">Adafruit_BluefruitLE</text>
<text text-anchor="middle" x="351.33" y="-117" font-family="Helvetica,sans-Serif" font-size="10.00">_UART.h</text>
</a>
</g>
</g>
<!-- Node1&#45;&gt;Node6 -->
<g id="edge5" class="edge">
<title>Node1&#45;&gt;Node6</title>
<path fill="none" stroke="#63b8ff" d="M256.1,-175.95C273.58,-166.78 296.61,-154.71 315.64,-144.72"/>
<polygon fill="#63b8ff" stroke="#63b8ff" points="317.39,-147.76 324.62,-140.01 314.13,-141.56 317.39,-147.76"/>
</g>
<!-- Node7 -->
<g id="node7" class="node">
<title>Node7</title>
<g id="a_node7"><a xlink:href="../../d2/df9/_bluefruit_config_8h.html" target="_top" xlink:title=" ">
<polygon fill="white" stroke="#666666" points="508.83,-134.5 421.83,-134.5 421.83,-115.5 508.83,-115.5 508.83,-134.5"/>
<text text-anchor="middle" x="465.33" y="-122.5" font-family="Helvetica,sans-Serif" font-size="10.00">BluefruitConfig.h</text>
</a>
</g>
</g>
<!-- Node1&#45;&gt;Node7 -->
<g id="edge6" class="edge">
<title>Node1&#45;&gt;Node7</title>
<path fill="none" stroke="#63b8ff" d="M281.12,-175.95C324.06,-164.31 384.29,-147.98 424.03,-137.2"/>
<polygon fill="#63b8ff" stroke="#63b8ff" points="425.18,-140.51 433.92,-134.52 423.35,-133.76 425.18,-140.51"/>
</g>
<!-- Node8 -->
<g id="node8" class="node">
<title>Node8</title>
<g id="a_node8"><a xlink:href="../../df/dec/_input_handler_8h.html" target="_top" xlink:title="InputHandler library header file.">
<polygon fill="white" stroke="#666666" points="607.33,-134.5 527.33,-134.5 527.33,-115.5 607.33,-115.5 607.33,-134.5"/>
<text text-anchor="middle" x="567.33" y="-122.5" font-family="Helvetica,sans-Serif" font-size="10.00">InputHandler.h</text>
</a>
</g>
</g>
<!-- Node1&#45;&gt;Node8 -->
<g id="edge7" class="edge">
<title>Node1&#45;&gt;Node8</title>
<path fill="none" stroke="#63b8ff" d="M312.64,-178C370.63,-169.07 449.58,-155.72 518.33,-140 521.99,-139.16 525.79,-138.22 529.58,-137.22"/>
<polygon fill="#63b8ff" stroke="#63b8ff" points="530.75,-140.53 539.48,-134.52 528.91,-133.78 530.75,-140.53"/>
</g>
<!-- Node9 -->
<g id="node9" class="node">
<title>Node9</title>
<g id="a_node9"><a xlink:href="../../da/dc7/noedit_8h.html" target="_top" xlink:title="InputHandler library C includes, do not edit.">
<polygon fill="white" stroke="#666666" points="479.83,-74 400.83,-74 400.83,-55 479.83,-55 479.83,-74"/>
<text text-anchor="middle" x="440.33" y="-62" font-family="Helvetica,sans-Serif" font-size="10.00">config/noedit.h</text>
</a>
</g>
</g>
<!-- Node8&#45;&gt;Node9 -->
<g id="edge8" class="edge">
<title>Node8&#45;&gt;Node9</title>
<path fill="none" stroke="#63b8ff" d="M548.86,-115.49C527.6,-105.7 492.48,-89.52 467.96,-78.23"/>
<polygon fill="#63b8ff" stroke="#63b8ff" points="469.36,-75.02 458.82,-74.02 466.43,-81.38 469.36,-75.02"/>
</g>
<!-- Node9&#45;&gt;Node2 -->
<g id="edge9" class="edge">
<title>Node9&#45;&gt;Node2</title>
<path fill="none" stroke="#63b8ff" d="M408.51,-54.98C373.74,-45.68 318.03,-30.76 280.82,-20.8"/>
<polygon fill="#63b8ff" stroke="#63b8ff" points="281.41,-17.34 270.85,-18.13 279.6,-24.1 281.41,-17.34"/>
</g>
<!-- Node10 -->
<g id="node10" class="node">
<title>Node10</title>
<g id="a_node10"><a xlink:href="../../db/d16/config_8h.html" target="_top" xlink:title="InputHandler library user configurable items.">
<polygon fill="white" stroke="#666666" points="465.33,-19 415.33,-19 415.33,0 465.33,0 465.33,-19"/>
<text text-anchor="middle" x="440.33" y="-7" font-family="Helvetica,sans-Serif" font-size="10.00">config.h</text>
</a>
</g>
</g>
<!-- Node9&#45;&gt;Node10 -->
<g id="edge10" class="edge">
<title>Node9&#45;&gt;Node10</title>
<path fill="none" stroke="#63b8ff" d="M440.33,-54.75C440.33,-47.8 440.33,-37.85 440.33,-29.13"/>
<polygon fill="#63b8ff" stroke="#63b8ff" points="443.83,-29.09 440.33,-19.09 436.83,-29.09 443.83,-29.09"/>
</g>
</g>
</svg>
