<?xml version="1.0" encoding="UTF-8" standalone="no"?>
<!DOCTYPE svg PUBLIC "-//W3C//DTD SVG 1.1//EN"
 "http://www.w3.org/Graphics/SVG/1.1/DTD/svg11.dtd">
<!-- Generated by graphviz version 5.0.1 (20220820.1526)
 -->
<!-- Title: cli_gen_tool.MainWindow Pages: 1 -->
<svg width="319pt" height="446pt"
 viewBox="0.00 0.00 319.00 446.00" xmlns="http://www.w3.org/2000/svg" xmlns:xlink="http://www.w3.org/1999/xlink">
<g id="graph0" class="graph" transform="scale(1 1) rotate(0) translate(4 442)">
<title>cli_gen_tool.MainWindow</title>
<!-- Node1 -->
<g id="node1" class="node">
<title>Node1</title>
<g id="a_node1"><a xlink:title="This is the main display window.">
<polygon fill="#bfbfbf" stroke="black" points="185,-209.5 185,-228.5 311,-228.5 311,-209.5 185,-209.5"/>
<text text-anchor="middle" x="248" y="-216.5" font-family="Helvetica,sans-Serif" font-size="10.00">cli_gen_tool.MainWindow</text>
</a>
</g>
</g>
<!-- Node2 -->
<g id="node2" class="node">
<title>Node2</title>
<g id="a_node2"><a xlink:title=" ">
<polygon fill="none" stroke="black" points="34.5,-418.5 34.5,-437.5 114.5,-437.5 114.5,-418.5 34.5,-418.5"/>
<text text-anchor="middle" x="74.5" y="-425.5" font-family="Helvetica,sans-Serif" font-size="10.00">QMainWindow</text>
</a>
</g>
</g>
<!-- Node2&#45;&gt;Node1 -->
<g id="edge1" class="edge">
<title>Node2&#45;&gt;Node1</title>
<path fill="none" stroke="midnightblue" d="M124.47,-421.48C133.27,-418.67 141.89,-414.68 149,-409 211.07,-359.44 237.85,-259.97 244.96,-228.66"/>
<polygon fill="midnightblue" stroke="midnightblue" points="123.27,-418.18 114.54,-424.18 125.1,-424.94 123.27,-418.18"/>
</g>
<!-- Node3 -->
<g id="node3" class="node">
<title>Node3</title>
<g id="a_node3"><a xlink:title=" ">
<polygon fill="none" stroke="black" points="7.5,-380.5 7.5,-399.5 141.5,-399.5 141.5,-380.5 7.5,-380.5"/>
<text text-anchor="middle" x="74.5" y="-387.5" font-family="Helvetica,sans-Serif" font-size="10.00">SettingsTreeTableMethods</text>
</a>
</g>
</g>
<!-- Node3&#45;&gt;Node1 -->
<g id="edge2" class="edge">
<title>Node3&#45;&gt;Node1</title>
<path fill="none" stroke="midnightblue" d="M140.51,-376.22C143.48,-374.66 146.33,-372.93 149,-371 202.2,-332.58 233.85,-255.58 243.68,-228.6"/>
<polygon fill="midnightblue" stroke="midnightblue" points="138.97,-373.07 131.31,-380.39 141.86,-379.45 138.97,-373.07"/>
</g>
<!-- Node4 -->
<g id="node4" class="node">
<title>Node4</title>
<g id="a_node4"><a xlink:title=" ">
<polygon fill="none" stroke="black" points="33,-342.5 33,-361.5 116,-361.5 116,-342.5 33,-342.5"/>
<text text-anchor="middle" x="74.5" y="-349.5" font-family="Helvetica,sans-Serif" font-size="10.00">HelperMethods</text>
</a>
</g>
</g>
<!-- Node4&#45;&gt;Node1 -->
<g id="edge3" class="edge">
<title>Node4&#45;&gt;Node1</title>
<path fill="none" stroke="midnightblue" d="M125.99,-343.31C134.03,-340.72 142,-337.36 149,-333 193.53,-305.27 228.55,-250.81 241.54,-228.69"/>
<polygon fill="midnightblue" stroke="midnightblue" points="124.85,-340 116.19,-346.11 126.77,-346.73 124.85,-340"/>
</g>
<!-- Node5 -->
<g id="node5" class="node">
<title>Node5</title>
<g id="a_node5"><a xlink:title=" ">
<polygon fill="none" stroke="black" points="22,-304.5 22,-323.5 127,-323.5 127,-304.5 22,-304.5"/>
<text text-anchor="middle" x="74.5" y="-311.5" font-family="Helvetica,sans-Serif" font-size="10.00">MainWindowActions</text>
</a>
</g>
</g>
<!-- Node5&#45;&gt;Node1 -->
<g id="edge4" class="edge">
<title>Node5&#45;&gt;Node1</title>
<path fill="none" stroke="midnightblue" d="M133.59,-301.38C138.9,-299.51 144.12,-297.4 149,-295 185.14,-277.26 220.77,-244.88 237.36,-228.72"/>
<polygon fill="midnightblue" stroke="midnightblue" points="132.41,-298.08 123.96,-304.47 134.55,-304.74 132.41,-298.08"/>
</g>
<!-- Node6 -->
<g id="node6" class="node">
<title>Node6</title>
<g id="a_node6"><a xlink:title=" ">
<polygon fill="none" stroke="black" points="37.5,-266.5 37.5,-285.5 111.5,-285.5 111.5,-266.5 37.5,-266.5"/>
<text text-anchor="middle" x="74.5" y="-273.5" font-family="Helvetica,sans-Serif" font-size="10.00">CodePreview</text>
</a>
</g>
</g>
<!-- Node6&#45;&gt;Node1 -->
<g id="edge5" class="edge">
<title>Node6&#45;&gt;Node1</title>
<path fill="none" stroke="midnightblue" d="M121.42,-265.01C130.61,-262.57 140.16,-259.85 149,-257 175.4,-248.5 205,-236.7 224.69,-228.51"/>
<polygon fill="midnightblue" stroke="midnightblue" points="120.43,-261.65 111.63,-267.56 122.19,-268.43 120.43,-261.65"/>
</g>
<!-- Node7 -->
<g id="node7" class="node">
<title>Node7</title>
<g id="a_node7"><a xlink:title=" ">
<polygon fill="none" stroke="black" points="19.5,-228.5 19.5,-247.5 129.5,-247.5 129.5,-228.5 19.5,-228.5"/>
<text text-anchor="middle" x="74.5" y="-235.5" font-family="Helvetica,sans-Serif" font-size="10.00">SettingsTreeMethods</text>
</a>
</g>
</g>
<!-- Node7&#45;&gt;Node1 -->
<g id="edge6" class="edge">
<title>Node7&#45;&gt;Node1</title>
<path fill="none" stroke="midnightblue" d="M139.78,-230.88C154.49,-229.25 170.1,-227.52 184.72,-225.9"/>
<polygon fill="midnightblue" stroke="midnightblue" points="139.32,-227.41 129.76,-231.99 140.09,-234.37 139.32,-227.41"/>
</g>
<!-- Node8 -->
<g id="node8" class="node">
<title>Node8</title>
<g id="a_node8"><a xlink:title=" ">
<polygon fill="none" stroke="black" points="0,-190.5 0,-209.5 149,-209.5 149,-190.5 0,-190.5"/>
<text text-anchor="middle" x="74.5" y="-197.5" font-family="Helvetica,sans-Serif" font-size="10.00">CommandParametersMethods</text>
</a>
</g>
</g>
<!-- Node8&#45;&gt;Node1 -->
<g id="edge7" class="edge">
<title>Node8&#45;&gt;Node1</title>
<path fill="none" stroke="midnightblue" d="M159.32,-209.29C167.94,-210.24 176.59,-211.2 184.91,-212.12"/>
<polygon fill="midnightblue" stroke="midnightblue" points="159.55,-205.79 149.23,-208.17 158.78,-212.75 159.55,-205.79"/>
</g>
<!-- Node9 -->
<g id="node9" class="node">
<title>Node9</title>
<g id="a_node9"><a xlink:title=" ">
<polygon fill="none" stroke="black" points="21.5,-152.5 21.5,-171.5 127.5,-171.5 127.5,-152.5 21.5,-152.5"/>
<text text-anchor="middle" x="74.5" y="-159.5" font-family="Helvetica,sans-Serif" font-size="10.00">MainWindowButtons</text>
</a>
</g>
</g>
<!-- Node9&#45;&gt;Node1 -->
<g id="edge8" class="edge">
<title>Node9&#45;&gt;Node1</title>
<path fill="none" stroke="midnightblue" d="M125.64,-174.12C133.5,-176.26 141.5,-178.59 149,-181 175.4,-189.5 205,-201.3 224.69,-209.49"/>
<polygon fill="midnightblue" stroke="midnightblue" points="126.36,-170.69 115.8,-171.51 124.57,-177.46 126.36,-170.69"/>
</g>
<!-- Node10 -->
<g id="node10" class="node">
<title>Node10</title>
<g id="a_node10"><a xlink:title=" ">
<polygon fill="none" stroke="black" points="12,-114.5 12,-133.5 137,-133.5 137,-114.5 12,-114.5"/>
<text text-anchor="middle" x="74.5" y="-121.5" font-family="Helvetica,sans-Serif" font-size="10.00">ParseInputHandlerConfig</text>
</a>
</g>
</g>
<!-- Node10&#45;&gt;Node1 -->
<g id="edge9" class="edge">
<title>Node10&#45;&gt;Node1</title>
<path fill="none" stroke="midnightblue" d="M133.59,-136.62C138.9,-138.49 144.12,-140.6 149,-143 185.14,-160.74 220.77,-193.12 237.36,-209.28"/>
<polygon fill="midnightblue" stroke="midnightblue" points="134.55,-133.26 123.96,-133.53 132.41,-139.92 134.55,-133.26"/>
</g>
<!-- Node11 -->
<g id="node11" class="node">
<title>Node11</title>
<g id="a_node11"><a xlink:title=" ">
<polygon fill="none" stroke="black" points="37.5,-76.5 37.5,-95.5 111.5,-95.5 111.5,-76.5 37.5,-76.5"/>
<text text-anchor="middle" x="74.5" y="-83.5" font-family="Helvetica,sans-Serif" font-size="10.00">CLIfilestrings</text>
</a>
</g>
</g>
<!-- Node11&#45;&gt;Node1 -->
<g id="edge10" class="edge">
<title>Node11&#45;&gt;Node1</title>
<path fill="none" stroke="midnightblue" d="M121.49,-93.31C131.03,-96.06 140.7,-99.83 149,-105 193.53,-132.73 228.55,-187.19 241.54,-209.31"/>
<polygon fill="midnightblue" stroke="midnightblue" points="122.21,-89.89 111.65,-90.81 120.48,-96.67 122.21,-89.89"/>
</g>
<!-- Node12 -->
<g id="node12" class="node">
<title>Node12</title>
<g id="a_node12"><a xlink:title=" ">
<polygon fill="none" stroke="black" points="15.5,-38.5 15.5,-57.5 133.5,-57.5 133.5,-38.5 15.5,-38.5"/>
<text text-anchor="middle" x="74.5" y="-45.5" font-family="Helvetica,sans-Serif" font-size="10.00">CommandTreeMethods</text>
</a>
</g>
</g>
<!-- Node12&#45;&gt;Node1 -->
<g id="edge11" class="edge">
<title>Node12&#45;&gt;Node1</title>
<path fill="none" stroke="midnightblue" d="M140.51,-61.78C143.48,-63.34 146.33,-65.07 149,-67 202.2,-105.42 233.85,-182.42 243.68,-209.4"/>
<polygon fill="midnightblue" stroke="midnightblue" points="141.86,-58.55 131.31,-57.61 138.97,-64.93 141.86,-58.55"/>
</g>
<!-- Node13 -->
<g id="node13" class="node">
<title>Node13</title>
<g id="a_node13"><a xlink:title=" ">
<polygon fill="none" stroke="black" points="21,-0.5 21,-19.5 128,-19.5 128,-0.5 21,-0.5"/>
<text text-anchor="middle" x="74.5" y="-7.5" font-family="Helvetica,sans-Serif" font-size="10.00">PreferencesMethods</text>
</a>
</g>
</g>
<!-- Node13&#45;&gt;Node1 -->
<g id="edge12" class="edge">
<title>Node13&#45;&gt;Node1</title>
<path fill="none" stroke="midnightblue" d="M137.52,-21.76C141.61,-23.8 145.49,-26.2 149,-29 211.07,-78.56 237.85,-178.03 244.96,-209.34"/>
<polygon fill="midnightblue" stroke="midnightblue" points="138.86,-18.53 128.29,-17.82 136.11,-24.96 138.86,-18.53"/>
</g>
</g>
</svg>
