<?xml version="1.0" encoding="UTF-8" standalone="no"?>
<!DOCTYPE svg PUBLIC "-//W3C//DTD SVG 1.1//EN"
 "http://www.w3.org/Graphics/SVG/1.1/DTD/svg11.dtd">
<!-- Generated by graphviz version 6.0.1 (20220911.1526)
 -->
<!-- Title: cli_gen_tool.MainWindow Pages: 1 -->
<svg width="319pt" height="434pt"
 viewBox="0.00 0.00 319.00 434.00" xmlns="http://www.w3.org/2000/svg" xmlns:xlink="http://www.w3.org/1999/xlink">
<g id="graph0" class="graph" transform="scale(1 1) rotate(0) translate(4 430)">
<title>cli_gen_tool.MainWindow</title>
<!-- Node1 -->
<g id="node1" class="node">
<title>Node1</title>
<g id="a_node1"><a xlink:title="This is the main display window.">
<polygon fill="#999999" stroke="#666666" points="311,-222 185,-222 185,-203 311,-203 311,-222"/>
<text text-anchor="middle" x="248" y="-210" font-family="Helvetica,sans-Serif" font-size="10.00">cli_gen_tool.MainWindow</text>
</a>
</g>
</g>
<!-- Node2 -->
<g id="node2" class="node">
<title>Node2</title>
<g id="a_node2"><a xlink:title=" ">
<polygon fill="white" stroke="#666666" points="114.5,-426 34.5,-426 34.5,-407 114.5,-407 114.5,-426"/>
<text text-anchor="middle" x="74.5" y="-414" font-family="Helvetica,sans-Serif" font-size="10.00">QMainWindow</text>
</a>
</g>
</g>
<!-- Node2&#45;&gt;Node1 -->
<g id="edge1" class="edge">
<title>Node2&#45;&gt;Node1</title>
<path fill="none" stroke="#63b8ff" d="M124.69,-410.57C133.4,-407.88 141.93,-404.02 149,-398.5 210.27,-350.65 237.43,-253.66 244.82,-222.43"/>
<polygon fill="#63b8ff" stroke="#63b8ff" points="123.65,-407.22 114.86,-413.13 125.41,-414 123.65,-407.22"/>
</g>
<!-- Node3 -->
<g id="node3" class="node">
<title>Node3</title>
<g id="a_node3"><a xlink:title=" ">
<polygon fill="white" stroke="#666666" points="141.5,-389 7.5,-389 7.5,-370 141.5,-370 141.5,-389"/>
<text text-anchor="middle" x="74.5" y="-377" font-family="Helvetica,sans-Serif" font-size="10.00">SettingsTreeTableMethods</text>
</a>
</g>
</g>
<!-- Node3&#45;&gt;Node1 -->
<g id="edge2" class="edge">
<title>Node3&#45;&gt;Node1</title>
<path fill="none" stroke="#63b8ff" d="M142.36,-365.62C144.66,-364.36 146.89,-362.99 149,-361.5 201.62,-324.37 233.43,-249.21 243.51,-222.33"/>
<polygon fill="#63b8ff" stroke="#63b8ff" points="140.72,-362.52 133.14,-369.92 143.68,-368.86 140.72,-362.52"/>
</g>
<!-- Node4 -->
<g id="node4" class="node">
<title>Node4</title>
<g id="a_node4"><a xlink:title=" ">
<polygon fill="white" stroke="#666666" points="116,-352 33,-352 33,-333 116,-333 116,-352"/>
<text text-anchor="middle" x="74.5" y="-340" font-family="Helvetica,sans-Serif" font-size="10.00">HelperMethods</text>
</a>
</g>
</g>
<!-- Node4&#45;&gt;Node1 -->
<g id="edge3" class="edge">
<title>Node4&#45;&gt;Node1</title>
<path fill="none" stroke="#63b8ff" d="M125.95,-334.51C134,-332.03 141.98,-328.77 149,-324.5 193.38,-297.53 228.48,-243.87 241.52,-222.05"/>
<polygon fill="#63b8ff" stroke="#63b8ff" points="124.88,-331.17 116.15,-337.18 126.72,-337.93 124.88,-331.17"/>
</g>
<!-- Node5 -->
<g id="node5" class="node">
<title>Node5</title>
<g id="a_node5"><a xlink:title=" ">
<polygon fill="white" stroke="#666666" points="127,-315 22,-315 22,-296 127,-296 127,-315"/>
<text text-anchor="middle" x="74.5" y="-303" font-family="Helvetica,sans-Serif" font-size="10.00">MainWindowActions</text>
</a>
</g>
</g>
<!-- Node5&#45;&gt;Node1 -->
<g id="edge4" class="edge">
<title>Node5&#45;&gt;Node1</title>
<path fill="none" stroke="#63b8ff" d="M136.1,-292.82C140.54,-291.23 144.89,-289.47 149,-287.5 185.13,-270.19 220.77,-238.15 237.35,-222.14"/>
<polygon fill="#63b8ff" stroke="#63b8ff" points="134.72,-289.59 126.28,-295.99 136.87,-296.25 134.72,-289.59"/>
</g>
<!-- Node6 -->
<g id="node6" class="node">
<title>Node6</title>
<g id="a_node6"><a xlink:title=" ">
<polygon fill="white" stroke="#666666" points="111.5,-278 37.5,-278 37.5,-259 111.5,-259 111.5,-278"/>
<text text-anchor="middle" x="74.5" y="-266" font-family="Helvetica,sans-Serif" font-size="10.00">CodePreview</text>
</a>
</g>
</g>
<!-- Node6&#45;&gt;Node1 -->
<g id="edge5" class="edge">
<title>Node6&#45;&gt;Node1</title>
<path fill="none" stroke="#63b8ff" d="M121.43,-258.23C130.62,-255.9 140.17,-253.28 149,-250.5 175.46,-242.17 205.04,-230.34 224.72,-222.09"/>
<polygon fill="#63b8ff" stroke="#63b8ff" points="120.52,-254.84 111.65,-260.63 122.19,-261.64 120.52,-254.84"/>
</g>
<!-- Node7 -->
<g id="node7" class="node">
<title>Node7</title>
<g id="a_node7"><a xlink:title=" ">
<polygon fill="white" stroke="#666666" points="129.5,-241 19.5,-241 19.5,-222 129.5,-222 129.5,-241"/>
<text text-anchor="middle" x="74.5" y="-229" font-family="Helvetica,sans-Serif" font-size="10.00">SettingsTreeMethods</text>
</a>
</g>
</g>
<!-- Node7&#45;&gt;Node1 -->
<g id="edge6" class="edge">
<title>Node7&#45;&gt;Node1</title>
<path fill="none" stroke="#63b8ff" d="M139.78,-224.38C154.49,-222.75 170.1,-221.02 184.72,-219.4"/>
<polygon fill="#63b8ff" stroke="#63b8ff" points="139.32,-220.91 129.76,-225.49 140.09,-227.87 139.32,-220.91"/>
</g>
<!-- Node8 -->
<g id="node8" class="node">
<title>Node8</title>
<g id="a_node8"><a xlink:title=" ">
<polygon fill="white" stroke="#666666" points="149,-204 0,-204 0,-185 149,-185 149,-204"/>
<text text-anchor="middle" x="74.5" y="-192" font-family="Helvetica,sans-Serif" font-size="10.00">CommandParametersMethods</text>
</a>
</g>
</g>
<!-- Node8&#45;&gt;Node1 -->
<g id="edge7" class="edge">
<title>Node8&#45;&gt;Node1</title>
<path fill="none" stroke="#63b8ff" d="M159.32,-203.3C167.94,-204.2 176.59,-205.11 184.91,-205.98"/>
<polygon fill="#63b8ff" stroke="#63b8ff" points="159.54,-199.8 149.23,-202.24 158.81,-206.76 159.54,-199.8"/>
</g>
<!-- Node9 -->
<g id="node9" class="node">
<title>Node9</title>
<g id="a_node9"><a xlink:title=" ">
<polygon fill="white" stroke="#666666" points="127.5,-167 21.5,-167 21.5,-148 127.5,-148 127.5,-167"/>
<text text-anchor="middle" x="74.5" y="-155" font-family="Helvetica,sans-Serif" font-size="10.00">MainWindowButtons</text>
</a>
</g>
</g>
<!-- Node9&#45;&gt;Node1 -->
<g id="edge8" class="edge">
<title>Node9&#45;&gt;Node1</title>
<path fill="none" stroke="#63b8ff" d="M125.05,-169.59C133.1,-171.76 141.31,-174.1 149,-176.5 174.61,-184.49 203.36,-195.28 223.06,-202.95"/>
<polygon fill="#63b8ff" stroke="#63b8ff" points="125.94,-166.21 115.37,-167.04 124.15,-172.98 125.94,-166.21"/>
</g>
<!-- Node10 -->
<g id="node10" class="node">
<title>Node10</title>
<g id="a_node10"><a xlink:title=" ">
<polygon fill="white" stroke="#666666" points="137,-130 12,-130 12,-111 137,-111 137,-130"/>
<text text-anchor="middle" x="74.5" y="-118" font-family="Helvetica,sans-Serif" font-size="10.00">ParseInputHandlerConfig</text>
</a>
</g>
</g>
<!-- Node10&#45;&gt;Node1 -->
<g id="edge9" class="edge">
<title>Node10&#45;&gt;Node1</title>
<path fill="none" stroke="#63b8ff" d="M133.3,-133.14C138.71,-135 144.02,-137.12 149,-139.5 184.59,-156.54 220.2,-187.36 237.01,-202.93"/>
<polygon fill="#63b8ff" stroke="#63b8ff" points="134.1,-129.72 123.51,-130.04 131.99,-136.39 134.1,-129.72"/>
</g>
<!-- Node11 -->
<g id="node11" class="node">
<title>Node11</title>
<g id="a_node11"><a xlink:title=" ">
<polygon fill="white" stroke="#666666" points="111.5,-93 37.5,-93 37.5,-74 111.5,-74 111.5,-93"/>
<text text-anchor="middle" x="74.5" y="-81" font-family="Helvetica,sans-Serif" font-size="10.00">CLIfilestrings</text>
</a>
</g>
</g>
<!-- Node11&#45;&gt;Node1 -->
<g id="edge10" class="edge">
<title>Node11&#45;&gt;Node1</title>
<path fill="none" stroke="#63b8ff" d="M121.42,-90.93C130.96,-93.67 140.65,-97.4 149,-102.5 192.66,-129.15 227.92,-181.3 241.25,-202.84"/>
<polygon fill="#63b8ff" stroke="#63b8ff" points="122.14,-87.5 111.58,-88.42 120.41,-94.28 122.14,-87.5"/>
</g>
<!-- Node12 -->
<g id="node12" class="node">
<title>Node12</title>
<g id="a_node12"><a xlink:title=" ">
<polygon fill="white" stroke="#666666" points="133.5,-56 15.5,-56 15.5,-37 133.5,-37 133.5,-56"/>
<text text-anchor="middle" x="74.5" y="-44" font-family="Helvetica,sans-Serif" font-size="10.00">CommandTreeMethods</text>
</a>
</g>
</g>
<!-- Node12&#45;&gt;Node1 -->
<g id="edge11" class="edge">
<title>Node12&#45;&gt;Node1</title>
<path fill="none" stroke="#63b8ff" d="M140.29,-60.24C143.34,-61.81 146.26,-63.55 149,-65.5 201,-102.46 233.2,-176.4 243.44,-202.83"/>
<polygon fill="#63b8ff" stroke="#63b8ff" points="141.43,-56.91 130.87,-56.05 138.59,-63.31 141.43,-56.91"/>
</g>
<!-- Node13 -->
<g id="node13" class="node">
<title>Node13</title>
<g id="a_node13"><a xlink:title=" ">
<polygon fill="white" stroke="#666666" points="128,-19 21,-19 21,0 128,0 128,-19"/>
<text text-anchor="middle" x="74.5" y="-7" font-family="Helvetica,sans-Serif" font-size="10.00">PreferencesMethods</text>
</a>
</g>
</g>
<!-- Node13&#45;&gt;Node1 -->
<g id="edge12" class="edge">
<title>Node13&#45;&gt;Node1</title>
<path fill="none" stroke="#63b8ff" d="M137.47,-21.31C141.57,-23.34 145.47,-25.72 149,-28.5 209.56,-76.2 237.19,-171.9 244.76,-202.71"/>
<polygon fill="#63b8ff" stroke="#63b8ff" points="138.81,-18.07 128.24,-17.39 136.07,-24.52 138.81,-18.07"/>
</g>
</g>
</svg>
