<?xml version="1.0" encoding="UTF-8" standalone="no"?>
<!DOCTYPE svg PUBLIC "-//W3C//DTD SVG 1.1//EN"
 "http://www.w3.org/Graphics/SVG/1.1/DTD/svg11.dtd">
<!-- Generated by graphviz version 3.0.0 (20220413.0106)
 -->
<!-- Title: src/config/InputHandler_config.h Pages: 1 -->
<svg width="2289pt" height="396pt"
 viewBox="0.00 0.00 2289.00 396.00" xmlns="http://www.w3.org/2000/svg" xmlns:xlink="http://www.w3.org/1999/xlink">
<g id="graph0" class="graph" transform="scale(1 1) rotate(0) translate(4 392)">
<title>src/config/InputHandler_config.h</title>
<!-- Node1 -->
<g id="node1" class="node">
<title>Node1</title>
<g id="a_node1"><a xlink:title="InputHandler library configuration file.">
<polygon fill="#bfbfbf" stroke="black" points="980,-357.5 980,-387.5 1097,-387.5 1097,-357.5 980,-357.5"/>
<text text-anchor="start" x="988" y="-375.5" font-family="Helvetica,sans-Serif" font-size="10.00">src/config/InputHandler</text>
<text text-anchor="middle" x="1038.5" y="-364.5" font-family="Helvetica,sans-Serif" font-size="10.00">_config.h</text>
</a>
</g>
</g>
<!-- Node2 -->
<g id="node2" class="node">
<title>Node2</title>
<g id="a_node2"><a xlink:href="../../df/dec/_input_handler_8h.html" target="_top" xlink:title="InputHandler library header file.">
<polygon fill="none" stroke="black" points="990.5,-301.5 990.5,-320.5 1086.5,-320.5 1086.5,-301.5 990.5,-301.5"/>
<text text-anchor="middle" x="1038.5" y="-308.5" font-family="Helvetica,sans-Serif" font-size="10.00">src/InputHandler.h</text>
</a>
</g>
</g>
<!-- Node1&#45;&gt;Node2 -->
<g id="edge1" class="edge">
<title>Node1&#45;&gt;Node2</title>
<path fill="none" stroke="midnightblue" d="M1038.5,-347.29C1038.5,-337.86 1038.5,-327.65 1038.5,-320.66"/>
<polygon fill="midnightblue" stroke="midnightblue" points="1035,-347.4 1038.5,-357.4 1042,-347.4 1035,-347.4"/>
</g>
<!-- Node3 -->
<g id="node3" class="node">
<title>Node3</title>
<g id="a_node3"><a xlink:href="../../db/dc6/advanced_2_get_command_from_stream_2_get_command_from_stream_8ino.html" target="_top" xlink:title="An example that demonstrates how to use all of the available methods.">
<polygon fill="none" stroke="black" points="0,-223.5 0,-264.5 179,-264.5 179,-223.5 0,-223.5"/>
<text text-anchor="start" x="8" y="-252.5" font-family="Helvetica,sans-Serif" font-size="10.00">examples/all_platforms</text>
<text text-anchor="start" x="8" y="-241.5" font-family="Helvetica,sans-Serif" font-size="10.00">/advanced/GetCommandFromStream</text>
<text text-anchor="middle" x="89.5" y="-230.5" font-family="Helvetica,sans-Serif" font-size="10.00">/GetCommandFromStream.ino</text>
</a>
</g>
</g>
<!-- Node2&#45;&gt;Node3 -->
<g id="edge2" class="edge">
<title>Node2&#45;&gt;Node3</title>
<path fill="none" stroke="midnightblue" d="M980,-309.85C841.75,-308.84 484.26,-302.5 188.5,-265 185.46,-264.61 182.37,-264.19 179.25,-263.73"/>
<polygon fill="midnightblue" stroke="midnightblue" points="980.33,-313.35 990.35,-309.91 980.38,-306.35 980.33,-313.35"/>
</g>
<!-- Node4 -->
<g id="node4" class="node">
<title>Node4</title>
<g id="a_node4"><a xlink:href="../../d0/dd9/cli__setup_8h.html" target="_top" xlink:title="setup example for MultiFile.ino">
<polygon fill="none" stroke="black" points="197.5,-223.5 197.5,-264.5 317.5,-264.5 317.5,-223.5 197.5,-223.5"/>
<text text-anchor="start" x="205.5" y="-252.5" font-family="Helvetica,sans-Serif" font-size="10.00">examples/all_platforms</text>
<text text-anchor="start" x="205.5" y="-241.5" font-family="Helvetica,sans-Serif" font-size="10.00">/advanced/MultiFile/CLI</text>
<text text-anchor="middle" x="257.5" y="-230.5" font-family="Helvetica,sans-Serif" font-size="10.00">/cli_setup.h</text>
</a>
</g>
</g>
<!-- Node2&#45;&gt;Node4 -->
<g id="edge3" class="edge">
<title>Node2&#45;&gt;Node4</title>
<path fill="none" stroke="midnightblue" d="M980.26,-305.15C836.14,-293.16 463.95,-262.18 317.74,-250.01"/>
<polygon fill="midnightblue" stroke="midnightblue" points="979.98,-308.64 990.23,-305.98 980.56,-301.67 979.98,-308.64"/>
</g>
<!-- Node8 -->
<g id="node8" class="node">
<title>Node8</title>
<g id="a_node8"><a xlink:href="../../dd/d65/_n_m_e_aparser_8ino.html" target="_top" xlink:title="An example that demonstrates how to use InputHandler&#39;s public methods to parse NMEA 0183 sentences.">
<polygon fill="none" stroke="black" points="473.5,-0.5 473.5,-30.5 667.5,-30.5 667.5,-0.5 473.5,-0.5"/>
<text text-anchor="start" x="481.5" y="-18.5" font-family="Helvetica,sans-Serif" font-size="10.00">examples/all_platforms</text>
<text text-anchor="middle" x="570.5" y="-7.5" font-family="Helvetica,sans-Serif" font-size="10.00">/advanced/NMEAparser/NMEAparser.ino</text>
</a>
</g>
</g>
<!-- Node2&#45;&gt;Node8 -->
<g id="edge9" class="edge">
<title>Node2&#45;&gt;Node8</title>
<path fill="none" stroke="midnightblue" d="M979.94,-308.7C857.27,-305.4 582.15,-294.73 552.5,-265 490.21,-202.53 513.92,-151.73 538.5,-67 542.38,-53.64 550.96,-40.43 558.26,-30.88"/>
<polygon fill="midnightblue" stroke="midnightblue" points="980.18,-312.21 990.27,-308.97 980.36,-305.21 980.18,-312.21"/>
</g>
<!-- Node9 -->
<g id="node9" class="node">
<title>Node9</title>
<g id="a_node9"><a xlink:href="../../da/d60/_n_m_e_aparser_8h.html" target="_top" xlink:title="a class to assist in parsing NMEA 0183 strings">
<polygon fill="none" stroke="black" points="547.5,-67.5 547.5,-108.5 697.5,-108.5 697.5,-67.5 547.5,-67.5"/>
<text text-anchor="start" x="555.5" y="-96.5" font-family="Helvetica,sans-Serif" font-size="10.00">examples/all_platforms</text>
<text text-anchor="start" x="555.5" y="-85.5" font-family="Helvetica,sans-Serif" font-size="10.00">/advanced/NMEAparser/parser</text>
<text text-anchor="middle" x="622.5" y="-74.5" font-family="Helvetica,sans-Serif" font-size="10.00">/NMEAparser.h</text>
</a>
</g>
</g>
<!-- Node2&#45;&gt;Node9 -->
<g id="edge10" class="edge">
<title>Node2&#45;&gt;Node9</title>
<path fill="none" stroke="midnightblue" d="M980.1,-308.6C861.88,-305.18 603.14,-294.37 576.5,-265 540.66,-225.5 558.52,-195.21 576.5,-145 581.42,-131.26 591.33,-118.47 600.69,-108.6"/>
<polygon fill="midnightblue" stroke="midnightblue" points="980.32,-312.11 990.41,-308.9 980.51,-305.12 980.32,-312.11"/>
</g>
<!-- Node10 -->
<g id="node10" class="node">
<title>Node10</title>
<g id="a_node10"><a xlink:href="../../d2/d20/_n_m_e_asentencefunc_8h.html" target="_top" xlink:title="NMEA 0183 sentence functions.">
<polygon fill="none" stroke="black" points="585.5,-223.5 585.5,-264.5 735.5,-264.5 735.5,-223.5 585.5,-223.5"/>
<text text-anchor="start" x="593.5" y="-252.5" font-family="Helvetica,sans-Serif" font-size="10.00">examples/all_platforms</text>
<text text-anchor="start" x="593.5" y="-241.5" font-family="Helvetica,sans-Serif" font-size="10.00">/advanced/NMEAparser/parser</text>
<text text-anchor="middle" x="660.5" y="-230.5" font-family="Helvetica,sans-Serif" font-size="10.00">/NMEAsentencefunc.h</text>
</a>
</g>
</g>
<!-- Node2&#45;&gt;Node10 -->
<g id="edge12" class="edge">
<title>Node2&#45;&gt;Node10</title>
<path fill="none" stroke="midnightblue" d="M980.1,-302.07C921.59,-293.85 829.03,-280.11 749.5,-265 744.99,-264.14 740.36,-263.22 735.69,-262.27"/>
<polygon fill="midnightblue" stroke="midnightblue" points="979.88,-305.57 990.26,-303.49 980.84,-298.64 979.88,-305.57"/>
</g>
<!-- Node11 -->
<g id="node11" class="node">
<title>Node11</title>
<g id="a_node11"><a xlink:href="../../da/dff/_n_m_e_asentenceparam_8h.html" target="_top" xlink:title="NMEA 0183 sentence CommandParameters structs.">
<polygon fill="none" stroke="black" points="585.5,-145.5 585.5,-186.5 735.5,-186.5 735.5,-145.5 585.5,-145.5"/>
<text text-anchor="start" x="593.5" y="-174.5" font-family="Helvetica,sans-Serif" font-size="10.00">examples/all_platforms</text>
<text text-anchor="start" x="593.5" y="-163.5" font-family="Helvetica,sans-Serif" font-size="10.00">/advanced/NMEAparser/parser</text>
<text text-anchor="middle" x="660.5" y="-152.5" font-family="Helvetica,sans-Serif" font-size="10.00">/NMEAsentenceparam.h</text>
</a>
</g>
</g>
<!-- Node2&#45;&gt;Node11 -->
<g id="edge15" class="edge">
<title>Node2&#45;&gt;Node11</title>
<path fill="none" stroke="midnightblue" d="M979.98,-310.34C925.65,-308.3 844.1,-299.03 782.5,-265 760.47,-252.83 763.56,-239.44 744.5,-223 728.97,-209.61 710.09,-196.76 694.17,-186.76"/>
<polygon fill="midnightblue" stroke="midnightblue" points="980.04,-313.85 990.14,-310.66 980.25,-306.85 980.04,-313.85"/>
</g>
<!-- Node12 -->
<g id="node12" class="node">
<title>Node12</title>
<g id="a_node12"><a xlink:href="../../da/d0f/_nested_commands_8ino.html" target="_top" xlink:title="An example that demonstrates nested subcommands.">
<polygon fill="none" stroke="black" points="791.5,-223.5 791.5,-264.5 937.5,-264.5 937.5,-223.5 791.5,-223.5"/>
<text text-anchor="start" x="799.5" y="-252.5" font-family="Helvetica,sans-Serif" font-size="10.00">examples/all_platforms</text>
<text text-anchor="start" x="799.5" y="-241.5" font-family="Helvetica,sans-Serif" font-size="10.00">/advanced/NestedCommands</text>
<text text-anchor="middle" x="864.5" y="-230.5" font-family="Helvetica,sans-Serif" font-size="10.00">/NestedCommands.ino</text>
</a>
</g>
</g>
<!-- Node2&#45;&gt;Node12 -->
<g id="edge16" class="edge">
<title>Node2&#45;&gt;Node12</title>
<path fill="none" stroke="midnightblue" d="M1006.01,-297.86C981.03,-288.53 945.99,-275.44 917.04,-264.63"/>
<polygon fill="midnightblue" stroke="midnightblue" points="1004.8,-301.15 1015.39,-301.37 1007.25,-294.59 1004.8,-301.15"/>
</g>
<!-- Node13 -->
<g id="node13" class="node">
<title>Node13</title>
<g id="a_node13"><a xlink:href="../../db/d8e/_b_l_e___u_a_r_t_8ino.html" target="_top" xlink:title=" ">
<polygon fill="none" stroke="black" points="955.5,-229 955.5,-259 1121.5,-259 1121.5,-229 955.5,-229"/>
<text text-anchor="start" x="963.5" y="-247" font-family="Helvetica,sans-Serif" font-size="10.00">examples/all_platforms</text>
<text text-anchor="middle" x="1038.5" y="-236" font-family="Helvetica,sans-Serif" font-size="10.00">/basic/BLE_UART/BLE_UART.ino</text>
</a>
</g>
</g>
<!-- Node2&#45;&gt;Node13 -->
<g id="edge17" class="edge">
<title>Node2&#45;&gt;Node13</title>
<path fill="none" stroke="midnightblue" d="M1038.5,-290.91C1038.5,-280.72 1038.5,-268.4 1038.5,-259.09"/>
<polygon fill="midnightblue" stroke="midnightblue" points="1035,-291.23 1038.5,-301.23 1042,-291.23 1035,-291.23"/>
</g>
<!-- Node14 -->
<g id="node14" class="node">
<title>Node14</title>
<g id="a_node14"><a xlink:href="../../d7/d82/basic_2_get_command_from_stream_2_get_command_from_stream_8ino.html" target="_top" xlink:title="A basic InputHandler demonstration.">
<polygon fill="none" stroke="black" points="1139.5,-223.5 1139.5,-264.5 1299.5,-264.5 1299.5,-223.5 1139.5,-223.5"/>
<text text-anchor="start" x="1147.5" y="-252.5" font-family="Helvetica,sans-Serif" font-size="10.00">examples/all_platforms</text>
<text text-anchor="start" x="1147.5" y="-241.5" font-family="Helvetica,sans-Serif" font-size="10.00">/basic/GetCommandFromStream</text>
<text text-anchor="middle" x="1219.5" y="-230.5" font-family="Helvetica,sans-Serif" font-size="10.00">/GetCommandFromStream.ino</text>
</a>
</g>
</g>
<!-- Node2&#45;&gt;Node14 -->
<g id="edge18" class="edge">
<title>Node2&#45;&gt;Node14</title>
<path fill="none" stroke="midnightblue" d="M1071.95,-297.99C1097.96,-288.65 1134.6,-275.49 1164.85,-264.63"/>
<polygon fill="midnightblue" stroke="midnightblue" points="1070.76,-294.69 1062.54,-301.37 1073.13,-301.28 1070.76,-294.69"/>
</g>
<!-- Node15 -->
<g id="node15" class="node">
<title>Node15</title>
<g id="a_node15"><a xlink:href="../../dc/d05/_lo_ra_receiver_8ino.html" target="_top" xlink:title=" ">
<polygon fill="none" stroke="black" points="1317.5,-223.5 1317.5,-264.5 1451.5,-264.5 1451.5,-223.5 1317.5,-223.5"/>
<text text-anchor="start" x="1325.5" y="-252.5" font-family="Helvetica,sans-Serif" font-size="10.00">examples/all_platforms</text>
<text text-anchor="start" x="1325.5" y="-241.5" font-family="Helvetica,sans-Serif" font-size="10.00">/basic/LoRa/LoRaReceiver</text>
<text text-anchor="middle" x="1384.5" y="-230.5" font-family="Helvetica,sans-Serif" font-size="10.00">/LoRaReceiver.ino</text>
</a>
</g>
</g>
<!-- Node2&#45;&gt;Node15 -->
<g id="edge19" class="edge">
<title>Node2&#45;&gt;Node15</title>
<path fill="none" stroke="midnightblue" d="M1096.78,-301.87C1151.66,-293.84 1236.04,-280.54 1308.5,-265 1311.43,-264.37 1314.43,-263.7 1317.44,-263"/>
<polygon fill="midnightblue" stroke="midnightblue" points="1095.94,-298.46 1086.55,-303.36 1096.95,-305.38 1095.94,-298.46"/>
</g>
<!-- Node16 -->
<g id="node16" class="node">
<title>Node16</title>
<g id="a_node16"><a xlink:href="../../d8/da2/_r_f24_8ino.html" target="_top" xlink:title=" ">
<polygon fill="none" stroke="black" points="1469.5,-229 1469.5,-259 1585.5,-259 1585.5,-229 1469.5,-229"/>
<text text-anchor="start" x="1477.5" y="-247" font-family="Helvetica,sans-Serif" font-size="10.00">examples/all_platforms</text>
<text text-anchor="middle" x="1527.5" y="-236" font-family="Helvetica,sans-Serif" font-size="10.00">/basic/RF24/RF24.ino</text>
</a>
</g>
</g>
<!-- Node2&#45;&gt;Node16 -->
<g id="edge20" class="edge">
<title>Node2&#45;&gt;Node16</title>
<path fill="none" stroke="midnightblue" d="M1096.83,-307.18C1178.73,-302.44 1332.17,-290.77 1460.5,-265 1468.36,-263.42 1476.61,-261.33 1484.54,-259.09"/>
<polygon fill="midnightblue" stroke="midnightblue" points="1096.5,-303.69 1086.72,-307.75 1096.9,-310.68 1096.5,-303.69"/>
</g>
<!-- Node17 -->
<g id="node17" class="node">
<title>Node17</title>
<g id="a_node17"><a xlink:href="../../df/d23/_read_command_from_buffer_m_q_t_t_8ino.html" target="_top" xlink:title="An example that demonstrates receiving commands and sending an echo over MQTT.">
<polygon fill="none" stroke="black" points="1603,-223.5 1603,-264.5 1808,-264.5 1808,-223.5 1603,-223.5"/>
<text text-anchor="start" x="1611" y="-252.5" font-family="Helvetica,sans-Serif" font-size="10.00">examples/all_platforms</text>
<text text-anchor="start" x="1611" y="-241.5" font-family="Helvetica,sans-Serif" font-size="10.00">/basic/ReadCommandFromBuffer</text>
<text text-anchor="middle" x="1705.5" y="-230.5" font-family="Helvetica,sans-Serif" font-size="10.00">MQTT/ReadCommandFromBufferMQTT.ino</text>
</a>
</g>
</g>
<!-- Node2&#45;&gt;Node17 -->
<g id="edge21" class="edge">
<title>Node2&#45;&gt;Node17</title>
<path fill="none" stroke="midnightblue" d="M1096.67,-307.16C1198.08,-301.8 1413.69,-288.55 1594.5,-265 1597.22,-264.65 1599.97,-264.27 1602.75,-263.88"/>
<polygon fill="midnightblue" stroke="midnightblue" points="1096.44,-303.67 1086.64,-307.69 1096.8,-310.66 1096.44,-303.67"/>
</g>
<!-- Node18 -->
<g id="node18" class="node">
<title>Node18</title>
<g id="a_node18"><a xlink:href="../../d1/d96/_wildcard_commands_8ino.html" target="_top" xlink:title="An example that demonstrates wildcard commands.">
<polygon fill="none" stroke="black" points="1826,-223.5 1826,-264.5 1959,-264.5 1959,-223.5 1826,-223.5"/>
<text text-anchor="start" x="1834" y="-252.5" font-family="Helvetica,sans-Serif" font-size="10.00">examples/all_platforms</text>
<text text-anchor="start" x="1834" y="-241.5" font-family="Helvetica,sans-Serif" font-size="10.00">/basic/WildcardCommands</text>
<text text-anchor="middle" x="1892.5" y="-230.5" font-family="Helvetica,sans-Serif" font-size="10.00">/WildcardCommands.ino</text>
</a>
</g>
</g>
<!-- Node2&#45;&gt;Node18 -->
<g id="edge22" class="edge">
<title>Node2&#45;&gt;Node18</title>
<path fill="none" stroke="midnightblue" d="M1096.88,-310.65C1227.11,-311.23 1550.85,-307.8 1817.5,-265 1820.29,-264.55 1823.13,-264.04 1825.99,-263.48"/>
<polygon fill="midnightblue" stroke="midnightblue" points="1096.75,-307.15 1086.73,-310.6 1096.71,-314.15 1096.75,-307.15"/>
</g>
<!-- Node19 -->
<g id="node19" class="node">
<title>Node19</title>
<g id="a_node19"><a xlink:href="../../d3/dce/_read_command_from_buffer_web_serial_8ino.html" target="_top" xlink:title="An example that uses ReadCommandFromBuffer and WebSerial.">
<polygon fill="none" stroke="black" points="1977,-223.5 1977,-264.5 2156,-264.5 2156,-223.5 1977,-223.5"/>
<text text-anchor="start" x="1985" y="-252.5" font-family="Helvetica,sans-Serif" font-size="10.00">examples/esp/ReadCommand</text>
<text text-anchor="start" x="1985" y="-241.5" font-family="Helvetica,sans-Serif" font-size="10.00">FromBufferWebSerial/ReadCommand</text>
<text text-anchor="middle" x="2066.5" y="-230.5" font-family="Helvetica,sans-Serif" font-size="10.00">FromBufferWebSerial.ino</text>
</a>
</g>
</g>
<!-- Node2&#45;&gt;Node19 -->
<g id="edge23" class="edge">
<title>Node2&#45;&gt;Node19</title>
<path fill="none" stroke="midnightblue" d="M1096.78,-310.27C1243.67,-310.27 1640.75,-306.13 1968.5,-265 1971.26,-264.65 1974.05,-264.27 1976.87,-263.86"/>
<polygon fill="midnightblue" stroke="midnightblue" points="1096.64,-306.77 1086.64,-310.26 1096.64,-313.77 1096.64,-306.77"/>
</g>
<!-- Node20 -->
<g id="node20" class="node">
<title>Node20</title>
<g id="a_node20"><a xlink:href="../../dd/dec/_input_handler_8cpp.html" target="_top" xlink:title="InputHandler library cpp file.">
<polygon fill="none" stroke="black" points="2174,-234.5 2174,-253.5 2281,-253.5 2281,-234.5 2174,-234.5"/>
<text text-anchor="middle" x="2227.5" y="-241.5" font-family="Helvetica,sans-Serif" font-size="10.00">src/InputHandler.cpp</text>
</a>
</g>
</g>
<!-- Node2&#45;&gt;Node20 -->
<g id="edge24" class="edge">
<title>Node2&#45;&gt;Node20</title>
<path fill="none" stroke="midnightblue" d="M1096.53,-309.76C1296.64,-308.62 1957.05,-302.06 2165.5,-265 2179.31,-262.54 2194.29,-257.78 2206.06,-253.51"/>
<polygon fill="midnightblue" stroke="midnightblue" points="1096.49,-306.26 1086.51,-309.82 1096.53,-313.26 1096.49,-306.26"/>
</g>
<!-- Node5 -->
<g id="node5" class="node">
<title>Node5</title>
<g id="a_node5"><a xlink:href="../../d8/d5c/functions_8h.html" target="_top" xlink:title="Functions for MultiFile.ino.">
<polygon fill="none" stroke="black" points="59.5,-145.5 59.5,-186.5 179.5,-186.5 179.5,-145.5 59.5,-145.5"/>
<text text-anchor="start" x="67.5" y="-174.5" font-family="Helvetica,sans-Serif" font-size="10.00">examples/all_platforms</text>
<text text-anchor="start" x="67.5" y="-163.5" font-family="Helvetica,sans-Serif" font-size="10.00">/advanced/MultiFile/CLI</text>
<text text-anchor="middle" x="119.5" y="-152.5" font-family="Helvetica,sans-Serif" font-size="10.00">/functions.h</text>
</a>
</g>
</g>
<!-- Node4&#45;&gt;Node5 -->
<g id="edge4" class="edge">
<title>Node4&#45;&gt;Node5</title>
<path fill="none" stroke="midnightblue" d="M206.89,-218.63C187.4,-208.24 165.82,-196.29 148.94,-186.51"/>
<polygon fill="midnightblue" stroke="midnightblue" points="205.5,-221.85 215.97,-223.43 208.77,-215.66 205.5,-221.85"/>
</g>
<!-- Node6 -->
<g id="node6" class="node">
<title>Node6</title>
<g id="a_node6"><a xlink:href="../../d6/d3b/parameters_8h.html" target="_top" xlink:title="Parameters and CommandConstructor objects for MultiFile.ino.">
<polygon fill="none" stroke="black" points="197.5,-145.5 197.5,-186.5 317.5,-186.5 317.5,-145.5 197.5,-145.5"/>
<text text-anchor="start" x="205.5" y="-174.5" font-family="Helvetica,sans-Serif" font-size="10.00">examples/all_platforms</text>
<text text-anchor="start" x="205.5" y="-163.5" font-family="Helvetica,sans-Serif" font-size="10.00">/advanced/MultiFile/CLI</text>
<text text-anchor="middle" x="257.5" y="-152.5" font-family="Helvetica,sans-Serif" font-size="10.00">/parameters.h</text>
</a>
</g>
</g>
<!-- Node4&#45;&gt;Node6 -->
<g id="edge6" class="edge">
<title>Node4&#45;&gt;Node6</title>
<path fill="none" stroke="midnightblue" d="M250.9,-213.3C250.58,-204.3 250.78,-194.65 251.52,-186.51"/>
<polygon fill="midnightblue" stroke="midnightblue" points="247.41,-213.66 251.51,-223.43 254.4,-213.23 247.41,-213.66"/>
</g>
<!-- Node7 -->
<g id="node7" class="node">
<title>Node7</title>
<g id="a_node7"><a xlink:href="../../d6/d12/_multi_file_8ino.html" target="_top" xlink:title="An example that demonstrates multiple file setup.">
<polygon fill="none" stroke="black" points="335.5,-151 335.5,-181 491.5,-181 491.5,-151 335.5,-151"/>
<text text-anchor="start" x="343.5" y="-169" font-family="Helvetica,sans-Serif" font-size="10.00">examples/all_platforms</text>
<text text-anchor="middle" x="413.5" y="-158" font-family="Helvetica,sans-Serif" font-size="10.00">/advanced/MultiFile/MultiFile.ino</text>
</a>
</g>
</g>
<!-- Node4&#45;&gt;Node7 -->
<g id="edge8" class="edge">
<title>Node4&#45;&gt;Node7</title>
<path fill="none" stroke="midnightblue" d="M306.82,-218.97C332.31,-206.55 362.54,-191.83 384.3,-181.23"/>
<polygon fill="midnightblue" stroke="midnightblue" points="305.13,-215.9 297.67,-223.43 308.2,-222.19 305.13,-215.9"/>
</g>
<!-- Node5&#45;&gt;Node4 -->
<g id="edge5" class="edge">
<title>Node5&#45;&gt;Node4</title>
<path fill="none" stroke="midnightblue" d="M169.97,-191.3C189.46,-201.68 211.04,-213.63 227.95,-223.43"/>
<polygon fill="midnightblue" stroke="midnightblue" points="171.38,-188.09 160.9,-186.51 168.1,-194.27 171.38,-188.09"/>
</g>
<!-- Node6&#45;&gt;Node4 -->
<g id="edge7" class="edge">
<title>Node6&#45;&gt;Node4</title>
<path fill="none" stroke="midnightblue" d="M264.1,-196.63C264.42,-205.62 264.22,-215.27 263.49,-223.43"/>
<polygon fill="midnightblue" stroke="midnightblue" points="267.59,-196.27 263.48,-186.51 260.6,-196.7 267.59,-196.27"/>
</g>
<!-- Node9&#45;&gt;Node8 -->
<g id="edge11" class="edge">
<title>Node9&#45;&gt;Node8</title>
<path fill="none" stroke="midnightblue" d="M601.95,-59.14C594.82,-49.47 587.11,-39.02 581.12,-30.89"/>
<polygon fill="midnightblue" stroke="midnightblue" points="599.26,-61.39 608.02,-67.36 604.9,-57.24 599.26,-61.39"/>
</g>
<!-- Node10&#45;&gt;Node11 -->
<g id="edge13" class="edge">
<title>Node10&#45;&gt;Node11</title>
<path fill="none" stroke="midnightblue" d="M660.5,-213.3C660.5,-204.3 660.5,-194.65 660.5,-186.51"/>
<polygon fill="midnightblue" stroke="midnightblue" points="657,-213.43 660.5,-223.43 664,-213.43 657,-213.43"/>
</g>
<!-- Node11&#45;&gt;Node9 -->
<g id="edge14" class="edge">
<title>Node11&#45;&gt;Node9</title>
<path fill="none" stroke="midnightblue" d="M646.23,-136.47C641.57,-127.14 636.5,-117.01 632.25,-108.51"/>
<polygon fill="midnightblue" stroke="midnightblue" points="643.11,-138.05 650.71,-145.43 649.37,-134.92 643.11,-138.05"/>
</g>
</g>
</svg>
