<?xml version="1.0" encoding="UTF-8" standalone="no"?>
<!DOCTYPE svg PUBLIC "-//W3C//DTD SVG 1.1//EN"
 "http://www.w3.org/Graphics/SVG/1.1/DTD/svg11.dtd">
<!-- Generated by graphviz version 6.0.1 (20220911.1526)
 -->
<!-- Title: cli_gen_tool.cli_gen_tool.MainWindow Pages: 1 -->
<svg width="294pt" height="434pt"
 viewBox="0.00 0.00 294.00 434.00" xmlns="http://www.w3.org/2000/svg" xmlns:xlink="http://www.w3.org/1999/xlink">
<g id="graph0" class="graph" transform="scale(1 1) rotate(0) translate(4 430)">
<title>cli_gen_tool.cli_gen_tool.MainWindow</title>
<!-- Node1 -->
<g id="node1" class="node">
<title>Node1</title>
<g id="a_node1"><a xlink:title="This is the main display window.">
<polygon fill="#999999" stroke="#666666" points="286,-227.5 185,-227.5 185,-197.5 286,-197.5 286,-227.5"/>
<text text-anchor="start" x="193" y="-215.5" font-family="Helvetica,sans-Serif" font-size="10.00">cli_gen_tool.cli_gen</text>
<text text-anchor="middle" x="235.5" y="-204.5" font-family="Helvetica,sans-Serif" font-size="10.00">_tool.MainWindow</text>
</a>
</g>
</g>
<!-- Node2 -->
<g id="node2" class="node">
<title>Node2</title>
<g id="a_node2"><a xlink:title=" ">
<polygon fill="white" stroke="#666666" points="114.5,-426 34.5,-426 34.5,-407 114.5,-407 114.5,-426"/>
<text text-anchor="middle" x="74.5" y="-414" font-family="Helvetica,sans-Serif" font-size="10.00">QMainWindow</text>
</a>
</g>
</g>
<!-- Node2&#45;&gt;Node1 -->
<g id="edge1" class="edge">
<title>Node2&#45;&gt;Node1</title>
<path fill="none" stroke="#63b8ff" d="M124.66,-410.96C133.44,-408.24 142.01,-404.27 149,-398.5 204.37,-352.8 225.59,-263.41 232.08,-227.74"/>
<polygon fill="#63b8ff" stroke="#63b8ff" points="123.53,-407.63 114.73,-413.52 125.28,-414.41 123.53,-407.63"/>
</g>
<!-- Node3 -->
<g id="node3" class="node">
<title>Node3</title>
<g id="a_node3"><a xlink:title=" ">
<polygon fill="white" stroke="#666666" points="141.5,-389 7.5,-389 7.5,-370 141.5,-370 141.5,-389"/>
<text text-anchor="middle" x="74.5" y="-377" font-family="Helvetica,sans-Serif" font-size="10.00">SettingsTreeTableMethods</text>
</a>
</g>
</g>
<!-- Node3&#45;&gt;Node1 -->
<g id="edge2" class="edge">
<title>Node3&#45;&gt;Node1</title>
<path fill="none" stroke="#63b8ff" d="M143.24,-365.33C145.24,-364.15 147.17,-362.88 149,-361.5 195.47,-326.54 220.76,-258.39 230.17,-227.89"/>
<polygon fill="#63b8ff" stroke="#63b8ff" points="141.48,-362.3 134.1,-369.91 144.61,-368.56 141.48,-362.3"/>
</g>
<!-- Node4 -->
<g id="node4" class="node">
<title>Node4</title>
<g id="a_node4"><a xlink:title=" ">
<polygon fill="white" stroke="#666666" points="116,-352 33,-352 33,-333 116,-333 116,-352"/>
<text text-anchor="middle" x="74.5" y="-340" font-family="Helvetica,sans-Serif" font-size="10.00">HelperMethods</text>
</a>
</g>
</g>
<!-- Node4&#45;&gt;Node1 -->
<g id="edge3" class="edge">
<title>Node4&#45;&gt;Node1</title>
<path fill="none" stroke="#63b8ff" d="M125.92,-334.99C134.04,-332.45 142.04,-329.05 149,-324.5 186.87,-299.72 214.66,-252.26 227.16,-227.85"/>
<polygon fill="#63b8ff" stroke="#63b8ff" points="124.76,-331.68 116.04,-337.69 126.6,-338.44 124.76,-331.68"/>
</g>
<!-- Node5 -->
<g id="node5" class="node">
<title>Node5</title>
<g id="a_node5"><a xlink:title=" ">
<polygon fill="white" stroke="#666666" points="127,-315 22,-315 22,-296 127,-296 127,-315"/>
<text text-anchor="middle" x="74.5" y="-303" font-family="Helvetica,sans-Serif" font-size="10.00">MainWindowActions</text>
</a>
</g>
</g>
<!-- Node5&#45;&gt;Node1 -->
<g id="edge4" class="edge">
<title>Node5&#45;&gt;Node1</title>
<path fill="none" stroke="#63b8ff" d="M137.04,-292.82C141.17,-291.25 145.2,-289.48 149,-287.5 178.42,-272.18 206.05,-244.67 221.57,-227.56"/>
<polygon fill="#63b8ff" stroke="#63b8ff" points="135.59,-289.62 127.26,-296.17 137.86,-296.24 135.59,-289.62"/>
</g>
<!-- Node6 -->
<g id="node6" class="node">
<title>Node6</title>
<g id="a_node6"><a xlink:title=" ">
<polygon fill="white" stroke="#666666" points="111.5,-278 37.5,-278 37.5,-259 111.5,-259 111.5,-278"/>
<text text-anchor="middle" x="74.5" y="-266" font-family="Helvetica,sans-Serif" font-size="10.00">CodePreview</text>
</a>
</g>
</g>
<!-- Node6&#45;&gt;Node1 -->
<g id="edge5" class="edge">
<title>Node6&#45;&gt;Node1</title>
<path fill="none" stroke="#63b8ff" d="M121.54,-258.56C130.72,-256.2 140.24,-253.49 149,-250.5 167.75,-244.09 188.05,-235.16 204.16,-227.57"/>
<polygon fill="#63b8ff" stroke="#63b8ff" points="120.63,-255.18 111.76,-260.97 122.31,-261.98 120.63,-255.18"/>
</g>
<!-- Node7 -->
<g id="node7" class="node">
<title>Node7</title>
<g id="a_node7"><a xlink:title=" ">
<polygon fill="white" stroke="#666666" points="129.5,-241 19.5,-241 19.5,-222 129.5,-222 129.5,-241"/>
<text text-anchor="middle" x="74.5" y="-229" font-family="Helvetica,sans-Serif" font-size="10.00">SettingsTreeMethods</text>
</a>
</g>
</g>
<!-- Node7&#45;&gt;Node1 -->
<g id="edge6" class="edge">
<title>Node7&#45;&gt;Node1</title>
<path fill="none" stroke="#63b8ff" d="M139.97,-223.8C154.89,-222.01 170.56,-220.14 184.75,-218.45"/>
<polygon fill="#63b8ff" stroke="#63b8ff" points="139.29,-220.35 129.77,-225.01 140.12,-227.3 139.29,-220.35"/>
</g>
<!-- Node8 -->
<g id="node8" class="node">
<title>Node8</title>
<g id="a_node8"><a xlink:title=" ">
<polygon fill="white" stroke="#666666" points="149,-204 0,-204 0,-185 149,-185 149,-204"/>
<text text-anchor="middle" x="74.5" y="-192" font-family="Helvetica,sans-Serif" font-size="10.00">CommandParametersMethods</text>
</a>
</g>
</g>
<!-- Node8&#45;&gt;Node1 -->
<g id="edge7" class="edge">
<title>Node8&#45;&gt;Node1</title>
<path fill="none" stroke="#63b8ff" d="M159.56,-204.02C168.19,-204.99 176.75,-205.96 184.83,-206.88"/>
<polygon fill="#63b8ff" stroke="#63b8ff" points="159.74,-200.51 149.41,-202.87 158.96,-207.47 159.74,-200.51"/>
</g>
<!-- Node9 -->
<g id="node9" class="node">
<title>Node9</title>
<g id="a_node9"><a xlink:title=" ">
<polygon fill="white" stroke="#666666" points="127.5,-167 21.5,-167 21.5,-148 127.5,-148 127.5,-167"/>
<text text-anchor="middle" x="74.5" y="-155" font-family="Helvetica,sans-Serif" font-size="10.00">MainWindowButtons</text>
</a>
</g>
</g>
<!-- Node9&#45;&gt;Node1 -->
<g id="edge8" class="edge">
<title>Node9&#45;&gt;Node1</title>
<path fill="none" stroke="#63b8ff" d="M126.51,-169.66C134.1,-171.76 141.79,-174.07 149,-176.5 166.7,-182.48 185.91,-190.43 201.64,-197.34"/>
<polygon fill="#63b8ff" stroke="#63b8ff" points="127.2,-166.22 116.63,-167.01 125.38,-172.98 127.2,-166.22"/>
</g>
<!-- Node10 -->
<g id="node10" class="node">
<title>Node10</title>
<g id="a_node10"><a xlink:title=" ">
<polygon fill="white" stroke="#666666" points="137,-130 12,-130 12,-111 137,-111 137,-130"/>
<text text-anchor="middle" x="74.5" y="-118" font-family="Helvetica,sans-Serif" font-size="10.00">ParseInputHandlerConfig</text>
</a>
</g>
</g>
<!-- Node10&#45;&gt;Node1 -->
<g id="edge9" class="edge">
<title>Node10&#45;&gt;Node1</title>
<path fill="none" stroke="#63b8ff" d="M134.81,-133.28C139.72,-135.1 144.51,-137.16 149,-139.5 177.74,-154.46 205.16,-180.71 220.88,-197.32"/>
<polygon fill="#63b8ff" stroke="#63b8ff" points="135.87,-129.95 125.28,-130.08 133.64,-136.58 135.87,-129.95"/>
</g>
<!-- Node11 -->
<g id="node11" class="node">
<title>Node11</title>
<g id="a_node11"><a xlink:title=" ">
<polygon fill="white" stroke="#666666" points="111.5,-93 37.5,-93 37.5,-74 111.5,-74 111.5,-93"/>
<text text-anchor="middle" x="74.5" y="-81" font-family="Helvetica,sans-Serif" font-size="10.00">CLIfilestrings</text>
</a>
</g>
</g>
<!-- Node11&#45;&gt;Node1 -->
<g id="edge10" class="edge">
<title>Node11&#45;&gt;Node1</title>
<path fill="none" stroke="#63b8ff" d="M121.68,-90.51C131.21,-93.27 140.83,-97.13 149,-102.5 186.39,-127.08 214.39,-173.58 227.05,-197.48"/>
<polygon fill="#63b8ff" stroke="#63b8ff" points="122.4,-87.08 111.85,-88 120.67,-93.86 122.4,-87.08"/>
</g>
<!-- Node12 -->
<g id="node12" class="node">
<title>Node12</title>
<g id="a_node12"><a xlink:title=" ">
<polygon fill="white" stroke="#666666" points="133.5,-56 15.5,-56 15.5,-37 133.5,-37 133.5,-56"/>
<text text-anchor="middle" x="74.5" y="-44" font-family="Helvetica,sans-Serif" font-size="10.00">CommandTreeMethods</text>
</a>
</g>
</g>
<!-- Node12&#45;&gt;Node1 -->
<g id="edge11" class="edge">
<title>Node12&#45;&gt;Node1</title>
<path fill="none" stroke="#63b8ff" d="M141.06,-60.37C143.84,-61.91 146.51,-63.61 149,-65.5 194.88,-100.27 220.48,-167.36 230.07,-197.36"/>
<polygon fill="#63b8ff" stroke="#63b8ff" points="142.39,-57.13 131.86,-56.03 139.41,-63.46 142.39,-57.13"/>
</g>
<!-- Node13 -->
<g id="node13" class="node">
<title>Node13</title>
<g id="a_node13"><a xlink:title=" ">
<polygon fill="white" stroke="#666666" points="128,-19 21,-19 21,0 128,0 128,-19"/>
<text text-anchor="middle" x="74.5" y="-7" font-family="Helvetica,sans-Serif" font-size="10.00">PreferencesMethods</text>
</a>
</g>
</g>
<!-- Node13&#45;&gt;Node1 -->
<g id="edge12" class="edge">
<title>Node13&#45;&gt;Node1</title>
<path fill="none" stroke="#63b8ff" d="M137.44,-20.99C141.58,-23.09 145.49,-25.57 149,-28.5 203.68,-74.03 225.3,-162.27 231.99,-197.47"/>
<polygon fill="#63b8ff" stroke="#63b8ff" points="138.66,-17.7 128.09,-16.96 135.89,-24.13 138.66,-17.7"/>
</g>
</g>
</svg>
