<?xml version="1.0" encoding="UTF-8" standalone="no"?>
<!DOCTYPE svg PUBLIC "-//W3C//DTD SVG 1.1//EN"
 "http://www.w3.org/Graphics/SVG/1.1/DTD/svg11.dtd">
<!-- Generated by graphviz version 4.0.0 (20220602.1335)
 -->
<!-- Title: examples/all_platforms/advanced/NMEAparser/parser/NMEAparser.h Pages: 1 -->
<svg width="249pt" height="330pt"
 viewBox="0.00 0.00 249.00 330.00" xmlns="http://www.w3.org/2000/svg" xmlns:xlink="http://www.w3.org/1999/xlink">
<g id="graph0" class="graph" transform="scale(1 1) rotate(0) translate(4 326)">
<title>examples/all_platforms/advanced/NMEAparser/parser/NMEAparser.h</title>
<!-- Node1 -->
<g id="node1" class="node">
<title>Node1</title>
<g id="a_node1"><a xlink:title="a class to assist in parsing NMEA 0183 strings">
<polygon fill="#bfbfbf" stroke="black" points="31.5,-280.5 31.5,-321.5 181.5,-321.5 181.5,-280.5 31.5,-280.5"/>
<text text-anchor="start" x="39.5" y="-309.5" font-family="Helvetica,sans-Serif" font-size="10.00">examples/all_platforms</text>
<text text-anchor="start" x="39.5" y="-298.5" font-family="Helvetica,sans-Serif" font-size="10.00">/advanced/NMEAparser/parser</text>
<text text-anchor="middle" x="106.5" y="-287.5" font-family="Helvetica,sans-Serif" font-size="10.00">/NMEAparser.h</text>
</a>
</g>
</g>
<!-- Node2 -->
<g id="node2" class="node">
<title>Node2</title>
<g id="a_node2"><a xlink:href="../../df/dec/_input_handler_8h.html" target="_top" xlink:title="InputHandler library header file.">
<polygon fill="none" stroke="black" points="60.5,-112.5 60.5,-131.5 140.5,-131.5 140.5,-112.5 60.5,-112.5"/>
<text text-anchor="middle" x="100.5" y="-119.5" font-family="Helvetica,sans-Serif" font-size="10.00">InputHandler.h</text>
</a>
</g>
</g>
<!-- Node1&#45;&gt;Node2 -->
<g id="edge1" class="edge">
<title>Node1&#45;&gt;Node2</title>
<path fill="none" stroke="midnightblue" d="M95.35,-280.48C90.01,-270.02 84.21,-256.7 81.5,-244 73.78,-207.75 85.38,-164.77 93.57,-141.03"/>
<polygon fill="midnightblue" stroke="midnightblue" points="96.88,-142.16 97.01,-131.57 90.3,-139.77 96.88,-142.16"/>
</g>
<!-- Node7 -->
<g id="node7" class="node">
<title>Node7</title>
<g id="a_node7"><a xlink:href="../../da/dff/_n_m_e_asentenceparam_8h.html" target="_top" xlink:title="NMEA 0183 sentence CommandParameters structs.">
<polygon fill="none" stroke="black" points="91,-224.5 91,-243.5 210,-243.5 210,-224.5 91,-224.5"/>
<text text-anchor="middle" x="150.5" y="-231.5" font-family="Helvetica,sans-Serif" font-size="10.00">NMEAsentenceparam.h</text>
</a>
</g>
</g>
<!-- Node1&#45;&gt;Node7 -->
<g id="edge6" class="edge">
<title>Node1&#45;&gt;Node7</title>
<path fill="none" stroke="midnightblue" d="M119.7,-280.5C125.8,-271.49 132.98,-260.89 138.87,-252.19"/>
<polygon fill="midnightblue" stroke="midnightblue" points="141.94,-253.9 144.64,-243.65 136.14,-249.97 141.94,-253.9"/>
</g>
<!-- Node3 -->
<g id="node3" class="node">
<title>Node3</title>
<g id="a_node3"><a xlink:href="../../da/dc7/noedit_8h.html" target="_top" xlink:title="InputHandler library C includes, do not edit.">
<polygon fill="none" stroke="black" points="61,-56.5 61,-75.5 140,-75.5 140,-56.5 61,-56.5"/>
<text text-anchor="middle" x="100.5" y="-63.5" font-family="Helvetica,sans-Serif" font-size="10.00">config/noedit.h</text>
</a>
</g>
</g>
<!-- Node2&#45;&gt;Node3 -->
<g id="edge2" class="edge">
<title>Node2&#45;&gt;Node3</title>
<path fill="none" stroke="midnightblue" d="M100.5,-112.08C100.5,-105.01 100.5,-94.86 100.5,-85.99"/>
<polygon fill="midnightblue" stroke="midnightblue" points="104,-85.75 100.5,-75.75 97,-85.75 104,-85.75"/>
</g>
<!-- Node4 -->
<g id="node4" class="node">
<title>Node4</title>
<g id="a_node4"><a xlink:title=" ">
<polygon fill="none" stroke="#bfbfbf" points="0,-0.5 0,-19.5 57,-19.5 57,-0.5 0,-0.5"/>
<text text-anchor="middle" x="28.5" y="-7.5" font-family="Helvetica,sans-Serif" font-size="10.00">Arduino.h</text>
</a>
</g>
</g>
<!-- Node3&#45;&gt;Node4 -->
<g id="edge3" class="edge">
<title>Node3&#45;&gt;Node4</title>
<path fill="none" stroke="midnightblue" d="M88.93,-56.32C78.08,-48.18 61.62,-35.84 48.62,-26.09"/>
<polygon fill="midnightblue" stroke="midnightblue" points="50.38,-23.03 40.28,-19.83 46.18,-28.63 50.38,-23.03"/>
</g>
<!-- Node5 -->
<g id="node5" class="node">
<title>Node5</title>
<g id="a_node5"><a xlink:href="../../db/d16/config_8h.html" target="_top" xlink:title="InputHandler library user configurable items.">
<polygon fill="none" stroke="black" points="75.5,-0.5 75.5,-19.5 125.5,-19.5 125.5,-0.5 75.5,-0.5"/>
<text text-anchor="middle" x="100.5" y="-7.5" font-family="Helvetica,sans-Serif" font-size="10.00">config.h</text>
</a>
</g>
</g>
<!-- Node3&#45;&gt;Node5 -->
<g id="edge4" class="edge">
<title>Node3&#45;&gt;Node5</title>
<path fill="none" stroke="midnightblue" d="M100.5,-56.08C100.5,-49.01 100.5,-38.86 100.5,-29.99"/>
<polygon fill="midnightblue" stroke="midnightblue" points="104,-29.75 100.5,-19.75 97,-29.75 104,-29.75"/>
</g>
<!-- Node6 -->
<g id="node6" class="node">
<title>Node6</title>
<g id="a_node6"><a xlink:href="../../d5/d4a/advanced__config_8h.html" target="_top" xlink:title="InputHandler library advanced user settings.">
<polygon fill="none" stroke="black" points="144,-0.5 144,-19.5 241,-19.5 241,-0.5 144,-0.5"/>
<text text-anchor="middle" x="192.5" y="-7.5" font-family="Helvetica,sans-Serif" font-size="10.00">advanced_config.h</text>
</a>
</g>
</g>
<!-- Node3&#45;&gt;Node6 -->
<g id="edge5" class="edge">
<title>Node3&#45;&gt;Node6</title>
<path fill="none" stroke="midnightblue" d="M115.28,-56.32C129.77,-47.82 152.07,-34.73 168.99,-24.8"/>
<polygon fill="midnightblue" stroke="midnightblue" points="170.9,-27.74 177.76,-19.65 167.36,-21.7 170.9,-27.74"/>
</g>
<!-- Node7&#45;&gt;Node2 -->
<g id="edge7" class="edge">
<title>Node7&#45;&gt;Node2</title>
<path fill="none" stroke="midnightblue" d="M143.18,-224.22C136.24,-215.51 125.94,-201.54 119.5,-188 112.4,-173.07 107.37,-154.93 104.27,-141.61"/>
<polygon fill="midnightblue" stroke="midnightblue" points="107.67,-140.76 102.13,-131.73 100.83,-142.25 107.67,-140.76"/>
</g>
<!-- Node8 -->
<g id="node8" class="node">
<title>Node8</title>
<g id="a_node8"><a xlink:href="../../d2/d20/_n_m_e_asentencefunc_8h.html" target="_top" xlink:title="NMEA 0183 sentence functions.">
<polygon fill="none" stroke="black" points="129,-168.5 129,-187.5 240,-187.5 240,-168.5 129,-168.5"/>
<text text-anchor="middle" x="184.5" y="-175.5" font-family="Helvetica,sans-Serif" font-size="10.00">NMEAsentencefunc.h</text>
</a>
</g>
</g>
<!-- Node7&#45;&gt;Node8 -->
<g id="edge8" class="edge">
<title>Node7&#45;&gt;Node8</title>
<path fill="none" stroke="midnightblue" d="M156.11,-224.08C160.87,-216.53 167.82,-205.49 173.65,-196.23"/>
<polygon fill="midnightblue" stroke="midnightblue" points="176.62,-198.08 178.99,-187.75 170.7,-194.35 176.62,-198.08"/>
</g>
<!-- Node8&#45;&gt;Node2 -->
<g id="edge9" class="edge">
<title>Node8&#45;&gt;Node2</title>
<path fill="none" stroke="midnightblue" d="M171,-168.32C157.9,-159.9 137.79,-146.97 122.39,-137.07"/>
<polygon fill="midnightblue" stroke="midnightblue" points="124.27,-134.12 113.96,-131.65 120.48,-140.01 124.27,-134.12"/>
</g>
</g>
</svg>
