<?xml version="1.0" encoding="UTF-8" standalone="no"?>
<!DOCTYPE svg PUBLIC "-//W3C//DTD SVG 1.1//EN"
 "http://www.w3.org/Graphics/SVG/1.1/DTD/svg11.dtd">
<!-- Generated by graphviz version 3.0.0 (20220413.0106)
 -->
<!-- Title: examples/all_platforms/advanced/NMEAparser/parser/NMEAparser.h Pages: 1 -->
<svg width="217pt" height="341pt"
 viewBox="0.00 0.00 216.50 341.00" xmlns="http://www.w3.org/2000/svg" xmlns:xlink="http://www.w3.org/1999/xlink">
<g id="graph0" class="graph" transform="scale(1 1) rotate(0) translate(4 337)">
<title>examples/all_platforms/advanced/NMEAparser/parser/NMEAparser.h</title>
<!-- Node1 -->
<g id="node1" class="node">
<title>Node1</title>
<g id="a_node1"><a xlink:title="a class to assist in parsing NMEA 0183 strings">
<polygon fill="#bfbfbf" stroke="black" points="0,-291.5 0,-332.5 150,-332.5 150,-291.5 0,-291.5"/>
<text text-anchor="start" x="8" y="-320.5" font-family="Helvetica,sans-Serif" font-size="10.00">examples/all_platforms</text>
<text text-anchor="start" x="8" y="-309.5" font-family="Helvetica,sans-Serif" font-size="10.00">/advanced/NMEAparser/parser</text>
<text text-anchor="middle" x="75" y="-298.5" font-family="Helvetica,sans-Serif" font-size="10.00">/NMEAparser.h</text>
</a>
</g>
</g>
<!-- Node2 -->
<g id="node2" class="node">
<title>Node2</title>
<g id="a_node2"><a xlink:href="../../df/dec/_input_handler_8h.html" target="_top" xlink:title="InputHandler library header file.">
<polygon fill="none" stroke="black" points="29,-123.5 29,-142.5 109,-142.5 109,-123.5 29,-123.5"/>
<text text-anchor="middle" x="69" y="-130.5" font-family="Helvetica,sans-Serif" font-size="10.00">InputHandler.h</text>
</a>
</g>
</g>
<!-- Node1&#45;&gt;Node2 -->
<g id="edge1" class="edge">
<title>Node1&#45;&gt;Node2</title>
<path fill="none" stroke="midnightblue" d="M63.85,-291.48C58.51,-281.02 52.71,-267.7 50,-255 42.28,-218.75 53.88,-175.77 62.07,-152.03"/>
<polygon fill="midnightblue" stroke="midnightblue" points="65.38,-153.16 65.51,-142.57 58.8,-150.77 65.38,-153.16"/>
</g>
<!-- Node5 -->
<g id="node5" class="node">
<title>Node5</title>
<g id="a_node5"><a xlink:href="../../da/dff/_n_m_e_asentenceparam_8h.html" target="_top" xlink:title="NMEA 0183 sentence CommandParameters structs.">
<polygon fill="none" stroke="black" points="59.5,-235.5 59.5,-254.5 178.5,-254.5 178.5,-235.5 59.5,-235.5"/>
<text text-anchor="middle" x="119" y="-242.5" font-family="Helvetica,sans-Serif" font-size="10.00">NMEAsentenceparam.h</text>
</a>
</g>
</g>
<!-- Node1&#45;&gt;Node5 -->
<g id="edge4" class="edge">
<title>Node1&#45;&gt;Node5</title>
<path fill="none" stroke="midnightblue" d="M88.2,-291.5C94.3,-282.49 101.48,-271.89 107.37,-263.19"/>
<polygon fill="midnightblue" stroke="midnightblue" points="110.44,-264.9 113.14,-254.65 104.64,-260.97 110.44,-264.9"/>
</g>
<!-- Node3 -->
<g id="node3" class="node">
<title>Node3</title>
<g id="a_node3"><a xlink:href="../../dd/d4e/_input_handler__config_8h.html" target="_top" xlink:title="InputHandler library configuration file.">
<polygon fill="none" stroke="black" points="18.5,-56.5 18.5,-86.5 119.5,-86.5 119.5,-56.5 18.5,-56.5"/>
<text text-anchor="start" x="26.5" y="-74.5" font-family="Helvetica,sans-Serif" font-size="10.00">config/InputHandler</text>
<text text-anchor="middle" x="69" y="-63.5" font-family="Helvetica,sans-Serif" font-size="10.00">_config.h</text>
</a>
</g>
</g>
<!-- Node2&#45;&gt;Node3 -->
<g id="edge2" class="edge">
<title>Node2&#45;&gt;Node3</title>
<path fill="none" stroke="midnightblue" d="M69,-123.48C69,-116.47 69,-106.19 69,-96.7"/>
<polygon fill="midnightblue" stroke="midnightblue" points="72.5,-96.52 69,-86.52 65.5,-96.52 72.5,-96.52"/>
</g>
<!-- Node4 -->
<g id="node4" class="node">
<title>Node4</title>
<g id="a_node4"><a xlink:title=" ">
<polygon fill="none" stroke="#bfbfbf" points="40.5,-0.5 40.5,-19.5 97.5,-19.5 97.5,-0.5 40.5,-0.5"/>
<text text-anchor="middle" x="69" y="-7.5" font-family="Helvetica,sans-Serif" font-size="10.00">Arduino.h</text>
</a>
</g>
</g>
<!-- Node3&#45;&gt;Node4 -->
<g id="edge3" class="edge">
<title>Node3&#45;&gt;Node4</title>
<path fill="none" stroke="midnightblue" d="M69,-56.4C69,-48.47 69,-38.46 69,-29.86"/>
<polygon fill="midnightblue" stroke="midnightblue" points="72.5,-29.66 69,-19.66 65.5,-29.66 72.5,-29.66"/>
</g>
<!-- Node5&#45;&gt;Node2 -->
<g id="edge5" class="edge">
<title>Node5&#45;&gt;Node2</title>
<path fill="none" stroke="midnightblue" d="M111.68,-235.22C104.74,-226.51 94.44,-212.54 88,-199 80.9,-184.07 75.87,-165.93 72.77,-152.61"/>
<polygon fill="midnightblue" stroke="midnightblue" points="76.17,-151.76 70.63,-142.73 69.33,-153.25 76.17,-151.76"/>
</g>
<!-- Node6 -->
<g id="node6" class="node">
<title>Node6</title>
<g id="a_node6"><a xlink:href="../../d2/d20/_n_m_e_asentencefunc_8h.html" target="_top" xlink:title="NMEA 0183 sentence functions.">
<polygon fill="none" stroke="black" points="97.5,-179.5 97.5,-198.5 208.5,-198.5 208.5,-179.5 97.5,-179.5"/>
<text text-anchor="middle" x="153" y="-186.5" font-family="Helvetica,sans-Serif" font-size="10.00">NMEAsentencefunc.h</text>
</a>
</g>
</g>
<!-- Node5&#45;&gt;Node6 -->
<g id="edge6" class="edge">
<title>Node5&#45;&gt;Node6</title>
<path fill="none" stroke="midnightblue" d="M124.61,-235.08C129.37,-227.53 136.32,-216.49 142.15,-207.23"/>
<polygon fill="midnightblue" stroke="midnightblue" points="145.12,-209.08 147.49,-198.75 139.2,-205.35 145.12,-209.08"/>
</g>
<!-- Node6&#45;&gt;Node2 -->
<g id="edge7" class="edge">
<title>Node6&#45;&gt;Node2</title>
<path fill="none" stroke="midnightblue" d="M139.5,-179.32C126.4,-170.9 106.29,-157.97 90.89,-148.07"/>
<polygon fill="midnightblue" stroke="midnightblue" points="92.77,-145.12 82.46,-142.65 88.98,-151.01 92.77,-145.12"/>
</g>
</g>
</svg>
