<?xml version="1.0" encoding="UTF-8" standalone="no"?>
<!DOCTYPE svg PUBLIC "-//W3C//DTD SVG 1.1//EN"
 "http://www.w3.org/Graphics/SVG/1.1/DTD/svg11.dtd">
<!-- Generated by graphviz version 5.0.1 (20220820.1526)
 -->
<!-- Title: examples/all_platforms/advanced/NMEAparser/parser/NMEAparser.h Pages: 1 -->
<svg width="217pt" height="324pt"
 viewBox="0.00 0.00 216.50 324.00" xmlns="http://www.w3.org/2000/svg" xmlns:xlink="http://www.w3.org/1999/xlink">
<g id="graph0" class="graph" transform="scale(1 1) rotate(0) translate(4 320)">
<title>examples/all_platforms/advanced/NMEAparser/parser/NMEAparser.h</title>
<!-- Node1 -->
<g id="node1" class="node">
<title>Node1</title>
<g id="a_node1"><a xlink:title="a class to assist in parsing NMEA 0183 strings">
<polygon fill="#999999" stroke="#666666" points="150,-316 0,-316 0,-275 150,-275 150,-316"/>
<text text-anchor="start" x="8" y="-304" font-family="Helvetica,sans-Serif" font-size="10.00">examples/all_platforms</text>
<text text-anchor="start" x="8" y="-293" font-family="Helvetica,sans-Serif" font-size="10.00">/advanced/NMEAparser/parser</text>
<text text-anchor="middle" x="75" y="-282" font-family="Helvetica,sans-Serif" font-size="10.00">/NMEAparser.h</text>
</a>
</g>
</g>
<!-- Node2 -->
<g id="node2" class="node">
<title>Node2</title>
<g id="a_node2"><a xlink:href="../../df/dec/_input_handler_8h.html" target="_top" xlink:title="InputHandler library header file.">
<polygon fill="white" stroke="#666666" points="109,-129 29,-129 29,-110 109,-110 109,-129"/>
<text text-anchor="middle" x="69" y="-117" font-family="Helvetica,sans-Serif" font-size="10.00">InputHandler.h</text>
</a>
</g>
</g>
<!-- Node1&#45;&gt;Node2 -->
<g id="edge1" class="edge">
<title>Node1&#45;&gt;Node2</title>
<path fill="none" stroke="#63b8ff" d="M63.72,-274.91C58.42,-264.58 52.69,-251.5 50,-239 42.44,-203.83 53.72,-162.2 61.87,-138.82"/>
<polygon fill="#63b8ff" stroke="#63b8ff" points="65.24,-139.78 65.41,-129.18 58.68,-137.36 65.24,-139.78"/>
</g>
<!-- Node6 -->
<g id="node6" class="node">
<title>Node6</title>
<g id="a_node6"><a xlink:href="../../da/dff/_n_m_e_asentenceparam_8h.html" target="_top" xlink:title="NMEA 0183 sentence CommandParameters structs.">
<polygon fill="white" stroke="#666666" points="178.5,-239 59.5,-239 59.5,-220 178.5,-220 178.5,-239"/>
<text text-anchor="middle" x="119" y="-227" font-family="Helvetica,sans-Serif" font-size="10.00">NMEAsentenceparam.h</text>
</a>
</g>
</g>
<!-- Node1&#45;&gt;Node6 -->
<g id="edge5" class="edge">
<title>Node1&#45;&gt;Node6</title>
<path fill="none" stroke="#63b8ff" d="M88.44,-274.95C94.45,-266.2 101.48,-255.99 107.27,-247.56"/>
<polygon fill="#63b8ff" stroke="#63b8ff" points="110.2,-249.48 112.98,-239.26 104.43,-245.52 110.2,-249.48"/>
</g>
<!-- Node3 -->
<g id="node3" class="node">
<title>Node3</title>
<g id="a_node3"><a xlink:href="../../da/dc7/noedit_8h.html" target="_top" xlink:title="InputHandler library C includes, do not edit.">
<polygon fill="white" stroke="#666666" points="108.5,-74 29.5,-74 29.5,-55 108.5,-55 108.5,-74"/>
<text text-anchor="middle" x="69" y="-62" font-family="Helvetica,sans-Serif" font-size="10.00">config/noedit.h</text>
</a>
</g>
</g>
<!-- Node2&#45;&gt;Node3 -->
<g id="edge2" class="edge">
<title>Node2&#45;&gt;Node3</title>
<path fill="none" stroke="#63b8ff" d="M69,-109.75C69,-102.8 69,-92.85 69,-84.13"/>
<polygon fill="#63b8ff" stroke="#63b8ff" points="72.5,-84.09 69,-74.09 65.5,-84.09 72.5,-84.09"/>
</g>
<!-- Node4 -->
<g id="node4" class="node">
<title>Node4</title>
<g id="a_node4"><a xlink:title=" ">
<polygon fill="#e0e0e0" stroke="#999999" points="61.5,-19 4.5,-19 4.5,0 61.5,0 61.5,-19"/>
<text text-anchor="middle" x="33" y="-7" font-family="Helvetica,sans-Serif" font-size="10.00">Arduino.h</text>
</a>
</g>
</g>
<!-- Node3&#45;&gt;Node4 -->
<g id="edge3" class="edge">
<title>Node3&#45;&gt;Node4</title>
<path fill="none" stroke="#63b8ff" d="M63.06,-54.75C58.02,-47.34 50.66,-36.5 44.49,-27.41"/>
<polygon fill="#63b8ff" stroke="#63b8ff" points="47.35,-25.39 38.83,-19.09 41.56,-29.33 47.35,-25.39"/>
</g>
<!-- Node5 -->
<g id="node5" class="node">
<title>Node5</title>
<g id="a_node5"><a xlink:href="../../db/d16/config_8h.html" target="_top" xlink:title="InputHandler library user configurable items.">
<polygon fill="white" stroke="#666666" points="130,-19 80,-19 80,0 130,0 130,-19"/>
<text text-anchor="middle" x="105" y="-7" font-family="Helvetica,sans-Serif" font-size="10.00">config.h</text>
</a>
</g>
</g>
<!-- Node3&#45;&gt;Node5 -->
<g id="edge4" class="edge">
<title>Node3&#45;&gt;Node5</title>
<path fill="none" stroke="#63b8ff" d="M74.94,-54.75C79.98,-47.34 87.34,-36.5 93.51,-27.41"/>
<polygon fill="#63b8ff" stroke="#63b8ff" points="96.44,-29.33 99.17,-19.09 90.65,-25.39 96.44,-29.33"/>
</g>
<!-- Node6&#45;&gt;Node2 -->
<g id="edge6" class="edge">
<title>Node6&#45;&gt;Node2</title>
<path fill="none" stroke="#63b8ff" d="M111.69,-219.82C104.76,-211.21 94.47,-197.4 88,-184 81.04,-169.57 76.03,-152.06 72.91,-139.08"/>
<polygon fill="#63b8ff" stroke="#63b8ff" points="76.26,-138.02 70.65,-129.03 69.43,-139.56 76.26,-138.02"/>
</g>
<!-- Node7 -->
<g id="node7" class="node">
<title>Node7</title>
<g id="a_node7"><a xlink:href="../../d2/d20/_n_m_e_asentencefunc_8h.html" target="_top" xlink:title="NMEA 0183 sentence functions.">
<polygon fill="white" stroke="#666666" points="208.5,-184 97.5,-184 97.5,-165 208.5,-165 208.5,-184"/>
<text text-anchor="middle" x="153" y="-172" font-family="Helvetica,sans-Serif" font-size="10.00">NMEAsentencefunc.h</text>
</a>
</g>
</g>
<!-- Node6&#45;&gt;Node7 -->
<g id="edge7" class="edge">
<title>Node6&#45;&gt;Node7</title>
<path fill="none" stroke="#63b8ff" d="M124.61,-219.75C129.32,-212.42 136.17,-201.73 141.97,-192.7"/>
<polygon fill="#63b8ff" stroke="#63b8ff" points="145.04,-194.4 147.49,-184.09 139.14,-190.62 145.04,-194.4"/>
</g>
<!-- Node7&#45;&gt;Node2 -->
<g id="edge8" class="edge">
<title>Node7&#45;&gt;Node2</title>
<path fill="none" stroke="#63b8ff" d="M139.5,-164.98C126.6,-156.84 106.9,-144.41 91.6,-134.76"/>
<polygon fill="#63b8ff" stroke="#63b8ff" points="93.07,-131.55 82.74,-129.17 89.33,-137.47 93.07,-131.55"/>
</g>
</g>
</svg>
