<?xml version="1.0" encoding="UTF-8" standalone="no"?>
<!DOCTYPE svg PUBLIC "-//W3C//DTD SVG 1.1//EN"
 "http://www.w3.org/Graphics/SVG/1.1/DTD/svg11.dtd">
<!-- Generated by graphviz version 5.0.1 (20220820.1526)
 -->
<!-- Title: examples/all_platforms/advanced/NMEAparser/parser/NMEAparser.h Pages: 1 -->
<svg width="217pt" height="330pt"
 viewBox="0.00 0.00 216.50 330.00" xmlns="http://www.w3.org/2000/svg" xmlns:xlink="http://www.w3.org/1999/xlink">
<g id="graph0" class="graph" transform="scale(1 1) rotate(0) translate(4 326)">
<title>examples/all_platforms/advanced/NMEAparser/parser/NMEAparser.h</title>
<!-- Node1 -->
<g id="node1" class="node">
<title>Node1</title>
<g id="a_node1"><a xlink:title="a class to assist in parsing NMEA 0183 strings">
<polygon fill="#bfbfbf" stroke="black" points="0,-280.5 0,-321.5 150,-321.5 150,-280.5 0,-280.5"/>
<text text-anchor="start" x="8" y="-309.5" font-family="Helvetica,sans-Serif" font-size="10.00">examples/all_platforms</text>
<text text-anchor="start" x="8" y="-298.5" font-family="Helvetica,sans-Serif" font-size="10.00">/advanced/NMEAparser/parser</text>
<text text-anchor="middle" x="75" y="-287.5" font-family="Helvetica,sans-Serif" font-size="10.00">/NMEAparser.h</text>
</a>
</g>
</g>
<!-- Node2 -->
<g id="node2" class="node">
<title>Node2</title>
<g id="a_node2"><a xlink:href="../../df/dec/_input_handler_8h.html" target="_top" xlink:title="InputHandler library header file.">
<polygon fill="none" stroke="black" points="29,-112.5 29,-131.5 109,-131.5 109,-112.5 29,-112.5"/>
<text text-anchor="middle" x="69" y="-119.5" font-family="Helvetica,sans-Serif" font-size="10.00">InputHandler.h</text>
</a>
</g>
</g>
<!-- Node1&#45;&gt;Node2 -->
<g id="edge1" class="edge">
<title>Node1&#45;&gt;Node2</title>
<path fill="none" stroke="midnightblue" d="M63.85,-280.48C58.51,-270.02 52.71,-256.7 50,-244 42.28,-207.75 53.88,-164.77 62.07,-141.03"/>
<polygon fill="midnightblue" stroke="midnightblue" points="65.38,-142.16 65.51,-131.57 58.8,-139.77 65.38,-142.16"/>
</g>
<!-- Node6 -->
<g id="node6" class="node">
<title>Node6</title>
<g id="a_node6"><a xlink:href="../../da/dff/_n_m_e_asentenceparam_8h.html" target="_top" xlink:title="NMEA 0183 sentence CommandParameters structs.">
<polygon fill="none" stroke="black" points="59.5,-224.5 59.5,-243.5 178.5,-243.5 178.5,-224.5 59.5,-224.5"/>
<text text-anchor="middle" x="119" y="-231.5" font-family="Helvetica,sans-Serif" font-size="10.00">NMEAsentenceparam.h</text>
</a>
</g>
</g>
<!-- Node1&#45;&gt;Node6 -->
<g id="edge5" class="edge">
<title>Node1&#45;&gt;Node6</title>
<path fill="none" stroke="midnightblue" d="M88.2,-280.5C94.3,-271.49 101.48,-260.89 107.37,-252.19"/>
<polygon fill="midnightblue" stroke="midnightblue" points="110.44,-253.9 113.14,-243.65 104.64,-249.97 110.44,-253.9"/>
</g>
<!-- Node3 -->
<g id="node3" class="node">
<title>Node3</title>
<g id="a_node3"><a xlink:href="../../da/dc7/noedit_8h.html" target="_top" xlink:title="InputHandler library C includes, do not edit.">
<polygon fill="none" stroke="black" points="29.5,-56.5 29.5,-75.5 108.5,-75.5 108.5,-56.5 29.5,-56.5"/>
<text text-anchor="middle" x="69" y="-63.5" font-family="Helvetica,sans-Serif" font-size="10.00">config/noedit.h</text>
</a>
</g>
</g>
<!-- Node2&#45;&gt;Node3 -->
<g id="edge2" class="edge">
<title>Node2&#45;&gt;Node3</title>
<path fill="none" stroke="midnightblue" d="M69,-112.08C69,-105.01 69,-94.86 69,-85.99"/>
<polygon fill="midnightblue" stroke="midnightblue" points="72.5,-85.75 69,-75.75 65.5,-85.75 72.5,-85.75"/>
</g>
<!-- Node4 -->
<g id="node4" class="node">
<title>Node4</title>
<g id="a_node4"><a xlink:title=" ">
<polygon fill="none" stroke="#bfbfbf" points="4.5,-0.5 4.5,-19.5 61.5,-19.5 61.5,-0.5 4.5,-0.5"/>
<text text-anchor="middle" x="33" y="-7.5" font-family="Helvetica,sans-Serif" font-size="10.00">Arduino.h</text>
</a>
</g>
</g>
<!-- Node3&#45;&gt;Node4 -->
<g id="edge3" class="edge">
<title>Node3&#45;&gt;Node4</title>
<path fill="none" stroke="midnightblue" d="M63.06,-56.08C58.02,-48.53 50.66,-37.49 44.49,-28.23"/>
<polygon fill="midnightblue" stroke="midnightblue" points="47.29,-26.13 38.83,-19.75 41.47,-30.01 47.29,-26.13"/>
</g>
<!-- Node5 -->
<g id="node5" class="node">
<title>Node5</title>
<g id="a_node5"><a xlink:href="../../db/d16/config_8h.html" target="_top" xlink:title="InputHandler library user configurable items.">
<polygon fill="none" stroke="black" points="80,-0.5 80,-19.5 130,-19.5 130,-0.5 80,-0.5"/>
<text text-anchor="middle" x="105" y="-7.5" font-family="Helvetica,sans-Serif" font-size="10.00">config.h</text>
</a>
</g>
</g>
<!-- Node3&#45;&gt;Node5 -->
<g id="edge4" class="edge">
<title>Node3&#45;&gt;Node5</title>
<path fill="none" stroke="midnightblue" d="M74.94,-56.08C79.98,-48.53 87.34,-37.49 93.51,-28.23"/>
<polygon fill="midnightblue" stroke="midnightblue" points="96.53,-30.01 99.17,-19.75 90.71,-26.13 96.53,-30.01"/>
</g>
<!-- Node6&#45;&gt;Node2 -->
<g id="edge6" class="edge">
<title>Node6&#45;&gt;Node2</title>
<path fill="none" stroke="midnightblue" d="M111.68,-224.22C104.74,-215.51 94.44,-201.54 88,-188 80.9,-173.07 75.87,-154.93 72.77,-141.61"/>
<polygon fill="midnightblue" stroke="midnightblue" points="76.17,-140.76 70.63,-131.73 69.33,-142.25 76.17,-140.76"/>
</g>
<!-- Node7 -->
<g id="node7" class="node">
<title>Node7</title>
<g id="a_node7"><a xlink:href="../../d2/d20/_n_m_e_asentencefunc_8h.html" target="_top" xlink:title="NMEA 0183 sentence functions.">
<polygon fill="none" stroke="black" points="97.5,-168.5 97.5,-187.5 208.5,-187.5 208.5,-168.5 97.5,-168.5"/>
<text text-anchor="middle" x="153" y="-175.5" font-family="Helvetica,sans-Serif" font-size="10.00">NMEAsentencefunc.h</text>
</a>
</g>
</g>
<!-- Node6&#45;&gt;Node7 -->
<g id="edge7" class="edge">
<title>Node6&#45;&gt;Node7</title>
<path fill="none" stroke="midnightblue" d="M124.61,-224.08C129.37,-216.53 136.32,-205.49 142.15,-196.23"/>
<polygon fill="midnightblue" stroke="midnightblue" points="145.12,-198.08 147.49,-187.75 139.2,-194.35 145.12,-198.08"/>
</g>
<!-- Node7&#45;&gt;Node2 -->
<g id="edge8" class="edge">
<title>Node7&#45;&gt;Node2</title>
<path fill="none" stroke="midnightblue" d="M139.5,-168.32C126.4,-159.9 106.29,-146.97 90.89,-137.07"/>
<polygon fill="midnightblue" stroke="midnightblue" points="92.77,-134.12 82.46,-131.65 88.98,-140.01 92.77,-134.12"/>
</g>
</g>
</svg>
