<?xml version="1.0" encoding="UTF-8" standalone="no"?>
<!DOCTYPE svg PUBLIC "-//W3C//DTD SVG 1.1//EN"
 "http://www.w3.org/Graphics/SVG/1.1/DTD/svg11.dtd">
<!-- Generated by graphviz version 3.0.0 (20220413.0106)
 -->
<!-- Title: examples/all_platforms/basic/LoRa/LoRaReceiver/LoRaReceiver.ino Pages: 1 -->
<svg width="223pt" height="229pt"
 viewBox="0.00 0.00 223.00 229.00" xmlns="http://www.w3.org/2000/svg" xmlns:xlink="http://www.w3.org/1999/xlink">
<g id="graph0" class="graph" transform="scale(1 1) rotate(0) translate(4 225)">
<title>examples/all_platforms/basic/LoRa/LoRaReceiver/LoRaReceiver.ino</title>
<!-- Node1 -->
<g id="node1" class="node">
<title>Node1</title>
<g id="a_node1"><a xlink:title=" ">
<polygon fill="#bfbfbf" stroke="black" points="15.5,-179.5 15.5,-220.5 149.5,-220.5 149.5,-179.5 15.5,-179.5"/>
<text text-anchor="start" x="23.5" y="-208.5" font-family="Helvetica,sans-Serif" font-size="10.00">examples/all_platforms</text>
<text text-anchor="start" x="23.5" y="-197.5" font-family="Helvetica,sans-Serif" font-size="10.00">/basic/LoRa/LoRaReceiver</text>
<text text-anchor="middle" x="82.5" y="-186.5" font-family="Helvetica,sans-Serif" font-size="10.00">/LoRaReceiver.ino</text>
</a>
</g>
</g>
<!-- Node2 -->
<g id="node2" class="node">
<title>Node2</title>
<g id="a_node2"><a xlink:title=" ">
<polygon fill="none" stroke="#bfbfbf" points="0,-123.5 0,-142.5 41,-142.5 41,-123.5 0,-123.5"/>
<text text-anchor="middle" x="20.5" y="-130.5" font-family="Helvetica,sans-Serif" font-size="10.00">SPI.h</text>
</a>
</g>
</g>
<!-- Node1&#45;&gt;Node2 -->
<g id="edge1" class="edge">
<title>Node1&#45;&gt;Node2</title>
<path fill="none" stroke="midnightblue" d="M63.9,-179.5C54.94,-170.11 44.33,-158.98 35.84,-150.08"/>
<polygon fill="midnightblue" stroke="midnightblue" points="38.19,-147.47 28.75,-142.65 33.12,-152.3 38.19,-147.47"/>
</g>
<!-- Node3 -->
<g id="node3" class="node">
<title>Node3</title>
<g id="a_node3"><a xlink:title=" ">
<polygon fill="none" stroke="#bfbfbf" points="59,-123.5 59,-142.5 106,-142.5 106,-123.5 59,-123.5"/>
<text text-anchor="middle" x="82.5" y="-130.5" font-family="Helvetica,sans-Serif" font-size="10.00">LoRa.h</text>
</a>
</g>
</g>
<!-- Node1&#45;&gt;Node3 -->
<g id="edge2" class="edge">
<title>Node1&#45;&gt;Node3</title>
<path fill="none" stroke="midnightblue" d="M82.5,-179.5C82.5,-171.07 82.5,-161.24 82.5,-152.87"/>
<polygon fill="midnightblue" stroke="midnightblue" points="86,-152.65 82.5,-142.65 79,-152.65 86,-152.65"/>
</g>
<!-- Node4 -->
<g id="node4" class="node">
<title>Node4</title>
<g id="a_node4"><a xlink:href="../../df/dec/_input_handler_8h.html" target="_top" xlink:title="InputHandler library header file.">
<polygon fill="none" stroke="black" points="124.5,-123.5 124.5,-142.5 204.5,-142.5 204.5,-123.5 124.5,-123.5"/>
<text text-anchor="middle" x="164.5" y="-130.5" font-family="Helvetica,sans-Serif" font-size="10.00">InputHandler.h</text>
</a>
</g>
</g>
<!-- Node1&#45;&gt;Node4 -->
<g id="edge3" class="edge">
<title>Node1&#45;&gt;Node4</title>
<path fill="none" stroke="midnightblue" d="M107.1,-179.5C119.43,-169.72 134.13,-158.07 145.57,-149.01"/>
<polygon fill="midnightblue" stroke="midnightblue" points="147.92,-151.61 153.58,-142.65 143.57,-146.12 147.92,-151.61"/>
</g>
<!-- Node5 -->
<g id="node5" class="node">
<title>Node5</title>
<g id="a_node5"><a xlink:href="../../dd/d4e/_input_handler__config_8h.html" target="_top" xlink:title="InputHandler library configuration file.">
<polygon fill="none" stroke="black" points="114,-56.5 114,-86.5 215,-86.5 215,-56.5 114,-56.5"/>
<text text-anchor="start" x="122" y="-74.5" font-family="Helvetica,sans-Serif" font-size="10.00">config/InputHandler</text>
<text text-anchor="middle" x="164.5" y="-63.5" font-family="Helvetica,sans-Serif" font-size="10.00">_config.h</text>
</a>
</g>
</g>
<!-- Node4&#45;&gt;Node5 -->
<g id="edge4" class="edge">
<title>Node4&#45;&gt;Node5</title>
<path fill="none" stroke="midnightblue" d="M164.5,-123.48C164.5,-116.47 164.5,-106.19 164.5,-96.7"/>
<polygon fill="midnightblue" stroke="midnightblue" points="168,-96.52 164.5,-86.52 161,-96.52 168,-96.52"/>
</g>
<!-- Node6 -->
<g id="node6" class="node">
<title>Node6</title>
<g id="a_node6"><a xlink:title=" ">
<polygon fill="none" stroke="#bfbfbf" points="136,-0.5 136,-19.5 193,-19.5 193,-0.5 136,-0.5"/>
<text text-anchor="middle" x="164.5" y="-7.5" font-family="Helvetica,sans-Serif" font-size="10.00">Arduino.h</text>
</a>
</g>
</g>
<!-- Node5&#45;&gt;Node6 -->
<g id="edge5" class="edge">
<title>Node5&#45;&gt;Node6</title>
<path fill="none" stroke="midnightblue" d="M164.5,-56.4C164.5,-48.47 164.5,-38.46 164.5,-29.86"/>
<polygon fill="midnightblue" stroke="midnightblue" points="168,-29.66 164.5,-19.66 161,-29.66 168,-29.66"/>
</g>
</g>
</svg>
