<?xml version="1.0" encoding="UTF-8" standalone="no"?>
<!DOCTYPE svg PUBLIC "-//W3C//DTD SVG 1.1//EN"
 "http://www.w3.org/Graphics/SVG/1.1/DTD/svg11.dtd">
<!-- Generated by graphviz version 4.0.0 (20220602.1335)
 -->
<!-- Title: examples/all_platforms/basic/LoRa/LoRaReceiver/LoRaReceiver.ino Pages: 1 -->
<svg width="234pt" height="218pt"
 viewBox="0.00 0.00 233.50 218.00" xmlns="http://www.w3.org/2000/svg" xmlns:xlink="http://www.w3.org/1999/xlink">
<g id="graph0" class="graph" transform="scale(1 1) rotate(0) translate(4 214)">
<title>examples/all_platforms/basic/LoRa/LoRaReceiver/LoRaReceiver.ino</title>
<!-- Node1 -->
<g id="node1" class="node">
<title>Node1</title>
<g id="a_node1"><a xlink:title=" ">
<polygon fill="#bfbfbf" stroke="black" points="15.5,-168.5 15.5,-209.5 149.5,-209.5 149.5,-168.5 15.5,-168.5"/>
<text text-anchor="start" x="23.5" y="-197.5" font-family="Helvetica,sans-Serif" font-size="10.00">examples/all_platforms</text>
<text text-anchor="start" x="23.5" y="-186.5" font-family="Helvetica,sans-Serif" font-size="10.00">/basic/LoRa/LoRaReceiver</text>
<text text-anchor="middle" x="82.5" y="-175.5" font-family="Helvetica,sans-Serif" font-size="10.00">/LoRaReceiver.ino</text>
</a>
</g>
</g>
<!-- Node2 -->
<g id="node2" class="node">
<title>Node2</title>
<g id="a_node2"><a xlink:title=" ">
<polygon fill="none" stroke="#bfbfbf" points="0,-112.5 0,-131.5 41,-131.5 41,-112.5 0,-112.5"/>
<text text-anchor="middle" x="20.5" y="-119.5" font-family="Helvetica,sans-Serif" font-size="10.00">SPI.h</text>
</a>
</g>
</g>
<!-- Node1&#45;&gt;Node2 -->
<g id="edge1" class="edge">
<title>Node1&#45;&gt;Node2</title>
<path fill="none" stroke="midnightblue" d="M63.9,-168.5C54.94,-159.11 44.33,-147.98 35.84,-139.08"/>
<polygon fill="midnightblue" stroke="midnightblue" points="38.19,-136.47 28.75,-131.65 33.12,-141.3 38.19,-136.47"/>
</g>
<!-- Node3 -->
<g id="node3" class="node">
<title>Node3</title>
<g id="a_node3"><a xlink:title=" ">
<polygon fill="none" stroke="#bfbfbf" points="59,-112.5 59,-131.5 106,-131.5 106,-112.5 59,-112.5"/>
<text text-anchor="middle" x="82.5" y="-119.5" font-family="Helvetica,sans-Serif" font-size="10.00">LoRa.h</text>
</a>
</g>
</g>
<!-- Node1&#45;&gt;Node3 -->
<g id="edge2" class="edge">
<title>Node1&#45;&gt;Node3</title>
<path fill="none" stroke="midnightblue" d="M82.5,-168.5C82.5,-160.07 82.5,-150.24 82.5,-141.87"/>
<polygon fill="midnightblue" stroke="midnightblue" points="86,-141.65 82.5,-131.65 79,-141.65 86,-141.65"/>
</g>
<!-- Node4 -->
<g id="node4" class="node">
<title>Node4</title>
<g id="a_node4"><a xlink:href="../../df/dec/_input_handler_8h.html" target="_top" xlink:title="InputHandler library header file.">
<polygon fill="none" stroke="black" points="124.5,-112.5 124.5,-131.5 204.5,-131.5 204.5,-112.5 124.5,-112.5"/>
<text text-anchor="middle" x="164.5" y="-119.5" font-family="Helvetica,sans-Serif" font-size="10.00">InputHandler.h</text>
</a>
</g>
</g>
<!-- Node1&#45;&gt;Node4 -->
<g id="edge3" class="edge">
<title>Node1&#45;&gt;Node4</title>
<path fill="none" stroke="midnightblue" d="M107.1,-168.5C119.43,-158.72 134.13,-147.07 145.57,-138.01"/>
<polygon fill="midnightblue" stroke="midnightblue" points="147.92,-140.61 153.58,-131.65 143.57,-135.12 147.92,-140.61"/>
</g>
<!-- Node5 -->
<g id="node5" class="node">
<title>Node5</title>
<g id="a_node5"><a xlink:href="../../da/dc7/noedit_8h.html" target="_top" xlink:title="InputHandler library C includes, do not edit.">
<polygon fill="none" stroke="black" points="125,-56.5 125,-75.5 204,-75.5 204,-56.5 125,-56.5"/>
<text text-anchor="middle" x="164.5" y="-63.5" font-family="Helvetica,sans-Serif" font-size="10.00">config/noedit.h</text>
</a>
</g>
</g>
<!-- Node4&#45;&gt;Node5 -->
<g id="edge4" class="edge">
<title>Node4&#45;&gt;Node5</title>
<path fill="none" stroke="midnightblue" d="M164.5,-112.08C164.5,-105.01 164.5,-94.86 164.5,-85.99"/>
<polygon fill="midnightblue" stroke="midnightblue" points="168,-85.75 164.5,-75.75 161,-85.75 168,-85.75"/>
</g>
<!-- Node6 -->
<g id="node6" class="node">
<title>Node6</title>
<g id="a_node6"><a xlink:title=" ">
<polygon fill="none" stroke="#bfbfbf" points="100,-0.5 100,-19.5 157,-19.5 157,-0.5 100,-0.5"/>
<text text-anchor="middle" x="128.5" y="-7.5" font-family="Helvetica,sans-Serif" font-size="10.00">Arduino.h</text>
</a>
</g>
</g>
<!-- Node5&#45;&gt;Node6 -->
<g id="edge5" class="edge">
<title>Node5&#45;&gt;Node6</title>
<path fill="none" stroke="midnightblue" d="M158.56,-56.08C153.52,-48.53 146.16,-37.49 139.99,-28.23"/>
<polygon fill="midnightblue" stroke="midnightblue" points="142.79,-26.13 134.33,-19.75 136.97,-30.01 142.79,-26.13"/>
</g>
<!-- Node7 -->
<g id="node7" class="node">
<title>Node7</title>
<g id="a_node7"><a xlink:href="../../db/d16/config_8h.html" target="_top" xlink:title="InputHandler library user configurable items.">
<polygon fill="none" stroke="black" points="175.5,-0.5 175.5,-19.5 225.5,-19.5 225.5,-0.5 175.5,-0.5"/>
<text text-anchor="middle" x="200.5" y="-7.5" font-family="Helvetica,sans-Serif" font-size="10.00">config.h</text>
</a>
</g>
</g>
<!-- Node5&#45;&gt;Node7 -->
<g id="edge6" class="edge">
<title>Node5&#45;&gt;Node7</title>
<path fill="none" stroke="midnightblue" d="M170.44,-56.08C175.48,-48.53 182.84,-37.49 189.01,-28.23"/>
<polygon fill="midnightblue" stroke="midnightblue" points="192.03,-30.01 194.67,-19.75 186.21,-26.13 192.03,-30.01"/>
</g>
</g>
</svg>
