<?xml version="1.0" encoding="UTF-8" standalone="no"?>
<!DOCTYPE svg PUBLIC "-//W3C//DTD SVG 1.1//EN"
 "http://www.w3.org/Graphics/SVG/1.1/DTD/svg11.dtd">
<!-- Generated by graphviz version 6.0.1 (20220911.1526)
 -->
<!-- Title: examples/all_platforms/advanced Pages: 1 -->
<svg width="713pt" height="126pt"
 viewBox="0.00 0.00 713.00 125.63" xmlns="http://www.w3.org/2000/svg" xmlns:xlink="http://www.w3.org/1999/xlink">
<g id="graph0" class="graph" transform="scale(1 1) rotate(0) translate(4 121.63)">
<title>examples/all_platforms/advanced</title>
<g id="clust1" class="cluster">
<title>clusterdir_7e7debf23c06755bbadb27664e1a95c8</title>
<g id="a_clust1"><a xlink:href="dir_7e7debf23c06755bbadb27664e1a95c8.html" target="_top" xlink:title="all_platforms">
<polygon fill="#daedff" stroke="#7f7f7f" stroke-dasharray="5,2" points="8,-39.63 8,-109.63 697,-109.63 697,-39.63 8,-39.63"/>
<text text-anchor="middle" x="352.5" y="-97.63" font-family="Helvetica,sans-Serif" font-size="10.00">all_platforms</text>
</a>
</g>
</g>
<g id="clust2" class="cluster">
<title>clusterdir_f64c5401ecde094f8488f2d5876a87d7</title>
<g id="a_clust2"><a xlink:href="dir_f64c5401ecde094f8488f2d5876a87d7.html" target="_top">
<polygon fill="#daedff" stroke="#404040" stroke-width="2" points="16,-47.63 16,-82.63 689,-82.63 689,-47.63 16,-47.63"/>
</a>
</g>
</g>
<!-- dir_f64c5401ecde094f8488f2d5876a87d7 -->
<g id="node1" class="node">
<title>dir_f64c5401ecde094f8488f2d5876a87d7</title>
<text text-anchor="middle" x="651" y="-62.63" font-family="Helvetica,sans-Serif" font-size="10.00">advanced</text>
</g>
<!-- dir_672e2db806fcde9bd6503001f54572d9 -->
<g id="node2" class="node">
<title>dir_672e2db806fcde9bd6503001f54572d9</title>
<g id="a_node2"><a xlink:href="dir_672e2db806fcde9bd6503001f54572d9.html" target="_top" xlink:title="config_howto">
<polygon fill="#4ea9ff" stroke="#404040" points="603,-74.63 529,-74.63 529,-55.63 603,-55.63 603,-74.63"/>
<text text-anchor="middle" x="566" y="-62.63" font-family="Helvetica,sans-Serif" font-size="10.00">config_howto</text>
</a>
</g>
</g>
<!-- dir_68267d1309a1af8e8297ef4c3efbcdba -->
<g id="node8" class="node">
<title>dir_68267d1309a1af8e8297ef4c3efbcdba</title>
<g id="a_node8"><a xlink:href="dir_68267d1309a1af8e8297ef4c3efbcdba.html" target="_top" xlink:title="src">
<polygon fill="#daedff" stroke="red" points="326,-19.63 296,-19.63 296,-0.63 326,-0.63 326,-19.63"/>
<text text-anchor="middle" x="311" y="-7.63" font-family="Helvetica,sans-Serif" font-size="10.00">src</text>
</a>
</g>
</g>
<!-- dir_672e2db806fcde9bd6503001f54572d9&#45;&gt;dir_68267d1309a1af8e8297ef4c3efbcdba -->
<g id="edge1" class="edge">
<title>dir_672e2db806fcde9bd6503001f54572d9&#45;&gt;dir_68267d1309a1af8e8297ef4c3efbcdba</title>
<path fill="none" stroke="#63b8ff" d="M552.87,-55.53C543.96,-50.1 531.71,-43.42 520,-39.63 455.98,-18.95 376.2,-13.28 336.26,-11.72"/>
<polygon fill="#63b8ff" stroke="#63b8ff" points="336.21,-8.22 326.1,-11.38 335.97,-15.21 336.21,-8.22"/>
<g id="a_edge1&#45;headlabel"><a xlink:href="dir_000006_000022.html" target="_top" xlink:title="1">
<text text-anchor="middle" x="339.89" y="-3" font-family="Helvetica,sans-Serif" font-size="10.00" fill="#63b8ff">1</text>
</a>
</g>
</g>
<!-- dir_8b34520cf4277e0be875d52c8243f9ff -->
<g id="node3" class="node">
<title>dir_8b34520cf4277e0be875d52c8243f9ff</title>
<g id="a_node3"><a xlink:href="dir_8b34520cf4277e0be875d52c8243f9ff.html" target="_top" xlink:title="debugging">
<polygon fill="#4ea9ff" stroke="#404040" points="510.5,-74.63 449.5,-74.63 449.5,-55.63 510.5,-55.63 510.5,-74.63"/>
<text text-anchor="middle" x="480" y="-62.63" font-family="Helvetica,sans-Serif" font-size="10.00">debugging</text>
</a>
</g>
</g>
<!-- dir_8b34520cf4277e0be875d52c8243f9ff&#45;&gt;dir_68267d1309a1af8e8297ef4c3efbcdba -->
<g id="edge2" class="edge">
<title>dir_8b34520cf4277e0be875d52c8243f9ff&#45;&gt;dir_68267d1309a1af8e8297ef4c3efbcdba</title>
<path fill="none" stroke="#63b8ff" d="M468.63,-55.51C461.14,-50.21 450.92,-43.69 441,-39.63 406.23,-25.41 363.18,-17.76 336.4,-14.07"/>
<polygon fill="#63b8ff" stroke="#63b8ff" points="336.69,-10.57 326.32,-12.76 335.79,-17.52 336.69,-10.57"/>
<g id="a_edge2&#45;headlabel"><a xlink:href="dir_000007_000022.html" target="_top" xlink:title="1">
<text text-anchor="middle" x="340.62" y="-5.72" font-family="Helvetica,sans-Serif" font-size="10.00" fill="#63b8ff">1</text>
</a>
</g>
</g>
<!-- dir_e9e44833007419a1c486f0238b30ac06 -->
<g id="node4" class="node">
<title>dir_e9e44833007419a1c486f0238b30ac06</title>
<g id="a_node4"><a xlink:href="dir_e9e44833007419a1c486f0238b30ac06.html" target="_top" xlink:title="GetCommandFromStream">
<polygon fill="#4ea9ff" stroke="#404040" points="431.5,-74.63 300.5,-74.63 300.5,-55.63 431.5,-55.63 431.5,-74.63"/>
<text text-anchor="middle" x="366" y="-62.63" font-family="Helvetica,sans-Serif" font-size="10.00">GetCommandFromStream</text>
</a>
</g>
</g>
<!-- dir_e9e44833007419a1c486f0238b30ac06&#45;&gt;dir_68267d1309a1af8e8297ef4c3efbcdba -->
<g id="edge3" class="edge">
<title>dir_e9e44833007419a1c486f0238b30ac06&#45;&gt;dir_68267d1309a1af8e8297ef4c3efbcdba</title>
<path fill="none" stroke="#63b8ff" d="M356.92,-55.38C348.91,-47.67 337.04,-36.23 327.38,-26.92"/>
<polygon fill="#63b8ff" stroke="#63b8ff" points="329.54,-24.14 319.91,-19.72 324.69,-29.18 329.54,-24.14"/>
<g id="a_edge3&#45;headlabel"><a xlink:href="dir_000010_000022.html" target="_top" xlink:title="1">
<text text-anchor="middle" x="334.1" y="-22.09" font-family="Helvetica,sans-Serif" font-size="10.00" fill="#63b8ff">1</text>
</a>
</g>
</g>
<!-- dir_2417a6421416a4a5ac02e9b167a7bacc -->
<g id="node5" class="node">
<title>dir_2417a6421416a4a5ac02e9b167a7bacc</title>
<g id="a_node5"><a xlink:href="dir_2417a6421416a4a5ac02e9b167a7bacc.html" target="_top" xlink:title="MultiFile">
<polygon fill="#4ea9ff" stroke="#404040" points="282.5,-74.63 229.5,-74.63 229.5,-55.63 282.5,-55.63 282.5,-74.63"/>
<text text-anchor="middle" x="256" y="-62.63" font-family="Helvetica,sans-Serif" font-size="10.00">MultiFile</text>
</a>
</g>
</g>
<!-- dir_2417a6421416a4a5ac02e9b167a7bacc&#45;&gt;dir_68267d1309a1af8e8297ef4c3efbcdba -->
<g id="edge4" class="edge">
<title>dir_2417a6421416a4a5ac02e9b167a7bacc&#45;&gt;dir_68267d1309a1af8e8297ef4c3efbcdba</title>
<path fill="none" stroke="#63b8ff" d="M265.08,-55.38C273.09,-47.67 284.96,-36.23 294.62,-26.92"/>
<polygon fill="#63b8ff" stroke="#63b8ff" points="297.31,-29.18 302.09,-19.72 292.46,-24.14 297.31,-29.18"/>
<g id="a_edge4&#45;headlabel"><a xlink:href="dir_000015_000022.html" target="_top" xlink:title="1">
<text text-anchor="middle" x="296.7" y="-31.22" font-family="Helvetica,sans-Serif" font-size="10.00" fill="#63b8ff">1</text>
</a>
</g>
</g>
<!-- dir_709d6945534044f28e2d0e0a94050460 -->
<g id="node6" class="node">
<title>dir_709d6945534044f28e2d0e0a94050460</title>
<g id="a_node6"><a xlink:href="dir_709d6945534044f28e2d0e0a94050460.html" target="_top" xlink:title="NestedCommands">
<polygon fill="#4ea9ff" stroke="#404040" points="212,-74.63 114,-74.63 114,-55.63 212,-55.63 212,-74.63"/>
<text text-anchor="middle" x="163" y="-62.63" font-family="Helvetica,sans-Serif" font-size="10.00">NestedCommands</text>
</a>
</g>
</g>
<!-- dir_709d6945534044f28e2d0e0a94050460&#45;&gt;dir_68267d1309a1af8e8297ef4c3efbcdba -->
<g id="edge5" class="edge">
<title>dir_709d6945534044f28e2d0e0a94050460&#45;&gt;dir_68267d1309a1af8e8297ef4c3efbcdba</title>
<path fill="none" stroke="#63b8ff" d="M181.89,-55.63C193.15,-50.7 207.77,-44.51 221,-39.63 242.73,-31.63 267.88,-23.78 286.06,-18.35"/>
<polygon fill="#63b8ff" stroke="#63b8ff" points="287.29,-21.64 295.89,-15.45 285.3,-14.93 287.29,-21.64"/>
<g id="a_edge5&#45;headlabel"><a xlink:href="dir_000016_000022.html" target="_top" xlink:title="1">
<text text-anchor="middle" x="284.64" y="-22.88" font-family="Helvetica,sans-Serif" font-size="10.00" fill="#63b8ff">1</text>
</a>
</g>
</g>
<!-- dir_7ee976d93af4f6c560d023a9aae4584e -->
<g id="node7" class="node">
<title>dir_7ee976d93af4f6c560d023a9aae4584e</title>
<g id="a_node7"><a xlink:href="dir_7ee976d93af4f6c560d023a9aae4584e.html" target="_top" xlink:title="NMEAparser">
<polygon fill="#4ea9ff" stroke="#404040" points="96,-74.63 24,-74.63 24,-55.63 96,-55.63 96,-74.63"/>
<text text-anchor="middle" x="60" y="-62.63" font-family="Helvetica,sans-Serif" font-size="10.00">NMEAparser</text>
</a>
</g>
</g>
<!-- dir_7ee976d93af4f6c560d023a9aae4584e&#45;&gt;dir_68267d1309a1af8e8297ef4c3efbcdba -->
<g id="edge6" class="edge">
<title>dir_7ee976d93af4f6c560d023a9aae4584e&#45;&gt;dir_68267d1309a1af8e8297ef4c3efbcdba</title>
<path fill="none" stroke="#63b8ff" d="M72.82,-55.53C81.53,-50.1 93.51,-43.42 105,-39.63 167.85,-18.94 246.29,-13.27 285.78,-11.72"/>
<polygon fill="#63b8ff" stroke="#63b8ff" points="285.97,-15.21 295.85,-11.38 285.74,-8.22 285.97,-15.21"/>
<g id="a_edge6&#45;headlabel"><a xlink:href="dir_000017_000022.html" target="_top" xlink:title="4">
<text text-anchor="middle" x="282.47" y="-15.67" font-family="Helvetica,sans-Serif" font-size="10.00" fill="#63b8ff">4</text>
</a>
</g>
</g>
</g>
</svg>
