<?xml version="1.0" encoding="UTF-8" standalone="no"?>
<!DOCTYPE svg PUBLIC "-//W3C//DTD SVG 1.1//EN"
 "http://www.w3.org/Graphics/SVG/1.1/DTD/svg11.dtd">
<!-- Generated by graphviz version 5.0.0 (20220708.1001)
 -->
<!-- Title: cli_gen_tool.MainWindow Pages: 1 -->
<svg width="319pt" height="370pt"
 viewBox="0.00 0.00 319.00 370.00" xmlns="http://www.w3.org/2000/svg" xmlns:xlink="http://www.w3.org/1999/xlink">
<g id="graph0" class="graph" transform="scale(1 1) rotate(0) translate(4 366)">
<title>cli_gen_tool.MainWindow</title>
<!-- Node1 -->
<g id="node1" class="node">
<title>Node1</title>
<g id="a_node1"><a xlink:title="This is the main display window.">
<polygon fill="#bfbfbf" stroke="black" points="185,-171.5 185,-190.5 311,-190.5 311,-171.5 185,-171.5"/>
<text text-anchor="middle" x="248" y="-178.5" font-family="Helvetica,sans-Serif" font-size="10.00">cli_gen_tool.MainWindow</text>
</a>
</g>
</g>
<!-- Node2 -->
<g id="node2" class="node">
<title>Node2</title>
<g id="a_node2"><a xlink:title=" ">
<polygon fill="none" stroke="black" points="34.5,-342.5 34.5,-361.5 114.5,-361.5 114.5,-342.5 34.5,-342.5"/>
<text text-anchor="middle" x="74.5" y="-349.5" font-family="Helvetica,sans-Serif" font-size="10.00">QMainWindow</text>
</a>
</g>
</g>
<!-- Node2&#45;&gt;Node1 -->
<g id="edge1" class="edge">
<title>Node2&#45;&gt;Node1</title>
<path fill="none" stroke="midnightblue" d="M124.61,-344.75C133.25,-342 141.78,-338.21 149,-333 202.2,-294.58 233.85,-217.58 243.68,-190.6"/>
<polygon fill="midnightblue" stroke="midnightblue" points="123.58,-341.4 114.86,-347.43 125.43,-348.15 123.58,-341.4"/>
</g>
<!-- Node3 -->
<g id="node3" class="node">
<title>Node3</title>
<g id="a_node3"><a xlink:title=" ">
<polygon fill="none" stroke="black" points="7.5,-304.5 7.5,-323.5 141.5,-323.5 141.5,-304.5 7.5,-304.5"/>
<text text-anchor="middle" x="74.5" y="-311.5" font-family="Helvetica,sans-Serif" font-size="10.00">SettingsTreeTableMethods</text>
</a>
</g>
</g>
<!-- Node3&#45;&gt;Node1 -->
<g id="edge2" class="edge">
<title>Node3&#45;&gt;Node1</title>
<path fill="none" stroke="midnightblue" d="M138.13,-300.71C141.91,-299.03 145.57,-297.13 149,-295 193.53,-267.27 228.55,-212.81 241.54,-190.69"/>
<polygon fill="midnightblue" stroke="midnightblue" points="136.55,-297.57 128.51,-304.47 139.1,-304.09 136.55,-297.57"/>
</g>
<!-- Node4 -->
<g id="node4" class="node">
<title>Node4</title>
<g id="a_node4"><a xlink:title=" ">
<polygon fill="none" stroke="black" points="33,-266.5 33,-285.5 116,-285.5 116,-266.5 33,-266.5"/>
<text text-anchor="middle" x="74.5" y="-273.5" font-family="Helvetica,sans-Serif" font-size="10.00">HelperMethods</text>
</a>
</g>
</g>
<!-- Node4&#45;&gt;Node1 -->
<g id="edge3" class="edge">
<title>Node4&#45;&gt;Node1</title>
<path fill="none" stroke="midnightblue" d="M126.11,-265.83C133.97,-263.42 141.85,-260.51 149,-257 185.14,-239.26 220.77,-206.88 237.36,-190.72"/>
<polygon fill="midnightblue" stroke="midnightblue" points="124.91,-262.53 116.23,-268.6 126.8,-269.27 124.91,-262.53"/>
</g>
<!-- Node5 -->
<g id="node5" class="node">
<title>Node5</title>
<g id="a_node5"><a xlink:title=" ">
<polygon fill="none" stroke="black" points="22,-228.5 22,-247.5 127,-247.5 127,-228.5 22,-228.5"/>
<text text-anchor="middle" x="74.5" y="-235.5" font-family="Helvetica,sans-Serif" font-size="10.00">MainWindowActions</text>
</a>
</g>
</g>
<!-- Node5&#45;&gt;Node1 -->
<g id="edge4" class="edge">
<title>Node5&#45;&gt;Node1</title>
<path fill="none" stroke="midnightblue" d="M125.64,-225.88C133.5,-223.74 141.5,-221.41 149,-219 175.4,-210.5 205,-198.7 224.69,-190.51"/>
<polygon fill="midnightblue" stroke="midnightblue" points="124.57,-222.54 115.8,-228.49 126.36,-229.31 124.57,-222.54"/>
</g>
<!-- Node6 -->
<g id="node6" class="node">
<title>Node6</title>
<g id="a_node6"><a xlink:title=" ">
<polygon fill="none" stroke="black" points="37.5,-190.5 37.5,-209.5 111.5,-209.5 111.5,-190.5 37.5,-190.5"/>
<text text-anchor="middle" x="74.5" y="-197.5" font-family="Helvetica,sans-Serif" font-size="10.00">CodePreview</text>
</a>
</g>
</g>
<!-- Node6&#45;&gt;Node1 -->
<g id="edge5" class="edge">
<title>Node6&#45;&gt;Node1</title>
<path fill="none" stroke="midnightblue" d="M121.92,-194.86C141.24,-192.72 163.95,-190.2 184.68,-187.9"/>
<polygon fill="midnightblue" stroke="midnightblue" points="121.42,-191.39 111.87,-195.97 122.2,-198.35 121.42,-191.39"/>
</g>
<!-- Node7 -->
<g id="node7" class="node">
<title>Node7</title>
<g id="a_node7"><a xlink:title=" ">
<polygon fill="none" stroke="black" points="19.5,-152.5 19.5,-171.5 129.5,-171.5 129.5,-152.5 19.5,-152.5"/>
<text text-anchor="middle" x="74.5" y="-159.5" font-family="Helvetica,sans-Serif" font-size="10.00">SettingsTreeMethods</text>
</a>
</g>
</g>
<!-- Node7&#45;&gt;Node1 -->
<g id="edge6" class="edge">
<title>Node7&#45;&gt;Node1</title>
<path fill="none" stroke="midnightblue" d="M139.78,-169.12C154.49,-170.75 170.1,-172.48 184.72,-174.1"/>
<polygon fill="midnightblue" stroke="midnightblue" points="140.09,-165.63 129.76,-168.01 139.32,-172.59 140.09,-165.63"/>
</g>
<!-- Node8 -->
<g id="node8" class="node">
<title>Node8</title>
<g id="a_node8"><a xlink:title=" ">
<polygon fill="none" stroke="black" points="0,-114.5 0,-133.5 149,-133.5 149,-114.5 0,-114.5"/>
<text text-anchor="middle" x="74.5" y="-121.5" font-family="Helvetica,sans-Serif" font-size="10.00">CommandParametersMethods</text>
</a>
</g>
</g>
<!-- Node8&#45;&gt;Node1 -->
<g id="edge7" class="edge">
<title>Node8&#45;&gt;Node1</title>
<path fill="none" stroke="midnightblue" d="M125.64,-136.12C133.5,-138.26 141.5,-140.59 149,-143 175.4,-151.5 205,-163.3 224.69,-171.49"/>
<polygon fill="midnightblue" stroke="midnightblue" points="126.36,-132.69 115.8,-133.51 124.57,-139.46 126.36,-132.69"/>
</g>
<!-- Node9 -->
<g id="node9" class="node">
<title>Node9</title>
<g id="a_node9"><a xlink:title=" ">
<polygon fill="none" stroke="black" points="21.5,-76.5 21.5,-95.5 127.5,-95.5 127.5,-76.5 21.5,-76.5"/>
<text text-anchor="middle" x="74.5" y="-83.5" font-family="Helvetica,sans-Serif" font-size="10.00">MainWindowButtons</text>
</a>
</g>
</g>
<!-- Node9&#45;&gt;Node1 -->
<g id="edge8" class="edge">
<title>Node9&#45;&gt;Node1</title>
<path fill="none" stroke="midnightblue" d="M133.59,-98.62C138.9,-100.49 144.12,-102.6 149,-105 185.14,-122.74 220.77,-155.12 237.36,-171.28"/>
<polygon fill="midnightblue" stroke="midnightblue" points="134.55,-95.26 123.96,-95.53 132.41,-101.92 134.55,-95.26"/>
</g>
<!-- Node10 -->
<g id="node10" class="node">
<title>Node10</title>
<g id="a_node10"><a xlink:title=" ">
<polygon fill="none" stroke="black" points="12,-38.5 12,-57.5 137,-57.5 137,-38.5 12,-38.5"/>
<text text-anchor="middle" x="74.5" y="-45.5" font-family="Helvetica,sans-Serif" font-size="10.00">ParseInputHandlerConfig</text>
</a>
</g>
</g>
<!-- Node10&#45;&gt;Node1 -->
<g id="edge9" class="edge">
<title>Node10&#45;&gt;Node1</title>
<path fill="none" stroke="midnightblue" d="M138.13,-61.29C141.91,-62.97 145.57,-64.87 149,-67 193.53,-94.73 228.55,-149.19 241.54,-171.31"/>
<polygon fill="midnightblue" stroke="midnightblue" points="139.1,-57.91 128.51,-57.53 136.55,-64.43 139.1,-57.91"/>
</g>
<!-- Node11 -->
<g id="node11" class="node">
<title>Node11</title>
<g id="a_node11"><a xlink:title=" ">
<polygon fill="none" stroke="black" points="37.5,-0.5 37.5,-19.5 111.5,-19.5 111.5,-0.5 37.5,-0.5"/>
<text text-anchor="middle" x="74.5" y="-7.5" font-family="Helvetica,sans-Serif" font-size="10.00">CLIfilestrings</text>
</a>
</g>
</g>
<!-- Node11&#45;&gt;Node1 -->
<g id="edge10" class="edge">
<title>Node11&#45;&gt;Node1</title>
<path fill="none" stroke="midnightblue" d="M121.77,-16.39C131.37,-19.19 140.99,-23.21 149,-29 202.2,-67.42 233.85,-144.42 243.68,-171.4"/>
<polygon fill="midnightblue" stroke="midnightblue" points="122.39,-12.93 111.84,-13.89 120.68,-19.72 122.39,-12.93"/>
</g>
</g>
</svg>
