<?xml version="1.0" encoding="UTF-8" standalone="no"?>
<!DOCTYPE svg PUBLIC "-//W3C//DTD SVG 1.1//EN"
 "http://www.w3.org/Graphics/SVG/1.1/DTD/svg11.dtd">
<!-- Generated by graphviz version 3.0.0 (20220413.0106)
 -->
<!-- Title: InputProcessParameters Pages: 1 -->
<svg width="352pt" height="95pt"
 viewBox="0.00 0.00 351.50 95.00" xmlns="http://www.w3.org/2000/svg" xmlns:xlink="http://www.w3.org/1999/xlink">
<g id="graph0" class="graph" transform="scale(1 1) rotate(0) translate(4 91)">
<title>InputProcessParameters</title>
<!-- Node1 -->
<g id="node1" class="node">
<title>Node1</title>
<g id="a_node1"><a xlink:title="UserInput input process parameters, constructor parameters This struct is an array of pointers to oth...">
<polygon fill="#bfbfbf" stroke="black" points="108,-0.5 108,-19.5 233,-19.5 233,-0.5 108,-0.5"/>
<text text-anchor="middle" x="170.5" y="-7.5" font-family="Helvetica,sans-Serif" font-size="10.00">InputProcessParameters</text>
</a>
</g>
</g>
<!-- Node2 -->
<g id="node2" class="node">
<title>Node2</title>
<g id="a_node2"><a xlink:href="../../dc/da2/struct_input_process_delimiter_sequences.html" target="_top" xlink:title="InputProcessDelimiterSequences struct holds user defined input data delimiters This struct holds info...">
<polygon fill="none" stroke="black" points="0,-67.5 0,-86.5 161,-86.5 161,-67.5 0,-67.5"/>
<text text-anchor="middle" x="80.5" y="-74.5" font-family="Helvetica,sans-Serif" font-size="10.00">InputProcessDelimiterSequences</text>
</a>
</g>
</g>
<!-- Node2&#45;&gt;Node1 -->
<g id="edge1" class="edge">
<title>Node2&#45;&gt;Node1</title>
<path fill="none" stroke="#9a32cd" stroke-dasharray="5,2" d="M101.18,-61.07C118.94,-48.24 143.94,-30.19 158.55,-19.63"/>
<polygon fill="#9a32cd" stroke="#9a32cd" points="98.7,-58.54 92.64,-67.23 102.79,-64.22 98.7,-58.54"/>
<text text-anchor="middle" x="155" y="-41" font-family="Helvetica,sans-Serif" font-size="10.00"> pdelimseq</text>
</g>
<!-- Node3 -->
<g id="node3" class="node">
<title>Node3</title>
<g id="a_node3"><a xlink:href="../../d4/dc0/struct_input_process_start_stop_sequences.html" target="_top" xlink:title="InputProcessStartStopSequences struct holds regex&#45;like start&#45;stop match sequence pairs This struct ho...">
<polygon fill="none" stroke="black" points="179.5,-67.5 179.5,-86.5 343.5,-86.5 343.5,-67.5 179.5,-67.5"/>
<text text-anchor="middle" x="261.5" y="-74.5" font-family="Helvetica,sans-Serif" font-size="10.00">InputProcessStartStopSequences</text>
</a>
</g>
</g>
<!-- Node3&#45;&gt;Node1 -->
<g id="edge2" class="edge">
<title>Node3&#45;&gt;Node1</title>
<path fill="none" stroke="#9a32cd" stroke-dasharray="5,2" d="M241.09,-61.42C223.1,-48.57 197.49,-30.28 182.58,-19.63"/>
<polygon fill="#9a32cd" stroke="#9a32cd" points="239.06,-64.27 249.23,-67.23 243.12,-58.57 239.06,-64.27"/>
<text text-anchor="middle" x="243.5" y="-41" font-family="Helvetica,sans-Serif" font-size="10.00"> pststpseq</text>
</g>
</g>
</svg>
