<?xml version="1.0" encoding="UTF-8" standalone="no"?>
<!DOCTYPE svg PUBLIC "-//W3C//DTD SVG 1.1//EN"
 "http://www.w3.org/Graphics/SVG/1.1/DTD/svg11.dtd">
<!-- Generated by graphviz version 6.0.1 (20220911.1526)
 -->
<!-- Title: InputProcessParameters Pages: 1 -->
<svg width="352pt" height="93pt"
 viewBox="0.00 0.00 351.50 93.00" xmlns="http://www.w3.org/2000/svg" xmlns:xlink="http://www.w3.org/1999/xlink">
<g id="graph0" class="graph" transform="scale(1 1) rotate(0) translate(4 89)">
<title>InputProcessParameters</title>
<!-- Node1 -->
<g id="node1" class="node">
<title>Node1</title>
<g id="a_node1"><a xlink:title="UserInput input process parameters, constructor parameters This struct is an array of pointers to oth...">
<polygon fill="#999999" stroke="#666666" points="233,-19 108,-19 108,0 233,0 233,-19"/>
<text text-anchor="middle" x="170.5" y="-7" font-family="Helvetica,sans-Serif" font-size="10.00">InputProcessParameters</text>
</a>
</g>
</g>
<!-- Node2 -->
<g id="node2" class="node">
<title>Node2</title>
<g id="a_node2"><a xlink:href="../../dc/da2/struct_input_process_delimiter_sequences.html" target="_top" xlink:title="InputProcessDelimiterSequences struct holds user defined input data delimiters This struct holds info...">
<polygon fill="white" stroke="#666666" points="161,-85 0,-85 0,-66 161,-66 161,-85"/>
<text text-anchor="middle" x="80.5" y="-73" font-family="Helvetica,sans-Serif" font-size="10.00">InputProcessDelimiterSequences</text>
</a>
</g>
</g>
<!-- Node2&#45;&gt;Node1 -->
<g id="edge1" class="edge">
<title>Node2&#45;&gt;Node1</title>
<path fill="none" stroke="#9a32cd" stroke-dasharray="5,2" d="M101.12,-59.83C118.78,-47.28 143.6,-29.63 158.27,-19.2"/>
<polygon fill="#9a32cd" stroke="#9a32cd" points="98.76,-57.22 92.64,-65.87 102.82,-62.93 98.76,-57.22"/>
<text text-anchor="middle" x="155" y="-40" font-family="Helvetica,sans-Serif" font-size="10.00"> pdelimseq</text>
</g>
<!-- Node3 -->
<g id="node3" class="node">
<title>Node3</title>
<g id="a_node3"><a xlink:href="../../d4/dc0/struct_input_process_start_stop_sequences.html" target="_top" xlink:title="InputProcessStartStopSequences struct holds regex&#45;like start&#45;stop match sequence pairs This struct ho...">
<polygon fill="white" stroke="#666666" points="343.5,-85 179.5,-85 179.5,-66 343.5,-66 343.5,-85"/>
<text text-anchor="middle" x="261.5" y="-73" font-family="Helvetica,sans-Serif" font-size="10.00">InputProcessStartStopSequences</text>
</a>
</g>
</g>
<!-- Node3&#45;&gt;Node1 -->
<g id="edge2" class="edge">
<title>Node3&#45;&gt;Node1</title>
<path fill="none" stroke="#9a32cd" stroke-dasharray="5,2" d="M240.65,-59.83C222.8,-47.28 197.7,-29.63 182.87,-19.2"/>
<polygon fill="#9a32cd" stroke="#9a32cd" points="239.03,-62.98 249.23,-65.87 243.06,-57.25 239.03,-62.98"/>
<text text-anchor="middle" x="243.5" y="-40" font-family="Helvetica,sans-Serif" font-size="10.00"> pststpseq</text>
</g>
</g>
</svg>
