<?xml version="1.0" encoding="UTF-8" standalone="no"?>
<!DOCTYPE svg PUBLIC "-//W3C//DTD SVG 1.1//EN"
 "http://www.w3.org/Graphics/SVG/1.1/DTD/svg11.dtd">
<!-- Generated by graphviz version 5.0.1 (20220820.1526)
 -->
<!-- Title: examples/all_platforms/advanced/MultiFile/CLI/parameters.h Pages: 1 -->
<svg width="302pt" height="203pt"
 viewBox="0.00 0.00 302.00 203.00" xmlns="http://www.w3.org/2000/svg" xmlns:xlink="http://www.w3.org/1999/xlink">
<g id="graph0" class="graph" transform="scale(1 1) rotate(0) translate(4 199)">
<title>examples/all_platforms/advanced/MultiFile/CLI/parameters.h</title>
<!-- Node1 -->
<g id="node1" class="node">
<title>Node1</title>
<g id="a_node1"><a xlink:title="Parameters and CommandConstructor objects for MultiFile.ino.">
<polygon fill="#999999" stroke="#666666" points="120,-195 0,-195 0,-154 120,-154 120,-195"/>
<text text-anchor="start" x="8" y="-183" font-family="Helvetica,sans-Serif" font-size="10.00">examples/all_platforms</text>
<text text-anchor="start" x="8" y="-172" font-family="Helvetica,sans-Serif" font-size="10.00">/advanced/MultiFile/CLI</text>
<text text-anchor="middle" x="60" y="-161" font-family="Helvetica,sans-Serif" font-size="10.00">/parameters.h</text>
</a>
</g>
</g>
<!-- Node2 -->
<g id="node2" class="node">
<title>Node2</title>
<g id="a_node2"><a xlink:href="../../d0/dd9/cli__setup_8h.html" target="_top" xlink:title="setup example for MultiFile.ino">
<polygon fill="white" stroke="#666666" points="120,-118 0,-118 0,-77 120,-77 120,-118"/>
<text text-anchor="start" x="8" y="-106" font-family="Helvetica,sans-Serif" font-size="10.00">examples/all_platforms</text>
<text text-anchor="start" x="8" y="-95" font-family="Helvetica,sans-Serif" font-size="10.00">/advanced/MultiFile/CLI</text>
<text text-anchor="middle" x="60" y="-84" font-family="Helvetica,sans-Serif" font-size="10.00">/cli_setup.h</text>
</a>
</g>
</g>
<!-- Node1&#45;&gt;Node2 -->
<g id="edge1" class="edge">
<title>Node1&#45;&gt;Node2</title>
<path fill="none" stroke="#63b8ff" d="M53.38,-143.69C53.09,-135.08 53.29,-125.9 53.99,-118.07"/>
<polygon fill="#63b8ff" stroke="#63b8ff" points="49.89,-144.02 53.98,-153.79 56.88,-143.6 49.89,-144.02"/>
</g>
<!-- Node2&#45;&gt;Node1 -->
<g id="edge4" class="edge">
<title>Node2&#45;&gt;Node1</title>
<path fill="none" stroke="#63b8ff" d="M66.62,-128.16C66.91,-136.77 66.71,-145.96 66.02,-153.79"/>
<polygon fill="#63b8ff" stroke="#63b8ff" points="70.1,-127.85 66.01,-118.07 63.12,-128.27 70.1,-127.85"/>
</g>
<!-- Node3 -->
<g id="node3" class="node">
<title>Node3</title>
<g id="a_node3"><a xlink:href="../../d8/d5c/functions_8h.html" target="_top" xlink:title="Functions for MultiFile.ino.">
<polygon fill="white" stroke="#666666" points="120,-41 0,-41 0,0 120,0 120,-41"/>
<text text-anchor="start" x="8" y="-29" font-family="Helvetica,sans-Serif" font-size="10.00">examples/all_platforms</text>
<text text-anchor="start" x="8" y="-18" font-family="Helvetica,sans-Serif" font-size="10.00">/advanced/MultiFile/CLI</text>
<text text-anchor="middle" x="60" y="-7" font-family="Helvetica,sans-Serif" font-size="10.00">/functions.h</text>
</a>
</g>
</g>
<!-- Node2&#45;&gt;Node3 -->
<g id="edge2" class="edge">
<title>Node2&#45;&gt;Node3</title>
<path fill="none" stroke="#63b8ff" d="M53.38,-66.69C53.09,-58.08 53.29,-48.9 53.99,-41.07"/>
<polygon fill="#63b8ff" stroke="#63b8ff" points="49.89,-67.02 53.98,-76.79 56.88,-66.6 49.89,-67.02"/>
</g>
<!-- Node4 -->
<g id="node4" class="node">
<title>Node4</title>
<g id="a_node4"><a xlink:href="../../d6/d12/_multi_file_8ino.html" target="_top" xlink:title="An example that demonstrates multiple file setup.">
<polygon fill="white" stroke="#666666" points="294,-35.5 138,-35.5 138,-5.5 294,-5.5 294,-35.5"/>
<text text-anchor="start" x="146" y="-23.5" font-family="Helvetica,sans-Serif" font-size="10.00">examples/all_platforms</text>
<text text-anchor="middle" x="216" y="-12.5" font-family="Helvetica,sans-Serif" font-size="10.00">/advanced/MultiFile/MultiFile.ino</text>
</a>
</g>
</g>
<!-- Node2&#45;&gt;Node4 -->
<g id="edge5" class="edge">
<title>Node2&#45;&gt;Node4</title>
<path fill="none" stroke="#63b8ff" d="M109.66,-72.62C134.95,-60.47 164.83,-46.1 186.46,-35.7"/>
<polygon fill="#63b8ff" stroke="#63b8ff" points="108.08,-69.5 100.58,-76.99 111.11,-75.81 108.08,-69.5"/>
</g>
<!-- Node3&#45;&gt;Node2 -->
<g id="edge3" class="edge">
<title>Node3&#45;&gt;Node2</title>
<path fill="none" stroke="#63b8ff" d="M66.62,-51.16C66.91,-59.77 66.71,-68.96 66.02,-76.79"/>
<polygon fill="#63b8ff" stroke="#63b8ff" points="70.1,-50.85 66.01,-41.07 63.12,-51.27 70.1,-50.85"/>
</g>
</g>
</svg>
