<?xml version="1.0" encoding="UTF-8" standalone="no"?>
<!DOCTYPE svg PUBLIC "-//W3C//DTD SVG 1.1//EN"
 "http://www.w3.org/Graphics/SVG/1.1/DTD/svg11.dtd">
<!-- Generated by graphviz version 4.0.0 (20220602.1335)
 -->
<!-- Title: examples/all_platforms/advanced/MultiFile/CLI/parameters.h Pages: 1 -->
<svg width="302pt" height="206pt"
 viewBox="0.00 0.00 302.00 206.00" xmlns="http://www.w3.org/2000/svg" xmlns:xlink="http://www.w3.org/1999/xlink">
<g id="graph0" class="graph" transform="scale(1 1) rotate(0) translate(4 202)">
<title>examples/all_platforms/advanced/MultiFile/CLI/parameters.h</title>
<!-- Node1 -->
<g id="node1" class="node">
<title>Node1</title>
<g id="a_node1"><a xlink:title="Parameters and CommandConstructor objects for MultiFile.ino.">
<polygon fill="#bfbfbf" stroke="black" points="0,-156.5 0,-197.5 120,-197.5 120,-156.5 0,-156.5"/>
<text text-anchor="start" x="8" y="-185.5" font-family="Helvetica,sans-Serif" font-size="10.00">examples/all_platforms</text>
<text text-anchor="start" x="8" y="-174.5" font-family="Helvetica,sans-Serif" font-size="10.00">/advanced/MultiFile/CLI</text>
<text text-anchor="middle" x="60" y="-163.5" font-family="Helvetica,sans-Serif" font-size="10.00">/parameters.h</text>
</a>
</g>
</g>
<!-- Node2 -->
<g id="node2" class="node">
<title>Node2</title>
<g id="a_node2"><a xlink:href="../../d0/dd9/cli__setup_8h.html" target="_top" xlink:title="setup example for MultiFile.ino">
<polygon fill="none" stroke="black" points="0,-78.5 0,-119.5 120,-119.5 120,-78.5 0,-78.5"/>
<text text-anchor="start" x="8" y="-107.5" font-family="Helvetica,sans-Serif" font-size="10.00">examples/all_platforms</text>
<text text-anchor="start" x="8" y="-96.5" font-family="Helvetica,sans-Serif" font-size="10.00">/advanced/MultiFile/CLI</text>
<text text-anchor="middle" x="60" y="-85.5" font-family="Helvetica,sans-Serif" font-size="10.00">/cli_setup.h</text>
</a>
</g>
</g>
<!-- Node1&#45;&gt;Node2 -->
<g id="edge1" class="edge">
<title>Node1&#45;&gt;Node2</title>
<path fill="none" stroke="midnightblue" d="M53.4,-146.3C53.08,-137.3 53.28,-127.65 54.02,-119.51"/>
<polygon fill="midnightblue" stroke="midnightblue" points="49.91,-146.66 54.01,-156.43 56.9,-146.23 49.91,-146.66"/>
</g>
<!-- Node2&#45;&gt;Node1 -->
<g id="edge4" class="edge">
<title>Node2&#45;&gt;Node1</title>
<path fill="none" stroke="midnightblue" d="M66.6,-129.63C66.92,-138.62 66.72,-148.27 65.99,-156.43"/>
<polygon fill="midnightblue" stroke="midnightblue" points="70.09,-129.27 65.98,-119.51 63.1,-129.7 70.09,-129.27"/>
</g>
<!-- Node3 -->
<g id="node3" class="node">
<title>Node3</title>
<g id="a_node3"><a xlink:href="../../d8/d5c/functions_8h.html" target="_top" xlink:title="Functions for MultiFile.ino.">
<polygon fill="none" stroke="black" points="0,-0.5 0,-41.5 120,-41.5 120,-0.5 0,-0.5"/>
<text text-anchor="start" x="8" y="-29.5" font-family="Helvetica,sans-Serif" font-size="10.00">examples/all_platforms</text>
<text text-anchor="start" x="8" y="-18.5" font-family="Helvetica,sans-Serif" font-size="10.00">/advanced/MultiFile/CLI</text>
<text text-anchor="middle" x="60" y="-7.5" font-family="Helvetica,sans-Serif" font-size="10.00">/functions.h</text>
</a>
</g>
</g>
<!-- Node2&#45;&gt;Node3 -->
<g id="edge2" class="edge">
<title>Node2&#45;&gt;Node3</title>
<path fill="none" stroke="midnightblue" d="M53.4,-68.3C53.08,-59.3 53.28,-49.65 54.02,-41.51"/>
<polygon fill="midnightblue" stroke="midnightblue" points="49.91,-68.66 54.01,-78.43 56.9,-68.23 49.91,-68.66"/>
</g>
<!-- Node4 -->
<g id="node4" class="node">
<title>Node4</title>
<g id="a_node4"><a xlink:href="../../d6/d12/_multi_file_8ino.html" target="_top" xlink:title="An example that demonstrates multiple file setup.">
<polygon fill="none" stroke="black" points="138,-6 138,-36 294,-36 294,-6 138,-6"/>
<text text-anchor="start" x="146" y="-24" font-family="Helvetica,sans-Serif" font-size="10.00">examples/all_platforms</text>
<text text-anchor="middle" x="216" y="-13" font-family="Helvetica,sans-Serif" font-size="10.00">/advanced/MultiFile/MultiFile.ino</text>
</a>
</g>
</g>
<!-- Node2&#45;&gt;Node4 -->
<g id="edge5" class="edge">
<title>Node2&#45;&gt;Node4</title>
<path fill="none" stroke="midnightblue" d="M109.32,-73.97C134.81,-61.55 165.04,-46.83 186.8,-36.23"/>
<polygon fill="midnightblue" stroke="midnightblue" points="107.63,-70.9 100.17,-78.43 110.7,-77.19 107.63,-70.9"/>
</g>
<!-- Node3&#45;&gt;Node2 -->
<g id="edge3" class="edge">
<title>Node3&#45;&gt;Node2</title>
<path fill="none" stroke="midnightblue" d="M66.6,-51.63C66.92,-60.62 66.72,-70.27 65.99,-78.43"/>
<polygon fill="midnightblue" stroke="midnightblue" points="70.09,-51.27 65.98,-41.51 63.1,-51.7 70.09,-51.27"/>
</g>
</g>
</svg>
