<?xml version="1.0" encoding="UTF-8" standalone="no"?>
<!DOCTYPE svg PUBLIC "-//W3C//DTD SVG 1.1//EN"
 "http://www.w3.org/Graphics/SVG/1.1/DTD/svg11.dtd">
<!-- Generated by graphviz version 3.0.0 (20220413.0106)
 -->
<!-- Title: examples/all_platforms/advanced/NestedCommands/NestedCommands.ino Pages: 1 -->
<svg width="154pt" height="229pt"
 viewBox="0.00 0.00 154.00 229.00" xmlns="http://www.w3.org/2000/svg" xmlns:xlink="http://www.w3.org/1999/xlink">
<g id="graph0" class="graph" transform="scale(1 1) rotate(0) translate(4 225)">
<title>examples/all_platforms/advanced/NestedCommands/NestedCommands.ino</title>
<!-- Node1 -->
<g id="node1" class="node">
<title>Node1</title>
<g id="a_node1"><a xlink:title="An example that demonstrates nested subcommands.">
<polygon fill="#bfbfbf" stroke="black" points="0,-179.5 0,-220.5 146,-220.5 146,-179.5 0,-179.5"/>
<text text-anchor="start" x="8" y="-208.5" font-family="Helvetica,sans-Serif" font-size="10.00">examples/all_platforms</text>
<text text-anchor="start" x="8" y="-197.5" font-family="Helvetica,sans-Serif" font-size="10.00">/advanced/NestedCommands</text>
<text text-anchor="middle" x="73" y="-186.5" font-family="Helvetica,sans-Serif" font-size="10.00">/NestedCommands.ino</text>
</a>
</g>
</g>
<!-- Node2 -->
<g id="node2" class="node">
<title>Node2</title>
<g id="a_node2"><a xlink:href="../../df/dec/_input_handler_8h.html" target="_top" xlink:title="InputHandler library header file.">
<polygon fill="none" stroke="black" points="33,-123.5 33,-142.5 113,-142.5 113,-123.5 33,-123.5"/>
<text text-anchor="middle" x="73" y="-130.5" font-family="Helvetica,sans-Serif" font-size="10.00">InputHandler.h</text>
</a>
</g>
</g>
<!-- Node1&#45;&gt;Node2 -->
<g id="edge1" class="edge">
<title>Node1&#45;&gt;Node2</title>
<path fill="none" stroke="midnightblue" d="M73,-179.5C73,-171.07 73,-161.24 73,-152.87"/>
<polygon fill="midnightblue" stroke="midnightblue" points="76.5,-152.65 73,-142.65 69.5,-152.65 76.5,-152.65"/>
</g>
<!-- Node3 -->
<g id="node3" class="node">
<title>Node3</title>
<g id="a_node3"><a xlink:href="../../dd/d4e/_input_handler__config_8h.html" target="_top" xlink:title="InputHandler library configuration file.">
<polygon fill="none" stroke="black" points="22.5,-56.5 22.5,-86.5 123.5,-86.5 123.5,-56.5 22.5,-56.5"/>
<text text-anchor="start" x="30.5" y="-74.5" font-family="Helvetica,sans-Serif" font-size="10.00">config/InputHandler</text>
<text text-anchor="middle" x="73" y="-63.5" font-family="Helvetica,sans-Serif" font-size="10.00">_config.h</text>
</a>
</g>
</g>
<!-- Node2&#45;&gt;Node3 -->
<g id="edge2" class="edge">
<title>Node2&#45;&gt;Node3</title>
<path fill="none" stroke="midnightblue" d="M73,-123.48C73,-116.47 73,-106.19 73,-96.7"/>
<polygon fill="midnightblue" stroke="midnightblue" points="76.5,-96.52 73,-86.52 69.5,-96.52 76.5,-96.52"/>
</g>
<!-- Node4 -->
<g id="node4" class="node">
<title>Node4</title>
<g id="a_node4"><a xlink:title=" ">
<polygon fill="none" stroke="#bfbfbf" points="44.5,-0.5 44.5,-19.5 101.5,-19.5 101.5,-0.5 44.5,-0.5"/>
<text text-anchor="middle" x="73" y="-7.5" font-family="Helvetica,sans-Serif" font-size="10.00">Arduino.h</text>
</a>
</g>
</g>
<!-- Node3&#45;&gt;Node4 -->
<g id="edge3" class="edge">
<title>Node3&#45;&gt;Node4</title>
<path fill="none" stroke="midnightblue" d="M73,-56.4C73,-48.47 73,-38.46 73,-29.86"/>
<polygon fill="midnightblue" stroke="midnightblue" points="76.5,-29.66 73,-19.66 69.5,-29.66 76.5,-29.66"/>
</g>
</g>
</svg>
