<?xml version="1.0" encoding="UTF-8" standalone="no"?>
<!DOCTYPE svg PUBLIC "-//W3C//DTD SVG 1.1//EN"
 "http://www.w3.org/Graphics/SVG/1.1/DTD/svg11.dtd">
<!-- Generated by graphviz version 3.0.0 (20220413.0106)
 -->
<!-- Title: examples/all_platforms/basic/BLE_UART/BLE_UART.ino Pages: 1 -->
<svg width="621pt" height="229pt"
 viewBox="0.00 0.00 620.91 229.00" xmlns="http://www.w3.org/2000/svg" xmlns:xlink="http://www.w3.org/1999/xlink">
<g id="graph0" class="graph" transform="scale(1 1) rotate(0) translate(4 225)">
<title>examples/all_platforms/basic/BLE_UART/BLE_UART.ino</title>
<!-- Node1 -->
<g id="node1" class="node">
<title>Node1</title>
<g id="a_node1"><a xlink:title=" ">
<polygon fill="#bfbfbf" stroke="black" points="151.91,-190.5 151.91,-220.5 317.91,-220.5 317.91,-190.5 151.91,-190.5"/>
<text text-anchor="start" x="159.91" y="-208.5" font-family="Helvetica,sans-Serif" font-size="10.00">examples/all_platforms</text>
<text text-anchor="middle" x="234.91" y="-197.5" font-family="Helvetica,sans-Serif" font-size="10.00">/basic/BLE_UART/BLE_UART.ino</text>
</a>
</g>
</g>
<!-- Node2 -->
<g id="node2" class="node">
<title>Node2</title>
<g id="a_node2"><a xlink:title=" ">
<polygon fill="none" stroke="#bfbfbf" points="5.41,-0.5 5.41,-19.5 62.41,-19.5 62.41,-0.5 5.41,-0.5"/>
<text text-anchor="middle" x="33.91" y="-7.5" font-family="Helvetica,sans-Serif" font-size="10.00">Arduino.h</text>
</a>
</g>
</g>
<!-- Node1&#45;&gt;Node2 -->
<g id="edge1" class="edge">
<title>Node1&#45;&gt;Node2</title>
<path fill="none" stroke="midnightblue" d="M151.65,-196.22C96.49,-188.81 31.2,-175.7 13.91,-154 -15.31,-117.35 8.81,-57.97 23.95,-28.6"/>
<polygon fill="midnightblue" stroke="midnightblue" points="27.16,-30.01 28.83,-19.55 21,-26.69 27.16,-30.01"/>
</g>
<!-- Node3 -->
<g id="node3" class="node">
<title>Node3</title>
<g id="a_node3"><a xlink:title=" ">
<polygon fill="none" stroke="#bfbfbf" points="23.41,-129 23.41,-148 64.41,-148 64.41,-129 23.41,-129"/>
<text text-anchor="middle" x="43.91" y="-136" font-family="Helvetica,sans-Serif" font-size="10.00">SPI.h</text>
</a>
</g>
</g>
<!-- Node1&#45;&gt;Node3 -->
<g id="edge2" class="edge">
<title>Node1&#45;&gt;Node3</title>
<path fill="none" stroke="midnightblue" d="M183.48,-190.45C151.54,-181.22 109.86,-168.24 73.91,-154 72.53,-153.45 71.12,-152.87 69.72,-152.27"/>
<polygon fill="midnightblue" stroke="midnightblue" points="71.08,-149.04 60.53,-148.07 68.17,-155.41 71.08,-149.04"/>
</g>
<!-- Node4 -->
<g id="node4" class="node">
<title>Node4</title>
<g id="a_node4"><a xlink:title=" ">
<polygon fill="none" stroke="#bfbfbf" points="82.91,-129 82.91,-148 164.91,-148 164.91,-129 82.91,-129"/>
<text text-anchor="middle" x="123.91" y="-136" font-family="Helvetica,sans-Serif" font-size="10.00">Adafruit_BLE.h</text>
</a>
</g>
</g>
<!-- Node1&#45;&gt;Node4 -->
<g id="edge3" class="edge">
<title>Node1&#45;&gt;Node4</title>
<path fill="none" stroke="midnightblue" d="M210.82,-190.4C191.95,-179.34 165.85,-164.06 147.18,-153.13"/>
<polygon fill="midnightblue" stroke="midnightblue" points="148.83,-150.04 138.43,-148.01 145.29,-156.08 148.83,-150.04"/>
</g>
<!-- Node5 -->
<g id="node5" class="node">
<title>Node5</title>
<g id="a_node5"><a xlink:title=" ">
<polygon fill="none" stroke="#bfbfbf" points="182.91,-123.5 182.91,-153.5 286.91,-153.5 286.91,-123.5 182.91,-123.5"/>
<text text-anchor="start" x="190.91" y="-141.5" font-family="Helvetica,sans-Serif" font-size="10.00">Adafruit_BluefruitLE</text>
<text text-anchor="middle" x="234.91" y="-130.5" font-family="Helvetica,sans-Serif" font-size="10.00">_SPI.h</text>
</a>
</g>
</g>
<!-- Node1&#45;&gt;Node5 -->
<g id="edge4" class="edge">
<title>Node1&#45;&gt;Node5</title>
<path fill="none" stroke="midnightblue" d="M234.91,-190.4C234.91,-182.64 234.91,-172.81 234.91,-163.86"/>
<polygon fill="midnightblue" stroke="midnightblue" points="238.41,-163.58 234.91,-153.58 231.41,-163.58 238.41,-163.58"/>
</g>
<!-- Node6 -->
<g id="node6" class="node">
<title>Node6</title>
<g id="a_node6"><a xlink:title=" ">
<polygon fill="none" stroke="#bfbfbf" points="304.91,-123.5 304.91,-153.5 408.91,-153.5 408.91,-123.5 304.91,-123.5"/>
<text text-anchor="start" x="312.91" y="-141.5" font-family="Helvetica,sans-Serif" font-size="10.00">Adafruit_BluefruitLE</text>
<text text-anchor="middle" x="356.91" y="-130.5" font-family="Helvetica,sans-Serif" font-size="10.00">_UART.h</text>
</a>
</g>
</g>
<!-- Node1&#45;&gt;Node6 -->
<g id="edge5" class="edge">
<title>Node1&#45;&gt;Node6</title>
<path fill="none" stroke="midnightblue" d="M261.38,-190.4C278.96,-181.03 302.26,-168.62 321.44,-158.39"/>
<polygon fill="midnightblue" stroke="midnightblue" points="323.3,-161.37 330.48,-153.58 320.01,-155.19 323.3,-161.37"/>
</g>
<!-- Node7 -->
<g id="node7" class="node">
<title>Node7</title>
<g id="a_node7"><a xlink:href="../../d2/df9/_bluefruit_config_8h.html" target="_top" xlink:title=" ">
<polygon fill="none" stroke="black" points="427.41,-129 427.41,-148 514.41,-148 514.41,-129 427.41,-129"/>
<text text-anchor="middle" x="470.91" y="-136" font-family="Helvetica,sans-Serif" font-size="10.00">BluefruitConfig.h</text>
</a>
</g>
</g>
<!-- Node1&#45;&gt;Node7 -->
<g id="edge6" class="edge">
<title>Node1&#45;&gt;Node7</title>
<path fill="none" stroke="midnightblue" d="M285.82,-190.48C329.04,-178.57 390.25,-161.72 430.25,-150.7"/>
<polygon fill="midnightblue" stroke="midnightblue" points="431.23,-154.06 439.94,-148.03 429.37,-147.31 431.23,-154.06"/>
</g>
<!-- Node8 -->
<g id="node8" class="node">
<title>Node8</title>
<g id="a_node8"><a xlink:href="../../df/dec/_input_handler_8h.html" target="_top" xlink:title="InputHandler library header file.">
<polygon fill="none" stroke="black" points="532.91,-129 532.91,-148 612.91,-148 612.91,-129 532.91,-129"/>
<text text-anchor="middle" x="572.91" y="-136" font-family="Helvetica,sans-Serif" font-size="10.00">InputHandler.h</text>
</a>
</g>
</g>
<!-- Node1&#45;&gt;Node8 -->
<g id="edge7" class="edge">
<title>Node1&#45;&gt;Node8</title>
<path fill="none" stroke="midnightblue" d="M317.95,-192.58C375.98,-183.62 455.1,-170.14 523.91,-154 527.99,-153.04 532.23,-151.95 536.44,-150.79"/>
<polygon fill="midnightblue" stroke="midnightblue" points="537.44,-154.15 546.1,-148.04 535.52,-147.41 537.44,-154.15"/>
</g>
<!-- Node9 -->
<g id="node9" class="node">
<title>Node9</title>
<g id="a_node9"><a xlink:href="../../dd/d4e/_input_handler__config_8h.html" target="_top" xlink:title="InputHandler library configuration file.">
<polygon fill="none" stroke="black" points="272.41,-56.5 272.41,-86.5 373.41,-86.5 373.41,-56.5 272.41,-56.5"/>
<text text-anchor="start" x="280.41" y="-74.5" font-family="Helvetica,sans-Serif" font-size="10.00">config/InputHandler</text>
<text text-anchor="middle" x="322.91" y="-63.5" font-family="Helvetica,sans-Serif" font-size="10.00">_config.h</text>
</a>
</g>
</g>
<!-- Node8&#45;&gt;Node9 -->
<g id="edge8" class="edge">
<title>Node8&#45;&gt;Node9</title>
<path fill="none" stroke="midnightblue" d="M544.72,-128.94C537.92,-126.94 530.67,-124.85 523.91,-123 476.87,-110.14 423.31,-96.74 383.31,-86.98"/>
<polygon fill="midnightblue" stroke="midnightblue" points="383.99,-83.55 373.45,-84.58 382.33,-90.35 383.99,-83.55"/>
</g>
<!-- Node9&#45;&gt;Node2 -->
<g id="edge9" class="edge">
<title>Node9&#45;&gt;Node2</title>
<path fill="none" stroke="midnightblue" d="M272.23,-60.07C215.29,-48.34 124.09,-29.57 72.59,-18.96"/>
<polygon fill="midnightblue" stroke="midnightblue" points="73.04,-15.48 62.54,-16.89 71.62,-22.34 73.04,-15.48"/>
</g>
</g>
</svg>
