<?xml version="1.0" encoding="UTF-8" standalone="no"?>
<!DOCTYPE svg PUBLIC "-//W3C//DTD SVG 1.1//EN"
 "http://www.w3.org/Graphics/SVG/1.1/DTD/svg11.dtd">
<!-- Generated by graphviz version 3.0.0 (20220413.0106)
 -->
<!-- Title: examples/all_platforms/basic/BLE_UART/BLE_UART.ino Pages: 1 -->
<svg width="707pt" height="240pt"
 viewBox="0.00 0.00 706.86 240.00" xmlns="http://www.w3.org/2000/svg" xmlns:xlink="http://www.w3.org/1999/xlink">
<g id="graph0" class="graph" transform="scale(1 1) rotate(0) translate(4 236)">
<title>examples/all_platforms/basic/BLE_UART/BLE_UART.ino</title>
<!-- Node1 -->
<g id="node1" class="node">
<title>Node1</title>
<g id="a_node1"><a xlink:title=" ">
<polygon fill="#bfbfbf" stroke="black" points="148.86,-201.5 148.86,-231.5 314.86,-231.5 314.86,-201.5 148.86,-201.5"/>
<text text-anchor="start" x="156.86" y="-219.5" font-family="Helvetica,sans-Serif" font-size="10.00">examples/all_platforms</text>
<text text-anchor="middle" x="231.86" y="-208.5" font-family="Helvetica,sans-Serif" font-size="10.00">/basic/BLE_UART/BLE_UART.ino</text>
</a>
</g>
</g>
<!-- Node2 -->
<g id="node2" class="node">
<title>Node2</title>
<g id="a_node2"><a xlink:title=" ">
<polygon fill="none" stroke="#bfbfbf" points="124.36,-6 124.36,-25 181.36,-25 181.36,-6 124.36,-6"/>
<text text-anchor="middle" x="152.86" y="-13" font-family="Helvetica,sans-Serif" font-size="10.00">Arduino.h</text>
</a>
</g>
</g>
<!-- Node1&#45;&gt;Node2 -->
<g id="edge1" class="edge">
<title>Node1&#45;&gt;Node2</title>
<path fill="none" stroke="midnightblue" d="M148.61,-207.22C93.44,-199.81 28.16,-186.7 10.86,-165 -32.06,-111.17 70.43,-54.11 123.49,-29.28"/>
<polygon fill="midnightblue" stroke="midnightblue" points="125.14,-32.37 132.77,-25.02 122.22,-26.01 125.14,-32.37"/>
</g>
<!-- Node3 -->
<g id="node3" class="node">
<title>Node3</title>
<g id="a_node3"><a xlink:title=" ">
<polygon fill="none" stroke="#bfbfbf" points="20.36,-140 20.36,-159 61.36,-159 61.36,-140 20.36,-140"/>
<text text-anchor="middle" x="40.86" y="-147" font-family="Helvetica,sans-Serif" font-size="10.00">SPI.h</text>
</a>
</g>
</g>
<!-- Node1&#45;&gt;Node3 -->
<g id="edge2" class="edge">
<title>Node1&#45;&gt;Node3</title>
<path fill="none" stroke="midnightblue" d="M180.44,-201.45C148.49,-192.22 106.81,-179.24 70.86,-165 69.48,-164.45 68.08,-163.87 66.67,-163.27"/>
<polygon fill="midnightblue" stroke="midnightblue" points="68.03,-160.04 57.48,-159.07 65.12,-166.41 68.03,-160.04"/>
</g>
<!-- Node4 -->
<g id="node4" class="node">
<title>Node4</title>
<g id="a_node4"><a xlink:title=" ">
<polygon fill="none" stroke="#bfbfbf" points="79.86,-140 79.86,-159 161.86,-159 161.86,-140 79.86,-140"/>
<text text-anchor="middle" x="120.86" y="-147" font-family="Helvetica,sans-Serif" font-size="10.00">Adafruit_BLE.h</text>
</a>
</g>
</g>
<!-- Node1&#45;&gt;Node4 -->
<g id="edge3" class="edge">
<title>Node1&#45;&gt;Node4</title>
<path fill="none" stroke="midnightblue" d="M207.77,-201.4C188.9,-190.34 162.8,-175.06 144.14,-164.13"/>
<polygon fill="midnightblue" stroke="midnightblue" points="145.78,-161.04 135.39,-159.01 142.25,-167.08 145.78,-161.04"/>
</g>
<!-- Node5 -->
<g id="node5" class="node">
<title>Node5</title>
<g id="a_node5"><a xlink:title=" ">
<polygon fill="none" stroke="#bfbfbf" points="179.86,-134.5 179.86,-164.5 283.86,-164.5 283.86,-134.5 179.86,-134.5"/>
<text text-anchor="start" x="187.86" y="-152.5" font-family="Helvetica,sans-Serif" font-size="10.00">Adafruit_BluefruitLE</text>
<text text-anchor="middle" x="231.86" y="-141.5" font-family="Helvetica,sans-Serif" font-size="10.00">_SPI.h</text>
</a>
</g>
</g>
<!-- Node1&#45;&gt;Node5 -->
<g id="edge4" class="edge">
<title>Node1&#45;&gt;Node5</title>
<path fill="none" stroke="midnightblue" d="M231.86,-201.4C231.86,-193.64 231.86,-183.81 231.86,-174.86"/>
<polygon fill="midnightblue" stroke="midnightblue" points="235.36,-174.58 231.86,-164.58 228.36,-174.58 235.36,-174.58"/>
</g>
<!-- Node6 -->
<g id="node6" class="node">
<title>Node6</title>
<g id="a_node6"><a xlink:title=" ">
<polygon fill="none" stroke="#bfbfbf" points="301.86,-134.5 301.86,-164.5 405.86,-164.5 405.86,-134.5 301.86,-134.5"/>
<text text-anchor="start" x="309.86" y="-152.5" font-family="Helvetica,sans-Serif" font-size="10.00">Adafruit_BluefruitLE</text>
<text text-anchor="middle" x="353.86" y="-141.5" font-family="Helvetica,sans-Serif" font-size="10.00">_UART.h</text>
</a>
</g>
</g>
<!-- Node1&#45;&gt;Node6 -->
<g id="edge5" class="edge">
<title>Node1&#45;&gt;Node6</title>
<path fill="none" stroke="midnightblue" d="M258.33,-201.4C275.92,-192.03 299.21,-179.62 318.39,-169.39"/>
<polygon fill="midnightblue" stroke="midnightblue" points="320.26,-172.37 327.44,-164.58 316.97,-166.19 320.26,-172.37"/>
</g>
<!-- Node7 -->
<g id="node7" class="node">
<title>Node7</title>
<g id="a_node7"><a xlink:href="../../d2/df9/_bluefruit_config_8h.html" target="_top" xlink:title=" ">
<polygon fill="none" stroke="black" points="424.36,-140 424.36,-159 511.36,-159 511.36,-140 424.36,-140"/>
<text text-anchor="middle" x="467.86" y="-147" font-family="Helvetica,sans-Serif" font-size="10.00">BluefruitConfig.h</text>
</a>
</g>
</g>
<!-- Node1&#45;&gt;Node7 -->
<g id="edge6" class="edge">
<title>Node1&#45;&gt;Node7</title>
<path fill="none" stroke="midnightblue" d="M282.78,-201.48C326,-189.57 387.2,-172.72 427.2,-161.7"/>
<polygon fill="midnightblue" stroke="midnightblue" points="428.18,-165.06 436.89,-159.03 426.32,-158.31 428.18,-165.06"/>
</g>
<!-- Node8 -->
<g id="node8" class="node">
<title>Node8</title>
<g id="a_node8"><a xlink:href="../../df/dec/_input_handler_8h.html" target="_top" xlink:title="InputHandler library header file.">
<polygon fill="none" stroke="black" points="529.86,-140 529.86,-159 609.86,-159 609.86,-140 529.86,-140"/>
<text text-anchor="middle" x="569.86" y="-147" font-family="Helvetica,sans-Serif" font-size="10.00">InputHandler.h</text>
</a>
</g>
</g>
<!-- Node1&#45;&gt;Node8 -->
<g id="edge7" class="edge">
<title>Node1&#45;&gt;Node8</title>
<path fill="none" stroke="midnightblue" d="M314.9,-203.58C372.94,-194.62 452.05,-181.14 520.86,-165 524.94,-164.04 529.18,-162.95 533.39,-161.79"/>
<polygon fill="midnightblue" stroke="midnightblue" points="534.39,-165.15 543.05,-159.04 532.47,-158.41 534.39,-165.15"/>
</g>
<!-- Node9 -->
<g id="node9" class="node">
<title>Node9</title>
<g id="a_node9"><a xlink:href="../../dd/d4e/_input_handler__config_8h.html" target="_top" xlink:title="InputHandler library configuration file.">
<polygon fill="none" stroke="black" points="438.36,-67.5 438.36,-97.5 539.36,-97.5 539.36,-67.5 438.36,-67.5"/>
<text text-anchor="start" x="446.36" y="-85.5" font-family="Helvetica,sans-Serif" font-size="10.00">config/InputHandler</text>
<text text-anchor="middle" x="488.86" y="-74.5" font-family="Helvetica,sans-Serif" font-size="10.00">_config.h</text>
</a>
</g>
</g>
<!-- Node8&#45;&gt;Node9 -->
<g id="edge8" class="edge">
<title>Node8&#45;&gt;Node9</title>
<path fill="none" stroke="midnightblue" d="M558.93,-139.73C547.57,-130.61 529.36,-116 514.36,-103.96"/>
<polygon fill="midnightblue" stroke="midnightblue" points="516.41,-101.12 506.42,-97.59 512.02,-106.58 516.41,-101.12"/>
</g>
<!-- Node9&#45;&gt;Node2 -->
<g id="edge9" class="edge">
<title>Node9&#45;&gt;Node2</title>
<path fill="none" stroke="midnightblue" d="M438.19,-71.7C370.6,-58.62 252.41,-35.76 191.53,-23.98"/>
<polygon fill="midnightblue" stroke="midnightblue" points="192.04,-20.52 181.56,-22.05 190.71,-27.39 192.04,-20.52"/>
</g>
<!-- Node10 -->
<g id="node10" class="node">
<title>Node10</title>
<g id="a_node10"><a xlink:href="../../d3/dcd/_input_handler__portability_8h.html" target="_top" xlink:title=" ">
<polygon fill="none" stroke="black" points="280.86,-6 280.86,-25 406.86,-25 406.86,-6 280.86,-6"/>
<text text-anchor="middle" x="343.86" y="-13" font-family="Helvetica,sans-Serif" font-size="10.00">InputHandler_portability.h</text>
</a>
</g>
</g>
<!-- Node9&#45;&gt;Node10 -->
<g id="edge10" class="edge">
<title>Node9&#45;&gt;Node10</title>
<path fill="none" stroke="midnightblue" d="M457.4,-67.4C431.95,-55.99 396.46,-40.08 371.96,-29.1"/>
<polygon fill="midnightblue" stroke="midnightblue" points="373.39,-25.9 362.84,-25.01 370.53,-32.29 373.39,-25.9"/>
</g>
<!-- Node11 -->
<g id="node11" class="node">
<title>Node11</title>
<g id="a_node11"><a xlink:href="../../d1/d39/_input_handler__functionlike__macros_8h.html" target="_top" xlink:title=" ">
<polygon fill="none" stroke="black" points="425.36,-0.5 425.36,-30.5 552.36,-30.5 552.36,-0.5 425.36,-0.5"/>
<text text-anchor="start" x="433.36" y="-18.5" font-family="Helvetica,sans-Serif" font-size="10.00">InputHandler_functionlike</text>
<text text-anchor="middle" x="488.86" y="-7.5" font-family="Helvetica,sans-Serif" font-size="10.00">_macros.h</text>
</a>
</g>
</g>
<!-- Node9&#45;&gt;Node11 -->
<g id="edge11" class="edge">
<title>Node9&#45;&gt;Node11</title>
<path fill="none" stroke="midnightblue" d="M488.86,-67.4C488.86,-59.64 488.86,-49.81 488.86,-40.86"/>
<polygon fill="midnightblue" stroke="midnightblue" points="492.36,-40.58 488.86,-30.58 485.36,-40.58 492.36,-40.58"/>
</g>
<!-- Node12 -->
<g id="node12" class="node">
<title>Node12</title>
<g id="a_node12"><a xlink:href="../../df/d25/_input_handler___p_r_o_g_m_e_m__settings_8h.html" target="_top" xlink:title=" ">
<polygon fill="none" stroke="black" points="570.86,-0.5 570.86,-30.5 698.86,-30.5 698.86,-0.5 570.86,-0.5"/>
<text text-anchor="start" x="578.86" y="-18.5" font-family="Helvetica,sans-Serif" font-size="10.00">InputHandler_PROGMEM</text>
<text text-anchor="middle" x="634.86" y="-7.5" font-family="Helvetica,sans-Serif" font-size="10.00">_settings.h</text>
</a>
</g>
</g>
<!-- Node9&#45;&gt;Node12 -->
<g id="edge12" class="edge">
<title>Node9&#45;&gt;Node12</title>
<path fill="none" stroke="midnightblue" d="M520.54,-67.4C542.06,-57.81 570.73,-45.05 593.98,-34.7"/>
<polygon fill="midnightblue" stroke="midnightblue" points="595.53,-37.84 603.24,-30.58 592.68,-31.45 595.53,-37.84"/>
</g>
</g>
</svg>
