<?xml version="1.0" encoding="UTF-8" standalone="no"?>
<!DOCTYPE svg PUBLIC "-//W3C//DTD SVG 1.1//EN"
 "http://www.w3.org/Graphics/SVG/1.1/DTD/svg11.dtd">
<!-- Generated by graphviz version 3.0.0 (20220413.0106)
 -->
<!-- Title: examples/all_platforms/basic/BLE_UART/BLE_UART.ino Pages: 1 -->
<svg width="638pt" height="218pt"
 viewBox="0.00 0.00 638.10 218.00" xmlns="http://www.w3.org/2000/svg" xmlns:xlink="http://www.w3.org/1999/xlink">
<g id="graph0" class="graph" transform="scale(1 1) rotate(0) translate(4 214)">
<title>examples/all_platforms/basic/BLE_UART/BLE_UART.ino</title>
<!-- Node1 -->
<g id="node1" class="node">
<title>Node1</title>
<g id="a_node1"><a xlink:title=" ">
<polygon fill="#bfbfbf" stroke="black" points="149.6,-179.5 149.6,-209.5 315.6,-209.5 315.6,-179.5 149.6,-179.5"/>
<text text-anchor="start" x="157.6" y="-197.5" font-family="Helvetica,sans-Serif" font-size="10.00">examples/all_platforms</text>
<text text-anchor="middle" x="232.6" y="-186.5" font-family="Helvetica,sans-Serif" font-size="10.00">/basic/BLE_UART/BLE_UART.ino</text>
</a>
</g>
</g>
<!-- Node2 -->
<g id="node2" class="node">
<title>Node2</title>
<g id="a_node2"><a xlink:title=" ">
<polygon fill="none" stroke="#bfbfbf" points="210.1,-0.5 210.1,-19.5 267.1,-19.5 267.1,-0.5 210.1,-0.5"/>
<text text-anchor="middle" x="238.6" y="-7.5" font-family="Helvetica,sans-Serif" font-size="10.00">Arduino.h</text>
</a>
</g>
</g>
<!-- Node1&#45;&gt;Node2 -->
<g id="edge1" class="edge">
<title>Node1&#45;&gt;Node2</title>
<path fill="none" stroke="midnightblue" d="M149.35,-185.22C94.19,-177.81 28.9,-164.7 11.6,-143 -44.56,-72.55 121.27,-32.21 199.82,-17.47"/>
<polygon fill="midnightblue" stroke="midnightblue" points="200.63,-20.88 209.84,-15.64 199.38,-13.99 200.63,-20.88"/>
</g>
<!-- Node3 -->
<g id="node3" class="node">
<title>Node3</title>
<g id="a_node3"><a xlink:title=" ">
<polygon fill="none" stroke="#bfbfbf" points="21.1,-118 21.1,-137 62.1,-137 62.1,-118 21.1,-118"/>
<text text-anchor="middle" x="41.6" y="-125" font-family="Helvetica,sans-Serif" font-size="10.00">SPI.h</text>
</a>
</g>
</g>
<!-- Node1&#45;&gt;Node3 -->
<g id="edge2" class="edge">
<title>Node1&#45;&gt;Node3</title>
<path fill="none" stroke="midnightblue" d="M181.18,-179.45C149.24,-170.22 107.55,-157.24 71.6,-143 70.23,-142.45 68.82,-141.87 67.41,-141.27"/>
<polygon fill="midnightblue" stroke="midnightblue" points="68.78,-138.04 58.23,-137.07 65.87,-144.41 68.78,-138.04"/>
</g>
<!-- Node4 -->
<g id="node4" class="node">
<title>Node4</title>
<g id="a_node4"><a xlink:title=" ">
<polygon fill="none" stroke="#bfbfbf" points="80.6,-118 80.6,-137 162.6,-137 162.6,-118 80.6,-118"/>
<text text-anchor="middle" x="121.6" y="-125" font-family="Helvetica,sans-Serif" font-size="10.00">Adafruit_BLE.h</text>
</a>
</g>
</g>
<!-- Node1&#45;&gt;Node4 -->
<g id="edge3" class="edge">
<title>Node1&#45;&gt;Node4</title>
<path fill="none" stroke="midnightblue" d="M208.52,-179.4C189.64,-168.34 163.55,-153.06 144.88,-142.13"/>
<polygon fill="midnightblue" stroke="midnightblue" points="146.53,-139.04 136.13,-137.01 142.99,-145.08 146.53,-139.04"/>
</g>
<!-- Node5 -->
<g id="node5" class="node">
<title>Node5</title>
<g id="a_node5"><a xlink:title=" ">
<polygon fill="none" stroke="#bfbfbf" points="180.6,-112.5 180.6,-142.5 284.6,-142.5 284.6,-112.5 180.6,-112.5"/>
<text text-anchor="start" x="188.6" y="-130.5" font-family="Helvetica,sans-Serif" font-size="10.00">Adafruit_BluefruitLE</text>
<text text-anchor="middle" x="232.6" y="-119.5" font-family="Helvetica,sans-Serif" font-size="10.00">_SPI.h</text>
</a>
</g>
</g>
<!-- Node1&#45;&gt;Node5 -->
<g id="edge4" class="edge">
<title>Node1&#45;&gt;Node5</title>
<path fill="none" stroke="midnightblue" d="M232.6,-179.4C232.6,-171.64 232.6,-161.81 232.6,-152.86"/>
<polygon fill="midnightblue" stroke="midnightblue" points="236.1,-152.58 232.6,-142.58 229.1,-152.58 236.1,-152.58"/>
</g>
<!-- Node6 -->
<g id="node6" class="node">
<title>Node6</title>
<g id="a_node6"><a xlink:title=" ">
<polygon fill="none" stroke="#bfbfbf" points="302.6,-112.5 302.6,-142.5 406.6,-142.5 406.6,-112.5 302.6,-112.5"/>
<text text-anchor="start" x="310.6" y="-130.5" font-family="Helvetica,sans-Serif" font-size="10.00">Adafruit_BluefruitLE</text>
<text text-anchor="middle" x="354.6" y="-119.5" font-family="Helvetica,sans-Serif" font-size="10.00">_UART.h</text>
</a>
</g>
</g>
<!-- Node1&#45;&gt;Node6 -->
<g id="edge5" class="edge">
<title>Node1&#45;&gt;Node6</title>
<path fill="none" stroke="midnightblue" d="M259.08,-179.4C276.66,-170.03 299.96,-157.62 319.14,-147.39"/>
<polygon fill="midnightblue" stroke="midnightblue" points="321,-150.37 328.18,-142.58 317.71,-144.19 321,-150.37"/>
</g>
<!-- Node7 -->
<g id="node7" class="node">
<title>Node7</title>
<g id="a_node7"><a xlink:href="../../d2/df9/_bluefruit_config_8h.html" target="_top" xlink:title=" ">
<polygon fill="none" stroke="black" points="425.1,-118 425.1,-137 512.1,-137 512.1,-118 425.1,-118"/>
<text text-anchor="middle" x="468.6" y="-125" font-family="Helvetica,sans-Serif" font-size="10.00">BluefruitConfig.h</text>
</a>
</g>
</g>
<!-- Node1&#45;&gt;Node7 -->
<g id="edge6" class="edge">
<title>Node1&#45;&gt;Node7</title>
<path fill="none" stroke="midnightblue" d="M283.52,-179.48C326.74,-167.57 387.94,-150.72 427.95,-139.7"/>
<polygon fill="midnightblue" stroke="midnightblue" points="428.93,-143.06 437.64,-137.03 427.07,-136.31 428.93,-143.06"/>
</g>
<!-- Node8 -->
<g id="node8" class="node">
<title>Node8</title>
<g id="a_node8"><a xlink:href="../../df/dec/_input_handler_8h.html" target="_top" xlink:title="InputHandler library header file.">
<polygon fill="none" stroke="black" points="530.6,-118 530.6,-137 610.6,-137 610.6,-118 530.6,-118"/>
<text text-anchor="middle" x="570.6" y="-125" font-family="Helvetica,sans-Serif" font-size="10.00">InputHandler.h</text>
</a>
</g>
</g>
<!-- Node1&#45;&gt;Node8 -->
<g id="edge7" class="edge">
<title>Node1&#45;&gt;Node8</title>
<path fill="none" stroke="midnightblue" d="M315.64,-181.58C373.68,-172.62 452.8,-159.14 521.6,-143 525.68,-142.04 529.93,-140.95 534.14,-139.79"/>
<polygon fill="midnightblue" stroke="midnightblue" points="535.14,-143.15 543.79,-137.04 533.22,-136.41 535.14,-143.15"/>
</g>
<!-- Node9 -->
<g id="node9" class="node">
<title>Node9</title>
<g id="a_node9"><a xlink:href="../../da/dc7/noedit_8h.html" target="_top" xlink:title="InputHandler library C includes, do not edit.">
<polygon fill="none" stroke="black" points="468.1,-56.5 468.1,-75.5 547.1,-75.5 547.1,-56.5 468.1,-56.5"/>
<text text-anchor="middle" x="507.6" y="-63.5" font-family="Helvetica,sans-Serif" font-size="10.00">config/noedit.h</text>
</a>
</g>
</g>
<!-- Node8&#45;&gt;Node9 -->
<g id="edge8" class="edge">
<title>Node8&#45;&gt;Node9</title>
<path fill="none" stroke="midnightblue" d="M561.58,-117.98C551.85,-108.78 536.15,-93.96 524.18,-82.66"/>
<polygon fill="midnightblue" stroke="midnightblue" points="526.29,-79.83 516.61,-75.51 521.48,-84.92 526.29,-79.83"/>
</g>
<!-- Node9&#45;&gt;Node2 -->
<g id="edge9" class="edge">
<title>Node9&#45;&gt;Node2</title>
<path fill="none" stroke="midnightblue" d="M467.91,-57.03C416.64,-46.74 327.97,-28.94 277.22,-18.75"/>
<polygon fill="midnightblue" stroke="midnightblue" points="277.79,-15.3 267.3,-16.76 276.41,-22.16 277.79,-15.3"/>
</g>
<!-- Node10 -->
<g id="node10" class="node">
<title>Node10</title>
<g id="a_node10"><a xlink:href="../../db/d16/config_8h.html" target="_top" xlink:title="InputHandler library user configurable items.">
<polygon fill="none" stroke="black" points="408.6,-0.5 408.6,-19.5 486.6,-19.5 486.6,-0.5 408.6,-0.5"/>
<text text-anchor="middle" x="447.6" y="-7.5" font-family="Helvetica,sans-Serif" font-size="10.00">config/config.h</text>
</a>
</g>
</g>
<!-- Node9&#45;&gt;Node10 -->
<g id="edge10" class="edge">
<title>Node9&#45;&gt;Node10</title>
<path fill="none" stroke="midnightblue" d="M497.96,-56.32C489.09,-48.34 475.73,-36.31 465,-26.65"/>
<polygon fill="midnightblue" stroke="midnightblue" points="467.19,-23.92 457.42,-19.83 462.51,-29.13 467.19,-23.92"/>
</g>
<!-- Node11 -->
<g id="node11" class="node">
<title>Node11</title>
<g id="a_node11"><a xlink:href="../../d5/d4a/advanced__config_8h.html" target="_top" xlink:title="InputHandler library advanced user settings.">
<polygon fill="none" stroke="black" points="505.1,-0.5 505.1,-19.5 630.1,-19.5 630.1,-0.5 505.1,-0.5"/>
<text text-anchor="middle" x="567.6" y="-7.5" font-family="Helvetica,sans-Serif" font-size="10.00">config/advanced_config.h</text>
</a>
</g>
</g>
<!-- Node9&#45;&gt;Node11 -->
<g id="edge11" class="edge">
<title>Node9&#45;&gt;Node11</title>
<path fill="none" stroke="midnightblue" d="M517.24,-56.32C526.11,-48.34 539.48,-36.31 550.21,-26.65"/>
<polygon fill="midnightblue" stroke="midnightblue" points="552.7,-29.13 557.79,-19.83 548.01,-23.92 552.7,-29.13"/>
</g>
</g>
</svg>
