<?xml version="1.0" encoding="UTF-8" standalone="no"?>
<!DOCTYPE svg PUBLIC "-//W3C//DTD SVG 1.1//EN"
 "http://www.w3.org/Graphics/SVG/1.1/DTD/svg11.dtd">
<!-- Generated by graphviz version 4.0.0 (20220602.1335)
 -->
<!-- Title: examples/all_platforms/basic/BLE_UART/BLE_UART.ino Pages: 1 -->
<svg width="615pt" height="218pt"
 viewBox="0.00 0.00 615.30 218.00" xmlns="http://www.w3.org/2000/svg" xmlns:xlink="http://www.w3.org/1999/xlink">
<g id="graph0" class="graph" transform="scale(1 1) rotate(0) translate(4 214)">
<title>examples/all_platforms/basic/BLE_UART/BLE_UART.ino</title>
<!-- Node1 -->
<g id="node1" class="node">
<title>Node1</title>
<g id="a_node1"><a xlink:title=" ">
<polygon fill="#bfbfbf" stroke="black" points="146.3,-179.5 146.3,-209.5 312.3,-209.5 312.3,-179.5 146.3,-179.5"/>
<text text-anchor="start" x="154.3" y="-197.5" font-family="Helvetica,sans-Serif" font-size="10.00">examples/all_platforms</text>
<text text-anchor="middle" x="229.3" y="-186.5" font-family="Helvetica,sans-Serif" font-size="10.00">/basic/BLE_UART/BLE_UART.ino</text>
</a>
</g>
</g>
<!-- Node2 -->
<g id="node2" class="node">
<title>Node2</title>
<g id="a_node2"><a xlink:title=" ">
<polygon fill="none" stroke="#bfbfbf" points="213.8,-0.5 213.8,-19.5 270.8,-19.5 270.8,-0.5 213.8,-0.5"/>
<text text-anchor="middle" x="242.3" y="-7.5" font-family="Helvetica,sans-Serif" font-size="10.00">Arduino.h</text>
</a>
</g>
</g>
<!-- Node1&#45;&gt;Node2 -->
<g id="edge1" class="edge">
<title>Node1&#45;&gt;Node2</title>
<path fill="none" stroke="midnightblue" d="M146,-190.91C69.16,-185.12 -27.93,-167.1 8.3,-112 51.92,-45.66 149.35,-22.7 203.73,-14.9"/>
<polygon fill="midnightblue" stroke="midnightblue" points="204.23,-18.36 213.68,-13.57 203.31,-11.42 204.23,-18.36"/>
</g>
<!-- Node3 -->
<g id="node3" class="node">
<title>Node3</title>
<g id="a_node3"><a xlink:title=" ">
<polygon fill="none" stroke="#bfbfbf" points="17.8,-118 17.8,-137 58.8,-137 58.8,-118 17.8,-118"/>
<text text-anchor="middle" x="38.3" y="-125" font-family="Helvetica,sans-Serif" font-size="10.00">SPI.h</text>
</a>
</g>
</g>
<!-- Node1&#45;&gt;Node3 -->
<g id="edge2" class="edge">
<title>Node1&#45;&gt;Node3</title>
<path fill="none" stroke="midnightblue" d="M177.88,-179.45C145.93,-170.22 104.25,-157.24 68.3,-143 66.92,-142.45 65.52,-141.87 64.11,-141.27"/>
<polygon fill="midnightblue" stroke="midnightblue" points="65.47,-138.04 54.92,-137.07 62.56,-144.41 65.47,-138.04"/>
</g>
<!-- Node4 -->
<g id="node4" class="node">
<title>Node4</title>
<g id="a_node4"><a xlink:title=" ">
<polygon fill="none" stroke="#bfbfbf" points="77.3,-118 77.3,-137 159.3,-137 159.3,-118 77.3,-118"/>
<text text-anchor="middle" x="118.3" y="-125" font-family="Helvetica,sans-Serif" font-size="10.00">Adafruit_BLE.h</text>
</a>
</g>
</g>
<!-- Node1&#45;&gt;Node4 -->
<g id="edge3" class="edge">
<title>Node1&#45;&gt;Node4</title>
<path fill="none" stroke="midnightblue" d="M205.21,-179.4C186.34,-168.34 160.24,-153.06 141.58,-142.13"/>
<polygon fill="midnightblue" stroke="midnightblue" points="143.22,-139.04 132.83,-137.01 139.69,-145.08 143.22,-139.04"/>
</g>
<!-- Node5 -->
<g id="node5" class="node">
<title>Node5</title>
<g id="a_node5"><a xlink:title=" ">
<polygon fill="none" stroke="#bfbfbf" points="177.3,-112.5 177.3,-142.5 281.3,-142.5 281.3,-112.5 177.3,-112.5"/>
<text text-anchor="start" x="185.3" y="-130.5" font-family="Helvetica,sans-Serif" font-size="10.00">Adafruit_BluefruitLE</text>
<text text-anchor="middle" x="229.3" y="-119.5" font-family="Helvetica,sans-Serif" font-size="10.00">_SPI.h</text>
</a>
</g>
</g>
<!-- Node1&#45;&gt;Node5 -->
<g id="edge4" class="edge">
<title>Node1&#45;&gt;Node5</title>
<path fill="none" stroke="midnightblue" d="M229.3,-179.4C229.3,-171.64 229.3,-161.81 229.3,-152.86"/>
<polygon fill="midnightblue" stroke="midnightblue" points="232.8,-152.58 229.3,-142.58 225.8,-152.58 232.8,-152.58"/>
</g>
<!-- Node6 -->
<g id="node6" class="node">
<title>Node6</title>
<g id="a_node6"><a xlink:title=" ">
<polygon fill="none" stroke="#bfbfbf" points="299.3,-112.5 299.3,-142.5 403.3,-142.5 403.3,-112.5 299.3,-112.5"/>
<text text-anchor="start" x="307.3" y="-130.5" font-family="Helvetica,sans-Serif" font-size="10.00">Adafruit_BluefruitLE</text>
<text text-anchor="middle" x="351.3" y="-119.5" font-family="Helvetica,sans-Serif" font-size="10.00">_UART.h</text>
</a>
</g>
</g>
<!-- Node1&#45;&gt;Node6 -->
<g id="edge5" class="edge">
<title>Node1&#45;&gt;Node6</title>
<path fill="none" stroke="midnightblue" d="M255.77,-179.4C273.36,-170.03 296.65,-157.62 315.83,-147.39"/>
<polygon fill="midnightblue" stroke="midnightblue" points="317.7,-150.37 324.88,-142.58 314.41,-144.19 317.7,-150.37"/>
</g>
<!-- Node7 -->
<g id="node7" class="node">
<title>Node7</title>
<g id="a_node7"><a xlink:href="../../d2/df9/_bluefruit_config_8h.html" target="_top" xlink:title=" ">
<polygon fill="none" stroke="black" points="421.8,-118 421.8,-137 508.8,-137 508.8,-118 421.8,-118"/>
<text text-anchor="middle" x="465.3" y="-125" font-family="Helvetica,sans-Serif" font-size="10.00">BluefruitConfig.h</text>
</a>
</g>
</g>
<!-- Node1&#45;&gt;Node7 -->
<g id="edge6" class="edge">
<title>Node1&#45;&gt;Node7</title>
<path fill="none" stroke="midnightblue" d="M280.22,-179.48C323.44,-167.57 384.64,-150.72 424.64,-139.7"/>
<polygon fill="midnightblue" stroke="midnightblue" points="425.62,-143.06 434.33,-137.03 423.76,-136.31 425.62,-143.06"/>
</g>
<!-- Node8 -->
<g id="node8" class="node">
<title>Node8</title>
<g id="a_node8"><a xlink:href="../../df/dec/_input_handler_8h.html" target="_top" xlink:title="InputHandler library header file.">
<polygon fill="none" stroke="black" points="527.3,-118 527.3,-137 607.3,-137 607.3,-118 527.3,-118"/>
<text text-anchor="middle" x="567.3" y="-125" font-family="Helvetica,sans-Serif" font-size="10.00">InputHandler.h</text>
</a>
</g>
</g>
<!-- Node1&#45;&gt;Node8 -->
<g id="edge7" class="edge">
<title>Node1&#45;&gt;Node8</title>
<path fill="none" stroke="midnightblue" d="M312.34,-181.58C370.38,-172.62 449.49,-159.14 518.3,-143 522.38,-142.04 526.62,-140.95 530.83,-139.79"/>
<polygon fill="midnightblue" stroke="midnightblue" points="531.83,-143.15 540.49,-137.04 529.91,-136.41 531.83,-143.15"/>
</g>
<!-- Node9 -->
<g id="node9" class="node">
<title>Node9</title>
<g id="a_node9"><a xlink:href="../../da/dc7/noedit_8h.html" target="_top" xlink:title="InputHandler library C includes, do not edit.">
<polygon fill="none" stroke="black" points="400.8,-56.5 400.8,-75.5 479.8,-75.5 479.8,-56.5 400.8,-56.5"/>
<text text-anchor="middle" x="440.3" y="-63.5" font-family="Helvetica,sans-Serif" font-size="10.00">config/noedit.h</text>
</a>
</g>
</g>
<!-- Node8&#45;&gt;Node9 -->
<g id="edge8" class="edge">
<title>Node8&#45;&gt;Node9</title>
<path fill="none" stroke="midnightblue" d="M549.1,-117.98C527.79,-107.99 492.27,-91.35 467.64,-79.81"/>
<polygon fill="midnightblue" stroke="midnightblue" points="469,-76.58 458.46,-75.51 466.03,-82.92 469,-76.58"/>
</g>
<!-- Node9&#45;&gt;Node2 -->
<g id="edge9" class="edge">
<title>Node9&#45;&gt;Node2</title>
<path fill="none" stroke="midnightblue" d="M408.93,-56.44C374.24,-46.98 318.34,-31.74 280.97,-21.55"/>
<polygon fill="midnightblue" stroke="midnightblue" points="281.52,-18.07 270.95,-18.82 279.68,-24.82 281.52,-18.07"/>
</g>
<!-- Node10 -->
<g id="node10" class="node">
<title>Node10</title>
<g id="a_node10"><a xlink:href="../../db/d16/config_8h.html" target="_top" xlink:title="InputHandler library user configurable items.">
<polygon fill="none" stroke="black" points="415.3,-0.5 415.3,-19.5 465.3,-19.5 465.3,-0.5 415.3,-0.5"/>
<text text-anchor="middle" x="440.3" y="-7.5" font-family="Helvetica,sans-Serif" font-size="10.00">config.h</text>
</a>
</g>
</g>
<!-- Node9&#45;&gt;Node10 -->
<g id="edge10" class="edge">
<title>Node9&#45;&gt;Node10</title>
<path fill="none" stroke="midnightblue" d="M440.3,-56.08C440.3,-49.01 440.3,-38.86 440.3,-29.99"/>
<polygon fill="midnightblue" stroke="midnightblue" points="443.8,-29.75 440.3,-19.75 436.8,-29.75 443.8,-29.75"/>
</g>
</g>
</svg>
