<?xml version="1.0" encoding="UTF-8" standalone="no"?>
<!DOCTYPE svg PUBLIC "-//W3C//DTD SVG 1.1//EN"
 "http://www.w3.org/Graphics/SVG/1.1/DTD/svg11.dtd">
<!-- Generated by graphviz version 3.0.0 (20220413.0106)
 -->
<!-- Title: examples/all_platforms/basic/BLE_UART/BLE_UART.ino Pages: 1 -->
<svg width="848pt" height="240pt"
 viewBox="0.00 0.00 848.00 240.00" xmlns="http://www.w3.org/2000/svg" xmlns:xlink="http://www.w3.org/1999/xlink">
<g id="graph0" class="graph" transform="scale(1 1) rotate(0) translate(4 236)">
<title>examples/all_platforms/basic/BLE_UART/BLE_UART.ino</title>
<!-- Node1 -->
<g id="node1" class="node">
<title>Node1</title>
<g id="a_node1"><a xlink:title=" ">
<polygon fill="#bfbfbf" stroke="black" points="149,-201.5 149,-231.5 315,-231.5 315,-201.5 149,-201.5"/>
<text text-anchor="start" x="157" y="-219.5" font-family="Helvetica,sans-Serif" font-size="10.00">examples/all_platforms</text>
<text text-anchor="middle" x="232" y="-208.5" font-family="Helvetica,sans-Serif" font-size="10.00">/basic/BLE_UART/BLE_UART.ino</text>
</a>
</g>
</g>
<!-- Node2 -->
<g id="node2" class="node">
<title>Node2</title>
<g id="a_node2"><a xlink:title=" ">
<polygon fill="none" stroke="#bfbfbf" points="133.5,-6 133.5,-25 190.5,-25 190.5,-6 133.5,-6"/>
<text text-anchor="middle" x="162" y="-13" font-family="Helvetica,sans-Serif" font-size="10.00">Arduino.h</text>
</a>
</g>
</g>
<!-- Node1&#45;&gt;Node2 -->
<g id="edge1" class="edge">
<title>Node1&#45;&gt;Node2</title>
<path fill="none" stroke="midnightblue" d="M148.75,-207.22C93.58,-199.81 28.3,-186.7 11,-165 -33.11,-109.67 74.43,-53.61 130.55,-29.18"/>
<polygon fill="midnightblue" stroke="midnightblue" points="132.23,-32.27 140.05,-25.13 129.48,-25.83 132.23,-32.27"/>
</g>
<!-- Node3 -->
<g id="node3" class="node">
<title>Node3</title>
<g id="a_node3"><a xlink:title=" ">
<polygon fill="none" stroke="#bfbfbf" points="20.5,-140 20.5,-159 61.5,-159 61.5,-140 20.5,-140"/>
<text text-anchor="middle" x="41" y="-147" font-family="Helvetica,sans-Serif" font-size="10.00">SPI.h</text>
</a>
</g>
</g>
<!-- Node1&#45;&gt;Node3 -->
<g id="edge2" class="edge">
<title>Node1&#45;&gt;Node3</title>
<path fill="none" stroke="midnightblue" d="M180.58,-201.45C148.63,-192.22 106.95,-179.24 71,-165 69.62,-164.45 68.22,-163.87 66.81,-163.27"/>
<polygon fill="midnightblue" stroke="midnightblue" points="68.18,-160.04 57.63,-159.07 65.27,-166.41 68.18,-160.04"/>
</g>
<!-- Node4 -->
<g id="node4" class="node">
<title>Node4</title>
<g id="a_node4"><a xlink:title=" ">
<polygon fill="none" stroke="#bfbfbf" points="80,-140 80,-159 162,-159 162,-140 80,-140"/>
<text text-anchor="middle" x="121" y="-147" font-family="Helvetica,sans-Serif" font-size="10.00">Adafruit_BLE.h</text>
</a>
</g>
</g>
<!-- Node1&#45;&gt;Node4 -->
<g id="edge3" class="edge">
<title>Node1&#45;&gt;Node4</title>
<path fill="none" stroke="midnightblue" d="M207.92,-201.4C189.04,-190.34 162.94,-175.06 144.28,-164.13"/>
<polygon fill="midnightblue" stroke="midnightblue" points="145.93,-161.04 135.53,-159.01 142.39,-167.08 145.93,-161.04"/>
</g>
<!-- Node5 -->
<g id="node5" class="node">
<title>Node5</title>
<g id="a_node5"><a xlink:title=" ">
<polygon fill="none" stroke="#bfbfbf" points="180,-134.5 180,-164.5 284,-164.5 284,-134.5 180,-134.5"/>
<text text-anchor="start" x="188" y="-152.5" font-family="Helvetica,sans-Serif" font-size="10.00">Adafruit_BluefruitLE</text>
<text text-anchor="middle" x="232" y="-141.5" font-family="Helvetica,sans-Serif" font-size="10.00">_SPI.h</text>
</a>
</g>
</g>
<!-- Node1&#45;&gt;Node5 -->
<g id="edge4" class="edge">
<title>Node1&#45;&gt;Node5</title>
<path fill="none" stroke="midnightblue" d="M232,-201.4C232,-193.64 232,-183.81 232,-174.86"/>
<polygon fill="midnightblue" stroke="midnightblue" points="235.5,-174.58 232,-164.58 228.5,-174.58 235.5,-174.58"/>
</g>
<!-- Node6 -->
<g id="node6" class="node">
<title>Node6</title>
<g id="a_node6"><a xlink:title=" ">
<polygon fill="none" stroke="#bfbfbf" points="302,-134.5 302,-164.5 406,-164.5 406,-134.5 302,-134.5"/>
<text text-anchor="start" x="310" y="-152.5" font-family="Helvetica,sans-Serif" font-size="10.00">Adafruit_BluefruitLE</text>
<text text-anchor="middle" x="354" y="-141.5" font-family="Helvetica,sans-Serif" font-size="10.00">_UART.h</text>
</a>
</g>
</g>
<!-- Node1&#45;&gt;Node6 -->
<g id="edge5" class="edge">
<title>Node1&#45;&gt;Node6</title>
<path fill="none" stroke="midnightblue" d="M258.47,-201.4C276.06,-192.03 299.35,-179.62 318.54,-169.39"/>
<polygon fill="midnightblue" stroke="midnightblue" points="320.4,-172.37 327.58,-164.58 317.11,-166.19 320.4,-172.37"/>
</g>
<!-- Node7 -->
<g id="node7" class="node">
<title>Node7</title>
<g id="a_node7"><a xlink:href="../../d2/df9/_bluefruit_config_8h.html" target="_top" xlink:title=" ">
<polygon fill="none" stroke="black" points="424.5,-140 424.5,-159 511.5,-159 511.5,-140 424.5,-140"/>
<text text-anchor="middle" x="468" y="-147" font-family="Helvetica,sans-Serif" font-size="10.00">BluefruitConfig.h</text>
</a>
</g>
</g>
<!-- Node1&#45;&gt;Node7 -->
<g id="edge6" class="edge">
<title>Node1&#45;&gt;Node7</title>
<path fill="none" stroke="midnightblue" d="M282.92,-201.48C326.14,-189.57 387.34,-172.72 427.35,-161.7"/>
<polygon fill="midnightblue" stroke="midnightblue" points="428.32,-165.06 437.04,-159.03 426.46,-158.31 428.32,-165.06"/>
</g>
<!-- Node8 -->
<g id="node8" class="node">
<title>Node8</title>
<g id="a_node8"><a xlink:href="../../df/dec/_input_handler_8h.html" target="_top" xlink:title="InputHandler library header file.">
<polygon fill="none" stroke="black" points="530,-140 530,-159 610,-159 610,-140 530,-140"/>
<text text-anchor="middle" x="570" y="-147" font-family="Helvetica,sans-Serif" font-size="10.00">InputHandler.h</text>
</a>
</g>
</g>
<!-- Node1&#45;&gt;Node8 -->
<g id="edge7" class="edge">
<title>Node1&#45;&gt;Node8</title>
<path fill="none" stroke="midnightblue" d="M315.04,-203.39C372.83,-194.36 451.51,-180.89 520,-165 524.16,-164.04 528.49,-162.93 532.78,-161.78"/>
<polygon fill="midnightblue" stroke="midnightblue" points="533.95,-165.08 542.63,-159.02 532.06,-158.34 533.95,-165.08"/>
</g>
<!-- Node9 -->
<g id="node9" class="node">
<title>Node9</title>
<g id="a_node9"><a xlink:href="../../d3/dfb/_input_handler__noedit_8h.html" target="_top" xlink:title="InputHandler library C includes, buffer sizing macros.">
<polygon fill="none" stroke="black" points="476.5,-67.5 476.5,-97.5 577.5,-97.5 577.5,-67.5 476.5,-67.5"/>
<text text-anchor="start" x="484.5" y="-85.5" font-family="Helvetica,sans-Serif" font-size="10.00">config/InputHandler</text>
<text text-anchor="middle" x="527" y="-74.5" font-family="Helvetica,sans-Serif" font-size="10.00">_noedit.h</text>
</a>
</g>
</g>
<!-- Node8&#45;&gt;Node9 -->
<g id="edge8" class="edge">
<title>Node8&#45;&gt;Node9</title>
<path fill="none" stroke="midnightblue" d="M564.2,-139.73C558.5,-131.12 549.57,-117.61 541.88,-105.99"/>
<polygon fill="midnightblue" stroke="midnightblue" points="544.76,-104 536.32,-97.59 538.92,-107.86 544.76,-104"/>
</g>
<!-- Node9&#45;&gt;Node2 -->
<g id="edge9" class="edge">
<title>Node9&#45;&gt;Node2</title>
<path fill="none" stroke="midnightblue" d="M476.25,-72.46C402.43,-59.32 267.04,-35.21 200.7,-23.39"/>
<polygon fill="midnightblue" stroke="midnightblue" points="201.13,-19.91 190.67,-21.61 199.9,-26.8 201.13,-19.91"/>
</g>
<!-- Node10 -->
<g id="node10" class="node">
<title>Node10</title>
<g id="a_node10"><a xlink:href="../../dd/d4e/_input_handler__config_8h.html" target="_top" xlink:title="InputHandler library user configurable items.">
<polygon fill="none" stroke="black" points="294,-6 294,-25 404,-25 404,-6 294,-6"/>
<text text-anchor="middle" x="349" y="-13" font-family="Helvetica,sans-Serif" font-size="10.00">InputHandler_config.h</text>
</a>
</g>
</g>
<!-- Node9&#45;&gt;Node10 -->
<g id="edge10" class="edge">
<title>Node9&#45;&gt;Node10</title>
<path fill="none" stroke="midnightblue" d="M488.38,-67.4C456.59,-55.79 412.03,-39.51 381.91,-28.52"/>
<polygon fill="midnightblue" stroke="midnightblue" points="382.89,-25.15 372.3,-25.01 380.49,-31.72 382.89,-25.15"/>
</g>
<!-- Node11 -->
<g id="node11" class="node">
<title>Node11</title>
<g id="a_node11"><a xlink:href="../../d3/dcd/_input_handler__portability_8h.html" target="_top" xlink:title="InputHandler library portability directives.">
<polygon fill="none" stroke="black" points="422,-6 422,-25 548,-25 548,-6 422,-6"/>
<text text-anchor="middle" x="485" y="-13" font-family="Helvetica,sans-Serif" font-size="10.00">InputHandler_portability.h</text>
</a>
</g>
</g>
<!-- Node9&#45;&gt;Node11 -->
<g id="edge11" class="edge">
<title>Node9&#45;&gt;Node11</title>
<path fill="none" stroke="midnightblue" d="M517.89,-67.4C511.53,-57.56 503.01,-44.38 496.24,-33.89"/>
<polygon fill="midnightblue" stroke="midnightblue" points="498.99,-31.69 490.62,-25.19 493.11,-35.49 498.99,-31.69"/>
</g>
<!-- Node12 -->
<g id="node12" class="node">
<title>Node12</title>
<g id="a_node12"><a xlink:href="../../d1/d39/_input_handler__functionlike__macros_8h.html" target="_top" xlink:title="InputHandler library function&#45;like macros.">
<polygon fill="none" stroke="black" points="566.5,-0.5 566.5,-30.5 693.5,-30.5 693.5,-0.5 566.5,-0.5"/>
<text text-anchor="start" x="574.5" y="-18.5" font-family="Helvetica,sans-Serif" font-size="10.00">InputHandler_functionlike</text>
<text text-anchor="middle" x="630" y="-7.5" font-family="Helvetica,sans-Serif" font-size="10.00">_macros.h</text>
</a>
</g>
</g>
<!-- Node9&#45;&gt;Node12 -->
<g id="edge12" class="edge">
<title>Node9&#45;&gt;Node12</title>
<path fill="none" stroke="midnightblue" d="M549.35,-67.4C563.93,-58.2 583.15,-46.07 599.17,-35.95"/>
<polygon fill="midnightblue" stroke="midnightblue" points="601.11,-38.87 607.69,-30.58 597.37,-32.95 601.11,-38.87"/>
</g>
<!-- Node13 -->
<g id="node13" class="node">
<title>Node13</title>
<g id="a_node13"><a xlink:href="../../df/d25/_input_handler___p_r_o_g_m_e_m__settings_8h.html" target="_top" xlink:title="InputHandler library PROGMEM settings.">
<polygon fill="none" stroke="black" points="712,-0.5 712,-30.5 840,-30.5 840,-0.5 712,-0.5"/>
<text text-anchor="start" x="720" y="-18.5" font-family="Helvetica,sans-Serif" font-size="10.00">InputHandler_PROGMEM</text>
<text text-anchor="middle" x="776" y="-7.5" font-family="Helvetica,sans-Serif" font-size="10.00">_settings.h</text>
</a>
</g>
</g>
<!-- Node9&#45;&gt;Node13 -->
<g id="edge13" class="edge">
<title>Node9&#45;&gt;Node13</title>
<path fill="none" stroke="midnightblue" d="M577.69,-68.27C616.66,-58.1 670.72,-43.98 712.56,-33.06"/>
<polygon fill="midnightblue" stroke="midnightblue" points="713.58,-36.41 722.37,-30.5 711.81,-29.64 713.58,-36.41"/>
</g>
</g>
</svg>
