<?xml version="1.0" encoding="UTF-8" standalone="no"?>
<!DOCTYPE svg PUBLIC "-//W3C//DTD SVG 1.1//EN"
 "http://www.w3.org/Graphics/SVG/1.1/DTD/svg11.dtd">
<!-- Generated by graphviz version 5.0.1 (20220820.1526)
 -->
<!-- Title: UserInput::_rcfbprm Pages: 1 -->
<svg width="299pt" height="170pt"
 viewBox="0.00 0.00 299.00 170.00" xmlns="http://www.w3.org/2000/svg" xmlns:xlink="http://www.w3.org/1999/xlink">
<g id="graph0" class="graph" transform="scale(1 1) rotate(0) translate(4 166)">
<title>UserInput::_rcfbprm</title>
<!-- Node1 -->
<g id="node1" class="node">
<title>Node1</title>
<g id="a_node1"><a xlink:title="Used internally by UserInput::readCommandFromBuffer() and passed by reference.">
<polygon fill="#999999" stroke="#666666" points="137.5,-19 35.5,-19 35.5,0 137.5,0 137.5,-19"/>
<text text-anchor="middle" x="86.5" y="-7" font-family="Helvetica,sans-Serif" font-size="10.00">UserInput::_rcfbprm</text>
</a>
</g>
</g>
<!-- Node2 -->
<g id="node2" class="node">
<title>Node2</title>
<g id="a_node2"><a xlink:href="../../df/d68/class_command_constructor.html" target="_top" xlink:title="user command constructor class">
<polygon fill="white" stroke="#666666" points="204,-96 93,-96 93,-77 204,-77 204,-96"/>
<text text-anchor="middle" x="148.5" y="-84" font-family="Helvetica,sans-Serif" font-size="10.00">CommandConstructor</text>
</a>
</g>
</g>
<!-- Node2&#45;&gt;Node1 -->
<g id="edge1" class="edge">
<title>Node2&#45;&gt;Node1</title>
<path fill="none" stroke="#9a32cd" stroke-dasharray="5,2" d="M134.99,-69.16C122.22,-53.72 103.57,-31.15 93.53,-19"/>
<polygon fill="#9a32cd" stroke="#9a32cd" points="132.32,-71.42 141.39,-76.9 137.71,-66.96 132.32,-71.42"/>
<text text-anchor="middle" x="155.5" y="-51" font-family="Helvetica,sans-Serif" font-size="10.00"> all_wcc_cmd</text>
<text text-anchor="middle" x="155.5" y="-40" font-family="Helvetica,sans-Serif" font-size="10.00">cmd</text>
</g>
<!-- Node2&#45;&gt;Node2 -->
<g id="edge4" class="edge">
<title>Node2&#45;&gt;Node2</title>
<path fill="none" stroke="#9a32cd" stroke-dasharray="5,2" d="M214.45,-90.9C219.14,-89.9 222,-88.43 222,-86.5 222,-83.41 214.67,-81.51 204.27,-80.81"/>
<polygon fill="#9a32cd" stroke="#9a32cd" points="213.75,-87.46 204.27,-92.19 214.63,-94.4 213.75,-87.46"/>
<text text-anchor="middle" x="256.5" y="-84" font-family="Helvetica,sans-Serif" font-size="10.00"> next_command</text>
</g>
<!-- Node3 -->
<g id="node3" class="node">
<title>Node3</title>
<g id="a_node3"><a xlink:href="../../db/d11/struct_command_parameters.html" target="_top" xlink:title="CommandParameters struct, this is the container that holds your command parameters.">
<polygon fill="white" stroke="#666666" points="111,-162 0,-162 0,-143 111,-143 111,-162"/>
<text text-anchor="middle" x="55.5" y="-150" font-family="Helvetica,sans-Serif" font-size="10.00">CommandParameters</text>
</a>
</g>
</g>
<!-- Node3&#45;&gt;Node1 -->
<g id="edge5" class="edge">
<title>Node3&#45;&gt;Node1</title>
<path fill="none" stroke="#9a32cd" stroke-dasharray="5,2" d="M56.74,-132.53C57.99,-117.37 60.33,-95.64 64.5,-77 69.22,-55.88 78.01,-31.98 82.93,-19.38"/>
<polygon fill="#9a32cd" stroke="#9a32cd" points="53.24,-132.46 55.99,-142.69 60.22,-132.97 53.24,-132.46"/>
<text text-anchor="middle" x="74" y="-84" font-family="Helvetica,sans-Serif" font-size="10.00"> prm</text>
</g>
<!-- Node3&#45;&gt;Node2 -->
<g id="edge2" class="edge">
<title>Node3&#45;&gt;Node2</title>
<path fill="none" stroke="#9a32cd" stroke-dasharray="5,2" d="M76.31,-137.18C94.58,-124.61 120.56,-106.73 135.86,-96.2"/>
<polygon fill="#9a32cd" stroke="#9a32cd" points="74.3,-134.32 68.04,-142.87 78.26,-140.08 74.3,-134.32"/>
<text text-anchor="middle" x="118" y="-117" font-family="Helvetica,sans-Serif" font-size="10.00"> prm</text>
</g>
<!-- Node4 -->
<g id="node4" class="node">
<title>Node4</title>
<g id="a_node4"><a xlink:href="../../dc/d3d/struct_command_runtime_calc.html" target="_top" xlink:title="CommandRuntimeCalc struct contains arrays and indices determined at runtime these structs are associa...">
<polygon fill="white" stroke="#666666" points="245.5,-162 129.5,-162 129.5,-143 245.5,-143 245.5,-162"/>
<text text-anchor="middle" x="187.5" y="-150" font-family="Helvetica,sans-Serif" font-size="10.00">CommandRuntimeCalc</text>
</a>
</g>
</g>
<!-- Node4&#45;&gt;Node2 -->
<g id="edge3" class="edge">
<title>Node4&#45;&gt;Node2</title>
<path fill="none" stroke="#9a32cd" stroke-dasharray="5,2" d="M176.87,-134.05C169.44,-121.86 159.84,-106.11 153.93,-96.41"/>
<polygon fill="#9a32cd" stroke="#9a32cd" points="174.05,-136.15 182.24,-142.87 180.03,-132.51 174.05,-136.15"/>
<text text-anchor="middle" x="181" y="-117" font-family="Helvetica,sans-Serif" font-size="10.00"> calc</text>
</g>
</g>
</svg>
