<?xml version="1.0" encoding="UTF-8" standalone="no"?>
<!DOCTYPE svg PUBLIC "-//W3C//DTD SVG 1.1//EN"
 "http://www.w3.org/Graphics/SVG/1.1/DTD/svg11.dtd">
<!-- Generated by graphviz version 5.0.0 (20220708.1001)
 -->
<!-- Title: UserInput::_rcfbprm Pages: 1 -->
<svg width="299pt" height="173pt"
 viewBox="0.00 0.00 299.00 173.00" xmlns="http://www.w3.org/2000/svg" xmlns:xlink="http://www.w3.org/1999/xlink">
<g id="graph0" class="graph" transform="scale(1 1) rotate(0) translate(4 169)">
<title>UserInput::_rcfbprm</title>
<!-- Node1 -->
<g id="node1" class="node">
<title>Node1</title>
<g id="a_node1"><a xlink:title="Used internally by UserInput::readCommandFromBuffer() and passed by reference.">
<polygon fill="#bfbfbf" stroke="black" points="35.5,-0.5 35.5,-19.5 137.5,-19.5 137.5,-0.5 35.5,-0.5"/>
<text text-anchor="middle" x="86.5" y="-7.5" font-family="Helvetica,sans-Serif" font-size="10.00">UserInput::_rcfbprm</text>
</a>
</g>
</g>
<!-- Node2 -->
<g id="node2" class="node">
<title>Node2</title>
<g id="a_node2"><a xlink:href="../../df/d68/class_command_constructor.html" target="_top" xlink:title="user command constructor class">
<polygon fill="none" stroke="black" points="93,-78.5 93,-97.5 204,-97.5 204,-78.5 93,-78.5"/>
<text text-anchor="middle" x="148.5" y="-85.5" font-family="Helvetica,sans-Serif" font-size="10.00">CommandConstructor</text>
</a>
</g>
</g>
<!-- Node2&#45;&gt;Node1 -->
<g id="edge1" class="edge">
<title>Node2&#45;&gt;Node1</title>
<path fill="none" stroke="#9a32cd" stroke-dasharray="5,2" d="M134.99,-70.44C122.22,-54.79 103.57,-31.93 93.53,-19.62"/>
<polygon fill="#9a32cd" stroke="#9a32cd" points="132.35,-72.75 141.39,-78.28 137.78,-68.32 132.35,-72.75"/>
<text text-anchor="middle" x="155.5" y="-52" font-family="Helvetica,sans-Serif" font-size="10.00"> all_wcc_cmd</text>
<text text-anchor="middle" x="155.5" y="-41" font-family="Helvetica,sans-Serif" font-size="10.00">cmd</text>
</g>
<!-- Node2&#45;&gt;Node2 -->
<g id="edge4" class="edge">
<title>Node2&#45;&gt;Node2</title>
<path fill="none" stroke="#9a32cd" stroke-dasharray="5,2" d="M214.45,-92.4C219.14,-91.4 222,-89.93 222,-88 222,-84.91 214.67,-83.01 204.27,-82.31"/>
<polygon fill="#9a32cd" stroke="#9a32cd" points="213.75,-88.96 204.27,-93.69 214.63,-95.9 213.75,-88.96"/>
<text text-anchor="middle" x="256.5" y="-85.5" font-family="Helvetica,sans-Serif" font-size="10.00"> next_command</text>
</g>
<!-- Node3 -->
<g id="node3" class="node">
<title>Node3</title>
<g id="a_node3"><a xlink:href="../../db/d11/struct_command_parameters.html" target="_top" xlink:title="CommandParameters struct, this is the container that holds your command parameters.">
<polygon fill="none" stroke="black" points="0,-145.5 0,-164.5 111,-164.5 111,-145.5 0,-145.5"/>
<text text-anchor="middle" x="55.5" y="-152.5" font-family="Helvetica,sans-Serif" font-size="10.00">CommandParameters</text>
</a>
</g>
</g>
<!-- Node3&#45;&gt;Node1 -->
<g id="edge5" class="edge">
<title>Node3&#45;&gt;Node1</title>
<path fill="none" stroke="#9a32cd" stroke-dasharray="5,2" d="M56.68,-135.15C57.9,-119.67 60.25,-97.23 64.5,-78 69.26,-56.48 78.2,-32.1 83.09,-19.52"/>
<polygon fill="#9a32cd" stroke="#9a32cd" points="53.17,-135.25 55.95,-145.47 60.15,-135.74 53.17,-135.25"/>
<text text-anchor="middle" x="74" y="-85.5" font-family="Helvetica,sans-Serif" font-size="10.00"> prm</text>
</g>
<!-- Node3&#45;&gt;Node2 -->
<g id="edge2" class="edge">
<title>Node3&#45;&gt;Node2</title>
<path fill="none" stroke="#9a32cd" stroke-dasharray="5,2" d="M76.36,-139.42C94.75,-126.57 120.91,-108.28 136.16,-97.63"/>
<polygon fill="#9a32cd" stroke="#9a32cd" points="74.23,-136.64 68.04,-145.23 78.24,-142.37 74.23,-136.64"/>
<text text-anchor="middle" x="118" y="-119" font-family="Helvetica,sans-Serif" font-size="10.00"> prm</text>
</g>
<!-- Node4 -->
<g id="node4" class="node">
<title>Node4</title>
<g id="a_node4"><a xlink:href="../../dc/d3d/struct_command_runtime_calc.html" target="_top" xlink:title="CommandRuntimeCalc struct contains arrays and indices determined at runtime these structs are associa...">
<polygon fill="none" stroke="black" points="129.5,-145.5 129.5,-164.5 245.5,-164.5 245.5,-145.5 129.5,-145.5"/>
<text text-anchor="middle" x="187.5" y="-152.5" font-family="Helvetica,sans-Serif" font-size="10.00">CommandRuntimeCalc</text>
</a>
</g>
</g>
<!-- Node4&#45;&gt;Node2 -->
<g id="edge3" class="edge">
<title>Node4&#45;&gt;Node2</title>
<path fill="none" stroke="#9a32cd" stroke-dasharray="5,2" d="M177.02,-136.53C169.47,-123.95 159.6,-107.51 153.68,-97.63"/>
<polygon fill="#9a32cd" stroke="#9a32cd" points="174.09,-138.46 182.24,-145.23 180.1,-134.86 174.09,-138.46"/>
<text text-anchor="middle" x="181" y="-119" font-family="Helvetica,sans-Serif" font-size="10.00"> calc</text>
</g>
</g>
</svg>
