<?xml version="1.0" encoding="UTF-8" standalone="no"?>
<!DOCTYPE svg PUBLIC "-//W3C//DTD SVG 1.1//EN"
 "http://www.w3.org/Graphics/SVG/1.1/DTD/svg11.dtd">
<!-- Generated by graphviz version 6.0.1 (20220911.1526)
 -->
<!-- Title: Graphical Class Hierarchy Pages: 1 -->
<svg width="294pt" height="434pt"
 viewBox="0.00 0.00 294.00 434.00" xmlns="http://www.w3.org/2000/svg" xmlns:xlink="http://www.w3.org/1999/xlink">
<g id="graph0" class="graph" transform="scale(1 1) rotate(0) translate(4 430)">
<title>Graphical Class Hierarchy</title>
<!-- Node0 -->
<g id="node1" class="node">
<title>Node0</title>
<g id="a_node1"><a xlink:title=" ">
<polygon fill="#e0e0e0" stroke="#999999" points="111.5,-426 37.5,-426 37.5,-407 111.5,-407 111.5,-426"/>
<text text-anchor="middle" x="74.5" y="-414" font-family="Helvetica,sans-Serif" font-size="10.00">CLIfilestrings</text>
</a>
</g>
</g>
<!-- Node1 -->
<g id="node2" class="node">
<title>Node1</title>
<g id="a_node2"><a xlink:href="dc/d41/classcli__gen__tool_1_1cli__gen__tool_1_1_main_window.html" target="_top" xlink:title="This is the main display window.">
<polygon fill="white" stroke="#666666" points="286,-227.5 185,-227.5 185,-197.5 286,-197.5 286,-227.5"/>
<text text-anchor="start" x="193" y="-215.5" font-family="Helvetica,sans-Serif" font-size="10.00">cli_gen_tool.cli_gen</text>
<text text-anchor="middle" x="235.5" y="-204.5" font-family="Helvetica,sans-Serif" font-size="10.00">_tool.MainWindow</text>
</a>
</g>
</g>
<!-- Node0&#45;&gt;Node1 -->
<g id="edge1" class="edge">
<title>Node0&#45;&gt;Node1</title>
<path fill="none" stroke="#63b8ff" d="M121.51,-411.88C131.38,-409.16 141.17,-404.96 149,-398.5 204.37,-352.8 225.59,-263.41 232.08,-227.74"/>
<polygon fill="#63b8ff" stroke="#63b8ff" points="120.66,-408.48 111.7,-414.13 122.23,-415.3 120.66,-408.48"/>
</g>
<!-- Node2 -->
<g id="node3" class="node">
<title>Node2</title>
<g id="a_node3"><a xlink:title=" ">
<polygon fill="#e0e0e0" stroke="#999999" points="111.5,-389 37.5,-389 37.5,-370 111.5,-370 111.5,-389"/>
<text text-anchor="middle" x="74.5" y="-377" font-family="Helvetica,sans-Serif" font-size="10.00">CodePreview</text>
</a>
</g>
</g>
<!-- Node2&#45;&gt;Node1 -->
<g id="edge2" class="edge">
<title>Node2&#45;&gt;Node1</title>
<path fill="none" stroke="#63b8ff" d="M121.69,-374.19C131.38,-371.5 141.05,-367.48 149,-361.5 195.47,-326.54 220.76,-258.39 230.17,-227.89"/>
<polygon fill="#63b8ff" stroke="#63b8ff" points="120.6,-370.85 111.67,-376.54 122.2,-377.66 120.6,-370.85"/>
</g>
<!-- Node3 -->
<g id="node4" class="node">
<title>Node3</title>
<g id="a_node4"><a xlink:title=" ">
<polygon fill="#e0e0e0" stroke="#999999" points="149,-352 0,-352 0,-333 149,-333 149,-352"/>
<text text-anchor="middle" x="74.5" y="-340" font-family="Helvetica,sans-Serif" font-size="10.00">CommandParametersMethods</text>
</a>
</g>
</g>
<!-- Node3&#45;&gt;Node1 -->
<g id="edge3" class="edge">
<title>Node3&#45;&gt;Node1</title>
<path fill="none" stroke="#63b8ff" d="M141.22,-328.93C143.92,-327.59 146.53,-326.12 149,-324.5 186.87,-299.72 214.66,-252.26 227.16,-227.85"/>
<polygon fill="#63b8ff" stroke="#63b8ff" points="139.57,-325.83 131.77,-333 142.34,-332.26 139.57,-325.83"/>
</g>
<!-- Node4 -->
<g id="node5" class="node">
<title>Node4</title>
<g id="a_node5"><a xlink:title=" ">
<polygon fill="#e0e0e0" stroke="#999999" points="133.5,-315 15.5,-315 15.5,-296 133.5,-296 133.5,-315"/>
<text text-anchor="middle" x="74.5" y="-303" font-family="Helvetica,sans-Serif" font-size="10.00">CommandTreeMethods</text>
</a>
</g>
</g>
<!-- Node4&#45;&gt;Node1 -->
<g id="edge4" class="edge">
<title>Node4&#45;&gt;Node1</title>
<path fill="none" stroke="#63b8ff" d="M137.8,-292.53C141.66,-291.03 145.43,-289.36 149,-287.5 178.42,-272.18 206.05,-244.67 221.57,-227.56"/>
<polygon fill="#63b8ff" stroke="#63b8ff" points="136.33,-289.34 128.04,-295.93 138.63,-295.95 136.33,-289.34"/>
</g>
<!-- Node5 -->
<g id="node6" class="node">
<title>Node5</title>
<g id="a_node6"><a xlink:title=" ">
<polygon fill="#e0e0e0" stroke="#999999" points="116,-278 33,-278 33,-259 116,-259 116,-278"/>
<text text-anchor="middle" x="74.5" y="-266" font-family="Helvetica,sans-Serif" font-size="10.00">HelperMethods</text>
</a>
</g>
</g>
<!-- Node5&#45;&gt;Node1 -->
<g id="edge5" class="edge">
<title>Node5&#45;&gt;Node1</title>
<path fill="none" stroke="#63b8ff" d="M126.03,-257.39C133.79,-255.32 141.66,-253.01 149,-250.5 167.75,-244.09 188.05,-235.16 204.16,-227.57"/>
<polygon fill="#63b8ff" stroke="#63b8ff" points="125.13,-254 116.31,-259.87 126.87,-260.79 125.13,-254"/>
</g>
<!-- Node6 -->
<g id="node7" class="node">
<title>Node6</title>
<g id="a_node7"><a xlink:title=" ">
<polygon fill="#e0e0e0" stroke="#999999" points="127,-241 22,-241 22,-222 127,-222 127,-241"/>
<text text-anchor="middle" x="74.5" y="-229" font-family="Helvetica,sans-Serif" font-size="10.00">MainWindowActions</text>
</a>
</g>
</g>
<!-- Node6&#45;&gt;Node1 -->
<g id="edge6" class="edge">
<title>Node6&#45;&gt;Node1</title>
<path fill="none" stroke="#63b8ff" d="M137.29,-224.12C153.02,-222.24 169.72,-220.24 184.76,-218.44"/>
<polygon fill="#63b8ff" stroke="#63b8ff" points="136.64,-220.67 127.12,-225.33 137.47,-227.62 136.64,-220.67"/>
</g>
<!-- Node7 -->
<g id="node8" class="node">
<title>Node7</title>
<g id="a_node8"><a xlink:title=" ">
<polygon fill="#e0e0e0" stroke="#999999" points="127.5,-204 21.5,-204 21.5,-185 127.5,-185 127.5,-204"/>
<text text-anchor="middle" x="74.5" y="-192" font-family="Helvetica,sans-Serif" font-size="10.00">MainWindowButtons</text>
</a>
</g>
</g>
<!-- Node7&#45;&gt;Node1 -->
<g id="edge7" class="edge">
<title>Node7&#45;&gt;Node1</title>
<path fill="none" stroke="#63b8ff" d="M137.66,-201.54C153.28,-203.31 169.83,-205.18 184.75,-206.87"/>
<polygon fill="#63b8ff" stroke="#63b8ff" points="137.89,-198.04 127.56,-200.39 137.11,-205 137.89,-198.04"/>
</g>
<!-- Node8 -->
<g id="node9" class="node">
<title>Node8</title>
<g id="a_node9"><a xlink:title=" ">
<polygon fill="#e0e0e0" stroke="#999999" points="137,-167 12,-167 12,-148 137,-148 137,-167"/>
<text text-anchor="middle" x="74.5" y="-155" font-family="Helvetica,sans-Serif" font-size="10.00">ParseInputHandlerConfig</text>
</a>
</g>
</g>
<!-- Node8&#45;&gt;Node1 -->
<g id="edge8" class="edge">
<title>Node8&#45;&gt;Node1</title>
<path fill="none" stroke="#63b8ff" d="M126.51,-169.66C134.1,-171.76 141.79,-174.07 149,-176.5 166.7,-182.48 185.91,-190.43 201.64,-197.34"/>
<polygon fill="#63b8ff" stroke="#63b8ff" points="127.2,-166.22 116.63,-167.01 125.38,-172.98 127.2,-166.22"/>
</g>
<!-- Node9 -->
<g id="node10" class="node">
<title>Node9</title>
<g id="a_node10"><a xlink:title=" ">
<polygon fill="#e0e0e0" stroke="#999999" points="128,-130 21,-130 21,-111 128,-111 128,-130"/>
<text text-anchor="middle" x="74.5" y="-118" font-family="Helvetica,sans-Serif" font-size="10.00">PreferencesMethods</text>
</a>
</g>
</g>
<!-- Node9&#45;&gt;Node1 -->
<g id="edge9" class="edge">
<title>Node9&#45;&gt;Node1</title>
<path fill="none" stroke="#63b8ff" d="M134.81,-133.28C139.72,-135.1 144.51,-137.16 149,-139.5 177.74,-154.46 205.16,-180.71 220.88,-197.32"/>
<polygon fill="#63b8ff" stroke="#63b8ff" points="135.87,-129.95 125.28,-130.08 133.64,-136.58 135.87,-129.95"/>
</g>
<!-- Node10 -->
<g id="node11" class="node">
<title>Node10</title>
<g id="a_node11"><a xlink:title=" ">
<polygon fill="#e0e0e0" stroke="#999999" points="114.5,-93 34.5,-93 34.5,-74 114.5,-74 114.5,-93"/>
<text text-anchor="middle" x="74.5" y="-81" font-family="Helvetica,sans-Serif" font-size="10.00">QMainWindow</text>
</a>
</g>
</g>
<!-- Node10&#45;&gt;Node1 -->
<g id="edge10" class="edge">
<title>Node10&#45;&gt;Node1</title>
<path fill="none" stroke="#63b8ff" d="M124.53,-91.36C133.11,-94.05 141.64,-97.66 149,-102.5 186.39,-127.08 214.39,-173.58 227.05,-197.48"/>
<polygon fill="#63b8ff" stroke="#63b8ff" points="125.44,-87.99 114.87,-88.7 123.58,-94.73 125.44,-87.99"/>
</g>
<!-- Node11 -->
<g id="node12" class="node">
<title>Node11</title>
<g id="a_node12"><a xlink:title=" ">
<polygon fill="#e0e0e0" stroke="#999999" points="129.5,-56 19.5,-56 19.5,-37 129.5,-37 129.5,-56"/>
<text text-anchor="middle" x="74.5" y="-44" font-family="Helvetica,sans-Serif" font-size="10.00">SettingsTreeMethods</text>
</a>
</g>
</g>
<!-- Node11&#45;&gt;Node1 -->
<g id="edge11" class="edge">
<title>Node11&#45;&gt;Node1</title>
<path fill="none" stroke="#63b8ff" d="M138.81,-59.18C142.41,-61.01 145.84,-63.11 149,-65.5 194.88,-100.27 220.48,-167.36 230.07,-197.36"/>
<polygon fill="#63b8ff" stroke="#63b8ff" points="140.16,-55.95 129.6,-55.15 137.35,-62.36 140.16,-55.95"/>
</g>
<!-- Node12 -->
<g id="node13" class="node">
<title>Node12</title>
<g id="a_node13"><a xlink:title=" ">
<polygon fill="#e0e0e0" stroke="#999999" points="141.5,-19 7.5,-19 7.5,0 141.5,0 141.5,-19"/>
<text text-anchor="middle" x="74.5" y="-7" font-family="Helvetica,sans-Serif" font-size="10.00">SettingsTreeTableMethods</text>
</a>
</g>
</g>
<!-- Node12&#45;&gt;Node1 -->
<g id="edge12" class="edge">
<title>Node12&#45;&gt;Node1</title>
<path fill="none" stroke="#63b8ff" d="M142.52,-23.84C144.79,-25.25 146.96,-26.8 149,-28.5 203.68,-74.03 225.3,-162.27 231.99,-197.47"/>
<polygon fill="#63b8ff" stroke="#63b8ff" points="143.81,-20.57 133.33,-19.05 140.57,-26.78 143.81,-20.57"/>
</g>
</g>
</svg>
