<?xml version="1.0" encoding="UTF-8" standalone="no"?>
<!DOCTYPE svg PUBLIC "-//W3C//DTD SVG 1.1//EN"
 "http://www.w3.org/Graphics/SVG/1.1/DTD/svg11.dtd">
<!-- Generated by graphviz version 6.0.1 (20220911.1526)
 -->
<!-- Title: Graphical Class Hierarchy Pages: 1 -->
<svg width="288pt" height="1135pt"
 viewBox="0.00 0.00 288.00 1134.50" xmlns="http://www.w3.org/2000/svg" xmlns:xlink="http://www.w3.org/1999/xlink">
<g id="graph0" class="graph" transform="scale(1 1) rotate(0) translate(4 1130.5)">
<title>Graphical Class Hierarchy</title>
<!-- Node0 -->
<g id="node1" class="node">
<title>Node0</title>
<g id="a_node1"><a xlink:title=" ">
<polygon fill="#e0e0e0" stroke="#999999" points="60,-544.5 17,-544.5 17,-525.5 60,-525.5 60,-544.5"/>
<text text-anchor="middle" x="38.5" y="-532.5" font-family="Helvetica,sans-Serif" font-size="10.00">object</text>
</a>
</g>
</g>
<!-- Node1 -->
<g id="node2" class="node">
<title>Node1</title>
<g id="a_node2"><a xlink:href="d0/dd7/classmodules_1_1cli_1_1clireadme_1_1cli_readme.html" target="_top" xlink:title=" ">
<polygon fill="white" stroke="#666666" points="257.5,-1010 135.5,-1010 135.5,-980 257.5,-980 257.5,-1010"/>
<text text-anchor="start" x="143.5" y="-998" font-family="Helvetica,sans-Serif" font-size="10.00">modules.cli.clireadme.cli</text>
<text text-anchor="middle" x="196.5" y="-987" font-family="Helvetica,sans-Serif" font-size="10.00">Readme</text>
</a>
</g>
</g>
<!-- Node0&#45;&gt;Node1 -->
<g id="edge1" class="edge">
<title>Node0&#45;&gt;Node1</title>
<path fill="none" stroke="#63b8ff" d="M40.16,-554.93C43.1,-631.66 57.39,-906.85 113,-970 119.03,-976.85 126.88,-981.86 135.32,-985.51"/>
<polygon fill="#63b8ff" stroke="#63b8ff" points="43.65,-554.6 39.79,-544.74 36.65,-554.86 43.65,-554.6"/>
</g>
<!-- Node2 -->
<g id="node3" class="node">
<title>Node2</title>
<g id="a_node3"><a xlink:href="d5/d68/classmodules_1_1cli_1_1config_1_1cli_config.html" target="_top" xlink:title=" ">
<polygon fill="white" stroke="#666666" points="262.5,-961.5 130.5,-961.5 130.5,-942.5 262.5,-942.5 262.5,-961.5"/>
<text text-anchor="middle" x="196.5" y="-949.5" font-family="Helvetica,sans-Serif" font-size="10.00">modules.cli.config.cliConfig</text>
</a>
</g>
</g>
<!-- Node0&#45;&gt;Node2 -->
<g id="edge2" class="edge">
<title>Node0&#45;&gt;Node2</title>
<path fill="none" stroke="#63b8ff" d="M40.36,-554.73C43.93,-627.23 59.96,-877.59 113,-933 117.88,-938.1 123.83,-941.95 130.27,-944.85"/>
<polygon fill="#63b8ff" stroke="#63b8ff" points="43.85,-554.5 39.89,-544.68 36.86,-554.83 43.85,-554.5"/>
</g>
<!-- Node3 -->
<g id="node4" class="node">
<title>Node3</title>
<g id="a_node4"><a xlink:href="dc/d45/classmodules_1_1cli_1_1filestrings_1_1_c_l_ifilestrings.html" target="_top" xlink:title="file construction strings">
<polygon fill="white" stroke="#666666" points="252,-924 141,-924 141,-894 252,-894 252,-924"/>
<text text-anchor="start" x="149" y="-912" font-family="Helvetica,sans-Serif" font-size="10.00">modules.cli.filestrings.</text>
<text text-anchor="middle" x="196.5" y="-901" font-family="Helvetica,sans-Serif" font-size="10.00">CLIfilestrings</text>
</a>
</g>
</g>
<!-- Node0&#45;&gt;Node3 -->
<g id="edge3" class="edge">
<title>Node0&#45;&gt;Node3</title>
<path fill="none" stroke="#63b8ff" d="M41.02,-554.79C46.52,-621.39 67.52,-835.92 113,-885 120.4,-892.99 130.29,-898.37 140.65,-901.99"/>
<polygon fill="#63b8ff" stroke="#63b8ff" points="44.51,-554.47 40.22,-544.78 37.53,-555.03 44.51,-554.47"/>
</g>
<!-- Node4 -->
<g id="node5" class="node">
<title>Node4</title>
<g id="a_node5"><a xlink:href="dd/d75/classmodules_1_1cli_1_1functions_1_1cli_functions.html" target="_top" xlink:title=" ">
<polygon fill="white" stroke="#666666" points="256,-876 137,-876 137,-846 256,-846 256,-876"/>
<text text-anchor="start" x="145" y="-864" font-family="Helvetica,sans-Serif" font-size="10.00">modules.cli.functions.cli</text>
<text text-anchor="middle" x="196.5" y="-853" font-family="Helvetica,sans-Serif" font-size="10.00">Functions</text>
</a>
</g>
</g>
<!-- Node0&#45;&gt;Node4 -->
<g id="edge4" class="edge">
<title>Node0&#45;&gt;Node4</title>
<path fill="none" stroke="#63b8ff" d="M41.73,-554.76C48.93,-615.15 73.4,-795.61 113,-837 119.5,-843.79 127.79,-848.69 136.61,-852.22"/>
<polygon fill="#63b8ff" stroke="#63b8ff" points="45.19,-554.18 40.56,-544.65 38.23,-554.99 45.19,-554.18"/>
</g>
<!-- Node5 -->
<g id="node6" class="node">
<title>Node5</title>
<g id="a_node6"><a xlink:href="d5/dc1/classmodules_1_1cli_1_1parameters_1_1cli_parameters.html" target="_top" xlink:title=" ">
<polygon fill="white" stroke="#666666" points="260.5,-828 132.5,-828 132.5,-798 260.5,-798 260.5,-828"/>
<text text-anchor="start" x="140.5" y="-816" font-family="Helvetica,sans-Serif" font-size="10.00">modules.cli.parameters.cli</text>
<text text-anchor="middle" x="196.5" y="-805" font-family="Helvetica,sans-Serif" font-size="10.00">Parameters</text>
</a>
</g>
</g>
<!-- Node0&#45;&gt;Node5 -->
<g id="edge5" class="edge">
<title>Node0&#45;&gt;Node5</title>
<path fill="none" stroke="#63b8ff" d="M39.25,-554.7C39.77,-601.83 47.79,-722.04 113,-788 118.47,-793.53 125.12,-797.85 132.25,-801.22"/>
<polygon fill="#63b8ff" stroke="#63b8ff" points="42.75,-554.61 39.25,-544.61 35.75,-554.61 42.75,-554.61"/>
</g>
<!-- Node6 -->
<g id="node7" class="node">
<title>Node6</title>
<g id="a_node7"><a xlink:href="dc/d95/classmodules_1_1cli_1_1setup_1_1cli_setup.html" target="_top" xlink:title=" ">
<polygon fill="white" stroke="#666666" points="261,-779.5 132,-779.5 132,-760.5 261,-760.5 261,-779.5"/>
<text text-anchor="middle" x="196.5" y="-767.5" font-family="Helvetica,sans-Serif" font-size="10.00">modules.cli.setup.cliSetup</text>
</a>
</g>
</g>
<!-- Node0&#45;&gt;Node6 -->
<g id="edge6" class="edge">
<title>Node0&#45;&gt;Node6</title>
<path fill="none" stroke="#63b8ff" d="M40.12,-554.64C42.56,-597.18 54.57,-698.22 113,-751 118.45,-755.93 124.92,-759.65 131.81,-762.46"/>
<polygon fill="#63b8ff" stroke="#63b8ff" points="43.61,-554.33 39.66,-544.5 36.61,-554.65 43.61,-554.33"/>
</g>
<!-- Node7 -->
<g id="node8" class="node">
<title>Node7</title>
<g id="a_node8"><a xlink:href="dd/d03/classmodules_1_1code__preview_1_1_code_preview.html" target="_top" xlink:title=" ">
<polygon fill="white" stroke="#666666" points="266.5,-1058 126.5,-1058 126.5,-1028 266.5,-1028 266.5,-1058"/>
<text text-anchor="start" x="134.5" y="-1046" font-family="Helvetica,sans-Serif" font-size="10.00">modules.code_preview.Code</text>
<text text-anchor="middle" x="196.5" y="-1035" font-family="Helvetica,sans-Serif" font-size="10.00">Preview</text>
</a>
</g>
</g>
<!-- Node0&#45;&gt;Node7 -->
<g id="edge7" class="edge">
<title>Node0&#45;&gt;Node7</title>
<path fill="none" stroke="#63b8ff" d="M39.76,-555.03C41.25,-637.29 50.96,-948.15 113,-1019 116.83,-1023.38 121.41,-1026.98 126.42,-1029.94"/>
<polygon fill="#63b8ff" stroke="#63b8ff" points="43.26,-554.55 39.6,-544.61 36.26,-554.66 43.26,-554.55"/>
</g>
<!-- Node13 -->
<g id="node9" class="node">
<title>Node13</title>
<g id="a_node9"><a xlink:href="dd/d7c/classmodules_1_1command__parameters_1_1_command_parameters_methods.html" target="_top" xlink:title=" ">
<polygon fill="white" stroke="#666666" points="274,-742 119,-742 119,-712 274,-712 274,-742"/>
<text text-anchor="start" x="127" y="-730" font-family="Helvetica,sans-Serif" font-size="10.00">modules.command_parameters.</text>
<text text-anchor="middle" x="196.5" y="-719" font-family="Helvetica,sans-Serif" font-size="10.00">CommandParametersMethods</text>
</a>
</g>
</g>
<!-- Node0&#45;&gt;Node13 -->
<g id="edge8" class="edge">
<title>Node0&#45;&gt;Node13</title>
<path fill="none" stroke="#63b8ff" d="M42.53,-554.56C49,-589.57 67.46,-663 113,-703 116.92,-706.45 121.31,-709.4 125.97,-711.93"/>
<polygon fill="#63b8ff" stroke="#63b8ff" points="45.97,-553.91 40.84,-544.64 39.07,-555.09 45.97,-553.91"/>
</g>
<!-- Node14 -->
<g id="node10" class="node">
<title>Node14</title>
<g id="a_node10"><a xlink:href="de/d14/classmodules_1_1command__tree_1_1_command_tree_methods.html" target="_top" xlink:title="self.ui.command_tree methods">
<polygon fill="white" stroke="#666666" points="280,-694 113,-694 113,-664 280,-664 280,-694"/>
<text text-anchor="start" x="121" y="-682" font-family="Helvetica,sans-Serif" font-size="10.00">modules.command_tree.Command</text>
<text text-anchor="middle" x="196.5" y="-671" font-family="Helvetica,sans-Serif" font-size="10.00">TreeMethods</text>
</a>
</g>
</g>
<!-- Node0&#45;&gt;Node14 -->
<g id="edge9" class="edge">
<title>Node0&#45;&gt;Node14</title>
<path fill="none" stroke="#63b8ff" d="M46.27,-554.49C56.52,-581.15 78.53,-628.68 113,-655 117.51,-658.44 122.49,-661.39 127.71,-663.91"/>
<polygon fill="#63b8ff" stroke="#63b8ff" points="49.43,-552.95 42.7,-544.77 42.86,-555.36 49.43,-552.95"/>
</g>
<!-- Node15 -->
<g id="node11" class="node">
<title>Node15</title>
<g id="a_node11"><a xlink:href="d7/d8c/classmodules_1_1data__models_1_1data_models.html" target="_top" xlink:title=" ">
<polygon fill="white" stroke="#666666" points="262.5,-646 130.5,-646 130.5,-616 262.5,-616 262.5,-646"/>
<text text-anchor="start" x="138.5" y="-634" font-family="Helvetica,sans-Serif" font-size="10.00">modules.data_models.data</text>
<text text-anchor="middle" x="196.5" y="-623" font-family="Helvetica,sans-Serif" font-size="10.00">Models</text>
</a>
</g>
</g>
<!-- Node0&#45;&gt;Node15 -->
<g id="edge10" class="edge">
<title>Node0&#45;&gt;Node15</title>
<path fill="none" stroke="#63b8ff" d="M53.57,-553.17C67.13,-569.5 89.06,-593 113,-607 118.79,-610.39 125.1,-613.33 131.56,-615.87"/>
<polygon fill="#63b8ff" stroke="#63b8ff" points="55.94,-550.54 46.94,-544.95 50.49,-554.93 55.94,-550.54"/>
</g>
<!-- Node16 -->
<g id="node12" class="node">
<title>Node16</title>
<g id="a_node12"><a xlink:href="db/dfa/classmodules_1_1display__models_1_1display_models.html" target="_top" xlink:title=" ">
<polygon fill="white" stroke="#666666" points="274,-598 119,-598 119,-568 274,-568 274,-598"/>
<text text-anchor="start" x="127" y="-586" font-family="Helvetica,sans-Serif" font-size="10.00">modules.display_models.display</text>
<text text-anchor="middle" x="196.5" y="-575" font-family="Helvetica,sans-Serif" font-size="10.00">Models</text>
</a>
</g>
</g>
<!-- Node0&#45;&gt;Node16 -->
<g id="edge11" class="edge">
<title>Node0&#45;&gt;Node16</title>
<path fill="none" stroke="#63b8ff" d="M69.62,-545.08C82.89,-549.46 98.69,-554.58 113,-559 122.55,-561.95 132.75,-565 142.61,-567.89"/>
<polygon fill="#63b8ff" stroke="#63b8ff" points="70.63,-541.73 60.04,-541.9 68.43,-548.37 70.63,-541.73"/>
</g>
<!-- Node17 -->
<g id="node13" class="node">
<title>Node17</title>
<g id="a_node13"><a xlink:href="d1/d1a/classmodules_1_1helper__methods_1_1_helper_methods.html" target="_top" xlink:title=" ">
<polygon fill="white" stroke="#666666" points="274,-550 119,-550 119,-520 274,-520 274,-550"/>
<text text-anchor="start" x="127" y="-538" font-family="Helvetica,sans-Serif" font-size="10.00">modules.helper_methods.Helper</text>
<text text-anchor="middle" x="196.5" y="-527" font-family="Helvetica,sans-Serif" font-size="10.00">Methods</text>
</a>
</g>
</g>
<!-- Node0&#45;&gt;Node17 -->
<g id="edge12" class="edge">
<title>Node0&#45;&gt;Node17</title>
<path fill="none" stroke="#63b8ff" d="M70.26,-535C84.3,-535 101.62,-535 118.85,-535"/>
<polygon fill="#63b8ff" stroke="#63b8ff" points="70.22,-531.5 60.22,-535 70.22,-538.5 70.22,-531.5"/>
</g>
<!-- Node18 -->
<g id="node14" class="node">
<title>Node18</title>
<g id="a_node14"><a xlink:href="d3/dd3/classmodules_1_1logging__setup_1_1_logger.html" target="_top" xlink:title="logging api">
<polygon fill="white" stroke="#666666" points="270.5,-501.5 122.5,-501.5 122.5,-482.5 270.5,-482.5 270.5,-501.5"/>
<text text-anchor="middle" x="196.5" y="-489.5" font-family="Helvetica,sans-Serif" font-size="10.00">modules.logging_setup.Logger</text>
</a>
</g>
</g>
<!-- Node0&#45;&gt;Node18 -->
<g id="edge13" class="edge">
<title>Node0&#45;&gt;Node18</title>
<path fill="none" stroke="#63b8ff" d="M69.79,-524.43C82.99,-520.01 98.67,-514.98 113,-511 125.18,-507.62 138.49,-504.36 150.79,-501.53"/>
<polygon fill="#63b8ff" stroke="#63b8ff" points="68.6,-521.14 60.26,-527.67 70.85,-527.77 68.6,-521.14"/>
</g>
<!-- Node19 -->
<g id="node15" class="node">
<title>Node19</title>
<g id="a_node15"><a xlink:href="d9/d34/classmodules_1_1mainwindow__actions_1_1_main_window_actions.html" target="_top" xlink:title=" ">
<polygon fill="white" stroke="#666666" points="268.5,-464 124.5,-464 124.5,-434 268.5,-434 268.5,-464"/>
<text text-anchor="start" x="132.5" y="-452" font-family="Helvetica,sans-Serif" font-size="10.00">modules.mainwindow</text>
<text text-anchor="middle" x="196.5" y="-441" font-family="Helvetica,sans-Serif" font-size="10.00">_actions.MainWindowActions</text>
</a>
</g>
</g>
<!-- Node0&#45;&gt;Node19 -->
<g id="edge14" class="edge">
<title>Node0&#45;&gt;Node19</title>
<path fill="none" stroke="#63b8ff" d="M55.85,-517.66C69.83,-503.77 91.11,-484.73 113,-473 119.31,-469.62 126.16,-466.66 133.11,-464.09"/>
<polygon fill="#63b8ff" stroke="#63b8ff" points="53.02,-515.56 48.52,-525.15 58.02,-520.46 53.02,-515.56"/>
</g>
<!-- Node20 -->
<g id="node16" class="node">
<title>Node20</title>
<g id="a_node16"><a xlink:href="d1/db3/classmodules_1_1mainwindow__buttons_1_1_main_window_buttons.html" target="_top" xlink:title=" ">
<polygon fill="white" stroke="#666666" points="269.5,-416 123.5,-416 123.5,-386 269.5,-386 269.5,-416"/>
<text text-anchor="start" x="131.5" y="-404" font-family="Helvetica,sans-Serif" font-size="10.00">modules.mainwindow</text>
<text text-anchor="middle" x="196.5" y="-393" font-family="Helvetica,sans-Serif" font-size="10.00">_buttons.MainWindowButtons</text>
</a>
</g>
</g>
<!-- Node0&#45;&gt;Node20 -->
<g id="edge15" class="edge">
<title>Node0&#45;&gt;Node20</title>
<path fill="none" stroke="#63b8ff" d="M47.18,-516.07C58.14,-491.44 80.58,-448.76 113,-425 117.69,-421.56 122.87,-418.61 128.28,-416.09"/>
<polygon fill="#63b8ff" stroke="#63b8ff" points="43.9,-514.84 43.19,-525.41 50.34,-517.59 43.9,-514.84"/>
</g>
<!-- Node21 -->
<g id="node17" class="node">
<title>Node21</title>
<g id="a_node17"><a xlink:href="da/df2/classmodules_1_1parse__config_1_1_parse_input_handler_config.html" target="_top" xlink:title=" ">
<polygon fill="white" stroke="#666666" points="265.5,-368 127.5,-368 127.5,-338 265.5,-338 265.5,-368"/>
<text text-anchor="start" x="135.5" y="-356" font-family="Helvetica,sans-Serif" font-size="10.00">modules.parse_config.Parse</text>
<text text-anchor="middle" x="196.5" y="-345" font-family="Helvetica,sans-Serif" font-size="10.00">InputHandlerConfig</text>
</a>
</g>
</g>
<!-- Node0&#45;&gt;Node21 -->
<g id="edge16" class="edge">
<title>Node0&#45;&gt;Node21</title>
<path fill="none" stroke="#63b8ff" d="M43.19,-515.2C50.48,-481.73 69.89,-414 113,-377 117.3,-373.31 122.14,-370.18 127.27,-367.54"/>
<polygon fill="#63b8ff" stroke="#63b8ff" points="39.73,-514.65 41.17,-525.14 46.59,-516.04 39.73,-514.65"/>
</g>
<!-- Node22 -->
<g id="node18" class="node">
<title>Node22</title>
<g id="a_node18"><a xlink:href="dd/dae/classmodules_1_1preferences_1_1_preferences_methods.html" target="_top" xlink:title=" ">
<polygon fill="white" stroke="#666666" points="277,-320 116,-320 116,-290 277,-290 277,-320"/>
<text text-anchor="start" x="124" y="-308" font-family="Helvetica,sans-Serif" font-size="10.00">modules.preferences.Preferences</text>
<text text-anchor="middle" x="196.5" y="-297" font-family="Helvetica,sans-Serif" font-size="10.00">Methods</text>
</a>
</g>
</g>
<!-- Node0&#45;&gt;Node22 -->
<g id="edge17" class="edge">
<title>Node0&#45;&gt;Node22</title>
<path fill="none" stroke="#63b8ff" d="M40.76,-515.09C44.45,-474.18 58.68,-380.17 113,-329 116.58,-325.62 120.61,-322.72 124.92,-320.22"/>
<polygon fill="#63b8ff" stroke="#63b8ff" points="37.27,-514.91 39.98,-525.15 44.25,-515.45 37.27,-514.91"/>
</g>
<!-- Node23 -->
<g id="node19" class="node">
<title>Node23</title>
<g id="a_node19"><a xlink:href="d2/db5/classmodules_1_1settings__tree_1_1_settings_tree_methods.html" target="_top" xlink:title=" ">
<polygon fill="white" stroke="#666666" points="271.5,-272 121.5,-272 121.5,-242 271.5,-242 271.5,-272"/>
<text text-anchor="start" x="129.5" y="-260" font-family="Helvetica,sans-Serif" font-size="10.00">modules.settings_tree.Settings</text>
<text text-anchor="middle" x="196.5" y="-249" font-family="Helvetica,sans-Serif" font-size="10.00">TreeMethods</text>
</a>
</g>
</g>
<!-- Node0&#45;&gt;Node23 -->
<g id="edge18" class="edge">
<title>Node0&#45;&gt;Node23</title>
<path fill="none" stroke="#63b8ff" d="M39.18,-515.17C39.53,-467.76 47.22,-346.87 113,-281 116.37,-277.62 120.19,-274.71 124.29,-272.21"/>
<polygon fill="#63b8ff" stroke="#63b8ff" points="35.68,-515.34 39.21,-525.33 42.68,-515.32 35.68,-515.34"/>
</g>
<!-- Node24 -->
<g id="node20" class="node">
<title>Node24</title>
<g id="a_node20"><a xlink:href="de/d9f/classmodules_1_1settings__tree__table__methods_1_1_settings_tree_table_methods.html" target="_top" xlink:title=" ">
<polygon fill="white" stroke="#666666" points="268,-223.5 125,-223.5 125,-182.5 268,-182.5 268,-223.5"/>
<text text-anchor="start" x="133" y="-211.5" font-family="Helvetica,sans-Serif" font-size="10.00">modules.settings_tree</text>
<text text-anchor="start" x="133" y="-200.5" font-family="Helvetica,sans-Serif" font-size="10.00">_table_methods.SettingsTree</text>
<text text-anchor="middle" x="196.5" y="-189.5" font-family="Helvetica,sans-Serif" font-size="10.00">TableMethods</text>
</a>
</g>
</g>
<!-- Node0&#45;&gt;Node24 -->
<g id="edge19" class="edge">
<title>Node0&#45;&gt;Node24</title>
<path fill="none" stroke="#63b8ff" d="M41.85,-515.35C49.4,-455.29 74.78,-275.67 113,-233 116.46,-229.14 120.45,-225.78 124.78,-222.84"/>
<polygon fill="#63b8ff" stroke="#63b8ff" points="38.36,-515.05 40.62,-525.4 45.31,-515.9 38.36,-515.05"/>
</g>
<!-- Node25 -->
<g id="node21" class="node">
<title>Node25</title>
<g id="a_node21"><a xlink:href="df/def/classuic_1_1command_parameters_dialog_1_1_ui__command_parameters_dialog.html" target="_top" xlink:title=" ">
<polygon fill="white" stroke="#666666" points="273.5,-164 119.5,-164 119.5,-134 273.5,-134 273.5,-164"/>
<text text-anchor="start" x="127.5" y="-152" font-family="Helvetica,sans-Serif" font-size="10.00">uic.commandParametersDialog.</text>
<text text-anchor="middle" x="196.5" y="-141" font-family="Helvetica,sans-Serif" font-size="10.00">Ui_commandParametersDialog</text>
</a>
</g>
</g>
<!-- Node0&#45;&gt;Node25 -->
<g id="edge20" class="edge">
<title>Node0&#45;&gt;Node25</title>
<path fill="none" stroke="#63b8ff" d="M40.89,-514.98C46.02,-446.65 66.09,-223.96 113,-173 116.13,-169.6 119.71,-166.67 123.59,-164.14"/>
<polygon fill="#63b8ff" stroke="#63b8ff" points="37.38,-515.01 40.14,-525.23 44.36,-515.51 37.38,-515.01"/>
</g>
<!-- Node26 -->
<g id="node22" class="node">
<title>Node26</title>
<g id="a_node22"><a xlink:href="d3/d1e/classuic_1_1log_history_dialog_1_1_ui__log_history_dialog.html" target="_top" xlink:title=" ">
<polygon fill="white" stroke="#666666" points="253.5,-116 139.5,-116 139.5,-86 253.5,-86 253.5,-116"/>
<text text-anchor="start" x="147.5" y="-104" font-family="Helvetica,sans-Serif" font-size="10.00">uic.logHistoryDialog.Ui</text>
<text text-anchor="middle" x="196.5" y="-93" font-family="Helvetica,sans-Serif" font-size="10.00">_logHistoryDialog</text>
</a>
</g>
</g>
<!-- Node0&#45;&gt;Node26 -->
<g id="edge21" class="edge">
<title>Node0&#45;&gt;Node26</title>
<path fill="none" stroke="#63b8ff" d="M40.35,-515.26C43.93,-441.58 60.09,-183.82 113,-125 119.98,-117.24 129.32,-111.92 139.19,-108.3"/>
<polygon fill="#63b8ff" stroke="#63b8ff" points="36.85,-515.3 39.88,-525.45 43.84,-515.62 36.85,-515.3"/>
</g>
<!-- Node27 -->
<g id="node23" class="node">
<title>Node27</title>
<g id="a_node23"><a xlink:href="d1/d3a/classuic_1_1main_window_1_1_ui___main_window.html" target="_top" xlink:title=" ">
<polygon fill="white" stroke="#666666" points="276.5,-67.5 116.5,-67.5 116.5,-48.5 276.5,-48.5 276.5,-67.5"/>
<text text-anchor="middle" x="196.5" y="-55.5" font-family="Helvetica,sans-Serif" font-size="10.00">uic.mainWindow.Ui_MainWindow</text>
</a>
</g>
</g>
<!-- Node0&#45;&gt;Node27 -->
<g id="edge22" class="edge">
<title>Node0&#45;&gt;Node27</title>
<path fill="none" stroke="#63b8ff" d="M39.84,-515.44C41.59,-436.43 52.19,-142.04 113,-77 116.51,-73.24 120.61,-70.16 125.06,-67.63"/>
<polygon fill="#63b8ff" stroke="#63b8ff" points="36.33,-515.41 39.63,-525.48 43.33,-515.55 36.33,-515.41"/>
</g>
<!-- Node28 -->
<g id="node24" class="node">
<title>Node28</title>
<g id="a_node24"><a xlink:href="d9/d82/classuic_1_1preferences_dialog_1_1_ui___preferences.html" target="_top" xlink:title=" ">
<polygon fill="white" stroke="#666666" points="257.5,-30 135.5,-30 135.5,0 257.5,0 257.5,-30"/>
<text text-anchor="start" x="143.5" y="-18" font-family="Helvetica,sans-Serif" font-size="10.00">uic.preferencesDialog.Ui</text>
<text text-anchor="middle" x="196.5" y="-7" font-family="Helvetica,sans-Serif" font-size="10.00">_Preferences</text>
</a>
</g>
</g>
<!-- Node0&#45;&gt;Node28 -->
<g id="edge23" class="edge">
<title>Node0&#45;&gt;Node28</title>
<path fill="none" stroke="#63b8ff" d="M39.68,-514.99C40.85,-431.5 49.46,-111.83 113,-39 118.98,-32.14 126.8,-27.19 135.23,-23.63"/>
<polygon fill="#63b8ff" stroke="#63b8ff" points="36.18,-515.12 39.56,-525.16 43.18,-515.2 36.18,-515.12"/>
</g>
<!-- Node8 -->
<g id="node25" class="node">
<title>Node8</title>
<g id="a_node25"><a xlink:title=" ">
<polygon fill="#e0e0e0" stroke="#999999" points="65,-1126.5 12,-1126.5 12,-1107.5 65,-1107.5 65,-1126.5"/>
<text text-anchor="middle" x="38.5" y="-1114.5" font-family="Helvetica,sans-Serif" font-size="10.00">cliConfig</text>
</a>
</g>
</g>
<!-- Node8&#45;&gt;Node7 -->
<g id="edge24" class="edge">
<title>Node8&#45;&gt;Node7</title>
<path fill="none" stroke="#63b8ff" d="M68.89,-1103.06C95.9,-1090.25 135.83,-1071.3 163.6,-1058.13"/>
<polygon fill="#63b8ff" stroke="#63b8ff" points="67.11,-1100.03 59.57,-1107.48 70.11,-1106.35 67.11,-1100.03"/>
</g>
<!-- Node9 -->
<g id="node26" class="node">
<title>Node9</title>
<g id="a_node26"><a xlink:title=" ">
<polygon fill="#e0e0e0" stroke="#999999" points="73,-1089.5 4,-1089.5 4,-1070.5 73,-1070.5 73,-1089.5"/>
<text text-anchor="middle" x="38.5" y="-1077.5" font-family="Helvetica,sans-Serif" font-size="10.00">cliFunctions</text>
</a>
</g>
</g>
<!-- Node9&#45;&gt;Node7 -->
<g id="edge25" class="edge">
<title>Node9&#45;&gt;Node7</title>
<path fill="none" stroke="#63b8ff" d="M83.44,-1069.58C98.56,-1065.99 115.81,-1061.9 132.16,-1058.02"/>
<polygon fill="#63b8ff" stroke="#63b8ff" points="82.27,-1066.26 73.35,-1071.97 83.89,-1073.07 82.27,-1066.26"/>
</g>
<!-- Node10 -->
<g id="node27" class="node">
<title>Node10</title>
<g id="a_node27"><a xlink:title=" ">
<polygon fill="#e0e0e0" stroke="#999999" points="77,-1052.5 0,-1052.5 0,-1033.5 77,-1033.5 77,-1052.5"/>
<text text-anchor="middle" x="38.5" y="-1040.5" font-family="Helvetica,sans-Serif" font-size="10.00">cliParameters</text>
</a>
</g>
</g>
<!-- Node10&#45;&gt;Node7 -->
<g id="edge26" class="edge">
<title>Node10&#45;&gt;Node7</title>
<path fill="none" stroke="#63b8ff" d="M87.32,-1043C99.66,-1043 113.19,-1043 126.38,-1043"/>
<polygon fill="#63b8ff" stroke="#63b8ff" points="87.26,-1039.5 77.26,-1043 87.26,-1046.5 87.26,-1039.5"/>
</g>
<!-- Node11 -->
<g id="node28" class="node">
<title>Node11</title>
<g id="a_node28"><a xlink:title=" ">
<polygon fill="#e0e0e0" stroke="#999999" points="69.5,-1015.5 7.5,-1015.5 7.5,-996.5 69.5,-996.5 69.5,-1015.5"/>
<text text-anchor="middle" x="38.5" y="-1003.5" font-family="Helvetica,sans-Serif" font-size="10.00">cliReadme</text>
</a>
</g>
</g>
<!-- Node11&#45;&gt;Node7 -->
<g id="edge27" class="edge">
<title>Node11&#45;&gt;Node7</title>
<path fill="none" stroke="#63b8ff" d="M79.6,-1015.51C95.53,-1019.29 114.25,-1023.73 131.94,-1027.92"/>
<polygon fill="#63b8ff" stroke="#63b8ff" points="80.12,-1012.04 69.58,-1013.13 78.5,-1018.85 80.12,-1012.04"/>
</g>
<!-- Node12 -->
<g id="node29" class="node">
<title>Node12</title>
<g id="a_node29"><a xlink:title=" ">
<polygon fill="#e0e0e0" stroke="#999999" points="64.5,-978.5 12.5,-978.5 12.5,-959.5 64.5,-959.5 64.5,-978.5"/>
<text text-anchor="middle" x="38.5" y="-966.5" font-family="Helvetica,sans-Serif" font-size="10.00">cliSetup</text>
</a>
</g>
</g>
<!-- Node12&#45;&gt;Node7 -->
<g id="edge28" class="edge">
<title>Node12&#45;&gt;Node7</title>
<path fill="none" stroke="#63b8ff" d="M71.19,-983.41C73.19,-984.57 75.14,-985.76 77,-987 94.82,-998.86 94.26,-1008.65 113,-1019 119.14,-1022.39 125.8,-1025.35 132.59,-1027.91"/>
<polygon fill="#63b8ff" stroke="#63b8ff" points="72.74,-980.27 62.27,-978.67 69.46,-986.46 72.74,-980.27"/>
</g>
</g>
</svg>
