<?xml version="1.0" encoding="UTF-8" standalone="no"?>
<!DOCTYPE svg PUBLIC "-//W3C//DTD SVG 1.1//EN"
 "http://www.w3.org/Graphics/SVG/1.1/DTD/svg11.dtd">
<!-- Generated by graphviz version 3.0.0 (20220413.0106)
 -->
<!-- Title: examples/all_platforms/advanced/MultiFile/MultiFile.ino Pages: 1 -->
<svg width="272pt" height="274pt"
 viewBox="0.00 0.00 272.00 274.00" xmlns="http://www.w3.org/2000/svg" xmlns:xlink="http://www.w3.org/1999/xlink">
<g id="graph0" class="graph" transform="scale(1 1) rotate(0) translate(4 270)">
<title>examples/all_platforms/advanced/MultiFile/MultiFile.ino</title>
<!-- Node1 -->
<g id="node1" class="node">
<title>Node1</title>
<g id="a_node1"><a xlink:title="An example that demonstrates multiple file setup.">
<polygon fill="#bfbfbf" stroke="black" points="62.5,-235.5 62.5,-265.5 218.5,-265.5 218.5,-235.5 62.5,-235.5"/>
<text text-anchor="start" x="70.5" y="-253.5" font-family="Helvetica,sans-Serif" font-size="10.00">examples/all_platforms</text>
<text text-anchor="middle" x="140.5" y="-242.5" font-family="Helvetica,sans-Serif" font-size="10.00">/advanced/MultiFile/MultiFile.ino</text>
</a>
</g>
</g>
<!-- Node2 -->
<g id="node2" class="node">
<title>Node2</title>
<g id="a_node2"><a xlink:href="../../d0/dd9/cli__setup_8h.html" target="_top" xlink:title="setup example for MultiFile.ino">
<polygon fill="none" stroke="black" points="99.5,-179.5 99.5,-198.5 181.5,-198.5 181.5,-179.5 99.5,-179.5"/>
<text text-anchor="middle" x="140.5" y="-186.5" font-family="Helvetica,sans-Serif" font-size="10.00">CLI/cli_setup.h</text>
</a>
</g>
</g>
<!-- Node1&#45;&gt;Node2 -->
<g id="edge1" class="edge">
<title>Node1&#45;&gt;Node2</title>
<path fill="none" stroke="midnightblue" d="M140.5,-235.4C140.5,-227.47 140.5,-217.46 140.5,-208.86"/>
<polygon fill="midnightblue" stroke="midnightblue" points="144,-208.66 140.5,-198.66 137,-208.66 144,-208.66"/>
</g>
<!-- Node3 -->
<g id="node3" class="node">
<title>Node3</title>
<g id="a_node3"><a xlink:href="../../df/dec/_input_handler_8h.html" target="_top" xlink:title="InputHandler library header file.">
<polygon fill="none" stroke="black" points="10.5,-123.5 10.5,-142.5 90.5,-142.5 90.5,-123.5 10.5,-123.5"/>
<text text-anchor="middle" x="50.5" y="-130.5" font-family="Helvetica,sans-Serif" font-size="10.00">InputHandler.h</text>
</a>
</g>
</g>
<!-- Node2&#45;&gt;Node3 -->
<g id="edge2" class="edge">
<title>Node2&#45;&gt;Node3</title>
<path fill="none" stroke="midnightblue" d="M126.04,-179.32C112,-170.9 90.45,-157.97 73.96,-148.07"/>
<polygon fill="midnightblue" stroke="midnightblue" points="75.3,-144.8 64.92,-142.65 71.7,-150.8 75.3,-144.8"/>
</g>
<!-- Node6 -->
<g id="node6" class="node">
<title>Node6</title>
<g id="a_node6"><a xlink:href="../../d8/d5c/functions_8h.html" target="_top" xlink:title="Functions for MultiFile.ino.">
<polygon fill="none" stroke="black" points="108.5,-123.5 108.5,-142.5 172.5,-142.5 172.5,-123.5 108.5,-123.5"/>
<text text-anchor="middle" x="140.5" y="-130.5" font-family="Helvetica,sans-Serif" font-size="10.00">functions.h</text>
</a>
</g>
</g>
<!-- Node2&#45;&gt;Node6 -->
<g id="edge5" class="edge">
<title>Node2&#45;&gt;Node6</title>
<path fill="none" stroke="midnightblue" d="M135.33,-179.08C133.82,-171.93 133.39,-161.64 134.04,-152.69"/>
<polygon fill="midnightblue" stroke="midnightblue" points="137.52,-153.13 135.37,-142.75 130.58,-152.2 137.52,-153.13"/>
</g>
<!-- Node7 -->
<g id="node7" class="node">
<title>Node7</title>
<g id="a_node7"><a xlink:href="../../d6/d3b/parameters_8h.html" target="_top" xlink:title="Parameters and CommandConstructor objects for MultiFile.ino.">
<polygon fill="none" stroke="black" points="191,-123.5 191,-142.5 264,-142.5 264,-123.5 191,-123.5"/>
<text text-anchor="middle" x="227.5" y="-130.5" font-family="Helvetica,sans-Serif" font-size="10.00">parameters.h</text>
</a>
</g>
</g>
<!-- Node2&#45;&gt;Node7 -->
<g id="edge7" class="edge">
<title>Node2&#45;&gt;Node7</title>
<path fill="none" stroke="midnightblue" d="M149.36,-179.32C161.22,-170.82 182.03,-157.73 199.3,-147.8"/>
<polygon fill="midnightblue" stroke="midnightblue" points="201.44,-150.61 208.45,-142.65 198.01,-144.5 201.44,-150.61"/>
</g>
<!-- Node4 -->
<g id="node4" class="node">
<title>Node4</title>
<g id="a_node4"><a xlink:href="../../dd/d4e/_input_handler__config_8h.html" target="_top" xlink:title="InputHandler library configuration file.">
<polygon fill="none" stroke="black" points="0,-56.5 0,-86.5 101,-86.5 101,-56.5 0,-56.5"/>
<text text-anchor="start" x="8" y="-74.5" font-family="Helvetica,sans-Serif" font-size="10.00">config/InputHandler</text>
<text text-anchor="middle" x="50.5" y="-63.5" font-family="Helvetica,sans-Serif" font-size="10.00">_config.h</text>
</a>
</g>
</g>
<!-- Node3&#45;&gt;Node4 -->
<g id="edge3" class="edge">
<title>Node3&#45;&gt;Node4</title>
<path fill="none" stroke="midnightblue" d="M50.5,-123.48C50.5,-116.47 50.5,-106.19 50.5,-96.7"/>
<polygon fill="midnightblue" stroke="midnightblue" points="54,-96.52 50.5,-86.52 47,-96.52 54,-96.52"/>
</g>
<!-- Node5 -->
<g id="node5" class="node">
<title>Node5</title>
<g id="a_node5"><a xlink:title=" ">
<polygon fill="none" stroke="#bfbfbf" points="22,-0.5 22,-19.5 79,-19.5 79,-0.5 22,-0.5"/>
<text text-anchor="middle" x="50.5" y="-7.5" font-family="Helvetica,sans-Serif" font-size="10.00">Arduino.h</text>
</a>
</g>
</g>
<!-- Node4&#45;&gt;Node5 -->
<g id="edge4" class="edge">
<title>Node4&#45;&gt;Node5</title>
<path fill="none" stroke="midnightblue" d="M50.5,-56.4C50.5,-48.47 50.5,-38.46 50.5,-29.86"/>
<polygon fill="midnightblue" stroke="midnightblue" points="54,-29.66 50.5,-19.66 47,-29.66 54,-29.66"/>
</g>
<!-- Node6&#45;&gt;Node2 -->
<g id="edge6" class="edge">
<title>Node6&#45;&gt;Node2</title>
<path fill="none" stroke="midnightblue" d="M145.63,-142.75C147.16,-149.86 147.6,-160.14 146.97,-169.1"/>
<polygon fill="midnightblue" stroke="midnightblue" points="143.49,-168.71 145.67,-179.08 150.43,-169.62 143.49,-168.71"/>
</g>
<!-- Node7&#45;&gt;Node2 -->
<g id="edge8" class="edge">
<title>Node7&#45;&gt;Node2</title>
<path fill="none" stroke="midnightblue" d="M218.42,-142.83C206.52,-151.34 185.86,-164.34 168.69,-174.21"/>
<polygon fill="midnightblue" stroke="midnightblue" points="166.6,-171.37 159.59,-179.32 170.03,-177.47 166.6,-171.37"/>
</g>
</g>
</svg>
