<?xml version="1.0" encoding="UTF-8" standalone="no"?>
<!DOCTYPE svg PUBLIC "-//W3C//DTD SVG 1.1//EN"
 "http://www.w3.org/Graphics/SVG/1.1/DTD/svg11.dtd">
<!-- Generated by graphviz version 5.0.1 (20220820.1526)
 -->
<!-- Title: examples/all_platforms/advanced/MultiFile/MultiFile.ino Pages: 1 -->
<svg width="286pt" height="258pt"
 viewBox="0.00 0.00 286.00 258.00" xmlns="http://www.w3.org/2000/svg" xmlns:xlink="http://www.w3.org/1999/xlink">
<g id="graph0" class="graph" transform="scale(1 1) rotate(0) translate(4 254)">
<title>examples/all_platforms/advanced/MultiFile/MultiFile.ino</title>
<!-- Node1 -->
<g id="node1" class="node">
<title>Node1</title>
<g id="a_node1"><a xlink:title="An example that demonstrates multiple file setup.">
<polygon fill="#999999" stroke="#666666" points="232.5,-250 76.5,-250 76.5,-220 232.5,-220 232.5,-250"/>
<text text-anchor="start" x="84.5" y="-238" font-family="Helvetica,sans-Serif" font-size="10.00">examples/all_platforms</text>
<text text-anchor="middle" x="154.5" y="-227" font-family="Helvetica,sans-Serif" font-size="10.00">/advanced/MultiFile/MultiFile.ino</text>
</a>
</g>
</g>
<!-- Node2 -->
<g id="node2" class="node">
<title>Node2</title>
<g id="a_node2"><a xlink:href="../../d0/dd9/cli__setup_8h.html" target="_top" xlink:title="setup example for MultiFile.ino">
<polygon fill="white" stroke="#666666" points="195.5,-184 113.5,-184 113.5,-165 195.5,-165 195.5,-184"/>
<text text-anchor="middle" x="154.5" y="-172" font-family="Helvetica,sans-Serif" font-size="10.00">CLI/cli_setup.h</text>
</a>
</g>
</g>
<!-- Node1&#45;&gt;Node2 -->
<g id="edge1" class="edge">
<title>Node1&#45;&gt;Node2</title>
<path fill="none" stroke="#63b8ff" d="M154.5,-219.84C154.5,-212.21 154.5,-202.7 154.5,-194.45"/>
<polygon fill="#63b8ff" stroke="#63b8ff" points="158,-194.27 154.5,-184.27 151,-194.27 158,-194.27"/>
</g>
<!-- Node3 -->
<g id="node3" class="node">
<title>Node3</title>
<g id="a_node3"><a xlink:href="../../df/dec/_input_handler_8h.html" target="_top" xlink:title="InputHandler library header file.">
<polygon fill="white" stroke="#666666" points="104.5,-129 24.5,-129 24.5,-110 104.5,-110 104.5,-129"/>
<text text-anchor="middle" x="64.5" y="-117" font-family="Helvetica,sans-Serif" font-size="10.00">InputHandler.h</text>
</a>
</g>
</g>
<!-- Node2&#45;&gt;Node3 -->
<g id="edge2" class="edge">
<title>Node2&#45;&gt;Node3</title>
<path fill="none" stroke="#63b8ff" d="M140.04,-164.98C126.08,-156.77 104.71,-144.18 88.25,-134.49"/>
<polygon fill="#63b8ff" stroke="#63b8ff" points="89.62,-131.23 79.22,-129.17 86.06,-137.26 89.62,-131.23"/>
</g>
<!-- Node7 -->
<g id="node7" class="node">
<title>Node7</title>
<g id="a_node7"><a xlink:href="../../d8/d5c/functions_8h.html" target="_top" xlink:title="Functions for MultiFile.ino.">
<polygon fill="white" stroke="#666666" points="186.5,-129 122.5,-129 122.5,-110 186.5,-110 186.5,-129"/>
<text text-anchor="middle" x="154.5" y="-117" font-family="Helvetica,sans-Serif" font-size="10.00">functions.h</text>
</a>
</g>
</g>
<!-- Node2&#45;&gt;Node7 -->
<g id="edge6" class="edge">
<title>Node2&#45;&gt;Node7</title>
<path fill="none" stroke="#63b8ff" d="M149.33,-164.75C147.84,-157.8 147.4,-147.85 148.02,-139.13"/>
<polygon fill="#63b8ff" stroke="#63b8ff" points="151.51,-139.47 149.37,-129.09 144.57,-138.53 151.51,-139.47"/>
</g>
<!-- Node8 -->
<g id="node8" class="node">
<title>Node8</title>
<g id="a_node8"><a xlink:href="../../d6/d3b/parameters_8h.html" target="_top" xlink:title="Parameters and CommandConstructor objects for MultiFile.ino.">
<polygon fill="white" stroke="#666666" points="278,-129 205,-129 205,-110 278,-110 278,-129"/>
<text text-anchor="middle" x="241.5" y="-117" font-family="Helvetica,sans-Serif" font-size="10.00">parameters.h</text>
</a>
</g>
</g>
<!-- Node2&#45;&gt;Node8 -->
<g id="edge8" class="edge">
<title>Node2&#45;&gt;Node8</title>
<path fill="none" stroke="#63b8ff" d="M163.36,-164.98C175.15,-156.69 195.78,-143.94 212.99,-134.22"/>
<polygon fill="#63b8ff" stroke="#63b8ff" points="215.06,-137.07 222.12,-129.17 211.67,-130.94 215.06,-137.07"/>
</g>
<!-- Node4 -->
<g id="node4" class="node">
<title>Node4</title>
<g id="a_node4"><a xlink:href="../../da/dc7/noedit_8h.html" target="_top" xlink:title="InputHandler library C includes, do not edit.">
<polygon fill="white" stroke="#666666" points="104,-74 25,-74 25,-55 104,-55 104,-74"/>
<text text-anchor="middle" x="64.5" y="-62" font-family="Helvetica,sans-Serif" font-size="10.00">config/noedit.h</text>
</a>
</g>
</g>
<!-- Node3&#45;&gt;Node4 -->
<g id="edge3" class="edge">
<title>Node3&#45;&gt;Node4</title>
<path fill="none" stroke="#63b8ff" d="M64.5,-109.75C64.5,-102.8 64.5,-92.85 64.5,-84.13"/>
<polygon fill="#63b8ff" stroke="#63b8ff" points="68,-84.09 64.5,-74.09 61,-84.09 68,-84.09"/>
</g>
<!-- Node5 -->
<g id="node5" class="node">
<title>Node5</title>
<g id="a_node5"><a xlink:title=" ">
<polygon fill="#e0e0e0" stroke="#999999" points="57,-19 0,-19 0,0 57,0 57,-19"/>
<text text-anchor="middle" x="28.5" y="-7" font-family="Helvetica,sans-Serif" font-size="10.00">Arduino.h</text>
</a>
</g>
</g>
<!-- Node4&#45;&gt;Node5 -->
<g id="edge4" class="edge">
<title>Node4&#45;&gt;Node5</title>
<path fill="none" stroke="#63b8ff" d="M58.56,-54.75C53.52,-47.34 46.16,-36.5 39.99,-27.41"/>
<polygon fill="#63b8ff" stroke="#63b8ff" points="42.85,-25.39 34.33,-19.09 37.06,-29.33 42.85,-25.39"/>
</g>
<!-- Node6 -->
<g id="node6" class="node">
<title>Node6</title>
<g id="a_node6"><a xlink:href="../../db/d16/config_8h.html" target="_top" xlink:title="InputHandler library user configurable items.">
<polygon fill="white" stroke="#666666" points="125.5,-19 75.5,-19 75.5,0 125.5,0 125.5,-19"/>
<text text-anchor="middle" x="100.5" y="-7" font-family="Helvetica,sans-Serif" font-size="10.00">config.h</text>
</a>
</g>
</g>
<!-- Node4&#45;&gt;Node6 -->
<g id="edge5" class="edge">
<title>Node4&#45;&gt;Node6</title>
<path fill="none" stroke="#63b8ff" d="M70.44,-54.75C75.48,-47.34 82.84,-36.5 89.01,-27.41"/>
<polygon fill="#63b8ff" stroke="#63b8ff" points="91.94,-29.33 94.67,-19.09 86.15,-25.39 91.94,-29.33"/>
</g>
<!-- Node7&#45;&gt;Node2 -->
<g id="edge7" class="edge">
<title>Node7&#45;&gt;Node2</title>
<path fill="none" stroke="#63b8ff" d="M159.63,-129.09C161.14,-135.99 161.59,-145.93 160.99,-154.66"/>
<polygon fill="#63b8ff" stroke="#63b8ff" points="157.5,-154.38 159.67,-164.75 164.44,-155.29 157.5,-154.38"/>
</g>
<!-- Node8&#45;&gt;Node2 -->
<g id="edge9" class="edge">
<title>Node8&#45;&gt;Node2</title>
<path fill="none" stroke="#63b8ff" d="M232.42,-129.17C220.52,-137.52 199.86,-150.28 182.69,-159.97"/>
<polygon fill="#63b8ff" stroke="#63b8ff" points="180.66,-157.09 173.59,-164.98 184.04,-163.22 180.66,-157.09"/>
</g>
</g>
</svg>
