<?xml version="1.0" encoding="UTF-8" standalone="no"?>
<!DOCTYPE svg PUBLIC "-//W3C//DTD SVG 1.1//EN"
 "http://www.w3.org/Graphics/SVG/1.1/DTD/svg11.dtd">
<!-- Generated by graphviz version 3.0.0 (20220413.0106)
 -->
<!-- Title: examples/all_platforms/advanced/MultiFile/CLI/cli_setup.h Pages: 1 -->
<svg width="336pt" height="218pt"
 viewBox="0.00 0.00 336.00 218.00" xmlns="http://www.w3.org/2000/svg" xmlns:xlink="http://www.w3.org/1999/xlink">
<g id="graph0" class="graph" transform="scale(1 1) rotate(0) translate(4 214)">
<title>examples/all_platforms/advanced/MultiFile/CLI/cli_setup.h</title>
<!-- Node1 -->
<g id="node1" class="node">
<title>Node1</title>
<g id="a_node1"><a xlink:title="setup example for MultiFile.ino">
<polygon fill="#bfbfbf" stroke="black" points="144.5,-168.5 144.5,-209.5 264.5,-209.5 264.5,-168.5 144.5,-168.5"/>
<text text-anchor="start" x="152.5" y="-197.5" font-family="Helvetica,sans-Serif" font-size="10.00">examples/all_platforms</text>
<text text-anchor="start" x="152.5" y="-186.5" font-family="Helvetica,sans-Serif" font-size="10.00">/advanced/MultiFile/CLI</text>
<text text-anchor="middle" x="204.5" y="-175.5" font-family="Helvetica,sans-Serif" font-size="10.00">/cli_setup.h</text>
</a>
</g>
</g>
<!-- Node2 -->
<g id="node2" class="node">
<title>Node2</title>
<g id="a_node2"><a xlink:href="../../df/dec/_input_handler_8h.html" target="_top" xlink:title="InputHandler library header file.">
<polygon fill="none" stroke="black" points="74.5,-112.5 74.5,-131.5 154.5,-131.5 154.5,-112.5 74.5,-112.5"/>
<text text-anchor="middle" x="114.5" y="-119.5" font-family="Helvetica,sans-Serif" font-size="10.00">InputHandler.h</text>
</a>
</g>
</g>
<!-- Node1&#45;&gt;Node2 -->
<g id="edge1" class="edge">
<title>Node1&#45;&gt;Node2</title>
<path fill="none" stroke="midnightblue" d="M177.5,-168.5C163.83,-158.63 147.51,-146.84 134.91,-137.74"/>
<polygon fill="midnightblue" stroke="midnightblue" points="136.64,-134.67 126.48,-131.65 132.54,-140.34 136.64,-134.67"/>
</g>
<!-- Node7 -->
<g id="node7" class="node">
<title>Node7</title>
<g id="a_node7"><a xlink:href="../../d8/d5c/functions_8h.html" target="_top" xlink:title="Functions for MultiFile.ino.">
<polygon fill="none" stroke="black" points="172.5,-112.5 172.5,-131.5 236.5,-131.5 236.5,-112.5 172.5,-112.5"/>
<text text-anchor="middle" x="204.5" y="-119.5" font-family="Helvetica,sans-Serif" font-size="10.00">functions.h</text>
</a>
</g>
</g>
<!-- Node1&#45;&gt;Node7 -->
<g id="edge6" class="edge">
<title>Node1&#45;&gt;Node7</title>
<path fill="none" stroke="midnightblue" d="M198.25,-168.5C197.56,-159.97 197.58,-150.01 198.33,-141.59"/>
<polygon fill="midnightblue" stroke="midnightblue" points="201.8,-142.04 199.74,-131.65 194.87,-141.06 201.8,-142.04"/>
</g>
<!-- Node8 -->
<g id="node8" class="node">
<title>Node8</title>
<g id="a_node8"><a xlink:href="../../d6/d3b/parameters_8h.html" target="_top" xlink:title="Parameters and CommandConstructor objects for MultiFile.ino.">
<polygon fill="none" stroke="black" points="255,-112.5 255,-131.5 328,-131.5 328,-112.5 255,-112.5"/>
<text text-anchor="middle" x="291.5" y="-119.5" font-family="Helvetica,sans-Serif" font-size="10.00">parameters.h</text>
</a>
</g>
</g>
<!-- Node1&#45;&gt;Node8 -->
<g id="edge8" class="edge">
<title>Node1&#45;&gt;Node8</title>
<path fill="none" stroke="midnightblue" d="M224.36,-168.5C237,-158.44 253.32,-146.38 266.78,-137.21"/>
<polygon fill="midnightblue" stroke="midnightblue" points="268.76,-140.1 275.15,-131.65 264.89,-134.27 268.76,-140.1"/>
</g>
<!-- Node3 -->
<g id="node3" class="node">
<title>Node3</title>
<g id="a_node3"><a xlink:href="../../da/dc7/noedit_8h.html" target="_top" xlink:title="InputHandler library C includes, do not edit.">
<polygon fill="none" stroke="black" points="75,-56.5 75,-75.5 154,-75.5 154,-56.5 75,-56.5"/>
<text text-anchor="middle" x="114.5" y="-63.5" font-family="Helvetica,sans-Serif" font-size="10.00">config/noedit.h</text>
</a>
</g>
</g>
<!-- Node2&#45;&gt;Node3 -->
<g id="edge2" class="edge">
<title>Node2&#45;&gt;Node3</title>
<path fill="none" stroke="midnightblue" d="M114.5,-112.08C114.5,-105.01 114.5,-94.86 114.5,-85.99"/>
<polygon fill="midnightblue" stroke="midnightblue" points="118,-85.75 114.5,-75.75 111,-85.75 118,-85.75"/>
</g>
<!-- Node4 -->
<g id="node4" class="node">
<title>Node4</title>
<g id="a_node4"><a xlink:title=" ">
<polygon fill="none" stroke="#bfbfbf" points="0,-0.5 0,-19.5 57,-19.5 57,-0.5 0,-0.5"/>
<text text-anchor="middle" x="28.5" y="-7.5" font-family="Helvetica,sans-Serif" font-size="10.00">Arduino.h</text>
</a>
</g>
</g>
<!-- Node3&#45;&gt;Node4 -->
<g id="edge3" class="edge">
<title>Node3&#45;&gt;Node4</title>
<path fill="none" stroke="midnightblue" d="M100.68,-56.32C87.27,-47.9 66.68,-34.97 50.91,-25.07"/>
<polygon fill="midnightblue" stroke="midnightblue" points="52.61,-22.01 42.28,-19.65 48.89,-27.94 52.61,-22.01"/>
</g>
<!-- Node5 -->
<g id="node5" class="node">
<title>Node5</title>
<g id="a_node5"><a xlink:href="../../db/d16/config_8h.html" target="_top" xlink:title="InputHandler library user configurable items.">
<polygon fill="none" stroke="black" points="75.5,-0.5 75.5,-19.5 153.5,-19.5 153.5,-0.5 75.5,-0.5"/>
<text text-anchor="middle" x="114.5" y="-7.5" font-family="Helvetica,sans-Serif" font-size="10.00">config/config.h</text>
</a>
</g>
</g>
<!-- Node3&#45;&gt;Node5 -->
<g id="edge4" class="edge">
<title>Node3&#45;&gt;Node5</title>
<path fill="none" stroke="midnightblue" d="M114.5,-56.08C114.5,-49.01 114.5,-38.86 114.5,-29.99"/>
<polygon fill="midnightblue" stroke="midnightblue" points="118,-29.75 114.5,-19.75 111,-29.75 118,-29.75"/>
</g>
<!-- Node6 -->
<g id="node6" class="node">
<title>Node6</title>
<g id="a_node6"><a xlink:href="../../d5/d4a/advanced__config_8h.html" target="_top" xlink:title="InputHandler library advanced user settings.">
<polygon fill="none" stroke="black" points="172,-0.5 172,-19.5 297,-19.5 297,-0.5 172,-0.5"/>
<text text-anchor="middle" x="234.5" y="-7.5" font-family="Helvetica,sans-Serif" font-size="10.00">config/advanced_config.h</text>
</a>
</g>
</g>
<!-- Node3&#45;&gt;Node6 -->
<g id="edge5" class="edge">
<title>Node3&#45;&gt;Node6</title>
<path fill="none" stroke="midnightblue" d="M133.51,-56.44C153.09,-47.64 183.81,-33.81 206.23,-23.72"/>
<polygon fill="midnightblue" stroke="midnightblue" points="207.89,-26.81 215.57,-19.52 205.02,-20.43 207.89,-26.81"/>
</g>
<!-- Node7&#45;&gt;Node1 -->
<g id="edge7" class="edge">
<title>Node7&#45;&gt;Node1</title>
<path fill="none" stroke="midnightblue" d="M209.26,-131.65C210.73,-138.52 211.38,-148.56 211.23,-158.26"/>
<polygon fill="midnightblue" stroke="midnightblue" points="207.72,-158.34 210.75,-168.5 214.71,-158.67 207.72,-158.34"/>
</g>
<!-- Node8&#45;&gt;Node1 -->
<g id="edge9" class="edge">
<title>Node8&#45;&gt;Node1</title>
<path fill="none" stroke="midnightblue" d="M284.68,-131.65C275.8,-139.55 260.25,-151.62 245.15,-162.57"/>
<polygon fill="midnightblue" stroke="midnightblue" points="242.95,-159.84 236.85,-168.5 247.02,-165.53 242.95,-159.84"/>
</g>
</g>
</svg>
