<?xml version="1.0" encoding="UTF-8" standalone="no"?>
<!DOCTYPE svg PUBLIC "-//W3C//DTD SVG 1.1//EN"
 "http://www.w3.org/Graphics/SVG/1.1/DTD/svg11.dtd">
<!-- Generated by graphviz version 5.0.0 (20220708.1001)
 -->
<!-- Title: examples/all_platforms/advanced/MultiFile/CLI/cli_setup.h Pages: 1 -->
<svg width="286pt" height="218pt"
 viewBox="0.00 0.00 286.00 218.00" xmlns="http://www.w3.org/2000/svg" xmlns:xlink="http://www.w3.org/1999/xlink">
<g id="graph0" class="graph" transform="scale(1 1) rotate(0) translate(4 214)">
<title>examples/all_platforms/advanced/MultiFile/CLI/cli_setup.h</title>
<!-- Node1 -->
<g id="node1" class="node">
<title>Node1</title>
<g id="a_node1"><a xlink:title="setup example for MultiFile.ino">
<polygon fill="#bfbfbf" stroke="black" points="94.5,-168.5 94.5,-209.5 214.5,-209.5 214.5,-168.5 94.5,-168.5"/>
<text text-anchor="start" x="102.5" y="-197.5" font-family="Helvetica,sans-Serif" font-size="10.00">examples/all_platforms</text>
<text text-anchor="start" x="102.5" y="-186.5" font-family="Helvetica,sans-Serif" font-size="10.00">/advanced/MultiFile/CLI</text>
<text text-anchor="middle" x="154.5" y="-175.5" font-family="Helvetica,sans-Serif" font-size="10.00">/cli_setup.h</text>
</a>
</g>
</g>
<!-- Node2 -->
<g id="node2" class="node">
<title>Node2</title>
<g id="a_node2"><a xlink:href="../../df/dec/_input_handler_8h.html" target="_top" xlink:title="InputHandler library header file.">
<polygon fill="none" stroke="black" points="24.5,-112.5 24.5,-131.5 104.5,-131.5 104.5,-112.5 24.5,-112.5"/>
<text text-anchor="middle" x="64.5" y="-119.5" font-family="Helvetica,sans-Serif" font-size="10.00">InputHandler.h</text>
</a>
</g>
</g>
<!-- Node1&#45;&gt;Node2 -->
<g id="edge1" class="edge">
<title>Node1&#45;&gt;Node2</title>
<path fill="none" stroke="midnightblue" d="M127.5,-168.5C113.83,-158.63 97.51,-146.84 84.91,-137.74"/>
<polygon fill="midnightblue" stroke="midnightblue" points="86.64,-134.67 76.48,-131.65 82.54,-140.34 86.64,-134.67"/>
</g>
<!-- Node6 -->
<g id="node6" class="node">
<title>Node6</title>
<g id="a_node6"><a xlink:href="../../d8/d5c/functions_8h.html" target="_top" xlink:title="Functions for MultiFile.ino.">
<polygon fill="none" stroke="black" points="122.5,-112.5 122.5,-131.5 186.5,-131.5 186.5,-112.5 122.5,-112.5"/>
<text text-anchor="middle" x="154.5" y="-119.5" font-family="Helvetica,sans-Serif" font-size="10.00">functions.h</text>
</a>
</g>
</g>
<!-- Node1&#45;&gt;Node6 -->
<g id="edge5" class="edge">
<title>Node1&#45;&gt;Node6</title>
<path fill="none" stroke="midnightblue" d="M148.25,-168.5C147.56,-159.97 147.58,-150.01 148.33,-141.59"/>
<polygon fill="midnightblue" stroke="midnightblue" points="151.8,-142.04 149.74,-131.65 144.87,-141.06 151.8,-142.04"/>
</g>
<!-- Node7 -->
<g id="node7" class="node">
<title>Node7</title>
<g id="a_node7"><a xlink:href="../../d6/d3b/parameters_8h.html" target="_top" xlink:title="Parameters and CommandConstructor objects for MultiFile.ino.">
<polygon fill="none" stroke="black" points="205,-112.5 205,-131.5 278,-131.5 278,-112.5 205,-112.5"/>
<text text-anchor="middle" x="241.5" y="-119.5" font-family="Helvetica,sans-Serif" font-size="10.00">parameters.h</text>
</a>
</g>
</g>
<!-- Node1&#45;&gt;Node7 -->
<g id="edge7" class="edge">
<title>Node1&#45;&gt;Node7</title>
<path fill="none" stroke="midnightblue" d="M174.36,-168.5C187,-158.44 203.32,-146.38 216.78,-137.21"/>
<polygon fill="midnightblue" stroke="midnightblue" points="218.76,-140.1 225.15,-131.65 214.89,-134.27 218.76,-140.1"/>
</g>
<!-- Node3 -->
<g id="node3" class="node">
<title>Node3</title>
<g id="a_node3"><a xlink:href="../../da/dc7/noedit_8h.html" target="_top" xlink:title="InputHandler library C includes, do not edit.">
<polygon fill="none" stroke="black" points="25,-56.5 25,-75.5 104,-75.5 104,-56.5 25,-56.5"/>
<text text-anchor="middle" x="64.5" y="-63.5" font-family="Helvetica,sans-Serif" font-size="10.00">config/noedit.h</text>
</a>
</g>
</g>
<!-- Node2&#45;&gt;Node3 -->
<g id="edge2" class="edge">
<title>Node2&#45;&gt;Node3</title>
<path fill="none" stroke="midnightblue" d="M64.5,-112.08C64.5,-105.01 64.5,-94.86 64.5,-85.99"/>
<polygon fill="midnightblue" stroke="midnightblue" points="68,-85.75 64.5,-75.75 61,-85.75 68,-85.75"/>
</g>
<!-- Node4 -->
<g id="node4" class="node">
<title>Node4</title>
<g id="a_node4"><a xlink:title=" ">
<polygon fill="none" stroke="#bfbfbf" points="0,-0.5 0,-19.5 57,-19.5 57,-0.5 0,-0.5"/>
<text text-anchor="middle" x="28.5" y="-7.5" font-family="Helvetica,sans-Serif" font-size="10.00">Arduino.h</text>
</a>
</g>
</g>
<!-- Node3&#45;&gt;Node4 -->
<g id="edge3" class="edge">
<title>Node3&#45;&gt;Node4</title>
<path fill="none" stroke="midnightblue" d="M58.56,-56.08C53.52,-48.53 46.16,-37.49 39.99,-28.23"/>
<polygon fill="midnightblue" stroke="midnightblue" points="42.79,-26.13 34.33,-19.75 36.97,-30.01 42.79,-26.13"/>
</g>
<!-- Node5 -->
<g id="node5" class="node">
<title>Node5</title>
<g id="a_node5"><a xlink:href="../../db/d16/config_8h.html" target="_top" xlink:title="InputHandler library user configurable items.">
<polygon fill="none" stroke="black" points="75.5,-0.5 75.5,-19.5 125.5,-19.5 125.5,-0.5 75.5,-0.5"/>
<text text-anchor="middle" x="100.5" y="-7.5" font-family="Helvetica,sans-Serif" font-size="10.00">config.h</text>
</a>
</g>
</g>
<!-- Node3&#45;&gt;Node5 -->
<g id="edge4" class="edge">
<title>Node3&#45;&gt;Node5</title>
<path fill="none" stroke="midnightblue" d="M70.44,-56.08C75.48,-48.53 82.84,-37.49 89.01,-28.23"/>
<polygon fill="midnightblue" stroke="midnightblue" points="92.03,-30.01 94.67,-19.75 86.21,-26.13 92.03,-30.01"/>
</g>
<!-- Node6&#45;&gt;Node1 -->
<g id="edge6" class="edge">
<title>Node6&#45;&gt;Node1</title>
<path fill="none" stroke="midnightblue" d="M159.26,-131.65C160.73,-138.52 161.38,-148.56 161.23,-158.26"/>
<polygon fill="midnightblue" stroke="midnightblue" points="157.72,-158.34 160.75,-168.5 164.71,-158.67 157.72,-158.34"/>
</g>
<!-- Node7&#45;&gt;Node1 -->
<g id="edge8" class="edge">
<title>Node7&#45;&gt;Node1</title>
<path fill="none" stroke="midnightblue" d="M234.68,-131.65C225.8,-139.55 210.25,-151.62 195.15,-162.57"/>
<polygon fill="midnightblue" stroke="midnightblue" points="192.95,-159.84 186.85,-168.5 197.02,-165.53 192.95,-159.84"/>
</g>
</g>
</svg>
