<?xml version="1.0" encoding="UTF-8" standalone="no"?>
<!DOCTYPE svg PUBLIC "-//W3C//DTD SVG 1.1//EN"
 "http://www.w3.org/Graphics/SVG/1.1/DTD/svg11.dtd">
<!-- Generated by graphviz version 3.0.0 (20220413.0106)
 -->
<!-- Title: examples/all_platforms/advanced/MultiFile/CLI/cli_setup.h Pages: 1 -->
<svg width="322pt" height="218pt"
 viewBox="0.00 0.00 322.00 218.00" xmlns="http://www.w3.org/2000/svg" xmlns:xlink="http://www.w3.org/1999/xlink">
<g id="graph0" class="graph" transform="scale(1 1) rotate(0) translate(4 214)">
<title>examples/all_platforms/advanced/MultiFile/CLI/cli_setup.h</title>
<!-- Node1 -->
<g id="node1" class="node">
<title>Node1</title>
<g id="a_node1"><a xlink:title="setup example for MultiFile.ino">
<polygon fill="#bfbfbf" stroke="black" points="130.5,-168.5 130.5,-209.5 250.5,-209.5 250.5,-168.5 130.5,-168.5"/>
<text text-anchor="start" x="138.5" y="-197.5" font-family="Helvetica,sans-Serif" font-size="10.00">examples/all_platforms</text>
<text text-anchor="start" x="138.5" y="-186.5" font-family="Helvetica,sans-Serif" font-size="10.00">/advanced/MultiFile/CLI</text>
<text text-anchor="middle" x="190.5" y="-175.5" font-family="Helvetica,sans-Serif" font-size="10.00">/cli_setup.h</text>
</a>
</g>
</g>
<!-- Node2 -->
<g id="node2" class="node">
<title>Node2</title>
<g id="a_node2"><a xlink:href="../../df/dec/_input_handler_8h.html" target="_top" xlink:title="InputHandler library header file.">
<polygon fill="none" stroke="black" points="60.5,-112.5 60.5,-131.5 140.5,-131.5 140.5,-112.5 60.5,-112.5"/>
<text text-anchor="middle" x="100.5" y="-119.5" font-family="Helvetica,sans-Serif" font-size="10.00">InputHandler.h</text>
</a>
</g>
</g>
<!-- Node1&#45;&gt;Node2 -->
<g id="edge1" class="edge">
<title>Node1&#45;&gt;Node2</title>
<path fill="none" stroke="midnightblue" d="M163.5,-168.5C149.83,-158.63 133.51,-146.84 120.91,-137.74"/>
<polygon fill="midnightblue" stroke="midnightblue" points="122.64,-134.67 112.48,-131.65 118.54,-140.34 122.64,-134.67"/>
</g>
<!-- Node7 -->
<g id="node7" class="node">
<title>Node7</title>
<g id="a_node7"><a xlink:href="../../d8/d5c/functions_8h.html" target="_top" xlink:title="Functions for MultiFile.ino.">
<polygon fill="none" stroke="black" points="158.5,-112.5 158.5,-131.5 222.5,-131.5 222.5,-112.5 158.5,-112.5"/>
<text text-anchor="middle" x="190.5" y="-119.5" font-family="Helvetica,sans-Serif" font-size="10.00">functions.h</text>
</a>
</g>
</g>
<!-- Node1&#45;&gt;Node7 -->
<g id="edge6" class="edge">
<title>Node1&#45;&gt;Node7</title>
<path fill="none" stroke="midnightblue" d="M184.25,-168.5C183.56,-159.97 183.58,-150.01 184.33,-141.59"/>
<polygon fill="midnightblue" stroke="midnightblue" points="187.8,-142.04 185.74,-131.65 180.87,-141.06 187.8,-142.04"/>
</g>
<!-- Node8 -->
<g id="node8" class="node">
<title>Node8</title>
<g id="a_node8"><a xlink:href="../../d6/d3b/parameters_8h.html" target="_top" xlink:title="Parameters and CommandConstructor objects for MultiFile.ino.">
<polygon fill="none" stroke="black" points="241,-112.5 241,-131.5 314,-131.5 314,-112.5 241,-112.5"/>
<text text-anchor="middle" x="277.5" y="-119.5" font-family="Helvetica,sans-Serif" font-size="10.00">parameters.h</text>
</a>
</g>
</g>
<!-- Node1&#45;&gt;Node8 -->
<g id="edge8" class="edge">
<title>Node1&#45;&gt;Node8</title>
<path fill="none" stroke="midnightblue" d="M210.36,-168.5C223,-158.44 239.32,-146.38 252.78,-137.21"/>
<polygon fill="midnightblue" stroke="midnightblue" points="254.76,-140.1 261.15,-131.65 250.89,-134.27 254.76,-140.1"/>
</g>
<!-- Node3 -->
<g id="node3" class="node">
<title>Node3</title>
<g id="a_node3"><a xlink:href="../../da/dc7/noedit_8h.html" target="_top" xlink:title="InputHandler library C includes, do not edit.">
<polygon fill="none" stroke="black" points="61,-56.5 61,-75.5 140,-75.5 140,-56.5 61,-56.5"/>
<text text-anchor="middle" x="100.5" y="-63.5" font-family="Helvetica,sans-Serif" font-size="10.00">config/noedit.h</text>
</a>
</g>
</g>
<!-- Node2&#45;&gt;Node3 -->
<g id="edge2" class="edge">
<title>Node2&#45;&gt;Node3</title>
<path fill="none" stroke="midnightblue" d="M100.5,-112.08C100.5,-105.01 100.5,-94.86 100.5,-85.99"/>
<polygon fill="midnightblue" stroke="midnightblue" points="104,-85.75 100.5,-75.75 97,-85.75 104,-85.75"/>
</g>
<!-- Node4 -->
<g id="node4" class="node">
<title>Node4</title>
<g id="a_node4"><a xlink:title=" ">
<polygon fill="none" stroke="#bfbfbf" points="0,-0.5 0,-19.5 57,-19.5 57,-0.5 0,-0.5"/>
<text text-anchor="middle" x="28.5" y="-7.5" font-family="Helvetica,sans-Serif" font-size="10.00">Arduino.h</text>
</a>
</g>
</g>
<!-- Node3&#45;&gt;Node4 -->
<g id="edge3" class="edge">
<title>Node3&#45;&gt;Node4</title>
<path fill="none" stroke="midnightblue" d="M88.93,-56.32C78.08,-48.18 61.62,-35.84 48.62,-26.09"/>
<polygon fill="midnightblue" stroke="midnightblue" points="50.38,-23.03 40.28,-19.83 46.18,-28.63 50.38,-23.03"/>
</g>
<!-- Node5 -->
<g id="node5" class="node">
<title>Node5</title>
<g id="a_node5"><a xlink:href="../../db/d16/config_8h.html" target="_top" xlink:title="InputHandler library user configurable items.">
<polygon fill="none" stroke="black" points="75.5,-0.5 75.5,-19.5 125.5,-19.5 125.5,-0.5 75.5,-0.5"/>
<text text-anchor="middle" x="100.5" y="-7.5" font-family="Helvetica,sans-Serif" font-size="10.00">config.h</text>
</a>
</g>
</g>
<!-- Node3&#45;&gt;Node5 -->
<g id="edge4" class="edge">
<title>Node3&#45;&gt;Node5</title>
<path fill="none" stroke="midnightblue" d="M100.5,-56.08C100.5,-49.01 100.5,-38.86 100.5,-29.99"/>
<polygon fill="midnightblue" stroke="midnightblue" points="104,-29.75 100.5,-19.75 97,-29.75 104,-29.75"/>
</g>
<!-- Node6 -->
<g id="node6" class="node">
<title>Node6</title>
<g id="a_node6"><a xlink:href="../../d5/d4a/advanced__config_8h.html" target="_top" xlink:title="InputHandler library advanced user settings.">
<polygon fill="none" stroke="black" points="144,-0.5 144,-19.5 241,-19.5 241,-0.5 144,-0.5"/>
<text text-anchor="middle" x="192.5" y="-7.5" font-family="Helvetica,sans-Serif" font-size="10.00">advanced_config.h</text>
</a>
</g>
</g>
<!-- Node3&#45;&gt;Node6 -->
<g id="edge5" class="edge">
<title>Node3&#45;&gt;Node6</title>
<path fill="none" stroke="midnightblue" d="M115.28,-56.32C129.77,-47.82 152.07,-34.73 168.99,-24.8"/>
<polygon fill="midnightblue" stroke="midnightblue" points="170.9,-27.74 177.76,-19.65 167.36,-21.7 170.9,-27.74"/>
</g>
<!-- Node7&#45;&gt;Node1 -->
<g id="edge7" class="edge">
<title>Node7&#45;&gt;Node1</title>
<path fill="none" stroke="midnightblue" d="M195.26,-131.65C196.73,-138.52 197.38,-148.56 197.23,-158.26"/>
<polygon fill="midnightblue" stroke="midnightblue" points="193.72,-158.34 196.75,-168.5 200.71,-158.67 193.72,-158.34"/>
</g>
<!-- Node8&#45;&gt;Node1 -->
<g id="edge9" class="edge">
<title>Node8&#45;&gt;Node1</title>
<path fill="none" stroke="midnightblue" d="M270.68,-131.65C261.8,-139.55 246.25,-151.62 231.15,-162.57"/>
<polygon fill="midnightblue" stroke="midnightblue" points="228.95,-159.84 222.85,-168.5 233.02,-165.53 228.95,-159.84"/>
</g>
</g>
</svg>
