<?xml version="1.0" encoding="UTF-8" standalone="no"?>
<!DOCTYPE svg PUBLIC "-//W3C//DTD SVG 1.1//EN"
 "http://www.w3.org/Graphics/SVG/1.1/DTD/svg11.dtd">
<!-- Generated by graphviz version 3.0.0 (20220413.0106)
 -->
<!-- Title: examples/all_platforms/advanced/MultiFile/CLI/cli_setup.h Pages: 1 -->
<svg width="272pt" height="229pt"
 viewBox="0.00 0.00 272.00 229.00" xmlns="http://www.w3.org/2000/svg" xmlns:xlink="http://www.w3.org/1999/xlink">
<g id="graph0" class="graph" transform="scale(1 1) rotate(0) translate(4 225)">
<title>examples/all_platforms/advanced/MultiFile/CLI/cli_setup.h</title>
<!-- Node1 -->
<g id="node1" class="node">
<title>Node1</title>
<g id="a_node1"><a xlink:title="setup example for MultiFile.ino">
<polygon fill="#bfbfbf" stroke="black" points="80.5,-179.5 80.5,-220.5 200.5,-220.5 200.5,-179.5 80.5,-179.5"/>
<text text-anchor="start" x="88.5" y="-208.5" font-family="Helvetica,sans-Serif" font-size="10.00">examples/all_platforms</text>
<text text-anchor="start" x="88.5" y="-197.5" font-family="Helvetica,sans-Serif" font-size="10.00">/advanced/MultiFile/CLI</text>
<text text-anchor="middle" x="140.5" y="-186.5" font-family="Helvetica,sans-Serif" font-size="10.00">/cli_setup.h</text>
</a>
</g>
</g>
<!-- Node2 -->
<g id="node2" class="node">
<title>Node2</title>
<g id="a_node2"><a xlink:href="../../df/dec/_input_handler_8h.html" target="_top" xlink:title="InputHandler library header file.">
<polygon fill="none" stroke="black" points="10.5,-123.5 10.5,-142.5 90.5,-142.5 90.5,-123.5 10.5,-123.5"/>
<text text-anchor="middle" x="50.5" y="-130.5" font-family="Helvetica,sans-Serif" font-size="10.00">InputHandler.h</text>
</a>
</g>
</g>
<!-- Node1&#45;&gt;Node2 -->
<g id="edge1" class="edge">
<title>Node1&#45;&gt;Node2</title>
<path fill="none" stroke="midnightblue" d="M113.5,-179.5C99.83,-169.63 83.51,-157.84 70.91,-148.74"/>
<polygon fill="midnightblue" stroke="midnightblue" points="72.64,-145.67 62.48,-142.65 68.54,-151.34 72.64,-145.67"/>
</g>
<!-- Node5 -->
<g id="node5" class="node">
<title>Node5</title>
<g id="a_node5"><a xlink:href="../../d8/d5c/functions_8h.html" target="_top" xlink:title="Functions for MultiFile.ino.">
<polygon fill="none" stroke="black" points="108.5,-123.5 108.5,-142.5 172.5,-142.5 172.5,-123.5 108.5,-123.5"/>
<text text-anchor="middle" x="140.5" y="-130.5" font-family="Helvetica,sans-Serif" font-size="10.00">functions.h</text>
</a>
</g>
</g>
<!-- Node1&#45;&gt;Node5 -->
<g id="edge4" class="edge">
<title>Node1&#45;&gt;Node5</title>
<path fill="none" stroke="midnightblue" d="M134.25,-179.5C133.56,-170.97 133.58,-161.01 134.33,-152.59"/>
<polygon fill="midnightblue" stroke="midnightblue" points="137.8,-153.04 135.74,-142.65 130.87,-152.06 137.8,-153.04"/>
</g>
<!-- Node6 -->
<g id="node6" class="node">
<title>Node6</title>
<g id="a_node6"><a xlink:href="../../d6/d3b/parameters_8h.html" target="_top" xlink:title="Parameters and CommandConstructor objects for MultiFile.ino.">
<polygon fill="none" stroke="black" points="191,-123.5 191,-142.5 264,-142.5 264,-123.5 191,-123.5"/>
<text text-anchor="middle" x="227.5" y="-130.5" font-family="Helvetica,sans-Serif" font-size="10.00">parameters.h</text>
</a>
</g>
</g>
<!-- Node1&#45;&gt;Node6 -->
<g id="edge6" class="edge">
<title>Node1&#45;&gt;Node6</title>
<path fill="none" stroke="midnightblue" d="M160.36,-179.5C173,-169.44 189.32,-157.38 202.78,-148.21"/>
<polygon fill="midnightblue" stroke="midnightblue" points="204.76,-151.1 211.15,-142.65 200.89,-145.27 204.76,-151.1"/>
</g>
<!-- Node3 -->
<g id="node3" class="node">
<title>Node3</title>
<g id="a_node3"><a xlink:href="../../dd/d4e/_input_handler__config_8h.html" target="_top" xlink:title="InputHandler library configuration file.">
<polygon fill="none" stroke="black" points="0,-56.5 0,-86.5 101,-86.5 101,-56.5 0,-56.5"/>
<text text-anchor="start" x="8" y="-74.5" font-family="Helvetica,sans-Serif" font-size="10.00">config/InputHandler</text>
<text text-anchor="middle" x="50.5" y="-63.5" font-family="Helvetica,sans-Serif" font-size="10.00">_config.h</text>
</a>
</g>
</g>
<!-- Node2&#45;&gt;Node3 -->
<g id="edge2" class="edge">
<title>Node2&#45;&gt;Node3</title>
<path fill="none" stroke="midnightblue" d="M50.5,-123.48C50.5,-116.47 50.5,-106.19 50.5,-96.7"/>
<polygon fill="midnightblue" stroke="midnightblue" points="54,-96.52 50.5,-86.52 47,-96.52 54,-96.52"/>
</g>
<!-- Node4 -->
<g id="node4" class="node">
<title>Node4</title>
<g id="a_node4"><a xlink:title=" ">
<polygon fill="none" stroke="#bfbfbf" points="22,-0.5 22,-19.5 79,-19.5 79,-0.5 22,-0.5"/>
<text text-anchor="middle" x="50.5" y="-7.5" font-family="Helvetica,sans-Serif" font-size="10.00">Arduino.h</text>
</a>
</g>
</g>
<!-- Node3&#45;&gt;Node4 -->
<g id="edge3" class="edge">
<title>Node3&#45;&gt;Node4</title>
<path fill="none" stroke="midnightblue" d="M50.5,-56.4C50.5,-48.47 50.5,-38.46 50.5,-29.86"/>
<polygon fill="midnightblue" stroke="midnightblue" points="54,-29.66 50.5,-19.66 47,-29.66 54,-29.66"/>
</g>
<!-- Node5&#45;&gt;Node1 -->
<g id="edge5" class="edge">
<title>Node5&#45;&gt;Node1</title>
<path fill="none" stroke="midnightblue" d="M145.26,-142.65C146.73,-149.52 147.38,-159.56 147.23,-169.26"/>
<polygon fill="midnightblue" stroke="midnightblue" points="143.72,-169.34 146.75,-179.5 150.71,-169.67 143.72,-169.34"/>
</g>
<!-- Node6&#45;&gt;Node1 -->
<g id="edge7" class="edge">
<title>Node6&#45;&gt;Node1</title>
<path fill="none" stroke="midnightblue" d="M220.68,-142.65C211.8,-150.55 196.25,-162.62 181.15,-173.57"/>
<polygon fill="midnightblue" stroke="midnightblue" points="178.95,-170.84 172.85,-179.5 183.02,-176.53 178.95,-170.84"/>
</g>
</g>
</svg>
