<?xml version="1.0" encoding="UTF-8" standalone="no"?>
<!DOCTYPE svg PUBLIC "-//W3C//DTD SVG 1.1//EN"
 "http://www.w3.org/Graphics/SVG/1.1/DTD/svg11.dtd">
<!-- Generated by graphviz version 6.0.1 (20220911.1526)
 -->
<!-- Title: examples/all_platforms/advanced/MultiFile/CLI/cli_setup.h Pages: 1 -->
<svg width="286pt" height="214pt"
 viewBox="0.00 0.00 286.00 214.00" xmlns="http://www.w3.org/2000/svg" xmlns:xlink="http://www.w3.org/1999/xlink">
<g id="graph0" class="graph" transform="scale(1 1) rotate(0) translate(4 210)">
<title>examples/all_platforms/advanced/MultiFile/CLI/cli_setup.h</title>
<!-- Node1 -->
<g id="node1" class="node">
<title>Node1</title>
<g id="a_node1"><a xlink:title="setup example for MultiFile.ino">
<polygon fill="#999999" stroke="#666666" points="214.5,-206 94.5,-206 94.5,-165 214.5,-165 214.5,-206"/>
<text text-anchor="start" x="102.5" y="-194" font-family="Helvetica,sans-Serif" font-size="10.00">examples/all_platforms</text>
<text text-anchor="start" x="102.5" y="-183" font-family="Helvetica,sans-Serif" font-size="10.00">/advanced/MultiFile/CLI</text>
<text text-anchor="middle" x="154.5" y="-172" font-family="Helvetica,sans-Serif" font-size="10.00">/cli_setup.h</text>
</a>
</g>
</g>
<!-- Node2 -->
<g id="node2" class="node">
<title>Node2</title>
<g id="a_node2"><a xlink:href="../../df/dec/_input_handler_8h.html" target="_top" xlink:title="InputHandler library header file.">
<polygon fill="white" stroke="#666666" points="104.5,-129 24.5,-129 24.5,-110 104.5,-110 104.5,-129"/>
<text text-anchor="middle" x="64.5" y="-117" font-family="Helvetica,sans-Serif" font-size="10.00">InputHandler.h</text>
</a>
</g>
</g>
<!-- Node1&#45;&gt;Node2 -->
<g id="edge1" class="edge">
<title>Node1&#45;&gt;Node2</title>
<path fill="none" stroke="#63b8ff" d="M127.01,-164.95C113.53,-155.37 97.57,-144.02 85.15,-135.19"/>
<polygon fill="#63b8ff" stroke="#63b8ff" points="87,-132.2 76.82,-129.26 82.94,-137.91 87,-132.2"/>
</g>
<!-- Node6 -->
<g id="node6" class="node">
<title>Node6</title>
<g id="a_node6"><a xlink:href="../../d8/d5c/functions_8h.html" target="_top" xlink:title="Functions for MultiFile.ino.">
<polygon fill="white" stroke="#666666" points="186.5,-129 122.5,-129 122.5,-110 186.5,-110 186.5,-129"/>
<text text-anchor="middle" x="154.5" y="-117" font-family="Helvetica,sans-Serif" font-size="10.00">functions.h</text>
</a>
</g>
</g>
<!-- Node1&#45;&gt;Node6 -->
<g id="edge5" class="edge">
<title>Node1&#45;&gt;Node6</title>
<path fill="none" stroke="#63b8ff" d="M148.23,-164.95C147.57,-156.76 147.59,-147.28 148.3,-139.19"/>
<polygon fill="#63b8ff" stroke="#63b8ff" points="151.77,-139.65 149.68,-129.26 144.84,-138.68 151.77,-139.65"/>
</g>
<!-- Node7 -->
<g id="node7" class="node">
<title>Node7</title>
<g id="a_node7"><a xlink:href="../../d6/d3b/parameters_8h.html" target="_top" xlink:title="Parameters and CommandConstructor objects for MultiFile.ino.">
<polygon fill="white" stroke="#666666" points="278,-129 205,-129 205,-110 278,-110 278,-129"/>
<text text-anchor="middle" x="241.5" y="-117" font-family="Helvetica,sans-Serif" font-size="10.00">parameters.h</text>
</a>
</g>
</g>
<!-- Node1&#45;&gt;Node7 -->
<g id="edge7" class="edge">
<title>Node1&#45;&gt;Node7</title>
<path fill="none" stroke="#63b8ff" d="M174.8,-164.95C187.26,-155.21 203.15,-143.65 216.38,-134.76"/>
<polygon fill="#63b8ff" stroke="#63b8ff" points="218.59,-137.5 225.04,-129.09 214.76,-131.64 218.59,-137.5"/>
</g>
<!-- Node3 -->
<g id="node3" class="node">
<title>Node3</title>
<g id="a_node3"><a xlink:href="../../da/dc7/noedit_8h.html" target="_top" xlink:title="InputHandler library C includes, do not edit.">
<polygon fill="white" stroke="#666666" points="104,-74 25,-74 25,-55 104,-55 104,-74"/>
<text text-anchor="middle" x="64.5" y="-62" font-family="Helvetica,sans-Serif" font-size="10.00">config/noedit.h</text>
</a>
</g>
</g>
<!-- Node2&#45;&gt;Node3 -->
<g id="edge2" class="edge">
<title>Node2&#45;&gt;Node3</title>
<path fill="none" stroke="#63b8ff" d="M64.5,-109.75C64.5,-102.8 64.5,-92.85 64.5,-84.13"/>
<polygon fill="#63b8ff" stroke="#63b8ff" points="68,-84.09 64.5,-74.09 61,-84.09 68,-84.09"/>
</g>
<!-- Node4 -->
<g id="node4" class="node">
<title>Node4</title>
<g id="a_node4"><a xlink:title=" ">
<polygon fill="#e0e0e0" stroke="#999999" points="57,-19 0,-19 0,0 57,0 57,-19"/>
<text text-anchor="middle" x="28.5" y="-7" font-family="Helvetica,sans-Serif" font-size="10.00">Arduino.h</text>
</a>
</g>
</g>
<!-- Node3&#45;&gt;Node4 -->
<g id="edge3" class="edge">
<title>Node3&#45;&gt;Node4</title>
<path fill="none" stroke="#63b8ff" d="M58.56,-54.75C53.52,-47.34 46.16,-36.5 39.99,-27.41"/>
<polygon fill="#63b8ff" stroke="#63b8ff" points="42.85,-25.39 34.33,-19.09 37.06,-29.33 42.85,-25.39"/>
</g>
<!-- Node5 -->
<g id="node5" class="node">
<title>Node5</title>
<g id="a_node5"><a xlink:href="../../db/d16/config_8h.html" target="_top" xlink:title="InputHandler library user configurable items.">
<polygon fill="white" stroke="#666666" points="125.5,-19 75.5,-19 75.5,0 125.5,0 125.5,-19"/>
<text text-anchor="middle" x="100.5" y="-7" font-family="Helvetica,sans-Serif" font-size="10.00">config.h</text>
</a>
</g>
</g>
<!-- Node3&#45;&gt;Node5 -->
<g id="edge4" class="edge">
<title>Node3&#45;&gt;Node5</title>
<path fill="none" stroke="#63b8ff" d="M70.44,-54.75C75.48,-47.34 82.84,-36.5 89.01,-27.41"/>
<polygon fill="#63b8ff" stroke="#63b8ff" points="91.94,-29.33 94.67,-19.09 86.15,-25.39 91.94,-29.33"/>
</g>
<!-- Node6&#45;&gt;Node1 -->
<g id="edge6" class="edge">
<title>Node6&#45;&gt;Node1</title>
<path fill="none" stroke="#63b8ff" d="M159.32,-129.26C160.72,-135.9 161.36,-145.45 161.24,-154.74"/>
<polygon fill="#63b8ff" stroke="#63b8ff" points="157.73,-154.8 160.77,-164.95 164.72,-155.12 157.73,-154.8"/>
</g>
<!-- Node7&#45;&gt;Node1 -->
<g id="edge8" class="edge">
<title>Node7&#45;&gt;Node1</title>
<path fill="none" stroke="#63b8ff" d="M234.41,-129.26C225.63,-136.9 210.63,-148.39 195.92,-158.9"/>
<polygon fill="#63b8ff" stroke="#63b8ff" points="193.5,-156.33 187.35,-164.95 197.54,-162.05 193.5,-156.33"/>
</g>
</g>
</svg>
