<?xml version="1.0" encoding="UTF-8" standalone="no"?>
<!DOCTYPE svg PUBLIC "-//W3C//DTD SVG 1.1//EN"
 "http://www.w3.org/Graphics/SVG/1.1/DTD/svg11.dtd">
<!-- Generated by graphviz version 5.0.1 (20220820.1526)
 -->
<!-- Title: examples/all_platforms/basic/ReadCommandFromBufferMQTT/ReadCommandFromBufferMQTT.ino Pages: 1 -->
<svg width="357pt" height="214pt"
 viewBox="0.00 0.00 356.50 214.00" xmlns="http://www.w3.org/2000/svg" xmlns:xlink="http://www.w3.org/1999/xlink">
<g id="graph0" class="graph" transform="scale(1 1) rotate(0) translate(4 210)">
<title>examples/all_platforms/basic/ReadCommandFromBufferMQTT/ReadCommandFromBufferMQTT.ino</title>
<!-- Node1 -->
<g id="node1" class="node">
<title>Node1</title>
<g id="a_node1"><a xlink:title="An example that demonstrates receiving commands and sending an echo over MQTT.">
<polygon fill="#999999" stroke="#666666" points="243,-206 38,-206 38,-165 243,-165 243,-206"/>
<text text-anchor="start" x="46" y="-194" font-family="Helvetica,sans-Serif" font-size="10.00">examples/all_platforms</text>
<text text-anchor="start" x="46" y="-183" font-family="Helvetica,sans-Serif" font-size="10.00">/basic/ReadCommandFromBuffer</text>
<text text-anchor="middle" x="140.5" y="-172" font-family="Helvetica,sans-Serif" font-size="10.00">MQTT/ReadCommandFromBufferMQTT.ino</text>
</a>
</g>
</g>
<!-- Node2 -->
<g id="node2" class="node">
<title>Node2</title>
<g id="a_node2"><a xlink:title=" ">
<polygon fill="#e0e0e0" stroke="#999999" points="41,-129 0,-129 0,-110 41,-110 41,-129"/>
<text text-anchor="middle" x="20.5" y="-117" font-family="Helvetica,sans-Serif" font-size="10.00">SPI.h</text>
</a>
</g>
</g>
<!-- Node1&#45;&gt;Node2 -->
<g id="edge1" class="edge">
<title>Node1&#45;&gt;Node2</title>
<path fill="none" stroke="#63b8ff" d="M103.84,-164.95C85.06,-154.93 62.66,-142.99 45.82,-134"/>
<polygon fill="#63b8ff" stroke="#63b8ff" points="47.08,-130.71 36.61,-129.09 43.79,-136.89 47.08,-130.71"/>
</g>
<!-- Node3 -->
<g id="node3" class="node">
<title>Node3</title>
<g id="a_node3"><a xlink:title=" ">
<polygon fill="#e0e0e0" stroke="#999999" points="127.5,-129 59.5,-129 59.5,-110 127.5,-110 127.5,-129"/>
<text text-anchor="middle" x="93.5" y="-117" font-family="Helvetica,sans-Serif" font-size="10.00">WiFiNINA.h</text>
</a>
</g>
</g>
<!-- Node1&#45;&gt;Node3 -->
<g id="edge2" class="edge">
<title>Node1&#45;&gt;Node3</title>
<path fill="none" stroke="#63b8ff" d="M126.14,-164.95C119.72,-156.2 112.22,-145.99 106.02,-137.56"/>
<polygon fill="#63b8ff" stroke="#63b8ff" points="108.67,-135.25 99.93,-129.26 103.03,-139.39 108.67,-135.25"/>
</g>
<!-- Node4 -->
<g id="node4" class="node">
<title>Node4</title>
<g id="a_node4"><a xlink:title=" ">
<polygon fill="#e0e0e0" stroke="#999999" points="229,-129 146,-129 146,-110 229,-110 229,-129"/>
<text text-anchor="middle" x="187.5" y="-117" font-family="Helvetica,sans-Serif" font-size="10.00">PubSubClient.h</text>
</a>
</g>
</g>
<!-- Node1&#45;&gt;Node4 -->
<g id="edge3" class="edge">
<title>Node1&#45;&gt;Node4</title>
<path fill="none" stroke="#63b8ff" d="M154.86,-164.95C161.28,-156.2 168.78,-145.99 174.98,-137.56"/>
<polygon fill="#63b8ff" stroke="#63b8ff" points="177.97,-139.39 181.07,-129.26 172.33,-135.25 177.97,-139.39"/>
</g>
<!-- Node5 -->
<g id="node5" class="node">
<title>Node5</title>
<g id="a_node5"><a xlink:href="../../df/dec/_input_handler_8h.html" target="_top" xlink:title="InputHandler library header file.">
<polygon fill="white" stroke="#666666" points="327.5,-129 247.5,-129 247.5,-110 327.5,-110 327.5,-129"/>
<text text-anchor="middle" x="287.5" y="-117" font-family="Helvetica,sans-Serif" font-size="10.00">InputHandler.h</text>
</a>
</g>
</g>
<!-- Node1&#45;&gt;Node5 -->
<g id="edge4" class="edge">
<title>Node1&#45;&gt;Node5</title>
<path fill="none" stroke="#63b8ff" d="M185.4,-164.95C209.17,-154.6 237.65,-142.2 258.49,-133.13"/>
<polygon fill="#63b8ff" stroke="#63b8ff" points="259.99,-136.29 267.77,-129.09 257.2,-129.87 259.99,-136.29"/>
</g>
<!-- Node6 -->
<g id="node6" class="node">
<title>Node6</title>
<g id="a_node6"><a xlink:href="../../da/dc7/noedit_8h.html" target="_top" xlink:title="InputHandler library C includes, do not edit.">
<polygon fill="white" stroke="#666666" points="327,-74 248,-74 248,-55 327,-55 327,-74"/>
<text text-anchor="middle" x="287.5" y="-62" font-family="Helvetica,sans-Serif" font-size="10.00">config/noedit.h</text>
</a>
</g>
</g>
<!-- Node5&#45;&gt;Node6 -->
<g id="edge5" class="edge">
<title>Node5&#45;&gt;Node6</title>
<path fill="none" stroke="#63b8ff" d="M287.5,-109.75C287.5,-102.8 287.5,-92.85 287.5,-84.13"/>
<polygon fill="#63b8ff" stroke="#63b8ff" points="291,-84.09 287.5,-74.09 284,-84.09 291,-84.09"/>
</g>
<!-- Node7 -->
<g id="node7" class="node">
<title>Node7</title>
<g id="a_node7"><a xlink:title=" ">
<polygon fill="#e0e0e0" stroke="#999999" points="280,-19 223,-19 223,0 280,0 280,-19"/>
<text text-anchor="middle" x="251.5" y="-7" font-family="Helvetica,sans-Serif" font-size="10.00">Arduino.h</text>
</a>
</g>
</g>
<!-- Node6&#45;&gt;Node7 -->
<g id="edge6" class="edge">
<title>Node6&#45;&gt;Node7</title>
<path fill="none" stroke="#63b8ff" d="M281.56,-54.75C276.52,-47.34 269.16,-36.5 262.99,-27.41"/>
<polygon fill="#63b8ff" stroke="#63b8ff" points="265.85,-25.39 257.33,-19.09 260.06,-29.33 265.85,-25.39"/>
</g>
<!-- Node8 -->
<g id="node8" class="node">
<title>Node8</title>
<g id="a_node8"><a xlink:href="../../db/d16/config_8h.html" target="_top" xlink:title="InputHandler library user configurable items.">
<polygon fill="white" stroke="#666666" points="348.5,-19 298.5,-19 298.5,0 348.5,0 348.5,-19"/>
<text text-anchor="middle" x="323.5" y="-7" font-family="Helvetica,sans-Serif" font-size="10.00">config.h</text>
</a>
</g>
</g>
<!-- Node6&#45;&gt;Node8 -->
<g id="edge7" class="edge">
<title>Node6&#45;&gt;Node8</title>
<path fill="none" stroke="#63b8ff" d="M293.44,-54.75C298.48,-47.34 305.84,-36.5 312.01,-27.41"/>
<polygon fill="#63b8ff" stroke="#63b8ff" points="314.94,-29.33 317.67,-19.09 309.15,-25.39 314.94,-29.33"/>
</g>
</g>
</svg>
