<?xml version="1.0" encoding="UTF-8" standalone="no"?>
<!DOCTYPE svg PUBLIC "-//W3C//DTD SVG 1.1//EN"
 "http://www.w3.org/Graphics/SVG/1.1/DTD/svg11.dtd">
<!-- Generated by graphviz version 3.0.0 (20220413.0106)
 -->
<!-- Title: examples/all_platforms/basic/ReadCommandFromBufferMQTT/ReadCommandFromBufferMQTT.ino Pages: 1 -->
<svg width="579pt" height="240pt"
 viewBox="0.00 0.00 578.50 240.00" xmlns="http://www.w3.org/2000/svg" xmlns:xlink="http://www.w3.org/1999/xlink">
<g id="graph0" class="graph" transform="scale(1 1) rotate(0) translate(4 236)">
<title>examples/all_platforms/basic/ReadCommandFromBufferMQTT/ReadCommandFromBufferMQTT.ino</title>
<!-- Node1 -->
<g id="node1" class="node">
<title>Node1</title>
<g id="a_node1"><a xlink:title="An example that demonstrates receiving commands and sending an echo over MQTT.">
<polygon fill="#bfbfbf" stroke="black" points="38,-190.5 38,-231.5 243,-231.5 243,-190.5 38,-190.5"/>
<text text-anchor="start" x="46" y="-219.5" font-family="Helvetica,sans-Serif" font-size="10.00">examples/all_platforms</text>
<text text-anchor="start" x="46" y="-208.5" font-family="Helvetica,sans-Serif" font-size="10.00">/basic/ReadCommandFromBuffer</text>
<text text-anchor="middle" x="140.5" y="-197.5" font-family="Helvetica,sans-Serif" font-size="10.00">MQTT/ReadCommandFromBufferMQTT.ino</text>
</a>
</g>
</g>
<!-- Node2 -->
<g id="node2" class="node">
<title>Node2</title>
<g id="a_node2"><a xlink:title=" ">
<polygon fill="none" stroke="#bfbfbf" points="0,-134.5 0,-153.5 41,-153.5 41,-134.5 0,-134.5"/>
<text text-anchor="middle" x="20.5" y="-141.5" font-family="Helvetica,sans-Serif" font-size="10.00">SPI.h</text>
</a>
</g>
</g>
<!-- Node1&#45;&gt;Node2 -->
<g id="edge1" class="edge">
<title>Node1&#45;&gt;Node2</title>
<path fill="none" stroke="midnightblue" d="M104.5,-190.5C85.39,-180.15 62.4,-167.69 45.3,-158.43"/>
<polygon fill="midnightblue" stroke="midnightblue" points="46.93,-155.34 36.47,-153.65 43.6,-161.49 46.93,-155.34"/>
</g>
<!-- Node3 -->
<g id="node3" class="node">
<title>Node3</title>
<g id="a_node3"><a xlink:title=" ">
<polygon fill="none" stroke="#bfbfbf" points="59.5,-134.5 59.5,-153.5 127.5,-153.5 127.5,-134.5 59.5,-134.5"/>
<text text-anchor="middle" x="93.5" y="-141.5" font-family="Helvetica,sans-Serif" font-size="10.00">WiFiNINA.h</text>
</a>
</g>
</g>
<!-- Node1&#45;&gt;Node3 -->
<g id="edge2" class="edge">
<title>Node1&#45;&gt;Node3</title>
<path fill="none" stroke="midnightblue" d="M126.4,-190.5C119.82,-181.39 112.06,-170.66 105.73,-161.91"/>
<polygon fill="midnightblue" stroke="midnightblue" points="108.45,-159.71 99.76,-153.65 102.78,-163.81 108.45,-159.71"/>
</g>
<!-- Node4 -->
<g id="node4" class="node">
<title>Node4</title>
<g id="a_node4"><a xlink:title=" ">
<polygon fill="none" stroke="#bfbfbf" points="146,-134.5 146,-153.5 229,-153.5 229,-134.5 146,-134.5"/>
<text text-anchor="middle" x="187.5" y="-141.5" font-family="Helvetica,sans-Serif" font-size="10.00">PubSubClient.h</text>
</a>
</g>
</g>
<!-- Node1&#45;&gt;Node4 -->
<g id="edge3" class="edge">
<title>Node1&#45;&gt;Node4</title>
<path fill="none" stroke="midnightblue" d="M154.6,-190.5C161.18,-181.39 168.94,-170.66 175.27,-161.91"/>
<polygon fill="midnightblue" stroke="midnightblue" points="178.22,-163.81 181.24,-153.65 172.55,-159.71 178.22,-163.81"/>
</g>
<!-- Node5 -->
<g id="node5" class="node">
<title>Node5</title>
<g id="a_node5"><a xlink:href="../../df/dec/_input_handler_8h.html" target="_top" xlink:title="InputHandler library header file.">
<polygon fill="none" stroke="black" points="247.5,-134.5 247.5,-153.5 327.5,-153.5 327.5,-134.5 247.5,-134.5"/>
<text text-anchor="middle" x="287.5" y="-141.5" font-family="Helvetica,sans-Serif" font-size="10.00">InputHandler.h</text>
</a>
</g>
</g>
<!-- Node1&#45;&gt;Node5 -->
<g id="edge4" class="edge">
<title>Node1&#45;&gt;Node5</title>
<path fill="none" stroke="midnightblue" d="M184.6,-190.5C208.55,-179.91 237.48,-167.12 258.56,-157.8"/>
<polygon fill="midnightblue" stroke="midnightblue" points="260.2,-160.9 267.93,-153.65 257.37,-154.5 260.2,-160.9"/>
</g>
<!-- Node6 -->
<g id="node6" class="node">
<title>Node6</title>
<g id="a_node6"><a xlink:href="../../dd/d4e/_input_handler__config_8h.html" target="_top" xlink:title="InputHandler library configuration file.">
<polygon fill="none" stroke="black" points="237,-67.5 237,-97.5 338,-97.5 338,-67.5 237,-67.5"/>
<text text-anchor="start" x="245" y="-85.5" font-family="Helvetica,sans-Serif" font-size="10.00">config/InputHandler</text>
<text text-anchor="middle" x="287.5" y="-74.5" font-family="Helvetica,sans-Serif" font-size="10.00">_config.h</text>
</a>
</g>
</g>
<!-- Node5&#45;&gt;Node6 -->
<g id="edge5" class="edge">
<title>Node5&#45;&gt;Node6</title>
<path fill="none" stroke="midnightblue" d="M287.5,-134.48C287.5,-127.47 287.5,-117.19 287.5,-107.7"/>
<polygon fill="midnightblue" stroke="midnightblue" points="291,-107.52 287.5,-97.52 284,-107.52 291,-107.52"/>
</g>
<!-- Node7 -->
<g id="node7" class="node">
<title>Node7</title>
<g id="a_node7"><a xlink:title=" ">
<polygon fill="none" stroke="#bfbfbf" points="77,-6 77,-25 134,-25 134,-6 77,-6"/>
<text text-anchor="middle" x="105.5" y="-13" font-family="Helvetica,sans-Serif" font-size="10.00">Arduino.h</text>
</a>
</g>
</g>
<!-- Node6&#45;&gt;Node7 -->
<g id="edge6" class="edge">
<title>Node6&#45;&gt;Node7</title>
<path fill="none" stroke="midnightblue" d="M246.43,-67.43C217.56,-57.46 178.08,-43.66 143.5,-31 141.4,-30.23 139.24,-29.43 137.06,-28.62"/>
<polygon fill="midnightblue" stroke="midnightblue" points="138.16,-25.29 127.57,-25.04 135.69,-31.84 138.16,-25.29"/>
</g>
<!-- Node8 -->
<g id="node8" class="node">
<title>Node8</title>
<g id="a_node8"><a xlink:href="../../d3/dcd/_input_handler__portability_8h.html" target="_top" xlink:title=" ">
<polygon fill="none" stroke="black" points="152.5,-6 152.5,-25 278.5,-25 278.5,-6 152.5,-6"/>
<text text-anchor="middle" x="215.5" y="-13" font-family="Helvetica,sans-Serif" font-size="10.00">InputHandler_portability.h</text>
</a>
</g>
</g>
<!-- Node6&#45;&gt;Node8 -->
<g id="edge7" class="edge">
<title>Node6&#45;&gt;Node8</title>
<path fill="none" stroke="midnightblue" d="M271.88,-67.4C260.32,-56.96 244.58,-42.75 232.67,-32"/>
<polygon fill="midnightblue" stroke="midnightblue" points="234.9,-29.3 225.13,-25.19 230.21,-34.49 234.9,-29.3"/>
</g>
<!-- Node9 -->
<g id="node9" class="node">
<title>Node9</title>
<g id="a_node9"><a xlink:href="../../d1/d39/_input_handler__functionlike__macros_8h.html" target="_top" xlink:title=" ">
<polygon fill="none" stroke="black" points="297,-0.5 297,-30.5 424,-30.5 424,-0.5 297,-0.5"/>
<text text-anchor="start" x="305" y="-18.5" font-family="Helvetica,sans-Serif" font-size="10.00">InputHandler_functionlike</text>
<text text-anchor="middle" x="360.5" y="-7.5" font-family="Helvetica,sans-Serif" font-size="10.00">_macros.h</text>
</a>
</g>
</g>
<!-- Node6&#45;&gt;Node9 -->
<g id="edge8" class="edge">
<title>Node6&#45;&gt;Node9</title>
<path fill="none" stroke="midnightblue" d="M303.34,-67.4C313.19,-58.62 326.04,-47.18 337.06,-37.37"/>
<polygon fill="midnightblue" stroke="midnightblue" points="339.55,-39.84 344.69,-30.58 334.9,-34.61 339.55,-39.84"/>
</g>
<!-- Node10 -->
<g id="node10" class="node">
<title>Node10</title>
<g id="a_node10"><a xlink:href="../../df/d25/_input_handler___p_r_o_g_m_e_m__settings_8h.html" target="_top" xlink:title=" ">
<polygon fill="none" stroke="black" points="442.5,-0.5 442.5,-30.5 570.5,-30.5 570.5,-0.5 442.5,-0.5"/>
<text text-anchor="start" x="450.5" y="-18.5" font-family="Helvetica,sans-Serif" font-size="10.00">InputHandler_PROGMEM</text>
<text text-anchor="middle" x="506.5" y="-7.5" font-family="Helvetica,sans-Serif" font-size="10.00">_settings.h</text>
</a>
</g>
</g>
<!-- Node6&#45;&gt;Node10 -->
<g id="edge9" class="edge">
<title>Node6&#45;&gt;Node10</title>
<path fill="none" stroke="midnightblue" d="M334.75,-67.48C368.31,-57.51 413.56,-44.09 449.18,-33.51"/>
<polygon fill="midnightblue" stroke="midnightblue" points="450.37,-36.81 458.96,-30.61 448.37,-30.1 450.37,-36.81"/>
</g>
</g>
</svg>
