<?xml version="1.0" encoding="UTF-8" standalone="no"?>
<!DOCTYPE svg PUBLIC "-//W3C//DTD SVG 1.1//EN"
 "http://www.w3.org/Graphics/SVG/1.1/DTD/svg11.dtd">
<!-- Generated by graphviz version 3.0.0 (20220413.0106)
 -->
<!-- Title: examples/all_platforms/basic/ReadCommandFromBufferMQTT/ReadCommandFromBufferMQTT.ino Pages: 1 -->
<svg width="651pt" height="240pt"
 viewBox="0.00 0.00 650.50 240.00" xmlns="http://www.w3.org/2000/svg" xmlns:xlink="http://www.w3.org/1999/xlink">
<g id="graph0" class="graph" transform="scale(1 1) rotate(0) translate(4 236)">
<title>examples/all_platforms/basic/ReadCommandFromBufferMQTT/ReadCommandFromBufferMQTT.ino</title>
<!-- Node1 -->
<g id="node1" class="node">
<title>Node1</title>
<g id="a_node1"><a xlink:title="An example that demonstrates receiving commands and sending an echo over MQTT.">
<polygon fill="#bfbfbf" stroke="black" points="38,-190.5 38,-231.5 243,-231.5 243,-190.5 38,-190.5"/>
<text text-anchor="start" x="46" y="-219.5" font-family="Helvetica,sans-Serif" font-size="10.00">examples/all_platforms</text>
<text text-anchor="start" x="46" y="-208.5" font-family="Helvetica,sans-Serif" font-size="10.00">/basic/ReadCommandFromBuffer</text>
<text text-anchor="middle" x="140.5" y="-197.5" font-family="Helvetica,sans-Serif" font-size="10.00">MQTT/ReadCommandFromBufferMQTT.ino</text>
</a>
</g>
</g>
<!-- Node2 -->
<g id="node2" class="node">
<title>Node2</title>
<g id="a_node2"><a xlink:title=" ">
<polygon fill="none" stroke="#bfbfbf" points="0,-134.5 0,-153.5 41,-153.5 41,-134.5 0,-134.5"/>
<text text-anchor="middle" x="20.5" y="-141.5" font-family="Helvetica,sans-Serif" font-size="10.00">SPI.h</text>
</a>
</g>
</g>
<!-- Node1&#45;&gt;Node2 -->
<g id="edge1" class="edge">
<title>Node1&#45;&gt;Node2</title>
<path fill="none" stroke="midnightblue" d="M104.5,-190.5C85.39,-180.15 62.4,-167.69 45.3,-158.43"/>
<polygon fill="midnightblue" stroke="midnightblue" points="46.93,-155.34 36.47,-153.65 43.6,-161.49 46.93,-155.34"/>
</g>
<!-- Node3 -->
<g id="node3" class="node">
<title>Node3</title>
<g id="a_node3"><a xlink:title=" ">
<polygon fill="none" stroke="#bfbfbf" points="59.5,-134.5 59.5,-153.5 127.5,-153.5 127.5,-134.5 59.5,-134.5"/>
<text text-anchor="middle" x="93.5" y="-141.5" font-family="Helvetica,sans-Serif" font-size="10.00">WiFiNINA.h</text>
</a>
</g>
</g>
<!-- Node1&#45;&gt;Node3 -->
<g id="edge2" class="edge">
<title>Node1&#45;&gt;Node3</title>
<path fill="none" stroke="midnightblue" d="M126.4,-190.5C119.82,-181.39 112.06,-170.66 105.73,-161.91"/>
<polygon fill="midnightblue" stroke="midnightblue" points="108.45,-159.71 99.76,-153.65 102.78,-163.81 108.45,-159.71"/>
</g>
<!-- Node4 -->
<g id="node4" class="node">
<title>Node4</title>
<g id="a_node4"><a xlink:title=" ">
<polygon fill="none" stroke="#bfbfbf" points="146,-134.5 146,-153.5 229,-153.5 229,-134.5 146,-134.5"/>
<text text-anchor="middle" x="187.5" y="-141.5" font-family="Helvetica,sans-Serif" font-size="10.00">PubSubClient.h</text>
</a>
</g>
</g>
<!-- Node1&#45;&gt;Node4 -->
<g id="edge3" class="edge">
<title>Node1&#45;&gt;Node4</title>
<path fill="none" stroke="midnightblue" d="M154.6,-190.5C161.18,-181.39 168.94,-170.66 175.27,-161.91"/>
<polygon fill="midnightblue" stroke="midnightblue" points="178.22,-163.81 181.24,-153.65 172.55,-159.71 178.22,-163.81"/>
</g>
<!-- Node5 -->
<g id="node5" class="node">
<title>Node5</title>
<g id="a_node5"><a xlink:href="../../df/dec/_input_handler_8h.html" target="_top" xlink:title="InputHandler library header file.">
<polygon fill="none" stroke="black" points="247.5,-134.5 247.5,-153.5 327.5,-153.5 327.5,-134.5 247.5,-134.5"/>
<text text-anchor="middle" x="287.5" y="-141.5" font-family="Helvetica,sans-Serif" font-size="10.00">InputHandler.h</text>
</a>
</g>
</g>
<!-- Node1&#45;&gt;Node5 -->
<g id="edge4" class="edge">
<title>Node1&#45;&gt;Node5</title>
<path fill="none" stroke="midnightblue" d="M184.6,-190.5C208.55,-179.91 237.48,-167.12 258.56,-157.8"/>
<polygon fill="midnightblue" stroke="midnightblue" points="260.2,-160.9 267.93,-153.65 257.37,-154.5 260.2,-160.9"/>
</g>
<!-- Node6 -->
<g id="node6" class="node">
<title>Node6</title>
<g id="a_node6"><a xlink:href="../../d3/dfb/_input_handler__noedit_8h.html" target="_top" xlink:title="InputHandler library C includes, buffer sizing macros.">
<polygon fill="none" stroke="black" points="237,-67.5 237,-97.5 338,-97.5 338,-67.5 237,-67.5"/>
<text text-anchor="start" x="245" y="-85.5" font-family="Helvetica,sans-Serif" font-size="10.00">config/InputHandler</text>
<text text-anchor="middle" x="287.5" y="-74.5" font-family="Helvetica,sans-Serif" font-size="10.00">_noedit.h</text>
</a>
</g>
</g>
<!-- Node5&#45;&gt;Node6 -->
<g id="edge5" class="edge">
<title>Node5&#45;&gt;Node6</title>
<path fill="none" stroke="midnightblue" d="M287.5,-134.48C287.5,-127.47 287.5,-117.19 287.5,-107.7"/>
<polygon fill="midnightblue" stroke="midnightblue" points="291,-107.52 287.5,-97.52 284,-107.52 291,-107.52"/>
</g>
<!-- Node7 -->
<g id="node7" class="node">
<title>Node7</title>
<g id="a_node7"><a xlink:title=" ">
<polygon fill="none" stroke="#bfbfbf" points="21,-6 21,-25 78,-25 78,-6 21,-6"/>
<text text-anchor="middle" x="49.5" y="-13" font-family="Helvetica,sans-Serif" font-size="10.00">Arduino.h</text>
</a>
</g>
</g>
<!-- Node6&#45;&gt;Node7 -->
<g id="edge6" class="edge">
<title>Node6&#45;&gt;Node7</title>
<path fill="none" stroke="midnightblue" d="M236.9,-70.45C196.19,-61.15 137.7,-46.86 87.5,-31 85.08,-30.24 82.6,-29.4 80.11,-28.53"/>
<polygon fill="midnightblue" stroke="midnightblue" points="81.24,-25.22 70.65,-25.07 78.84,-31.79 81.24,-25.22"/>
</g>
<!-- Node8 -->
<g id="node8" class="node">
<title>Node8</title>
<g id="a_node8"><a xlink:href="../../dd/d4e/_input_handler__config_8h.html" target="_top" xlink:title="InputHandler library user configurable items.">
<polygon fill="none" stroke="black" points="96.5,-6 96.5,-25 206.5,-25 206.5,-6 96.5,-6"/>
<text text-anchor="middle" x="151.5" y="-13" font-family="Helvetica,sans-Serif" font-size="10.00">InputHandler_config.h</text>
</a>
</g>
</g>
<!-- Node6&#45;&gt;Node8 -->
<g id="edge7" class="edge">
<title>Node6&#45;&gt;Node8</title>
<path fill="none" stroke="midnightblue" d="M257.99,-67.4C234.34,-56.09 201.42,-40.36 178.47,-29.39"/>
<polygon fill="midnightblue" stroke="midnightblue" points="179.83,-26.16 169.3,-25.01 176.81,-32.48 179.83,-26.16"/>
</g>
<!-- Node9 -->
<g id="node9" class="node">
<title>Node9</title>
<g id="a_node9"><a xlink:href="../../d3/dcd/_input_handler__portability_8h.html" target="_top" xlink:title="InputHandler library portability directives.">
<polygon fill="none" stroke="black" points="224.5,-6 224.5,-25 350.5,-25 350.5,-6 224.5,-6"/>
<text text-anchor="middle" x="287.5" y="-13" font-family="Helvetica,sans-Serif" font-size="10.00">InputHandler_portability.h</text>
</a>
</g>
</g>
<!-- Node6&#45;&gt;Node9 -->
<g id="edge8" class="edge">
<title>Node6&#45;&gt;Node9</title>
<path fill="none" stroke="midnightblue" d="M287.5,-67.4C287.5,-58.06 287.5,-45.71 287.5,-35.52"/>
<polygon fill="midnightblue" stroke="midnightblue" points="291,-35.19 287.5,-25.19 284,-35.19 291,-35.19"/>
</g>
<!-- Node10 -->
<g id="node10" class="node">
<title>Node10</title>
<g id="a_node10"><a xlink:href="../../d1/d39/_input_handler__functionlike__macros_8h.html" target="_top" xlink:title="InputHandler library function&#45;like macros.">
<polygon fill="none" stroke="black" points="369,-0.5 369,-30.5 496,-30.5 496,-0.5 369,-0.5"/>
<text text-anchor="start" x="377" y="-18.5" font-family="Helvetica,sans-Serif" font-size="10.00">InputHandler_functionlike</text>
<text text-anchor="middle" x="432.5" y="-7.5" font-family="Helvetica,sans-Serif" font-size="10.00">_macros.h</text>
</a>
</g>
</g>
<!-- Node6&#45;&gt;Node10 -->
<g id="edge9" class="edge">
<title>Node6&#45;&gt;Node10</title>
<path fill="none" stroke="midnightblue" d="M318.96,-67.4C340.34,-57.81 368.81,-45.05 391.9,-34.7"/>
<polygon fill="midnightblue" stroke="midnightblue" points="393.41,-37.86 401.1,-30.58 390.54,-31.47 393.41,-37.86"/>
</g>
<!-- Node11 -->
<g id="node11" class="node">
<title>Node11</title>
<g id="a_node11"><a xlink:href="../../df/d25/_input_handler___p_r_o_g_m_e_m__settings_8h.html" target="_top" xlink:title="InputHandler library PROGMEM settings.">
<polygon fill="none" stroke="black" points="514.5,-0.5 514.5,-30.5 642.5,-30.5 642.5,-0.5 514.5,-0.5"/>
<text text-anchor="start" x="522.5" y="-18.5" font-family="Helvetica,sans-Serif" font-size="10.00">InputHandler_PROGMEM</text>
<text text-anchor="middle" x="578.5" y="-7.5" font-family="Helvetica,sans-Serif" font-size="10.00">_settings.h</text>
</a>
</g>
</g>
<!-- Node6&#45;&gt;Node11 -->
<g id="edge10" class="edge">
<title>Node6&#45;&gt;Node11</title>
<path fill="none" stroke="midnightblue" d="M338.19,-70.18C384.54,-59.82 453.63,-44.39 505.85,-32.73"/>
<polygon fill="midnightblue" stroke="midnightblue" points="506.73,-36.12 515.73,-30.52 505.2,-29.29 506.73,-36.12"/>
</g>
</g>
</svg>
