<?xml version="1.0" encoding="UTF-8" standalone="no"?>
<!DOCTYPE svg PUBLIC "-//W3C//DTD SVG 1.1//EN"
 "http://www.w3.org/Graphics/SVG/1.1/DTD/svg11.dtd">
<!-- Generated by graphviz version 3.0.0 (20220413.0106)
 -->
<!-- Title: examples/all_platforms/basic/ReadCommandFromBufferMQTT/ReadCommandFromBufferMQTT.ino Pages: 1 -->
<svg width="346pt" height="229pt"
 viewBox="0.00 0.00 346.00 229.00" xmlns="http://www.w3.org/2000/svg" xmlns:xlink="http://www.w3.org/1999/xlink">
<g id="graph0" class="graph" transform="scale(1 1) rotate(0) translate(4 225)">
<title>examples/all_platforms/basic/ReadCommandFromBufferMQTT/ReadCommandFromBufferMQTT.ino</title>
<!-- Node1 -->
<g id="node1" class="node">
<title>Node1</title>
<g id="a_node1"><a xlink:title="An example that demonstrates receiving commands and sending an echo over MQTT.">
<polygon fill="#bfbfbf" stroke="black" points="38,-179.5 38,-220.5 243,-220.5 243,-179.5 38,-179.5"/>
<text text-anchor="start" x="46" y="-208.5" font-family="Helvetica,sans-Serif" font-size="10.00">examples/all_platforms</text>
<text text-anchor="start" x="46" y="-197.5" font-family="Helvetica,sans-Serif" font-size="10.00">/basic/ReadCommandFromBuffer</text>
<text text-anchor="middle" x="140.5" y="-186.5" font-family="Helvetica,sans-Serif" font-size="10.00">MQTT/ReadCommandFromBufferMQTT.ino</text>
</a>
</g>
</g>
<!-- Node2 -->
<g id="node2" class="node">
<title>Node2</title>
<g id="a_node2"><a xlink:title=" ">
<polygon fill="none" stroke="#bfbfbf" points="0,-123.5 0,-142.5 41,-142.5 41,-123.5 0,-123.5"/>
<text text-anchor="middle" x="20.5" y="-130.5" font-family="Helvetica,sans-Serif" font-size="10.00">SPI.h</text>
</a>
</g>
</g>
<!-- Node1&#45;&gt;Node2 -->
<g id="edge1" class="edge">
<title>Node1&#45;&gt;Node2</title>
<path fill="none" stroke="midnightblue" d="M104.5,-179.5C85.39,-169.15 62.4,-156.69 45.3,-147.43"/>
<polygon fill="midnightblue" stroke="midnightblue" points="46.93,-144.34 36.47,-142.65 43.6,-150.49 46.93,-144.34"/>
</g>
<!-- Node3 -->
<g id="node3" class="node">
<title>Node3</title>
<g id="a_node3"><a xlink:title=" ">
<polygon fill="none" stroke="#bfbfbf" points="59.5,-123.5 59.5,-142.5 127.5,-142.5 127.5,-123.5 59.5,-123.5"/>
<text text-anchor="middle" x="93.5" y="-130.5" font-family="Helvetica,sans-Serif" font-size="10.00">WiFiNINA.h</text>
</a>
</g>
</g>
<!-- Node1&#45;&gt;Node3 -->
<g id="edge2" class="edge">
<title>Node1&#45;&gt;Node3</title>
<path fill="none" stroke="midnightblue" d="M126.4,-179.5C119.82,-170.39 112.06,-159.66 105.73,-150.91"/>
<polygon fill="midnightblue" stroke="midnightblue" points="108.45,-148.71 99.76,-142.65 102.78,-152.81 108.45,-148.71"/>
</g>
<!-- Node4 -->
<g id="node4" class="node">
<title>Node4</title>
<g id="a_node4"><a xlink:title=" ">
<polygon fill="none" stroke="#bfbfbf" points="146,-123.5 146,-142.5 229,-142.5 229,-123.5 146,-123.5"/>
<text text-anchor="middle" x="187.5" y="-130.5" font-family="Helvetica,sans-Serif" font-size="10.00">PubSubClient.h</text>
</a>
</g>
</g>
<!-- Node1&#45;&gt;Node4 -->
<g id="edge3" class="edge">
<title>Node1&#45;&gt;Node4</title>
<path fill="none" stroke="midnightblue" d="M154.6,-179.5C161.18,-170.39 168.94,-159.66 175.27,-150.91"/>
<polygon fill="midnightblue" stroke="midnightblue" points="178.22,-152.81 181.24,-142.65 172.55,-148.71 178.22,-152.81"/>
</g>
<!-- Node5 -->
<g id="node5" class="node">
<title>Node5</title>
<g id="a_node5"><a xlink:href="../../df/dec/_input_handler_8h.html" target="_top" xlink:title="InputHandler library header file.">
<polygon fill="none" stroke="black" points="247.5,-123.5 247.5,-142.5 327.5,-142.5 327.5,-123.5 247.5,-123.5"/>
<text text-anchor="middle" x="287.5" y="-130.5" font-family="Helvetica,sans-Serif" font-size="10.00">InputHandler.h</text>
</a>
</g>
</g>
<!-- Node1&#45;&gt;Node5 -->
<g id="edge4" class="edge">
<title>Node1&#45;&gt;Node5</title>
<path fill="none" stroke="midnightblue" d="M184.6,-179.5C208.55,-168.91 237.48,-156.12 258.56,-146.8"/>
<polygon fill="midnightblue" stroke="midnightblue" points="260.2,-149.9 267.93,-142.65 257.37,-143.5 260.2,-149.9"/>
</g>
<!-- Node6 -->
<g id="node6" class="node">
<title>Node6</title>
<g id="a_node6"><a xlink:href="../../dd/d4e/_input_handler__config_8h.html" target="_top" xlink:title="InputHandler library configuration file.">
<polygon fill="none" stroke="black" points="237,-56.5 237,-86.5 338,-86.5 338,-56.5 237,-56.5"/>
<text text-anchor="start" x="245" y="-74.5" font-family="Helvetica,sans-Serif" font-size="10.00">config/InputHandler</text>
<text text-anchor="middle" x="287.5" y="-63.5" font-family="Helvetica,sans-Serif" font-size="10.00">_config.h</text>
</a>
</g>
</g>
<!-- Node5&#45;&gt;Node6 -->
<g id="edge5" class="edge">
<title>Node5&#45;&gt;Node6</title>
<path fill="none" stroke="midnightblue" d="M287.5,-123.48C287.5,-116.47 287.5,-106.19 287.5,-96.7"/>
<polygon fill="midnightblue" stroke="midnightblue" points="291,-96.52 287.5,-86.52 284,-96.52 291,-96.52"/>
</g>
<!-- Node7 -->
<g id="node7" class="node">
<title>Node7</title>
<g id="a_node7"><a xlink:title=" ">
<polygon fill="none" stroke="#bfbfbf" points="259,-0.5 259,-19.5 316,-19.5 316,-0.5 259,-0.5"/>
<text text-anchor="middle" x="287.5" y="-7.5" font-family="Helvetica,sans-Serif" font-size="10.00">Arduino.h</text>
</a>
</g>
</g>
<!-- Node6&#45;&gt;Node7 -->
<g id="edge6" class="edge">
<title>Node6&#45;&gt;Node7</title>
<path fill="none" stroke="midnightblue" d="M287.5,-56.4C287.5,-48.47 287.5,-38.46 287.5,-29.86"/>
<polygon fill="midnightblue" stroke="midnightblue" points="291,-29.66 287.5,-19.66 284,-29.66 291,-29.66"/>
</g>
</g>
</svg>
