<?xml version="1.0" encoding="UTF-8" standalone="no"?>
<!DOCTYPE svg PUBLIC "-//W3C//DTD SVG 1.1//EN"
 "http://www.w3.org/Graphics/SVG/1.1/DTD/svg11.dtd">
<!-- Generated by graphviz version 3.0.0 (20220413.0106)
 -->
<!-- Title: examples/all_platforms/advanced/NMEAparser/NMEAparser.ino Pages: 1 -->
<svg width="280pt" height="386pt"
 viewBox="0.00 0.00 279.50 386.00" xmlns="http://www.w3.org/2000/svg" xmlns:xlink="http://www.w3.org/1999/xlink">
<g id="graph0" class="graph" transform="scale(1 1) rotate(0) translate(4 382)">
<title>examples/all_platforms/advanced/NMEAparser/NMEAparser.ino</title>
<!-- Node1 -->
<g id="node1" class="node">
<title>Node1</title>
<g id="a_node1"><a xlink:title="An example that demonstrates how to use InputHandler&#39;s public methods to parse NMEA 0183 sentences.">
<polygon fill="#bfbfbf" stroke="black" points="0,-347.5 0,-377.5 194,-377.5 194,-347.5 0,-347.5"/>
<text text-anchor="start" x="8" y="-365.5" font-family="Helvetica,sans-Serif" font-size="10.00">examples/all_platforms</text>
<text text-anchor="middle" x="97" y="-354.5" font-family="Helvetica,sans-Serif" font-size="10.00">/advanced/NMEAparser/NMEAparser.ino</text>
</a>
</g>
</g>
<!-- Node2 -->
<g id="node2" class="node">
<title>Node2</title>
<g id="a_node2"><a xlink:href="../../df/dec/_input_handler_8h.html" target="_top" xlink:title="InputHandler library header file.">
<polygon fill="none" stroke="black" points="73,-123.5 73,-142.5 153,-142.5 153,-123.5 73,-123.5"/>
<text text-anchor="middle" x="113" y="-130.5" font-family="Helvetica,sans-Serif" font-size="10.00">InputHandler.h</text>
</a>
</g>
</g>
<!-- Node1&#45;&gt;Node2 -->
<g id="edge1" class="edge">
<title>Node1&#45;&gt;Node2</title>
<path fill="none" stroke="midnightblue" d="M89,-347.44C83.87,-337.59 77.69,-323.92 75,-311 62.9,-252.95 89.28,-184.32 103.99,-152.24"/>
<polygon fill="midnightblue" stroke="midnightblue" points="107.33,-153.37 108.46,-142.83 101,-150.36 107.33,-153.37"/>
</g>
<!-- Node5 -->
<g id="node5" class="node">
<title>Node5</title>
<g id="a_node5"><a xlink:href="../../da/d60/_n_m_e_aparser_8h.html" target="_top" xlink:title="a class to assist in parsing NMEA 0183 strings">
<polygon fill="none" stroke="black" points="84,-291.5 84,-310.5 194,-310.5 194,-291.5 84,-291.5"/>
<text text-anchor="middle" x="139" y="-298.5" font-family="Helvetica,sans-Serif" font-size="10.00">parser/NMEAparser.h</text>
</a>
</g>
</g>
<!-- Node1&#45;&gt;Node5 -->
<g id="edge4" class="edge">
<title>Node1&#45;&gt;Node5</title>
<path fill="none" stroke="midnightblue" d="M106.95,-347.4C112.99,-338.84 120.74,-327.87 127.1,-318.86"/>
<polygon fill="midnightblue" stroke="midnightblue" points="129.98,-320.85 132.89,-310.66 124.26,-316.81 129.98,-320.85"/>
</g>
<!-- Node3 -->
<g id="node3" class="node">
<title>Node3</title>
<g id="a_node3"><a xlink:href="../../dd/d4e/_input_handler__config_8h.html" target="_top" xlink:title="InputHandler library configuration file.">
<polygon fill="none" stroke="black" points="62.5,-56.5 62.5,-86.5 163.5,-86.5 163.5,-56.5 62.5,-56.5"/>
<text text-anchor="start" x="70.5" y="-74.5" font-family="Helvetica,sans-Serif" font-size="10.00">config/InputHandler</text>
<text text-anchor="middle" x="113" y="-63.5" font-family="Helvetica,sans-Serif" font-size="10.00">_config.h</text>
</a>
</g>
</g>
<!-- Node2&#45;&gt;Node3 -->
<g id="edge2" class="edge">
<title>Node2&#45;&gt;Node3</title>
<path fill="none" stroke="midnightblue" d="M113,-123.48C113,-116.47 113,-106.19 113,-96.7"/>
<polygon fill="midnightblue" stroke="midnightblue" points="116.5,-96.52 113,-86.52 109.5,-96.52 116.5,-96.52"/>
</g>
<!-- Node4 -->
<g id="node4" class="node">
<title>Node4</title>
<g id="a_node4"><a xlink:title=" ">
<polygon fill="none" stroke="#bfbfbf" points="84.5,-0.5 84.5,-19.5 141.5,-19.5 141.5,-0.5 84.5,-0.5"/>
<text text-anchor="middle" x="113" y="-7.5" font-family="Helvetica,sans-Serif" font-size="10.00">Arduino.h</text>
</a>
</g>
</g>
<!-- Node3&#45;&gt;Node4 -->
<g id="edge3" class="edge">
<title>Node3&#45;&gt;Node4</title>
<path fill="none" stroke="midnightblue" d="M113,-56.4C113,-48.47 113,-38.46 113,-29.86"/>
<polygon fill="midnightblue" stroke="midnightblue" points="116.5,-29.66 113,-19.66 109.5,-29.66 116.5,-29.66"/>
</g>
<!-- Node5&#45;&gt;Node2 -->
<g id="edge5" class="edge">
<title>Node5&#45;&gt;Node2</title>
<path fill="none" stroke="midnightblue" d="M132.11,-291.32C125.73,-282.68 116.69,-268.77 113,-255 103.56,-219.79 106.92,-176.72 110.06,-152.62"/>
<polygon fill="midnightblue" stroke="midnightblue" points="113.53,-153.1 111.49,-142.71 106.6,-152.11 113.53,-153.1"/>
</g>
<!-- Node6 -->
<g id="node6" class="node">
<title>Node6</title>
<g id="a_node6"><a xlink:href="../../da/dff/_n_m_e_asentenceparam_8h.html" target="_top" xlink:title="NMEA 0183 sentence CommandParameters structs.">
<polygon fill="none" stroke="black" points="122.5,-235.5 122.5,-254.5 241.5,-254.5 241.5,-235.5 122.5,-235.5"/>
<text text-anchor="middle" x="182" y="-242.5" font-family="Helvetica,sans-Serif" font-size="10.00">NMEAsentenceparam.h</text>
</a>
</g>
</g>
<!-- Node5&#45;&gt;Node6 -->
<g id="edge6" class="edge">
<title>Node5&#45;&gt;Node6</title>
<path fill="none" stroke="midnightblue" d="M146.1,-291.08C152.24,-283.38 161.27,-272.03 168.74,-262.65"/>
<polygon fill="midnightblue" stroke="midnightblue" points="171.54,-264.75 175.03,-254.75 166.06,-260.39 171.54,-264.75"/>
</g>
<!-- Node6&#45;&gt;Node2 -->
<g id="edge7" class="edge">
<title>Node6&#45;&gt;Node2</title>
<path fill="none" stroke="midnightblue" d="M175.63,-235.17C169.22,-226.19 159.14,-211.81 151,-199 140.94,-183.18 130.23,-164.68 122.75,-151.47"/>
<polygon fill="midnightblue" stroke="midnightblue" points="125.67,-149.54 117.72,-142.53 119.57,-152.97 125.67,-149.54"/>
</g>
<!-- Node7 -->
<g id="node7" class="node">
<title>Node7</title>
<g id="a_node7"><a xlink:href="../../d2/d20/_n_m_e_asentencefunc_8h.html" target="_top" xlink:title="NMEA 0183 sentence functions.">
<polygon fill="none" stroke="black" points="160.5,-179.5 160.5,-198.5 271.5,-198.5 271.5,-179.5 160.5,-179.5"/>
<text text-anchor="middle" x="216" y="-186.5" font-family="Helvetica,sans-Serif" font-size="10.00">NMEAsentencefunc.h</text>
</a>
</g>
</g>
<!-- Node6&#45;&gt;Node7 -->
<g id="edge8" class="edge">
<title>Node6&#45;&gt;Node7</title>
<path fill="none" stroke="midnightblue" d="M187.61,-235.08C192.37,-227.53 199.32,-216.49 205.15,-207.23"/>
<polygon fill="midnightblue" stroke="midnightblue" points="208.12,-209.08 210.49,-198.75 202.2,-205.35 208.12,-209.08"/>
</g>
<!-- Node7&#45;&gt;Node2 -->
<g id="edge9" class="edge">
<title>Node7&#45;&gt;Node2</title>
<path fill="none" stroke="midnightblue" d="M199.45,-179.32C183.01,-170.7 157.57,-157.36 138.53,-147.39"/>
<polygon fill="midnightblue" stroke="midnightblue" points="139.99,-144.2 129.51,-142.65 136.74,-150.4 139.99,-144.2"/>
</g>
</g>
</svg>
