<?xml version="1.0" encoding="UTF-8" standalone="no"?>
<!DOCTYPE svg PUBLIC "-//W3C//DTD SVG 1.1//EN"
 "http://www.w3.org/Graphics/SVG/1.1/DTD/svg11.dtd">
<!-- Generated by graphviz version 5.0.1 (20220820.1526)
 -->
<!-- Title: examples/all_platforms/advanced/NMEAparser/NMEAparser.ino Pages: 1 -->
<svg width="280pt" height="368pt"
 viewBox="0.00 0.00 279.50 368.00" xmlns="http://www.w3.org/2000/svg" xmlns:xlink="http://www.w3.org/1999/xlink">
<g id="graph0" class="graph" transform="scale(1 1) rotate(0) translate(4 364)">
<title>examples/all_platforms/advanced/NMEAparser/NMEAparser.ino</title>
<!-- Node1 -->
<g id="node1" class="node">
<title>Node1</title>
<g id="a_node1"><a xlink:title="An example that demonstrates how to use InputHandler&#39;s public methods to parse NMEA 0183 sentences.">
<polygon fill="#999999" stroke="#666666" points="194,-360 0,-360 0,-330 194,-330 194,-360"/>
<text text-anchor="start" x="8" y="-348" font-family="Helvetica,sans-Serif" font-size="10.00">examples/all_platforms</text>
<text text-anchor="middle" x="97" y="-337" font-family="Helvetica,sans-Serif" font-size="10.00">/advanced/NMEAparser/NMEAparser.ino</text>
</a>
</g>
</g>
<!-- Node2 -->
<g id="node2" class="node">
<title>Node2</title>
<g id="a_node2"><a xlink:href="../../df/dec/_input_handler_8h.html" target="_top" xlink:title="InputHandler library header file.">
<polygon fill="white" stroke="#666666" points="153,-129 73,-129 73,-110 153,-110 153,-129"/>
<text text-anchor="middle" x="113" y="-117" font-family="Helvetica,sans-Serif" font-size="10.00">InputHandler.h</text>
</a>
</g>
</g>
<!-- Node1&#45;&gt;Node2 -->
<g id="edge1" class="edge">
<title>Node1&#45;&gt;Node2</title>
<path fill="none" stroke="#63b8ff" d="M88.78,-329.66C83.7,-319.94 77.65,-306.62 75,-294 63.03,-237.07 89.34,-169.81 104.01,-138.38"/>
<polygon fill="#63b8ff" stroke="#63b8ff" points="107.27,-139.68 108.47,-129.15 100.97,-136.64 107.27,-139.68"/>
</g>
<!-- Node6 -->
<g id="node6" class="node">
<title>Node6</title>
<g id="a_node6"><a xlink:href="../../da/d60/_n_m_e_aparser_8h.html" target="_top" xlink:title="a class to assist in parsing NMEA 0183 strings">
<polygon fill="white" stroke="#666666" points="194,-294 84,-294 84,-275 194,-275 194,-294"/>
<text text-anchor="middle" x="139" y="-282" font-family="Helvetica,sans-Serif" font-size="10.00">parser/NMEAparser.h</text>
</a>
</g>
</g>
<!-- Node1&#45;&gt;Node6 -->
<g id="edge5" class="edge">
<title>Node1&#45;&gt;Node6</title>
<path fill="none" stroke="#63b8ff" d="M107.17,-329.84C113.08,-321.61 120.56,-311.18 126.79,-302.51"/>
<polygon fill="#63b8ff" stroke="#63b8ff" points="129.72,-304.43 132.71,-294.27 124.03,-300.35 129.72,-304.43"/>
</g>
<!-- Node3 -->
<g id="node3" class="node">
<title>Node3</title>
<g id="a_node3"><a xlink:href="../../da/dc7/noedit_8h.html" target="_top" xlink:title="InputHandler library C includes, do not edit.">
<polygon fill="white" stroke="#666666" points="152.5,-74 73.5,-74 73.5,-55 152.5,-55 152.5,-74"/>
<text text-anchor="middle" x="113" y="-62" font-family="Helvetica,sans-Serif" font-size="10.00">config/noedit.h</text>
</a>
</g>
</g>
<!-- Node2&#45;&gt;Node3 -->
<g id="edge2" class="edge">
<title>Node2&#45;&gt;Node3</title>
<path fill="none" stroke="#63b8ff" d="M113,-109.75C113,-102.8 113,-92.85 113,-84.13"/>
<polygon fill="#63b8ff" stroke="#63b8ff" points="116.5,-84.09 113,-74.09 109.5,-84.09 116.5,-84.09"/>
</g>
<!-- Node4 -->
<g id="node4" class="node">
<title>Node4</title>
<g id="a_node4"><a xlink:title=" ">
<polygon fill="#e0e0e0" stroke="#999999" points="105.5,-19 48.5,-19 48.5,0 105.5,0 105.5,-19"/>
<text text-anchor="middle" x="77" y="-7" font-family="Helvetica,sans-Serif" font-size="10.00">Arduino.h</text>
</a>
</g>
</g>
<!-- Node3&#45;&gt;Node4 -->
<g id="edge3" class="edge">
<title>Node3&#45;&gt;Node4</title>
<path fill="none" stroke="#63b8ff" d="M107.06,-54.75C102.02,-47.34 94.66,-36.5 88.49,-27.41"/>
<polygon fill="#63b8ff" stroke="#63b8ff" points="91.35,-25.39 82.83,-19.09 85.56,-29.33 91.35,-25.39"/>
</g>
<!-- Node5 -->
<g id="node5" class="node">
<title>Node5</title>
<g id="a_node5"><a xlink:href="../../db/d16/config_8h.html" target="_top" xlink:title="InputHandler library user configurable items.">
<polygon fill="white" stroke="#666666" points="174,-19 124,-19 124,0 174,0 174,-19"/>
<text text-anchor="middle" x="149" y="-7" font-family="Helvetica,sans-Serif" font-size="10.00">config.h</text>
</a>
</g>
</g>
<!-- Node3&#45;&gt;Node5 -->
<g id="edge4" class="edge">
<title>Node3&#45;&gt;Node5</title>
<path fill="none" stroke="#63b8ff" d="M118.94,-54.75C123.98,-47.34 131.34,-36.5 137.51,-27.41"/>
<polygon fill="#63b8ff" stroke="#63b8ff" points="140.44,-29.33 143.17,-19.09 134.65,-25.39 140.44,-29.33"/>
</g>
<!-- Node6&#45;&gt;Node2 -->
<g id="edge6" class="edge">
<title>Node6&#45;&gt;Node2</title>
<path fill="none" stroke="#63b8ff" d="M132.11,-274.93C125.73,-266.4 116.69,-252.65 113,-239 103.71,-204.7 106.96,-162.74 110.05,-139.07"/>
<polygon fill="#63b8ff" stroke="#63b8ff" points="113.54,-139.43 111.5,-129.03 106.61,-138.43 113.54,-139.43"/>
</g>
<!-- Node7 -->
<g id="node7" class="node">
<title>Node7</title>
<g id="a_node7"><a xlink:href="../../da/dff/_n_m_e_asentenceparam_8h.html" target="_top" xlink:title="NMEA 0183 sentence CommandParameters structs.">
<polygon fill="white" stroke="#666666" points="241.5,-239 122.5,-239 122.5,-220 241.5,-220 241.5,-239"/>
<text text-anchor="middle" x="182" y="-227" font-family="Helvetica,sans-Serif" font-size="10.00">NMEAsentenceparam.h</text>
</a>
</g>
</g>
<!-- Node6&#45;&gt;Node7 -->
<g id="edge7" class="edge">
<title>Node6&#45;&gt;Node7</title>
<path fill="none" stroke="#63b8ff" d="M146.1,-274.75C152.17,-267.26 161.09,-256.28 168.51,-247.13"/>
<polygon fill="#63b8ff" stroke="#63b8ff" points="171.45,-249.06 175.03,-239.09 166.01,-244.65 171.45,-249.06"/>
</g>
<!-- Node7&#45;&gt;Node2 -->
<g id="edge8" class="edge">
<title>Node7&#45;&gt;Node2</title>
<path fill="none" stroke="#63b8ff" d="M175.64,-219.76C169.24,-210.87 159.18,-196.65 151,-184 141.11,-168.7 130.51,-150.86 123.03,-137.99"/>
<polygon fill="#63b8ff" stroke="#63b8ff" points="126.01,-136.15 117.98,-129.24 119.95,-139.65 126.01,-136.15"/>
</g>
<!-- Node8 -->
<g id="node8" class="node">
<title>Node8</title>
<g id="a_node8"><a xlink:href="../../d2/d20/_n_m_e_asentencefunc_8h.html" target="_top" xlink:title="NMEA 0183 sentence functions.">
<polygon fill="white" stroke="#666666" points="271.5,-184 160.5,-184 160.5,-165 271.5,-165 271.5,-184"/>
<text text-anchor="middle" x="216" y="-172" font-family="Helvetica,sans-Serif" font-size="10.00">NMEAsentencefunc.h</text>
</a>
</g>
</g>
<!-- Node7&#45;&gt;Node8 -->
<g id="edge9" class="edge">
<title>Node7&#45;&gt;Node8</title>
<path fill="none" stroke="#63b8ff" d="M187.61,-219.75C192.32,-212.42 199.17,-201.73 204.97,-192.7"/>
<polygon fill="#63b8ff" stroke="#63b8ff" points="208.04,-194.4 210.49,-184.09 202.14,-190.62 208.04,-194.4"/>
</g>
<!-- Node8&#45;&gt;Node2 -->
<g id="edge10" class="edge">
<title>Node8&#45;&gt;Node2</title>
<path fill="none" stroke="#63b8ff" d="M199.45,-164.98C183.11,-156.57 157.87,-143.59 138.87,-133.81"/>
<polygon fill="#63b8ff" stroke="#63b8ff" points="140.34,-130.63 129.85,-129.17 137.14,-136.86 140.34,-130.63"/>
</g>
</g>
</svg>
