<?xml version="1.0" encoding="UTF-8" standalone="no"?>
<!DOCTYPE svg PUBLIC "-//W3C//DTD SVG 1.1//EN"
 "http://www.w3.org/Graphics/SVG/1.1/DTD/svg11.dtd">
<!-- Generated by graphviz version 3.0.0 (20220413.0106)
 -->
<!-- Title: examples/all_platforms/advanced/NMEAparser/NMEAparser.ino Pages: 1 -->
<svg width="502pt" height="397pt"
 viewBox="0.00 0.00 501.50 397.00" xmlns="http://www.w3.org/2000/svg" xmlns:xlink="http://www.w3.org/1999/xlink">
<g id="graph0" class="graph" transform="scale(1 1) rotate(0) translate(4 393)">
<title>examples/all_platforms/advanced/NMEAparser/NMEAparser.ino</title>
<!-- Node1 -->
<g id="node1" class="node">
<title>Node1</title>
<g id="a_node1"><a xlink:title="An example that demonstrates how to use InputHandler&#39;s public methods to parse NMEA 0183 sentences.">
<polygon fill="#bfbfbf" stroke="black" points="97.5,-358.5 97.5,-388.5 291.5,-388.5 291.5,-358.5 97.5,-358.5"/>
<text text-anchor="start" x="105.5" y="-376.5" font-family="Helvetica,sans-Serif" font-size="10.00">examples/all_platforms</text>
<text text-anchor="middle" x="194.5" y="-365.5" font-family="Helvetica,sans-Serif" font-size="10.00">/advanced/NMEAparser/NMEAparser.ino</text>
</a>
</g>
</g>
<!-- Node2 -->
<g id="node2" class="node">
<title>Node2</title>
<g id="a_node2"><a xlink:href="../../df/dec/_input_handler_8h.html" target="_top" xlink:title="InputHandler library header file.">
<polygon fill="none" stroke="black" points="170.5,-134.5 170.5,-153.5 250.5,-153.5 250.5,-134.5 170.5,-134.5"/>
<text text-anchor="middle" x="210.5" y="-141.5" font-family="Helvetica,sans-Serif" font-size="10.00">InputHandler.h</text>
</a>
</g>
</g>
<!-- Node1&#45;&gt;Node2 -->
<g id="edge1" class="edge">
<title>Node1&#45;&gt;Node2</title>
<path fill="none" stroke="midnightblue" d="M186.5,-358.44C181.37,-348.59 175.19,-334.92 172.5,-322 160.4,-263.95 186.78,-195.32 201.49,-163.24"/>
<polygon fill="midnightblue" stroke="midnightblue" points="204.83,-164.37 205.96,-153.83 198.5,-161.36 204.83,-164.37"/>
</g>
<!-- Node8 -->
<g id="node8" class="node">
<title>Node8</title>
<g id="a_node8"><a xlink:href="../../da/d60/_n_m_e_aparser_8h.html" target="_top" xlink:title="a class to assist in parsing NMEA 0183 strings">
<polygon fill="none" stroke="black" points="181.5,-302.5 181.5,-321.5 291.5,-321.5 291.5,-302.5 181.5,-302.5"/>
<text text-anchor="middle" x="236.5" y="-309.5" font-family="Helvetica,sans-Serif" font-size="10.00">parser/NMEAparser.h</text>
</a>
</g>
</g>
<!-- Node1&#45;&gt;Node8 -->
<g id="edge7" class="edge">
<title>Node1&#45;&gt;Node8</title>
<path fill="none" stroke="midnightblue" d="M204.45,-358.4C210.49,-349.84 218.24,-338.87 224.6,-329.86"/>
<polygon fill="midnightblue" stroke="midnightblue" points="227.48,-331.85 230.39,-321.66 221.76,-327.81 227.48,-331.85"/>
</g>
<!-- Node3 -->
<g id="node3" class="node">
<title>Node3</title>
<g id="a_node3"><a xlink:href="../../dd/d4e/_input_handler__config_8h.html" target="_top" xlink:title="InputHandler library configuration file.">
<polygon fill="none" stroke="black" points="160,-67.5 160,-97.5 261,-97.5 261,-67.5 160,-67.5"/>
<text text-anchor="start" x="168" y="-85.5" font-family="Helvetica,sans-Serif" font-size="10.00">config/InputHandler</text>
<text text-anchor="middle" x="210.5" y="-74.5" font-family="Helvetica,sans-Serif" font-size="10.00">_config.h</text>
</a>
</g>
</g>
<!-- Node2&#45;&gt;Node3 -->
<g id="edge2" class="edge">
<title>Node2&#45;&gt;Node3</title>
<path fill="none" stroke="midnightblue" d="M210.5,-134.48C210.5,-127.47 210.5,-117.19 210.5,-107.7"/>
<polygon fill="midnightblue" stroke="midnightblue" points="214,-107.52 210.5,-97.52 207,-107.52 214,-107.52"/>
</g>
<!-- Node4 -->
<g id="node4" class="node">
<title>Node4</title>
<g id="a_node4"><a xlink:title=" ">
<polygon fill="none" stroke="#bfbfbf" points="0,-6 0,-25 57,-25 57,-6 0,-6"/>
<text text-anchor="middle" x="28.5" y="-13" font-family="Helvetica,sans-Serif" font-size="10.00">Arduino.h</text>
</a>
</g>
</g>
<!-- Node3&#45;&gt;Node4 -->
<g id="edge3" class="edge">
<title>Node3&#45;&gt;Node4</title>
<path fill="none" stroke="midnightblue" d="M169.43,-67.43C140.56,-57.46 101.08,-43.66 66.5,-31 64.4,-30.23 62.24,-29.43 60.06,-28.62"/>
<polygon fill="midnightblue" stroke="midnightblue" points="61.16,-25.29 50.57,-25.04 58.69,-31.84 61.16,-25.29"/>
</g>
<!-- Node5 -->
<g id="node5" class="node">
<title>Node5</title>
<g id="a_node5"><a xlink:href="../../d3/dcd/_input_handler__portability_8h.html" target="_top" xlink:title=" ">
<polygon fill="none" stroke="black" points="75.5,-6 75.5,-25 201.5,-25 201.5,-6 75.5,-6"/>
<text text-anchor="middle" x="138.5" y="-13" font-family="Helvetica,sans-Serif" font-size="10.00">InputHandler_portability.h</text>
</a>
</g>
</g>
<!-- Node3&#45;&gt;Node5 -->
<g id="edge4" class="edge">
<title>Node3&#45;&gt;Node5</title>
<path fill="none" stroke="midnightblue" d="M194.88,-67.4C183.32,-56.96 167.58,-42.75 155.67,-32"/>
<polygon fill="midnightblue" stroke="midnightblue" points="157.9,-29.3 148.13,-25.19 153.21,-34.49 157.9,-29.3"/>
</g>
<!-- Node6 -->
<g id="node6" class="node">
<title>Node6</title>
<g id="a_node6"><a xlink:href="../../d1/d39/_input_handler__functionlike__macros_8h.html" target="_top" xlink:title=" ">
<polygon fill="none" stroke="black" points="220,-0.5 220,-30.5 347,-30.5 347,-0.5 220,-0.5"/>
<text text-anchor="start" x="228" y="-18.5" font-family="Helvetica,sans-Serif" font-size="10.00">InputHandler_functionlike</text>
<text text-anchor="middle" x="283.5" y="-7.5" font-family="Helvetica,sans-Serif" font-size="10.00">_macros.h</text>
</a>
</g>
</g>
<!-- Node3&#45;&gt;Node6 -->
<g id="edge5" class="edge">
<title>Node3&#45;&gt;Node6</title>
<path fill="none" stroke="midnightblue" d="M226.34,-67.4C236.19,-58.62 249.04,-47.18 260.06,-37.37"/>
<polygon fill="midnightblue" stroke="midnightblue" points="262.55,-39.84 267.69,-30.58 257.9,-34.61 262.55,-39.84"/>
</g>
<!-- Node7 -->
<g id="node7" class="node">
<title>Node7</title>
<g id="a_node7"><a xlink:href="../../df/d25/_input_handler___p_r_o_g_m_e_m__settings_8h.html" target="_top" xlink:title=" ">
<polygon fill="none" stroke="black" points="365.5,-0.5 365.5,-30.5 493.5,-30.5 493.5,-0.5 365.5,-0.5"/>
<text text-anchor="start" x="373.5" y="-18.5" font-family="Helvetica,sans-Serif" font-size="10.00">InputHandler_PROGMEM</text>
<text text-anchor="middle" x="429.5" y="-7.5" font-family="Helvetica,sans-Serif" font-size="10.00">_settings.h</text>
</a>
</g>
</g>
<!-- Node3&#45;&gt;Node7 -->
<g id="edge6" class="edge">
<title>Node3&#45;&gt;Node7</title>
<path fill="none" stroke="midnightblue" d="M257.75,-67.48C291.31,-57.51 336.56,-44.09 372.18,-33.51"/>
<polygon fill="midnightblue" stroke="midnightblue" points="373.37,-36.81 381.96,-30.61 371.37,-30.1 373.37,-36.81"/>
</g>
<!-- Node8&#45;&gt;Node2 -->
<g id="edge8" class="edge">
<title>Node8&#45;&gt;Node2</title>
<path fill="none" stroke="midnightblue" d="M229.61,-302.32C223.23,-293.68 214.19,-279.77 210.5,-266 201.06,-230.79 204.42,-187.72 207.56,-163.62"/>
<polygon fill="midnightblue" stroke="midnightblue" points="211.03,-164.1 208.99,-153.71 204.1,-163.11 211.03,-164.1"/>
</g>
<!-- Node9 -->
<g id="node9" class="node">
<title>Node9</title>
<g id="a_node9"><a xlink:href="../../da/dff/_n_m_e_asentenceparam_8h.html" target="_top" xlink:title="NMEA 0183 sentence CommandParameters structs.">
<polygon fill="none" stroke="black" points="220,-246.5 220,-265.5 339,-265.5 339,-246.5 220,-246.5"/>
<text text-anchor="middle" x="279.5" y="-253.5" font-family="Helvetica,sans-Serif" font-size="10.00">NMEAsentenceparam.h</text>
</a>
</g>
</g>
<!-- Node8&#45;&gt;Node9 -->
<g id="edge9" class="edge">
<title>Node8&#45;&gt;Node9</title>
<path fill="none" stroke="midnightblue" d="M243.6,-302.08C249.74,-294.38 258.77,-283.03 266.24,-273.65"/>
<polygon fill="midnightblue" stroke="midnightblue" points="269.04,-275.75 272.53,-265.75 263.56,-271.39 269.04,-275.75"/>
</g>
<!-- Node9&#45;&gt;Node2 -->
<g id="edge10" class="edge">
<title>Node9&#45;&gt;Node2</title>
<path fill="none" stroke="midnightblue" d="M273.13,-246.17C266.72,-237.19 256.64,-222.81 248.5,-210 238.44,-194.18 227.73,-175.68 220.25,-162.47"/>
<polygon fill="midnightblue" stroke="midnightblue" points="223.17,-160.54 215.22,-153.53 217.07,-163.97 223.17,-160.54"/>
</g>
<!-- Node10 -->
<g id="node10" class="node">
<title>Node10</title>
<g id="a_node10"><a xlink:href="../../d2/d20/_n_m_e_asentencefunc_8h.html" target="_top" xlink:title="NMEA 0183 sentence functions.">
<polygon fill="none" stroke="black" points="258,-190.5 258,-209.5 369,-209.5 369,-190.5 258,-190.5"/>
<text text-anchor="middle" x="313.5" y="-197.5" font-family="Helvetica,sans-Serif" font-size="10.00">NMEAsentencefunc.h</text>
</a>
</g>
</g>
<!-- Node9&#45;&gt;Node10 -->
<g id="edge11" class="edge">
<title>Node9&#45;&gt;Node10</title>
<path fill="none" stroke="midnightblue" d="M285.11,-246.08C289.87,-238.53 296.82,-227.49 302.65,-218.23"/>
<polygon fill="midnightblue" stroke="midnightblue" points="305.62,-220.08 307.99,-209.75 299.7,-216.35 305.62,-220.08"/>
</g>
<!-- Node10&#45;&gt;Node2 -->
<g id="edge12" class="edge">
<title>Node10&#45;&gt;Node2</title>
<path fill="none" stroke="midnightblue" d="M296.95,-190.32C280.51,-181.7 255.07,-168.36 236.03,-158.39"/>
<polygon fill="midnightblue" stroke="midnightblue" points="237.49,-155.2 227.01,-153.65 234.24,-161.4 237.49,-155.2"/>
</g>
</g>
</svg>
