<?xml version="1.0" encoding="UTF-8" standalone="no"?>
<!DOCTYPE svg PUBLIC "-//W3C//DTD SVG 1.1//EN"
 "http://www.w3.org/Graphics/SVG/1.1/DTD/svg11.dtd">
<!-- Generated by graphviz version 3.0.0 (20220413.0106)
 -->
<!-- Title: src/InputHandler.h Pages: 1 -->
<svg width="305pt" height="140pt"
 viewBox="0.00 0.00 305.00 140.00" xmlns="http://www.w3.org/2000/svg" xmlns:xlink="http://www.w3.org/1999/xlink">
<g id="graph0" class="graph" transform="scale(1 1) rotate(0) translate(4 136)">
<title>src/InputHandler.h</title>
<!-- Node1 -->
<g id="node1" class="node">
<title>Node1</title>
<g id="a_node1"><a xlink:title="InputHandler library header file.">
<polygon fill="#bfbfbf" stroke="black" points="66.5,-112.5 66.5,-131.5 162.5,-131.5 162.5,-112.5 66.5,-112.5"/>
<text text-anchor="middle" x="114.5" y="-119.5" font-family="Helvetica,sans-Serif" font-size="10.00">src/InputHandler.h</text>
</a>
</g>
</g>
<!-- Node2 -->
<g id="node2" class="node">
<title>Node2</title>
<g id="a_node2"><a xlink:href="../../da/dc7/noedit_8h.html" target="_top" xlink:title="InputHandler library C includes, do not edit.">
<polygon fill="none" stroke="black" points="75,-56.5 75,-75.5 154,-75.5 154,-56.5 75,-56.5"/>
<text text-anchor="middle" x="114.5" y="-63.5" font-family="Helvetica,sans-Serif" font-size="10.00">config/noedit.h</text>
</a>
</g>
</g>
<!-- Node1&#45;&gt;Node2 -->
<g id="edge1" class="edge">
<title>Node1&#45;&gt;Node2</title>
<path fill="none" stroke="midnightblue" d="M114.5,-112.08C114.5,-105.01 114.5,-94.86 114.5,-85.99"/>
<polygon fill="midnightblue" stroke="midnightblue" points="118,-85.75 114.5,-75.75 111,-85.75 118,-85.75"/>
</g>
<!-- Node3 -->
<g id="node3" class="node">
<title>Node3</title>
<g id="a_node3"><a xlink:title=" ">
<polygon fill="none" stroke="#bfbfbf" points="0,-0.5 0,-19.5 57,-19.5 57,-0.5 0,-0.5"/>
<text text-anchor="middle" x="28.5" y="-7.5" font-family="Helvetica,sans-Serif" font-size="10.00">Arduino.h</text>
</a>
</g>
</g>
<!-- Node2&#45;&gt;Node3 -->
<g id="edge2" class="edge">
<title>Node2&#45;&gt;Node3</title>
<path fill="none" stroke="midnightblue" d="M100.68,-56.32C87.27,-47.9 66.68,-34.97 50.91,-25.07"/>
<polygon fill="midnightblue" stroke="midnightblue" points="52.61,-22.01 42.28,-19.65 48.89,-27.94 52.61,-22.01"/>
</g>
<!-- Node4 -->
<g id="node4" class="node">
<title>Node4</title>
<g id="a_node4"><a xlink:href="../../db/d16/config_8h.html" target="_top" xlink:title="InputHandler library user configurable items.">
<polygon fill="none" stroke="black" points="75.5,-0.5 75.5,-19.5 153.5,-19.5 153.5,-0.5 75.5,-0.5"/>
<text text-anchor="middle" x="114.5" y="-7.5" font-family="Helvetica,sans-Serif" font-size="10.00">config/config.h</text>
</a>
</g>
</g>
<!-- Node2&#45;&gt;Node4 -->
<g id="edge3" class="edge">
<title>Node2&#45;&gt;Node4</title>
<path fill="none" stroke="midnightblue" d="M114.5,-56.08C114.5,-49.01 114.5,-38.86 114.5,-29.99"/>
<polygon fill="midnightblue" stroke="midnightblue" points="118,-29.75 114.5,-19.75 111,-29.75 118,-29.75"/>
</g>
<!-- Node5 -->
<g id="node5" class="node">
<title>Node5</title>
<g id="a_node5"><a xlink:href="../../d5/d4a/advanced__config_8h.html" target="_top" xlink:title="InputHandler library advanced user settings.">
<polygon fill="none" stroke="black" points="172,-0.5 172,-19.5 297,-19.5 297,-0.5 172,-0.5"/>
<text text-anchor="middle" x="234.5" y="-7.5" font-family="Helvetica,sans-Serif" font-size="10.00">config/advanced_config.h</text>
</a>
</g>
</g>
<!-- Node2&#45;&gt;Node5 -->
<g id="edge4" class="edge">
<title>Node2&#45;&gt;Node5</title>
<path fill="none" stroke="midnightblue" d="M133.51,-56.44C153.09,-47.64 183.81,-33.81 206.23,-23.72"/>
<polygon fill="midnightblue" stroke="midnightblue" points="207.89,-26.81 215.57,-19.52 205.02,-20.43 207.89,-26.81"/>
</g>
</g>
</svg>
