<?xml version="1.0" encoding="UTF-8" standalone="no"?>
<!DOCTYPE svg PUBLIC "-//W3C//DTD SVG 1.1//EN"
 "http://www.w3.org/Graphics/SVG/1.1/DTD/svg11.dtd">
<!-- Generated by graphviz version 5.0.0 (20220708.1001)
 -->
<!-- Title: src/config/noedit.h Pages: 1 -->
<svg width="2619pt" height="385pt"
 viewBox="0.00 0.00 2619.00 385.00" xmlns="http://www.w3.org/2000/svg" xmlns:xlink="http://www.w3.org/1999/xlink">
<g id="graph0" class="graph" transform="scale(1 1) rotate(0) translate(4 381)">
<title>src/config/noedit.h</title>
<!-- Node1 -->
<g id="node1" class="node">
<title>Node1</title>
<g id="a_node1"><a xlink:title="InputHandler library C includes, do not edit.">
<polygon fill="#bfbfbf" stroke="black" points="1134,-357.5 1134,-376.5 1229,-376.5 1229,-357.5 1134,-357.5"/>
<text text-anchor="middle" x="1181.5" y="-364.5" font-family="Helvetica,sans-Serif" font-size="10.00">src/config/noedit.h</text>
</a>
</g>
</g>
<!-- Node2 -->
<g id="node2" class="node">
<title>Node2</title>
<g id="a_node2"><a xlink:href="../../df/dec/_input_handler_8h.html" target="_top" xlink:title="InputHandler library header file.">
<polygon fill="none" stroke="black" points="1133.5,-301.5 1133.5,-320.5 1229.5,-320.5 1229.5,-301.5 1133.5,-301.5"/>
<text text-anchor="middle" x="1181.5" y="-308.5" font-family="Helvetica,sans-Serif" font-size="10.00">src/InputHandler.h</text>
</a>
</g>
</g>
<!-- Node1&#45;&gt;Node2 -->
<g id="edge1" class="edge">
<title>Node1&#45;&gt;Node2</title>
<path fill="none" stroke="midnightblue" d="M1181.5,-346.8C1181.5,-337.91 1181.5,-327.78 1181.5,-320.75"/>
<polygon fill="midnightblue" stroke="midnightblue" points="1178,-347.08 1181.5,-357.08 1185,-347.08 1178,-347.08"/>
</g>
<!-- Node3 -->
<g id="node3" class="node">
<title>Node3</title>
<g id="a_node3"><a xlink:href="../../db/dc6/advanced_2_get_command_from_stream_2_get_command_from_stream_8ino.html" target="_top" xlink:title="An example that demonstrates how to retrieve type&#45;valid arguments from a Stream.">
<polygon fill="none" stroke="black" points="0,-223.5 0,-264.5 179,-264.5 179,-223.5 0,-223.5"/>
<text text-anchor="start" x="8" y="-252.5" font-family="Helvetica,sans-Serif" font-size="10.00">examples/all_platforms</text>
<text text-anchor="start" x="8" y="-241.5" font-family="Helvetica,sans-Serif" font-size="10.00">/advanced/GetCommandFromStream</text>
<text text-anchor="middle" x="89.5" y="-230.5" font-family="Helvetica,sans-Serif" font-size="10.00">/GetCommandFromStream.ino</text>
</a>
</g>
</g>
<!-- Node2&#45;&gt;Node3 -->
<g id="edge2" class="edge">
<title>Node2&#45;&gt;Node3</title>
<path fill="none" stroke="midnightblue" d="M1123.35,-310.48C969.89,-311.08 541.58,-308.4 188.5,-265 185.45,-264.63 182.36,-264.21 179.24,-263.76"/>
<polygon fill="midnightblue" stroke="midnightblue" points="1123.5,-313.98 1133.48,-310.44 1123.47,-306.98 1123.5,-313.98"/>
</g>
<!-- Node4 -->
<g id="node4" class="node">
<title>Node4</title>
<g id="a_node4"><a xlink:href="../../d0/dd9/cli__setup_8h.html" target="_top" xlink:title="setup example for MultiFile.ino">
<polygon fill="none" stroke="black" points="197.5,-223.5 197.5,-264.5 317.5,-264.5 317.5,-223.5 197.5,-223.5"/>
<text text-anchor="start" x="205.5" y="-252.5" font-family="Helvetica,sans-Serif" font-size="10.00">examples/all_platforms</text>
<text text-anchor="start" x="205.5" y="-241.5" font-family="Helvetica,sans-Serif" font-size="10.00">/advanced/MultiFile/CLI</text>
<text text-anchor="middle" x="257.5" y="-230.5" font-family="Helvetica,sans-Serif" font-size="10.00">/cli_setup.h</text>
</a>
</g>
</g>
<!-- Node2&#45;&gt;Node4 -->
<g id="edge3" class="edge">
<title>Node2&#45;&gt;Node4</title>
<path fill="none" stroke="midnightblue" d="M1122.93,-306.38C1005.69,-299.07 733.8,-281.8 505.5,-265 441.31,-260.28 367.83,-254.28 317.62,-250.09"/>
<polygon fill="midnightblue" stroke="midnightblue" points="1122.92,-309.88 1133.12,-307.01 1123.36,-302.9 1122.92,-309.88"/>
</g>
<!-- Node8 -->
<g id="node8" class="node">
<title>Node8</title>
<g id="a_node8"><a xlink:href="../../dd/d65/_n_m_e_aparser_8ino.html" target="_top" xlink:title="An example that demonstrates how to use InputHandler&#39;s public methods to parse NMEA 0183 sentences.">
<polygon fill="none" stroke="black" points="473.5,-0.5 473.5,-30.5 667.5,-30.5 667.5,-0.5 473.5,-0.5"/>
<text text-anchor="start" x="481.5" y="-18.5" font-family="Helvetica,sans-Serif" font-size="10.00">examples/all_platforms</text>
<text text-anchor="middle" x="570.5" y="-7.5" font-family="Helvetica,sans-Serif" font-size="10.00">/advanced/NMEAparser/NMEAparser.ino</text>
</a>
</g>
</g>
<!-- Node2&#45;&gt;Node8 -->
<g id="edge9" class="edge">
<title>Node2&#45;&gt;Node8</title>
<path fill="none" stroke="midnightblue" d="M1123.08,-310.04C974.8,-309.56 592.69,-304.47 552.5,-265 489.56,-203.19 513.92,-151.73 538.5,-67 542.38,-53.64 550.96,-40.43 558.26,-30.88"/>
<polygon fill="midnightblue" stroke="midnightblue" points="1123.34,-313.54 1133.35,-310.07 1123.36,-306.54 1123.34,-313.54"/>
</g>
<!-- Node9 -->
<g id="node9" class="node">
<title>Node9</title>
<g id="a_node9"><a xlink:href="../../da/d60/_n_m_e_aparser_8h.html" target="_top" xlink:title="a class to assist in parsing NMEA 0183 strings">
<polygon fill="none" stroke="black" points="547.5,-67.5 547.5,-108.5 697.5,-108.5 697.5,-67.5 547.5,-67.5"/>
<text text-anchor="start" x="555.5" y="-96.5" font-family="Helvetica,sans-Serif" font-size="10.00">examples/all_platforms</text>
<text text-anchor="start" x="555.5" y="-85.5" font-family="Helvetica,sans-Serif" font-size="10.00">/advanced/NMEAparser/parser</text>
<text text-anchor="middle" x="622.5" y="-74.5" font-family="Helvetica,sans-Serif" font-size="10.00">/NMEAparser.h</text>
</a>
</g>
</g>
<!-- Node2&#45;&gt;Node9 -->
<g id="edge10" class="edge">
<title>Node2&#45;&gt;Node9</title>
<path fill="none" stroke="midnightblue" d="M1123.05,-310.06C978.5,-309.61 613.2,-304.53 576.5,-265 540.21,-225.91 558.52,-195.21 576.5,-145 581.42,-131.26 591.33,-118.47 600.69,-108.6"/>
<polygon fill="midnightblue" stroke="midnightblue" points="1123.07,-313.56 1133.07,-310.09 1123.08,-306.56 1123.07,-313.56"/>
</g>
<!-- Node10 -->
<g id="node10" class="node">
<title>Node10</title>
<g id="a_node10"><a xlink:href="../../d2/d20/_n_m_e_asentencefunc_8h.html" target="_top" xlink:title="NMEA 0183 sentence functions.">
<polygon fill="none" stroke="black" points="585.5,-223.5 585.5,-264.5 735.5,-264.5 735.5,-223.5 585.5,-223.5"/>
<text text-anchor="start" x="593.5" y="-252.5" font-family="Helvetica,sans-Serif" font-size="10.00">examples/all_platforms</text>
<text text-anchor="start" x="593.5" y="-241.5" font-family="Helvetica,sans-Serif" font-size="10.00">/advanced/NMEAparser/parser</text>
<text text-anchor="middle" x="660.5" y="-230.5" font-family="Helvetica,sans-Serif" font-size="10.00">/NMEAsentencefunc.h</text>
</a>
</g>
</g>
<!-- Node2&#45;&gt;Node10 -->
<g id="edge12" class="edge">
<title>Node2&#45;&gt;Node10</title>
<path fill="none" stroke="midnightblue" d="M1123.29,-306.11C1040.05,-300.06 882.37,-286.77 749.5,-265 744.97,-264.26 740.32,-263.43 735.64,-262.54"/>
<polygon fill="midnightblue" stroke="midnightblue" points="1123.09,-309.61 1133.31,-306.83 1123.59,-302.63 1123.09,-309.61"/>
</g>
<!-- Node11 -->
<g id="node11" class="node">
<title>Node11</title>
<g id="a_node11"><a xlink:href="../../da/dff/_n_m_e_asentenceparam_8h.html" target="_top" xlink:title="NMEA 0183 sentence CommandParameters structs.">
<polygon fill="none" stroke="black" points="585.5,-145.5 585.5,-186.5 735.5,-186.5 735.5,-145.5 585.5,-145.5"/>
<text text-anchor="start" x="593.5" y="-174.5" font-family="Helvetica,sans-Serif" font-size="10.00">examples/all_platforms</text>
<text text-anchor="start" x="593.5" y="-163.5" font-family="Helvetica,sans-Serif" font-size="10.00">/advanced/NMEAparser/parser</text>
<text text-anchor="middle" x="660.5" y="-152.5" font-family="Helvetica,sans-Serif" font-size="10.00">/NMEAsentenceparam.h</text>
</a>
</g>
</g>
<!-- Node2&#45;&gt;Node11 -->
<g id="edge15" class="edge">
<title>Node2&#45;&gt;Node11</title>
<path fill="none" stroke="midnightblue" d="M1123.08,-308.45C1027.02,-305.06 840.55,-294.77 782.5,-265 760.1,-253.51 763.56,-239.44 744.5,-223 728.97,-209.61 710.09,-196.76 694.17,-186.76"/>
<polygon fill="midnightblue" stroke="midnightblue" points="1123.1,-311.95 1133.21,-308.79 1123.34,-304.95 1123.1,-311.95"/>
</g>
<!-- Node12 -->
<g id="node12" class="node">
<title>Node12</title>
<g id="a_node12"><a xlink:href="../../da/d0f/_nested_commands_8ino.html" target="_top" xlink:title="An example that demonstrates nested subcommands.">
<polygon fill="none" stroke="black" points="791.5,-223.5 791.5,-264.5 937.5,-264.5 937.5,-223.5 791.5,-223.5"/>
<text text-anchor="start" x="799.5" y="-252.5" font-family="Helvetica,sans-Serif" font-size="10.00">examples/all_platforms</text>
<text text-anchor="start" x="799.5" y="-241.5" font-family="Helvetica,sans-Serif" font-size="10.00">/advanced/NestedCommands</text>
<text text-anchor="middle" x="864.5" y="-230.5" font-family="Helvetica,sans-Serif" font-size="10.00">/NestedCommands.ino</text>
</a>
</g>
</g>
<!-- Node2&#45;&gt;Node12 -->
<g id="edge16" class="edge">
<title>Node2&#45;&gt;Node12</title>
<path fill="none" stroke="midnightblue" d="M1123.07,-299.65C1075.42,-291.01 1006.44,-278.04 946.5,-265 943.64,-264.38 940.72,-263.73 937.78,-263.06"/>
<polygon fill="midnightblue" stroke="midnightblue" points="1122.74,-303.15 1133.2,-301.48 1123.98,-296.26 1122.74,-303.15"/>
</g>
<!-- Node13 -->
<g id="node13" class="node">
<title>Node13</title>
<g id="a_node13"><a xlink:href="../../d1/d98/config__howto_8ino.html" target="_top" xlink:title=" ">
<polygon fill="none" stroke="black" points="955.5,-223.5 955.5,-264.5 1077.5,-264.5 1077.5,-223.5 955.5,-223.5"/>
<text text-anchor="start" x="963.5" y="-252.5" font-family="Helvetica,sans-Serif" font-size="10.00">examples/all_platforms</text>
<text text-anchor="start" x="963.5" y="-241.5" font-family="Helvetica,sans-Serif" font-size="10.00">/advanced/config_howto</text>
<text text-anchor="middle" x="1016.5" y="-230.5" font-family="Helvetica,sans-Serif" font-size="10.00">/config_howto.ino</text>
</a>
</g>
</g>
<!-- Node2&#45;&gt;Node13 -->
<g id="edge17" class="edge">
<title>Node2&#45;&gt;Node13</title>
<path fill="none" stroke="midnightblue" d="M1150.06,-297.62C1126.41,-288.3 1093.53,-275.35 1066.32,-264.63"/>
<polygon fill="midnightblue" stroke="midnightblue" points="1149,-300.96 1159.59,-301.37 1151.57,-294.45 1149,-300.96"/>
</g>
<!-- Node14 -->
<g id="node14" class="node">
<title>Node14</title>
<g id="a_node14"><a xlink:href="../../d4/ded/debugging_8ino.html" target="_top" xlink:title="An example that demonstrates how to use built in methods to assist in debugging process settings and ...">
<polygon fill="none" stroke="black" points="1096,-229 1096,-259 1267,-259 1267,-229 1096,-229"/>
<text text-anchor="start" x="1104" y="-247" font-family="Helvetica,sans-Serif" font-size="10.00">examples/all_platforms</text>
<text text-anchor="middle" x="1181.5" y="-236" font-family="Helvetica,sans-Serif" font-size="10.00">/advanced/debugging/debugging.ino</text>
</a>
</g>
</g>
<!-- Node2&#45;&gt;Node14 -->
<g id="edge18" class="edge">
<title>Node2&#45;&gt;Node14</title>
<path fill="none" stroke="midnightblue" d="M1181.5,-290.91C1181.5,-280.72 1181.5,-268.4 1181.5,-259.09"/>
<polygon fill="midnightblue" stroke="midnightblue" points="1178,-291.23 1181.5,-301.23 1185,-291.23 1178,-291.23"/>
</g>
<!-- Node15 -->
<g id="node15" class="node">
<title>Node15</title>
<g id="a_node15"><a xlink:href="../../db/d8e/_b_l_e___u_a_r_t_8ino.html" target="_top" xlink:title=" ">
<polygon fill="none" stroke="black" points="1285.5,-229 1285.5,-259 1451.5,-259 1451.5,-229 1285.5,-229"/>
<text text-anchor="start" x="1293.5" y="-247" font-family="Helvetica,sans-Serif" font-size="10.00">examples/all_platforms</text>
<text text-anchor="middle" x="1368.5" y="-236" font-family="Helvetica,sans-Serif" font-size="10.00">/basic/BLE_UART/BLE_UART.ino</text>
</a>
</g>
</g>
<!-- Node2&#45;&gt;Node15 -->
<g id="edge19" class="edge">
<title>Node2&#45;&gt;Node15</title>
<path fill="none" stroke="midnightblue" d="M1216.05,-297.99C1247.75,-286.97 1294.73,-270.64 1328.14,-259.03"/>
<polygon fill="midnightblue" stroke="midnightblue" points="1214.63,-294.78 1206.33,-301.37 1216.93,-301.39 1214.63,-294.78"/>
</g>
<!-- Node16 -->
<g id="node16" class="node">
<title>Node16</title>
<g id="a_node16"><a xlink:href="../../d7/d82/basic_2_get_command_from_stream_2_get_command_from_stream_8ino.html" target="_top" xlink:title="A basic InputHandler demonstration.">
<polygon fill="none" stroke="black" points="1469.5,-223.5 1469.5,-264.5 1629.5,-264.5 1629.5,-223.5 1469.5,-223.5"/>
<text text-anchor="start" x="1477.5" y="-252.5" font-family="Helvetica,sans-Serif" font-size="10.00">examples/all_platforms</text>
<text text-anchor="start" x="1477.5" y="-241.5" font-family="Helvetica,sans-Serif" font-size="10.00">/basic/GetCommandFromStream</text>
<text text-anchor="middle" x="1549.5" y="-230.5" font-family="Helvetica,sans-Serif" font-size="10.00">/GetCommandFromStream.ino</text>
</a>
</g>
</g>
<!-- Node2&#45;&gt;Node16 -->
<g id="edge20" class="edge">
<title>Node2&#45;&gt;Node16</title>
<path fill="none" stroke="midnightblue" d="M1239.73,-301.67C1296.3,-293.32 1384.53,-279.65 1460.5,-265 1463.45,-264.43 1466.46,-263.84 1469.49,-263.22"/>
<polygon fill="midnightblue" stroke="midnightblue" points="1238.93,-298.25 1229.54,-303.16 1239.95,-305.17 1238.93,-298.25"/>
</g>
<!-- Node17 -->
<g id="node17" class="node">
<title>Node17</title>
<g id="a_node17"><a xlink:href="../../dc/d05/_lo_ra_receiver_8ino.html" target="_top" xlink:title=" ">
<polygon fill="none" stroke="black" points="1647.5,-223.5 1647.5,-264.5 1781.5,-264.5 1781.5,-223.5 1647.5,-223.5"/>
<text text-anchor="start" x="1655.5" y="-252.5" font-family="Helvetica,sans-Serif" font-size="10.00">examples/all_platforms</text>
<text text-anchor="start" x="1655.5" y="-241.5" font-family="Helvetica,sans-Serif" font-size="10.00">/basic/LoRa/LoRaReceiver</text>
<text text-anchor="middle" x="1714.5" y="-230.5" font-family="Helvetica,sans-Serif" font-size="10.00">/LoRaReceiver.ino</text>
</a>
</g>
</g>
<!-- Node2&#45;&gt;Node17 -->
<g id="edge21" class="edge">
<title>Node2&#45;&gt;Node17</title>
<path fill="none" stroke="midnightblue" d="M1239.77,-307.24C1327.02,-302.43 1496.55,-290.5 1638.5,-265 1641.45,-264.47 1644.46,-263.88 1647.49,-263.25"/>
<polygon fill="midnightblue" stroke="midnightblue" points="1239.34,-303.75 1229.54,-307.79 1239.72,-310.74 1239.34,-303.75"/>
</g>
<!-- Node18 -->
<g id="node18" class="node">
<title>Node18</title>
<g id="a_node18"><a xlink:href="../../d8/da2/_r_f24_8ino.html" target="_top" xlink:title=" ">
<polygon fill="none" stroke="black" points="1799.5,-229 1799.5,-259 1915.5,-259 1915.5,-229 1799.5,-229"/>
<text text-anchor="start" x="1807.5" y="-247" font-family="Helvetica,sans-Serif" font-size="10.00">examples/all_platforms</text>
<text text-anchor="middle" x="1857.5" y="-236" font-family="Helvetica,sans-Serif" font-size="10.00">/basic/RF24/RF24.ino</text>
</a>
</g>
</g>
<!-- Node2&#45;&gt;Node18 -->
<g id="edge22" class="edge">
<title>Node2&#45;&gt;Node18</title>
<path fill="none" stroke="midnightblue" d="M1239.85,-309.87C1348.93,-308.69 1590.75,-301.74 1790.5,-265 1798.62,-263.51 1807.15,-261.4 1815.31,-259.1"/>
<polygon fill="midnightblue" stroke="midnightblue" points="1239.68,-306.37 1229.72,-309.96 1239.75,-313.37 1239.68,-306.37"/>
</g>
<!-- Node19 -->
<g id="node19" class="node">
<title>Node19</title>
<g id="a_node19"><a xlink:href="../../df/d23/_read_command_from_buffer_m_q_t_t_8ino.html" target="_top" xlink:title="An example that demonstrates receiving commands and sending an echo over MQTT.">
<polygon fill="none" stroke="black" points="1933,-223.5 1933,-264.5 2138,-264.5 2138,-223.5 1933,-223.5"/>
<text text-anchor="start" x="1941" y="-252.5" font-family="Helvetica,sans-Serif" font-size="10.00">examples/all_platforms</text>
<text text-anchor="start" x="1941" y="-241.5" font-family="Helvetica,sans-Serif" font-size="10.00">/basic/ReadCommandFromBuffer</text>
<text text-anchor="middle" x="2035.5" y="-230.5" font-family="Helvetica,sans-Serif" font-size="10.00">MQTT/ReadCommandFromBufferMQTT.ino</text>
</a>
</g>
</g>
<!-- Node2&#45;&gt;Node19 -->
<g id="edge23" class="edge">
<title>Node2&#45;&gt;Node19</title>
<path fill="none" stroke="midnightblue" d="M1240.1,-308.8C1365.86,-305.7 1670.84,-295.43 1924.5,-265 1927.22,-264.67 1929.98,-264.32 1932.76,-263.95"/>
<polygon fill="midnightblue" stroke="midnightblue" points="1239.83,-305.3 1229.92,-309.04 1240,-312.3 1239.83,-305.3"/>
</g>
<!-- Node20 -->
<g id="node20" class="node">
<title>Node20</title>
<g id="a_node20"><a xlink:href="../../d1/d96/_wildcard_commands_8ino.html" target="_top" xlink:title="An example that demonstrates wildcard commands.">
<polygon fill="none" stroke="black" points="2156,-223.5 2156,-264.5 2289,-264.5 2289,-223.5 2156,-223.5"/>
<text text-anchor="start" x="2164" y="-252.5" font-family="Helvetica,sans-Serif" font-size="10.00">examples/all_platforms</text>
<text text-anchor="start" x="2164" y="-241.5" font-family="Helvetica,sans-Serif" font-size="10.00">/basic/WildcardCommands</text>
<text text-anchor="middle" x="2222.5" y="-230.5" font-family="Helvetica,sans-Serif" font-size="10.00">/WildcardCommands.ino</text>
</a>
</g>
</g>
<!-- Node2&#45;&gt;Node20 -->
<g id="edge24" class="edge">
<title>Node2&#45;&gt;Node20</title>
<path fill="none" stroke="midnightblue" d="M1239.8,-308.92C1420.72,-305.31 1971.01,-292.32 2147.5,-265 2150.16,-264.59 2152.87,-264.12 2155.59,-263.6"/>
<polygon fill="midnightblue" stroke="midnightblue" points="1239.62,-305.42 1229.69,-309.12 1239.75,-312.42 1239.62,-305.42"/>
</g>
<!-- Node21 -->
<g id="node21" class="node">
<title>Node21</title>
<g id="a_node21"><a xlink:href="../../d3/dce/_read_command_from_buffer_web_serial_8ino.html" target="_top" xlink:title="An example that uses ReadCommandFromBuffer and WebSerial.">
<polygon fill="none" stroke="black" points="2307,-223.5 2307,-264.5 2486,-264.5 2486,-223.5 2307,-223.5"/>
<text text-anchor="start" x="2315" y="-252.5" font-family="Helvetica,sans-Serif" font-size="10.00">examples/esp/ReadCommand</text>
<text text-anchor="start" x="2315" y="-241.5" font-family="Helvetica,sans-Serif" font-size="10.00">FromBufferWebSerial/ReadCommand</text>
<text text-anchor="middle" x="2396.5" y="-230.5" font-family="Helvetica,sans-Serif" font-size="10.00">FromBufferWebSerial.ino</text>
</a>
</g>
</g>
<!-- Node2&#45;&gt;Node21 -->
<g id="edge25" class="edge">
<title>Node2&#45;&gt;Node21</title>
<path fill="none" stroke="midnightblue" d="M1239.86,-308.89C1438.95,-304.91 2090.53,-290.24 2298.5,-265 2301.26,-264.67 2304.05,-264.29 2306.87,-263.89"/>
<polygon fill="midnightblue" stroke="midnightblue" points="1239.54,-305.4 1229.61,-309.09 1239.68,-312.4 1239.54,-305.4"/>
</g>
<!-- Node22 -->
<g id="node22" class="node">
<title>Node22</title>
<g id="a_node22"><a xlink:href="../../dd/dec/_input_handler_8cpp.html" target="_top" xlink:title="InputHandler library cpp file.">
<polygon fill="none" stroke="black" points="2504,-234.5 2504,-253.5 2611,-253.5 2611,-234.5 2504,-234.5"/>
<text text-anchor="middle" x="2557.5" y="-241.5" font-family="Helvetica,sans-Serif" font-size="10.00">src/InputHandler.cpp</text>
</a>
</g>
</g>
<!-- Node2&#45;&gt;Node22 -->
<g id="edge26" class="edge">
<title>Node2&#45;&gt;Node22</title>
<path fill="none" stroke="midnightblue" d="M1239.66,-310.15C1460.77,-310.38 2248.99,-308.11 2495.5,-265 2509.31,-262.58 2524.29,-257.82 2536.07,-253.54"/>
<polygon fill="midnightblue" stroke="midnightblue" points="1239.57,-306.65 1229.57,-310.14 1239.56,-313.65 1239.57,-306.65"/>
</g>
<!-- Node5 -->
<g id="node5" class="node">
<title>Node5</title>
<g id="a_node5"><a xlink:href="../../d8/d5c/functions_8h.html" target="_top" xlink:title="Functions for MultiFile.ino.">
<polygon fill="none" stroke="black" points="59.5,-145.5 59.5,-186.5 179.5,-186.5 179.5,-145.5 59.5,-145.5"/>
<text text-anchor="start" x="67.5" y="-174.5" font-family="Helvetica,sans-Serif" font-size="10.00">examples/all_platforms</text>
<text text-anchor="start" x="67.5" y="-163.5" font-family="Helvetica,sans-Serif" font-size="10.00">/advanced/MultiFile/CLI</text>
<text text-anchor="middle" x="119.5" y="-152.5" font-family="Helvetica,sans-Serif" font-size="10.00">/functions.h</text>
</a>
</g>
</g>
<!-- Node4&#45;&gt;Node5 -->
<g id="edge4" class="edge">
<title>Node4&#45;&gt;Node5</title>
<path fill="none" stroke="midnightblue" d="M206.89,-218.63C187.4,-208.24 165.82,-196.29 148.94,-186.51"/>
<polygon fill="midnightblue" stroke="midnightblue" points="205.5,-221.85 215.97,-223.43 208.77,-215.66 205.5,-221.85"/>
</g>
<!-- Node6 -->
<g id="node6" class="node">
<title>Node6</title>
<g id="a_node6"><a xlink:href="../../d6/d3b/parameters_8h.html" target="_top" xlink:title="Parameters and CommandConstructor objects for MultiFile.ino.">
<polygon fill="none" stroke="black" points="197.5,-145.5 197.5,-186.5 317.5,-186.5 317.5,-145.5 197.5,-145.5"/>
<text text-anchor="start" x="205.5" y="-174.5" font-family="Helvetica,sans-Serif" font-size="10.00">examples/all_platforms</text>
<text text-anchor="start" x="205.5" y="-163.5" font-family="Helvetica,sans-Serif" font-size="10.00">/advanced/MultiFile/CLI</text>
<text text-anchor="middle" x="257.5" y="-152.5" font-family="Helvetica,sans-Serif" font-size="10.00">/parameters.h</text>
</a>
</g>
</g>
<!-- Node4&#45;&gt;Node6 -->
<g id="edge6" class="edge">
<title>Node4&#45;&gt;Node6</title>
<path fill="none" stroke="midnightblue" d="M250.9,-213.3C250.58,-204.3 250.78,-194.65 251.52,-186.51"/>
<polygon fill="midnightblue" stroke="midnightblue" points="247.41,-213.66 251.51,-223.43 254.4,-213.23 247.41,-213.66"/>
</g>
<!-- Node7 -->
<g id="node7" class="node">
<title>Node7</title>
<g id="a_node7"><a xlink:href="../../d6/d12/_multi_file_8ino.html" target="_top" xlink:title="An example that demonstrates multiple file setup.">
<polygon fill="none" stroke="black" points="335.5,-151 335.5,-181 491.5,-181 491.5,-151 335.5,-151"/>
<text text-anchor="start" x="343.5" y="-169" font-family="Helvetica,sans-Serif" font-size="10.00">examples/all_platforms</text>
<text text-anchor="middle" x="413.5" y="-158" font-family="Helvetica,sans-Serif" font-size="10.00">/advanced/MultiFile/MultiFile.ino</text>
</a>
</g>
</g>
<!-- Node4&#45;&gt;Node7 -->
<g id="edge8" class="edge">
<title>Node4&#45;&gt;Node7</title>
<path fill="none" stroke="midnightblue" d="M306.82,-218.97C332.31,-206.55 362.54,-191.83 384.3,-181.23"/>
<polygon fill="midnightblue" stroke="midnightblue" points="305.13,-215.9 297.67,-223.43 308.2,-222.19 305.13,-215.9"/>
</g>
<!-- Node5&#45;&gt;Node4 -->
<g id="edge5" class="edge">
<title>Node5&#45;&gt;Node4</title>
<path fill="none" stroke="midnightblue" d="M169.97,-191.3C189.46,-201.68 211.04,-213.63 227.95,-223.43"/>
<polygon fill="midnightblue" stroke="midnightblue" points="171.38,-188.09 160.9,-186.51 168.1,-194.27 171.38,-188.09"/>
</g>
<!-- Node6&#45;&gt;Node4 -->
<g id="edge7" class="edge">
<title>Node6&#45;&gt;Node4</title>
<path fill="none" stroke="midnightblue" d="M264.1,-196.63C264.42,-205.62 264.22,-215.27 263.49,-223.43"/>
<polygon fill="midnightblue" stroke="midnightblue" points="267.59,-196.27 263.48,-186.51 260.6,-196.7 267.59,-196.27"/>
</g>
<!-- Node9&#45;&gt;Node8 -->
<g id="edge11" class="edge">
<title>Node9&#45;&gt;Node8</title>
<path fill="none" stroke="midnightblue" d="M601.95,-59.14C594.82,-49.47 587.11,-39.02 581.12,-30.89"/>
<polygon fill="midnightblue" stroke="midnightblue" points="599.26,-61.39 608.02,-67.36 604.9,-57.24 599.26,-61.39"/>
</g>
<!-- Node10&#45;&gt;Node11 -->
<g id="edge13" class="edge">
<title>Node10&#45;&gt;Node11</title>
<path fill="none" stroke="midnightblue" d="M660.5,-213.3C660.5,-204.3 660.5,-194.65 660.5,-186.51"/>
<polygon fill="midnightblue" stroke="midnightblue" points="657,-213.43 660.5,-223.43 664,-213.43 657,-213.43"/>
</g>
<!-- Node11&#45;&gt;Node9 -->
<g id="edge14" class="edge">
<title>Node11&#45;&gt;Node9</title>
<path fill="none" stroke="midnightblue" d="M646.23,-136.47C641.57,-127.14 636.5,-117.01 632.25,-108.51"/>
<polygon fill="midnightblue" stroke="midnightblue" points="643.11,-138.05 650.71,-145.43 649.37,-134.92 643.11,-138.05"/>
</g>
</g>
</svg>
