<?xml version="1.0" encoding="UTF-8" standalone="no"?>
<!DOCTYPE svg PUBLIC "-//W3C//DTD SVG 1.1//EN"
 "http://www.w3.org/Graphics/SVG/1.1/DTD/svg11.dtd">
<!-- Generated by graphviz version 6.0.1 (20220911.1526)
 -->
<!-- Title: src/config/noedit.h Pages: 1 -->
<svg width="2619pt" height="379pt"
 viewBox="0.00 0.00 2619.00 379.00" xmlns="http://www.w3.org/2000/svg" xmlns:xlink="http://www.w3.org/1999/xlink">
<g id="graph0" class="graph" transform="scale(1 1) rotate(0) translate(4 375)">
<title>src/config/noedit.h</title>
<!-- Node1 -->
<g id="node1" class="node">
<title>Node1</title>
<g id="a_node1"><a xlink:title="InputHandler library C includes, do not edit.">
<polygon fill="#999999" stroke="#666666" points="1229,-371 1134,-371 1134,-352 1229,-352 1229,-371"/>
<text text-anchor="middle" x="1181.5" y="-359" font-family="Helvetica,sans-Serif" font-size="10.00">src/config/noedit.h</text>
</a>
</g>
</g>
<!-- Node2 -->
<g id="node2" class="node">
<title>Node2</title>
<g id="a_node2"><a xlink:href="../../df/dec/_input_handler_8h.html" target="_top" xlink:title="InputHandler library header file.">
<polygon fill="white" stroke="#666666" points="1229.5,-316 1133.5,-316 1133.5,-297 1229.5,-297 1229.5,-316"/>
<text text-anchor="middle" x="1181.5" y="-304" font-family="Helvetica,sans-Serif" font-size="10.00">src/InputHandler.h</text>
</a>
</g>
</g>
<!-- Node1&#45;&gt;Node2 -->
<g id="edge1" class="edge">
<title>Node1&#45;&gt;Node2</title>
<path fill="none" stroke="#63b8ff" d="M1181.5,-341.66C1181.5,-332.93 1181.5,-322.99 1181.5,-316.09"/>
<polygon fill="#63b8ff" stroke="#63b8ff" points="1178,-341.75 1181.5,-351.75 1185,-341.75 1178,-341.75"/>
</g>
<!-- Node3 -->
<g id="node3" class="node">
<title>Node3</title>
<g id="a_node3"><a xlink:href="../../db/dc6/advanced_2_get_command_from_stream_2_get_command_from_stream_8ino.html" target="_top" xlink:title="An example that demonstrates how to retrieve type&#45;valid arguments from a Stream.">
<polygon fill="white" stroke="#666666" points="179,-261 0,-261 0,-220 179,-220 179,-261"/>
<text text-anchor="start" x="8" y="-249" font-family="Helvetica,sans-Serif" font-size="10.00">examples/all_platforms</text>
<text text-anchor="start" x="8" y="-238" font-family="Helvetica,sans-Serif" font-size="10.00">/advanced/GetCommandFromStream</text>
<text text-anchor="middle" x="89.5" y="-227" font-family="Helvetica,sans-Serif" font-size="10.00">/GetCommandFromStream.ino</text>
</a>
</g>
</g>
<!-- Node2&#45;&gt;Node3 -->
<g id="edge2" class="edge">
<title>Node2&#45;&gt;Node3</title>
<path fill="none" stroke="#63b8ff" d="M1123.36,-305.92C969.94,-306.39 541.69,-303.46 188.5,-261 185.46,-260.63 182.37,-260.23 179.25,-259.79"/>
<polygon fill="#63b8ff" stroke="#63b8ff" points="1123.51,-309.42 1133.49,-305.89 1123.48,-302.42 1123.51,-309.42"/>
</g>
<!-- Node4 -->
<g id="node4" class="node">
<title>Node4</title>
<g id="a_node4"><a xlink:href="../../d0/dd9/cli__setup_8h.html" target="_top" xlink:title="setup example for MultiFile.ino">
<polygon fill="white" stroke="#666666" points="317.5,-261 197.5,-261 197.5,-220 317.5,-220 317.5,-261"/>
<text text-anchor="start" x="205.5" y="-249" font-family="Helvetica,sans-Serif" font-size="10.00">examples/all_platforms</text>
<text text-anchor="start" x="205.5" y="-238" font-family="Helvetica,sans-Serif" font-size="10.00">/advanced/MultiFile/CLI</text>
<text text-anchor="middle" x="257.5" y="-227" font-family="Helvetica,sans-Serif" font-size="10.00">/cli_setup.h</text>
</a>
</g>
</g>
<!-- Node2&#45;&gt;Node4 -->
<g id="edge3" class="edge">
<title>Node2&#45;&gt;Node4</title>
<path fill="none" stroke="#63b8ff" d="M1122.94,-301.9C1005.7,-294.63 733.81,-277.49 505.5,-261 441.32,-256.36 367.83,-250.52 317.62,-246.44"/>
<polygon fill="#63b8ff" stroke="#63b8ff" points="1122.93,-305.4 1133.12,-302.53 1123.36,-298.42 1122.93,-305.4"/>
</g>
<!-- Node8 -->
<g id="node8" class="node">
<title>Node8</title>
<g id="a_node8"><a xlink:href="../../dd/d65/_n_m_e_aparser_8ino.html" target="_top" xlink:title="An example that demonstrates how to use InputHandler&#39;s public methods to parse NMEA 0183 sentences.">
<polygon fill="white" stroke="#666666" points="667.5,-30 473.5,-30 473.5,0 667.5,0 667.5,-30"/>
<text text-anchor="start" x="481.5" y="-18" font-family="Helvetica,sans-Serif" font-size="10.00">examples/all_platforms</text>
<text text-anchor="middle" x="570.5" y="-7" font-family="Helvetica,sans-Serif" font-size="10.00">/advanced/NMEAparser/NMEAparser.ino</text>
</a>
</g>
</g>
<!-- Node2&#45;&gt;Node8 -->
<g id="edge9" class="edge">
<title>Node2&#45;&gt;Node8</title>
<path fill="none" stroke="#63b8ff" d="M1123.09,-305.59C974.82,-305.22 592.73,-300.43 552.5,-261 490.45,-200.18 514.1,-149.39 538.5,-66 542.38,-52.75 550.96,-39.67 558.27,-30.21"/>
<polygon fill="#63b8ff" stroke="#63b8ff" points="1123.35,-309.09 1133.35,-305.6 1123.36,-302.09 1123.35,-309.09"/>
</g>
<!-- Node9 -->
<g id="node9" class="node">
<title>Node9</title>
<g id="a_node9"><a xlink:href="../../da/d60/_n_m_e_aparser_8h.html" target="_top" xlink:title="a class to assist in parsing NMEA 0183 strings">
<polygon fill="white" stroke="#666666" points="697.5,-107 547.5,-107 547.5,-66 697.5,-66 697.5,-107"/>
<text text-anchor="start" x="555.5" y="-95" font-family="Helvetica,sans-Serif" font-size="10.00">examples/all_platforms</text>
<text text-anchor="start" x="555.5" y="-84" font-family="Helvetica,sans-Serif" font-size="10.00">/advanced/NMEAparser/parser</text>
<text text-anchor="middle" x="622.5" y="-73" font-family="Helvetica,sans-Serif" font-size="10.00">/NMEAparser.h</text>
</a>
</g>
</g>
<!-- Node2&#45;&gt;Node9 -->
<g id="edge10" class="edge">
<title>Node2&#45;&gt;Node9</title>
<path fill="none" stroke="#63b8ff" d="M1123.06,-305.61C978.5,-305.28 613.21,-300.51 576.5,-261 540.8,-222.58 558.71,-192.34 576.5,-143 581.38,-129.46 591.16,-116.89 600.45,-107.14"/>
<polygon fill="#63b8ff" stroke="#63b8ff" points="1123.07,-309.11 1133.08,-305.63 1123.08,-302.11 1123.07,-309.11"/>
</g>
<!-- Node10 -->
<g id="node10" class="node">
<title>Node10</title>
<g id="a_node10"><a xlink:href="../../d2/d20/_n_m_e_asentencefunc_8h.html" target="_top" xlink:title="NMEA 0183 sentence functions.">
<polygon fill="white" stroke="#666666" points="735.5,-261 585.5,-261 585.5,-220 735.5,-220 735.5,-261"/>
<text text-anchor="start" x="593.5" y="-249" font-family="Helvetica,sans-Serif" font-size="10.00">examples/all_platforms</text>
<text text-anchor="start" x="593.5" y="-238" font-family="Helvetica,sans-Serif" font-size="10.00">/advanced/NMEAparser/parser</text>
<text text-anchor="middle" x="660.5" y="-227" font-family="Helvetica,sans-Serif" font-size="10.00">/NMEAsentencefunc.h</text>
</a>
</g>
</g>
<!-- Node2&#45;&gt;Node10 -->
<g id="edge12" class="edge">
<title>Node2&#45;&gt;Node10</title>
<path fill="none" stroke="#63b8ff" d="M1123.3,-301.6C1040.08,-295.56 882.42,-282.34 749.5,-261 744.97,-260.27 740.33,-259.46 735.65,-258.59"/>
<polygon fill="#63b8ff" stroke="#63b8ff" points="1123.1,-305.1 1133.32,-302.32 1123.6,-298.12 1123.1,-305.1"/>
</g>
<!-- Node11 -->
<g id="node11" class="node">
<title>Node11</title>
<g id="a_node11"><a xlink:href="../../da/dff/_n_m_e_asentenceparam_8h.html" target="_top" xlink:title="NMEA 0183 sentence CommandParameters structs.">
<polygon fill="white" stroke="#666666" points="735.5,-184 585.5,-184 585.5,-143 735.5,-143 735.5,-184"/>
<text text-anchor="start" x="593.5" y="-172" font-family="Helvetica,sans-Serif" font-size="10.00">examples/all_platforms</text>
<text text-anchor="start" x="593.5" y="-161" font-family="Helvetica,sans-Serif" font-size="10.00">/advanced/NMEAparser/parser</text>
<text text-anchor="middle" x="660.5" y="-150" font-family="Helvetica,sans-Serif" font-size="10.00">/NMEAsentenceparam.h</text>
</a>
</g>
</g>
<!-- Node2&#45;&gt;Node11 -->
<g id="edge15" class="edge">
<title>Node2&#45;&gt;Node11</title>
<path fill="none" stroke="#63b8ff" d="M1123.12,-303.95C1027.12,-300.59 840.74,-290.38 782.5,-261 760.32,-249.81 763.44,-236.07 744.5,-220 728.91,-206.77 710.02,-194.04 694.11,-184.12"/>
<polygon fill="#63b8ff" stroke="#63b8ff" points="1123.14,-307.45 1133.25,-304.29 1123.37,-300.46 1123.14,-307.45"/>
</g>
<!-- Node12 -->
<g id="node12" class="node">
<title>Node12</title>
<g id="a_node12"><a xlink:href="../../da/d0f/_nested_commands_8ino.html" target="_top" xlink:title="An example that demonstrates nested subcommands.">
<polygon fill="white" stroke="#666666" points="937.5,-261 791.5,-261 791.5,-220 937.5,-220 937.5,-261"/>
<text text-anchor="start" x="799.5" y="-249" font-family="Helvetica,sans-Serif" font-size="10.00">examples/all_platforms</text>
<text text-anchor="start" x="799.5" y="-238" font-family="Helvetica,sans-Serif" font-size="10.00">/advanced/NestedCommands</text>
<text text-anchor="middle" x="864.5" y="-227" font-family="Helvetica,sans-Serif" font-size="10.00">/NestedCommands.ino</text>
</a>
</g>
</g>
<!-- Node2&#45;&gt;Node12 -->
<g id="edge16" class="edge">
<title>Node2&#45;&gt;Node12</title>
<path fill="none" stroke="#63b8ff" d="M1123.08,-295.21C1075.44,-286.64 1006.46,-273.8 946.5,-261 943.64,-260.39 940.72,-259.75 937.78,-259.1"/>
<polygon fill="#63b8ff" stroke="#63b8ff" points="1122.75,-298.71 1133.21,-297.03 1123.99,-291.82 1122.75,-298.71"/>
</g>
<!-- Node13 -->
<g id="node13" class="node">
<title>Node13</title>
<g id="a_node13"><a xlink:href="../../d1/d98/config__howto_8ino.html" target="_top" xlink:title=" ">
<polygon fill="white" stroke="#666666" points="1077.5,-261 955.5,-261 955.5,-220 1077.5,-220 1077.5,-261"/>
<text text-anchor="start" x="963.5" y="-249" font-family="Helvetica,sans-Serif" font-size="10.00">examples/all_platforms</text>
<text text-anchor="start" x="963.5" y="-238" font-family="Helvetica,sans-Serif" font-size="10.00">/advanced/config_howto</text>
<text text-anchor="middle" x="1016.5" y="-227" font-family="Helvetica,sans-Serif" font-size="10.00">/config_howto.ino</text>
</a>
</g>
</g>
<!-- Node2&#45;&gt;Node13 -->
<g id="edge17" class="edge">
<title>Node2&#45;&gt;Node13</title>
<path fill="none" stroke="#63b8ff" d="M1149.77,-293.19C1126.28,-284.08 1093.81,-271.49 1066.8,-261.01"/>
<polygon fill="#63b8ff" stroke="#63b8ff" points="1148.66,-296.52 1159.25,-296.87 1151.19,-289.99 1148.66,-296.52"/>
</g>
<!-- Node14 -->
<g id="node14" class="node">
<title>Node14</title>
<g id="a_node14"><a xlink:href="../../d4/ded/debugging_8ino.html" target="_top" xlink:title="An example that demonstrates how to use built in methods to assist in debugging process settings and ...">
<polygon fill="white" stroke="#666666" points="1267,-255.5 1096,-255.5 1096,-225.5 1267,-225.5 1267,-255.5"/>
<text text-anchor="start" x="1104" y="-243.5" font-family="Helvetica,sans-Serif" font-size="10.00">examples/all_platforms</text>
<text text-anchor="middle" x="1181.5" y="-232.5" font-family="Helvetica,sans-Serif" font-size="10.00">/advanced/debugging/debugging.ino</text>
</a>
</g>
</g>
<!-- Node2&#45;&gt;Node14 -->
<g id="edge18" class="edge">
<title>Node2&#45;&gt;Node14</title>
<path fill="none" stroke="#63b8ff" d="M1181.5,-286.85C1181.5,-276.97 1181.5,-265.01 1181.5,-255.86"/>
<polygon fill="#63b8ff" stroke="#63b8ff" points="1178,-286.87 1181.5,-296.87 1185,-286.87 1178,-286.87"/>
</g>
<!-- Node15 -->
<g id="node15" class="node">
<title>Node15</title>
<g id="a_node15"><a xlink:href="../../db/d8e/_b_l_e___u_a_r_t_8ino.html" target="_top" xlink:title=" ">
<polygon fill="white" stroke="#666666" points="1451.5,-255.5 1285.5,-255.5 1285.5,-225.5 1451.5,-225.5 1451.5,-255.5"/>
<text text-anchor="start" x="1293.5" y="-243.5" font-family="Helvetica,sans-Serif" font-size="10.00">examples/all_platforms</text>
<text text-anchor="middle" x="1368.5" y="-232.5" font-family="Helvetica,sans-Serif" font-size="10.00">/basic/BLE_UART/BLE_UART.ino</text>
</a>
</g>
</g>
<!-- Node2&#45;&gt;Node15 -->
<g id="edge19" class="edge">
<title>Node2&#45;&gt;Node15</title>
<path fill="none" stroke="#63b8ff" d="M1216.36,-293.57C1247.78,-282.81 1294.01,-266.99 1327.26,-255.62"/>
<polygon fill="#63b8ff" stroke="#63b8ff" points="1215.05,-290.32 1206.72,-296.87 1217.31,-296.94 1215.05,-290.32"/>
</g>
<!-- Node16 -->
<g id="node16" class="node">
<title>Node16</title>
<g id="a_node16"><a xlink:href="../../d7/d82/basic_2_get_command_from_stream_2_get_command_from_stream_8ino.html" target="_top" xlink:title="A basic InputHandler demonstration.">
<polygon fill="white" stroke="#666666" points="1629.5,-261 1469.5,-261 1469.5,-220 1629.5,-220 1629.5,-261"/>
<text text-anchor="start" x="1477.5" y="-249" font-family="Helvetica,sans-Serif" font-size="10.00">examples/all_platforms</text>
<text text-anchor="start" x="1477.5" y="-238" font-family="Helvetica,sans-Serif" font-size="10.00">/basic/GetCommandFromStream</text>
<text text-anchor="middle" x="1549.5" y="-227" font-family="Helvetica,sans-Serif" font-size="10.00">/GetCommandFromStream.ino</text>
</a>
</g>
</g>
<!-- Node2&#45;&gt;Node16 -->
<g id="edge20" class="edge">
<title>Node2&#45;&gt;Node16</title>
<path fill="none" stroke="#63b8ff" d="M1239.72,-297.21C1296.27,-288.92 1384.5,-275.37 1460.5,-261 1463.45,-260.44 1466.46,-259.86 1469.49,-259.26"/>
<polygon fill="#63b8ff" stroke="#63b8ff" points="1238.92,-293.79 1229.53,-298.7 1239.93,-300.72 1238.92,-293.79"/>
</g>
<!-- Node17 -->
<g id="node17" class="node">
<title>Node17</title>
<g id="a_node17"><a xlink:href="../../dc/d05/_lo_ra_receiver_8ino.html" target="_top" xlink:title=" ">
<polygon fill="white" stroke="#666666" points="1781.5,-261 1647.5,-261 1647.5,-220 1781.5,-220 1781.5,-261"/>
<text text-anchor="start" x="1655.5" y="-249" font-family="Helvetica,sans-Serif" font-size="10.00">examples/all_platforms</text>
<text text-anchor="start" x="1655.5" y="-238" font-family="Helvetica,sans-Serif" font-size="10.00">/basic/LoRa/LoRaReceiver</text>
<text text-anchor="middle" x="1714.5" y="-227" font-family="Helvetica,sans-Serif" font-size="10.00">/LoRaReceiver.ino</text>
</a>
</g>
</g>
<!-- Node2&#45;&gt;Node17 -->
<g id="edge21" class="edge">
<title>Node2&#45;&gt;Node17</title>
<path fill="none" stroke="#63b8ff" d="M1239.75,-302.71C1326.98,-297.88 1496.48,-285.98 1638.5,-261 1641.45,-260.48 1644.46,-259.91 1647.49,-259.29"/>
<polygon fill="#63b8ff" stroke="#63b8ff" points="1239.32,-299.23 1229.53,-303.26 1239.7,-306.22 1239.32,-299.23"/>
</g>
<!-- Node18 -->
<g id="node18" class="node">
<title>Node18</title>
<g id="a_node18"><a xlink:href="../../d8/da2/_r_f24_8ino.html" target="_top" xlink:title=" ">
<polygon fill="white" stroke="#666666" points="1915.5,-255.5 1799.5,-255.5 1799.5,-225.5 1915.5,-225.5 1915.5,-255.5"/>
<text text-anchor="start" x="1807.5" y="-243.5" font-family="Helvetica,sans-Serif" font-size="10.00">examples/all_platforms</text>
<text text-anchor="middle" x="1857.5" y="-232.5" font-family="Helvetica,sans-Serif" font-size="10.00">/basic/RF24/RF24.ino</text>
</a>
</g>
</g>
<!-- Node2&#45;&gt;Node18 -->
<g id="edge22" class="edge">
<title>Node2&#45;&gt;Node18</title>
<path fill="none" stroke="#63b8ff" d="M1239.83,-305.3C1348.86,-304.03 1590.63,-296.97 1790.5,-261 1798.25,-259.61 1806.38,-257.66 1814.21,-255.54"/>
<polygon fill="#63b8ff" stroke="#63b8ff" points="1239.66,-301.8 1229.7,-305.4 1239.73,-308.8 1239.66,-301.8"/>
</g>
<!-- Node19 -->
<g id="node19" class="node">
<title>Node19</title>
<g id="a_node19"><a xlink:href="../../df/d23/_read_command_from_buffer_m_q_t_t_8ino.html" target="_top" xlink:title="An example that demonstrates receiving commands and sending an echo over MQTT.">
<polygon fill="white" stroke="#666666" points="2138,-261 1933,-261 1933,-220 2138,-220 2138,-261"/>
<text text-anchor="start" x="1941" y="-249" font-family="Helvetica,sans-Serif" font-size="10.00">examples/all_platforms</text>
<text text-anchor="start" x="1941" y="-238" font-family="Helvetica,sans-Serif" font-size="10.00">/basic/ReadCommandFromBuffer</text>
<text text-anchor="middle" x="2035.5" y="-227" font-family="Helvetica,sans-Serif" font-size="10.00">MQTT/ReadCommandFromBufferMQTT.ino</text>
</a>
</g>
</g>
<!-- Node2&#45;&gt;Node19 -->
<g id="edge23" class="edge">
<title>Node2&#45;&gt;Node19</title>
<path fill="none" stroke="#63b8ff" d="M1240.09,-304.26C1365.83,-301.11 1670.78,-290.79 1924.5,-261 1927.22,-260.68 1929.98,-260.34 1932.75,-259.98"/>
<polygon fill="#63b8ff" stroke="#63b8ff" points="1239.82,-300.77 1229.91,-304.51 1240,-307.76 1239.82,-300.77"/>
</g>
<!-- Node20 -->
<g id="node20" class="node">
<title>Node20</title>
<g id="a_node20"><a xlink:href="../../d1/d96/_wildcard_commands_8ino.html" target="_top" xlink:title="An example that demonstrates wildcard commands.">
<polygon fill="white" stroke="#666666" points="2289,-261 2156,-261 2156,-220 2289,-220 2289,-261"/>
<text text-anchor="start" x="2164" y="-249" font-family="Helvetica,sans-Serif" font-size="10.00">examples/all_platforms</text>
<text text-anchor="start" x="2164" y="-238" font-family="Helvetica,sans-Serif" font-size="10.00">/basic/WildcardCommands</text>
<text text-anchor="middle" x="2222.5" y="-227" font-family="Helvetica,sans-Serif" font-size="10.00">/WildcardCommands.ino</text>
</a>
</g>
</g>
<!-- Node2&#45;&gt;Node20 -->
<g id="edge24" class="edge">
<title>Node2&#45;&gt;Node20</title>
<path fill="none" stroke="#63b8ff" d="M1239.79,-304.41C1420.69,-300.76 1970.93,-287.72 2147.5,-261 2150.29,-260.58 2153.13,-260.09 2155.99,-259.56"/>
<polygon fill="#63b8ff" stroke="#63b8ff" points="1239.61,-300.91 1229.68,-304.61 1239.75,-307.91 1239.61,-300.91"/>
</g>
<!-- Node21 -->
<g id="node21" class="node">
<title>Node21</title>
<g id="a_node21"><a xlink:href="../../d3/dce/_read_command_from_buffer_web_serial_8ino.html" target="_top" xlink:title="An example that uses ReadCommandFromBuffer and WebSerial.">
<polygon fill="white" stroke="#666666" points="2486,-261 2307,-261 2307,-220 2486,-220 2486,-261"/>
<text text-anchor="start" x="2315" y="-249" font-family="Helvetica,sans-Serif" font-size="10.00">examples/esp/ReadCommand</text>
<text text-anchor="start" x="2315" y="-238" font-family="Helvetica,sans-Serif" font-size="10.00">FromBufferWebSerial/ReadCommand</text>
<text text-anchor="middle" x="2396.5" y="-227" font-family="Helvetica,sans-Serif" font-size="10.00">FromBufferWebSerial.ino</text>
</a>
</g>
</g>
<!-- Node2&#45;&gt;Node21 -->
<g id="edge25" class="edge">
<title>Node2&#45;&gt;Node21</title>
<path fill="none" stroke="#63b8ff" d="M1239.86,-304.38C1438.93,-300.38 2090.47,-285.69 2298.5,-261 2301.26,-260.67 2304.05,-260.31 2306.87,-259.92"/>
<polygon fill="#63b8ff" stroke="#63b8ff" points="1239.54,-300.89 1229.61,-304.59 1239.68,-307.89 1239.54,-300.89"/>
</g>
<!-- Node22 -->
<g id="node22" class="node">
<title>Node22</title>
<g id="a_node22"><a xlink:href="../../dd/dec/_input_handler_8cpp.html" target="_top" xlink:title="InputHandler library cpp file.">
<polygon fill="white" stroke="#666666" points="2611,-250 2504,-250 2504,-231 2611,-231 2611,-250"/>
<text text-anchor="middle" x="2557.5" y="-238" font-family="Helvetica,sans-Serif" font-size="10.00">src/InputHandler.cpp</text>
</a>
</g>
</g>
<!-- Node2&#45;&gt;Node22 -->
<g id="edge26" class="edge">
<title>Node2&#45;&gt;Node22</title>
<path fill="none" stroke="#63b8ff" d="M1239.65,-305.62C1460.73,-305.75 2248.83,-303.16 2495.5,-261 2509.07,-258.68 2523.79,-254.14 2535.48,-250.03"/>
<polygon fill="#63b8ff" stroke="#63b8ff" points="1239.56,-302.12 1229.56,-305.61 1239.56,-309.12 1239.56,-302.12"/>
</g>
<!-- Node5 -->
<g id="node5" class="node">
<title>Node5</title>
<g id="a_node5"><a xlink:href="../../d8/d5c/functions_8h.html" target="_top" xlink:title="Functions for MultiFile.ino.">
<polygon fill="white" stroke="#666666" points="179.5,-184 59.5,-184 59.5,-143 179.5,-143 179.5,-184"/>
<text text-anchor="start" x="67.5" y="-172" font-family="Helvetica,sans-Serif" font-size="10.00">examples/all_platforms</text>
<text text-anchor="start" x="67.5" y="-161" font-family="Helvetica,sans-Serif" font-size="10.00">/advanced/MultiFile/CLI</text>
<text text-anchor="middle" x="119.5" y="-150" font-family="Helvetica,sans-Serif" font-size="10.00">/functions.h</text>
</a>
</g>
</g>
<!-- Node4&#45;&gt;Node5 -->
<g id="edge4" class="edge">
<title>Node4&#45;&gt;Node5</title>
<path fill="none" stroke="#63b8ff" d="M206.67,-215.33C187.52,-205.26 166.39,-193.71 149.68,-184.17"/>
<polygon fill="#63b8ff" stroke="#63b8ff" points="205.11,-218.46 215.6,-219.99 208.35,-212.26 205.11,-218.46"/>
</g>
<!-- Node6 -->
<g id="node6" class="node">
<title>Node6</title>
<g id="a_node6"><a xlink:href="../../d6/d3b/parameters_8h.html" target="_top" xlink:title="Parameters and CommandConstructor objects for MultiFile.ino.">
<polygon fill="white" stroke="#666666" points="317.5,-184 197.5,-184 197.5,-143 317.5,-143 317.5,-184"/>
<text text-anchor="start" x="205.5" y="-172" font-family="Helvetica,sans-Serif" font-size="10.00">examples/all_platforms</text>
<text text-anchor="start" x="205.5" y="-161" font-family="Helvetica,sans-Serif" font-size="10.00">/advanced/MultiFile/CLI</text>
<text text-anchor="middle" x="257.5" y="-150" font-family="Helvetica,sans-Serif" font-size="10.00">/parameters.h</text>
</a>
</g>
</g>
<!-- Node4&#45;&gt;Node6 -->
<g id="edge6" class="edge">
<title>Node4&#45;&gt;Node6</title>
<path fill="none" stroke="#63b8ff" d="M250.88,-209.69C250.59,-201.08 250.79,-191.9 251.49,-184.07"/>
<polygon fill="#63b8ff" stroke="#63b8ff" points="247.39,-210.02 251.48,-219.79 254.38,-209.6 247.39,-210.02"/>
</g>
<!-- Node7 -->
<g id="node7" class="node">
<title>Node7</title>
<g id="a_node7"><a xlink:href="../../d6/d12/_multi_file_8ino.html" target="_top" xlink:title="An example that demonstrates multiple file setup.">
<polygon fill="white" stroke="#666666" points="491.5,-178.5 335.5,-178.5 335.5,-148.5 491.5,-148.5 491.5,-178.5"/>
<text text-anchor="start" x="343.5" y="-166.5" font-family="Helvetica,sans-Serif" font-size="10.00">examples/all_platforms</text>
<text text-anchor="middle" x="413.5" y="-155.5" font-family="Helvetica,sans-Serif" font-size="10.00">/advanced/MultiFile/MultiFile.ino</text>
</a>
</g>
</g>
<!-- Node4&#45;&gt;Node7 -->
<g id="edge8" class="edge">
<title>Node4&#45;&gt;Node7</title>
<path fill="none" stroke="#63b8ff" d="M307.16,-215.62C332.45,-203.47 362.33,-189.1 383.96,-178.7"/>
<polygon fill="#63b8ff" stroke="#63b8ff" points="305.58,-212.5 298.08,-219.99 308.61,-218.81 305.58,-212.5"/>
</g>
<!-- Node5&#45;&gt;Node4 -->
<g id="edge5" class="edge">
<title>Node5&#45;&gt;Node4</title>
<path fill="none" stroke="#63b8ff" d="M170.43,-188.72C189.66,-198.84 210.88,-210.44 227.61,-219.99"/>
<polygon fill="#63b8ff" stroke="#63b8ff" points="171.95,-185.57 161.47,-184.04 168.71,-191.77 171.95,-185.57"/>
</g>
<!-- Node6&#45;&gt;Node4 -->
<g id="edge7" class="edge">
<title>Node6&#45;&gt;Node4</title>
<path fill="none" stroke="#63b8ff" d="M264.12,-194.16C264.41,-202.77 264.21,-211.96 263.52,-219.79"/>
<polygon fill="#63b8ff" stroke="#63b8ff" points="267.6,-193.85 263.51,-184.07 260.62,-194.27 267.6,-193.85"/>
</g>
<!-- Node9&#45;&gt;Node8 -->
<g id="edge11" class="edge">
<title>Node9&#45;&gt;Node8</title>
<path fill="none" stroke="#63b8ff" d="M601.69,-57.69C594.59,-48.19 586.95,-37.98 581,-30.04"/>
<polygon fill="#63b8ff" stroke="#63b8ff" points="598.94,-59.86 607.74,-65.77 604.55,-55.67 598.94,-59.86"/>
</g>
<!-- Node10&#45;&gt;Node11 -->
<g id="edge13" class="edge">
<title>Node10&#45;&gt;Node11</title>
<path fill="none" stroke="#63b8ff" d="M660.5,-209.69C660.5,-201.08 660.5,-191.9 660.5,-184.07"/>
<polygon fill="#63b8ff" stroke="#63b8ff" points="657,-209.79 660.5,-219.79 664,-209.79 657,-209.79"/>
</g>
<!-- Node11&#45;&gt;Node9 -->
<g id="edge14" class="edge">
<title>Node11&#45;&gt;Node9</title>
<path fill="none" stroke="#63b8ff" d="M645.97,-133.83C641.44,-124.89 636.55,-115.24 632.42,-107.07"/>
<polygon fill="#63b8ff" stroke="#63b8ff" points="642.87,-135.46 650.52,-142.79 649.12,-132.29 642.87,-135.46"/>
</g>
</g>
</svg>
